<?xml version="1.0" standalone="yes"?><svg version="1.1" xmlns = 'http://www.w3.org/2000/svg'><defs><font id='web' horiz-adv-x="1000">
<font-face font-family="web" descent="-436" cap-height="1516" units-per-em="2048" bbox="-158,-473,2048,1989" x-height="1081" ascent="1612" />
<missing-glyph horiz-adv-x="1024" d="" /><glyph horiz-adv-x="1024" d="" unicode=" " />
<glyph horiz-adv-x="2048" d="" unicode=" " />
<glyph horiz-adv-x="496" d="" unicode=" " />
<glyph horiz-adv-x="410" d="" unicode=" " />
<glyph horiz-adv-x="987" d="" unicode="‒" />
<glyph horiz-adv-x="918" d="M 82 711 L 834 711 L 834 573 L 82 573 L 82 711 Z" unicode="–" />
<glyph horiz-adv-x="1188" d="M 82 711 L 1106 711 L 1106 573 L 82 573 L 82 711 Z" unicode="—" />
<glyph horiz-adv-x="2048" d="" unicode="―" />
<glyph horiz-adv-x="428" d="M 125 1278 L 217 1516 L 291 1516 L 231 1292 L 303 1292 L 303 1081 L 125 1081 L 125 1278 Z" unicode="‘" />
<glyph horiz-adv-x="428" d="M 199 1307 L 123 1307 L 123 1516 L 303 1516 L 303 1321 L 213 1081 L 139 1081 L 199 1307 Z" unicode="’" />
<glyph horiz-adv-x="428" d="M 199 0 L 123 0 L 123 209 L 303 209 L 303 14 L 213 -223 L 139 -223 L 199 0 Z" unicode="‚" />
<glyph horiz-adv-x="737" d="M 434 1278 L 524 1516 L 596 1516 L 539 1292 L 612 1292 L 612 1081 L 434 1081 L 434 1278 Z M 125 1278 L 217 1516 L 289 1516 L 229 1292 L 301 1292 L 301 1081 L 125 1081 L 125 1278 Z" unicode="“" />
<glyph horiz-adv-x="735" d="M 506 1307 L 434 1307 L 434 1516 L 612 1516 L 612 1321 L 520 1081 L 449 1081 L 506 1307 Z M 197 1307 L 123 1307 L 123 1516 L 303 1516 L 303 1321 L 213 1081 L 139 1081 L 197 1307 Z" unicode="”" />
<glyph horiz-adv-x="735" d="M 506 0 L 434 0 L 434 209 L 612 209 L 612 14 L 520 -223 L 449 -223 L 506 0 Z M 197 0 L 123 0 L 123 209 L 303 209 L 303 14 L 213 -223 L 139 -223 L 197 0 Z" unicode="„" />
<glyph horiz-adv-x="338" d="" unicode=" " />
<glyph horiz-adv-x="492" d="M 158 1516 L 336 1516 L 305 408 L 186 408 L 158 1516 Z M 156 201 L 336 201 L 336 0 L 156 0 L 156 201 Z" unicode="!" />
<glyph horiz-adv-x="655" d="M 399 1411 L 399 1516 L 545 1516 L 545 1411 L 522 999 L 422 999 L 399 1411 Z M 109 1411 L 109 1516 L 258 1516 L 258 1411 L 233 999 L 135 999 L 109 1411 Z" unicode="&#x22;" />
<glyph horiz-adv-x="1036" d="M 219 444 L 55 444 L 55 575 L 240 575 L 293 940 L 117 940 L 117 1071 L 313 1071 L 379 1516 L 520 1516 L 455 1071 L 674 1071 L 737 1516 L 879 1516 L 813 1071 L 981 1071 L 981 940 L 795 940 L 739 575 L 918 575 L 918 444 L 721 444 L 655 0 L 514 0 L 578 444 L 360 444 L 297 0 L 154 0 L 219 444 Z M 600 571 L 655 944 L 432 944 L 381 571 L 600 571 Z" unicode="#" />
<glyph horiz-adv-x="950" d="M 403 2 C 361 8 323 20 291 39 C 259 57 230 82 204 113 C 178 144 155 181 135 225 C 115 269 96 319 80 375 L 219 410 C 242 334 269 274 299 229 C 329 184 366 154 408 139 L 408 723 C 370 748 334 775 300 804 C 266 832 235 864 209 900 C 182 936 161 976 145 1021 C 129 1066 121 1118 121 1178 C 121 1226 127 1269 141 1309 C 154 1349 173 1383 197 1413 C 221 1442 251 1466 286 1484 C 320 1502 359 1514 403 1520 L 403 1677 L 532 1677 L 532 1516 C 571 1508 605 1495 635 1477 C 665 1459 691 1436 713 1408 C 735 1380 755 1347 772 1310 C 789 1272 805 1231 819 1186 L 680 1147 C 659 1209 636 1258 612 1294 C 588 1330 560 1355 528 1370 L 528 819 C 566 791 604 763 642 733 C 679 703 712 669 742 632 C 771 594 795 553 813 507 C 831 461 840 410 840 352 C 840 301 832 255 818 214 C 803 173 782 138 756 108 C 729 78 697 53 659 35 C 621 16 578 4 532 0 L 532 -190 L 403 -190 L 403 2 Z M 408 1380 C 364 1370 331 1348 307 1314 C 283 1279 272 1237 272 1188 C 272 1157 274 1129 279 1104 C 284 1079 292 1056 303 1034 C 313 1012 327 990 345 970 C 362 950 383 929 408 909 L 408 1380 Z M 528 133 C 578 142 617 164 645 199 C 672 234 686 282 686 342 C 686 374 682 403 676 430 C 670 456 660 481 647 505 C 634 529 618 551 598 573 C 578 594 554 615 528 637 L 528 133 Z" unicode="$" />
<glyph horiz-adv-x="1438" d="M 336 643 C 288 643 247 653 215 675 C 182 697 156 727 136 766 C 116 805 101 851 93 905 C 84 959 80 1018 80 1083 C 80 1151 84 1212 94 1268 C 104 1324 119 1371 140 1411 C 161 1450 188 1480 221 1502 C 253 1523 292 1534 338 1534 C 383 1534 422 1523 454 1502 C 486 1481 512 1451 532 1412 C 552 1373 566 1326 576 1272 C 585 1217 590 1156 590 1090 C 590 1026 585 966 576 912 C 567 857 553 810 533 770 C 513 730 486 699 454 677 C 422 654 382 643 336 643 Z M 969 1516 L 1104 1516 L 471 0 L 334 0 L 969 1516 Z M 1104 -16 C 1056 -16 1016 -5 984 16 C 952 38 926 68 906 107 C 886 146 871 193 863 247 C 854 301 850 360 850 424 C 850 492 854 554 864 610 C 874 665 889 712 910 751 C 930 790 957 820 989 842 C 1021 863 1059 874 1104 874 C 1150 874 1189 863 1221 842 C 1253 821 1280 791 1300 753 C 1320 715 1334 668 1344 614 C 1353 559 1358 498 1358 432 C 1358 368 1353 308 1344 254 C 1335 199 1321 152 1301 112 C 1281 72 1254 40 1222 18 C 1190 -4 1150 -16 1104 -16 Z M 336 762 C 358 762 376 770 391 786 C 405 802 417 825 426 854 C 435 882 441 916 445 956 C 449 996 451 1039 451 1087 C 451 1137 449 1182 445 1222 C 441 1262 434 1296 425 1324 C 416 1352 404 1373 389 1388 C 374 1403 356 1411 334 1411 C 311 1411 292 1403 278 1387 C 263 1371 251 1349 243 1321 C 234 1293 228 1259 224 1220 C 220 1181 219 1138 219 1092 C 219 1041 220 995 224 955 C 228 914 234 879 243 851 C 252 822 264 800 279 785 C 294 769 313 762 336 762 Z M 1104 102 C 1126 102 1145 110 1160 126 C 1175 142 1187 165 1196 194 C 1205 223 1211 257 1215 297 C 1219 337 1221 380 1221 428 C 1221 479 1219 525 1215 565 C 1211 605 1204 640 1195 668 C 1185 696 1173 717 1158 732 C 1143 746 1124 754 1102 754 C 1079 754 1060 746 1046 730 C 1031 714 1019 692 1011 664 C 1002 635 996 601 992 562 C 988 522 987 479 987 432 C 987 381 988 335 992 295 C 996 254 1002 219 1011 191 C 1020 162 1032 140 1047 125 C 1062 109 1081 102 1104 102 Z" unicode="%" />
<glyph horiz-adv-x="1059" d="M 475 807 C 489 775 504 746 520 718 C 536 690 551 663 567 635 C 590 595 616 551 645 505 C 674 459 705 414 737 371 C 761 428 780 491 793 561 C 805 631 813 702 817 774 L 958 774 C 948 678 934 586 915 498 C 895 410 868 330 834 260 C 868 226 902 197 936 175 C 970 153 1003 141 1036 139 L 1036 -8 C 984 -6 934 7 887 33 C 840 58 796 91 754 133 C 714 87 666 50 612 24 C 557 -2 494 -16 422 -16 C 302 -16 209 15 145 77 C 81 139 49 230 49 348 C 49 402 56 452 70 497 C 84 541 104 583 128 621 C 152 659 179 694 210 727 C 240 759 272 791 305 823 C 279 883 259 944 243 1005 C 227 1065 219 1129 219 1196 C 219 1249 225 1297 237 1339 C 249 1381 267 1416 291 1446 C 315 1475 343 1497 377 1513 C 411 1528 449 1536 492 1536 C 536 1536 574 1528 605 1514 C 635 1499 660 1479 679 1454 C 698 1428 712 1399 720 1366 C 728 1332 733 1297 733 1260 C 733 1208 725 1162 711 1121 C 696 1079 676 1041 652 1005 C 628 969 600 935 569 903 C 538 871 507 839 475 807 Z M 424 932 C 447 956 469 979 490 1003 C 510 1026 528 1050 544 1075 C 559 1100 571 1127 580 1155 C 589 1183 594 1215 594 1249 C 594 1270 592 1290 589 1310 C 585 1329 579 1346 571 1360 C 563 1374 552 1386 539 1394 C 525 1402 509 1407 489 1407 C 468 1407 450 1402 435 1392 C 419 1382 407 1369 397 1352 C 387 1334 379 1314 374 1290 C 369 1266 367 1240 367 1212 C 367 1162 372 1115 382 1071 C 392 1026 406 980 424 932 Z M 659 233 C 620 281 583 332 549 386 C 514 440 481 493 451 545 C 436 568 421 592 407 616 C 393 640 379 667 365 696 C 343 672 322 647 302 622 C 282 597 265 571 251 544 C 237 516 225 487 217 457 C 209 426 205 393 205 358 C 205 323 209 291 217 261 C 225 231 239 205 257 183 C 275 161 299 143 328 131 C 356 119 391 113 432 113 C 480 113 522 123 560 144 C 597 165 630 195 659 233 Z" unicode="&#x26;" />
<glyph horiz-adv-x="369" d="M 109 1411 L 109 1516 L 260 1516 L 260 1411 L 236 999 L 135 999 L 109 1411 Z" unicode="'" />
<glyph horiz-adv-x="610" d="M 442 -418 C 389 -355 341 -287 297 -214 C 253 -140 215 -63 183 19 C 151 101 126 187 108 277 C 90 367 82 460 82 557 C 82 653 90 745 108 835 C 126 925 151 1010 183 1092 C 215 1174 253 1251 297 1325 C 341 1398 389 1466 442 1530 L 551 1456 C 505 1395 463 1330 425 1261 C 387 1192 354 1120 327 1044 C 299 968 278 890 263 808 C 247 726 240 643 240 557 C 240 470 247 385 262 302 C 277 219 298 139 326 63 C 354 -13 387 -86 425 -155 C 463 -224 505 -288 551 -346 L 442 -418 L 442 -418 Z" unicode="(" />
<glyph horiz-adv-x="610" d="M 59 -346 C 105 -285 147 -220 185 -151 C 223 -81 255 -9 283 66 C 311 142 332 221 348 303 C 363 385 371 469 371 557 C 371 643 363 727 348 810 C 333 892 312 972 284 1049 C 256 1125 223 1198 185 1266 C 147 1334 105 1398 59 1456 L 170 1530 C 222 1466 271 1398 315 1325 C 359 1252 397 1175 429 1093 C 461 1011 485 926 503 836 C 521 746 530 653 530 557 C 530 460 521 367 503 277 C 485 187 461 101 429 19 C 397 -62 359 -139 315 -213 C 271 -286 222 -354 170 -418 L 59 -346 Z" unicode=")" />
<glyph horiz-adv-x="874" d="M 193 850 L 379 1114 L 66 1083 L 66 1217 L 381 1186 L 190 1456 L 311 1526 L 438 1223 L 567 1526 L 684 1456 L 496 1186 L 811 1217 L 811 1083 L 498 1114 L 682 850 L 567 778 L 438 1079 L 311 778 L 193 850 Z" unicode="*" />
<glyph horiz-adv-x="932" d="M 397 600 L 86 600 L 86 739 L 397 739 L 397 1157 L 537 1157 L 537 739 L 846 739 L 846 600 L 537 600 L 537 180 L 397 180 L 397 600 Z" unicode="+" />
<glyph horiz-adv-x="430" d="M 199 0 L 121 0 L 121 209 L 307 209 L 307 16 L 219 -215 L 145 -215 L 199 0 Z" unicode="," />
<glyph horiz-adv-x="539" d="M 82 711 L 455 711 L 455 573 L 82 573 L 82 711 Z" unicode="-" />
<glyph horiz-adv-x="430" d="M 121 209 L 307 209 L 307 0 L 121 0 L 121 209 Z" unicode="." />
<glyph horiz-adv-x="819" d="M 641 1516 L 797 1516 L 178 0 L 23 0 L 641 1516 Z" unicode="/" />
<glyph horiz-adv-x="952" d="M 475 -18 C 407 -18 348 -3 298 26 C 248 56 206 102 173 165 C 139 228 114 309 97 407 C 80 505 72 622 72 758 C 72 894 80 1011 97 1109 C 114 1207 139 1287 173 1350 C 206 1413 248 1459 298 1489 C 348 1519 407 1534 475 1534 C 543 1534 602 1519 653 1489 C 703 1459 745 1413 778 1350 C 811 1287 836 1207 852 1109 C 868 1011 877 894 877 758 C 877 622 868 505 852 407 C 836 309 811 228 778 165 C 745 102 703 56 653 26 C 602 -3 543 -18 475 -18 Z M 475 119 C 515 119 551 130 581 152 C 611 174 637 210 657 260 C 677 310 693 375 703 457 C 713 538 719 638 719 758 C 719 877 713 977 703 1058 C 692 1139 676 1204 656 1254 C 635 1304 609 1339 579 1361 C 549 1382 514 1393 475 1393 C 435 1393 399 1382 369 1361 C 339 1339 313 1304 293 1254 C 272 1204 256 1139 246 1058 C 236 977 231 877 231 758 C 231 638 236 538 247 457 C 257 375 273 310 294 260 C 315 210 341 174 371 152 C 401 130 435 119 475 119 Z" unicode="0" />
<glyph horiz-adv-x="666" d="M 78 141 L 281 141 L 281 1346 C 267 1336 252 1326 236 1318 C 219 1310 202 1302 184 1296 C 166 1290 149 1285 131 1281 C 113 1277 97 1276 82 1276 L 82 1417 C 123 1419 161 1428 197 1444 C 232 1460 261 1484 285 1516 L 434 1516 L 434 141 L 614 141 L 614 0 L 78 0 L 78 141 Z" unicode="1" />
<glyph horiz-adv-x="854" d="M 61 33 C 61 113 68 185 84 247 C 100 309 121 364 147 413 C 173 462 202 506 235 545 C 268 584 302 621 336 655 C 370 689 404 723 437 757 C 470 790 500 825 526 863 C 552 900 572 941 588 986 C 604 1030 612 1081 612 1139 C 612 1308 552 1393 432 1393 C 405 1393 381 1388 360 1380 C 338 1372 319 1358 302 1338 C 284 1318 269 1292 256 1260 C 242 1228 231 1187 221 1139 L 78 1161 C 101 1281 142 1373 201 1437 C 260 1501 340 1534 442 1534 C 494 1534 540 1525 580 1508 C 620 1490 653 1465 681 1432 C 709 1398 730 1358 744 1310 C 758 1262 766 1207 766 1147 C 766 1084 758 1027 743 977 C 727 927 707 880 682 838 C 656 795 628 755 596 719 C 564 683 531 648 497 614 C 463 580 431 546 399 512 C 367 478 338 442 313 405 C 287 367 267 327 252 284 C 236 241 229 193 229 141 L 768 141 L 768 0 L 61 0 L 61 33 Z" unicode="2" />
<glyph horiz-adv-x="870" d="M 420 -20 C 366 -20 318 -12 278 2 C 237 16 201 38 171 66 C 141 94 115 129 94 171 C 72 212 54 259 39 313 L 178 344 C 201 264 233 205 273 169 C 313 133 361 115 418 115 C 454 115 486 122 513 136 C 540 150 562 171 580 197 C 598 223 611 255 620 293 C 628 331 633 373 633 420 C 633 476 628 524 619 564 C 609 604 593 636 569 662 C 545 688 514 707 474 719 C 434 731 383 737 322 737 L 276 737 L 276 870 L 334 870 C 388 870 433 875 469 886 C 505 896 533 913 554 936 C 574 958 589 987 597 1023 C 605 1058 610 1100 610 1149 C 610 1185 607 1218 601 1249 C 595 1279 584 1306 570 1328 C 556 1350 536 1368 512 1380 C 488 1392 458 1399 422 1399 C 394 1399 370 1394 349 1384 C 327 1374 308 1361 292 1345 C 275 1328 260 1308 248 1285 C 236 1262 225 1238 215 1212 L 80 1255 C 94 1296 113 1334 135 1369 C 157 1403 182 1433 212 1458 C 241 1483 274 1503 310 1517 C 346 1531 386 1538 430 1538 C 492 1538 545 1528 588 1509 C 630 1490 665 1464 691 1430 C 717 1396 735 1357 747 1311 C 758 1265 764 1215 764 1161 C 764 1061 744 982 705 925 C 666 868 612 830 543 811 C 583 798 619 781 650 761 C 680 740 706 714 726 682 C 746 650 761 612 771 568 C 781 524 786 472 786 412 C 786 350 778 292 763 240 C 748 187 726 141 696 103 C 666 64 628 34 582 12 C 536 -9 482 -20 420 -20 Z" unicode="3" />
<glyph horiz-adv-x="901" d="M 541 365 L 41 365 L 41 481 L 522 1516 L 690 1516 L 690 502 L 866 502 L 866 365 L 690 365 L 690 0 L 541 0 L 541 365 Z M 543 502 L 543 1262 L 541 1262 L 195 502 L 543 502 Z" unicode="4" />
<glyph horiz-adv-x="864" d="M 422 -20 C 369 -20 323 -11 283 4 C 243 20 209 43 180 73 C 151 102 126 137 106 179 C 86 220 69 265 55 315 L 195 352 C 217 273 247 214 283 174 C 319 134 364 115 418 115 C 460 115 495 125 523 146 C 551 166 574 194 592 230 C 610 265 622 306 630 353 C 637 400 641 450 641 502 C 641 623 624 715 592 777 C 559 839 510 870 446 870 C 394 870 351 854 318 822 C 284 790 256 746 233 692 L 104 721 L 145 1516 L 739 1516 L 737 1374 L 279 1374 L 252 877 C 273 917 304 948 345 971 C 385 994 433 1006 487 1006 C 534 1006 577 996 615 978 C 653 959 686 930 714 890 C 741 850 762 798 777 736 C 791 673 799 598 799 510 C 799 422 790 344 772 278 C 754 212 729 157 697 113 C 664 69 624 35 578 13 C 532 -8 480 -20 422 -20 Z" unicode="5" />
<glyph horiz-adv-x="893" d="M 463 -18 C 401 -18 345 -3 297 25 C 249 54 208 99 174 160 C 140 220 115 298 98 392 C 80 486 72 599 72 731 C 72 849 78 957 91 1056 C 103 1154 125 1239 157 1311 C 188 1382 230 1438 283 1478 C 336 1518 403 1538 483 1538 C 529 1538 570 1530 604 1515 C 638 1500 667 1481 691 1457 C 715 1433 736 1406 752 1377 C 768 1347 781 1318 791 1290 L 655 1243 C 647 1262 638 1281 628 1300 C 617 1318 604 1335 590 1350 C 576 1364 559 1376 540 1385 C 521 1394 499 1399 475 1399 C 426 1399 386 1384 354 1356 C 322 1327 297 1287 278 1235 C 259 1183 246 1120 238 1048 C 230 975 227 895 227 807 C 261 851 301 886 349 912 C 396 938 448 952 504 952 C 566 952 619 940 661 916 C 703 892 736 859 762 817 C 788 775 806 725 817 668 C 828 610 834 549 834 483 C 834 409 826 341 811 280 C 795 218 772 166 742 122 C 711 78 672 43 626 19 C 580 -5 525 -18 463 -18 Z M 465 117 C 608 117 680 237 680 477 C 680 527 676 572 670 614 C 663 655 652 690 636 720 C 620 750 599 773 573 790 C 547 806 514 815 475 815 C 427 815 382 801 340 774 C 298 747 260 710 227 662 C 232 480 253 344 290 253 C 326 162 385 117 465 117 Z" unicode="6" />
<glyph horiz-adv-x="801" d="M 594 1374 L 63 1374 L 63 1516 L 750 1516 L 750 1382 L 307 0 L 150 0 L 594 1374 Z" unicode="7" />
<glyph horiz-adv-x="895" d="M 446 -29 C 377 -29 318 -18 269 1 C 219 21 179 49 147 84 C 115 118 91 158 76 204 C 60 250 53 298 53 348 C 53 403 61 453 77 497 C 93 541 114 581 141 617 C 167 653 197 685 231 715 C 265 745 300 773 336 799 C 305 822 275 846 247 871 C 219 896 194 924 172 955 C 150 985 132 1019 119 1057 C 106 1095 100 1138 100 1188 C 100 1236 107 1282 122 1325 C 136 1368 158 1406 187 1438 C 216 1470 252 1496 295 1515 C 338 1534 388 1544 446 1544 C 506 1544 558 1534 602 1515 C 646 1496 682 1470 710 1438 C 738 1405 759 1367 773 1324 C 786 1281 793 1236 793 1188 C 793 1144 786 1103 774 1066 C 762 1028 745 994 724 962 C 702 930 677 901 649 874 C 621 847 591 822 559 799 C 595 773 629 746 663 719 C 697 692 727 661 753 627 C 779 593 800 553 816 509 C 832 465 840 413 840 354 C 840 300 832 250 816 204 C 800 157 775 116 743 82 C 710 48 669 21 620 1 C 570 -19 512 -29 446 -29 Z M 459 879 C 483 899 507 919 529 941 C 551 962 570 985 587 1010 C 603 1035 616 1062 626 1090 C 636 1118 641 1150 641 1184 C 641 1214 637 1242 631 1269 C 624 1296 613 1320 598 1341 C 583 1361 563 1378 539 1390 C 515 1402 485 1409 449 1409 C 413 1409 383 1403 359 1391 C 335 1379 315 1364 300 1344 C 284 1324 273 1300 266 1274 C 259 1248 256 1220 256 1190 C 256 1153 261 1120 272 1091 C 283 1061 298 1034 317 1009 C 335 984 357 961 382 940 C 406 919 432 899 459 879 Z M 446 104 C 521 104 579 126 620 172 C 661 217 682 280 682 360 C 682 400 675 437 662 471 C 649 504 631 535 609 564 C 587 592 561 619 532 644 C 502 668 472 693 440 717 C 410 693 381 669 353 644 C 325 619 300 592 279 564 C 257 535 240 503 228 469 C 215 435 209 396 209 354 C 209 317 214 283 225 253 C 235 222 251 196 271 174 C 291 152 316 134 346 122 C 375 110 408 104 446 104 Z" unicode="8" />
<glyph horiz-adv-x="893" d="M 412 -20 C 364 -20 323 -12 289 2 C 255 17 225 36 201 60 C 177 84 157 110 141 140 C 125 169 112 198 102 227 L 236 274 C 244 254 253 235 264 216 C 274 197 287 180 302 165 C 316 150 333 138 353 129 C 372 119 394 115 420 115 C 468 115 507 129 539 158 C 571 186 596 227 615 279 C 633 331 646 393 654 467 C 662 540 666 621 666 711 C 632 667 591 631 544 604 C 496 576 445 563 389 563 C 326 563 274 575 232 599 C 190 623 156 657 130 699 C 104 741 86 791 75 849 C 64 906 59 968 59 1034 C 59 1107 66 1174 82 1236 C 97 1297 120 1350 151 1395 C 182 1439 221 1474 267 1499 C 313 1523 368 1536 430 1536 C 492 1536 547 1521 595 1492 C 643 1463 684 1418 717 1357 C 750 1296 775 1218 793 1124 C 810 1029 819 916 819 786 C 819 666 812 556 800 458 C 788 359 766 274 736 203 C 705 132 663 77 611 38 C 558 0 492 -20 412 -20 Z M 418 702 C 465 702 510 715 552 742 C 594 768 632 806 666 856 C 660 1034 639 1169 602 1261 C 564 1353 506 1399 428 1399 C 284 1399 213 1279 213 1040 C 213 990 216 944 223 903 C 229 861 240 826 256 796 C 272 766 293 742 319 726 C 345 710 378 702 418 702 Z" unicode="9" />
<glyph horiz-adv-x="434" d="M 125 1081 L 307 1081 L 307 870 L 125 870 L 125 1081 Z M 125 209 L 307 209 L 307 0 L 125 0 L 125 209 Z" unicode=":" />
<glyph horiz-adv-x="434" d="M 125 1081 L 307 1081 L 307 870 L 125 870 L 125 1081 Z M 201 0 L 125 0 L 125 209 L 307 209 L 307 16 L 219 -215 L 147 -215 L 201 0 Z" unicode=";" />
<glyph horiz-adv-x="932" d="M 88 604 L 88 723 L 819 1157 L 819 1012 L 229 664 L 819 315 L 819 170 L 88 604 Z" unicode="&#x3C;" />
<glyph horiz-adv-x="932" d="M 84 958 L 846 958 L 846 827 L 84 827 L 84 958 Z M 84 506 L 846 506 L 846 373 L 84 373 L 84 506 Z" unicode="=" />
<glyph horiz-adv-x="932" d="M 113 315 L 702 664 L 113 1012 L 113 1157 L 846 723 L 846 604 L 113 170 L 113 315 Z" unicode="&#x3E;" />
<glyph horiz-adv-x="788" d="M 289 406 C 289 451 290 490 292 524 C 294 558 297 588 303 614 C 308 640 315 664 324 686 C 332 707 343 728 356 749 C 368 770 383 792 400 815 C 416 837 435 863 457 893 C 472 913 486 934 500 955 C 513 976 525 998 535 1021 C 545 1044 552 1069 558 1095 C 564 1121 567 1150 567 1182 C 567 1212 563 1241 557 1267 C 550 1293 540 1315 526 1334 C 512 1352 494 1367 472 1377 C 450 1387 425 1393 395 1393 C 367 1393 343 1387 322 1377 C 300 1367 281 1352 265 1334 C 248 1315 233 1293 220 1267 C 207 1241 195 1214 184 1184 L 47 1221 C 61 1267 79 1309 100 1347 C 121 1385 146 1418 175 1446 C 204 1474 237 1495 275 1511 C 313 1526 355 1534 403 1534 C 457 1534 505 1525 545 1508 C 585 1490 618 1466 644 1436 C 670 1406 690 1370 703 1328 C 716 1286 723 1240 723 1190 C 723 1152 719 1116 711 1084 C 703 1052 693 1021 680 993 C 666 965 651 938 634 912 C 616 886 598 860 578 836 C 554 805 533 778 517 755 C 501 731 487 709 476 689 C 465 669 456 649 450 630 C 444 611 439 591 436 569 C 433 547 431 523 431 497 C 430 471 430 440 430 406 L 289 406 Z M 266 201 L 449 201 L 449 0 L 266 0 L 266 201 Z" unicode="?" />
<glyph horiz-adv-x="1270" d="M 635 -29 C 547 -29 468 -12 398 21 C 328 55 268 105 218 171 C 168 237 130 318 103 416 C 76 514 63 627 63 756 C 63 883 77 996 105 1094 C 133 1192 172 1274 222 1341 C 272 1407 333 1458 403 1492 C 473 1526 551 1544 637 1544 C 721 1544 798 1526 868 1492 C 938 1457 997 1407 1047 1341 C 1097 1275 1135 1195 1163 1101 C 1190 1006 1204 898 1204 778 C 1204 621 1181 506 1135 432 C 1089 358 1026 322 944 322 C 912 322 884 326 861 334 C 838 342 819 353 803 367 C 787 381 774 397 764 415 C 754 433 747 453 743 473 C 729 451 715 431 700 413 C 684 394 668 378 650 365 C 632 351 612 341 592 333 C 572 325 550 322 526 322 C 490 322 458 330 432 346 C 406 362 384 386 366 416 C 348 446 335 482 327 525 C 319 568 315 616 317 670 C 318 752 325 826 339 893 C 352 959 371 1016 396 1063 C 420 1110 450 1146 486 1172 C 522 1197 562 1210 608 1210 C 648 1210 682 1200 710 1180 C 738 1160 761 1132 778 1098 L 788 1192 L 911 1192 L 852 596 C 848 562 848 533 852 509 C 855 485 861 466 870 452 C 878 438 890 427 904 421 C 918 415 934 412 954 412 C 977 412 998 418 1017 430 C 1036 442 1052 463 1066 492 C 1080 520 1090 558 1098 605 C 1106 652 1110 710 1110 780 C 1110 890 1098 987 1076 1071 C 1053 1155 1021 1226 979 1284 C 937 1342 887 1385 829 1415 C 771 1445 706 1460 635 1460 C 563 1460 498 1445 440 1416 C 382 1387 332 1343 290 1285 C 248 1227 216 1154 194 1066 C 171 978 160 876 160 760 C 160 642 171 540 194 452 C 217 364 249 290 291 232 C 333 174 383 130 442 101 C 500 71 565 57 637 57 C 693 57 748 64 800 78 C 852 92 900 111 944 137 L 983 66 C 960 51 935 38 908 26 C 880 14 852 4 822 -3 C 792 -11 761 -18 729 -22 C 697 -26 666 -29 635 -29 Z M 557 438 C 591 438 620 448 646 468 C 672 488 697 515 723 549 L 768 991 C 750 1022 730 1047 706 1066 C 682 1084 655 1094 625 1094 C 599 1094 576 1085 555 1067 C 533 1049 515 1023 500 988 C 484 953 472 910 463 859 C 454 807 449 748 449 682 C 447 596 456 533 474 495 C 492 457 519 438 557 438 Z" unicode="@" />
<glyph horiz-adv-x="948" d="M 188 0 L 45 0 L 397 1522 L 551 1522 L 903 0 L 745 0 L 649 444 L 287 444 L 188 0 Z M 553 883 C 545 920 537 955 530 989 C 523 1023 516 1057 510 1091 C 503 1125 496 1161 490 1197 C 483 1233 477 1273 471 1317 L 465 1317 C 459 1273 452 1232 446 1196 C 439 1159 432 1124 426 1090 C 419 1056 412 1023 405 990 C 398 957 391 922 383 885 L 315 573 L 621 573 L 553 883 Z" unicode="A" />
<glyph horiz-adv-x="958" d="M 127 1516 L 436 1516 C 575 1516 679 1486 747 1426 C 815 1366 850 1269 850 1135 C 850 1077 844 1027 833 987 C 821 947 806 913 786 886 C 766 859 743 838 717 822 C 691 806 663 793 633 784 L 633 780 C 667 772 699 760 730 744 C 761 727 788 704 811 675 C 834 646 852 610 866 567 C 880 524 887 472 887 412 C 887 271 851 167 781 100 C 710 33 605 0 465 0 L 127 0 L 127 1516 Z M 430 844 C 520 844 586 865 628 907 C 670 949 692 1018 692 1112 C 692 1158 687 1198 679 1231 C 671 1264 657 1291 637 1312 C 617 1333 590 1349 557 1359 C 523 1369 482 1374 432 1374 L 285 1374 L 285 844 L 430 844 Z M 465 135 C 513 135 554 140 588 152 C 621 164 648 182 669 206 C 689 230 704 260 713 296 C 722 332 727 374 727 422 C 727 524 703 598 655 644 C 607 690 534 713 436 713 L 285 713 L 285 135 L 465 135 Z" unicode="B" />
<glyph horiz-adv-x="963" d="M 512 -16 C 442 -16 380 -1 326 27 C 272 56 226 102 190 165 C 153 227 125 307 106 405 C 87 503 78 620 78 758 C 78 893 88 1010 108 1108 C 128 1206 156 1286 193 1349 C 230 1412 275 1459 329 1489 C 382 1519 442 1534 510 1534 C 572 1534 626 1522 671 1498 C 715 1474 753 1441 783 1398 C 813 1354 836 1302 853 1242 C 870 1182 883 1115 891 1042 L 737 1024 C 723 1140 698 1230 663 1292 C 628 1354 577 1386 510 1386 C 462 1386 422 1372 388 1345 C 354 1317 325 1277 303 1224 C 281 1171 264 1106 254 1028 C 243 950 238 860 238 760 C 238 552 260 395 304 288 C 348 180 418 127 512 127 C 547 127 578 134 605 149 C 631 164 654 187 674 218 C 694 248 710 287 724 335 C 737 382 748 438 756 504 L 909 487 C 899 413 884 345 865 283 C 845 221 820 168 789 124 C 757 80 719 45 674 21 C 628 -3 574 -16 512 -16 Z" unicode="C" />
<glyph horiz-adv-x="991" d="M 127 1516 L 393 1516 C 481 1516 557 1502 622 1476 C 687 1449 741 1406 784 1346 C 827 1286 859 1209 881 1113 C 902 1017 913 899 913 760 C 913 620 902 502 880 406 C 858 309 826 231 783 171 C 739 111 685 67 620 40 C 555 13 479 0 393 0 L 127 0 L 127 1516 Z M 416 139 C 477 139 529 151 572 176 C 614 200 649 238 676 289 C 702 339 722 404 734 482 C 746 560 752 652 752 760 C 752 864 746 955 734 1032 C 722 1109 702 1173 676 1223 C 649 1273 614 1311 571 1335 C 528 1359 476 1372 414 1372 L 287 1372 L 287 139 L 416 139 Z" unicode="D" />
<glyph horiz-adv-x="831" d="M 127 1516 L 745 1516 L 745 1372 L 287 1372 L 287 872 L 616 872 L 616 733 L 287 733 L 287 141 L 772 141 L 772 0 L 127 0 L 127 1516 Z" unicode="E" />
<glyph horiz-adv-x="793" d="M 127 1516 L 745 1516 L 745 1372 L 287 1372 L 287 866 L 618 866 L 618 725 L 287 725 L 287 0 L 127 0 L 127 1516 Z" unicode="F" />
<glyph horiz-adv-x="1006" d="M 496 -14 C 426 -14 365 1 313 31 C 261 61 217 108 182 172 C 147 235 121 315 104 413 C 86 510 78 626 78 760 C 78 894 88 1010 108 1108 C 128 1206 156 1286 193 1349 C 230 1412 275 1459 329 1489 C 382 1519 442 1534 510 1534 C 566 1534 615 1523 657 1503 C 699 1482 736 1451 767 1410 C 797 1369 822 1318 842 1257 C 862 1195 877 1124 889 1042 L 739 1022 C 723 1144 698 1236 663 1297 C 627 1358 576 1389 510 1389 C 328 1389 238 1180 238 762 C 238 554 260 396 305 288 C 350 180 420 127 514 127 C 598 127 659 164 698 238 C 737 312 758 426 760 580 L 532 580 L 532 717 L 899 717 L 899 0 L 774 0 L 774 193 L 772 193 C 762 164 749 137 733 112 C 717 86 697 64 674 46 C 651 27 625 12 595 2 C 565 -8 532 -14 496 -14 Z" unicode="G" />
<glyph horiz-adv-x="1026" d="M 127 1516 L 287 1516 L 287 872 L 739 872 L 739 1516 L 899 1516 L 899 0 L 739 0 L 739 731 L 287 731 L 287 0 L 127 0 L 127 1516 Z" unicode="H" />
<glyph horiz-adv-x="434" d="M 137 1516 L 297 1516 L 297 0 L 137 0 L 137 1516 Z" unicode="I" />
<glyph horiz-adv-x="725" d="M 303 -16 C 270 -16 239 -13 210 -7 C 181 -1 155 5 131 15 C 107 24 85 34 67 46 C 48 58 32 70 20 82 L 104 197 C 127 177 154 160 184 145 C 214 130 249 123 289 123 C 344 123 384 139 409 171 C 433 203 446 253 446 319 L 446 1516 L 606 1516 L 606 324 C 606 263 598 211 584 168 C 570 125 549 90 523 63 C 497 35 465 15 428 3 C 390 -9 349 -16 303 -16 Z" unicode="J" />
<glyph horiz-adv-x="936" d="M 127 1516 L 285 1516 L 285 721 C 289 733 297 751 308 775 C 318 798 331 824 345 852 C 359 880 375 910 391 941 C 407 972 422 1002 438 1030 L 700 1516 L 858 1516 L 532 915 L 909 0 L 745 0 L 430 764 L 285 498 L 285 0 L 127 0 L 127 1516 Z" unicode="K" />
<glyph horiz-adv-x="797" d="M 127 1516 L 287 1516 L 287 141 L 748 141 L 748 0 L 127 0 L 127 1516 Z" unicode="L" />
<glyph horiz-adv-x="1231" d="M 127 1516 L 328 1516 L 612 244 L 618 244 L 901 1516 L 1102 1516 L 1102 0 L 954 0 L 954 1260 L 952 1260 C 948 1234 943 1203 936 1167 C 928 1131 920 1092 911 1052 C 902 1011 893 969 883 926 C 873 883 863 841 854 801 L 674 0 L 541 0 L 358 819 C 348 856 339 896 329 938 C 319 980 310 1021 302 1061 C 293 1101 285 1138 278 1172 C 271 1206 266 1235 264 1257 L 260 1257 L 260 0 L 127 0 L 127 1516 Z" unicode="M" />
<glyph horiz-adv-x="1026" d="M 127 1516 L 307 1516 L 651 639 C 673 579 694 524 713 474 C 732 424 748 380 762 340 L 764 340 L 764 1516 L 899 1516 L 899 0 L 760 0 L 371 979 C 361 1001 351 1026 340 1054 C 329 1082 319 1109 309 1136 C 299 1163 290 1188 282 1211 C 274 1233 268 1250 264 1262 L 260 1262 L 260 0 L 127 0 L 127 1516 Z" unicode="N" />
<glyph horiz-adv-x="1032" d="M 516 -16 C 448 -16 388 0 334 30 C 280 60 234 107 196 171 C 158 234 128 314 108 412 C 88 509 78 624 78 758 C 78 891 88 1006 108 1104 C 128 1202 158 1282 196 1346 C 234 1410 280 1457 334 1488 C 388 1518 448 1534 516 1534 C 582 1534 643 1518 697 1488 C 751 1457 797 1410 835 1346 C 873 1282 903 1202 924 1104 C 945 1006 956 891 956 758 C 956 624 945 509 924 412 C 903 314 873 234 835 171 C 797 107 751 60 697 30 C 643 0 582 -16 516 -16 Z M 516 127 C 610 127 681 181 727 289 C 773 397 797 554 797 758 C 797 962 773 1118 727 1225 C 681 1332 610 1386 516 1386 C 422 1386 353 1332 307 1225 C 261 1118 238 962 238 758 C 238 554 261 397 307 289 C 353 181 422 127 516 127 Z" unicode="O" />
<glyph horiz-adv-x="909" d="M 127 1516 L 426 1516 C 490 1516 549 1508 603 1493 C 656 1478 701 1454 739 1420 C 777 1386 806 1341 827 1285 C 847 1229 858 1161 858 1081 C 858 991 846 917 824 859 C 802 801 771 755 732 721 C 692 687 646 663 592 649 C 538 635 479 629 416 629 L 285 629 L 285 0 L 127 0 L 127 1516 Z M 430 766 C 476 766 517 771 551 783 C 585 795 612 813 634 838 C 656 863 672 895 682 934 C 692 973 698 1020 698 1075 C 698 1128 693 1173 683 1211 C 673 1249 657 1280 635 1304 C 613 1328 585 1345 551 1357 C 517 1368 476 1374 428 1374 L 285 1374 L 285 766 L 430 766 Z" unicode="P" />
<glyph horiz-adv-x="1034" d="M 782 -385 C 716 -385 661 -376 617 -358 C 573 -340 537 -315 511 -283 C 484 -250 465 -210 454 -164 C 443 -117 438 -65 438 -8 C 384 2 334 24 290 58 C 246 92 208 141 176 203 C 144 265 120 341 103 433 C 86 524 78 632 78 758 C 78 891 88 1006 109 1104 C 129 1202 159 1282 197 1346 C 235 1410 281 1457 335 1488 C 389 1518 450 1534 518 1534 C 584 1534 645 1518 699 1488 C 753 1457 799 1410 837 1346 C 875 1282 904 1202 925 1104 C 945 1006 956 891 956 758 C 956 631 947 522 929 430 C 911 338 887 261 855 199 C 823 137 784 89 739 56 C 693 22 643 1 588 -8 C 589 -55 594 -94 604 -124 C 614 -154 628 -178 646 -196 C 664 -214 686 -226 713 -233 C 739 -240 771 -244 807 -244 L 877 -244 L 877 -385 L 782 -385 Z M 518 119 C 564 119 605 133 640 161 C 675 189 704 231 727 285 C 750 339 767 406 779 486 C 791 565 797 656 797 758 C 797 961 773 1116 727 1224 C 681 1332 611 1386 518 1386 C 424 1386 353 1332 307 1224 C 261 1116 238 961 238 758 C 238 656 243 565 255 486 C 267 406 284 339 307 285 C 330 231 359 189 394 161 C 429 133 470 119 518 119 Z" unicode="Q" />
<glyph horiz-adv-x="952" d="M 872 0 L 711 0 L 473 641 C 465 639 456 639 448 639 C 440 639 431 639 422 639 L 285 639 L 285 0 L 127 0 L 127 1516 L 414 1516 C 561 1516 671 1481 745 1412 C 819 1343 856 1233 856 1083 C 856 1040 852 998 844 957 C 836 916 822 878 804 842 C 786 806 762 774 733 746 C 703 717 667 694 625 676 L 872 0 Z M 424 772 C 474 772 516 777 551 789 C 586 800 614 818 636 842 C 658 866 673 898 683 937 C 693 976 698 1023 698 1079 C 698 1131 693 1176 683 1214 C 673 1251 658 1281 636 1305 C 614 1329 584 1346 548 1357 C 512 1368 467 1374 414 1374 L 285 1374 L 285 772 L 424 772 Z" unicode="R" />
<glyph horiz-adv-x="905" d="M 463 -23 C 403 -23 350 -13 306 4 C 261 22 222 49 189 84 C 156 119 128 161 106 211 C 83 261 64 317 49 381 L 197 414 C 208 366 221 324 237 288 C 252 252 270 221 292 196 C 313 171 338 152 366 140 C 394 127 427 121 465 121 C 535 121 587 140 622 179 C 656 217 674 269 674 334 C 674 372 665 409 649 443 C 633 477 611 510 584 542 C 557 574 527 605 493 636 C 459 666 424 697 388 729 C 352 761 317 793 283 827 C 249 861 218 896 191 934 C 164 972 142 1012 126 1055 C 110 1098 102 1145 102 1196 C 102 1248 110 1296 127 1338 C 144 1380 168 1416 198 1446 C 228 1475 265 1498 307 1514 C 349 1530 395 1538 446 1538 C 498 1538 544 1529 584 1512 C 624 1494 658 1470 688 1438 C 717 1406 742 1367 763 1323 C 783 1278 801 1228 815 1174 L 670 1135 C 658 1177 646 1215 632 1247 C 618 1279 602 1305 584 1327 C 566 1349 545 1365 522 1376 C 498 1387 472 1393 442 1393 C 384 1393 340 1377 308 1345 C 276 1313 260 1266 260 1206 C 260 1164 268 1125 284 1089 C 300 1053 322 1018 349 986 C 375 953 406 921 440 891 C 474 860 509 829 545 798 C 581 767 616 735 650 703 C 684 670 715 635 742 598 C 768 561 790 521 806 479 C 822 437 831 390 831 340 C 831 286 822 236 804 192 C 786 147 760 109 728 77 C 696 45 657 20 612 3 C 566 -14 517 -23 463 -23 Z" unicode="S" />
<glyph horiz-adv-x="852" d="M 344 1372 L 43 1372 L 43 1516 L 807 1516 L 807 1372 L 506 1372 L 506 0 L 344 0 L 344 1372 Z" unicode="T" />
<glyph horiz-adv-x="997" d="M 502 -16 C 428 -16 366 -4 317 20 C 268 44 229 77 200 121 C 170 164 149 216 137 277 C 125 337 119 405 119 479 L 119 1516 L 276 1516 L 276 504 C 276 445 279 392 286 345 C 292 298 304 258 321 225 C 338 192 361 167 391 149 C 421 131 458 123 504 123 C 548 123 585 131 614 148 C 642 165 665 190 682 223 C 698 255 710 295 717 341 C 723 387 727 440 727 500 L 727 1516 L 879 1516 L 879 483 C 879 407 872 339 860 278 C 848 216 827 164 798 120 C 769 76 730 43 682 19 C 634 -4 574 -16 502 -16 Z" unicode="U" />
<glyph horiz-adv-x="930" d="M 43 1516 L 201 1516 L 387 643 C 401 577 415 509 429 440 C 443 370 456 295 469 215 L 473 215 C 479 253 485 290 491 326 C 497 362 504 397 511 431 C 517 465 524 500 531 535 C 538 569 545 605 553 641 L 741 1516 L 887 1516 L 541 -6 L 387 -6 L 43 1516 Z" unicode="V" />
<glyph horiz-adv-x="1343" d="M 49 1516 L 203 1516 L 348 610 C 352 582 357 555 361 531 C 365 507 368 482 372 456 C 376 430 379 401 383 371 C 387 341 391 306 395 266 L 399 266 C 403 304 408 339 412 369 C 416 399 420 427 424 453 C 428 479 432 505 436 530 C 440 555 444 582 449 610 L 596 1516 L 743 1516 L 893 610 C 897 581 902 554 906 529 C 910 504 914 479 918 453 C 922 427 926 399 930 369 C 934 339 938 304 942 266 L 946 266 C 950 304 954 338 958 368 C 962 398 965 426 969 452 C 973 478 976 503 980 528 C 984 552 988 578 993 606 L 1139 1516 L 1278 1516 L 1008 -2 L 870 -2 L 668 1264 L 662 1264 L 455 -2 L 317 -2 L 49 1516 Z" unicode="W" />
<glyph horiz-adv-x="918" d="M 377 811 L 84 1516 L 246 1516 L 469 969 L 684 1516 L 834 1516 L 541 815 L 879 0 L 717 0 L 451 651 L 186 0 L 37 0 L 377 811 Z" unicode="X" />
<glyph horiz-adv-x="860" d="M 350 586 L 23 1516 L 184 1516 L 434 766 L 438 766 L 686 1516 L 840 1516 L 510 586 L 510 0 L 350 0 L 350 586 Z" unicode="Y" />
<glyph horiz-adv-x="862" d="M 53 123 L 621 1372 L 96 1372 L 96 1516 L 799 1516 L 799 1389 L 229 141 L 799 141 L 799 0 L 53 0 L 53 123 Z" unicode="Z" />
<glyph horiz-adv-x="571" d="M 119 1516 L 514 1516 L 514 1389 L 276 1389 L 276 -285 L 514 -285 L 514 -410 L 119 -410 L 119 1516 Z" unicode="[" />
<glyph horiz-adv-x="819" d="M 23 1516 L 178 1516 L 797 0 L 641 0 L 23 1516 Z" unicode="\" />
<glyph horiz-adv-x="571" d="M 59 -285 L 297 -285 L 297 1389 L 59 1389 L 59 1516 L 455 1516 L 455 -410 L 59 -410 L 59 -285 Z" unicode="]" />
<glyph horiz-adv-x="944" d="M 412 1516 L 530 1516 L 854 768 L 707 768 L 471 1337 L 238 768 L 90 768 L 412 1516 Z" unicode="^" />
<glyph horiz-adv-x="735" d="M -10 -135 L 745 -135 L 745 -262 L -10 -262 L -10 -135 Z" unicode="_" />
<glyph horiz-adv-x="745" d="M 145 1509 L 315 1509 L 451 1194 L 346 1194 L 145 1509 Z" unicode="`" />
<glyph horiz-adv-x="799" d="M 272 -10 C 204 -10 151 13 115 60 C 79 106 61 172 61 258 C 61 308 70 356 90 402 C 110 448 140 491 180 531 C 220 571 270 607 330 639 C 390 671 461 697 543 719 L 543 797 C 543 849 533 889 514 919 C 494 948 463 963 420 963 C 396 963 372 958 349 949 C 326 940 304 929 283 915 C 262 901 243 885 225 869 C 207 852 192 836 178 821 L 84 918 C 132 973 186 1017 247 1049 C 307 1081 371 1098 438 1098 C 484 1098 524 1091 556 1078 C 588 1065 615 1046 635 1021 C 655 995 669 964 678 926 C 687 888 692 845 692 797 L 692 266 C 692 200 693 146 697 104 C 700 62 706 28 715 0 L 561 0 C 558 10 556 19 554 28 C 552 37 550 47 548 57 C 546 67 545 77 544 89 C 543 101 543 115 543 131 C 507 85 467 50 425 26 C 382 2 331 -10 272 -10 Z M 330 123 C 350 123 371 126 391 133 C 411 140 430 149 448 161 C 466 173 483 186 499 201 C 515 216 529 232 543 248 L 543 592 C 481 575 428 555 386 531 C 343 507 309 481 283 453 C 257 425 238 395 226 364 C 214 333 209 302 209 272 C 209 218 220 179 242 157 C 264 134 294 123 330 123 Z" unicode="a" />
<glyph horiz-adv-x="856" d="M 489 -12 C 463 -12 440 -8 418 -1 C 396 5 376 15 358 28 C 339 40 321 56 305 74 C 289 92 274 111 260 133 L 260 0 L 109 0 L 109 1513 L 260 1513 L 260 956 C 272 973 285 990 301 1007 C 317 1024 334 1039 354 1053 C 373 1066 394 1077 418 1085 C 442 1093 468 1098 496 1098 C 539 1098 579 1088 615 1068 C 651 1048 683 1017 709 973 C 735 929 755 871 769 801 C 783 731 791 645 791 545 C 791 443 783 356 768 286 C 753 215 732 157 705 113 C 678 69 646 37 610 17 C 573 -2 533 -12 489 -12 Z M 455 123 C 483 123 509 130 531 145 C 553 160 572 184 588 218 C 603 251 615 294 623 348 C 631 401 635 466 635 543 C 635 617 630 681 622 733 C 614 785 602 828 586 861 C 570 894 551 918 529 933 C 507 948 481 956 453 956 C 433 956 413 952 395 944 C 377 936 359 925 343 913 C 327 901 312 887 298 872 C 284 857 271 843 260 829 L 260 256 C 286 218 316 186 350 161 C 384 135 419 123 455 123 Z" unicode="b" />
<glyph horiz-adv-x="768" d="M 406 -16 C 354 -16 308 -4 266 19 C 224 42 189 77 159 123 C 129 169 106 227 90 297 C 74 367 66 448 66 541 C 66 636 74 719 91 789 C 107 859 131 916 161 962 C 191 1008 228 1042 270 1064 C 312 1086 360 1098 412 1098 C 459 1098 500 1090 534 1074 C 568 1058 596 1035 620 1006 C 644 976 663 941 679 900 C 694 859 707 814 717 764 L 575 737 C 567 772 558 804 549 832 C 540 860 529 883 517 902 C 505 921 490 936 472 946 C 454 956 433 961 408 961 C 349 961 303 926 269 857 C 235 788 219 683 219 541 C 219 475 222 416 229 364 C 236 312 247 267 263 231 C 279 194 299 166 323 146 C 347 126 377 117 412 117 C 436 117 456 121 474 130 C 491 139 506 153 519 172 C 532 190 544 214 554 243 C 564 272 573 306 582 346 L 721 322 C 698 212 662 128 612 70 C 562 12 494 -16 406 -16 Z" unicode="c" />
<glyph horiz-adv-x="856" d="M 362 -12 C 318 -12 278 -2 242 18 C 206 38 175 70 149 114 C 123 158 103 215 89 285 C 75 355 68 441 68 543 C 68 643 75 729 90 799 C 105 869 126 927 152 971 C 178 1015 210 1048 247 1068 C 284 1088 325 1098 369 1098 C 420 1098 464 1084 500 1058 C 536 1032 568 998 596 956 L 596 1516 L 750 1516 L 750 266 C 750 200 751 146 755 104 C 758 62 764 28 772 0 L 612 0 C 610 9 608 20 606 33 C 604 46 602 59 601 72 C 599 85 598 97 597 107 C 596 117 596 125 596 129 C 584 111 570 94 554 78 C 538 61 521 46 502 33 C 482 19 461 8 438 0 C 415 -7 390 -12 362 -12 Z M 406 123 C 425 123 443 126 461 134 C 479 142 496 152 512 164 C 528 176 543 189 557 204 C 571 219 584 234 596 250 L 596 825 C 582 843 567 861 552 877 C 537 893 522 906 506 918 C 490 930 473 939 456 946 C 438 952 421 956 403 956 C 374 956 348 948 326 934 C 304 919 285 895 270 863 C 254 831 243 788 235 736 C 227 684 223 620 223 545 C 223 469 227 404 235 351 C 243 297 255 254 271 220 C 287 186 306 162 329 146 C 351 130 377 123 406 123 Z" unicode="d" />
<glyph horiz-adv-x="799" d="M 410 -16 C 357 -16 309 -4 267 18 C 225 40 189 75 159 121 C 129 167 106 225 90 295 C 74 365 66 447 66 541 C 66 637 74 720 91 790 C 107 860 131 917 161 963 C 191 1009 228 1043 270 1065 C 312 1087 360 1098 412 1098 C 470 1098 519 1083 560 1054 C 600 1024 633 984 659 934 C 684 884 702 825 714 758 C 725 690 731 619 731 543 L 731 500 L 215 500 C 216 377 233 282 266 216 C 299 150 349 117 416 117 C 442 117 465 121 485 130 C 505 138 522 151 537 168 C 551 184 564 205 575 229 C 585 253 595 281 604 313 L 729 276 C 703 177 664 104 610 56 C 556 8 490 -16 410 -16 Z M 584 621 C 582 671 578 717 571 759 C 563 801 553 837 539 867 C 525 897 507 920 486 937 C 464 954 439 963 410 963 C 382 963 356 956 334 943 C 311 930 291 910 275 883 C 259 855 246 820 236 777 C 226 733 219 681 217 621 L 584 621 Z" unicode="e" />
<glyph horiz-adv-x="512" d="M 162 950 L 31 950 L 31 1081 L 162 1081 L 162 1262 C 162 1350 184 1415 228 1456 C 272 1497 336 1518 422 1518 C 450 1518 471 1516 485 1513 L 485 1380 C 483 1380 481 1381 477 1381 C 473 1381 469 1382 464 1382 C 459 1382 454 1382 449 1382 C 444 1382 440 1382 436 1382 C 398 1382 369 1372 347 1354 C 325 1336 315 1303 315 1257 L 315 1081 L 477 1081 L 477 950 L 315 950 L 315 0 L 162 0 L 162 950 Z" unicode="f" />
<glyph horiz-adv-x="834" d="M 618 991 C 642 1015 669 1037 701 1055 C 733 1073 763 1085 793 1092 L 793 934 C 775 934 756 932 735 928 C 713 924 691 918 668 909 C 679 880 688 849 695 816 C 701 783 705 747 705 709 C 705 647 697 592 681 544 C 665 496 644 455 616 423 C 588 391 554 366 516 349 C 477 332 435 324 389 324 C 347 324 309 330 276 344 C 262 332 251 320 243 306 C 235 292 231 277 231 262 C 231 240 237 224 249 214 C 261 203 286 194 322 188 L 485 162 C 581 147 653 118 699 76 C 745 33 768 -28 768 -109 C 768 -155 758 -197 739 -235 C 720 -273 693 -305 659 -331 C 624 -357 582 -378 534 -392 C 485 -406 431 -414 371 -414 C 255 -414 168 -390 110 -343 C 52 -296 23 -232 23 -152 C 23 -99 35 -51 61 -9 C 87 32 124 66 174 92 C 148 106 129 124 116 146 C 102 168 96 195 96 227 C 96 256 104 285 122 314 C 140 343 163 369 193 393 C 153 428 123 472 103 526 C 82 579 72 640 72 709 C 72 768 79 822 95 870 C 111 918 133 958 161 992 C 189 1026 223 1052 262 1070 C 300 1088 343 1098 389 1098 C 485 1098 562 1062 618 991 Z M 389 446 C 445 446 487 468 515 514 C 543 559 557 623 557 707 C 557 792 543 857 516 903 C 489 948 447 971 389 971 C 333 971 292 947 264 901 C 236 855 223 790 223 707 C 223 623 237 559 265 514 C 293 468 335 446 389 446 Z M 276 61 C 239 37 212 9 196 -23 C 180 -55 172 -89 172 -125 C 172 -178 189 -220 223 -251 C 257 -281 311 -297 387 -297 C 464 -297 523 -281 563 -249 C 603 -217 623 -176 623 -125 C 623 -103 620 -84 614 -67 C 608 -49 599 -34 586 -21 C 572 -7 554 3 531 13 C 507 22 478 29 444 35 L 276 61 Z" unicode="g" />
<glyph horiz-adv-x="854" d="M 109 1516 L 260 1516 L 260 946 C 274 962 291 980 311 998 C 331 1016 354 1032 379 1047 C 403 1062 429 1074 457 1084 C 485 1093 513 1098 543 1098 C 577 1098 608 1093 634 1083 C 660 1073 681 1057 699 1035 C 717 1013 730 984 739 950 C 747 915 752 873 752 823 L 752 0 L 598 0 L 598 788 C 598 844 590 885 574 913 C 558 940 530 954 489 954 C 469 954 449 949 428 941 C 407 933 387 922 367 910 C 347 897 327 883 309 868 C 290 852 274 837 260 823 L 260 0 L 109 0 L 109 1516 Z" unicode="h" />
<glyph horiz-adv-x="391" d="M 117 1464 L 274 1464 L 274 1280 L 117 1280 L 117 1464 Z M 119 1081 L 272 1081 L 272 0 L 119 0 L 119 1081 Z" unicode="i" />
<glyph horiz-adv-x="391" d="M 117 1464 L 274 1464 L 274 1280 L 117 1280 L 117 1464 Z M 66 -412 C 63 -412 58 -411 52 -411 C 45 -411 38 -410 31 -410 C 24 -409 18 -408 12 -408 C 6 -407 2 -406 2 -406 L 2 -281 C 5 -282 12 -283 23 -284 C 33 -284 41 -285 47 -285 C 73 -285 92 -275 103 -257 C 113 -239 119 -211 119 -174 L 119 1081 L 272 1081 L 272 -166 C 272 -211 268 -249 260 -281 C 252 -312 239 -337 223 -357 C 206 -376 185 -390 159 -399 C 133 -407 102 -412 66 -412 Z" unicode="j" />
<glyph horiz-adv-x="778" d="M 109 1516 L 258 1516 L 258 510 C 265 527 273 546 283 566 C 293 586 303 606 313 626 C 323 646 334 666 345 686 C 355 706 365 725 375 743 L 557 1081 L 707 1081 L 479 678 L 741 0 L 588 0 L 383 528 L 258 309 L 258 0 L 109 0 L 109 1516 Z" unicode="k" />
<glyph horiz-adv-x="391" d="M 119 1516 L 272 1516 L 272 0 L 119 0 L 119 1516 Z" unicode="l" />
<glyph horiz-adv-x="1313" d="M 109 1081 L 260 1081 L 260 946 C 274 963 291 981 311 999 C 330 1017 351 1033 374 1048 C 397 1062 422 1074 448 1084 C 474 1093 501 1098 530 1098 C 588 1098 633 1084 664 1057 C 694 1029 715 991 727 942 C 743 962 762 981 783 1000 C 803 1018 826 1035 850 1050 C 874 1064 899 1076 925 1085 C 951 1093 978 1098 1006 1098 C 1076 1098 1128 1076 1162 1033 C 1195 990 1212 919 1212 821 L 1212 0 L 1059 0 L 1059 788 C 1059 843 1051 884 1036 912 C 1021 940 992 954 950 954 C 913 954 877 941 842 917 C 806 892 771 861 735 823 L 735 0 L 584 0 L 584 788 C 584 844 576 886 562 915 C 547 943 519 958 477 958 C 457 958 438 954 420 947 C 402 940 384 930 366 918 C 348 906 331 891 313 875 C 295 859 278 841 260 823 L 260 0 L 109 0 L 109 1081 Z" unicode="m" />
<glyph horiz-adv-x="854" d="M 109 1081 L 260 1081 L 260 946 C 274 962 291 980 311 998 C 331 1016 354 1032 379 1047 C 403 1062 429 1074 457 1084 C 485 1093 513 1098 543 1098 C 577 1098 608 1093 634 1083 C 660 1073 681 1057 699 1035 C 717 1013 730 984 739 950 C 747 915 752 873 752 823 L 752 0 L 598 0 L 598 788 C 598 844 590 885 574 913 C 558 940 530 954 489 954 C 469 954 449 949 428 941 C 407 933 387 922 367 910 C 347 897 327 883 309 868 C 290 852 274 837 260 823 L 260 0 L 109 0 L 109 1081 Z" unicode="n" />
<glyph horiz-adv-x="831" d="M 418 -16 C 364 -16 315 -4 271 19 C 227 42 190 77 160 123 C 130 169 106 227 90 297 C 74 367 66 448 66 541 C 66 633 74 714 90 784 C 106 854 129 912 159 959 C 189 1005 226 1040 270 1063 C 314 1086 363 1098 418 1098 C 472 1098 520 1086 563 1063 C 606 1040 643 1005 673 959 C 703 912 726 854 742 784 C 758 714 766 633 766 541 C 766 448 758 367 742 297 C 726 227 703 169 673 123 C 643 77 606 42 563 19 C 520 -4 472 -16 418 -16 Z M 418 115 C 452 115 481 124 505 143 C 529 162 549 190 565 227 C 581 263 592 308 599 361 C 606 413 610 473 610 541 C 610 602 606 658 600 710 C 594 762 583 806 568 844 C 553 881 533 910 509 931 C 484 952 454 963 418 963 C 382 963 352 953 327 934 C 301 914 281 887 265 851 C 249 815 237 770 230 718 C 222 666 219 607 219 541 C 219 479 222 422 229 370 C 235 318 246 273 262 235 C 277 197 297 167 323 146 C 349 125 380 115 418 115 Z" unicode="o" />
<glyph horiz-adv-x="856" d="M 109 1081 L 260 1081 L 260 956 C 272 973 285 990 301 1007 C 317 1024 334 1039 354 1053 C 373 1066 394 1077 418 1085 C 442 1093 468 1098 496 1098 C 539 1098 579 1088 615 1068 C 651 1048 683 1017 709 973 C 735 929 755 871 769 801 C 783 731 791 645 791 545 C 791 443 783 356 768 286 C 753 215 732 157 705 113 C 678 69 646 37 610 17 C 573 -2 533 -12 489 -12 C 437 -12 393 1 357 27 C 320 53 288 87 260 129 L 260 -410 L 109 -410 L 109 1081 Z M 455 123 C 483 123 509 130 531 145 C 553 160 572 184 588 218 C 603 251 615 294 623 348 C 631 401 635 466 635 543 C 635 617 630 681 622 733 C 614 785 602 828 586 861 C 570 894 551 918 529 933 C 507 948 481 956 453 956 C 433 956 413 952 395 944 C 377 936 359 925 343 913 C 327 901 312 887 298 872 C 284 857 271 843 260 829 L 260 256 C 286 218 316 186 350 161 C 384 135 419 123 455 123 Z" unicode="p" />
<glyph horiz-adv-x="856" d="M 596 131 C 584 113 570 96 554 79 C 538 62 521 47 502 34 C 482 20 461 9 438 1 C 415 -7 390 -12 362 -12 C 318 -12 278 -2 242 17 C 206 37 175 68 149 112 C 123 156 103 213 89 284 C 75 354 68 441 68 543 C 68 643 75 729 90 799 C 105 869 126 927 152 971 C 178 1015 210 1048 247 1068 C 284 1088 325 1098 369 1098 C 420 1098 464 1084 500 1058 C 536 1032 568 998 596 956 L 596 1081 L 748 1081 L 748 -410 L 594 -410 L 596 131 Z M 406 123 C 425 123 443 126 461 134 C 479 142 496 152 512 164 C 528 176 543 189 557 204 C 571 219 584 234 596 250 L 596 825 C 582 843 567 861 553 877 C 538 893 523 907 507 919 C 491 931 474 940 457 947 C 439 954 421 958 403 958 C 373 958 347 950 325 936 C 303 921 284 897 269 864 C 254 831 243 788 235 736 C 227 684 223 620 223 545 C 223 469 227 404 235 351 C 243 297 255 254 271 220 C 287 186 306 162 329 146 C 351 130 377 123 406 123 Z" unicode="q" />
<glyph horiz-adv-x="590" d="M 109 1081 L 260 1081 L 260 909 L 264 909 C 276 935 292 959 310 982 C 328 1004 348 1024 371 1042 C 394 1059 419 1073 447 1083 C 475 1093 505 1098 537 1098 L 559 1098 L 549 948 L 518 948 C 490 948 464 942 438 932 C 412 921 388 907 366 889 C 343 871 323 850 305 826 C 287 802 272 778 260 752 L 260 0 L 109 0 L 109 1081 Z" unicode="r" />
<glyph horiz-adv-x="739" d="M 369 -20 C 326 -20 287 -14 253 -2 C 218 10 187 27 159 49 C 131 71 106 99 85 131 C 63 163 45 198 29 238 L 158 293 C 179 235 206 189 240 157 C 274 125 316 109 367 109 C 421 109 461 122 489 149 C 516 175 530 210 530 252 C 530 280 523 306 510 329 C 497 351 480 372 459 392 C 438 412 414 430 387 448 C 359 466 332 484 304 503 C 276 521 248 541 221 563 C 193 584 169 608 148 634 C 127 660 110 690 97 723 C 84 756 78 794 78 836 C 78 878 86 915 102 948 C 118 981 140 1009 167 1032 C 194 1054 225 1072 259 1084 C 293 1096 329 1102 365 1102 C 405 1102 440 1096 472 1085 C 504 1073 532 1057 557 1036 C 582 1015 604 989 623 959 C 641 929 658 894 672 856 L 543 805 C 527 854 505 894 476 924 C 446 954 410 969 367 969 C 345 969 326 965 309 959 C 292 953 277 944 265 932 C 253 920 243 907 237 891 C 230 875 227 858 227 840 C 227 810 233 784 246 761 C 259 738 276 717 298 697 C 319 677 343 658 370 640 C 397 622 425 604 453 585 C 481 566 509 546 536 525 C 563 504 587 481 609 455 C 630 429 647 399 660 367 C 673 335 680 298 680 256 C 680 215 672 178 658 144 C 644 110 623 81 596 57 C 569 33 536 14 498 0 C 460 -13 417 -20 369 -20 Z" unicode="s" />
<glyph horiz-adv-x="565" d="M 397 -8 C 355 -8 320 -4 290 3 C 260 11 235 24 216 42 C 196 60 182 84 172 114 C 162 144 158 181 158 227 L 158 950 L 29 950 L 29 1081 L 158 1081 L 158 1466 L 311 1466 L 311 1081 L 506 1081 L 506 950 L 311 950 L 311 266 C 311 239 312 216 316 198 C 320 179 326 164 335 152 C 344 140 356 132 371 127 C 386 121 405 119 428 119 C 442 119 457 120 471 123 C 485 125 497 129 506 133 L 506 4 C 494 0 479 -2 459 -4 C 439 -6 418 -8 397 -8 Z" unicode="t" />
<glyph horiz-adv-x="850" d="M 311 -12 C 275 -12 245 -7 219 2 C 193 12 171 27 154 49 C 136 71 123 99 115 133 C 106 167 102 210 102 260 L 102 1081 L 254 1081 L 254 293 C 254 237 262 195 278 168 C 294 140 323 127 367 127 C 385 127 405 131 425 139 C 445 147 464 158 484 171 C 503 183 521 197 539 213 C 557 229 573 244 588 258 L 588 1081 L 741 1081 L 741 0 L 588 0 L 588 137 C 574 120 557 103 537 85 C 517 67 496 51 472 37 C 448 23 422 11 395 2 C 367 -7 339 -12 311 -12 Z" unicode="u" />
<glyph horiz-adv-x="750" d="M 33 1081 L 182 1081 L 328 434 C 337 390 346 346 355 302 C 363 257 371 210 379 160 L 383 160 C 391 210 399 257 408 303 C 417 349 426 392 434 434 L 578 1081 L 715 1081 L 455 -4 L 293 -4 L 33 1081 Z" unicode="v" />
<glyph horiz-adv-x="1087" d="M 33 1081 L 178 1081 L 293 492 C 296 472 299 453 302 435 C 305 417 308 398 311 379 C 314 360 317 339 321 317 C 324 294 328 268 332 240 L 336 240 C 340 268 344 294 347 318 C 350 341 353 363 356 383 C 359 403 362 422 366 441 C 369 459 373 479 377 500 L 485 1081 L 618 1081 L 729 498 C 732 476 735 456 738 438 C 741 420 744 401 747 381 C 749 361 752 339 756 316 C 759 293 763 266 768 236 L 774 236 C 778 266 781 293 785 316 C 789 338 792 359 795 378 C 798 397 801 415 805 433 C 808 450 811 469 815 489 L 928 1081 L 1055 1081 L 831 -2 L 702 -2 L 547 831 L 543 831 L 385 -2 L 256 -2 L 33 1081 Z" unicode="w" />
<glyph horiz-adv-x="752" d="M 297 563 L 57 1081 L 213 1081 L 385 694 L 551 1081 L 694 1081 L 453 563 L 715 0 L 559 0 L 369 428 L 178 0 L 33 0 L 297 563 Z" unicode="x" />
<glyph horiz-adv-x="772" d="M 143 -412 C 110 -412 82 -409 60 -404 C 38 -398 18 -393 2 -387 L 35 -262 C 46 -266 60 -269 76 -272 C 92 -274 112 -276 135 -276 C 155 -276 172 -272 187 -265 C 201 -257 214 -246 225 -231 C 236 -216 246 -197 255 -175 C 264 -152 273 -125 281 -94 L 311 16 L 33 1081 L 186 1081 L 332 481 C 336 457 341 436 346 416 C 350 396 355 375 359 354 C 363 332 368 310 372 286 C 376 262 381 235 387 205 L 391 205 C 396 235 401 261 405 285 C 409 309 414 331 419 353 C 423 374 428 395 433 415 C 437 435 443 456 449 479 L 594 1081 L 739 1081 L 422 -117 C 408 -169 394 -213 379 -250 C 363 -287 345 -318 324 -342 C 302 -366 277 -383 248 -395 C 218 -406 183 -412 143 -412 Z" unicode="y" />
<glyph horiz-adv-x="715" d="M 53 106 L 469 950 L 90 950 L 90 1081 L 643 1081 L 643 973 L 223 129 L 662 129 L 662 0 L 53 0 L 53 106 Z" unicode="z" />
<glyph horiz-adv-x="571" d="M 434 -410 C 352 -410 293 -386 258 -338 C 222 -290 205 -222 205 -133 L 205 260 C 205 308 202 348 196 379 C 190 409 180 433 168 450 C 155 467 138 479 118 485 C 98 491 73 494 45 494 L 45 612 C 75 612 100 615 120 621 C 140 627 157 639 169 656 C 181 673 190 697 196 728 C 202 758 205 798 205 846 L 205 1239 C 205 1283 209 1323 217 1357 C 225 1391 239 1420 258 1444 C 276 1467 300 1485 330 1497 C 360 1509 396 1516 440 1516 L 539 1516 L 539 1389 L 475 1389 C 435 1389 406 1377 388 1353 C 370 1329 362 1292 362 1241 L 362 844 C 362 794 358 752 352 719 C 346 686 337 659 326 638 C 314 616 300 599 283 587 C 266 575 247 564 227 555 L 227 551 C 247 541 266 530 283 518 C 300 506 314 489 326 468 C 337 446 346 419 352 386 C 358 353 362 312 362 262 L 362 -139 C 362 -191 371 -228 389 -251 C 407 -273 435 -285 475 -285 L 539 -285 L 539 -410 L 434 -410 L 434 -410 Z" unicode="{" />
<glyph horiz-adv-x="537" d="M 193 1516 L 344 1516 L 344 -410 L 193 -410 L 193 1516 Z" unicode="|" />
<glyph horiz-adv-x="571" d="M 33 -289 L 94 -289 C 133 -289 162 -277 180 -253 C 198 -229 207 -191 207 -139 L 207 262 C 207 312 210 353 216 386 C 222 419 231 446 243 468 C 255 489 269 506 286 518 C 303 530 322 541 344 551 L 344 555 C 322 564 303 575 286 587 C 269 599 255 616 243 638 C 231 659 222 686 216 719 C 210 752 207 794 207 844 L 207 1241 C 207 1292 198 1330 180 1355 C 162 1380 134 1393 94 1393 L 33 1393 L 33 1516 L 131 1516 C 174 1516 211 1509 241 1497 C 271 1485 295 1467 314 1444 C 332 1420 346 1391 354 1357 C 362 1323 367 1283 367 1239 L 367 846 C 367 798 369 758 375 728 C 380 697 389 673 402 656 C 414 639 430 627 450 621 C 470 615 494 612 524 612 L 524 494 C 495 494 471 491 451 485 C 431 479 414 467 402 450 C 390 433 381 409 375 379 C 369 348 367 308 367 260 L 367 -133 C 367 -222 349 -290 313 -338 C 277 -386 218 -410 137 -410 L 33 -410 L 33 -289 Z" unicode="}" />
<glyph horiz-adv-x="944" d="M 668 549 C 633 549 598 555 563 569 C 528 582 494 596 461 612 C 427 628 395 642 365 656 C 334 669 306 676 281 676 C 260 676 242 669 227 655 C 212 641 202 616 197 580 L 80 596 C 87 670 108 725 143 760 C 177 795 222 813 276 813 C 310 813 345 806 381 793 C 417 779 451 764 485 748 C 518 732 550 717 581 704 C 611 690 640 684 666 684 C 687 684 705 690 720 704 C 734 717 744 742 750 778 L 866 768 C 858 690 838 634 806 600 C 774 566 728 549 668 549 Z" unicode="~" />
<glyph horiz-adv-x="741" d="" unicode="₀" />
<glyph horiz-adv-x="492" d="" unicode="₁" />
<glyph horiz-adv-x="649" d="" unicode="₂" />
<glyph horiz-adv-x="639" d="" unicode="₃" />
<glyph horiz-adv-x="672" d="" unicode="₄" />
<glyph horiz-adv-x="690" d="" unicode="₅" />
<glyph horiz-adv-x="700" d="" unicode="₆" />
<glyph horiz-adv-x="610" d="" unicode="₇" />
<glyph horiz-adv-x="696" d="" unicode="₈" />
<glyph horiz-adv-x="700" d="" unicode="₉" />
<glyph horiz-adv-x="338" d="" unicode=" " />
<glyph horiz-adv-x="492" d="M 154 1516 L 336 1516 L 336 1315 L 154 1315 L 154 1516 Z M 184 1108 L 303 1108 L 334 0 L 156 0 L 184 1108 Z" unicode="¡" />
<glyph horiz-adv-x="768" d="M 338 -14 C 296 -4 259 15 225 43 C 191 71 163 108 139 155 C 115 201 97 257 85 321 C 72 385 66 459 66 541 C 66 624 72 698 85 762 C 97 826 115 882 139 928 C 163 974 191 1011 225 1039 C 259 1067 296 1086 338 1096 L 338 1305 L 463 1305 L 463 1100 C 501 1094 534 1082 562 1064 C 590 1046 613 1022 633 994 C 653 965 669 932 683 894 C 696 856 707 814 717 770 L 575 743 C 568 772 561 799 554 823 C 547 847 539 869 530 888 C 521 907 511 923 499 936 C 487 949 473 959 457 965 L 457 111 C 489 122 515 146 533 184 C 551 221 567 273 582 340 L 721 315 C 701 217 671 140 630 84 C 588 28 533 -6 463 -18 L 463 -264 L 338 -264 L 338 -14 Z M 344 954 C 304 931 274 885 252 817 C 230 748 219 656 219 541 C 219 487 221 438 226 392 C 230 346 238 306 248 270 C 258 234 271 203 287 178 C 303 152 322 133 344 121 L 344 954 Z" unicode="¢" />
<glyph horiz-adv-x="922" d="M 121 735 L 121 858 L 276 858 C 253 918 233 975 216 1031 C 198 1086 190 1138 190 1188 C 190 1243 197 1292 212 1335 C 226 1378 247 1414 274 1444 C 301 1473 334 1495 372 1511 C 410 1526 452 1534 498 1534 C 552 1534 597 1524 635 1505 C 672 1485 702 1458 726 1424 C 750 1389 767 1348 779 1301 C 791 1254 798 1203 801 1147 L 655 1137 C 653 1175 649 1210 643 1242 C 637 1274 628 1302 616 1326 C 604 1350 588 1368 568 1381 C 548 1394 524 1401 496 1401 C 473 1401 452 1397 434 1389 C 415 1381 399 1368 385 1351 C 371 1334 361 1312 353 1286 C 345 1260 342 1228 342 1192 C 342 1144 351 1091 369 1035 C 387 978 407 919 430 858 L 688 858 L 688 735 L 473 735 C 489 685 503 633 515 581 C 526 528 532 475 532 422 C 532 378 529 338 523 301 C 517 263 510 229 500 199 C 521 175 543 155 565 139 C 587 123 611 115 637 115 C 677 115 707 137 726 181 C 744 225 754 299 754 401 L 893 401 C 893 335 888 277 880 225 C 871 173 857 129 837 93 C 817 57 792 29 760 10 C 728 -8 689 -18 643 -18 C 622 -18 603 -15 585 -9 C 567 -3 550 5 534 15 C 518 25 502 36 488 50 C 473 63 459 77 446 92 C 418 54 385 27 347 9 C 309 -9 268 -18 223 -18 C 193 -18 166 -13 140 -4 C 114 4 92 17 73 34 C 53 51 38 72 27 98 C 15 123 10 152 10 184 C 10 216 14 245 24 272 C 34 299 48 322 66 342 C 84 361 107 376 133 387 C 159 397 188 403 221 403 C 254 403 284 395 312 380 C 340 364 365 345 389 322 C 390 336 391 351 392 367 C 392 383 393 400 393 418 C 393 468 386 519 372 573 C 358 627 341 681 322 735 L 121 735 Z M 360 197 C 338 223 316 246 294 264 C 272 282 248 291 223 291 C 198 291 177 282 161 265 C 145 247 137 222 137 188 C 137 159 145 136 163 119 C 181 102 201 94 225 94 C 250 94 275 101 299 115 C 323 129 344 157 360 197 Z" unicode="£" />
<glyph horiz-adv-x="866" d="M 352 227 L 86 227 L 86 350 L 352 350 L 352 516 L 86 516 L 86 637 L 338 637 L 27 1516 L 188 1516 L 436 784 L 440 784 L 688 1516 L 840 1516 L 524 637 L 778 637 L 778 516 L 512 516 L 512 350 L 778 350 L 778 227 L 512 227 L 512 0 L 352 0 L 352 227 Z" unicode="¥" />
<glyph horiz-adv-x="537" d="M 193 1516 L 344 1516 L 344 678 L 193 678 L 193 1516 Z M 193 428 L 344 428 L 344 -410 L 193 -410 L 193 428 Z" unicode="¦" />
<glyph horiz-adv-x="821" d="M 256 932 C 237 950 220 970 205 991 C 189 1012 176 1034 165 1058 C 153 1081 144 1106 138 1133 C 132 1160 129 1189 129 1221 C 129 1267 135 1311 149 1351 C 163 1391 182 1425 208 1454 C 234 1482 265 1505 302 1521 C 339 1537 381 1546 428 1546 C 482 1546 527 1537 564 1520 C 600 1503 631 1479 655 1448 C 679 1416 698 1379 712 1335 C 725 1291 735 1242 743 1188 L 602 1161 C 596 1201 588 1236 579 1267 C 570 1297 559 1323 545 1344 C 531 1365 515 1381 496 1392 C 476 1403 453 1409 426 1409 C 402 1409 381 1404 363 1396 C 345 1387 329 1375 317 1359 C 305 1343 296 1324 290 1302 C 284 1280 281 1255 281 1229 C 281 1197 286 1167 297 1141 C 308 1114 323 1089 343 1065 C 362 1041 385 1018 411 995 C 437 972 466 948 496 924 C 534 892 569 862 602 834 C 634 806 663 776 687 745 C 711 714 729 680 743 644 C 757 608 764 566 764 518 C 764 484 758 451 748 419 C 738 387 724 356 706 328 C 688 300 666 273 642 249 C 617 225 591 204 563 186 C 581 166 598 146 614 126 C 629 105 642 83 653 60 C 664 36 673 11 679 -15 C 685 -41 688 -70 688 -102 C 688 -150 681 -193 668 -233 C 654 -273 635 -307 610 -335 C 585 -363 554 -386 518 -402 C 482 -418 441 -426 395 -426 C 341 -426 295 -417 259 -401 C 223 -384 193 -360 169 -329 C 145 -298 126 -261 113 -217 C 99 -173 89 -124 82 -70 L 225 -43 C 231 -83 238 -118 247 -149 C 255 -180 266 -206 280 -227 C 293 -248 309 -264 328 -275 C 346 -285 369 -291 397 -291 C 444 -291 479 -274 502 -241 C 525 -207 537 -165 537 -113 C 537 -81 532 -53 522 -27 C 512 -1 499 23 481 47 C 463 71 442 94 418 116 C 394 138 367 162 338 186 C 298 218 262 248 228 276 C 194 304 164 334 139 366 C 113 398 93 432 79 470 C 64 507 57 550 57 600 C 57 633 62 665 72 697 C 82 729 96 759 114 787 C 132 815 153 842 177 866 C 201 890 228 912 256 932 Z M 465 276 C 511 306 547 340 574 378 C 600 416 614 458 614 504 C 614 534 609 561 599 586 C 589 610 575 634 557 657 C 539 680 517 703 491 727 C 465 750 437 775 406 803 C 397 809 389 815 382 821 C 374 827 366 834 358 842 C 312 810 275 776 249 738 C 222 700 209 658 209 612 C 209 582 214 554 224 530 C 234 505 248 481 266 458 C 284 435 307 412 333 389 C 359 365 388 340 420 313 C 427 307 434 301 442 295 C 450 289 457 282 465 276 Z" unicode="§" />
<glyph horiz-adv-x="752" d="M 436 1370 L 588 1370 L 588 1194 L 436 1194 L 436 1370 Z M 164 1370 L 313 1370 L 313 1194 L 164 1194 L 164 1370 Z" unicode="¨" />
<glyph horiz-adv-x="1145" d="M 573 -29 C 496 -29 426 -8 363 32 C 299 72 245 128 200 199 C 154 270 119 353 94 449 C 69 544 57 646 57 756 C 57 865 69 968 94 1064 C 119 1160 154 1243 200 1314 C 246 1385 300 1441 364 1482 C 427 1523 497 1544 573 1544 C 623 1544 671 1534 717 1516 C 762 1497 804 1471 842 1437 C 880 1403 914 1363 944 1315 C 974 1267 1000 1215 1021 1157 C 1042 1099 1058 1036 1070 969 C 1081 902 1087 832 1087 760 C 1087 650 1074 548 1049 452 C 1024 356 989 272 944 201 C 898 129 844 73 781 32 C 718 -8 649 -29 573 -29 Z M 573 57 C 635 57 693 75 745 112 C 797 148 841 198 878 261 C 915 324 944 398 964 483 C 984 568 995 659 995 756 C 995 853 984 944 964 1030 C 943 1115 914 1189 877 1253 C 840 1316 796 1366 744 1403 C 692 1439 635 1458 573 1458 C 511 1458 454 1439 402 1403 C 350 1367 305 1317 268 1254 C 230 1191 201 1117 181 1032 C 160 947 150 856 150 760 C 150 662 160 571 181 486 C 201 400 230 326 268 262 C 305 198 350 148 402 112 C 454 75 511 57 573 57 Z M 575 326 C 496 326 435 362 393 434 C 351 506 330 618 330 770 C 330 919 351 1030 394 1104 C 437 1177 497 1214 575 1214 C 609 1214 639 1207 664 1193 C 689 1179 710 1159 727 1134 C 744 1109 758 1080 768 1046 C 778 1012 785 974 791 934 L 690 922 C 686 950 681 976 675 999 C 669 1022 661 1042 652 1058 C 643 1074 632 1086 619 1095 C 606 1103 591 1108 573 1108 C 548 1108 527 1100 510 1084 C 492 1068 478 1046 467 1017 C 456 987 448 952 443 910 C 438 868 436 822 436 770 C 436 718 438 671 443 629 C 448 587 456 551 467 522 C 478 493 492 471 510 455 C 527 439 548 432 573 432 C 609 432 636 448 656 480 C 676 512 690 563 698 631 L 801 616 C 794 571 785 531 773 495 C 761 459 747 429 729 404 C 711 379 689 360 664 346 C 638 332 609 326 575 326 Z" unicode="©" />
<glyph horiz-adv-x="610" d="M 225 750 C 175 750 136 767 109 801 C 81 835 68 882 68 942 C 68 1016 95 1082 149 1140 C 203 1198 288 1242 403 1272 L 403 1333 C 403 1367 397 1393 386 1413 C 375 1432 356 1442 328 1442 C 292 1442 263 1433 241 1415 C 218 1397 197 1372 178 1339 L 84 1384 C 114 1440 149 1481 190 1506 C 231 1531 279 1544 334 1544 C 400 1544 448 1526 478 1492 C 507 1457 522 1403 522 1331 L 522 956 C 522 910 523 873 526 843 C 528 813 533 787 541 764 L 418 764 C 414 778 412 791 410 802 C 408 813 407 827 406 844 C 382 817 355 795 326 777 C 296 759 263 750 225 750 Z M 262 854 C 274 854 287 856 300 861 C 313 866 326 873 338 881 C 350 889 362 898 373 908 C 384 918 394 928 403 938 L 403 1178 C 362 1166 328 1152 300 1136 C 272 1119 250 1101 233 1081 C 216 1061 204 1040 197 1018 C 189 996 186 974 186 952 C 186 917 192 892 205 877 C 217 861 236 854 262 854 Z" unicode="ª" />
<glyph horiz-adv-x="756" d="M 362 541 L 557 1077 L 702 1077 L 512 541 L 702 0 L 557 0 L 362 541 Z M 53 541 L 248 1077 L 395 1077 L 205 541 L 395 0 L 248 0 L 53 541 Z" unicode="«" />
<glyph horiz-adv-x="975" d="M 541 -18 C 489 -18 441 -8 397 10 C 353 29 315 61 282 106 C 248 150 221 209 199 282 C 177 355 162 445 154 553 L 16 553 L 16 676 L 145 676 L 145 842 L 16 842 L 16 965 L 154 965 C 164 1075 181 1167 205 1241 C 229 1314 258 1372 292 1416 C 326 1459 365 1489 407 1507 C 449 1525 493 1534 539 1534 C 639 1534 717 1500 773 1432 C 829 1364 867 1259 889 1118 L 745 1098 C 737 1144 729 1186 719 1222 C 709 1258 696 1289 680 1314 C 664 1339 644 1358 622 1371 C 600 1384 573 1391 541 1391 C 510 1391 482 1383 456 1369 C 430 1355 407 1331 387 1298 C 367 1264 350 1220 337 1166 C 323 1112 314 1045 309 965 L 635 965 L 635 842 L 303 842 C 301 829 301 816 301 803 C 301 790 301 777 301 764 C 301 749 301 734 301 720 C 301 705 301 690 303 676 L 635 676 L 635 553 L 309 553 C 315 469 324 400 338 345 C 351 289 367 245 387 212 C 407 179 430 156 456 142 C 482 128 510 121 541 121 C 578 121 609 127 634 141 C 659 154 680 174 697 200 C 713 226 727 259 737 298 C 747 336 756 381 764 432 L 905 414 C 896 354 884 298 869 246 C 853 194 832 148 804 109 C 776 70 741 39 699 16 C 656 -6 603 -18 541 -18 Z" unicode="€" />
<glyph horiz-adv-x="733" d="M 367 594 C 321 594 278 606 240 631 C 201 655 168 689 140 732 C 112 775 91 825 76 883 C 60 941 53 1003 53 1069 C 53 1135 60 1198 76 1256 C 92 1314 114 1365 142 1409 C 170 1452 203 1486 242 1511 C 280 1535 323 1548 369 1548 C 414 1548 456 1535 494 1511 C 532 1486 564 1452 592 1409 C 620 1366 641 1316 657 1258 C 672 1200 680 1137 680 1071 C 680 1005 672 943 657 885 C 641 827 620 776 592 733 C 564 690 531 656 493 631 C 455 606 413 594 367 594 Z M 369 651 C 405 651 439 662 469 684 C 499 706 525 736 547 774 C 569 812 586 856 598 907 C 610 957 616 1011 616 1069 C 616 1127 610 1182 598 1234 C 586 1285 569 1330 547 1368 C 525 1406 499 1436 469 1458 C 438 1480 404 1491 367 1491 C 329 1491 295 1480 265 1458 C 234 1436 208 1407 186 1369 C 164 1331 147 1286 135 1235 C 123 1184 117 1129 117 1071 C 117 1013 123 958 135 907 C 147 856 165 812 187 774 C 209 736 235 706 266 684 C 297 662 331 651 369 651 Z M 238 1337 L 362 1337 C 406 1337 440 1325 465 1302 C 489 1278 502 1240 502 1186 C 502 1148 495 1116 482 1092 C 469 1067 451 1049 428 1038 L 512 819 L 432 819 L 356 1028 L 311 1028 L 311 817 L 238 817 L 238 1337 Z M 358 1096 C 384 1096 402 1102 413 1116 C 424 1129 430 1152 430 1184 C 430 1212 424 1233 413 1247 C 402 1261 384 1268 358 1268 L 311 1268 L 311 1096 L 358 1096 Z" unicode="®" />
<glyph horiz-adv-x="745" d="M 164 1323 L 582 1323 L 582 1194 L 164 1194 L 164 1323 Z" unicode="¯" />
<glyph horiz-adv-x="580" d="M 291 975 C 257 975 227 982 201 996 C 175 1010 152 1029 134 1054 C 116 1079 102 1109 92 1144 C 82 1178 78 1216 78 1257 C 78 1297 82 1335 92 1370 C 102 1404 116 1434 134 1460 C 152 1485 175 1505 201 1519 C 227 1533 257 1540 291 1540 C 323 1540 353 1533 379 1519 C 405 1505 427 1485 445 1460 C 463 1434 476 1404 486 1370 C 495 1335 500 1297 500 1257 C 500 1216 495 1178 486 1144 C 476 1109 463 1079 445 1054 C 427 1029 405 1010 379 996 C 353 982 323 975 291 975 Z M 291 1073 C 323 1073 347 1089 364 1122 C 380 1155 389 1200 389 1257 C 389 1313 380 1359 364 1394 C 347 1428 323 1446 291 1446 C 257 1446 231 1428 215 1394 C 198 1359 190 1313 190 1257 C 190 1200 198 1155 215 1122 C 231 1089 257 1073 291 1073 Z" unicode="°" />
<glyph horiz-adv-x="940" d="M 86 272 L 399 272 L 399 659 L 86 659 L 86 791 L 399 791 L 399 1184 L 541 1184 L 541 791 L 854 791 L 854 659 L 541 659 L 541 272 L 854 272 L 854 143 L 86 143 L 86 272 Z" unicode="±" />
<glyph horiz-adv-x="649" d="M 86 610 C 86 675 94 730 111 776 C 128 822 149 862 175 896 C 200 930 227 960 257 986 C 286 1012 313 1039 339 1067 C 364 1094 385 1124 402 1157 C 419 1189 428 1229 428 1276 C 428 1320 419 1353 403 1377 C 387 1401 362 1413 330 1413 C 314 1413 301 1410 289 1405 C 277 1400 266 1392 257 1380 C 247 1368 239 1352 232 1332 C 225 1312 219 1288 213 1260 L 96 1280 C 111 1362 138 1424 177 1465 C 216 1505 270 1526 338 1526 C 406 1526 460 1504 498 1462 C 536 1419 555 1359 555 1282 C 555 1232 547 1189 531 1152 C 515 1114 496 1080 472 1050 C 448 1019 421 990 393 964 C 365 938 338 911 314 884 C 289 856 268 827 251 797 C 233 766 223 731 221 692 L 555 692 L 555 580 L 86 580 L 86 610 Z" unicode="²" />
<glyph horiz-adv-x="639" d="M 309 567 C 273 567 242 571 216 581 C 190 590 167 604 147 623 C 127 642 110 665 96 693 C 82 721 69 753 59 791 L 176 817 C 189 767 206 731 228 710 C 250 688 277 678 309 678 C 350 678 379 692 396 721 C 413 750 422 791 422 844 C 422 874 419 900 413 922 C 407 944 398 962 385 976 C 371 990 353 1001 330 1009 C 307 1016 278 1020 244 1020 L 205 1020 L 205 1126 L 252 1126 C 283 1126 309 1128 329 1134 C 349 1140 366 1149 378 1162 C 390 1174 398 1190 403 1210 C 407 1229 410 1252 410 1280 C 410 1300 408 1319 406 1336 C 403 1352 398 1366 390 1378 C 382 1390 372 1399 360 1405 C 347 1411 331 1415 311 1415 C 282 1415 258 1404 240 1384 C 222 1363 207 1335 195 1300 L 86 1337 C 105 1395 134 1441 173 1475 C 211 1509 259 1526 317 1526 C 357 1526 391 1520 419 1508 C 447 1496 469 1480 486 1460 C 503 1439 515 1414 523 1386 C 531 1358 535 1327 535 1294 C 535 1237 525 1191 506 1155 C 487 1119 460 1094 424 1079 C 466 1060 497 1031 517 993 C 537 955 547 902 547 834 C 547 794 542 758 532 726 C 522 693 508 665 488 642 C 468 618 443 600 413 587 C 383 573 349 567 309 567 Z" unicode="³" />
<glyph horiz-adv-x="745" d="M 432 1509 L 602 1509 L 401 1194 L 295 1194 L 432 1509 Z" unicode="´" />
<glyph horiz-adv-x="856" d="M 109 1081 L 260 1081 L 260 283 C 260 227 268 185 284 157 C 300 129 329 115 373 115 C 391 115 411 119 431 127 C 451 135 471 146 491 159 C 510 171 528 185 546 201 C 564 216 580 231 594 246 L 594 1081 L 748 1081 L 748 0 L 594 0 L 594 133 C 582 119 567 104 551 88 C 534 72 515 58 495 44 C 475 30 453 19 430 10 C 407 0 383 -4 358 -6 C 338 -7 320 -5 302 0 C 284 4 270 15 260 33 L 260 -410 L 109 -410 L 109 1081 Z" unicode="µ" />
<glyph horiz-adv-x="936" d="M 406 694 C 301 696 219 732 161 800 C 103 868 74 968 74 1102 C 74 1160 81 1215 95 1266 C 109 1316 129 1360 156 1397 C 183 1434 216 1463 255 1484 C 293 1505 337 1516 387 1516 L 809 1516 L 809 -410 L 668 -410 L 668 1378 L 545 1378 L 545 -410 L 406 -410 L 406 694 Z" unicode="¶" />
<glyph horiz-adv-x="557" d="M 176 750 L 373 750 L 373 539 L 176 539 L 176 750 Z" unicode="·" />
<glyph horiz-adv-x="745" d="M 389 -401 C 349 -401 311 -394 276 -380 C 240 -366 210 -349 184 -328 L 225 -260 C 247 -276 272 -290 299 -301 C 325 -311 354 -317 385 -317 C 449 -317 481 -288 481 -231 C 481 -209 475 -193 465 -181 C 455 -169 440 -164 422 -164 C 406 -164 393 -167 381 -174 C 369 -180 359 -189 350 -201 L 287 -172 L 328 2 L 414 2 L 391 -106 C 411 -87 437 -78 471 -78 C 485 -78 500 -80 515 -85 C 529 -90 542 -98 554 -109 C 566 -120 575 -135 583 -153 C 590 -171 594 -193 594 -219 C 594 -251 588 -278 578 -301 C 567 -323 552 -342 534 -357 C 516 -372 494 -383 469 -390 C 444 -397 417 -401 389 -401 Z" unicode="¸" />
<glyph horiz-adv-x="492" d="M 82 692 L 203 692 L 203 1368 C 186 1360 167 1353 146 1348 C 125 1343 104 1341 84 1341 L 84 1456 C 140 1458 183 1478 211 1516 L 330 1516 L 330 692 L 438 692 L 438 580 L 82 580 L 82 692 Z" unicode="¹" />
<glyph horiz-adv-x="618" d="M 309 743 C 231 743 169 776 125 844 C 81 912 59 1011 59 1141 C 59 1271 81 1370 125 1437 C 169 1504 230 1538 309 1538 C 388 1538 449 1504 493 1437 C 537 1370 559 1271 559 1141 C 559 1011 537 912 493 844 C 449 776 388 743 309 743 Z M 309 850 C 331 850 351 856 367 870 C 383 883 397 902 407 928 C 417 953 424 983 429 1019 C 433 1055 436 1095 436 1141 C 436 1183 434 1221 430 1257 C 426 1293 419 1323 409 1349 C 399 1375 385 1395 369 1410 C 353 1424 333 1432 309 1432 C 285 1432 266 1425 250 1411 C 234 1397 220 1378 210 1353 C 199 1327 191 1297 187 1261 C 182 1225 180 1185 180 1141 C 180 1099 182 1060 186 1024 C 190 988 198 958 208 932 C 218 906 231 886 247 872 C 263 857 284 850 309 850 Z" unicode="º" />
<glyph horiz-adv-x="756" d="M 553 539 L 362 1077 L 508 1077 L 700 539 L 508 0 L 362 0 L 553 539 Z M 244 539 L 51 1077 L 199 1077 L 395 539 L 199 0 L 51 0 L 244 539 Z" unicode="»" />
<glyph horiz-adv-x="1360" d="M 102 692 L 223 692 L 223 1368 C 206 1360 187 1353 166 1348 C 145 1343 124 1341 104 1341 L 104 1456 C 161 1458 203 1478 231 1516 L 350 1516 L 350 692 L 459 692 L 459 580 L 102 580 L 102 692 Z M 1067 219 L 764 219 L 764 307 L 1059 940 L 1188 940 L 1188 328 L 1292 328 L 1292 219 L 1188 219 L 1188 0 L 1067 0 L 1067 219 Z M 954 1516 L 1087 1516 L 453 0 L 317 0 L 954 1516 Z M 1069 328 L 1069 735 L 883 328 L 1069 328 Z" unicode="¼" />
<glyph horiz-adv-x="1423" d="M 872 33 C 872 98 880 153 897 199 C 914 244 935 283 961 317 C 986 351 1013 381 1043 408 C 1072 434 1099 461 1125 489 C 1150 516 1171 546 1188 579 C 1205 611 1214 651 1214 698 C 1214 742 1206 775 1190 799 C 1174 822 1149 834 1116 834 C 1100 834 1087 831 1075 826 C 1063 821 1052 813 1043 801 C 1033 789 1025 774 1018 755 C 1011 735 1005 711 999 682 L 883 702 C 898 784 925 846 964 886 C 1002 926 1056 946 1124 946 C 1193 946 1246 925 1284 883 C 1322 841 1341 781 1341 705 C 1341 655 1333 612 1317 574 C 1301 536 1282 502 1258 472 C 1234 441 1208 412 1180 386 C 1152 360 1125 333 1101 306 C 1076 278 1055 249 1037 218 C 1019 187 1010 152 1008 113 L 1341 113 L 1341 0 L 872 0 L 872 33 Z M 102 692 L 223 692 L 223 1368 C 206 1360 187 1353 166 1348 C 145 1343 124 1341 104 1341 L 104 1456 C 161 1458 203 1478 231 1516 L 350 1516 L 350 692 L 459 692 L 459 580 L 102 580 L 102 692 Z M 954 1516 L 1087 1516 L 453 0 L 317 0 L 954 1516 Z" unicode="½" />
<glyph horiz-adv-x="1382" d="M 285 567 C 249 567 217 571 191 581 C 164 590 141 604 121 623 C 101 642 84 665 70 693 C 56 721 43 753 33 791 L 150 817 C 164 767 181 731 203 710 C 225 688 251 678 283 678 C 325 678 354 692 371 721 C 388 750 397 791 397 844 C 397 874 394 900 388 922 C 382 944 373 962 359 976 C 345 990 327 1001 304 1009 C 281 1016 252 1020 217 1020 L 180 1020 L 180 1126 L 225 1126 C 256 1126 282 1128 302 1134 C 322 1140 339 1149 351 1162 C 363 1174 371 1190 376 1210 C 380 1229 383 1252 383 1280 C 383 1300 381 1319 379 1336 C 376 1352 371 1366 364 1378 C 357 1390 347 1399 335 1405 C 323 1411 307 1415 287 1415 C 257 1415 233 1404 215 1384 C 197 1363 182 1335 170 1300 L 59 1337 C 78 1395 107 1441 146 1475 C 185 1509 234 1526 293 1526 C 333 1526 366 1520 394 1508 C 421 1496 443 1480 460 1460 C 477 1439 489 1414 497 1386 C 504 1358 508 1327 508 1294 C 508 1181 471 1109 397 1079 C 440 1060 472 1031 492 993 C 512 955 522 902 522 834 C 522 794 517 758 507 726 C 497 693 483 665 463 642 C 443 618 419 600 389 587 C 359 573 325 567 285 567 Z M 1090 219 L 786 219 L 786 307 L 1083 940 L 1210 940 L 1210 328 L 1317 328 L 1317 219 L 1210 219 L 1210 0 L 1090 0 L 1090 219 Z M 977 1516 L 1110 1516 L 477 0 L 342 0 L 977 1516 Z M 1092 328 L 1092 735 L 905 328 L 1092 328 Z" unicode="¾" />
<glyph horiz-adv-x="788" d="M 340 1516 L 520 1516 L 520 1315 L 340 1315 L 340 1516 Z M 385 -18 C 331 -18 283 -9 243 8 C 203 25 169 49 143 79 C 116 109 96 146 83 188 C 69 230 63 276 63 326 C 63 364 67 399 75 431 C 83 463 93 493 107 522 C 120 550 136 577 154 603 C 172 629 191 654 211 680 C 234 710 254 736 270 760 C 286 784 299 806 310 826 C 320 846 329 865 335 884 C 341 903 346 924 349 946 C 352 968 354 992 355 1018 C 355 1044 356 1075 356 1110 L 498 1110 C 498 1064 498 1025 496 991 C 494 957 490 927 485 901 C 479 875 472 851 464 830 C 455 808 444 787 432 766 C 420 745 405 723 389 700 C 372 677 353 651 332 623 C 316 601 301 580 287 560 C 273 539 261 517 251 494 C 241 471 233 447 227 421 C 221 395 219 366 219 334 C 219 303 222 275 229 249 C 235 223 246 200 260 182 C 274 163 293 148 315 138 C 337 128 363 123 393 123 C 421 123 445 128 466 138 C 487 148 506 163 522 182 C 538 200 553 222 566 248 C 578 274 590 302 602 332 L 739 295 C 725 249 707 206 686 168 C 665 130 640 97 612 69 C 583 41 550 20 512 5 C 474 -10 432 -18 385 -18 Z" unicode="¿" />
<glyph horiz-adv-x="948" d="M 188 0 L 45 0 L 397 1522 L 551 1522 L 903 0 L 745 0 L 649 444 L 287 444 L 188 0 Z M 553 883 C 545 920 537 955 530 989 C 523 1023 516 1057 510 1091 C 503 1125 496 1161 490 1197 C 483 1233 477 1273 471 1317 L 465 1317 C 459 1273 452 1232 446 1196 C 439 1159 432 1124 426 1090 C 419 1056 412 1023 405 990 C 398 957 391 922 383 885 L 315 573 L 621 573 L 553 883 Z M 231 1921 L 401 1921 L 537 1606 L 432 1606 L 231 1921 Z" unicode="À" />
<glyph horiz-adv-x="948" d="M 188 0 L 45 0 L 397 1522 L 551 1522 L 903 0 L 745 0 L 649 444 L 287 444 L 188 0 Z M 553 883 C 545 920 537 955 530 989 C 523 1023 516 1057 510 1091 C 503 1125 496 1161 490 1197 C 483 1233 477 1273 471 1317 L 465 1317 C 459 1273 452 1232 446 1196 C 439 1159 432 1124 426 1090 C 419 1056 412 1023 405 990 C 398 957 391 922 383 885 L 315 573 L 621 573 L 553 883 Z M 538 1921 L 708 1921 L 507 1606 L 401 1606 L 538 1921 Z" unicode="Á" />
<glyph horiz-adv-x="948" d="M 188 0 L 45 0 L 397 1522 L 551 1522 L 903 0 L 745 0 L 649 444 L 287 444 L 188 0 Z M 553 883 C 545 920 537 955 530 989 C 523 1023 516 1057 510 1091 C 503 1125 496 1161 490 1197 C 483 1233 477 1273 471 1317 L 465 1317 C 459 1273 452 1232 446 1196 C 439 1159 432 1124 426 1090 C 419 1056 412 1023 405 990 C 398 957 391 922 383 885 L 315 573 L 621 573 L 553 883 Z M 422 1921 L 524 1921 L 708 1598 L 612 1598 L 471 1774 L 334 1598 L 235 1598 L 422 1921 Z" unicode="Â" />
<glyph horiz-adv-x="948" d="M 188 0 L 45 0 L 397 1522 L 551 1522 L 903 0 L 745 0 L 649 444 L 287 444 L 188 0 Z M 553 883 C 545 920 537 955 530 989 C 523 1023 516 1057 510 1091 C 503 1125 496 1161 490 1197 C 483 1233 477 1273 471 1317 L 465 1317 C 459 1273 452 1232 446 1196 C 439 1159 432 1124 426 1090 C 419 1056 412 1023 405 990 C 398 957 391 922 383 885 L 315 573 L 621 573 L 553 883 Z M 209 1598 C 209 1682 221 1743 246 1781 C 271 1819 308 1839 358 1839 C 382 1839 404 1833 425 1821 C 446 1809 466 1796 485 1782 C 504 1768 522 1755 539 1743 C 555 1731 571 1725 587 1725 C 596 1725 604 1726 611 1730 C 618 1733 624 1739 629 1747 C 633 1755 637 1767 639 1781 C 641 1795 643 1813 643 1835 L 739 1835 C 739 1751 726 1690 701 1652 C 676 1613 639 1594 590 1594 C 566 1594 543 1600 521 1612 C 499 1624 479 1637 460 1651 C 440 1665 422 1678 406 1690 C 389 1702 374 1708 360 1708 C 340 1708 326 1700 317 1684 C 307 1668 303 1640 303 1598 L 209 1598 L 209 1598 Z" unicode="Ã" />
<glyph horiz-adv-x="948" d="M 188 0 L 45 0 L 397 1522 L 551 1522 L 903 0 L 745 0 L 649 444 L 287 444 L 188 0 Z M 553 883 C 545 920 537 955 530 989 C 523 1023 516 1057 510 1091 C 503 1125 496 1161 490 1197 C 483 1233 477 1273 471 1317 L 465 1317 C 459 1273 452 1232 446 1196 C 439 1159 432 1124 426 1090 C 419 1056 412 1023 405 990 C 398 957 391 922 383 885 L 315 573 L 621 573 L 553 883 Z M 534 1782 L 686 1782 L 686 1606 L 534 1606 L 534 1782 Z M 262 1782 L 411 1782 L 411 1606 L 262 1606 L 262 1782 Z" unicode="Ä" />
<glyph horiz-adv-x="948" d="M 387 1473 C 362 1487 343 1509 331 1540 C 319 1571 313 1607 313 1647 C 313 1675 316 1702 323 1728 C 330 1753 340 1775 354 1793 C 368 1811 385 1826 405 1837 C 425 1847 447 1853 473 1853 C 497 1853 520 1847 540 1837 C 560 1826 578 1811 592 1793 C 606 1775 617 1753 625 1728 C 633 1702 637 1675 637 1647 C 637 1607 630 1571 617 1541 C 604 1511 585 1488 561 1473 L 903 0 L 748 0 L 649 453 L 287 453 L 188 0 L 45 0 L 387 1473 Z M 473 1526 C 485 1526 495 1529 504 1536 C 512 1542 519 1551 525 1562 C 531 1573 535 1586 537 1600 C 539 1614 541 1629 541 1645 C 541 1659 539 1674 537 1688 C 535 1702 531 1714 525 1725 C 519 1735 512 1744 504 1751 C 495 1757 485 1761 473 1761 C 461 1761 451 1757 443 1751 C 435 1745 428 1736 423 1726 C 417 1715 413 1703 411 1689 C 409 1675 408 1660 408 1645 C 408 1629 409 1614 411 1600 C 413 1586 417 1573 423 1562 C 428 1551 435 1542 443 1536 C 451 1529 461 1526 473 1526 Z M 623 575 L 553 885 C 545 922 537 957 530 991 C 523 1025 516 1059 510 1093 C 503 1127 496 1163 490 1199 C 483 1235 477 1275 471 1319 L 465 1319 C 459 1275 452 1234 446 1198 C 439 1161 432 1126 426 1092 C 419 1058 412 1025 405 992 C 398 959 391 924 383 887 L 311 575 L 623 575 Z" unicode="Å" />
<glyph horiz-adv-x="1346" d="M 549 1516 L 1260 1516 L 1260 1372 L 801 1372 L 801 870 L 1128 870 L 1128 731 L 801 731 L 801 141 L 1286 141 L 1286 0 L 643 0 L 643 455 L 340 455 L 182 0 L 25 0 L 549 1516 Z M 643 590 L 643 1356 L 639 1356 L 387 590 L 643 590 Z" unicode="Æ" />
<glyph horiz-adv-x="963" d="M 512 -16 C 442 -16 380 -1 326 27 C 272 56 226 102 190 165 C 153 227 125 307 106 405 C 87 503 78 620 78 758 C 78 893 88 1010 108 1108 C 128 1206 156 1286 193 1349 C 230 1412 275 1459 329 1489 C 382 1519 442 1534 510 1534 C 572 1534 626 1522 671 1498 C 715 1474 753 1441 783 1398 C 813 1354 836 1302 853 1242 C 870 1182 883 1115 891 1042 L 737 1024 C 723 1140 698 1230 663 1292 C 628 1354 577 1386 510 1386 C 462 1386 422 1372 388 1345 C 354 1317 325 1277 303 1224 C 281 1171 264 1106 254 1028 C 243 950 238 860 238 760 C 238 552 260 395 304 288 C 348 180 418 127 512 127 C 547 127 578 134 605 149 C 631 164 654 187 674 218 C 694 248 710 287 724 335 C 737 382 748 438 756 504 L 909 487 C 899 413 884 345 865 283 C 845 221 820 168 789 124 C 757 80 719 45 674 21 C 628 -3 574 -16 512 -16 Z M 502 -401 C 462 -401 424 -394 389 -380 C 353 -366 323 -349 297 -328 L 338 -260 C 360 -276 385 -290 412 -301 C 438 -311 467 -317 498 -317 C 562 -317 594 -288 594 -231 C 594 -209 588 -193 578 -181 C 568 -169 553 -164 535 -164 C 519 -164 506 -167 494 -174 C 482 -180 472 -189 463 -201 L 400 -172 L 441 2 L 527 2 L 504 -106 C 524 -87 550 -78 584 -78 C 598 -78 613 -80 628 -85 C 642 -90 655 -98 667 -109 C 679 -120 688 -135 696 -153 C 703 -171 707 -193 707 -219 C 707 -251 701 -278 691 -301 C 680 -323 665 -342 647 -357 C 629 -372 607 -383 582 -390 C 557 -397 530 -401 502 -401 Z" unicode="Ç" />
<glyph horiz-adv-x="831" d="M 127 1516 L 745 1516 L 745 1372 L 287 1372 L 287 872 L 616 872 L 616 733 L 287 733 L 287 141 L 772 141 L 772 0 L 127 0 L 127 1516 Z M 182 1921 L 352 1921 L 488 1606 L 383 1606 L 182 1921 Z" unicode="È" />
<glyph horiz-adv-x="831" d="M 475 1921 L 645 1921 L 444 1606 L 338 1606 L 475 1921 Z M 127 1516 L 745 1516 L 745 1372 L 287 1372 L 287 872 L 616 872 L 616 733 L 287 733 L 287 141 L 772 141 L 772 0 L 127 0 L 127 1516 Z" unicode="É" />
<glyph horiz-adv-x="831" d="M 385 1921 L 487 1921 L 671 1598 L 575 1598 L 434 1774 L 297 1598 L 198 1598 L 385 1921 Z M 127 1516 L 745 1516 L 745 1372 L 287 1372 L 287 872 L 616 872 L 616 733 L 287 733 L 287 141 L 772 141 L 772 0 L 127 0 L 127 1516 Z" unicode="Ê" />
<glyph horiz-adv-x="831" d="M 495 1782 L 647 1782 L 647 1606 L 495 1606 L 495 1782 Z M 223 1782 L 372 1782 L 372 1606 L 223 1606 L 223 1782 Z M 127 1516 L 745 1516 L 745 1372 L 287 1372 L 287 872 L 616 872 L 616 733 L 287 733 L 287 141 L 772 141 L 772 0 L 127 0 L 127 1516 Z" unicode="Ë" />
<glyph horiz-adv-x="434" d="M 137 1516 L 297 1516 L 297 0 L 137 0 L 137 1516 Z M -18 1921 L 152 1921 L 288 1606 L 183 1606 L -18 1921 Z" unicode="Ì" />
<glyph horiz-adv-x="434" d="M 137 1516 L 297 1516 L 297 0 L 137 0 L 137 1516 Z M 279 1921 L 449 1921 L 248 1606 L 142 1606 L 279 1921 Z" unicode="Í" />
<glyph horiz-adv-x="434" d="M 137 1516 L 297 1516 L 297 0 L 137 0 L 137 1516 Z M 169 1921 L 271 1921 L 455 1598 L 359 1598 L 218 1774 L 81 1598 L -18 1598 L 169 1921 Z" unicode="Î" />
<glyph horiz-adv-x="434" d="M 137 1516 L 297 1516 L 297 0 L 137 0 L 137 1516 Z M 279 1782 L 431 1782 L 431 1606 L 279 1606 L 279 1782 Z M 7 1782 L 156 1782 L 156 1606 L 7 1606 L 7 1782 Z" unicode="Ï" />
<glyph horiz-adv-x="993" d="M 125 733 L 20 733 L 20 872 L 125 872 L 125 1516 L 395 1516 C 483 1516 559 1502 625 1476 C 690 1449 744 1406 787 1346 C 830 1286 862 1209 883 1113 C 904 1017 915 899 915 760 C 915 620 904 502 882 406 C 860 309 828 231 785 171 C 741 111 687 67 622 40 C 557 13 481 0 395 0 L 125 0 L 125 733 Z M 416 141 C 477 141 529 153 572 178 C 614 202 649 240 676 291 C 702 341 722 405 734 483 C 746 561 752 653 752 760 C 752 864 746 955 734 1032 C 722 1108 702 1172 676 1222 C 649 1272 614 1309 571 1333 C 528 1357 476 1370 414 1370 L 289 1370 L 289 872 L 481 872 L 481 733 L 289 733 L 289 141 L 416 141 Z" unicode="Ð" />
<glyph horiz-adv-x="1026" d="M 127 1516 L 307 1516 L 651 639 C 673 579 694 524 713 474 C 732 424 748 380 762 340 L 764 340 L 764 1516 L 899 1516 L 899 0 L 760 0 L 371 979 C 361 1001 351 1026 340 1054 C 329 1082 319 1109 309 1136 C 299 1163 290 1188 282 1211 C 274 1233 268 1250 264 1262 L 260 1262 L 260 0 L 127 0 L 127 1516 Z M 248 1598 C 248 1682 260 1743 285 1781 C 310 1819 347 1839 397 1839 C 421 1839 443 1833 464 1821 C 485 1809 505 1796 524 1782 C 543 1768 561 1755 578 1743 C 594 1731 610 1725 626 1725 C 635 1725 643 1726 650 1730 C 657 1733 663 1739 668 1747 C 672 1755 676 1767 678 1781 C 680 1795 682 1813 682 1835 L 778 1835 C 778 1751 765 1690 740 1652 C 715 1613 678 1594 629 1594 C 605 1594 582 1600 560 1612 C 538 1624 518 1637 499 1651 C 479 1665 461 1678 445 1690 C 428 1702 413 1708 399 1708 C 379 1708 365 1700 356 1684 C 346 1668 342 1640 342 1598 L 248 1598 L 248 1598 Z" unicode="Ñ" />
<glyph horiz-adv-x="1032" d="M 516 -16 C 448 -16 388 0 334 30 C 280 60 234 107 196 171 C 158 234 128 314 108 412 C 88 509 78 624 78 758 C 78 891 88 1006 108 1104 C 128 1202 158 1282 196 1346 C 234 1410 280 1457 334 1488 C 388 1518 448 1534 516 1534 C 582 1534 643 1518 697 1488 C 751 1457 797 1410 835 1346 C 873 1282 903 1202 924 1104 C 945 1006 956 891 956 758 C 956 624 945 509 924 412 C 903 314 873 234 835 171 C 797 107 751 60 697 30 C 643 0 582 -16 516 -16 Z M 516 127 C 610 127 681 181 727 289 C 773 397 797 554 797 758 C 797 962 773 1118 727 1225 C 681 1332 610 1386 516 1386 C 422 1386 353 1332 307 1225 C 261 1118 238 962 238 758 C 238 554 261 397 307 289 C 353 181 422 127 516 127 Z M 276 1921 L 446 1921 L 582 1606 L 477 1606 L 276 1921 Z" unicode="Ò" />
<glyph horiz-adv-x="1032" d="M 573 1921 L 743 1921 L 542 1606 L 436 1606 L 573 1921 Z M 516 -16 C 448 -16 388 0 334 30 C 280 60 234 107 196 171 C 158 234 128 314 108 412 C 88 509 78 624 78 758 C 78 891 88 1006 108 1104 C 128 1202 158 1282 196 1346 C 234 1410 280 1457 334 1488 C 388 1518 448 1534 516 1534 C 582 1534 643 1518 697 1488 C 751 1457 797 1410 835 1346 C 873 1282 903 1202 924 1104 C 945 1006 956 891 956 758 C 956 624 945 509 924 412 C 903 314 873 234 835 171 C 797 107 751 60 697 30 C 643 0 582 -16 516 -16 Z M 516 127 C 610 127 681 181 727 289 C 773 397 797 554 797 758 C 797 962 773 1118 727 1225 C 681 1332 610 1386 516 1386 C 422 1386 353 1332 307 1225 C 261 1118 238 962 238 758 C 238 554 261 397 307 289 C 353 181 422 127 516 127 Z" unicode="Ó" />
<glyph horiz-adv-x="1032" d="M 463 1921 L 565 1921 L 749 1598 L 653 1598 L 512 1774 L 375 1598 L 276 1598 L 463 1921 Z M 516 -16 C 448 -16 388 0 334 30 C 280 60 234 107 196 171 C 158 234 128 314 108 412 C 88 509 78 624 78 758 C 78 891 88 1006 108 1104 C 128 1202 158 1282 196 1346 C 234 1410 280 1457 334 1488 C 388 1518 448 1534 516 1534 C 582 1534 643 1518 697 1488 C 751 1457 797 1410 835 1346 C 873 1282 903 1202 924 1104 C 945 1006 956 891 956 758 C 956 624 945 509 924 412 C 903 314 873 234 835 171 C 797 107 751 60 697 30 C 643 0 582 -16 516 -16 Z M 516 127 C 610 127 681 181 727 289 C 773 397 797 554 797 758 C 797 962 773 1118 727 1225 C 681 1332 610 1386 516 1386 C 422 1386 353 1332 307 1225 C 261 1118 238 962 238 758 C 238 554 261 397 307 289 C 353 181 422 127 516 127 Z" unicode="Ô" />
<glyph horiz-adv-x="1032" d="M 516 -16 C 448 -16 388 0 334 30 C 280 60 234 107 196 171 C 158 234 128 314 108 412 C 88 509 78 624 78 758 C 78 891 88 1006 108 1104 C 128 1202 158 1282 196 1346 C 234 1410 280 1457 334 1488 C 388 1518 448 1534 516 1534 C 582 1534 643 1518 697 1488 C 751 1457 797 1410 835 1346 C 873 1282 903 1202 924 1104 C 945 1006 956 891 956 758 C 956 624 945 509 924 412 C 903 314 873 234 835 171 C 797 107 751 60 697 30 C 643 0 582 -16 516 -16 Z M 516 127 C 610 127 681 181 727 289 C 773 397 797 554 797 758 C 797 962 773 1118 727 1225 C 681 1332 610 1386 516 1386 C 422 1386 353 1332 307 1225 C 261 1118 238 962 238 758 C 238 554 261 397 307 289 C 353 181 422 127 516 127 Z M 250 1598 C 250 1682 262 1743 287 1781 C 312 1819 349 1839 399 1839 C 423 1839 445 1833 466 1821 C 487 1809 507 1796 526 1782 C 545 1768 563 1755 580 1743 C 596 1731 612 1725 628 1725 C 637 1725 645 1726 652 1730 C 659 1733 665 1739 670 1747 C 674 1755 678 1767 680 1781 C 682 1795 684 1813 684 1835 L 780 1835 C 780 1751 767 1690 742 1652 C 717 1613 680 1594 631 1594 C 607 1594 584 1600 562 1612 C 540 1624 520 1637 501 1651 C 481 1665 463 1678 447 1690 C 430 1702 415 1708 401 1708 C 381 1708 367 1700 358 1684 C 348 1668 344 1640 344 1598 L 250 1598 L 250 1598 Z" unicode="Õ" />
<glyph horiz-adv-x="1032" d="M 575 1782 L 727 1782 L 727 1606 L 575 1606 L 575 1782 Z M 303 1782 L 452 1782 L 452 1606 L 303 1606 L 303 1782 Z M 516 -16 C 448 -16 388 0 334 30 C 280 60 234 107 196 171 C 158 234 128 314 108 412 C 88 509 78 624 78 758 C 78 891 88 1006 108 1104 C 128 1202 158 1282 196 1346 C 234 1410 280 1457 334 1488 C 388 1518 448 1534 516 1534 C 582 1534 643 1518 697 1488 C 751 1457 797 1410 835 1346 C 873 1282 903 1202 924 1104 C 945 1006 956 891 956 758 C 956 624 945 509 924 412 C 903 314 873 234 835 171 C 797 107 751 60 697 30 C 643 0 582 -16 516 -16 Z M 516 127 C 610 127 681 181 727 289 C 773 397 797 554 797 758 C 797 962 773 1118 727 1225 C 681 1332 610 1386 516 1386 C 422 1386 353 1332 307 1225 C 261 1118 238 962 238 758 C 238 554 261 397 307 289 C 353 181 422 127 516 127 Z" unicode="Ö" />
<glyph horiz-adv-x="932" d="M 848 381 L 756 289 L 469 575 L 180 289 L 90 379 L 377 666 L 90 954 L 182 1044 L 469 760 L 754 1044 L 846 952 L 561 668 L 848 381 Z" unicode="×" />
<glyph horiz-adv-x="1032" d="M 866 1292 C 896 1228 918 1152 934 1064 C 950 976 958 874 958 758 C 958 624 947 508 926 411 C 905 313 875 233 837 169 C 799 105 753 58 699 28 C 645 -2 584 -18 518 -18 C 460 -18 407 -7 360 14 C 312 36 270 69 233 115 L 133 -74 L 29 -23 L 164 229 C 136 293 114 368 100 455 C 85 542 78 643 78 758 C 78 891 88 1006 109 1104 C 129 1202 159 1282 197 1346 C 235 1410 281 1457 335 1488 C 389 1518 450 1534 518 1534 C 574 1534 625 1523 672 1501 C 719 1479 761 1447 797 1403 L 899 1589 L 999 1538 L 866 1292 Z M 719 1243 C 673 1338 606 1386 518 1386 C 424 1386 353 1332 306 1224 C 259 1116 236 961 236 758 C 236 687 238 623 243 565 C 248 507 256 454 268 406 L 719 1243 Z M 313 274 C 358 174 426 125 518 125 C 611 125 681 179 727 288 C 773 397 797 554 797 758 C 797 898 786 1016 764 1110 L 313 274 Z" unicode="Ø" />
<glyph horiz-adv-x="997" d="M 502 -16 C 428 -16 366 -4 317 20 C 268 44 229 77 200 121 C 170 164 149 216 137 277 C 125 337 119 405 119 479 L 119 1516 L 276 1516 L 276 504 C 276 445 279 392 286 345 C 292 298 304 258 321 225 C 338 192 361 167 391 149 C 421 131 458 123 504 123 C 548 123 585 131 614 148 C 642 165 665 190 682 223 C 698 255 710 295 717 341 C 723 387 727 440 727 500 L 727 1516 L 879 1516 L 879 483 C 879 407 872 339 860 278 C 848 216 827 164 798 120 C 769 76 730 43 682 19 C 634 -4 574 -16 502 -16 Z M 262 1921 L 432 1921 L 568 1606 L 463 1606 L 262 1921 Z" unicode="Ù" />
<glyph horiz-adv-x="997" d="M 557 1921 L 727 1921 L 526 1606 L 420 1606 L 557 1921 Z M 502 -16 C 428 -16 366 -4 317 20 C 268 44 229 77 200 121 C 170 164 149 216 137 277 C 125 337 119 405 119 479 L 119 1516 L 276 1516 L 276 504 C 276 445 279 392 286 345 C 292 298 304 258 321 225 C 338 192 361 167 391 149 C 421 131 458 123 504 123 C 548 123 585 131 614 148 C 642 165 665 190 682 223 C 698 255 710 295 717 341 C 723 387 727 440 727 500 L 727 1516 L 879 1516 L 879 483 C 879 407 872 339 860 278 C 848 216 827 164 798 120 C 769 76 730 43 682 19 C 634 -4 574 -16 502 -16 Z" unicode="Ú" />
<glyph horiz-adv-x="997" d="M 447 1921 L 549 1921 L 733 1598 L 637 1598 L 496 1774 L 359 1598 L 260 1598 L 447 1921 Z M 502 -16 C 428 -16 366 -4 317 20 C 268 44 229 77 200 121 C 170 164 149 216 137 277 C 125 337 119 405 119 479 L 119 1516 L 276 1516 L 276 504 C 276 445 279 392 286 345 C 292 298 304 258 321 225 C 338 192 361 167 391 149 C 421 131 458 123 504 123 C 548 123 585 131 614 148 C 642 165 665 190 682 223 C 698 255 710 295 717 341 C 723 387 727 440 727 500 L 727 1516 L 879 1516 L 879 483 C 879 407 872 339 860 278 C 848 216 827 164 798 120 C 769 76 730 43 682 19 C 634 -4 574 -16 502 -16 Z" unicode="Û" />
<glyph horiz-adv-x="997" d="M 561 1782 L 713 1782 L 713 1606 L 561 1606 L 561 1782 Z M 289 1782 L 438 1782 L 438 1606 L 289 1606 L 289 1782 Z M 502 -16 C 428 -16 366 -4 317 20 C 268 44 229 77 200 121 C 170 164 149 216 137 277 C 125 337 119 405 119 479 L 119 1516 L 276 1516 L 276 504 C 276 445 279 392 286 345 C 292 298 304 258 321 225 C 338 192 361 167 391 149 C 421 131 458 123 504 123 C 548 123 585 131 614 148 C 642 165 665 190 682 223 C 698 255 710 295 717 341 C 723 387 727 440 727 500 L 727 1516 L 879 1516 L 879 483 C 879 407 872 339 860 278 C 848 216 827 164 798 120 C 769 76 730 43 682 19 C 634 -4 574 -16 502 -16 Z" unicode="Ü" />
<glyph horiz-adv-x="860" d="M 350 586 L 23 1516 L 184 1516 L 434 766 L 438 766 L 686 1516 L 840 1516 L 510 586 L 510 0 L 350 0 L 350 586 Z M 489 1921 L 659 1921 L 458 1606 L 352 1606 L 489 1921 Z" unicode="Ý" />
<glyph horiz-adv-x="913" d="M 125 1516 L 291 1516 L 291 1255 L 467 1255 C 523 1255 575 1247 623 1233 C 671 1218 712 1194 748 1160 C 783 1126 811 1081 831 1025 C 851 969 862 899 862 817 C 862 725 851 650 829 592 C 807 534 777 488 740 454 C 703 420 660 397 611 384 C 562 371 511 365 457 365 L 291 365 L 291 0 L 125 0 L 125 1516 Z M 463 508 C 502 508 536 513 566 524 C 595 535 619 553 639 577 C 659 601 673 632 683 671 C 693 709 698 757 698 813 C 698 867 693 912 683 950 C 673 988 659 1018 639 1042 C 619 1066 595 1083 565 1094 C 535 1104 501 1110 461 1110 L 291 1110 L 291 508 L 463 508 Z" unicode="Þ" />
<glyph horiz-adv-x="885" d="M 512 -10 C 488 -10 467 -8 448 -6 C 429 -4 412 -1 396 3 C 380 7 366 11 352 17 C 338 23 325 29 313 35 L 371 160 C 388 149 408 141 430 135 C 452 129 476 127 502 127 C 530 127 556 132 579 144 C 602 155 622 173 638 198 C 654 222 667 254 676 292 C 685 330 690 376 690 430 C 690 486 683 534 671 576 C 658 617 639 652 615 680 C 590 708 559 731 523 747 C 487 763 445 775 397 782 L 397 901 C 468 909 521 936 555 981 C 589 1025 606 1085 606 1159 C 606 1232 592 1287 564 1325 C 536 1363 494 1382 440 1382 C 382 1382 339 1359 310 1315 C 280 1271 266 1204 266 1116 L 266 0 L 113 0 L 113 1112 C 113 1244 141 1344 199 1413 C 256 1481 338 1516 446 1516 C 496 1516 541 1508 579 1492 C 617 1476 650 1454 676 1424 C 702 1394 721 1358 734 1316 C 747 1273 754 1225 754 1171 C 754 1132 749 1096 740 1062 C 730 1028 717 998 700 971 C 682 944 662 921 638 901 C 614 881 587 865 557 854 C 597 842 634 824 668 802 C 702 780 732 751 758 717 C 784 682 804 641 818 593 C 832 545 840 489 840 426 C 840 349 831 283 815 228 C 799 173 776 128 747 93 C 718 57 683 31 643 15 C 603 -1 559 -10 512 -10 Z" unicode="ß" />
<glyph horiz-adv-x="799" d="M 272 -10 C 204 -10 151 13 115 60 C 79 106 61 172 61 258 C 61 308 70 356 90 402 C 110 448 140 491 180 531 C 220 571 270 607 330 639 C 390 671 461 697 543 719 L 543 797 C 543 849 533 889 514 919 C 494 948 463 963 420 963 C 396 963 372 958 349 949 C 326 940 304 929 283 915 C 262 901 243 885 225 869 C 207 852 192 836 178 821 L 84 918 C 132 973 186 1017 247 1049 C 307 1081 371 1098 438 1098 C 484 1098 524 1091 556 1078 C 588 1065 615 1046 635 1021 C 655 995 669 964 678 926 C 687 888 692 845 692 797 L 692 266 C 692 200 693 146 697 104 C 700 62 706 28 715 0 L 561 0 C 558 10 556 19 554 28 C 552 37 550 47 548 57 C 546 67 545 77 544 89 C 543 101 543 115 543 131 C 507 85 467 50 425 26 C 382 2 331 -10 272 -10 Z M 330 123 C 350 123 371 126 391 133 C 411 140 430 149 448 161 C 466 173 483 186 499 201 C 515 216 529 232 543 248 L 543 592 C 481 575 428 555 386 531 C 343 507 309 481 283 453 C 257 425 238 395 226 364 C 214 333 209 302 209 272 C 209 218 220 179 242 157 C 264 134 294 123 330 123 Z M 192 1509 L 362 1509 L 498 1194 L 393 1194 L 192 1509 Z" unicode="à" />
<glyph horiz-adv-x="799" d="M 272 -10 C 204 -10 151 13 115 60 C 79 106 61 172 61 258 C 61 308 70 356 90 402 C 110 448 140 491 180 531 C 220 571 270 607 330 639 C 390 671 461 697 543 719 L 543 797 C 543 849 533 889 514 919 C 494 948 463 963 420 963 C 396 963 372 958 349 949 C 326 940 304 929 283 915 C 262 901 243 885 225 869 C 207 852 192 836 178 821 L 84 918 C 132 973 186 1017 247 1049 C 307 1081 371 1098 438 1098 C 484 1098 524 1091 556 1078 C 588 1065 615 1046 635 1021 C 655 995 669 964 678 926 C 687 888 692 845 692 797 L 692 266 C 692 200 693 146 697 104 C 700 62 706 28 715 0 L 561 0 C 558 10 556 19 554 28 C 552 37 550 47 548 57 C 546 67 545 77 544 89 C 543 101 543 115 543 131 C 507 85 467 50 425 26 C 382 2 331 -10 272 -10 Z M 330 123 C 350 123 371 126 391 133 C 411 140 430 149 448 161 C 466 173 483 186 499 201 C 515 216 529 232 543 248 L 543 592 C 481 575 428 555 386 531 C 343 507 309 481 283 453 C 257 425 238 395 226 364 C 214 333 209 302 209 272 C 209 218 220 179 242 157 C 264 134 294 123 330 123 Z M 457 1509 L 627 1509 L 426 1194 L 320 1194 L 457 1509 Z" unicode="á" />
<glyph horiz-adv-x="799" d="M 272 -10 C 204 -10 151 13 115 60 C 79 106 61 172 61 258 C 61 308 70 356 90 402 C 110 448 140 491 180 531 C 220 571 270 607 330 639 C 390 671 461 697 543 719 L 543 797 C 543 849 533 889 514 919 C 494 948 463 963 420 963 C 396 963 372 958 349 949 C 326 940 304 929 283 915 C 262 901 243 885 225 869 C 207 852 192 836 178 821 L 84 918 C 132 973 186 1017 247 1049 C 307 1081 371 1098 438 1098 C 484 1098 524 1091 556 1078 C 588 1065 615 1046 635 1021 C 655 995 669 964 678 926 C 687 888 692 845 692 797 L 692 266 C 692 200 693 146 697 104 C 700 62 706 28 715 0 L 561 0 C 558 10 556 19 554 28 C 552 37 550 47 548 57 C 546 67 545 77 544 89 C 543 101 543 115 543 131 C 507 85 467 50 425 26 C 382 2 331 -10 272 -10 Z M 330 123 C 350 123 371 126 391 133 C 411 140 430 149 448 161 C 466 173 483 186 499 201 C 515 216 529 232 543 248 L 543 592 C 481 575 428 555 386 531 C 343 507 309 481 283 453 C 257 425 238 395 226 364 C 214 333 209 302 209 272 C 209 218 220 179 242 157 C 264 134 294 123 330 123 Z M 346 1509 L 448 1509 L 632 1186 L 536 1186 L 395 1362 L 258 1186 L 159 1186 L 346 1509 Z" unicode="â" />
<glyph horiz-adv-x="799" d="M 272 -10 C 204 -10 151 13 115 60 C 79 106 61 172 61 258 C 61 308 70 356 90 402 C 110 448 140 491 180 531 C 220 571 270 607 330 639 C 390 671 461 697 543 719 L 543 797 C 543 849 533 889 514 919 C 494 948 463 963 420 963 C 396 963 372 958 349 949 C 326 940 304 929 283 915 C 262 901 243 885 225 869 C 207 852 192 836 178 821 L 84 918 C 132 973 186 1017 247 1049 C 307 1081 371 1098 438 1098 C 484 1098 524 1091 556 1078 C 588 1065 615 1046 635 1021 C 655 995 669 964 678 926 C 687 888 692 845 692 797 L 692 266 C 692 200 693 146 697 104 C 700 62 706 28 715 0 L 561 0 C 558 10 556 19 554 28 C 552 37 550 47 548 57 C 546 67 545 77 544 89 C 543 101 543 115 543 131 C 507 85 467 50 425 26 C 382 2 331 -10 272 -10 Z M 330 123 C 350 123 371 126 391 133 C 411 140 430 149 448 161 C 466 173 483 186 499 201 C 515 216 529 232 543 248 L 543 592 C 481 575 428 555 386 531 C 343 507 309 481 283 453 C 257 425 238 395 226 364 C 214 333 209 302 209 272 C 209 218 220 179 242 157 C 264 134 294 123 330 123 Z M 134 1186 C 134 1270 146 1331 171 1369 C 196 1407 233 1427 283 1427 C 307 1427 329 1421 350 1409 C 371 1397 391 1384 410 1370 C 429 1356 447 1343 464 1331 C 480 1319 496 1313 512 1313 C 521 1313 529 1314 536 1318 C 543 1321 549 1327 554 1335 C 558 1343 562 1355 564 1369 C 566 1383 568 1401 568 1423 L 664 1423 C 664 1339 651 1278 626 1240 C 601 1201 564 1182 515 1182 C 491 1182 468 1188 446 1200 C 424 1212 404 1225 385 1239 C 365 1253 347 1266 331 1278 C 314 1290 299 1296 285 1296 C 265 1296 251 1288 242 1272 C 232 1256 228 1228 228 1186 L 134 1186 L 134 1186 Z" unicode="ã" />
<glyph horiz-adv-x="799" d="M 272 -10 C 204 -10 151 13 115 60 C 79 106 61 172 61 258 C 61 308 70 356 90 402 C 110 448 140 491 180 531 C 220 571 270 607 330 639 C 390 671 461 697 543 719 L 543 797 C 543 849 533 889 514 919 C 494 948 463 963 420 963 C 396 963 372 958 349 949 C 326 940 304 929 283 915 C 262 901 243 885 225 869 C 207 852 192 836 178 821 L 84 918 C 132 973 186 1017 247 1049 C 307 1081 371 1098 438 1098 C 484 1098 524 1091 556 1078 C 588 1065 615 1046 635 1021 C 655 995 669 964 678 926 C 687 888 692 845 692 797 L 692 266 C 692 200 693 146 697 104 C 700 62 706 28 715 0 L 561 0 C 558 10 556 19 554 28 C 552 37 550 47 548 57 C 546 67 545 77 544 89 C 543 101 543 115 543 131 C 507 85 467 50 425 26 C 382 2 331 -10 272 -10 Z M 330 123 C 350 123 371 126 391 133 C 411 140 430 149 448 161 C 466 173 483 186 499 201 C 515 216 529 232 543 248 L 543 592 C 481 575 428 555 386 531 C 343 507 309 481 283 453 C 257 425 238 395 226 364 C 214 333 209 302 209 272 C 209 218 220 179 242 157 C 264 134 294 123 330 123 Z M 459 1370 L 611 1370 L 611 1194 L 459 1194 L 459 1370 Z M 187 1370 L 336 1370 L 336 1194 L 187 1194 L 187 1370 Z" unicode="ä" />
<glyph horiz-adv-x="799" d="M 272 -10 C 204 -10 151 13 115 60 C 79 106 61 172 61 258 C 61 308 70 356 90 402 C 110 448 140 491 180 531 C 220 571 270 607 330 639 C 390 671 461 697 543 719 L 543 797 C 543 849 533 889 514 919 C 494 948 463 963 420 963 C 396 963 372 958 349 949 C 326 940 304 929 283 915 C 262 901 243 885 225 869 C 207 852 192 836 178 821 L 84 918 C 132 973 186 1017 247 1049 C 307 1081 371 1098 438 1098 C 484 1098 524 1091 556 1078 C 588 1065 615 1046 635 1021 C 655 995 669 964 678 926 C 687 888 692 845 692 797 L 692 266 C 692 200 693 146 697 104 C 700 62 706 28 715 0 L 561 0 C 558 10 556 19 554 28 C 552 37 550 47 548 57 C 546 67 545 77 544 89 C 543 101 543 115 543 131 C 507 85 467 50 425 26 C 382 2 331 -10 272 -10 Z M 330 123 C 350 123 371 126 391 133 C 411 140 430 149 448 161 C 466 173 483 186 499 201 C 515 216 529 232 543 248 L 543 592 C 481 575 428 555 386 531 C 343 507 309 481 283 453 C 257 425 238 395 226 364 C 214 333 209 302 209 272 C 209 218 220 179 242 157 C 264 134 294 123 330 123 Z M 398 1161 C 372 1161 349 1166 329 1177 C 309 1187 293 1202 279 1221 C 265 1239 255 1261 248 1287 C 241 1312 238 1340 238 1370 C 238 1399 241 1426 248 1452 C 255 1477 265 1499 279 1517 C 293 1535 309 1550 329 1561 C 349 1571 372 1577 398 1577 C 422 1577 445 1571 465 1561 C 485 1550 503 1535 517 1517 C 531 1499 542 1477 550 1452 C 558 1426 562 1399 562 1370 C 562 1340 558 1312 551 1287 C 543 1261 533 1239 519 1221 C 505 1202 487 1187 467 1177 C 447 1166 424 1161 398 1161 Z M 398 1249 C 410 1249 420 1252 429 1259 C 437 1265 444 1274 450 1285 C 455 1296 459 1309 461 1323 C 463 1337 465 1352 465 1368 C 465 1382 463 1397 461 1411 C 459 1425 455 1437 450 1448 C 444 1459 437 1468 429 1475 C 420 1481 410 1485 398 1485 C 386 1485 375 1481 367 1475 C 359 1469 352 1460 347 1450 C 341 1439 337 1426 335 1412 C 333 1398 332 1383 332 1368 C 332 1352 333 1337 335 1323 C 337 1309 341 1296 347 1285 C 352 1274 359 1265 367 1259 C 375 1252 386 1249 398 1249 Z" unicode="å" />
<glyph horiz-adv-x="1270" d="M 602 176 C 575 142 549 113 523 89 C 497 65 470 46 444 31 C 417 16 389 5 361 -1 C 333 -8 303 -12 272 -12 C 204 -12 151 11 115 57 C 79 103 61 169 61 254 C 61 358 100 451 180 532 C 260 613 381 675 543 719 L 543 799 C 543 851 533 891 514 920 C 494 948 463 963 420 963 C 396 963 372 958 349 949 C 326 940 304 929 283 915 C 262 901 243 885 225 869 C 207 852 192 836 178 821 L 84 918 C 132 973 186 1017 247 1049 C 307 1081 372 1098 440 1098 C 496 1098 541 1087 574 1065 C 607 1043 631 1010 647 967 C 706 1054 785 1098 883 1098 C 941 1098 991 1083 1032 1054 C 1072 1024 1105 984 1131 934 C 1157 884 1175 825 1187 758 C 1198 690 1204 619 1204 543 L 1204 500 L 688 500 C 688 377 704 282 737 216 C 770 150 820 117 887 117 C 913 117 936 121 956 130 C 976 138 993 151 1008 168 C 1022 184 1035 205 1046 229 C 1056 253 1066 281 1075 313 L 1202 276 C 1175 177 1135 104 1081 56 C 1027 8 961 -16 881 -16 C 818 -16 763 0 716 31 C 668 63 630 111 602 176 Z M 543 592 C 481 576 428 557 386 533 C 343 509 309 482 283 454 C 257 426 238 396 226 364 C 214 332 209 301 209 270 C 209 242 212 219 218 200 C 224 180 232 165 242 153 C 252 141 265 132 280 127 C 295 121 312 119 330 119 C 370 119 409 132 449 158 C 489 184 529 222 571 272 C 561 310 554 350 550 394 C 545 438 543 487 543 541 L 543 592 Z M 1055 621 C 1053 671 1049 717 1042 759 C 1035 801 1025 837 1011 867 C 997 897 979 920 957 937 C 935 954 910 963 881 963 C 853 963 827 956 805 943 C 783 930 763 910 747 883 C 731 855 718 820 708 777 C 698 733 691 681 688 621 L 1055 621 Z" unicode="æ" />
<glyph horiz-adv-x="768" d="M 406 -16 C 354 -16 308 -4 266 19 C 224 42 189 77 159 123 C 129 169 106 227 90 297 C 74 367 66 448 66 541 C 66 636 74 719 91 789 C 107 859 131 916 161 962 C 191 1008 228 1042 270 1064 C 312 1086 360 1098 412 1098 C 459 1098 500 1090 534 1074 C 568 1058 596 1035 620 1006 C 644 976 663 941 679 900 C 694 859 707 814 717 764 L 575 737 C 567 772 558 804 549 832 C 540 860 529 883 517 902 C 505 921 490 936 472 946 C 454 956 433 961 408 961 C 349 961 303 926 269 857 C 235 788 219 683 219 541 C 219 475 222 416 229 364 C 236 312 247 267 263 231 C 279 194 299 166 323 146 C 347 126 377 117 412 117 C 436 117 456 121 474 130 C 491 139 506 153 519 172 C 532 190 544 214 554 243 C 564 272 573 306 582 346 L 721 322 C 698 212 662 128 612 70 C 562 12 494 -16 406 -16 Z M 405 -401 C 365 -401 327 -394 292 -380 C 256 -366 226 -349 200 -328 L 241 -260 C 263 -276 288 -290 315 -301 C 341 -311 370 -317 401 -317 C 465 -317 497 -288 497 -231 C 497 -209 491 -193 481 -181 C 471 -169 456 -164 438 -164 C 422 -164 409 -167 397 -174 C 385 -180 375 -189 366 -201 L 303 -172 L 344 2 L 430 2 L 407 -106 C 427 -87 453 -78 487 -78 C 501 -78 516 -80 531 -85 C 545 -90 558 -98 570 -109 C 582 -120 591 -135 599 -153 C 606 -171 610 -193 610 -219 C 610 -251 604 -278 594 -301 C 583 -323 568 -342 550 -357 C 532 -372 510 -383 485 -390 C 460 -397 433 -401 405 -401 Z" unicode="ç" />
<glyph horiz-adv-x="799" d="M 410 -16 C 357 -16 309 -4 267 18 C 225 40 189 75 159 121 C 129 167 106 225 90 295 C 74 365 66 447 66 541 C 66 637 74 720 91 790 C 107 860 131 917 161 963 C 191 1009 228 1043 270 1065 C 312 1087 360 1098 412 1098 C 470 1098 519 1083 560 1054 C 600 1024 633 984 659 934 C 684 884 702 825 714 758 C 725 690 731 619 731 543 L 731 500 L 215 500 C 216 377 233 282 266 216 C 299 150 349 117 416 117 C 442 117 465 121 485 130 C 505 138 522 151 537 168 C 551 184 564 205 575 229 C 585 253 595 281 604 313 L 729 276 C 703 177 664 104 610 56 C 556 8 490 -16 410 -16 Z M 584 621 C 582 671 578 717 571 759 C 563 801 553 837 539 867 C 525 897 507 920 486 937 C 464 954 439 963 410 963 C 382 963 356 956 334 943 C 311 930 291 910 275 883 C 259 855 246 820 236 777 C 226 733 219 681 217 621 L 584 621 Z M 161 1509 L 331 1509 L 467 1194 L 362 1194 L 161 1509 Z" unicode="è" />
<glyph horiz-adv-x="799" d="M 459 1509 L 629 1509 L 428 1194 L 322 1194 L 459 1509 Z M 410 -16 C 357 -16 309 -4 267 18 C 225 40 189 75 159 121 C 129 167 106 225 90 295 C 74 365 66 447 66 541 C 66 637 74 720 91 790 C 107 860 131 917 161 963 C 191 1009 228 1043 270 1065 C 312 1087 360 1098 412 1098 C 470 1098 519 1083 560 1054 C 600 1024 633 984 659 934 C 684 884 702 825 714 758 C 725 690 731 619 731 543 L 731 500 L 215 500 C 216 377 233 282 266 216 C 299 150 349 117 416 117 C 442 117 465 121 485 130 C 505 138 522 151 537 168 C 551 184 564 205 575 229 C 585 253 595 281 604 313 L 729 276 C 703 177 664 104 610 56 C 556 8 490 -16 410 -16 Z M 584 621 C 582 671 578 717 571 759 C 563 801 553 837 539 867 C 525 897 507 920 486 937 C 464 954 439 963 410 963 C 382 963 356 956 334 943 C 311 930 291 910 275 883 C 259 855 246 820 236 777 C 226 733 219 681 217 621 L 584 621 Z" unicode="é" />
<glyph horiz-adv-x="799" d="M 348 1509 L 450 1509 L 634 1186 L 538 1186 L 397 1362 L 260 1186 L 161 1186 L 348 1509 Z M 410 -16 C 357 -16 309 -4 267 18 C 225 40 189 75 159 121 C 129 167 106 225 90 295 C 74 365 66 447 66 541 C 66 637 74 720 91 790 C 107 860 131 917 161 963 C 191 1009 228 1043 270 1065 C 312 1087 360 1098 412 1098 C 470 1098 519 1083 560 1054 C 600 1024 633 984 659 934 C 684 884 702 825 714 758 C 725 690 731 619 731 543 L 731 500 L 215 500 C 216 377 233 282 266 216 C 299 150 349 117 416 117 C 442 117 465 121 485 130 C 505 138 522 151 537 168 C 551 184 564 205 575 229 C 585 253 595 281 604 313 L 729 276 C 703 177 664 104 610 56 C 556 8 490 -16 410 -16 Z M 584 621 C 582 671 578 717 571 759 C 563 801 553 837 539 867 C 525 897 507 920 486 937 C 464 954 439 963 410 963 C 382 963 356 956 334 943 C 311 930 291 910 275 883 C 259 855 246 820 236 777 C 226 733 219 681 217 621 L 584 621 Z" unicode="ê" />
<glyph horiz-adv-x="799" d="M 459 1370 L 611 1370 L 611 1194 L 459 1194 L 459 1370 Z M 187 1370 L 336 1370 L 336 1194 L 187 1194 L 187 1370 Z M 410 -16 C 357 -16 309 -4 267 18 C 225 40 189 75 159 121 C 129 167 106 225 90 295 C 74 365 66 447 66 541 C 66 637 74 720 91 790 C 107 860 131 917 161 963 C 191 1009 228 1043 270 1065 C 312 1087 360 1098 412 1098 C 470 1098 519 1083 560 1054 C 600 1024 633 984 659 934 C 684 884 702 825 714 758 C 725 690 731 619 731 543 L 731 500 L 215 500 C 216 377 233 282 266 216 C 299 150 349 117 416 117 C 442 117 465 121 485 130 C 505 138 522 151 537 168 C 551 184 564 205 575 229 C 585 253 595 281 604 313 L 729 276 C 703 177 664 104 610 56 C 556 8 490 -16 410 -16 Z M 584 621 C 582 671 578 717 571 759 C 563 801 553 837 539 867 C 525 897 507 920 486 937 C 464 954 439 963 410 963 C 382 963 356 956 334 943 C 311 930 291 910 275 883 C 259 855 246 820 236 777 C 226 733 219 681 217 621 L 584 621 Z" unicode="ë" />
<glyph horiz-adv-x="391" d="M 119 1081 L 272 1081 L 272 0 L 119 0 L 119 1081 Z M -55 1509 L 115 1509 L 251 1194 L 146 1194 L -55 1509 Z" unicode="ì" />
<glyph horiz-adv-x="391" d="M 277 1509 L 447 1509 L 246 1194 L 140 1194 L 277 1509 Z M 119 1081 L 272 1081 L 272 0 L 119 0 L 119 1081 Z" unicode="í" />
<glyph horiz-adv-x="391" d="M 147 1509 L 249 1509 L 433 1186 L 337 1186 L 196 1362 L 59 1186 L -40 1186 L 147 1509 Z M 119 1081 L 272 1081 L 272 0 L 119 0 L 119 1081 Z" unicode="î" />
<glyph horiz-adv-x="391" d="M 257 1370 L 409 1370 L 409 1194 L 257 1194 L 257 1370 Z M -15 1370 L 134 1370 L 134 1194 L -15 1194 L -15 1370 Z M 119 1081 L 272 1081 L 272 0 L 119 0 L 119 1081 Z" unicode="ï" />
<glyph horiz-adv-x="831" d="M 371 1151 L 317 1247 L 455 1323 C 439 1344 422 1364 404 1384 C 386 1404 367 1423 348 1442 L 436 1532 C 461 1508 485 1485 507 1461 C 529 1437 550 1413 569 1389 L 711 1466 L 764 1368 L 633 1296 C 655 1256 675 1214 692 1170 C 709 1125 723 1076 734 1022 C 744 968 752 908 758 843 C 763 777 766 705 766 625 C 766 512 758 415 742 334 C 726 252 704 185 674 133 C 644 81 608 42 565 17 C 521 -7 472 -20 416 -20 C 359 -20 309 -7 266 16 C 222 40 186 76 156 123 C 126 169 104 227 89 295 C 73 363 66 442 66 530 C 66 620 73 699 88 768 C 102 837 124 895 153 942 C 181 989 216 1025 258 1049 C 299 1073 347 1085 401 1085 C 453 1085 499 1069 539 1037 C 578 1005 608 963 629 909 C 618 969 603 1025 584 1079 C 565 1132 542 1183 514 1231 L 371 1151 Z M 414 113 C 448 113 478 123 503 143 C 527 163 548 191 564 227 C 580 263 591 307 599 359 C 606 411 610 468 610 532 C 610 592 606 649 599 701 C 592 753 581 797 565 835 C 549 873 529 902 505 924 C 480 945 450 956 414 956 C 378 956 348 946 324 926 C 299 906 279 878 264 842 C 248 805 237 760 230 708 C 222 656 219 597 219 532 C 219 472 222 416 228 365 C 234 313 245 269 261 232 C 276 194 296 165 321 144 C 345 123 376 113 414 113 Z" unicode="ð" />
<glyph horiz-adv-x="854" d="M 109 1081 L 260 1081 L 260 946 C 274 962 291 980 311 998 C 331 1016 354 1032 379 1047 C 403 1062 429 1074 457 1084 C 485 1093 513 1098 543 1098 C 577 1098 608 1093 634 1083 C 660 1073 681 1057 699 1035 C 717 1013 730 984 739 950 C 747 915 752 873 752 823 L 752 0 L 598 0 L 598 788 C 598 844 590 885 574 913 C 558 940 530 954 489 954 C 469 954 449 949 428 941 C 407 933 387 922 367 910 C 347 897 327 883 309 868 C 290 852 274 837 260 823 L 260 0 L 109 0 L 109 1081 Z M 162 1186 C 162 1270 174 1331 199 1369 C 224 1407 261 1427 311 1427 C 335 1427 357 1421 378 1409 C 399 1397 419 1384 438 1370 C 457 1356 475 1343 492 1331 C 508 1319 524 1313 540 1313 C 549 1313 557 1314 564 1318 C 571 1321 577 1327 582 1335 C 586 1343 590 1355 592 1369 C 594 1383 596 1401 596 1423 L 692 1423 C 692 1339 679 1278 654 1240 C 629 1201 592 1182 543 1182 C 519 1182 496 1188 474 1200 C 452 1212 432 1225 413 1239 C 393 1253 375 1266 359 1278 C 342 1290 327 1296 313 1296 C 293 1296 279 1288 270 1272 C 260 1256 256 1228 256 1186 L 162 1186 L 162 1186 Z" unicode="ñ" />
<glyph horiz-adv-x="831" d="M 418 -16 C 364 -16 315 -4 271 19 C 227 42 190 77 160 123 C 130 169 106 227 90 297 C 74 367 66 448 66 541 C 66 633 74 714 90 784 C 106 854 129 912 159 959 C 189 1005 226 1040 270 1063 C 314 1086 363 1098 418 1098 C 472 1098 520 1086 563 1063 C 606 1040 643 1005 673 959 C 703 912 726 854 742 784 C 758 714 766 633 766 541 C 766 448 758 367 742 297 C 726 227 703 169 673 123 C 643 77 606 42 563 19 C 520 -4 472 -16 418 -16 Z M 418 115 C 452 115 481 124 505 143 C 529 162 549 190 565 227 C 581 263 592 308 599 361 C 606 413 610 473 610 541 C 610 602 606 658 600 710 C 594 762 583 806 568 844 C 553 881 533 910 509 931 C 484 952 454 963 418 963 C 382 963 352 953 327 934 C 301 914 281 887 265 851 C 249 815 237 770 230 718 C 222 666 219 607 219 541 C 219 479 222 422 229 370 C 235 318 246 273 262 235 C 277 197 297 167 323 146 C 349 125 380 115 418 115 Z M 178 1509 L 348 1509 L 484 1194 L 379 1194 L 178 1509 Z" unicode="ò" />
<glyph horiz-adv-x="831" d="M 475 1509 L 645 1509 L 444 1194 L 338 1194 L 475 1509 Z M 418 -16 C 364 -16 315 -4 271 19 C 227 42 190 77 160 123 C 130 169 106 227 90 297 C 74 367 66 448 66 541 C 66 633 74 714 90 784 C 106 854 129 912 159 959 C 189 1005 226 1040 270 1063 C 314 1086 363 1098 418 1098 C 472 1098 520 1086 563 1063 C 606 1040 643 1005 673 959 C 703 912 726 854 742 784 C 758 714 766 633 766 541 C 766 448 758 367 742 297 C 726 227 703 169 673 123 C 643 77 606 42 563 19 C 520 -4 472 -16 418 -16 Z M 418 115 C 452 115 481 124 505 143 C 529 162 549 190 565 227 C 581 263 592 308 599 361 C 606 413 610 473 610 541 C 610 602 606 658 600 710 C 594 762 583 806 568 844 C 553 881 533 910 509 931 C 484 952 454 963 418 963 C 382 963 352 953 327 934 C 301 914 281 887 265 851 C 249 815 237 770 230 718 C 222 666 219 607 219 541 C 219 479 222 422 229 370 C 235 318 246 273 262 235 C 277 197 297 167 323 146 C 349 125 380 115 418 115 Z" unicode="ó" />
<glyph horiz-adv-x="831" d="M 365 1509 L 467 1509 L 651 1186 L 555 1186 L 414 1362 L 277 1186 L 178 1186 L 365 1509 Z M 418 -16 C 364 -16 315 -4 271 19 C 227 42 190 77 160 123 C 130 169 106 227 90 297 C 74 367 66 448 66 541 C 66 633 74 714 90 784 C 106 854 129 912 159 959 C 189 1005 226 1040 270 1063 C 314 1086 363 1098 418 1098 C 472 1098 520 1086 563 1063 C 606 1040 643 1005 673 959 C 703 912 726 854 742 784 C 758 714 766 633 766 541 C 766 448 758 367 742 297 C 726 227 703 169 673 123 C 643 77 606 42 563 19 C 520 -4 472 -16 418 -16 Z M 418 115 C 452 115 481 124 505 143 C 529 162 549 190 565 227 C 581 263 592 308 599 361 C 606 413 610 473 610 541 C 610 602 606 658 600 710 C 594 762 583 806 568 844 C 553 881 533 910 509 931 C 484 952 454 963 418 963 C 382 963 352 953 327 934 C 301 914 281 887 265 851 C 249 815 237 770 230 718 C 222 666 219 607 219 541 C 219 479 222 422 229 370 C 235 318 246 273 262 235 C 277 197 297 167 323 146 C 349 125 380 115 418 115 Z" unicode="ô" />
<glyph horiz-adv-x="831" d="M 418 -16 C 364 -16 315 -4 271 19 C 227 42 190 77 160 123 C 130 169 106 227 90 297 C 74 367 66 448 66 541 C 66 633 74 714 90 784 C 106 854 129 912 159 959 C 189 1005 226 1040 270 1063 C 314 1086 363 1098 418 1098 C 472 1098 520 1086 563 1063 C 606 1040 643 1005 673 959 C 703 912 726 854 742 784 C 758 714 766 633 766 541 C 766 448 758 367 742 297 C 726 227 703 169 673 123 C 643 77 606 42 563 19 C 520 -4 472 -16 418 -16 Z M 418 115 C 452 115 481 124 505 143 C 529 162 549 190 565 227 C 581 263 592 308 599 361 C 606 413 610 473 610 541 C 610 602 606 658 600 710 C 594 762 583 806 568 844 C 553 881 533 910 509 931 C 484 952 454 963 418 963 C 382 963 352 953 327 934 C 301 914 281 887 265 851 C 249 815 237 770 230 718 C 222 666 219 607 219 541 C 219 479 222 422 229 370 C 235 318 246 273 262 235 C 277 197 297 167 323 146 C 349 125 380 115 418 115 Z M 150 1186 C 150 1270 162 1331 187 1369 C 212 1407 249 1427 299 1427 C 323 1427 345 1421 366 1409 C 387 1397 407 1384 426 1370 C 445 1356 463 1343 480 1331 C 496 1319 512 1313 528 1313 C 537 1313 545 1314 552 1318 C 559 1321 565 1327 570 1335 C 574 1343 578 1355 580 1369 C 582 1383 584 1401 584 1423 L 680 1423 C 680 1339 667 1278 642 1240 C 617 1201 580 1182 531 1182 C 507 1182 484 1188 462 1200 C 440 1212 420 1225 401 1239 C 381 1253 363 1266 347 1278 C 330 1290 315 1296 301 1296 C 281 1296 267 1288 258 1272 C 248 1256 244 1228 244 1186 L 150 1186 L 150 1186 Z" unicode="õ" />
<glyph horiz-adv-x="831" d="M 475 1370 L 627 1370 L 627 1194 L 475 1194 L 475 1370 Z M 203 1370 L 352 1370 L 352 1194 L 203 1194 L 203 1370 Z M 418 -16 C 364 -16 315 -4 271 19 C 227 42 190 77 160 123 C 130 169 106 227 90 297 C 74 367 66 448 66 541 C 66 633 74 714 90 784 C 106 854 129 912 159 959 C 189 1005 226 1040 270 1063 C 314 1086 363 1098 418 1098 C 472 1098 520 1086 563 1063 C 606 1040 643 1005 673 959 C 703 912 726 854 742 784 C 758 714 766 633 766 541 C 766 448 758 367 742 297 C 726 227 703 169 673 123 C 643 77 606 42 563 19 C 520 -4 472 -16 418 -16 Z M 418 115 C 452 115 481 124 505 143 C 529 162 549 190 565 227 C 581 263 592 308 599 361 C 606 413 610 473 610 541 C 610 602 606 658 600 710 C 594 762 583 806 568 844 C 553 881 533 910 509 931 C 484 952 454 963 418 963 C 382 963 352 953 327 934 C 301 914 281 887 265 851 C 249 815 237 770 230 718 C 222 666 219 607 219 541 C 219 479 222 422 229 370 C 235 318 246 273 262 235 C 277 197 297 167 323 146 C 349 125 380 115 418 115 Z" unicode="ö" />
<glyph horiz-adv-x="932" d="M 389 1126 L 541 1126 L 541 934 L 389 934 L 389 1126 Z M 86 739 L 846 739 L 846 600 L 86 600 L 86 739 Z M 389 401 L 541 401 L 541 211 L 389 211 L 389 401 Z" unicode="÷" />
<glyph horiz-adv-x="831" d="M 682 944 C 710 896 731 839 745 773 C 759 707 766 629 766 541 C 766 448 758 367 742 297 C 726 227 703 169 673 123 C 643 77 606 42 563 19 C 520 -4 472 -16 418 -16 C 344 -16 282 4 231 45 L 174 -68 L 70 -18 L 150 141 C 122 187 101 243 87 310 C 73 376 66 453 66 541 C 66 633 74 714 90 784 C 106 854 129 912 159 959 C 189 1005 226 1040 270 1063 C 314 1086 363 1098 418 1098 C 487 1098 548 1078 600 1038 L 657 1149 L 760 1098 L 682 944 Z M 539 901 C 524 920 506 935 486 946 C 466 957 443 963 418 963 C 382 963 352 953 326 933 C 300 913 279 885 263 849 C 246 813 234 768 226 716 C 218 664 215 605 215 541 C 215 495 217 452 221 412 C 225 372 231 335 240 301 L 539 901 Z M 291 180 C 306 159 324 143 345 132 C 365 120 390 115 418 115 C 452 115 481 124 506 144 C 530 164 551 192 567 229 C 583 265 594 310 602 363 C 610 415 614 475 614 541 C 614 586 612 629 609 669 C 605 709 600 745 592 778 L 291 180 Z" unicode="ø" />
<glyph horiz-adv-x="850" d="M 311 -12 C 275 -12 245 -7 219 2 C 193 12 171 27 154 49 C 136 71 123 99 115 133 C 106 167 102 210 102 260 L 102 1081 L 254 1081 L 254 293 C 254 237 262 195 278 168 C 294 140 323 127 367 127 C 385 127 405 131 425 139 C 445 147 464 158 484 171 C 503 183 521 197 539 213 C 557 229 573 244 588 258 L 588 1081 L 741 1081 L 741 0 L 588 0 L 588 137 C 574 120 557 103 537 85 C 517 67 496 51 472 37 C 448 23 422 11 395 2 C 367 -7 339 -12 311 -12 Z M 186 1509 L 356 1509 L 492 1194 L 387 1194 L 186 1509 Z" unicode="ù" />
<glyph horiz-adv-x="850" d="M 483 1509 L 653 1509 L 452 1194 L 346 1194 L 483 1509 Z M 311 -12 C 275 -12 245 -7 219 2 C 193 12 171 27 154 49 C 136 71 123 99 115 133 C 106 167 102 210 102 260 L 102 1081 L 254 1081 L 254 293 C 254 237 262 195 278 168 C 294 140 323 127 367 127 C 385 127 405 131 425 139 C 445 147 464 158 484 171 C 503 183 521 197 539 213 C 557 229 573 244 588 258 L 588 1081 L 741 1081 L 741 0 L 588 0 L 588 137 C 574 120 557 103 537 85 C 517 67 496 51 472 37 C 448 23 422 11 395 2 C 367 -7 339 -12 311 -12 Z" unicode="ú" />
<glyph horiz-adv-x="850" d="M 371 1509 L 473 1509 L 657 1186 L 561 1186 L 420 1362 L 283 1186 L 184 1186 L 371 1509 Z M 311 -12 C 275 -12 245 -7 219 2 C 193 12 171 27 154 49 C 136 71 123 99 115 133 C 106 167 102 210 102 260 L 102 1081 L 254 1081 L 254 293 C 254 237 262 195 278 168 C 294 140 323 127 367 127 C 385 127 405 131 425 139 C 445 147 464 158 484 171 C 503 183 521 197 539 213 C 557 229 573 244 588 258 L 588 1081 L 741 1081 L 741 0 L 588 0 L 588 137 C 574 120 557 103 537 85 C 517 67 496 51 472 37 C 448 23 422 11 395 2 C 367 -7 339 -12 311 -12 Z" unicode="û" />
<glyph horiz-adv-x="850" d="M 483 1370 L 635 1370 L 635 1194 L 483 1194 L 483 1370 Z M 211 1370 L 360 1370 L 360 1194 L 211 1194 L 211 1370 Z M 311 -12 C 275 -12 245 -7 219 2 C 193 12 171 27 154 49 C 136 71 123 99 115 133 C 106 167 102 210 102 260 L 102 1081 L 254 1081 L 254 293 C 254 237 262 195 278 168 C 294 140 323 127 367 127 C 385 127 405 131 425 139 C 445 147 464 158 484 171 C 503 183 521 197 539 213 C 557 229 573 244 588 258 L 588 1081 L 741 1081 L 741 0 L 588 0 L 588 137 C 574 120 557 103 537 85 C 517 67 496 51 472 37 C 448 23 422 11 395 2 C 367 -7 339 -12 311 -12 Z" unicode="ü" />
<glyph horiz-adv-x="772" d="M 143 -412 C 110 -412 82 -409 60 -404 C 38 -398 18 -393 2 -387 L 35 -262 C 46 -266 60 -269 76 -272 C 92 -274 112 -276 135 -276 C 155 -276 172 -272 187 -265 C 201 -257 214 -246 225 -231 C 236 -216 246 -197 255 -175 C 264 -152 273 -125 281 -94 L 311 16 L 33 1081 L 186 1081 L 332 481 C 336 457 341 436 346 416 C 350 396 355 375 359 354 C 363 332 368 310 372 286 C 376 262 381 235 387 205 L 391 205 C 396 235 401 261 405 285 C 409 309 414 331 419 353 C 423 374 428 395 433 415 C 437 435 443 456 449 479 L 594 1081 L 739 1081 L 422 -117 C 408 -169 394 -213 379 -250 C 363 -287 345 -318 324 -342 C 302 -366 277 -383 248 -395 C 218 -406 183 -412 143 -412 Z M 446 1509 L 616 1509 L 415 1194 L 309 1194 L 446 1509 Z" unicode="ý" />
<glyph horiz-adv-x="856" d="M 109 1516 L 260 1516 L 260 958 C 272 975 285 992 301 1009 C 317 1026 334 1041 354 1055 C 373 1068 394 1079 418 1087 C 442 1095 468 1100 496 1100 C 539 1100 579 1090 615 1070 C 651 1050 683 1017 709 973 C 735 929 755 871 769 801 C 783 730 791 644 791 543 C 791 441 783 354 768 283 C 753 212 732 154 705 110 C 678 66 646 34 610 14 C 573 -6 533 -16 489 -16 C 437 -16 393 -3 357 23 C 320 49 288 83 260 125 L 260 -410 L 109 -410 L 109 1516 Z M 455 119 C 483 119 509 126 531 141 C 553 156 572 180 588 214 C 603 248 615 291 623 345 C 631 398 635 463 635 541 C 635 615 630 679 622 732 C 614 785 602 829 586 863 C 570 897 551 921 529 937 C 507 953 481 961 453 961 C 433 961 413 957 395 949 C 377 941 359 930 343 918 C 327 905 312 891 298 876 C 284 860 271 845 260 831 L 260 254 C 286 214 316 182 350 157 C 384 131 419 119 455 119 Z" unicode="þ" />
<glyph horiz-adv-x="772" d="M 143 -412 C 110 -412 82 -409 60 -404 C 38 -398 18 -393 2 -387 L 35 -262 C 46 -266 60 -269 76 -272 C 92 -274 112 -276 135 -276 C 155 -276 172 -272 187 -265 C 201 -257 214 -246 225 -231 C 236 -216 246 -197 255 -175 C 264 -152 273 -125 281 -94 L 311 16 L 33 1081 L 186 1081 L 332 481 C 336 457 341 436 346 416 C 350 396 355 375 359 354 C 363 332 368 310 372 286 C 376 262 381 235 387 205 L 391 205 C 396 235 401 261 405 285 C 409 309 414 331 419 353 C 423 374 428 395 433 415 C 437 435 443 456 449 479 L 594 1081 L 739 1081 L 422 -117 C 408 -169 394 -213 379 -250 C 363 -287 345 -318 324 -342 C 302 -366 277 -383 248 -395 C 218 -406 183 -412 143 -412 Z M 448 1370 L 600 1370 L 600 1194 L 448 1194 L 448 1370 Z M 176 1370 L 325 1370 L 325 1194 L 176 1194 L 176 1370 Z" unicode="ÿ" />
<glyph horiz-adv-x="948" d="" unicode="Ā" />
<glyph horiz-adv-x="799" d="" unicode="ā" />
<glyph horiz-adv-x="948" d="" unicode="Ă" />
<glyph horiz-adv-x="799" d="" unicode="ă" />
<glyph horiz-adv-x="948" d="" unicode="Ą" />
<glyph horiz-adv-x="799" d="" unicode="ą" />
<glyph horiz-adv-x="963" d="" unicode="Ć" />
<glyph horiz-adv-x="768" d="" unicode="ć" />
<glyph horiz-adv-x="963" d="" unicode="Ĉ" />
<glyph horiz-adv-x="768" d="" unicode="ĉ" />
<glyph horiz-adv-x="963" d="" unicode="Ċ" />
<glyph horiz-adv-x="768" d="" unicode="ċ" />
<glyph horiz-adv-x="963" d="" unicode="Č" />
<glyph horiz-adv-x="768" d="" unicode="č" />
<glyph horiz-adv-x="991" d="" unicode="Ď" />
<glyph horiz-adv-x="856" d="" unicode="ď" />
<glyph horiz-adv-x="993" d="" unicode="Đ" />
<glyph horiz-adv-x="856" d="" unicode="đ" />
<glyph horiz-adv-x="831" d="" unicode="Ē" />
<glyph horiz-adv-x="799" d="" unicode="ē" />
<glyph horiz-adv-x="831" d="" unicode="Ĕ" />
<glyph horiz-adv-x="799" d="" unicode="ĕ" />
<glyph horiz-adv-x="831" d="" unicode="Ė" />
<glyph horiz-adv-x="799" d="" unicode="ė" />
<glyph horiz-adv-x="831" d="" unicode="Ę" />
<glyph horiz-adv-x="799" d="" unicode="ę" />
<glyph horiz-adv-x="831" d="" unicode="Ě" />
<glyph horiz-adv-x="799" d="" unicode="ě" />
<glyph horiz-adv-x="1006" d="" unicode="Ĝ" />
<glyph horiz-adv-x="834" d="" unicode="ĝ" />
<glyph horiz-adv-x="1006" d="" unicode="Ğ" />
<glyph horiz-adv-x="834" d="" unicode="ğ" />
<glyph horiz-adv-x="1006" d="" unicode="Ġ" />
<glyph horiz-adv-x="834" d="" unicode="ġ" />
<glyph horiz-adv-x="1006" d="" unicode="Ģ" />
<glyph horiz-adv-x="834" d="" unicode="ģ" />
<glyph horiz-adv-x="1026" d="" unicode="Ĥ" />
<glyph horiz-adv-x="854" d="" unicode="ĥ" />
<glyph horiz-adv-x="1026" d="" unicode="Ħ" />
<glyph horiz-adv-x="854" d="" unicode="ħ" />
<glyph horiz-adv-x="434" d="" unicode="Ĩ" />
<glyph horiz-adv-x="391" d="" unicode="ĩ" />
<glyph horiz-adv-x="434" d="" unicode="Ī" />
<glyph horiz-adv-x="391" d="" unicode="ī" />
<glyph horiz-adv-x="434" d="" unicode="Ĭ" />
<glyph horiz-adv-x="391" d="" unicode="ĭ" />
<glyph horiz-adv-x="434" d="" unicode="Į" />
<glyph horiz-adv-x="391" d="" unicode="į" />
<glyph horiz-adv-x="434" d="" unicode="İ" />
<glyph horiz-adv-x="391" d="M 119 1081 L 272 1081 L 272 0 L 119 0 L 119 1081 Z" unicode="ı" />
<glyph horiz-adv-x="1118" d="" unicode="Ĳ" />
<glyph horiz-adv-x="782" d="" unicode="ĳ" />
<glyph horiz-adv-x="725" d="" unicode="Ĵ" />
<glyph horiz-adv-x="391" d="" unicode="ĵ" />
<glyph horiz-adv-x="936" d="" unicode="Ķ" />
<glyph horiz-adv-x="778" d="" unicode="ķ" />
<glyph horiz-adv-x="778" d="" unicode="ĸ" />
<glyph horiz-adv-x="797" d="" unicode="Ĺ" />
<glyph horiz-adv-x="391" d="" unicode="ĺ" />
<glyph horiz-adv-x="797" d="" unicode="Ļ" />
<glyph horiz-adv-x="391" d="" unicode="ļ" />
<glyph horiz-adv-x="797" d="" unicode="Ľ" />
<glyph horiz-adv-x="391" d="" unicode="ľ" />
<glyph horiz-adv-x="862" d="" unicode="Ŀ" />
<glyph horiz-adv-x="555" d="" unicode="ŀ" />
<glyph horiz-adv-x="797" d="" unicode="Ł" />
<glyph horiz-adv-x="477" d="" unicode="ł" />
<glyph horiz-adv-x="1026" d="" unicode="Ń" />
<glyph horiz-adv-x="854" d="" unicode="ń" />
<glyph horiz-adv-x="1026" d="" unicode="Ņ" />
<glyph horiz-adv-x="854" d="" unicode="ņ" />
<glyph horiz-adv-x="1026" d="" unicode="Ň" />
<glyph horiz-adv-x="854" d="" unicode="ň" />
<glyph horiz-adv-x="1026" d="" unicode="Ŋ" />
<glyph horiz-adv-x="854" d="" unicode="ŋ" />
<glyph horiz-adv-x="1032" d="" unicode="Ō" />
<glyph horiz-adv-x="831" d="" unicode="ō" />
<glyph horiz-adv-x="1032" d="" unicode="Ŏ" />
<glyph horiz-adv-x="831" d="" unicode="ŏ" />
<glyph horiz-adv-x="1032" d="" unicode="Ő" />
<glyph horiz-adv-x="831" d="" unicode="ő" />
<glyph horiz-adv-x="1499" d="M 819 1516 L 1413 1516 L 1413 1372 L 954 1372 L 954 870 L 1284 870 L 1284 731 L 954 731 L 954 141 L 1440 141 L 1440 0 L 819 0 L 819 205 C 757 56 657 -18 518 -18 C 450 -18 389 -2 335 28 C 281 58 235 105 197 169 C 159 233 129 313 109 411 C 88 508 78 624 78 758 C 78 891 88 1006 109 1104 C 129 1202 159 1282 197 1346 C 235 1410 281 1457 335 1488 C 389 1518 450 1534 518 1534 C 588 1534 648 1515 698 1478 C 748 1440 788 1385 819 1311 L 819 1516 Z M 518 127 C 611 127 680 181 725 289 C 770 397 793 554 793 758 C 793 961 770 1116 725 1224 C 680 1332 611 1386 518 1386 C 424 1386 353 1332 307 1224 C 261 1116 238 961 238 758 C 238 554 261 397 307 289 C 353 181 424 127 518 127 Z" unicode="Œ" />
<glyph horiz-adv-x="1339" d="M 418 -16 C 364 -16 315 -4 271 19 C 227 42 190 77 160 123 C 130 169 106 227 90 297 C 74 367 66 448 66 541 C 66 633 74 714 90 784 C 106 854 129 912 159 959 C 189 1005 226 1040 270 1063 C 314 1086 363 1098 418 1098 C 541 1098 630 1035 686 909 C 714 973 750 1020 795 1051 C 840 1082 892 1098 952 1098 C 1010 1098 1060 1083 1101 1054 C 1142 1024 1175 984 1201 934 C 1227 884 1245 825 1257 758 C 1268 690 1274 619 1274 543 L 1274 500 L 758 500 C 758 377 774 282 807 216 C 839 150 889 117 956 117 C 982 117 1005 121 1025 130 C 1045 138 1062 151 1077 168 C 1092 184 1105 205 1116 229 C 1126 253 1136 281 1145 313 L 1272 276 C 1245 177 1205 104 1151 56 C 1097 8 1030 -16 950 -16 C 889 -16 836 0 792 30 C 748 60 712 107 686 170 C 630 46 541 -16 418 -16 Z M 1124 621 C 1122 671 1118 717 1111 759 C 1104 801 1094 837 1080 867 C 1066 897 1048 920 1027 937 C 1005 954 980 963 950 963 C 922 963 896 956 874 943 C 852 930 833 910 817 883 C 801 855 788 820 778 777 C 768 733 761 681 758 621 L 1124 621 Z M 418 115 C 452 115 481 124 505 143 C 529 162 549 190 565 227 C 581 263 592 308 599 361 C 606 413 610 473 610 541 C 610 602 606 658 600 710 C 594 762 583 806 568 844 C 553 881 533 910 509 931 C 484 952 454 963 418 963 C 382 963 352 953 327 934 C 301 914 281 887 265 851 C 249 815 237 770 230 718 C 222 666 219 607 219 541 C 219 479 222 422 229 370 C 235 318 246 273 262 235 C 277 197 297 167 323 146 C 349 125 380 115 418 115 Z" unicode="œ" />
<glyph horiz-adv-x="952" d="" unicode="Ŕ" />
<glyph horiz-adv-x="590" d="" unicode="ŕ" />
<glyph horiz-adv-x="952" d="" unicode="Ŗ" />
<glyph horiz-adv-x="590" d="" unicode="ŗ" />
<glyph horiz-adv-x="952" d="" unicode="Ř" />
<glyph horiz-adv-x="590" d="" unicode="ř" />
<glyph horiz-adv-x="905" d="" unicode="Ś" />
<glyph horiz-adv-x="739" d="" unicode="ś" />
<glyph horiz-adv-x="905" d="" unicode="Ŝ" />
<glyph horiz-adv-x="739" d="" unicode="ŝ" />
<glyph horiz-adv-x="905" d="" unicode="Ş" />
<glyph horiz-adv-x="739" d="" unicode="ş" />
<glyph horiz-adv-x="905" d="M 215 1923 L 314 1923 L 453 1749 L 592 1923 L 688 1923 L 502 1602 L 400 1602 L 215 1923 Z M 463 -23 C 403 -23 350 -13 306 4 C 261 22 222 49 189 84 C 156 119 128 161 106 211 C 83 261 64 317 49 381 L 197 414 C 208 366 221 324 237 288 C 252 252 270 221 292 196 C 313 171 338 152 366 140 C 394 127 427 121 465 121 C 535 121 587 140 622 179 C 656 217 674 269 674 334 C 674 372 665 409 649 443 C 633 477 611 510 584 542 C 557 574 527 605 493 636 C 459 666 424 697 388 729 C 352 761 317 793 283 827 C 249 861 218 896 191 934 C 164 972 142 1012 126 1055 C 110 1098 102 1145 102 1196 C 102 1248 110 1296 127 1338 C 144 1380 168 1416 198 1446 C 228 1475 265 1498 307 1514 C 349 1530 395 1538 446 1538 C 498 1538 544 1529 584 1512 C 624 1494 658 1470 688 1438 C 717 1406 742 1367 763 1323 C 783 1278 801 1228 815 1174 L 670 1135 C 658 1177 646 1215 632 1247 C 618 1279 602 1305 584 1327 C 566 1349 545 1365 522 1376 C 498 1387 472 1393 442 1393 C 384 1393 340 1377 308 1345 C 276 1313 260 1266 260 1206 C 260 1164 268 1125 284 1089 C 300 1053 322 1018 349 986 C 375 953 406 921 440 891 C 474 860 509 829 545 798 C 581 767 616 735 650 703 C 684 670 715 635 742 598 C 768 561 790 521 806 479 C 822 437 831 390 831 340 C 831 286 822 236 804 192 C 786 147 760 109 728 77 C 696 45 657 20 612 3 C 566 -14 517 -23 463 -23 Z" unicode="Š" />
<glyph horiz-adv-x="739" d="M 134 1511 L 233 1511 L 372 1337 L 511 1511 L 607 1511 L 421 1190 L 319 1190 L 134 1511 Z M 369 -20 C 326 -20 287 -14 253 -2 C 218 10 187 27 159 49 C 131 71 106 99 85 131 C 63 163 45 198 29 238 L 158 293 C 179 235 206 189 240 157 C 274 125 316 109 367 109 C 421 109 461 122 489 149 C 516 175 530 210 530 252 C 530 280 523 306 510 329 C 497 351 480 372 459 392 C 438 412 414 430 387 448 C 359 466 332 484 304 503 C 276 521 248 541 221 563 C 193 584 169 608 148 634 C 127 660 110 690 97 723 C 84 756 78 794 78 836 C 78 878 86 915 102 948 C 118 981 140 1009 167 1032 C 194 1054 225 1072 259 1084 C 293 1096 329 1102 365 1102 C 405 1102 440 1096 472 1085 C 504 1073 532 1057 557 1036 C 582 1015 604 989 623 959 C 641 929 658 894 672 856 L 543 805 C 527 854 505 894 476 924 C 446 954 410 969 367 969 C 345 969 326 965 309 959 C 292 953 277 944 265 932 C 253 920 243 907 237 891 C 230 875 227 858 227 840 C 227 810 233 784 246 761 C 259 738 276 717 298 697 C 319 677 343 658 370 640 C 397 622 425 604 453 585 C 481 566 509 546 536 525 C 563 504 587 481 609 455 C 630 429 647 399 660 367 C 673 335 680 298 680 256 C 680 215 672 178 658 144 C 644 110 623 81 596 57 C 569 33 536 14 498 0 C 460 -13 417 -20 369 -20 Z" unicode="š" />
<glyph horiz-adv-x="852" d="" unicode="Ţ" />
<glyph horiz-adv-x="565" d="" unicode="ţ" />
<glyph horiz-adv-x="852" d="" unicode="Ť" />
<glyph horiz-adv-x="565" d="" unicode="ť" />
<glyph horiz-adv-x="852" d="" unicode="Ŧ" />
<glyph horiz-adv-x="565" d="" unicode="ŧ" />
<glyph horiz-adv-x="997" d="" unicode="Ũ" />
<glyph horiz-adv-x="850" d="" unicode="ũ" />
<glyph horiz-adv-x="997" d="" unicode="Ū" />
<glyph horiz-adv-x="850" d="" unicode="ū" />
<glyph horiz-adv-x="997" d="" unicode="Ŭ" />
<glyph horiz-adv-x="850" d="" unicode="ŭ" />
<glyph horiz-adv-x="997" d="" unicode="Ů" />
<glyph horiz-adv-x="850" d="" unicode="ů" />
<glyph horiz-adv-x="997" d="" unicode="Ű" />
<glyph horiz-adv-x="850" d="" unicode="ű" />
<glyph horiz-adv-x="997" d="" unicode="Ų" />
<glyph horiz-adv-x="850" d="" unicode="ų" />
<glyph horiz-adv-x="1343" d="" unicode="Ŵ" />
<glyph horiz-adv-x="1087" d="" unicode="ŵ" />
<glyph horiz-adv-x="860" d="" unicode="Ŷ" />
<glyph horiz-adv-x="772" d="" unicode="ŷ" />
<glyph horiz-adv-x="860" d="M 350 586 L 23 1516 L 184 1516 L 434 766 L 438 766 L 686 1516 L 840 1516 L 510 586 L 510 0 L 350 0 L 350 586 Z M 493 1782 L 645 1782 L 645 1606 L 493 1606 L 493 1782 Z M 221 1782 L 370 1782 L 370 1606 L 221 1606 L 221 1782 Z" unicode="Ÿ" />
<glyph horiz-adv-x="862" d="" unicode="Ź" />
<glyph horiz-adv-x="715" d="" unicode="ź" />
<glyph horiz-adv-x="862" d="" unicode="Ż" />
<glyph horiz-adv-x="715" d="" unicode="ż" />
<glyph horiz-adv-x="862" d="M 192 1923 L 291 1923 L 430 1749 L 569 1923 L 665 1923 L 479 1602 L 377 1602 L 192 1923 Z M 53 123 L 621 1372 L 96 1372 L 96 1516 L 799 1516 L 799 1389 L 229 141 L 799 141 L 799 0 L 53 0 L 53 123 Z" unicode="Ž" />
<glyph horiz-adv-x="715" d="M 122 1511 L 221 1511 L 360 1337 L 499 1511 L 595 1511 L 409 1190 L 307 1190 L 122 1511 Z M 53 106 L 469 950 L 90 950 L 90 1081 L 643 1081 L 643 973 L 223 129 L 662 129 L 662 0 L 53 0 L 53 106 Z" unicode="ž" />
<glyph horiz-adv-x="563" d="M -68 -412 C -84 -412 -99 -411 -115 -410 C -131 -409 -145 -408 -158 -406 L -137 -274 C -127 -276 -117 -278 -107 -279 C -97 -280 -87 -281 -78 -281 C -40 -281 -10 -271 10 -252 C 31 -233 45 -200 53 -152 L 170 713 L 39 713 L 57 844 L 188 844 L 248 1266 C 254 1314 265 1355 281 1387 C 297 1419 317 1445 341 1465 C 365 1485 392 1499 424 1507 C 455 1515 490 1520 528 1520 C 542 1520 557 1519 571 1517 C 585 1515 598 1514 608 1513 L 586 1380 C 576 1381 567 1382 557 1383 C 547 1383 537 1384 528 1384 C 510 1384 494 1382 480 1378 C 466 1374 453 1368 442 1359 C 431 1349 422 1337 414 1321 C 406 1305 401 1284 397 1260 L 340 844 L 504 844 L 485 713 L 324 713 L 201 -170 C 195 -217 184 -256 170 -287 C 155 -318 136 -343 114 -361 C 91 -379 64 -392 34 -400 C 4 -408 -30 -412 -68 -412 Z" unicode="ƒ" />
<glyph horiz-adv-x="672" d="" unicode="⁄" />
<glyph horiz-adv-x="932" d="" unicode="−" />
<glyph horiz-adv-x="905" d="" unicode="Ș" />
<glyph horiz-adv-x="739" d="" unicode="ș" />
<glyph horiz-adv-x="852" d="" unicode="Ț" />
<glyph horiz-adv-x="565" d="" unicode="ț" />
<glyph horiz-adv-x="1094" d="" unicode="∞" />
<glyph horiz-adv-x="991" d="" unicode="≈" />
<glyph horiz-adv-x="799" d="" unicode="ə" />
<glyph horiz-adv-x="932" d="" unicode="≠" />
<glyph horiz-adv-x="971" d="" unicode="≤" />
<glyph horiz-adv-x="969" d="" unicode="≥" />
<glyph horiz-adv-x="741" d="" unicode="⁰" />
<glyph horiz-adv-x="672" d="" unicode="⁴" />
<glyph horiz-adv-x="690" d="" unicode="⁵" />
<glyph horiz-adv-x="700" d="" unicode="⁶" />
<glyph horiz-adv-x="758" d="M 328 1509 L 430 1509 L 614 1186 L 518 1186 L 377 1362 L 240 1186 L 141 1186 L 328 1509 Z" unicode="ˆ" />
<glyph horiz-adv-x="758" d="M 141 1511 L 240 1511 L 379 1337 L 518 1511 L 614 1511 L 428 1190 L 326 1190 L 141 1511 Z" unicode="ˇ" />
<glyph horiz-adv-x="610" d="" unicode="⁷" />
<glyph horiz-adv-x="696" d="" unicode="⁸" />
<glyph horiz-adv-x="700" d="" unicode="⁹" />
<glyph horiz-adv-x="745" d="" unicode="˘" />
<glyph horiz-adv-x="745" d="" unicode="˙" />
<glyph horiz-adv-x="754" d="M 375 1161 C 349 1161 326 1166 306 1177 C 286 1187 270 1202 256 1221 C 242 1239 232 1261 225 1287 C 218 1312 215 1340 215 1370 C 215 1399 218 1426 225 1452 C 232 1477 242 1499 256 1517 C 270 1535 286 1550 306 1561 C 326 1571 349 1577 375 1577 C 399 1577 422 1571 442 1561 C 462 1550 480 1535 494 1517 C 508 1499 519 1477 527 1452 C 535 1426 539 1399 539 1370 C 539 1340 535 1312 528 1287 C 520 1261 510 1239 496 1221 C 482 1202 464 1187 444 1177 C 424 1166 401 1161 375 1161 Z M 375 1249 C 387 1249 397 1252 406 1259 C 414 1265 421 1274 427 1285 C 432 1296 436 1309 438 1323 C 440 1337 442 1352 442 1368 C 442 1382 440 1397 438 1411 C 436 1425 432 1437 427 1448 C 421 1459 414 1468 406 1475 C 397 1481 387 1485 375 1485 C 363 1485 352 1481 344 1475 C 336 1469 329 1460 324 1450 C 318 1439 314 1426 312 1412 C 310 1398 309 1383 309 1368 C 309 1352 310 1337 312 1323 C 314 1309 318 1296 324 1285 C 329 1274 336 1265 344 1259 C 352 1252 363 1249 375 1249 Z" unicode="˚" />
<glyph horiz-adv-x="745" d="" unicode="˛" />
<glyph horiz-adv-x="752" d="M 111 1186 C 111 1270 123 1331 148 1369 C 173 1407 210 1427 260 1427 C 284 1427 306 1421 327 1409 C 348 1397 368 1384 387 1370 C 406 1356 424 1343 441 1331 C 457 1319 473 1313 489 1313 C 498 1313 506 1314 513 1318 C 520 1321 526 1327 531 1335 C 535 1343 539 1355 541 1369 C 543 1383 545 1401 545 1423 L 641 1423 C 641 1339 628 1278 603 1240 C 578 1201 541 1182 492 1182 C 468 1182 445 1188 423 1200 C 401 1212 381 1225 362 1239 C 342 1253 324 1266 308 1278 C 291 1290 276 1296 262 1296 C 242 1296 228 1288 219 1272 C 209 1256 205 1228 205 1186 L 111 1186 L 111 1186 Z" unicode="˜" />
<glyph horiz-adv-x="752" d="" unicode="˝" />
<glyph horiz-adv-x="989" d="M 639 950 L 504 950 L 504 1081 L 639 1081 L 639 1264 C 639 1352 661 1416 706 1456 C 750 1496 815 1516 899 1516 L 963 1516 L 963 1382 L 913 1382 C 876 1382 847 1373 825 1356 C 803 1339 793 1308 793 1262 L 793 1081 L 954 1081 L 954 950 L 793 950 L 793 0 L 639 0 L 639 950 Z M 162 950 L 33 950 L 33 1081 L 162 1081 L 162 1264 C 162 1352 184 1416 229 1456 C 274 1496 336 1516 414 1516 L 473 1516 L 473 1382 C 471 1383 464 1383 454 1383 C 444 1382 435 1382 428 1382 C 392 1382 365 1372 345 1354 C 325 1336 315 1305 315 1262 L 315 1081 L 473 1081 L 473 950 L 315 950 L 315 0 L 162 0 L 162 950 Z" unicode="ﬀ" />
<glyph horiz-adv-x="897" d="M 616 1464 L 772 1464 L 772 1282 L 616 1282 L 616 1464 Z M 162 950 L 33 950 L 33 1081 L 162 1081 L 162 1264 C 162 1352 184 1416 229 1457 C 274 1497 336 1518 414 1518 C 427 1518 438 1517 448 1517 C 457 1516 465 1516 473 1516 L 473 1382 C 471 1383 464 1384 454 1384 C 444 1384 435 1384 428 1384 C 392 1384 365 1374 345 1355 C 325 1336 315 1305 315 1262 L 315 1081 L 465 1081 L 465 950 L 315 950 L 315 0 L 162 0 L 162 950 Z M 618 1081 L 770 1081 L 770 0 L 618 0 L 618 1081 Z" unicode="ﬁ" />
<glyph horiz-adv-x="897" d="M 162 950 L 33 950 L 33 1081 L 162 1081 L 162 1264 C 162 1352 184 1416 229 1457 C 274 1497 336 1518 414 1518 C 427 1518 438 1517 448 1517 C 457 1516 465 1516 473 1516 L 473 1382 C 471 1383 464 1384 454 1384 C 444 1384 435 1384 428 1384 C 392 1384 365 1374 345 1355 C 325 1336 315 1305 315 1262 L 315 1081 L 465 1081 L 465 950 L 315 950 L 315 0 L 162 0 L 162 950 Z M 618 1516 L 770 1516 L 770 0 L 618 0 L 618 1516 Z" unicode="ﬂ" />
<glyph horiz-adv-x="1358" d="M 639 950 L 504 950 L 504 1081 L 639 1081 L 639 1264 C 639 1352 661 1416 706 1456 C 751 1496 813 1516 891 1516 L 948 1516 L 948 1382 L 905 1382 C 870 1382 843 1372 823 1354 C 803 1336 793 1305 793 1262 L 793 1081 L 942 1081 L 942 950 L 793 950 L 793 0 L 639 0 L 639 950 Z M 162 950 L 33 950 L 33 1081 L 162 1081 L 162 1264 C 162 1352 184 1416 229 1456 C 274 1496 336 1516 414 1516 L 473 1516 L 473 1382 L 428 1382 C 392 1382 365 1372 345 1354 C 325 1336 315 1305 315 1262 L 315 1081 L 473 1081 L 473 950 L 315 950 L 315 0 L 162 0 L 162 950 Z M 1087 1081 L 1239 1081 L 1239 0 L 1087 0 L 1087 1081 Z M 1085 1464 L 1241 1464 L 1241 1282 L 1085 1282 L 1085 1464 Z" unicode="ﬃ" />
<glyph horiz-adv-x="1358" d="M 639 950 L 504 950 L 504 1081 L 639 1081 L 639 1264 C 639 1352 661 1416 706 1456 C 751 1496 813 1516 891 1516 L 948 1516 L 948 1382 L 905 1382 C 870 1382 843 1372 823 1354 C 803 1336 793 1305 793 1262 L 793 1081 L 942 1081 L 942 950 L 793 950 L 793 0 L 639 0 L 639 950 Z M 162 950 L 33 950 L 33 1081 L 162 1081 L 162 1264 C 162 1352 184 1416 229 1456 C 274 1496 336 1516 414 1516 L 473 1516 L 473 1382 L 428 1382 C 392 1382 365 1372 345 1354 C 325 1336 315 1305 315 1262 L 315 1081 L 473 1081 L 473 950 L 315 950 L 315 0 L 162 0 L 162 950 Z M 1087 1516 L 1239 1516 L 1239 0 L 1087 0 L 1087 1516 Z" unicode="ﬄ" />
<glyph horiz-adv-x="430" d="" unicode="̦" />
<glyph horiz-adv-x="856" d="M 109 1081 L 260 1081 L 260 283 C 260 227 268 185 284 157 C 300 129 329 115 373 115 C 391 115 411 119 431 127 C 451 135 471 146 491 159 C 510 171 528 185 546 201 C 564 216 580 231 594 246 L 594 1081 L 748 1081 L 748 0 L 594 0 L 594 133 C 582 119 567 104 551 88 C 534 72 515 58 495 44 C 475 30 453 19 430 10 C 407 0 383 -4 358 -6 C 338 -7 320 -5 302 0 C 284 4 270 15 260 33 L 260 -410 L 109 -410 L 109 1081 Z" unicode="μ" />
<glyph horiz-adv-x="860" d="" unicode="√" />
<glyph horiz-adv-x="821" d="M 354 858 L 66 838 L 66 987 L 354 965 L 328 1516 L 492 1516 L 467 965 L 754 987 L 754 838 L 467 858 L 492 -410 L 328 -410 L 354 858 Z" unicode="†" />
<glyph horiz-adv-x="819" d="M 352 74 L 74 51 L 74 199 L 352 178 L 332 557 L 352 930 L 74 909 L 74 1057 L 352 1034 L 328 1516 L 492 1516 L 465 1034 L 745 1057 L 745 909 L 465 930 L 485 557 L 465 178 L 745 199 L 745 51 L 465 74 L 492 -410 L 328 -410 L 352 74 Z" unicode="‡" />
<glyph horiz-adv-x="948" d="M 473 479 C 439 479 407 485 378 497 C 349 509 324 525 303 546 C 282 567 266 592 254 622 C 242 651 236 683 236 717 C 236 751 242 783 254 813 C 266 842 282 867 303 888 C 324 909 349 926 378 938 C 407 950 439 956 473 956 C 507 956 539 950 569 938 C 598 926 623 909 645 888 C 666 867 683 842 695 813 C 707 783 713 751 713 717 C 713 683 707 651 695 622 C 683 592 666 567 645 546 C 623 525 598 509 569 497 C 539 485 507 479 473 479 Z" unicode="•" />
<glyph horiz-adv-x="1272" d="M 965 209 L 1147 209 L 1147 0 L 965 0 L 965 209 Z M 545 209 L 727 209 L 727 0 L 545 0 L 545 209 Z M 123 209 L 307 209 L 307 0 L 123 0 L 123 209 Z" unicode="…" />
<glyph horiz-adv-x="989" d="" unicode="◊" />
<glyph horiz-adv-x="1597" d="" unicode="" />
<glyph horiz-adv-x="1343" d="" unicode="Ẁ" />
<glyph horiz-adv-x="1087" d="" unicode="ẁ" />
<glyph horiz-adv-x="1343" d="" unicode="Ẃ" />
<glyph horiz-adv-x="1087" d="" unicode="ẃ" />
<glyph horiz-adv-x="1343" d="" unicode="Ẅ" />
<glyph horiz-adv-x="1087" d="" unicode="ẅ" />
<glyph horiz-adv-x="1145" d="" unicode="℗" />
<glyph horiz-adv-x="2034" d="M 334 643 C 286 643 245 653 213 675 C 180 697 154 727 134 766 C 114 805 99 851 91 905 C 82 959 78 1018 78 1083 C 78 1151 83 1212 93 1268 C 103 1324 118 1371 139 1411 C 160 1450 187 1480 220 1502 C 253 1523 292 1534 338 1534 C 382 1534 420 1523 452 1502 C 484 1481 510 1451 530 1412 C 550 1373 564 1326 574 1272 C 583 1217 588 1156 588 1090 C 588 1026 583 966 574 912 C 565 857 551 810 531 770 C 511 730 484 699 452 677 C 420 654 380 643 334 643 Z M 969 1516 L 1104 1516 L 471 0 L 334 0 L 969 1516 Z M 1698 -16 C 1650 -16 1610 -5 1578 16 C 1546 38 1520 68 1500 107 C 1480 146 1465 193 1457 247 C 1448 301 1444 360 1444 424 C 1444 492 1448 554 1458 610 C 1468 665 1483 712 1504 751 C 1525 790 1552 820 1584 842 C 1616 863 1654 874 1700 874 C 1745 874 1784 863 1816 842 C 1848 821 1875 791 1895 753 C 1915 715 1930 668 1940 614 C 1949 559 1954 498 1954 432 C 1954 368 1949 308 1940 254 C 1930 199 1915 152 1895 112 C 1875 72 1848 40 1816 18 C 1784 -4 1744 -16 1698 -16 Z M 1104 -16 C 1056 -16 1016 -5 984 16 C 952 38 926 68 906 107 C 886 146 871 193 863 247 C 854 301 850 360 850 424 C 850 492 854 554 864 610 C 874 665 889 712 910 751 C 930 790 957 820 989 842 C 1021 863 1059 874 1104 874 C 1150 874 1189 863 1221 842 C 1253 821 1280 791 1300 753 C 1320 715 1334 668 1344 614 C 1353 559 1358 498 1358 432 C 1358 368 1353 308 1344 254 C 1335 199 1321 152 1301 112 C 1281 72 1254 40 1222 18 C 1190 -4 1150 -16 1104 -16 Z M 336 762 C 358 762 376 770 391 786 C 405 802 417 825 425 854 C 433 882 439 916 443 956 C 447 996 449 1039 449 1087 C 449 1137 447 1182 443 1222 C 439 1262 433 1296 424 1324 C 415 1352 403 1373 389 1388 C 374 1403 356 1411 334 1411 C 311 1411 292 1403 278 1387 C 263 1371 251 1349 243 1321 C 234 1293 228 1259 224 1220 C 220 1181 219 1138 219 1092 C 219 1041 220 995 224 955 C 228 914 234 879 243 851 C 252 822 264 800 279 785 C 294 769 313 762 336 762 Z M 1700 102 C 1722 102 1741 110 1756 126 C 1770 142 1782 165 1791 194 C 1799 223 1805 257 1809 297 C 1813 337 1815 380 1815 428 C 1815 479 1813 525 1809 565 C 1805 605 1799 640 1790 668 C 1781 696 1769 717 1754 732 C 1739 746 1720 754 1698 754 C 1675 754 1656 746 1642 730 C 1627 714 1615 692 1607 664 C 1598 635 1592 601 1588 562 C 1584 522 1583 479 1583 432 C 1583 381 1584 335 1588 295 C 1592 254 1598 219 1607 191 C 1616 162 1628 140 1643 125 C 1658 109 1677 102 1700 102 Z M 1104 102 C 1126 102 1145 110 1160 126 C 1175 142 1187 165 1196 194 C 1205 223 1211 257 1215 297 C 1219 337 1221 380 1221 428 C 1221 479 1219 525 1215 565 C 1211 605 1204 640 1195 668 C 1185 696 1173 717 1158 732 C 1143 746 1124 754 1102 754 C 1079 754 1060 746 1046 730 C 1031 714 1019 692 1011 664 C 1002 635 996 601 992 562 C 988 522 987 479 987 432 C 987 381 988 335 992 295 C 996 254 1002 219 1011 191 C 1020 162 1032 140 1047 125 C 1062 109 1081 102 1104 102 Z" unicode="‰" />
<glyph horiz-adv-x="1253" d="M 567 1516 L 705 1516 L 862 815 L 1020 1516 L 1157 1516 L 1157 621 L 1049 621 L 1049 1229 L 909 621 L 811 621 L 672 1231 L 672 621 L 567 621 L 567 1516 Z M 209 1401 L 39 1401 L 39 1516 L 498 1516 L 498 1401 L 328 1401 L 328 621 L 209 621 L 209 1401 Z" unicode="™" />
<glyph horiz-adv-x="369" d="" unicode="′" />
<glyph horiz-adv-x="860" d="" unicode="Ỳ" />
<glyph horiz-adv-x="772" d="" unicode="ỳ" />
<glyph horiz-adv-x="655" d="" unicode="″" />
<glyph horiz-adv-x="860" d="" unicode="✓" />
<glyph horiz-adv-x="449" d="M 39 541 L 236 1077 L 383 1077 L 190 541 L 383 0 L 236 0 L 39 541 Z" unicode="‹" />
<glyph horiz-adv-x="449" d="M 256 541 L 68 1077 L 213 1077 L 410 541 L 213 0 L 68 0 L 256 541 Z" unicode="›" />
</font>
</defs>
</svg>
