<?xml version="1.0" standalone="yes"?><svg version="1.1" xmlns = 'http://www.w3.org/2000/svg'><defs><font id='web' horiz-adv-x="1000">
<font-face font-family="web" descent="-418" cap-height="1516" units-per-em="2048" bbox="-258,-508,2697,1979" x-height="1081" ascent="1520" />
<missing-glyph horiz-adv-x="1024" d="" /><glyph horiz-adv-x="1024" d="" unicode=" " />
<glyph horiz-adv-x="2048" d="" unicode=" " />
<glyph horiz-adv-x="1331" d="" unicode=" " />
<glyph horiz-adv-x="2662" d="" unicode=" " />
<glyph horiz-adv-x="410" d="" unicode=" " />
<glyph horiz-adv-x="1331" d="" unicode="‒" />
<glyph horiz-adv-x="1321" d="M 100 565 L 127 719 L 1182 719 L 1155 565 L 100 565 Z" unicode="–" />
<glyph horiz-adv-x="1884" d="M 100 563 L 127 719 L 1745 719 L 1718 563 L 100 563 Z" unicode="—" />
<glyph horiz-adv-x="2048" d="" unicode="―" />
<glyph horiz-adv-x="555" d="M 233 1087 L 268 1284 L 414 1516 L 496 1516 L 401 1303 L 475 1303 L 438 1087 L 233 1087 Z" unicode="‘" />
<glyph horiz-adv-x="555" d="M 252 1087 L 346 1300 L 272 1300 L 309 1516 L 512 1516 L 479 1319 L 332 1087 L 252 1087 Z" unicode="’" />
<glyph horiz-adv-x="555" d="M 23 -215 L 117 0 L 43 0 L 80 215 L 285 215 L 250 18 L 104 -215 L 23 -215 Z" unicode="‚" />
<glyph horiz-adv-x="938" d="M 616 1087 L 651 1284 L 797 1516 L 879 1516 L 784 1303 L 858 1303 L 819 1087 L 616 1087 Z M 233 1087 L 268 1284 L 414 1516 L 496 1516 L 401 1303 L 475 1303 L 438 1087 L 233 1087 Z" unicode="“" />
<glyph horiz-adv-x="938" d="M 633 1087 L 727 1300 L 653 1300 L 692 1516 L 895 1516 L 860 1319 L 715 1087 L 633 1087 Z M 252 1087 L 346 1300 L 272 1300 L 309 1516 L 512 1516 L 479 1319 L 332 1087 L 252 1087 Z" unicode="”" />
<glyph horiz-adv-x="938" d="M 406 -215 L 500 0 L 426 0 L 463 215 L 668 215 L 633 18 L 485 -215 L 406 -215 Z M 23 -215 L 117 0 L 43 0 L 80 215 L 285 215 L 250 18 L 104 -215 L 23 -215 Z" unicode="„" />
<glyph horiz-adv-x="479" d="" unicode=" " />
<glyph horiz-adv-x="664" d="M 131 211 L 340 211 L 303 0 L 94 0 L 131 211 Z M 356 1516 L 573 1516 L 330 426 L 217 426 L 356 1516 Z" unicode="!" />
<glyph horiz-adv-x="850" d="M 600 995 L 635 1397 L 655 1516 L 821 1516 L 801 1397 L 696 995 L 600 995 Z M 240 995 L 274 1397 L 295 1516 L 461 1516 L 440 1397 L 336 995 L 240 995 Z" unicode="&#x22;" />
<glyph horiz-adv-x="1470" d="M 201 0 L 291 434 L 55 434 L 55 573 L 319 573 L 397 944 L 143 944 L 143 1083 L 426 1083 L 518 1516 L 678 1516 L 588 1083 L 950 1083 L 1042 1516 L 1202 1516 L 1112 1083 L 1358 1083 L 1358 944 L 1083 944 L 1006 573 L 1270 573 L 1270 434 L 977 434 L 885 0 L 725 0 L 815 434 L 453 434 L 360 0 L 201 0 Z M 481 573 L 844 573 L 922 944 L 559 944 L 481 573 Z" unicode="#" />
<glyph horiz-adv-x="1319" d="M 586 -14 L 555 -190 L 430 -190 L 461 -4 C 405 4 354 19 310 39 C 265 59 225 83 189 112 C 153 140 122 173 96 210 C 70 246 47 286 29 328 L 178 393 C 188 371 201 347 217 321 C 233 295 254 270 280 246 C 305 222 335 200 370 181 C 405 161 446 147 492 139 L 596 725 C 549 743 503 763 459 785 C 414 807 374 832 339 861 C 304 890 276 924 255 964 C 233 1003 223 1050 223 1104 C 223 1160 230 1210 246 1253 C 262 1296 283 1333 309 1365 C 335 1397 365 1423 399 1444 C 433 1465 468 1482 504 1495 C 540 1507 575 1516 611 1522 C 647 1527 679 1530 709 1530 L 731 1530 L 758 1677 L 883 1677 L 854 1518 C 1036 1484 1159 1385 1221 1219 L 1065 1163 C 1055 1189 1043 1213 1029 1235 C 1015 1257 998 1277 979 1295 C 959 1312 937 1327 911 1339 C 885 1351 856 1361 823 1368 L 731 846 C 780 826 829 804 877 782 C 925 759 969 732 1008 700 C 1046 668 1077 630 1101 586 C 1125 542 1137 490 1137 428 C 1137 365 1127 310 1109 264 C 1091 218 1067 178 1037 146 C 1007 113 972 86 934 66 C 895 45 856 29 816 17 C 776 5 736 -3 698 -7 C 660 -11 626 -14 596 -14 L 586 -14 Z M 965 412 C 965 446 958 477 944 504 C 930 530 911 554 887 576 C 863 597 836 616 804 633 C 772 650 738 666 702 682 L 606 131 C 724 133 814 157 874 203 C 934 249 965 318 965 412 Z M 688 1382 C 640 1382 598 1375 562 1363 C 525 1350 494 1333 470 1311 C 445 1289 426 1263 414 1233 C 401 1203 395 1170 395 1135 C 395 1105 401 1078 413 1054 C 425 1030 441 1008 462 989 C 482 969 507 952 535 936 C 563 920 593 905 625 891 L 711 1382 L 688 1382 Z" unicode="$" />
<glyph horiz-adv-x="2013" d="M 346 0 L 1501 1516 L 1667 1516 L 512 0 L 346 0 Z M 1440 113 C 1478 113 1512 125 1543 150 C 1574 174 1601 207 1623 248 C 1645 289 1663 336 1675 389 C 1687 442 1694 497 1694 553 C 1694 585 1691 615 1685 642 C 1679 668 1669 691 1657 710 C 1644 729 1628 744 1608 754 C 1588 764 1564 770 1536 770 C 1498 770 1463 757 1432 733 C 1400 708 1373 675 1351 635 C 1328 594 1310 547 1298 495 C 1286 442 1280 388 1280 332 C 1280 299 1283 269 1289 242 C 1295 215 1305 192 1319 173 C 1332 154 1349 139 1369 129 C 1389 118 1412 113 1440 113 Z M 1432 -20 C 1380 -20 1334 -11 1296 7 C 1257 25 1225 49 1199 81 C 1173 113 1154 150 1142 194 C 1130 237 1124 284 1124 336 C 1124 428 1136 509 1160 580 C 1184 651 1216 711 1256 759 C 1296 807 1341 843 1392 868 C 1442 892 1494 905 1546 905 C 1598 905 1643 896 1681 878 C 1719 860 1750 836 1775 804 C 1800 772 1819 735 1831 691 C 1843 647 1849 598 1849 545 C 1849 457 1837 379 1815 309 C 1792 239 1761 180 1723 132 C 1685 83 1640 45 1590 19 C 1540 -6 1487 -20 1432 -20 Z M 479 748 C 517 748 551 760 583 785 C 614 809 641 842 664 883 C 686 923 704 970 716 1023 C 728 1076 735 1131 735 1188 C 735 1220 732 1249 726 1276 C 720 1302 710 1325 697 1344 C 684 1363 667 1378 647 1389 C 627 1399 603 1405 575 1405 C 537 1405 503 1392 472 1368 C 440 1343 413 1310 391 1269 C 368 1228 350 1181 338 1128 C 325 1075 319 1021 319 965 C 319 932 322 902 329 876 C 335 849 345 826 358 807 C 371 788 388 773 408 763 C 428 753 451 748 479 748 Z M 471 614 C 419 614 373 622 335 640 C 296 658 264 682 239 714 C 213 746 194 783 182 827 C 170 871 164 919 164 971 C 164 1063 176 1144 200 1215 C 224 1285 256 1344 296 1392 C 336 1440 381 1476 432 1501 C 482 1525 534 1538 586 1538 C 638 1538 683 1529 721 1511 C 759 1493 790 1469 816 1437 C 841 1405 860 1368 872 1324 C 884 1280 891 1231 891 1178 C 891 1090 879 1012 856 942 C 833 872 802 813 764 765 C 725 716 680 679 630 653 C 579 627 526 614 471 614 Z" unicode="%" />
<glyph horiz-adv-x="1464" d="M 506 -29 C 418 -29 342 -19 278 1 C 214 21 162 48 121 83 C 79 118 49 159 29 206 C 9 252 0 302 0 356 C 0 430 12 493 36 547 C 60 600 93 646 133 684 C 173 722 220 755 272 782 C 324 809 378 834 434 856 C 418 901 407 946 400 991 C 392 1035 389 1080 389 1124 C 389 1184 398 1240 416 1292 C 434 1344 461 1388 495 1425 C 529 1462 570 1491 619 1512 C 667 1533 722 1544 782 1544 C 839 1544 888 1536 928 1520 C 968 1504 1001 1484 1026 1458 C 1051 1432 1069 1403 1081 1370 C 1092 1336 1098 1302 1098 1266 C 1098 1196 1084 1137 1058 1089 C 1032 1040 997 998 954 962 C 911 926 862 896 807 871 C 752 845 696 821 639 799 C 663 739 696 679 737 618 C 778 554 815 499 848 451 C 881 403 913 362 944 326 C 972 358 997 391 1020 427 C 1042 463 1063 499 1081 537 C 1099 575 1115 613 1129 651 C 1143 689 1155 726 1165 762 L 1325 762 C 1313 716 1298 669 1280 622 C 1262 574 1242 527 1219 481 C 1196 435 1170 390 1142 346 C 1113 302 1081 261 1047 223 C 1084 193 1124 172 1166 158 C 1208 144 1257 137 1313 137 L 1284 -20 C 1249 -20 1216 -17 1184 -13 C 1152 -9 1122 -1 1092 8 C 1062 18 1033 32 1005 49 C 977 65 948 86 920 111 C 862 67 798 33 730 8 C 662 -16 587 -29 506 -29 Z M 590 537 C 568 571 548 604 530 636 C 512 668 495 701 481 733 C 439 714 400 694 364 672 C 327 650 295 626 268 598 C 240 570 219 537 203 501 C 187 465 180 423 180 377 C 180 339 186 305 199 274 C 211 242 231 215 258 193 C 285 170 320 152 362 140 C 404 127 454 121 512 121 C 572 121 628 129 678 145 C 728 161 775 184 819 213 C 784 254 748 301 710 354 C 672 406 632 467 590 537 Z M 936 1257 C 936 1275 933 1292 928 1310 C 923 1327 915 1342 903 1356 C 891 1369 875 1380 855 1388 C 835 1396 810 1401 780 1401 C 712 1401 658 1377 620 1330 C 582 1283 563 1216 563 1128 C 563 1095 565 1061 571 1026 C 576 990 584 954 596 918 C 642 936 685 954 726 974 C 767 994 803 1017 834 1043 C 865 1069 890 1100 908 1134 C 926 1168 936 1209 936 1257 Z" unicode="&#x26;" />
<glyph horiz-adv-x="489" d="M 240 995 L 274 1397 L 295 1516 L 461 1516 L 440 1397 L 336 995 L 240 995 Z" unicode="'" />
<glyph horiz-adv-x="817" d="M 428 -416 C 312 -298 223 -171 163 -35 C 102 101 72 246 72 401 C 72 524 87 638 119 743 C 151 848 197 947 257 1039 C 317 1131 390 1219 477 1302 C 564 1384 663 1465 774 1544 L 840 1452 C 754 1386 676 1314 605 1236 C 533 1157 472 1073 421 983 C 370 893 330 798 302 698 C 274 598 260 493 260 385 C 260 315 266 246 278 180 C 290 114 308 50 331 -11 C 354 -72 382 -130 415 -185 C 447 -240 484 -291 526 -338 L 428 -416 Z" unicode="(" />
<glyph horiz-adv-x="817" d="M -94 -330 C -8 -264 69 -191 141 -112 C 213 -33 275 51 327 142 C 379 232 419 328 448 428 C 477 528 492 633 492 743 C 492 812 485 879 473 945 C 461 1011 443 1074 421 1135 C 398 1195 370 1253 337 1307 C 304 1361 267 1412 227 1460 L 322 1542 C 439 1424 528 1298 589 1162 C 649 1026 680 882 680 729 C 680 605 664 491 632 386 C 600 280 553 181 493 89 C 433 -3 359 -91 272 -175 C 184 -258 85 -339 -25 -418 L -94 -330 Z" unicode=")" />
<glyph horiz-adv-x="1040" d="M 670 684 L 569 1038 L 354 737 L 252 825 L 514 1087 L 145 1126 L 166 1251 L 526 1161 L 371 1497 L 496 1542 L 594 1188 L 811 1489 L 913 1401 L 651 1139 L 1020 1100 L 997 975 L 639 1063 L 795 729 L 670 684 Z" unicode="*" />
<glyph horiz-adv-x="1307" d="M 565 158 L 565 608 L 121 608 L 121 756 L 565 756 L 565 1206 L 715 1206 L 715 756 L 1159 756 L 1159 608 L 715 608 L 715 158 L 565 158 Z" unicode="+" />
<glyph horiz-adv-x="555" d="M 27 -215 L 121 0 L 41 0 L 78 215 L 287 215 L 254 25 L 109 -215 L 27 -215 Z" unicode="," />
<glyph horiz-adv-x="731" d="M 96 573 L 123 713 L 598 713 L 571 573 L 96 573 Z" unicode="-" />
<glyph horiz-adv-x="555" d="M 41 0 L 78 215 L 287 215 L 250 0 L 41 0 Z" unicode="." />
<glyph horiz-adv-x="1163" d="M -86 0 L 1061 1516 L 1249 1516 L 102 0 L -86 0 Z" unicode="/" />
<glyph horiz-adv-x="1333" d="M 578 129 C 631 129 680 139 726 161 C 771 182 812 212 848 250 C 884 288 916 333 944 385 C 972 437 995 494 1014 556 C 1033 617 1047 682 1057 751 C 1066 819 1071 889 1071 961 C 1071 1097 1044 1201 991 1275 C 938 1349 860 1386 758 1386 C 704 1386 655 1375 610 1354 C 565 1333 524 1304 488 1267 C 451 1229 419 1185 391 1134 C 363 1082 339 1026 321 965 C 302 904 288 839 278 771 C 268 703 264 633 264 563 C 264 425 290 318 343 242 C 396 166 474 129 578 129 Z M 569 -29 C 486 -29 414 -14 354 15 C 294 44 244 85 204 138 C 164 191 135 254 116 327 C 97 399 88 479 88 567 C 88 656 95 742 109 825 C 123 908 144 986 171 1059 C 198 1131 231 1197 271 1257 C 310 1316 355 1367 405 1410 C 455 1452 511 1485 572 1509 C 632 1532 698 1544 768 1544 C 850 1544 922 1529 982 1501 C 1042 1472 1092 1432 1132 1380 C 1171 1328 1200 1265 1220 1193 C 1239 1121 1249 1041 1249 954 C 1249 865 1241 779 1227 696 C 1213 612 1192 534 1165 462 C 1138 389 1105 322 1066 262 C 1026 202 981 150 931 107 C 881 63 825 30 764 6 C 703 -17 638 -29 569 -29 Z" unicode="0" />
<glyph horiz-adv-x="895" d="M -20 0 L 8 160 L 291 160 L 496 1327 C 476 1317 453 1307 429 1299 C 404 1291 379 1283 353 1277 C 327 1271 302 1266 276 1262 C 250 1258 227 1257 205 1257 L 233 1417 C 291 1419 347 1428 400 1444 C 453 1460 499 1484 539 1516 L 705 1516 L 467 160 L 721 160 L 692 0 L -20 0 Z" unicode="1" />
<glyph horiz-adv-x="1192" d="M -43 0 L -39 33 C -27 126 -3 206 31 274 C 65 342 107 401 156 451 C 205 501 259 545 318 581 C 376 617 435 651 495 682 C 554 712 611 742 667 771 C 723 800 772 832 815 868 C 858 903 893 943 919 989 C 945 1034 958 1089 958 1153 C 958 1187 953 1218 943 1246 C 933 1274 917 1298 896 1319 C 875 1339 848 1355 815 1367 C 781 1378 742 1384 696 1384 C 663 1384 631 1380 599 1373 C 567 1366 536 1354 505 1338 C 473 1321 442 1299 411 1271 C 380 1243 349 1208 317 1167 L 193 1260 C 230 1310 269 1354 310 1390 C 351 1426 393 1455 437 1478 C 481 1501 526 1518 572 1528 C 618 1538 665 1544 713 1544 C 784 1544 846 1534 900 1515 C 953 1495 997 1469 1032 1436 C 1067 1402 1093 1363 1111 1318 C 1128 1273 1137 1225 1137 1174 C 1137 1100 1124 1035 1099 979 C 1074 923 1041 874 999 831 C 957 787 910 749 856 715 C 802 681 747 648 689 618 C 631 587 574 557 518 527 C 461 497 409 464 361 429 C 313 394 273 355 239 311 C 205 267 182 217 170 160 L 967 160 L 938 0 L -43 0 Z" unicode="2" />
<glyph horiz-adv-x="1202" d="M 492 -29 C 420 -29 355 -21 298 -7 C 241 7 191 28 148 56 C 104 83 67 116 35 154 C 3 192 -23 235 -45 283 L 106 358 C 144 278 194 220 258 184 C 322 148 400 131 492 131 C 545 131 594 137 638 149 C 682 161 721 180 753 207 C 785 234 809 269 827 311 C 845 353 854 405 854 467 C 854 509 847 547 833 580 C 819 612 796 639 765 661 C 733 683 692 699 642 710 C 592 721 530 727 457 727 L 401 727 L 426 879 L 492 879 C 576 879 647 885 705 897 C 763 909 811 928 847 953 C 883 978 910 1009 926 1046 C 942 1083 950 1126 950 1176 C 950 1208 945 1236 935 1262 C 925 1288 909 1310 887 1328 C 864 1346 834 1359 798 1369 C 762 1379 717 1384 664 1384 C 636 1384 607 1381 578 1377 C 548 1373 519 1365 489 1354 C 459 1343 430 1328 401 1310 C 371 1292 343 1269 315 1241 L 213 1352 C 271 1411 340 1458 420 1492 C 499 1526 587 1544 684 1544 C 766 1544 836 1534 893 1516 C 950 1497 996 1472 1032 1441 C 1067 1409 1093 1373 1109 1331 C 1125 1289 1133 1246 1133 1200 C 1133 1140 1124 1088 1106 1043 C 1088 997 1063 958 1031 925 C 999 892 962 865 919 845 C 875 824 828 809 778 799 C 822 789 860 774 892 754 C 924 734 951 709 973 680 C 994 651 1010 618 1020 581 C 1030 543 1036 503 1036 461 C 1036 380 1022 309 994 248 C 966 187 927 136 878 95 C 829 54 771 23 705 2 C 639 -18 568 -29 492 -29 Z" unicode="3" />
<glyph horiz-adv-x="1243" d="M 641 0 L 702 350 L -8 350 L 14 487 L 870 1516 L 1075 1516 L 899 508 L 1155 508 L 1128 350 L 872 350 L 809 0 L 641 0 Z M 219 508 L 729 508 L 868 1298 L 864 1298 L 219 508 Z" unicode="4" />
<glyph horiz-adv-x="1182" d="M 496 -29 C 420 -29 354 -21 298 -6 C 242 8 193 28 151 54 C 109 80 74 110 45 144 C 16 178 -8 214 -29 252 L 115 344 C 131 314 149 285 171 259 C 193 233 219 210 250 191 C 281 171 317 156 358 145 C 398 134 446 129 500 129 C 560 129 613 139 661 161 C 709 182 749 212 782 250 C 815 288 840 334 858 387 C 876 439 885 497 885 561 C 885 605 878 645 866 681 C 853 717 834 747 809 772 C 784 797 753 816 717 830 C 680 843 638 850 590 850 C 523 850 462 834 407 802 C 351 770 303 728 262 674 L 141 721 L 338 1516 L 1143 1516 L 1102 1356 L 459 1356 L 334 870 C 350 887 368 904 389 920 C 409 936 432 950 458 962 C 484 974 511 983 541 990 C 571 997 603 1001 637 1001 C 704 1001 764 990 817 970 C 870 950 915 921 952 884 C 988 846 1016 801 1036 747 C 1055 693 1065 633 1065 567 C 1065 469 1049 382 1018 308 C 986 234 944 172 892 122 C 839 72 778 34 710 9 C 641 -16 570 -29 496 -29 Z" unicode="5" />
<glyph horiz-adv-x="1247" d="M 563 -29 C 488 -29 421 -16 362 9 C 302 34 252 71 211 120 C 170 169 139 230 117 302 C 95 374 84 456 84 549 C 84 647 92 740 109 828 C 126 916 150 997 181 1071 C 212 1145 249 1211 292 1269 C 335 1327 382 1377 434 1418 C 486 1458 541 1489 599 1511 C 657 1533 718 1544 780 1544 C 876 1544 957 1533 1025 1512 C 1092 1490 1144 1464 1182 1434 L 1087 1298 C 1068 1311 1048 1323 1027 1335 C 1006 1346 983 1356 959 1364 C 934 1372 907 1378 878 1382 C 848 1386 816 1389 780 1389 C 721 1389 664 1375 609 1347 C 554 1319 504 1278 458 1224 C 412 1170 373 1105 341 1028 C 308 950 284 862 270 764 C 289 782 313 803 342 825 C 370 847 403 868 440 887 C 476 906 517 922 562 935 C 606 947 655 954 707 954 C 777 954 839 944 891 924 C 943 904 987 876 1021 841 C 1055 805 1080 763 1097 715 C 1113 666 1122 613 1122 555 C 1122 463 1107 380 1078 308 C 1048 236 1008 175 958 125 C 907 75 848 36 780 10 C 712 -15 639 -29 563 -29 Z M 254 543 C 254 467 262 402 279 349 C 295 296 318 253 347 220 C 375 186 409 162 448 147 C 487 132 529 125 575 125 C 626 125 674 133 719 150 C 764 167 803 193 837 228 C 871 262 897 305 917 357 C 936 409 946 469 946 539 C 946 577 941 612 931 644 C 921 676 904 703 882 727 C 860 751 830 769 794 783 C 757 796 712 803 659 803 C 614 803 572 797 533 785 C 493 773 457 758 423 740 C 389 721 358 700 330 678 C 302 655 276 632 254 610 L 254 543 Z" unicode="6" />
<glyph horiz-adv-x="1100" d="M 94 0 L 944 1354 L 195 1354 L 223 1516 L 1157 1516 L 1133 1366 L 279 0 L 94 0 Z" unicode="7" />
<glyph horiz-adv-x="1255" d="M 553 -29 C 461 -29 380 -18 312 3 C 244 25 187 54 142 90 C 97 126 63 167 41 214 C 19 261 8 310 8 362 C 8 422 20 476 44 523 C 68 569 100 611 142 647 C 184 683 233 715 289 742 C 345 768 405 792 469 813 C 435 833 403 855 373 878 C 343 901 316 926 294 953 C 272 980 254 1010 241 1043 C 227 1075 221 1111 221 1151 C 221 1207 233 1260 259 1308 C 284 1356 319 1397 363 1432 C 407 1467 459 1494 519 1514 C 579 1534 643 1544 713 1544 C 797 1544 870 1533 930 1512 C 990 1491 1039 1464 1078 1430 C 1116 1396 1145 1357 1163 1315 C 1181 1272 1190 1229 1190 1186 C 1190 1127 1178 1077 1156 1035 C 1133 993 1103 956 1067 926 C 1031 896 990 870 945 850 C 900 830 855 812 811 797 C 851 774 889 750 927 724 C 964 698 997 670 1025 638 C 1053 606 1076 571 1094 533 C 1111 494 1120 451 1120 403 C 1120 335 1105 275 1077 221 C 1048 167 1008 122 958 85 C 907 48 847 20 778 0 C 708 -19 633 -29 553 -29 Z M 190 373 C 190 337 198 304 214 273 C 230 242 254 215 285 192 C 316 169 354 151 400 137 C 445 123 497 117 555 117 C 605 117 653 122 699 134 C 745 146 787 163 823 187 C 859 211 887 240 909 276 C 931 312 942 353 942 401 C 942 441 932 476 913 508 C 894 540 869 569 838 595 C 807 621 772 645 732 668 C 692 690 650 713 608 735 C 544 715 487 693 435 670 C 383 647 339 621 303 592 C 267 563 239 531 219 495 C 199 459 190 418 190 373 Z M 1014 1178 C 1014 1204 1008 1231 997 1257 C 986 1283 969 1307 945 1328 C 921 1349 889 1366 851 1379 C 812 1392 765 1399 709 1399 C 661 1399 618 1392 580 1380 C 541 1367 508 1350 481 1329 C 453 1307 432 1282 417 1253 C 402 1224 395 1193 395 1161 C 395 1127 402 1096 417 1069 C 432 1042 452 1017 478 994 C 503 970 533 948 567 928 C 601 908 636 888 674 868 C 729 887 778 907 820 928 C 862 948 898 971 927 995 C 955 1019 977 1046 992 1076 C 1006 1106 1014 1140 1014 1178 Z" unicode="8" />
<glyph horiz-adv-x="1247" d="M 471 -29 C 375 -29 294 -18 226 3 C 158 24 103 52 61 86 L 164 217 C 198 190 240 168 288 152 C 336 135 397 127 471 127 C 529 127 586 141 642 169 C 697 197 747 237 793 291 C 838 345 877 411 910 489 C 943 567 967 656 981 756 C 961 736 937 715 909 693 C 880 670 847 649 810 630 C 773 610 732 594 688 582 C 644 569 596 563 545 563 C 473 563 411 573 359 593 C 307 613 264 640 230 676 C 196 711 170 753 154 802 C 137 851 129 905 129 963 C 129 1054 143 1136 173 1208 C 202 1280 242 1340 293 1390 C 343 1440 403 1478 471 1504 C 539 1530 611 1544 688 1544 C 762 1544 829 1531 889 1506 C 948 1480 998 1443 1039 1395 C 1080 1346 1112 1286 1134 1215 C 1156 1143 1167 1061 1167 969 C 1167 869 1158 776 1141 688 C 1124 600 1100 519 1070 445 C 1039 371 1002 304 960 246 C 917 188 870 138 819 97 C 767 56 712 25 653 3 C 594 -18 533 -29 471 -29 Z M 997 973 C 997 1048 988 1112 972 1165 C 955 1217 932 1260 904 1294 C 875 1327 841 1351 802 1366 C 762 1381 720 1389 676 1389 C 624 1389 576 1380 531 1363 C 486 1346 447 1321 413 1287 C 379 1253 353 1210 334 1159 C 314 1107 305 1047 305 979 C 305 940 309 904 319 872 C 329 840 345 812 367 789 C 389 765 419 747 455 734 C 491 721 535 715 588 715 C 633 715 675 720 715 732 C 755 744 792 759 826 777 C 860 795 891 816 919 839 C 947 862 972 885 995 909 C 996 919 997 930 997 940 C 997 950 997 961 997 973 Z" unicode="9" />
<glyph horiz-adv-x="563" d="M 197 866 L 236 1081 L 444 1081 L 406 866 L 197 866 Z M 45 0 L 82 215 L 291 215 L 254 0 L 45 0 Z" unicode=":" />
<glyph horiz-adv-x="563" d="M 197 866 L 236 1081 L 444 1081 L 406 866 L 197 866 Z M 31 -215 L 123 0 L 45 0 L 82 215 L 291 215 L 258 27 L 111 -215 L 31 -215 Z" unicode=";" />
<glyph horiz-adv-x="1307" d="M 92 606 L 92 723 L 1176 1188 L 1176 1032 L 289 664 L 1176 297 L 1176 139 L 92 606 Z" unicode="&#x3C;" />
<glyph horiz-adv-x="1307" d="M 119 829 L 119 971 L 1153 971 L 1153 829 L 119 829 Z M 119 362 L 119 504 L 1153 504 L 1153 362 L 119 362 Z" unicode="=" />
<glyph horiz-adv-x="1307" d="M 102 139 L 102 297 L 989 664 L 102 1032 L 102 1188 L 1186 723 L 1186 606 L 102 139 Z" unicode="&#x3E;" />
<glyph horiz-adv-x="1104" d="M 260 0 L 297 211 L 506 211 L 469 0 L 260 0 Z M 369 424 C 371 463 374 497 378 527 C 382 557 387 585 393 612 C 402 652 415 687 431 716 C 447 744 468 769 492 791 C 516 813 545 833 577 851 C 609 869 646 888 688 909 C 716 923 743 937 769 952 C 795 966 817 983 837 1003 C 857 1023 872 1046 884 1074 C 895 1102 901 1136 901 1176 C 901 1206 895 1234 885 1260 C 874 1286 857 1308 835 1327 C 813 1345 784 1360 750 1370 C 715 1380 674 1386 627 1386 C 593 1386 561 1383 531 1377 C 500 1371 470 1361 441 1348 C 412 1335 384 1318 356 1298 C 328 1277 300 1252 272 1223 L 164 1327 C 230 1401 304 1456 387 1491 C 469 1526 555 1544 645 1544 C 719 1544 783 1534 838 1516 C 892 1498 938 1473 974 1441 C 1010 1409 1036 1373 1054 1331 C 1072 1289 1081 1244 1081 1198 C 1081 1134 1072 1081 1054 1039 C 1036 997 1012 961 984 932 C 955 902 922 877 886 857 C 849 836 812 816 776 797 C 740 778 710 761 685 746 C 659 731 638 716 620 701 C 602 686 588 670 576 654 C 564 637 555 618 547 597 C 539 575 533 551 528 523 C 522 495 517 462 512 424 L 369 424 Z" unicode="?" />
<glyph horiz-adv-x="1778" d="M 772 444 C 821 444 867 453 910 473 C 952 492 996 523 1042 567 L 1104 975 C 1070 1014 1035 1042 998 1059 C 960 1076 916 1085 866 1085 C 823 1085 784 1073 750 1051 C 715 1028 685 998 661 960 C 636 922 617 877 604 827 C 590 777 584 724 584 668 C 584 590 600 533 633 497 C 666 461 712 444 772 444 Z M 881 -29 C 765 -29 658 -9 562 28 C 465 66 382 120 313 189 C 243 258 189 341 151 438 C 113 534 94 641 94 758 C 94 874 113 980 153 1077 C 193 1173 248 1256 319 1325 C 389 1394 473 1448 570 1486 C 667 1524 773 1544 887 1544 C 1001 1544 1107 1525 1204 1487 C 1300 1449 1384 1397 1454 1330 C 1524 1262 1578 1182 1618 1088 C 1657 994 1677 890 1677 778 C 1677 706 1668 642 1651 586 C 1633 529 1609 481 1578 442 C 1546 402 1509 372 1466 351 C 1422 329 1375 319 1323 319 C 1254 319 1199 333 1158 362 C 1117 390 1089 427 1075 473 C 1027 429 976 393 922 367 C 868 341 807 328 739 328 C 695 328 654 334 617 348 C 580 361 548 381 522 408 C 496 435 475 469 460 510 C 445 550 438 598 438 653 C 438 731 448 805 469 873 C 490 941 519 999 557 1049 C 594 1098 638 1137 690 1165 C 742 1193 798 1208 860 1208 C 890 1208 918 1205 944 1199 C 969 1193 992 1186 1013 1176 C 1034 1166 1053 1155 1071 1142 C 1088 1128 1104 1114 1120 1098 L 1135 1190 L 1278 1190 L 1186 586 C 1178 535 1188 494 1214 462 C 1240 430 1281 414 1339 414 C 1372 414 1403 421 1433 436 C 1462 450 1488 473 1510 503 C 1532 533 1549 570 1562 616 C 1574 661 1581 714 1581 776 C 1581 876 1563 967 1529 1050 C 1494 1133 1446 1204 1385 1264 C 1323 1323 1250 1369 1165 1402 C 1080 1435 987 1452 887 1452 C 785 1452 692 1435 608 1401 C 524 1367 451 1319 390 1258 C 329 1196 282 1123 248 1038 C 214 953 197 860 197 758 C 197 655 213 561 247 476 C 281 390 328 317 388 255 C 448 193 521 146 605 112 C 689 78 781 61 883 61 C 963 61 1037 70 1103 88 C 1169 106 1232 132 1294 168 L 1337 94 C 1273 56 1202 26 1126 4 C 1049 -18 967 -29 881 -29 Z" unicode="@" />
<glyph horiz-adv-x="1372" d="M -68 0 L 729 1522 L 915 1522 L 1174 0 L 995 0 L 924 446 L 344 446 L 115 0 L -68 0 Z M 420 600 L 901 600 L 788 1305 L 784 1305 L 420 600 Z" unicode="A" />
<glyph horiz-adv-x="1395" d="M 383 852 L 727 852 C 783 852 834 856 882 866 C 929 876 970 892 1005 914 C 1039 936 1066 966 1086 1004 C 1106 1041 1116 1087 1116 1143 C 1116 1178 1109 1209 1096 1236 C 1082 1262 1061 1285 1032 1303 C 1003 1321 966 1334 921 1344 C 875 1353 821 1358 758 1358 L 471 1358 L 383 852 Z M 260 158 L 678 158 C 732 158 782 163 828 174 C 873 184 912 201 944 225 C 976 249 1002 279 1020 317 C 1038 355 1047 401 1047 455 C 1047 540 1013 602 946 642 C 879 682 781 702 651 702 L 356 702 L 260 158 Z M 55 0 L 322 1516 L 782 1516 C 954 1516 1082 1485 1168 1425 C 1253 1365 1296 1281 1296 1174 C 1296 1108 1286 1052 1266 1006 C 1246 960 1220 922 1188 892 C 1155 861 1118 837 1076 820 C 1034 802 992 789 948 780 L 948 776 C 988 768 1025 755 1059 738 C 1093 720 1122 698 1146 671 C 1170 644 1189 612 1203 576 C 1216 539 1223 497 1223 451 C 1223 375 1208 308 1180 252 C 1152 196 1113 149 1064 111 C 1014 73 956 45 889 27 C 822 9 750 0 672 0 L 55 0 Z" unicode="B" />
<glyph horiz-adv-x="1423" d="M 651 -29 C 561 -29 482 -13 414 16 C 345 46 287 89 240 145 C 192 200 156 266 132 343 C 108 420 96 506 96 600 C 96 694 105 782 123 866 C 141 949 166 1026 199 1096 C 231 1166 270 1228 315 1284 C 360 1339 410 1386 465 1425 C 519 1463 577 1493 639 1513 C 701 1533 765 1544 831 1544 C 921 1544 997 1532 1061 1509 C 1124 1486 1176 1453 1217 1411 C 1258 1369 1289 1318 1311 1258 C 1332 1198 1346 1132 1352 1059 L 1176 1044 C 1172 1099 1162 1148 1148 1190 C 1134 1232 1113 1267 1085 1295 C 1057 1323 1022 1344 978 1358 C 934 1372 881 1380 819 1380 C 746 1380 677 1361 611 1325 C 545 1289 488 1237 438 1170 C 388 1102 349 1021 320 925 C 290 829 276 721 276 602 C 276 529 284 464 301 406 C 317 348 342 298 375 258 C 407 218 447 187 495 165 C 542 143 597 133 659 133 C 711 133 758 139 802 152 C 845 165 885 186 922 215 C 959 244 993 282 1025 329 C 1056 375 1086 432 1114 500 L 1270 440 C 1209 289 1128 173 1027 92 C 925 11 800 -29 651 -29 Z" unicode="C" />
<glyph horiz-adv-x="1444" d="M 260 154 L 508 154 C 614 154 709 169 791 200 C 873 231 942 277 998 339 C 1054 400 1096 477 1125 569 C 1154 661 1169 767 1169 889 C 1169 963 1158 1030 1138 1088 C 1117 1146 1085 1196 1043 1236 C 1001 1276 947 1307 882 1328 C 816 1349 739 1360 649 1360 L 473 1360 L 260 154 Z M 55 0 L 322 1516 L 653 1516 C 767 1516 867 1502 954 1474 C 1041 1446 1114 1406 1173 1354 C 1231 1301 1275 1236 1305 1160 C 1335 1084 1350 997 1350 899 C 1350 750 1330 620 1290 508 C 1250 396 1193 302 1119 227 C 1044 151 953 95 845 57 C 737 19 615 0 479 0 L 55 0 Z" unicode="D" />
<glyph horiz-adv-x="1227" d="M 55 0 L 322 1516 L 1229 1516 L 1198 1350 L 471 1350 L 387 877 L 924 877 L 895 717 L 360 717 L 262 164 L 1032 164 L 1004 0 L 55 0 Z" unicode="E" />
<glyph horiz-adv-x="1145" d="M 55 0 L 322 1516 L 1208 1516 L 1180 1350 L 471 1350 L 385 862 L 901 862 L 872 702 L 356 702 L 233 0 L 55 0 Z" unicode="F" />
<glyph horiz-adv-x="1477" d="M 633 -29 C 543 -29 464 -13 397 18 C 330 49 275 92 231 147 C 187 202 154 267 132 342 C 110 417 100 498 100 586 C 100 688 109 782 129 869 C 148 956 175 1035 209 1106 C 243 1177 284 1240 331 1294 C 377 1348 428 1394 483 1431 C 538 1468 596 1496 657 1515 C 718 1534 780 1544 842 1544 C 924 1544 996 1533 1058 1513 C 1120 1493 1172 1463 1214 1423 C 1256 1383 1288 1334 1312 1276 C 1335 1218 1350 1151 1358 1075 L 1184 1057 C 1174 1169 1141 1251 1084 1303 C 1026 1354 941 1380 829 1380 C 783 1380 737 1372 692 1357 C 647 1342 604 1320 564 1291 C 523 1261 485 1225 451 1181 C 417 1137 387 1087 362 1029 C 336 971 316 907 302 836 C 288 764 281 686 281 602 C 281 528 289 462 306 404 C 323 346 348 296 380 256 C 412 216 452 185 500 163 C 547 141 601 131 662 131 C 718 131 771 140 820 160 C 869 180 913 209 952 247 C 990 285 1023 331 1051 386 C 1078 440 1098 503 1112 573 L 772 573 L 799 729 L 1313 729 L 1184 0 L 1028 0 L 1069 229 L 1065 229 C 1045 197 1022 165 994 134 C 966 103 935 75 899 51 C 863 27 822 7 778 -7 C 733 -21 685 -29 633 -29 Z" unicode="G" />
<glyph horiz-adv-x="1493" d="M 55 0 L 322 1516 L 500 1516 L 389 881 L 1149 881 L 1260 1516 L 1440 1516 L 1174 0 L 993 0 L 1120 715 L 360 715 L 233 0 L 55 0 Z" unicode="H" />
<glyph horiz-adv-x="594" d="M 74 0 L 340 1516 L 520 1516 L 254 0 L 74 0 Z" unicode="I" />
<glyph horiz-adv-x="1020" d="M 344 -29 C 290 -29 243 -23 203 -12 C 162 0 126 14 94 34 C 62 54 34 76 10 102 C -13 127 -36 154 -57 182 L 72 287 C 106 236 144 198 186 172 C 227 146 277 133 336 133 C 370 133 402 137 431 145 C 460 153 486 167 509 188 C 532 208 552 237 568 273 C 584 309 598 354 608 410 L 803 1516 L 981 1516 L 784 387 C 758 243 710 138 638 71 C 566 4 468 -29 344 -29 Z" unicode="J" />
<glyph horiz-adv-x="1368" d="M 999 0 L 629 819 L 328 537 L 233 0 L 55 0 L 322 1516 L 500 1516 L 365 752 L 1176 1516 L 1382 1516 L 766 938 L 1188 0 L 999 0 Z" unicode="K" />
<glyph horiz-adv-x="1145" d="M 55 0 L 322 1516 L 500 1516 L 262 164 L 969 164 L 940 0 L 55 0 Z" unicode="L" />
<glyph horiz-adv-x="1778" d="M 55 0 L 322 1516 L 555 1516 L 795 227 L 799 227 L 1487 1516 L 1724 1516 L 1458 0 L 1282 0 L 1499 1235 L 1495 1235 C 1477 1195 1456 1150 1432 1100 C 1408 1050 1382 1000 1356 950 L 834 0 L 674 0 L 489 950 C 484 975 480 999 476 1021 C 472 1043 468 1066 464 1089 C 460 1111 456 1135 452 1160 C 448 1185 445 1213 442 1243 L 438 1243 L 219 0 L 55 0 Z" unicode="M" />
<glyph horiz-adv-x="1513" d="M 55 0 L 322 1516 L 510 1516 L 1075 309 L 1079 309 L 1292 1516 L 1460 1516 L 1194 0 L 1032 0 L 444 1241 L 440 1241 L 223 0 L 55 0 Z" unicode="N" />
<glyph horiz-adv-x="1513" d="M 666 133 C 713 133 760 140 807 154 C 854 168 899 190 941 218 C 983 246 1023 282 1059 325 C 1095 368 1126 418 1152 476 C 1178 533 1199 597 1214 669 C 1229 741 1237 820 1237 907 C 1237 979 1228 1045 1211 1103 C 1194 1161 1169 1211 1136 1252 C 1103 1293 1063 1325 1015 1347 C 967 1369 912 1380 850 1380 C 780 1380 710 1364 642 1333 C 574 1301 512 1254 458 1190 C 404 1126 360 1046 326 950 C 292 854 276 741 276 612 C 276 538 284 471 302 412 C 320 353 345 303 379 262 C 412 220 453 188 501 166 C 549 144 604 133 666 133 Z M 655 -29 C 569 -29 491 -13 422 18 C 353 49 294 93 246 149 C 198 205 161 273 135 352 C 109 430 96 517 96 612 C 96 711 106 803 126 888 C 146 972 173 1049 209 1118 C 245 1187 287 1248 336 1301 C 384 1354 437 1399 495 1435 C 552 1471 612 1498 676 1516 C 739 1534 803 1544 868 1544 C 952 1544 1027 1528 1095 1497 C 1163 1466 1220 1423 1268 1367 C 1316 1311 1352 1243 1378 1165 C 1404 1087 1417 1000 1417 905 C 1417 806 1407 714 1388 630 C 1368 545 1341 468 1307 399 C 1272 329 1231 268 1183 215 C 1135 161 1083 117 1027 81 C 971 45 911 17 848 -1 C 784 -19 720 -29 655 -29 Z" unicode="O" />
<glyph horiz-adv-x="1309" d="M 322 1516 L 762 1516 C 934 1516 1065 1484 1157 1420 C 1248 1356 1294 1262 1294 1139 C 1294 1043 1277 964 1244 900 C 1211 836 1168 786 1114 748 C 1060 710 998 683 928 667 C 858 651 787 643 713 643 L 346 643 L 233 0 L 55 0 L 322 1516 Z M 733 801 C 786 801 836 805 882 814 C 928 823 968 840 1002 864 C 1036 888 1062 920 1082 962 C 1102 1003 1112 1056 1112 1122 C 1112 1198 1082 1256 1023 1294 C 964 1332 871 1352 745 1352 L 471 1352 L 373 801 L 733 801 Z" unicode="P" />
<glyph horiz-adv-x="1513" d="M 922 -385 C 852 -385 790 -377 738 -361 C 685 -345 642 -321 608 -290 C 574 -258 551 -219 537 -172 C 523 -125 520 -71 528 -10 C 460 3 400 27 346 63 C 292 98 247 142 210 196 C 173 250 145 312 125 382 C 105 452 96 529 96 612 C 96 711 106 803 126 888 C 146 972 173 1049 209 1118 C 244 1187 286 1248 335 1301 C 383 1354 436 1399 494 1435 C 551 1471 611 1498 675 1516 C 738 1534 802 1544 868 1544 C 952 1544 1027 1528 1095 1497 C 1163 1466 1220 1423 1268 1367 C 1316 1311 1352 1243 1378 1165 C 1404 1087 1417 1000 1417 905 C 1417 809 1407 721 1389 640 C 1371 558 1345 484 1313 417 C 1281 349 1242 289 1197 237 C 1152 185 1103 140 1050 103 C 997 66 941 37 882 17 C 822 -3 762 -16 700 -20 C 696 -62 698 -96 708 -123 C 717 -149 733 -170 756 -185 C 779 -200 809 -210 847 -216 C 884 -222 929 -225 981 -225 L 1077 -225 L 1049 -385 L 922 -385 Z M 668 133 C 738 133 807 149 875 181 C 943 213 1003 261 1057 325 C 1111 389 1154 470 1187 567 C 1220 664 1237 777 1237 907 C 1237 979 1228 1045 1211 1103 C 1193 1161 1168 1211 1135 1252 C 1101 1293 1060 1325 1012 1347 C 964 1369 909 1380 848 1380 C 801 1380 754 1373 708 1359 C 661 1345 616 1324 574 1296 C 532 1268 492 1232 456 1190 C 420 1148 388 1098 362 1041 C 335 984 314 920 299 848 C 283 776 276 698 276 612 C 276 538 284 471 302 412 C 320 353 345 303 379 262 C 412 220 453 188 502 166 C 550 144 606 133 668 133 Z" unicode="Q" />
<glyph horiz-adv-x="1366" d="M 55 0 L 322 1516 L 768 1516 C 850 1516 924 1508 990 1492 C 1055 1476 1110 1453 1155 1421 C 1200 1389 1234 1350 1258 1304 C 1282 1257 1294 1203 1294 1141 C 1294 1086 1286 1032 1271 980 C 1255 928 1231 880 1197 838 C 1163 795 1119 759 1066 730 C 1012 700 948 681 872 672 L 1112 0 L 932 0 L 698 655 L 346 655 L 231 0 L 55 0 Z M 375 813 L 735 813 C 786 813 834 816 880 824 C 926 831 966 846 1000 868 C 1034 890 1062 922 1082 962 C 1102 1002 1112 1056 1112 1122 C 1112 1200 1082 1258 1024 1296 C 966 1333 875 1352 752 1352 L 469 1352 L 375 813 Z" unicode="R" />
<glyph horiz-adv-x="1325" d="M 592 -31 C 506 -31 432 -21 368 -3 C 304 14 249 41 204 76 C 159 110 123 153 96 203 C 69 253 50 311 39 375 L 205 418 C 215 367 230 323 251 287 C 271 251 298 221 331 198 C 363 175 402 158 448 147 C 494 136 547 131 608 131 C 657 131 703 136 747 146 C 791 156 829 173 861 195 C 893 217 919 246 938 282 C 957 318 967 361 967 412 C 967 456 956 494 935 526 C 913 558 885 585 850 609 C 815 633 775 654 730 672 C 685 690 639 708 593 726 C 546 744 500 763 455 784 C 410 804 370 829 335 858 C 300 886 272 920 251 960 C 229 999 219 1046 219 1102 C 219 1172 232 1235 259 1291 C 285 1346 321 1392 367 1430 C 413 1468 466 1496 527 1516 C 587 1536 651 1546 719 1546 C 801 1546 871 1537 930 1521 C 988 1504 1038 1481 1079 1451 C 1119 1421 1152 1386 1178 1345 C 1203 1303 1223 1258 1239 1208 L 1077 1149 C 1054 1232 1012 1292 950 1328 C 888 1364 807 1382 707 1382 C 661 1382 619 1376 581 1364 C 543 1352 511 1336 484 1314 C 457 1292 436 1265 421 1233 C 406 1201 399 1166 399 1126 C 399 1084 409 1049 431 1020 C 452 991 480 966 515 944 C 550 922 590 902 635 884 C 680 866 726 849 773 831 C 819 813 865 793 910 771 C 955 749 995 724 1030 694 C 1065 664 1093 628 1115 587 C 1136 546 1147 497 1147 440 C 1147 359 1132 289 1102 230 C 1072 170 1032 121 982 83 C 931 44 872 15 805 -3 C 737 -21 666 -31 592 -31 Z" unicode="S" />
<glyph horiz-adv-x="1255" d="M 406 0 L 641 1350 L 170 1350 L 199 1516 L 1323 1516 L 1292 1350 L 821 1350 L 584 0 L 406 0 Z" unicode="T" />
<glyph horiz-adv-x="1448" d="M 633 -29 C 561 -29 498 -21 443 -7 C 388 7 341 28 301 55 C 261 81 229 113 204 150 C 178 186 159 227 147 272 C 135 316 128 364 128 414 C 127 464 131 517 141 571 L 305 1516 L 485 1516 L 319 561 C 308 500 305 444 310 392 C 314 340 329 295 353 257 C 377 219 413 189 459 167 C 505 145 565 135 637 135 C 759 135 854 165 922 225 C 989 285 1033 376 1055 500 L 1233 1516 L 1409 1516 L 1227 471 C 1197 307 1133 182 1034 98 C 934 13 801 -29 633 -29 Z" unicode="U" />
<glyph horiz-adv-x="1343" d="M 453 -6 L 201 1516 L 377 1516 L 578 236 L 582 236 L 1233 1516 L 1411 1516 L 621 -6 L 453 -6 Z" unicode="V" />
<glyph horiz-adv-x="1886" d="M 336 0 L 209 1516 L 387 1516 L 446 637 C 450 570 455 505 459 442 C 463 379 467 320 469 266 L 473 266 C 493 320 516 378 542 441 C 568 503 595 568 623 635 L 989 1516 L 1171 1516 L 1233 629 C 1237 561 1240 499 1244 441 C 1247 383 1249 324 1251 266 L 1255 266 C 1267 297 1279 327 1291 355 C 1303 383 1314 412 1326 441 C 1338 469 1350 498 1363 528 C 1375 558 1389 589 1403 623 L 1774 1516 L 1946 1516 L 1288 0 L 1124 0 L 1038 1268 L 1034 1268 L 500 0 L 336 0 Z" unicode="W" />
<glyph horiz-adv-x="1352" d="M 967 0 L 653 674 L 119 0 L -76 0 L 584 821 L 262 1516 L 444 1516 L 709 946 L 1157 1516 L 1350 1516 L 776 799 L 1149 0 L 967 0 Z" unicode="X" />
<glyph horiz-adv-x="1272" d="M 414 0 L 530 664 L 180 1516 L 362 1516 L 643 817 L 1165 1516 L 1360 1516 L 709 664 L 592 0 L 414 0 Z" unicode="Y" />
<glyph horiz-adv-x="1270" d="M -51 0 L -25 137 L 1051 1356 L 246 1356 L 274 1516 L 1303 1516 L 1280 1376 L 209 160 L 1065 160 L 1036 0 L -51 0 Z" unicode="Z" />
<glyph horiz-adv-x="811" d="M -31 -410 L 307 1516 L 856 1516 L 834 1384 L 461 1384 L 170 -279 L 541 -279 L 518 -410 L -31 -410 Z" unicode="[" />
<glyph horiz-adv-x="1133" d="M 788 0 L 174 1516 L 346 1516 L 961 0 L 788 0 Z" unicode="\" />
<glyph horiz-adv-x="811" d="M -117 -410 L -94 -279 L 281 -279 L 571 1384 L 201 1384 L 223 1516 L 772 1516 L 434 -410 L -117 -410 Z" unicode="]" />
<glyph horiz-adv-x="1307" d="M 598 1516 L 715 1516 L 1180 688 L 1024 688 L 655 1337 L 289 688 L 131 688 L 598 1516 Z" unicode="^" />
<glyph horiz-adv-x="1010" d="M -182 -270 L -158 -135 L 852 -135 L 829 -270 L -182 -270 Z" unicode="_" />
<glyph horiz-adv-x="1024" d="M 553 1198 L 279 1522 L 489 1522 L 668 1198 L 553 1198 Z" unicode="`" />
<glyph horiz-adv-x="1126" d="M 354 123 C 416 123 479 136 542 164 C 605 192 666 231 725 281 L 778 580 C 658 568 560 551 482 531 C 404 510 343 486 298 459 C 252 431 221 401 203 368 C 185 334 176 299 176 262 C 176 220 191 186 222 161 C 252 135 296 123 354 123 Z M 293 -18 C 246 -18 204 -12 168 0 C 131 12 100 29 75 51 C 50 73 31 99 18 129 C 4 159 -2 193 -2 229 C -2 291 12 348 41 401 C 70 454 117 501 181 542 C 245 582 327 616 429 644 C 530 671 653 690 799 700 L 809 750 C 822 816 813 867 783 903 C 752 938 695 956 612 956 C 578 956 543 952 508 944 C 473 936 439 926 406 914 C 373 902 342 887 313 871 C 284 854 258 837 236 819 L 156 934 C 182 954 211 975 245 995 C 279 1015 316 1034 357 1050 C 398 1066 442 1079 490 1089 C 538 1099 589 1104 643 1104 C 715 1104 775 1094 823 1076 C 871 1057 908 1031 934 997 C 960 963 976 923 982 877 C 988 830 987 779 977 723 L 897 266 C 891 236 887 209 884 187 C 880 164 878 143 876 123 C 874 103 874 83 875 63 C 875 43 877 22 881 0 L 700 0 C 698 14 697 26 696 38 C 695 50 695 61 695 73 C 695 85 695 97 696 109 C 697 121 699 135 702 150 C 633 93 564 51 494 23 C 424 -4 357 -18 293 -18 Z" unicode="a" />
<glyph horiz-adv-x="1206" d="M 537 125 C 581 125 626 135 670 155 C 714 175 753 207 788 249 C 823 291 852 345 874 411 C 896 476 907 554 907 645 C 907 693 901 735 889 773 C 877 811 859 843 837 870 C 814 896 787 917 755 931 C 723 945 687 952 647 952 C 615 952 585 947 555 937 C 525 927 496 915 470 899 C 443 883 419 866 397 847 C 375 828 356 809 340 791 L 244 264 C 283 216 327 181 375 159 C 423 136 477 125 537 125 Z M 561 -18 C 485 -18 421 -5 367 20 C 313 45 263 81 219 129 L 199 0 L 25 0 L 291 1516 L 465 1516 L 362 932 C 376 950 395 970 418 990 C 441 1010 467 1028 497 1045 C 527 1062 559 1076 595 1087 C 630 1098 667 1104 707 1104 C 765 1104 818 1093 865 1073 C 911 1053 951 1024 984 986 C 1016 948 1041 903 1059 849 C 1076 795 1085 734 1085 668 C 1085 555 1070 456 1041 370 C 1011 284 972 213 924 156 C 875 98 819 55 756 26 C 693 -3 628 -18 561 -18 Z" unicode="b" />
<glyph horiz-adv-x="1077" d="M 465 -23 C 403 -23 346 -12 294 9 C 242 30 198 61 161 101 C 124 141 95 190 75 248 C 55 306 45 371 45 444 C 45 524 53 597 70 661 C 86 725 109 781 138 830 C 166 879 199 921 237 955 C 274 989 313 1018 355 1040 C 397 1062 439 1078 482 1088 C 524 1098 565 1104 604 1104 C 670 1104 727 1096 773 1080 C 819 1064 857 1042 888 1014 C 919 986 944 953 962 915 C 980 877 994 835 1004 791 L 844 758 C 835 794 824 824 811 849 C 797 874 781 894 761 910 C 741 926 717 937 689 945 C 661 952 629 956 592 956 C 544 956 497 945 453 923 C 408 901 368 869 334 826 C 300 783 272 729 252 665 C 231 600 221 525 221 440 C 221 340 242 263 286 207 C 330 151 393 123 477 123 C 511 123 541 126 569 134 C 597 141 623 153 647 170 C 671 187 693 209 715 237 C 737 264 759 298 782 338 L 918 279 C 896 235 871 194 844 157 C 816 120 785 88 749 62 C 713 35 671 14 625 0 C 578 -15 525 -23 465 -23 Z" unicode="c" />
<glyph horiz-adv-x="1206" d="M 481 125 C 537 125 590 138 640 166 C 690 194 741 234 791 287 L 885 813 C 867 833 848 852 828 869 C 808 886 786 901 762 913 C 738 925 711 935 683 942 C 655 948 624 952 592 952 C 552 952 511 943 468 925 C 424 907 384 877 348 836 C 311 795 281 741 257 675 C 233 609 221 527 221 430 C 221 380 227 337 239 299 C 251 261 269 229 292 203 C 314 177 342 158 374 145 C 406 131 441 125 481 125 Z M 426 -18 C 371 -18 320 -9 274 9 C 227 27 187 54 153 90 C 119 126 92 172 73 226 C 54 280 45 344 45 416 C 45 497 52 570 67 636 C 81 702 101 760 127 811 C 153 862 183 906 217 943 C 251 980 287 1010 326 1034 C 364 1058 404 1075 446 1087 C 487 1098 527 1104 567 1104 C 608 1104 646 1099 681 1090 C 716 1081 748 1070 776 1056 C 804 1042 830 1026 852 1009 C 874 991 893 974 909 958 L 1008 1516 L 1182 1516 L 963 266 C 957 236 953 209 950 185 C 946 161 944 139 942 119 C 940 98 940 78 941 59 C 942 40 944 20 948 0 L 766 0 C 762 21 760 45 760 72 C 760 98 762 126 768 154 C 748 129 726 106 701 85 C 676 64 649 46 620 31 C 590 15 559 3 527 -5 C 494 -13 460 -18 426 -18 Z" unicode="d" />
<glyph horiz-adv-x="1110" d="M 469 -23 C 406 -23 349 -12 297 8 C 245 28 200 58 163 97 C 125 136 96 184 76 241 C 55 298 45 363 45 436 C 45 519 54 593 72 659 C 90 724 114 781 144 831 C 174 881 208 923 247 957 C 285 991 325 1019 366 1041 C 407 1063 448 1079 489 1089 C 530 1099 568 1104 602 1104 C 682 1104 750 1089 804 1061 C 858 1032 901 992 931 941 C 961 890 980 830 987 761 C 993 691 989 616 975 535 L 969 498 L 219 498 C 217 487 217 477 217 467 C 217 457 217 446 217 436 C 217 374 225 323 243 283 C 261 242 283 210 310 186 C 337 162 367 145 400 135 C 432 125 464 121 494 121 C 534 121 570 125 602 134 C 634 142 663 155 690 171 C 717 187 742 206 764 228 C 786 250 807 275 827 303 L 944 215 C 918 179 889 146 857 117 C 825 88 789 63 750 42 C 711 21 668 5 622 -6 C 575 -17 524 -23 469 -23 Z M 827 633 C 833 677 833 718 828 758 C 823 797 811 831 793 861 C 774 891 748 914 715 932 C 681 949 639 958 588 958 C 550 958 514 951 478 937 C 442 923 409 903 379 876 C 348 849 321 815 297 775 C 273 734 254 687 240 633 L 827 633 Z" unicode="e" />
<glyph horiz-adv-x="688" d="M 106 0 L 270 938 L 84 938 L 111 1081 L 297 1081 L 326 1249 C 340 1340 373 1408 425 1453 C 476 1497 551 1520 649 1520 C 657 1520 667 1519 681 1518 C 695 1517 709 1516 723 1515 C 737 1513 749 1512 761 1510 C 772 1508 780 1507 784 1507 L 758 1366 C 748 1368 734 1370 716 1372 C 697 1374 679 1376 662 1376 C 639 1376 619 1374 601 1370 C 583 1366 567 1358 553 1348 C 539 1338 528 1323 520 1305 C 511 1286 504 1262 500 1233 L 473 1081 L 694 1081 L 668 938 L 446 938 L 281 0 L 106 0 Z" unicode="f" />
<glyph horiz-adv-x="1157" d="M 498 330 C 419 330 351 343 293 371 C 267 359 249 347 237 334 C 225 321 219 307 219 293 C 219 275 224 261 236 250 C 248 238 266 228 291 220 C 315 212 347 204 385 198 C 423 191 469 184 522 176 C 574 167 625 157 673 145 C 721 133 763 118 800 98 C 836 78 865 53 887 22 C 909 -8 920 -47 920 -94 C 920 -154 905 -205 877 -247 C 849 -288 811 -321 764 -347 C 717 -372 663 -390 603 -401 C 543 -412 481 -418 418 -418 C 319 -418 235 -410 166 -395 C 96 -380 40 -360 -3 -334 C -47 -308 -79 -279 -99 -246 C -119 -212 -129 -177 -129 -141 C -129 -101 -120 -66 -104 -36 C -88 -6 -67 19 -43 41 C -18 63 8 80 37 94 C 65 108 92 119 117 127 C 95 140 79 155 67 173 C 55 191 49 212 49 238 C 49 272 61 306 85 338 C 109 370 149 399 207 424 C 171 456 143 493 124 536 C 105 578 96 626 96 678 C 96 746 109 807 136 860 C 163 913 199 958 243 994 C 287 1030 337 1057 394 1076 C 450 1094 509 1104 569 1104 C 638 1104 698 1093 750 1071 C 801 1049 843 1020 877 983 C 919 1009 965 1032 1016 1052 C 1066 1072 1115 1085 1163 1092 L 1137 938 C 1105 936 1071 933 1035 929 C 999 924 964 915 930 903 C 941 879 950 854 956 828 C 962 802 965 774 965 745 C 965 675 951 615 925 563 C 899 511 864 467 820 433 C 776 398 727 372 671 355 C 615 338 557 330 498 330 Z M 508 457 C 549 457 587 463 623 475 C 659 487 690 505 716 529 C 742 553 763 583 778 620 C 793 656 801 700 801 750 C 801 782 796 811 786 838 C 776 865 762 888 742 908 C 722 927 696 942 666 953 C 636 963 600 969 559 969 C 519 969 481 962 445 950 C 409 937 378 918 351 893 C 324 868 303 837 287 801 C 271 764 264 722 264 674 C 264 642 269 612 279 586 C 289 559 305 536 325 517 C 345 498 371 483 401 473 C 431 462 467 457 508 457 Z M 53 -115 C 53 -139 59 -162 72 -183 C 85 -203 107 -221 137 -236 C 167 -251 208 -263 258 -272 C 308 -280 370 -285 444 -285 C 486 -285 525 -282 563 -276 C 600 -270 633 -261 661 -249 C 689 -236 711 -220 727 -200 C 743 -180 752 -155 752 -127 C 752 -100 745 -78 731 -60 C 717 -42 698 -26 673 -14 C 648 -2 618 8 584 16 C 549 24 511 31 469 39 C 425 46 383 53 343 60 C 303 66 267 74 233 82 C 209 74 186 64 164 52 C 142 40 123 25 107 9 C 90 -7 77 -26 67 -47 C 57 -67 53 -90 53 -115 Z" unicode="g" />
<glyph horiz-adv-x="1184" d="M 25 0 L 291 1516 L 467 1516 L 360 915 C 382 939 408 962 438 985 C 468 1007 500 1027 535 1045 C 569 1063 605 1077 643 1088 C 681 1098 718 1104 756 1104 C 814 1104 863 1095 903 1079 C 943 1063 974 1040 997 1010 C 1020 980 1035 945 1042 903 C 1048 861 1047 815 1038 764 L 905 0 L 729 0 L 858 735 C 871 805 864 859 837 896 C 810 933 758 952 680 952 C 624 952 566 936 507 905 C 448 873 391 832 336 782 L 199 0 L 25 0 Z" unicode="h" />
<glyph horiz-adv-x="512" d="M 264 1315 L 295 1485 L 475 1485 L 444 1315 L 264 1315 Z M 35 0 L 227 1081 L 401 1081 L 211 0 L 35 0 Z" unicode="i" />
<glyph horiz-adv-x="512" d="M 264 1315 L 295 1485 L 475 1485 L 446 1315 L 264 1315 Z M -68 -414 C -102 -414 -131 -413 -154 -411 C -176 -409 -194 -408 -207 -406 L -184 -274 C -174 -275 -160 -276 -144 -278 C -128 -280 -112 -281 -98 -281 C -67 -281 -44 -271 -28 -253 C -12 -235 0 -204 8 -160 L 227 1081 L 403 1081 L 178 -195 C 170 -231 160 -263 148 -291 C 136 -318 120 -341 100 -359 C 80 -377 57 -391 29 -400 C 1 -409 -30 -414 -68 -414 Z" unicode="j" />
<glyph horiz-adv-x="1085" d="M 25 0 L 291 1516 L 465 1516 L 297 557 L 856 1081 L 1053 1081 L 633 692 L 901 0 L 723 0 L 500 578 L 262 360 L 199 0 L 25 0 Z" unicode="k" />
<glyph horiz-adv-x="512" d="M 35 0 L 301 1516 L 477 1516 L 211 0 L 35 0 Z" unicode="l" />
<glyph horiz-adv-x="1858" d="M 25 0 L 215 1081 L 391 1081 L 360 915 C 382 939 407 962 435 985 C 463 1007 494 1027 527 1045 C 559 1063 593 1077 629 1088 C 665 1098 701 1104 739 1104 C 783 1104 821 1099 855 1089 C 888 1079 916 1066 940 1049 C 963 1031 981 1010 995 986 C 1009 962 1018 935 1024 905 C 1084 965 1148 1014 1217 1050 C 1285 1086 1356 1104 1430 1104 C 1488 1104 1537 1095 1577 1079 C 1617 1063 1648 1040 1671 1010 C 1694 980 1709 945 1716 903 C 1722 861 1721 815 1712 764 L 1577 0 L 1403 0 L 1532 735 C 1544 805 1536 859 1510 896 C 1483 933 1431 952 1354 952 C 1300 952 1246 937 1192 907 C 1138 877 1082 836 1026 784 L 889 0 L 713 0 L 842 735 C 848 770 850 801 847 828 C 843 855 835 878 821 896 C 807 914 787 928 761 938 C 735 947 702 952 664 952 C 609 952 554 936 500 905 C 446 873 391 832 336 782 L 199 0 L 25 0 Z" unicode="m" />
<glyph horiz-adv-x="1184" d="M 25 0 L 215 1081 L 391 1081 L 360 915 C 382 939 408 962 438 985 C 468 1007 500 1027 535 1045 C 569 1063 605 1077 643 1088 C 681 1098 718 1104 756 1104 C 814 1104 863 1095 903 1079 C 943 1063 974 1040 997 1010 C 1020 980 1035 945 1042 903 C 1048 861 1047 815 1038 764 L 905 0 L 729 0 L 858 735 C 871 805 864 859 837 896 C 810 933 758 952 680 952 C 624 952 566 936 507 905 C 448 873 391 832 336 782 L 199 0 L 25 0 Z" unicode="n" />
<glyph horiz-adv-x="1174" d="M 496 123 C 546 123 595 134 641 158 C 687 181 728 215 763 259 C 797 303 825 356 846 419 C 866 482 877 553 877 633 C 877 677 871 719 861 759 C 850 798 833 832 811 862 C 789 891 760 914 726 931 C 691 947 650 956 602 956 C 550 956 501 944 455 920 C 409 896 368 861 334 817 C 300 773 273 719 253 656 C 233 593 223 522 223 444 C 223 398 228 356 238 317 C 248 278 264 244 286 216 C 308 187 336 164 371 148 C 405 131 447 123 496 123 Z M 481 -23 C 417 -23 359 -12 306 9 C 252 30 206 61 168 101 C 129 141 99 190 77 248 C 55 305 45 370 45 442 C 45 518 53 587 69 649 C 85 711 106 767 134 816 C 162 865 194 908 231 944 C 268 980 308 1009 350 1033 C 392 1057 436 1074 482 1086 C 527 1098 572 1104 616 1104 C 679 1104 737 1093 791 1072 C 845 1051 891 1021 930 981 C 968 941 998 892 1020 834 C 1042 776 1053 711 1053 639 C 1053 563 1045 494 1029 432 C 1013 370 992 314 964 265 C 936 216 904 173 867 137 C 830 101 790 71 748 47 C 706 23 662 6 616 -5 C 570 -17 525 -23 481 -23 Z" unicode="o" />
<glyph horiz-adv-x="1206" d="M 537 125 C 577 125 618 134 662 152 C 705 170 745 200 781 241 C 817 282 847 335 871 401 C 895 467 907 547 907 643 C 907 693 900 737 888 776 C 876 814 858 847 835 873 C 812 899 785 918 753 932 C 721 945 685 952 647 952 C 619 952 592 947 564 939 C 536 931 508 919 481 905 C 454 890 428 873 404 854 C 380 834 358 813 340 791 L 244 264 C 264 242 284 223 304 206 C 324 188 346 174 369 162 C 392 150 417 140 445 134 C 472 128 503 125 537 125 Z M -49 -412 L 215 1081 L 391 1081 L 362 932 C 380 954 401 975 426 996 C 451 1016 478 1035 508 1051 C 538 1067 569 1079 602 1089 C 634 1099 668 1104 702 1104 C 760 1104 813 1094 860 1074 C 907 1054 947 1026 981 989 C 1014 952 1040 906 1058 852 C 1076 798 1085 736 1085 668 C 1085 589 1077 517 1063 453 C 1049 389 1029 331 1005 281 C 980 230 951 186 917 148 C 883 110 847 79 808 55 C 769 30 728 12 686 0 C 643 -12 601 -18 559 -18 C 487 -18 423 -4 367 21 C 311 47 263 83 221 129 L 127 -412 L -49 -412 Z" unicode="p" />
<glyph horiz-adv-x="1206" d="M 481 125 C 537 125 590 138 640 166 C 690 194 741 234 791 287 L 885 813 C 867 833 848 852 828 869 C 808 886 786 901 762 913 C 738 925 711 935 683 942 C 655 948 624 952 592 952 C 552 952 511 943 468 925 C 424 907 384 877 348 836 C 311 795 281 741 257 675 C 233 609 221 527 221 430 C 221 380 227 337 239 299 C 251 261 269 229 292 203 C 314 177 342 158 374 145 C 406 131 441 125 481 125 Z M 670 -410 L 768 150 C 748 126 726 103 701 83 C 676 63 649 45 620 30 C 590 15 559 3 527 -5 C 494 -13 460 -18 426 -18 C 368 -18 316 -8 270 10 C 223 29 183 57 150 94 C 116 131 90 176 72 230 C 54 284 45 346 45 416 C 45 498 52 571 67 637 C 81 703 101 761 127 812 C 153 863 183 907 217 944 C 251 980 288 1010 327 1034 C 365 1058 405 1075 447 1087 C 488 1098 529 1104 569 1104 C 611 1104 650 1099 686 1090 C 721 1081 753 1070 781 1056 C 809 1042 833 1026 854 1009 C 875 991 893 974 909 958 L 932 1081 L 1108 1081 L 844 -410 L 670 -410 Z" unicode="q" />
<glyph horiz-adv-x="805" d="M 25 0 L 215 1081 L 391 1081 L 354 881 L 358 881 C 382 909 409 937 439 964 C 469 990 502 1014 539 1035 C 575 1055 615 1072 659 1085 C 703 1097 750 1104 801 1104 L 813 1104 L 784 944 C 768 945 756 946 748 946 C 740 946 734 946 731 946 C 697 946 661 940 624 929 C 587 917 551 901 515 880 C 479 858 444 832 411 802 C 378 771 348 736 322 698 L 199 0 L 25 0 Z" unicode="r" />
<glyph horiz-adv-x="1028" d="M 422 -20 C 362 -20 308 -15 261 -5 C 214 5 172 19 136 37 C 100 55 68 76 42 102 C 15 127 -7 155 -27 186 L 102 276 C 116 254 134 233 155 214 C 175 195 199 179 226 165 C 253 151 283 141 317 133 C 351 125 388 121 430 121 C 467 120 501 123 533 129 C 565 135 592 145 615 159 C 638 173 656 192 669 215 C 681 238 688 267 688 301 C 688 329 680 354 664 374 C 648 394 626 411 600 426 C 573 441 543 454 509 466 C 475 477 441 489 406 501 C 371 513 337 527 303 542 C 269 556 239 574 213 596 C 186 617 165 642 149 672 C 133 701 125 736 125 778 C 125 829 134 875 153 915 C 172 955 199 990 233 1018 C 267 1046 307 1067 353 1082 C 399 1096 450 1104 504 1104 C 560 1104 611 1099 656 1090 C 700 1081 740 1069 774 1054 C 808 1038 838 1020 864 1000 C 890 979 912 957 932 934 L 813 827 C 780 869 738 902 686 926 C 634 950 574 963 506 963 C 437 963 385 948 351 918 C 316 888 299 851 299 805 C 299 775 307 749 323 729 C 339 709 360 691 386 677 C 412 662 442 649 476 637 C 510 625 544 614 579 602 C 614 590 648 577 682 563 C 716 548 746 530 772 510 C 798 489 820 464 836 435 C 852 405 860 370 860 328 C 860 262 847 206 822 162 C 796 117 763 81 722 54 C 681 27 634 8 582 -3 C 529 -14 476 -20 422 -20 Z" unicode="s" />
<glyph horiz-adv-x="754" d="M 399 -14 C 339 -14 290 -7 254 6 C 217 19 190 38 172 64 C 154 90 143 121 141 159 C 139 196 142 239 150 287 L 264 938 L 78 938 L 104 1081 L 291 1081 L 358 1466 L 532 1466 L 467 1081 L 731 1081 L 705 938 L 440 938 L 328 307 C 322 275 319 248 319 226 C 319 204 323 185 332 171 C 340 156 354 145 374 139 C 394 132 421 129 457 129 C 472 129 489 130 507 132 C 525 134 541 137 557 141 L 555 2 C 547 0 536 -3 523 -5 C 510 -7 496 -8 482 -10 C 467 -11 452 -12 438 -13 C 424 -13 411 -14 399 -14 Z" unicode="t" />
<glyph horiz-adv-x="1180" d="M 354 -23 C 296 -23 247 -14 207 1 C 167 17 135 41 112 71 C 89 101 74 137 68 179 C 61 221 62 267 72 319 L 205 1081 L 381 1081 L 250 344 C 244 308 242 277 246 250 C 249 223 258 200 272 182 C 286 164 305 150 331 141 C 357 131 389 127 428 127 C 484 127 541 142 598 174 C 655 206 712 247 768 297 L 907 1081 L 1081 1081 L 891 0 L 715 0 L 745 166 C 723 142 697 119 668 97 C 638 75 607 55 573 37 C 539 19 503 4 466 -6 C 428 -17 391 -23 354 -23 Z" unicode="u" />
<glyph horiz-adv-x="1034" d="M 295 -6 L 102 1081 L 281 1081 L 418 205 L 422 205 L 870 1081 L 1051 1081 L 471 -6 L 295 -6 Z" unicode="v" />
<glyph horiz-adv-x="1522" d="M 233 0 L 106 1081 L 281 1081 L 328 573 C 332 515 336 457 342 399 C 348 341 352 279 356 213 L 360 213 C 376 251 390 285 403 315 C 416 345 429 373 441 401 C 453 428 465 455 477 483 C 489 511 503 541 518 575 L 745 1081 L 897 1081 L 946 565 C 948 533 951 503 954 475 C 956 447 959 420 962 393 C 964 366 967 338 969 309 C 971 280 974 248 977 213 L 981 213 C 996 249 1010 281 1022 309 C 1034 337 1046 365 1058 392 C 1070 418 1082 445 1094 472 C 1106 499 1119 529 1133 561 L 1366 1081 L 1532 1081 L 1022 0 L 860 0 L 776 848 L 772 848 L 393 0 L 233 0 Z" unicode="w" />
<glyph horiz-adv-x="1040" d="M -78 0 L 391 567 L 143 1081 L 326 1081 L 514 688 L 836 1081 L 1018 1081 L 582 553 L 850 0 L 668 0 L 457 430 L 106 0 L -78 0 Z" unicode="x" />
<glyph horiz-adv-x="1071" d="M 57 -416 C 11 -416 -28 -412 -64 -404 C -100 -396 -130 -387 -154 -377 L -94 -233 C -85 -237 -75 -241 -63 -245 C -51 -249 -38 -252 -25 -256 C -12 -259 1 -262 15 -264 C 29 -266 42 -268 55 -268 C 101 -268 139 -255 169 -230 C 199 -204 225 -170 248 -127 L 315 -6 L 104 1081 L 287 1081 L 438 207 L 442 207 L 905 1081 L 1087 1081 L 389 -178 C 366 -219 343 -254 321 -284 C 299 -314 275 -338 249 -358 C 223 -378 194 -392 163 -402 C 132 -411 97 -416 57 -416 Z" unicode="y" />
<glyph horiz-adv-x="1024" d="M -53 0 L -35 106 L 719 938 L 162 938 L 188 1081 L 973 1081 L 952 973 L 197 141 L 836 141 L 811 0 L -53 0 Z" unicode="z" />
<glyph horiz-adv-x="797" d="M 387 -410 C 333 -410 288 -403 253 -390 C 217 -377 190 -359 171 -336 C 151 -312 139 -284 134 -252 C 128 -220 129 -184 137 -145 L 205 244 C 213 294 217 334 215 366 C 213 398 205 423 191 441 C 177 459 156 472 128 479 C 100 485 64 489 20 489 L 45 618 C 89 618 126 621 156 628 C 186 635 212 648 233 666 C 253 684 270 709 283 741 C 295 773 306 814 315 864 L 385 1257 C 400 1347 434 1412 487 1454 C 540 1495 610 1516 698 1516 L 850 1516 L 827 1384 L 743 1384 C 687 1384 644 1370 614 1344 C 584 1318 564 1279 555 1227 L 489 850 C 480 800 469 758 456 724 C 442 690 426 663 408 641 C 389 619 368 601 344 588 C 320 575 293 564 264 555 L 262 551 C 288 541 310 530 330 517 C 349 504 364 487 375 465 C 386 443 393 415 395 381 C 397 347 393 306 385 256 L 317 -121 C 307 -173 313 -212 335 -239 C 356 -265 395 -279 451 -279 L 537 -279 L 512 -410 L 387 -410 Z" unicode="{" />
<glyph horiz-adv-x="727" d="M 264 -410 L 264 1516 L 434 1516 L 434 -410 L 264 -410 Z" unicode="|" />
<glyph horiz-adv-x="797" d="M -127 -410 L -104 -279 L -16 -279 C 39 -279 81 -265 111 -239 C 141 -212 160 -173 170 -121 L 238 266 C 246 316 257 357 271 390 C 284 422 300 449 318 470 C 336 490 357 507 381 519 C 405 531 431 541 461 551 L 463 555 C 437 564 414 575 394 587 C 374 599 359 615 348 636 C 336 656 330 683 328 716 C 326 748 329 790 338 840 L 408 1227 C 417 1279 411 1318 390 1344 C 368 1370 330 1384 274 1384 L 190 1384 L 213 1516 L 348 1516 C 402 1516 446 1510 480 1498 C 514 1486 541 1469 560 1447 C 578 1425 590 1398 594 1367 C 598 1335 596 1300 590 1262 L 520 864 C 511 814 507 773 509 741 C 511 709 519 684 533 666 C 547 648 569 635 597 628 C 625 621 661 618 705 618 L 682 489 C 637 489 599 485 569 479 C 539 472 513 459 493 441 C 472 423 455 398 443 366 C 431 334 420 294 412 244 L 340 -162 C 332 -206 320 -244 304 -276 C 288 -307 267 -333 242 -353 C 217 -373 187 -387 153 -396 C 119 -405 80 -410 37 -410 L -127 -410 Z" unicode="}" />
<glyph horiz-adv-x="1307" d="M 934 547 C 911 547 883 551 851 559 C 818 566 783 575 747 586 C 710 596 672 607 634 619 C 596 631 559 642 525 653 C 490 663 459 672 431 679 C 403 686 381 690 365 692 C 335 694 310 688 291 675 C 271 662 260 636 256 598 L 141 612 C 145 653 153 688 166 718 C 179 748 196 772 216 790 C 236 808 260 822 286 830 C 312 838 341 841 373 840 C 396 838 424 834 457 827 C 490 819 525 810 562 800 C 598 789 636 778 674 766 C 712 754 749 742 783 732 C 817 721 848 712 876 704 C 904 696 926 692 942 692 C 972 690 996 696 1016 710 C 1036 724 1048 751 1053 791 L 1165 778 C 1157 694 1132 633 1090 596 C 1048 559 996 543 934 547 Z" unicode="~" />
<glyph horiz-adv-x="989" d="" unicode="₀" />
<glyph horiz-adv-x="729" d="" unicode="₁" />
<glyph horiz-adv-x="926" d="" unicode="₂" />
<glyph horiz-adv-x="926" d="" unicode="₃" />
<glyph horiz-adv-x="920" d="" unicode="₄" />
<glyph horiz-adv-x="889" d="" unicode="₅" />
<glyph horiz-adv-x="930" d="" unicode="₆" />
<glyph horiz-adv-x="838" d="" unicode="₇" />
<glyph horiz-adv-x="922" d="" unicode="₈" />
<glyph horiz-adv-x="930" d="" unicode="₉" />
<glyph horiz-adv-x="479" d="" unicode=" " />
<glyph horiz-adv-x="657" d="M 319 1307 L 356 1516 L 565 1516 L 528 1307 L 319 1307 Z M 84 0 L 330 1092 L 442 1092 L 303 0 L 84 0 Z" unicode="¡" />
<glyph horiz-adv-x="1087" d="M 463 -23 C 436 -23 410 -21 386 -17 C 361 -13 337 -7 315 0 L 195 -264 L 84 -264 L 223 47 C 167 85 124 137 92 204 C 60 271 45 351 45 444 C 45 524 53 597 70 661 C 86 725 109 781 137 830 C 165 878 198 920 236 954 C 273 988 312 1017 354 1039 C 395 1061 437 1077 480 1087 C 522 1097 563 1102 602 1102 C 619 1102 636 1101 652 1099 C 668 1097 684 1096 698 1094 L 797 1307 L 907 1307 L 799 1067 C 829 1055 855 1039 877 1021 C 899 1002 919 981 935 957 C 951 933 964 907 974 879 C 984 851 993 821 1001 791 L 848 758 C 836 803 821 840 802 868 C 783 896 759 918 729 934 L 369 139 C 399 125 436 119 479 119 C 509 119 537 123 565 131 C 592 139 618 153 643 171 C 668 189 692 212 715 240 C 738 268 761 303 784 344 L 918 285 C 896 241 870 200 840 162 C 810 124 777 92 739 65 C 701 37 660 16 614 0 C 568 -15 517 -23 463 -23 Z M 590 961 C 542 961 495 949 450 927 C 404 905 364 872 330 828 C 295 784 267 730 246 665 C 225 600 215 525 215 440 C 215 386 222 337 236 294 C 250 251 270 216 297 188 L 645 956 C 637 957 628 958 619 959 C 609 960 600 961 590 961 Z" unicode="¢" />
<glyph horiz-adv-x="1257" d="M 190 -29 C 154 -29 121 -24 92 -14 C 62 -4 37 8 16 26 C -4 43 -20 64 -32 88 C -43 112 -49 140 -49 170 C -49 210 -42 246 -28 277 C -14 308 4 334 28 355 C 52 376 80 392 112 402 C 144 412 178 418 215 418 C 239 418 262 415 284 409 C 306 403 327 396 347 387 C 367 377 386 366 404 354 C 422 341 439 327 457 313 C 463 336 467 362 471 391 C 475 419 477 450 477 483 C 477 526 473 568 465 608 C 457 648 447 687 436 727 L 174 727 L 197 856 L 397 856 C 383 901 370 946 360 990 C 349 1034 344 1078 344 1124 C 344 1192 355 1252 378 1304 C 400 1356 431 1399 470 1435 C 509 1471 554 1498 606 1516 C 657 1534 712 1544 770 1544 C 850 1544 915 1533 966 1511 C 1016 1489 1056 1459 1085 1423 C 1113 1386 1132 1344 1142 1297 C 1152 1249 1155 1201 1153 1151 L 985 1137 C 987 1173 986 1206 982 1238 C 977 1269 966 1296 950 1320 C 934 1343 911 1361 882 1375 C 852 1388 814 1395 768 1395 C 734 1395 701 1389 671 1379 C 641 1368 614 1351 592 1329 C 569 1306 551 1277 538 1243 C 524 1209 518 1168 518 1120 C 518 1076 523 1033 535 991 C 546 948 559 903 575 856 L 909 856 L 889 727 L 612 727 C 620 693 627 657 633 621 C 638 584 641 546 641 506 C 641 450 635 397 623 347 C 611 297 594 250 573 207 C 603 182 633 161 665 144 C 697 127 732 119 772 119 C 800 119 827 123 851 132 C 875 140 896 155 914 176 C 932 196 946 223 958 257 C 970 290 978 331 983 381 L 1139 381 C 1132 321 1121 267 1105 217 C 1089 167 1066 123 1038 87 C 1009 51 973 22 931 2 C 889 -18 838 -29 780 -29 C 748 -29 719 -25 693 -19 C 666 -12 641 -3 617 8 C 593 19 571 32 551 47 C 531 62 512 78 494 94 C 456 56 411 26 360 4 C 309 -18 252 -29 190 -29 Z M 211 299 C 175 299 144 289 120 270 C 96 250 84 220 84 178 C 84 150 93 127 113 110 C 133 92 161 84 199 84 C 237 84 273 92 308 109 C 343 125 373 151 399 186 C 383 201 368 215 353 229 C 338 243 323 255 308 265 C 292 275 277 284 261 290 C 245 296 228 299 211 299 Z" unicode="£" />
<glyph horiz-adv-x="1152" d="M 1056 392 L 940 284 L 740 500 C 692 468 636 452 572 452 C 510 452 456 468 408 500 L 208 284 L 92 392 L 300 608 C 281 634 268 660 262 686 C 255 711 252 742 252 780 C 252 812 255 842 262 870 C 268 898 281 925 300 952 L 92 1168 L 208 1276 L 408 1060 C 456 1092 510 1108 572 1108 C 636 1108 692 1092 740 1060 L 944 1276 L 1060 1156 L 852 952 C 870 925 883 898 890 872 C 896 845 900 814 900 780 C 900 716 882 658 848 608 L 1056 392 Z M 748 780 C 748 833 731 876 698 910 C 664 943 622 960 572 960 C 521 960 480 943 448 910 C 416 876 400 833 400 780 C 400 726 416 684 450 652 C 483 620 524 604 572 604 C 625 604 668 620 700 652 C 732 684 748 726 748 780 Z" unicode="¤" />
<glyph horiz-adv-x="1268" d="M 410 0 L 453 240 L 76 240 L 98 373 L 475 373 L 508 553 L 131 553 L 154 682 L 526 682 L 182 1516 L 369 1516 L 641 817 L 1157 1516 L 1352 1516 L 715 682 L 1092 682 L 1067 553 L 686 553 L 655 373 L 1036 373 L 1012 240 L 631 240 L 590 0 L 410 0 Z" unicode="¥" />
<glyph horiz-adv-x="727" d="M 264 678 L 264 1516 L 434 1516 L 434 678 L 264 678 Z M 264 -410 L 264 428 L 434 428 L 434 -410 L 264 -410 Z" unicode="¦" />
<glyph horiz-adv-x="1090" d="M 377 -410 C 323 -410 277 -405 238 -396 C 199 -386 166 -374 138 -358 C 110 -342 88 -323 70 -301 C 52 -279 38 -256 28 -231 C 17 -206 9 -180 4 -154 C -1 -127 -5 -100 -8 -74 L 143 -55 C 146 -89 152 -119 160 -146 C 168 -173 180 -196 197 -215 C 214 -234 237 -249 265 -259 C 293 -269 330 -274 375 -274 C 411 -274 443 -269 470 -260 C 497 -250 519 -237 537 -221 C 555 -205 568 -186 577 -164 C 585 -142 590 -118 590 -92 C 590 -60 582 -31 568 -4 C 553 22 534 48 510 73 C 486 97 458 121 428 144 C 397 167 366 190 334 214 C 302 238 270 262 240 288 C 209 313 182 340 158 369 C 134 397 114 428 100 462 C 85 496 78 533 78 573 C 78 621 87 664 105 702 C 123 740 147 775 177 805 C 207 835 240 861 278 883 C 316 905 354 923 393 938 C 353 974 319 1013 293 1056 C 267 1099 254 1148 254 1202 C 254 1250 263 1295 282 1337 C 300 1379 327 1415 361 1446 C 395 1476 436 1500 484 1518 C 532 1535 585 1544 645 1544 C 720 1544 782 1535 832 1517 C 881 1499 921 1475 951 1445 C 981 1414 1002 1378 1016 1338 C 1030 1298 1038 1255 1042 1210 L 893 1194 C 891 1224 885 1253 876 1279 C 866 1305 852 1328 833 1347 C 814 1366 789 1381 759 1392 C 729 1403 691 1409 647 1409 C 610 1409 578 1404 550 1394 C 522 1384 498 1371 480 1355 C 461 1338 447 1318 438 1296 C 428 1274 424 1250 424 1225 C 424 1183 436 1146 462 1112 C 488 1078 520 1045 559 1014 C 597 983 639 952 684 922 C 728 891 770 858 809 823 C 847 787 879 748 905 706 C 931 664 944 616 944 563 C 944 515 934 471 916 433 C 897 394 873 360 843 330 C 813 300 779 273 741 251 C 703 229 664 210 625 195 C 643 177 661 158 677 139 C 693 119 708 99 720 77 C 732 55 742 33 749 9 C 756 -15 760 -40 760 -68 C 760 -116 751 -161 733 -203 C 715 -245 690 -281 657 -312 C 624 -342 584 -366 537 -384 C 489 -401 436 -410 377 -410 Z M 238 604 C 238 570 246 539 263 511 C 279 483 301 456 328 430 C 355 404 386 378 420 354 C 454 329 489 304 524 279 C 612 312 677 349 720 389 C 762 429 784 476 784 532 C 784 564 775 595 758 623 C 741 651 719 679 692 705 C 664 731 633 756 599 781 C 565 805 530 830 496 856 C 452 838 414 820 382 802 C 350 784 323 764 302 744 C 280 724 264 702 254 679 C 243 656 238 631 238 604 Z" unicode="§" />
<glyph horiz-adv-x="1030" d="M 682 1194 L 715 1386 L 895 1386 L 862 1194 L 682 1194 Z M 324 1194 L 356 1386 L 537 1386 L 504 1194 L 324 1194 Z" unicode="¨" />
<glyph horiz-adv-x="1769" d="M 887 66 C 951 66 1012 74 1070 90 C 1128 106 1183 130 1233 160 C 1283 190 1329 226 1370 268 C 1411 310 1446 356 1475 407 C 1504 458 1527 513 1543 573 C 1559 632 1567 694 1567 758 C 1567 822 1559 883 1543 943 C 1527 1002 1504 1057 1475 1108 C 1445 1159 1410 1206 1369 1248 C 1328 1290 1282 1326 1232 1356 C 1181 1386 1126 1409 1068 1425 C 1010 1441 949 1450 885 1450 C 789 1450 700 1432 618 1396 C 536 1360 464 1311 403 1249 C 342 1187 294 1114 259 1030 C 224 946 207 856 207 760 C 207 696 215 634 231 575 C 247 515 269 460 298 409 C 327 357 362 310 403 268 C 444 226 490 190 540 160 C 590 130 645 106 703 90 C 761 74 823 66 887 66 Z M 885 -29 C 812 -29 742 -19 676 -1 C 609 17 547 43 489 77 C 431 111 378 151 331 199 C 283 247 243 300 209 358 C 175 416 149 479 131 547 C 113 614 104 684 104 758 C 104 830 113 900 131 967 C 149 1034 176 1097 210 1155 C 244 1213 284 1266 332 1314 C 379 1362 432 1403 490 1437 C 548 1471 610 1497 677 1516 C 744 1534 814 1544 887 1544 C 960 1544 1030 1534 1097 1516 C 1164 1497 1226 1471 1284 1437 C 1342 1403 1394 1363 1442 1315 C 1489 1267 1529 1215 1563 1157 C 1597 1099 1623 1036 1641 969 C 1659 902 1669 832 1669 760 C 1669 687 1659 617 1641 549 C 1623 481 1597 418 1563 360 C 1529 302 1488 249 1441 201 C 1393 153 1341 112 1283 78 C 1225 44 1162 17 1095 -1 C 1027 -19 957 -29 885 -29 Z M 881 319 C 827 319 778 329 734 351 C 690 372 652 402 621 442 C 590 482 566 529 549 585 C 532 640 524 702 524 770 C 524 835 532 895 549 950 C 566 1004 590 1051 621 1091 C 652 1131 690 1162 734 1184 C 778 1206 828 1217 883 1217 C 927 1217 967 1210 1002 1198 C 1037 1185 1068 1167 1095 1143 C 1121 1119 1144 1091 1162 1057 C 1180 1023 1195 984 1206 942 L 1096 915 C 1086 947 1075 975 1063 999 C 1051 1023 1036 1043 1020 1060 C 1003 1076 983 1089 961 1097 C 939 1105 913 1110 885 1110 C 847 1110 814 1101 784 1085 C 754 1069 729 1046 708 1017 C 687 987 671 952 660 910 C 648 868 643 822 643 772 C 643 718 648 669 659 627 C 670 584 686 548 707 518 C 728 488 754 466 784 450 C 814 434 847 426 885 426 C 943 426 990 443 1026 478 C 1062 512 1088 565 1106 635 C 1134 626 1158 619 1179 614 C 1199 608 1212 606 1217 606 C 1193 516 1153 445 1099 395 C 1044 344 971 319 881 319 Z" unicode="©" />
<glyph horiz-adv-x="848" d="M 387 862 C 427 862 467 872 509 892 C 550 912 591 939 631 971 L 666 1165 C 587 1157 522 1147 472 1135 C 421 1122 381 1107 351 1089 C 321 1071 300 1052 288 1030 C 276 1008 270 984 270 958 C 268 930 277 907 296 889 C 314 871 345 862 387 862 Z M 342 754 C 306 754 275 758 249 768 C 222 778 200 791 182 808 C 164 825 151 845 143 868 C 135 890 131 915 133 942 C 135 984 145 1023 165 1059 C 185 1094 216 1125 259 1152 C 302 1178 358 1201 427 1219 C 496 1237 581 1250 682 1260 L 688 1296 C 697 1339 693 1373 675 1397 C 657 1421 619 1434 563 1434 C 515 1434 470 1426 428 1410 C 386 1394 342 1368 297 1333 L 236 1417 C 290 1459 345 1490 401 1510 C 457 1530 517 1540 582 1540 C 635 1540 678 1533 712 1519 C 746 1505 771 1487 789 1463 C 807 1439 817 1410 821 1377 C 824 1343 822 1307 815 1268 L 762 958 C 754 917 750 883 748 855 C 746 827 748 798 756 770 L 616 770 C 614 786 612 803 612 820 C 611 836 612 854 616 872 C 570 834 523 804 475 784 C 427 764 383 754 342 754 Z" unicode="ª" />
<glyph horiz-adv-x="1110" d="M 692 0 L 475 543 L 883 1081 L 1059 1081 L 659 543 L 868 0 L 692 0 Z M 262 0 L 47 543 L 455 1081 L 631 1081 L 231 543 L 438 0 L 262 0 Z" unicode="«" />
<glyph horiz-adv-x="1536" d="M 1116 352 L 1116 728 L 212 728 L 212 920 L 1296 920 L 1296 352 L 1116 352 Z" unicode="¬" />
<glyph horiz-adv-x="731" d="M 96 573 L 123 713 L 598 713 L 571 573 L 96 573 Z" unicode="­" />
<glyph horiz-adv-x="1114" d="M 414 1346 L 598 1346 C 658 1346 705 1333 738 1307 C 771 1281 788 1243 788 1194 C 788 1152 778 1119 758 1097 C 738 1074 712 1058 678 1049 L 803 819 L 713 819 L 596 1038 L 494 1038 L 494 819 L 414 819 L 414 1346 Z M 590 596 C 523 596 461 608 403 633 C 345 657 295 691 253 734 C 211 777 177 828 153 886 C 129 944 117 1006 117 1073 C 117 1139 129 1202 154 1260 C 178 1318 212 1368 255 1411 C 297 1454 347 1488 405 1513 C 463 1537 525 1550 592 1550 C 658 1550 719 1537 777 1513 C 834 1488 884 1454 926 1411 C 968 1368 1002 1318 1026 1260 C 1050 1202 1063 1141 1063 1075 C 1063 1007 1050 945 1026 887 C 1001 829 967 778 925 735 C 883 691 833 657 775 633 C 717 608 656 596 590 596 Z M 592 664 C 648 664 700 674 749 695 C 798 716 841 745 877 782 C 913 819 941 862 962 912 C 982 962 993 1015 993 1073 C 993 1129 982 1183 961 1233 C 940 1283 911 1326 875 1364 C 839 1401 796 1430 747 1452 C 698 1474 646 1485 590 1485 C 534 1485 481 1474 432 1453 C 382 1431 339 1402 303 1365 C 267 1328 238 1285 217 1235 C 196 1185 186 1131 186 1075 C 186 1017 196 964 217 914 C 238 864 267 820 304 783 C 340 746 383 717 433 696 C 482 674 535 664 592 664 Z M 594 1106 C 630 1106 658 1112 678 1124 C 698 1136 709 1158 709 1190 C 709 1220 698 1241 678 1253 C 658 1265 630 1272 594 1272 L 494 1272 L 494 1106 L 594 1106 Z" unicode="®" />
<glyph horiz-adv-x="1010" d="M 315 1194 L 340 1335 L 879 1335 L 854 1194 L 315 1194 Z" unicode="¯" />
<glyph horiz-adv-x="815" d="M 471 1061 C 495 1061 520 1065 544 1075 C 568 1085 590 1099 609 1117 C 627 1135 642 1158 654 1185 C 666 1212 672 1243 672 1278 C 672 1300 668 1322 661 1342 C 653 1362 643 1379 630 1393 C 616 1407 600 1419 581 1427 C 562 1435 541 1440 518 1440 C 492 1440 468 1435 444 1425 C 420 1415 398 1401 380 1383 C 361 1365 346 1342 334 1315 C 322 1288 317 1257 317 1223 C 317 1199 320 1178 328 1158 C 335 1138 345 1121 359 1107 C 372 1092 388 1081 407 1073 C 426 1065 447 1061 471 1061 Z M 469 956 C 427 956 390 962 357 976 C 323 990 295 1008 272 1032 C 249 1056 231 1083 219 1115 C 207 1147 201 1181 201 1217 C 201 1268 210 1314 230 1355 C 249 1395 274 1430 305 1458 C 335 1486 370 1507 408 1522 C 446 1536 484 1544 522 1544 C 563 1544 600 1537 634 1524 C 667 1510 695 1492 719 1469 C 742 1445 760 1418 772 1386 C 784 1354 791 1320 791 1284 C 791 1232 781 1186 762 1146 C 742 1105 717 1071 687 1043 C 656 1015 621 993 583 978 C 545 963 507 956 469 956 Z" unicode="°" />
<glyph horiz-adv-x="1307" d="M 135 229 L 580 229 L 580 655 L 135 655 L 135 801 L 580 801 L 580 1251 L 729 1251 L 729 801 L 1174 801 L 1174 655 L 729 655 L 729 229 L 1174 229 L 1174 90 L 135 90 L 135 229 Z" unicode="±" />
<glyph horiz-adv-x="926" d="M 111 608 C 121 666 137 716 160 758 C 182 800 209 837 239 868 C 269 899 302 926 338 949 C 374 971 409 992 445 1011 C 481 1030 515 1048 549 1065 C 582 1082 611 1101 637 1121 C 662 1141 682 1163 698 1189 C 713 1214 721 1244 721 1280 C 721 1297 718 1313 712 1329 C 706 1344 698 1357 687 1369 C 675 1381 661 1390 644 1397 C 626 1403 606 1407 584 1407 C 562 1407 542 1404 522 1400 C 502 1396 482 1388 462 1378 C 442 1367 423 1352 403 1334 C 383 1316 364 1293 344 1266 L 242 1339 C 266 1375 293 1405 322 1430 C 350 1455 380 1475 410 1491 C 440 1507 472 1518 504 1525 C 536 1532 569 1536 602 1536 C 646 1536 685 1529 719 1517 C 753 1505 781 1488 803 1466 C 825 1444 842 1419 853 1390 C 864 1360 870 1328 870 1294 C 870 1249 862 1210 848 1177 C 834 1143 815 1114 791 1088 C 767 1062 739 1040 708 1020 C 676 1000 644 981 610 963 C 576 945 543 928 509 911 C 475 893 443 874 414 854 C 384 834 358 811 336 785 C 314 759 297 730 287 696 L 770 696 L 748 565 L 102 565 L 111 608 Z" unicode="²" />
<glyph horiz-adv-x="926" d="M 446 549 C 362 549 292 566 236 601 C 180 635 139 685 111 750 L 223 819 C 236 791 251 768 267 750 C 283 732 301 717 321 707 C 340 696 361 688 383 684 C 405 680 428 678 453 678 C 485 678 513 682 539 690 C 565 698 587 710 606 726 C 624 741 639 760 649 783 C 659 805 664 831 664 860 C 664 883 661 904 653 923 C 645 942 632 958 615 972 C 597 985 575 995 548 1003 C 521 1010 489 1014 451 1014 L 375 1014 L 395 1126 L 477 1126 C 555 1126 615 1138 657 1162 C 699 1186 721 1227 721 1286 C 721 1302 718 1318 713 1333 C 707 1347 699 1360 687 1371 C 675 1382 659 1391 640 1397 C 621 1403 598 1407 571 1407 C 531 1407 492 1399 454 1383 C 416 1367 378 1343 340 1309 L 266 1399 C 318 1449 372 1484 427 1505 C 482 1525 540 1536 600 1536 C 648 1536 690 1529 724 1517 C 758 1504 787 1487 809 1467 C 831 1446 847 1422 857 1395 C 867 1367 872 1339 872 1311 C 872 1250 855 1199 822 1158 C 789 1116 740 1086 676 1067 C 725 1050 761 1024 783 990 C 805 956 817 916 817 870 C 817 820 807 775 789 735 C 770 695 744 662 711 634 C 678 606 639 585 594 571 C 548 556 499 549 446 549 Z" unicode="³" />
<glyph horiz-adv-x="1010" d="M 434 1198 L 668 1522 L 881 1522 L 549 1198 L 434 1198 Z" unicode="´" />
<glyph horiz-adv-x="1188" d="M -49 -410 L 215 1081 L 389 1081 L 260 344 C 246 273 253 219 281 182 C 308 145 360 127 438 127 C 494 127 550 142 606 173 C 662 204 719 245 776 297 L 915 1081 L 1090 1081 L 899 0 L 723 0 L 754 166 C 732 144 707 122 679 100 C 651 78 621 59 589 42 C 557 24 524 10 490 0 C 455 -10 420 -16 385 -16 C 343 -16 307 -9 277 3 C 246 16 224 36 211 63 L 127 -410 L -49 -410 Z" unicode="µ" />
<glyph horiz-adv-x="1260" d="M 403 -410 L 594 682 C 528 686 469 697 416 715 C 363 733 318 758 281 790 C 243 821 214 858 194 902 C 174 946 164 995 164 1051 C 164 1122 176 1186 201 1244 C 226 1301 261 1350 306 1390 C 351 1430 405 1461 468 1483 C 530 1505 600 1516 676 1516 L 1210 1516 L 872 -410 L 733 -410 L 1047 1372 L 856 1372 L 543 -410 L 403 -410 Z" unicode="¶" />
<glyph horiz-adv-x="559" d="M 137 551 L 174 766 L 389 766 L 350 551 L 137 551 Z" unicode="·" />
<glyph horiz-adv-x="1010" d="M 336 -401 C 274 -401 222 -394 181 -382 C 140 -369 104 -351 72 -328 L 125 -260 C 151 -280 180 -296 211 -306 C 241 -316 278 -322 322 -322 C 366 -322 399 -314 423 -298 C 447 -282 459 -256 459 -221 C 459 -203 452 -189 440 -177 C 428 -165 410 -160 387 -160 C 371 -160 355 -163 338 -170 C 320 -177 305 -187 291 -201 L 233 -170 L 317 0 L 412 0 L 362 -111 C 374 -101 389 -94 406 -88 C 423 -82 442 -80 463 -80 C 499 -80 529 -91 553 -114 C 577 -136 590 -167 590 -207 C 590 -245 582 -276 567 -301 C 551 -326 531 -346 507 -361 C 482 -375 455 -386 425 -392 C 395 -398 365 -401 336 -401 Z" unicode="¸" />
<glyph horiz-adv-x="729" d="M 145 690 L 322 690 L 442 1372 C 415 1362 386 1353 355 1347 C 324 1340 294 1337 264 1337 L 285 1456 C 326 1457 362 1462 394 1471 C 425 1480 452 1495 475 1516 L 614 1516 L 471 690 L 627 690 L 604 565 L 125 565 L 145 690 Z" unicode="¹" />
<glyph horiz-adv-x="879" d="M 477 862 C 511 862 544 870 575 887 C 606 903 633 927 657 957 C 680 987 698 1024 712 1068 C 726 1111 733 1160 733 1214 C 733 1244 729 1272 722 1299 C 715 1325 704 1349 689 1369 C 674 1389 654 1404 630 1416 C 606 1428 577 1434 543 1434 C 507 1434 474 1425 443 1409 C 412 1392 385 1368 362 1338 C 339 1307 321 1270 307 1227 C 293 1183 287 1135 287 1083 C 287 1053 290 1024 297 998 C 303 971 314 947 329 927 C 344 907 364 891 388 879 C 412 867 442 862 477 862 Z M 473 754 C 425 754 381 761 342 776 C 302 790 268 811 240 839 C 212 867 190 901 175 941 C 159 981 152 1026 152 1077 C 152 1132 157 1182 169 1226 C 181 1270 197 1310 217 1345 C 237 1379 260 1409 287 1434 C 313 1458 341 1479 370 1495 C 399 1511 429 1522 459 1530 C 489 1538 517 1542 545 1542 C 593 1542 637 1534 677 1520 C 717 1505 751 1484 779 1456 C 807 1428 829 1393 845 1353 C 860 1313 868 1267 868 1217 C 868 1162 862 1113 850 1069 C 838 1025 822 985 802 951 C 782 917 758 887 732 862 C 706 837 678 817 649 801 C 619 785 589 773 559 765 C 529 757 500 754 473 754 Z" unicode="º" />
<glyph horiz-adv-x="1110" d="M 406 0 L 803 543 L 598 1081 L 774 1081 L 987 543 L 582 0 L 406 0 Z M -25 0 L 375 543 L 168 1081 L 344 1081 L 559 543 L 154 0 L -25 0 Z" unicode="»" />
<glyph horiz-adv-x="1946" d="M 102 680 L 279 680 L 399 1360 C 372 1349 343 1340 312 1334 C 281 1328 251 1325 221 1325 L 242 1444 C 283 1445 319 1450 351 1460 C 382 1469 409 1484 432 1505 L 571 1505 L 428 680 L 584 680 L 561 553 L 82 553 L 102 680 Z M 332 0 L 1485 1516 L 1651 1516 L 498 0 L 332 0 Z M 1522 223 L 1087 223 L 1104 319 L 1638 952 L 1794 952 L 1688 348 L 1841 348 L 1821 223 L 1667 223 L 1628 2 L 1483 2 L 1522 223 Z M 1546 342 L 1622 772 L 1262 342 L 1546 342 Z" unicode="¼" />
<glyph horiz-adv-x="2064" d="M 102 680 L 279 680 L 399 1360 C 372 1349 343 1340 312 1334 C 281 1328 251 1325 221 1325 L 242 1444 C 283 1445 319 1450 351 1460 C 382 1469 409 1484 432 1505 L 571 1505 L 428 680 L 584 680 L 561 553 L 82 553 L 102 680 Z M 332 0 L 1485 1516 L 1651 1516 L 498 0 L 332 0 Z M 1192 45 C 1202 103 1218 153 1241 195 C 1264 237 1291 274 1321 305 C 1351 336 1384 363 1420 386 C 1456 408 1492 429 1528 448 C 1564 467 1598 485 1631 502 C 1664 519 1693 538 1719 558 C 1745 578 1765 600 1781 626 C 1796 651 1804 681 1804 717 C 1804 751 1792 781 1769 805 C 1745 829 1711 842 1665 842 C 1644 842 1624 839 1604 835 C 1584 831 1564 823 1544 813 C 1524 803 1504 789 1484 771 C 1464 753 1445 730 1425 702 L 1325 776 C 1349 812 1376 842 1404 867 C 1432 892 1461 912 1491 928 C 1521 944 1553 955 1585 962 C 1617 969 1650 973 1683 973 C 1728 973 1767 966 1801 954 C 1835 942 1863 925 1885 903 C 1907 881 1924 856 1935 826 C 1946 796 1952 765 1952 731 C 1952 686 1944 647 1930 614 C 1916 580 1897 551 1873 525 C 1849 499 1821 476 1790 456 C 1758 436 1726 417 1692 399 C 1658 381 1625 364 1591 347 C 1557 329 1525 310 1496 290 C 1466 270 1441 247 1419 222 C 1397 196 1380 167 1370 133 L 1851 133 L 1829 2 L 1186 2 L 1192 45 Z" unicode="½" />
<glyph horiz-adv-x="2071" d="M 403 537 C 319 537 249 554 193 588 C 137 622 96 673 68 739 L 180 807 C 193 779 208 756 224 738 C 240 720 258 705 278 695 C 297 684 318 676 340 672 C 362 668 385 666 410 666 C 442 666 470 670 496 678 C 522 686 544 698 563 714 C 581 729 596 748 606 771 C 616 793 621 819 621 848 C 621 871 618 892 610 911 C 602 930 589 946 572 960 C 554 973 532 983 505 990 C 478 997 446 1001 408 1001 L 332 1001 L 352 1114 L 434 1114 C 512 1114 572 1126 614 1150 C 656 1174 678 1215 678 1274 C 678 1290 675 1305 670 1320 C 664 1334 656 1347 644 1358 C 632 1369 616 1378 597 1385 C 578 1391 555 1395 528 1395 C 488 1395 449 1387 411 1372 C 373 1356 335 1331 297 1296 L 223 1386 C 275 1436 329 1472 384 1494 C 439 1515 497 1526 557 1526 C 605 1526 647 1519 681 1507 C 715 1494 744 1477 766 1456 C 788 1435 804 1411 814 1384 C 824 1356 829 1328 829 1298 C 829 1237 812 1186 779 1145 C 746 1104 697 1074 633 1055 C 682 1038 718 1012 740 978 C 762 943 774 903 774 858 C 774 808 764 763 746 723 C 727 683 701 650 668 622 C 635 594 596 573 551 559 C 505 544 456 537 403 537 Z M 457 0 L 1610 1516 L 1776 1516 L 623 0 L 457 0 Z M 1647 223 L 1212 223 L 1229 319 L 1763 952 L 1919 952 L 1812 348 L 1966 348 L 1946 223 L 1792 223 L 1753 2 L 1608 2 L 1647 223 Z M 1671 342 L 1747 772 L 1386 342 L 1671 342 Z" unicode="¾" />
<glyph horiz-adv-x="1104" d="M 602 1307 L 639 1516 L 848 1516 L 811 1307 L 602 1307 Z M 463 -29 C 389 -29 324 -19 270 -1 C 215 16 170 41 134 73 C 98 105 71 141 53 183 C 35 225 27 269 27 317 C 27 359 31 396 39 429 C 47 461 59 490 73 516 C 87 541 104 563 124 583 C 143 602 164 620 187 636 C 209 652 233 666 258 679 C 282 692 307 705 332 719 C 367 737 397 753 423 769 C 448 784 469 799 487 814 C 505 829 519 845 531 862 C 543 878 552 897 560 919 C 568 941 574 966 580 994 C 585 1022 590 1056 596 1094 L 739 1094 C 737 1054 734 1019 730 989 C 726 959 721 931 715 903 C 705 862 692 828 676 800 C 660 772 639 747 615 725 C 591 703 562 684 530 666 C 497 648 460 628 420 608 C 391 594 364 579 338 565 C 312 550 290 533 270 513 C 250 493 235 469 224 442 C 212 414 207 381 207 342 C 207 310 212 282 223 256 C 233 230 250 207 272 189 C 294 171 323 156 358 146 C 392 136 433 131 481 131 C 514 131 546 134 576 140 C 606 146 636 155 665 168 C 694 181 723 198 751 218 C 779 238 808 263 836 293 L 944 188 C 878 115 803 61 721 25 C 638 -11 552 -29 463 -29 Z" unicode="¿" />
<glyph horiz-adv-x="1372" d="M -68 0 L 729 1522 L 915 1522 L 1174 0 L 995 0 L 924 446 L 344 446 L 115 0 L -68 0 Z M 420 600 L 901 600 L 788 1305 L 784 1305 L 420 600 Z M 786 1618 L 512 1942 L 722 1942 L 901 1618 L 786 1618 Z" unicode="À" />
<glyph horiz-adv-x="1372" d="M -68 0 L 729 1522 L 915 1522 L 1174 0 L 995 0 L 924 446 L 344 446 L 115 0 L -68 0 Z M 420 600 L 901 600 L 788 1305 L 784 1305 L 420 600 Z M 766 1618 L 1000 1942 L 1213 1942 L 881 1618 L 766 1618 Z" unicode="Á" />
<glyph horiz-adv-x="1372" d="M -68 0 L 729 1522 L 915 1522 L 1174 0 L 995 0 L 924 446 L 344 446 L 115 0 L -68 0 Z M 420 600 L 901 600 L 788 1305 L 784 1305 L 420 600 Z M 514 1612 L 827 1942 L 956 1942 L 1155 1612 L 1046 1612 L 866 1804 L 618 1612 L 514 1612 Z" unicode="Â" />
<glyph horiz-adv-x="1372" d="M -68 0 L 729 1522 L 915 1522 L 1174 0 L 995 0 L 924 446 L 344 446 L 115 0 L -68 0 Z M 420 600 L 901 600 L 788 1305 L 784 1305 L 420 600 Z M 996 1608 C 968 1608 941 1614 915 1626 C 889 1638 865 1651 842 1665 C 818 1679 796 1693 776 1705 C 755 1717 735 1723 717 1723 C 687 1723 664 1714 648 1697 C 632 1680 621 1652 615 1612 L 504 1612 C 515 1697 538 1759 574 1798 C 610 1836 658 1856 719 1856 C 747 1856 775 1850 801 1838 C 827 1826 851 1812 875 1798 C 898 1784 920 1771 940 1759 C 960 1747 978 1741 996 1741 C 1026 1741 1049 1749 1065 1766 C 1081 1783 1092 1812 1100 1852 L 1213 1852 C 1199 1767 1174 1705 1138 1666 C 1102 1627 1054 1608 996 1608 Z" unicode="Ã" />
<glyph horiz-adv-x="1372" d="M -68 0 L 729 1522 L 915 1522 L 1174 0 L 995 0 L 924 446 L 344 446 L 115 0 L -68 0 Z M 420 600 L 901 600 L 788 1305 L 784 1305 L 420 600 Z M 924 1614 L 957 1806 L 1137 1806 L 1104 1614 L 924 1614 Z M 566 1614 L 598 1806 L 779 1806 L 746 1614 L 566 1614 Z" unicode="Ä" />
<glyph horiz-adv-x="1372" d="M -68 0 L 711 1489 C 691 1502 677 1520 667 1542 C 657 1564 653 1589 653 1616 C 653 1648 658 1678 670 1704 C 682 1730 697 1753 717 1771 C 737 1789 759 1804 784 1814 C 809 1824 835 1829 862 1829 C 890 1829 914 1824 935 1815 C 956 1806 974 1794 988 1779 C 1002 1764 1013 1746 1021 1726 C 1028 1705 1032 1683 1032 1661 C 1032 1615 1021 1577 1000 1545 C 979 1513 954 1490 924 1475 L 1174 0 L 997 0 L 924 453 L 346 453 L 115 0 L -68 0 Z M 420 594 L 903 594 L 788 1305 L 784 1305 L 420 594 Z M 829 1526 C 844 1526 859 1528 873 1534 C 887 1540 899 1548 909 1559 C 919 1570 928 1584 934 1600 C 940 1616 944 1634 944 1655 C 944 1680 936 1702 921 1720 C 906 1738 884 1747 856 1747 C 840 1747 826 1744 812 1738 C 798 1732 785 1723 775 1712 C 765 1701 756 1688 750 1672 C 744 1656 741 1638 741 1618 C 741 1592 748 1571 762 1553 C 776 1535 799 1526 829 1526 Z" unicode="Å" />
<glyph horiz-adv-x="2048" d="M 565 627 L 987 627 L 1118 1370 L 1116 1370 L 565 627 Z M -88 0 L 1040 1516 L 2048 1516 L 2019 1350 L 1292 1350 L 1208 877 L 1745 877 L 1716 717 L 1180 717 L 1083 164 L 1853 164 L 1825 0 L 877 0 L 961 473 L 451 473 L 100 0 L -88 0 Z" unicode="Æ" />
<glyph horiz-adv-x="1423" d="M 651 -29 C 561 -29 482 -13 414 16 C 345 46 287 89 240 145 C 192 200 156 266 132 343 C 108 420 96 506 96 600 C 96 694 105 782 123 866 C 141 949 166 1026 199 1096 C 231 1166 270 1228 315 1284 C 360 1339 410 1386 465 1425 C 519 1463 577 1493 639 1513 C 701 1533 765 1544 831 1544 C 921 1544 997 1532 1061 1509 C 1124 1486 1176 1453 1217 1411 C 1258 1369 1289 1318 1311 1258 C 1332 1198 1346 1132 1352 1059 L 1176 1044 C 1172 1099 1162 1148 1148 1190 C 1134 1232 1113 1267 1085 1295 C 1057 1323 1022 1344 978 1358 C 934 1372 881 1380 819 1380 C 746 1380 677 1361 611 1325 C 545 1289 488 1237 438 1170 C 388 1102 349 1021 320 925 C 290 829 276 721 276 602 C 276 529 284 464 301 406 C 317 348 342 298 375 258 C 407 218 447 187 495 165 C 542 143 597 133 659 133 C 711 133 758 139 802 152 C 845 165 885 186 922 215 C 959 244 993 282 1025 329 C 1056 375 1086 432 1114 500 L 1270 440 C 1209 289 1128 173 1027 92 C 925 11 800 -29 651 -29 Z M 541 -401 C 479 -401 427 -394 386 -382 C 345 -369 309 -351 277 -328 L 330 -260 C 356 -280 385 -296 416 -306 C 446 -316 483 -322 527 -322 C 571 -322 604 -314 628 -298 C 652 -282 664 -256 664 -221 C 664 -203 657 -189 645 -177 C 633 -165 615 -160 592 -160 C 576 -160 560 -163 543 -170 C 525 -177 510 -187 496 -201 L 438 -170 L 522 0 L 617 0 L 567 -111 C 579 -101 594 -94 611 -88 C 628 -82 647 -80 668 -80 C 704 -80 734 -91 758 -114 C 782 -136 795 -167 795 -207 C 795 -245 787 -276 772 -301 C 756 -326 736 -346 712 -361 C 687 -375 660 -386 630 -392 C 600 -398 570 -401 541 -401 Z" unicode="Ç" />
<glyph horiz-adv-x="1227" d="M 55 0 L 322 1516 L 1229 1516 L 1198 1350 L 471 1350 L 387 877 L 924 877 L 895 717 L 360 717 L 262 164 L 1032 164 L 1004 0 L 55 0 Z M 725 1618 L 451 1942 L 661 1942 L 840 1618 L 725 1618 Z" unicode="È" />
<glyph horiz-adv-x="1227" d="M 614 1618 L 848 1942 L 1061 1942 L 729 1618 L 614 1618 Z M 55 0 L 322 1516 L 1229 1516 L 1198 1350 L 471 1350 L 387 877 L 924 877 L 895 717 L 360 717 L 262 164 L 1032 164 L 1004 0 L 55 0 Z" unicode="É" />
<glyph horiz-adv-x="1227" d="M 447 1612 L 760 1942 L 889 1942 L 1088 1612 L 979 1612 L 799 1804 L 551 1612 L 447 1612 Z M 55 0 L 322 1516 L 1229 1516 L 1198 1350 L 471 1350 L 387 877 L 924 877 L 895 717 L 360 717 L 262 164 L 1032 164 L 1004 0 L 55 0 Z" unicode="Ê" />
<glyph horiz-adv-x="1227" d="M 856 1614 L 889 1806 L 1069 1806 L 1036 1614 L 856 1614 Z M 498 1614 L 530 1806 L 711 1806 L 678 1614 L 498 1614 Z M 55 0 L 322 1516 L 1229 1516 L 1198 1350 L 471 1350 L 387 877 L 924 877 L 895 717 L 360 717 L 262 164 L 1032 164 L 1004 0 L 55 0 Z" unicode="Ë" />
<glyph horiz-adv-x="594" d="M 74 0 L 340 1516 L 520 1516 L 254 0 L 74 0 Z M 407 1618 L 133 1942 L 343 1942 L 522 1618 L 407 1618 Z" unicode="Ì" />
<glyph horiz-adv-x="594" d="M 74 0 L 340 1516 L 520 1516 L 254 0 L 74 0 Z M 365 1618 L 599 1942 L 812 1942 L 480 1618 L 365 1618 Z" unicode="Í" />
<glyph horiz-adv-x="594" d="M 74 0 L 340 1516 L 520 1516 L 254 0 L 74 0 Z M 130 1612 L 443 1942 L 572 1942 L 771 1612 L 662 1612 L 482 1804 L 234 1612 L 130 1612 Z" unicode="Î" />
<glyph horiz-adv-x="594" d="M 74 0 L 340 1516 L 520 1516 L 254 0 L 74 0 Z M 538 1614 L 571 1806 L 751 1806 L 718 1614 L 538 1614 Z M 180 1614 L 212 1806 L 393 1806 L 360 1614 L 180 1614 Z" unicode="Ï" />
<glyph horiz-adv-x="1444" d="M 55 0 L 182 723 L 18 723 L 43 868 L 207 868 L 322 1516 L 651 1516 C 765 1516 866 1502 954 1474 C 1041 1446 1114 1406 1173 1354 C 1231 1301 1275 1236 1305 1160 C 1335 1084 1350 997 1350 899 C 1350 750 1330 620 1290 508 C 1250 396 1193 302 1118 227 C 1043 151 952 95 844 57 C 736 19 613 0 477 0 L 55 0 Z M 262 162 L 508 162 C 722 162 885 222 998 343 C 1110 463 1167 645 1167 889 C 1167 1038 1124 1152 1039 1231 C 954 1310 823 1350 647 1350 L 471 1350 L 385 868 L 711 868 L 684 723 L 360 723 L 262 162 Z" unicode="Ð" />
<glyph horiz-adv-x="1513" d="M 55 0 L 322 1516 L 510 1516 L 1075 309 L 1079 309 L 1292 1516 L 1460 1516 L 1194 0 L 1032 0 L 444 1241 L 440 1241 L 223 0 L 55 0 Z M 1067 1608 C 1039 1608 1012 1614 986 1626 C 960 1638 936 1651 913 1665 C 889 1679 867 1693 847 1705 C 826 1717 806 1723 788 1723 C 758 1723 735 1714 719 1697 C 703 1680 692 1652 686 1612 L 575 1612 C 586 1697 609 1759 645 1798 C 681 1836 729 1856 790 1856 C 818 1856 846 1850 872 1838 C 898 1826 922 1812 946 1798 C 969 1784 991 1771 1011 1759 C 1031 1747 1049 1741 1067 1741 C 1097 1741 1120 1749 1136 1766 C 1152 1783 1163 1812 1171 1852 L 1284 1852 C 1270 1767 1245 1705 1209 1666 C 1173 1627 1125 1608 1067 1608 Z" unicode="Ñ" />
<glyph horiz-adv-x="1513" d="M 666 133 C 713 133 760 140 807 154 C 854 168 899 190 941 218 C 983 246 1023 282 1059 325 C 1095 368 1126 418 1152 476 C 1178 533 1199 597 1214 669 C 1229 741 1237 820 1237 907 C 1237 979 1228 1045 1211 1103 C 1194 1161 1169 1211 1136 1252 C 1103 1293 1063 1325 1015 1347 C 967 1369 912 1380 850 1380 C 780 1380 710 1364 642 1333 C 574 1301 512 1254 458 1190 C 404 1126 360 1046 326 950 C 292 854 276 741 276 612 C 276 538 284 471 302 412 C 320 353 345 303 379 262 C 412 220 453 188 501 166 C 549 144 604 133 666 133 Z M 655 -29 C 569 -29 491 -13 422 18 C 353 49 294 93 246 149 C 198 205 161 273 135 352 C 109 430 96 517 96 612 C 96 711 106 803 126 888 C 146 972 173 1049 209 1118 C 245 1187 287 1248 336 1301 C 384 1354 437 1399 495 1435 C 552 1471 612 1498 676 1516 C 739 1534 803 1544 868 1544 C 952 1544 1027 1528 1095 1497 C 1163 1466 1220 1423 1268 1367 C 1316 1311 1352 1243 1378 1165 C 1404 1087 1417 1000 1417 905 C 1417 806 1407 714 1388 630 C 1368 545 1341 468 1307 399 C 1272 329 1231 268 1183 215 C 1135 161 1083 117 1027 81 C 971 45 911 17 848 -1 C 784 -19 720 -29 655 -29 Z M 868 1618 L 594 1942 L 804 1942 L 983 1618 L 868 1618 Z" unicode="Ò" />
<glyph horiz-adv-x="1513" d="M 756 1618 L 990 1942 L 1203 1942 L 871 1618 L 756 1618 Z M 666 133 C 713 133 760 140 807 154 C 854 168 899 190 941 218 C 983 246 1023 282 1059 325 C 1095 368 1126 418 1152 476 C 1178 533 1199 597 1214 669 C 1229 741 1237 820 1237 907 C 1237 979 1228 1045 1211 1103 C 1194 1161 1169 1211 1136 1252 C 1103 1293 1063 1325 1015 1347 C 967 1369 912 1380 850 1380 C 780 1380 710 1364 642 1333 C 574 1301 512 1254 458 1190 C 404 1126 360 1046 326 950 C 292 854 276 741 276 612 C 276 538 284 471 302 412 C 320 353 345 303 379 262 C 412 220 453 188 501 166 C 549 144 604 133 666 133 Z M 655 -29 C 569 -29 491 -13 422 18 C 353 49 294 93 246 149 C 198 205 161 273 135 352 C 109 430 96 517 96 612 C 96 711 106 803 126 888 C 146 972 173 1049 209 1118 C 245 1187 287 1248 336 1301 C 384 1354 437 1399 495 1435 C 552 1471 612 1498 676 1516 C 739 1534 803 1544 868 1544 C 952 1544 1027 1528 1095 1497 C 1163 1466 1220 1423 1268 1367 C 1316 1311 1352 1243 1378 1165 C 1404 1087 1417 1000 1417 905 C 1417 806 1407 714 1388 630 C 1368 545 1341 468 1307 399 C 1272 329 1231 268 1183 215 C 1135 161 1083 117 1027 81 C 971 45 911 17 848 -1 C 784 -19 720 -29 655 -29 Z" unicode="Ó" />
<glyph horiz-adv-x="1513" d="M 586 1612 L 899 1942 L 1028 1942 L 1227 1612 L 1118 1612 L 938 1804 L 690 1612 L 586 1612 Z M 666 133 C 713 133 760 140 807 154 C 854 168 899 190 941 218 C 983 246 1023 282 1059 325 C 1095 368 1126 418 1152 476 C 1178 533 1199 597 1214 669 C 1229 741 1237 820 1237 907 C 1237 979 1228 1045 1211 1103 C 1194 1161 1169 1211 1136 1252 C 1103 1293 1063 1325 1015 1347 C 967 1369 912 1380 850 1380 C 780 1380 710 1364 642 1333 C 574 1301 512 1254 458 1190 C 404 1126 360 1046 326 950 C 292 854 276 741 276 612 C 276 538 284 471 302 412 C 320 353 345 303 379 262 C 412 220 453 188 501 166 C 549 144 604 133 666 133 Z M 655 -29 C 569 -29 491 -13 422 18 C 353 49 294 93 246 149 C 198 205 161 273 135 352 C 109 430 96 517 96 612 C 96 711 106 803 126 888 C 146 972 173 1049 209 1118 C 245 1187 287 1248 336 1301 C 384 1354 437 1399 495 1435 C 552 1471 612 1498 676 1516 C 739 1534 803 1544 868 1544 C 952 1544 1027 1528 1095 1497 C 1163 1466 1220 1423 1268 1367 C 1316 1311 1352 1243 1378 1165 C 1404 1087 1417 1000 1417 905 C 1417 806 1407 714 1388 630 C 1368 545 1341 468 1307 399 C 1272 329 1231 268 1183 215 C 1135 161 1083 117 1027 81 C 971 45 911 17 848 -1 C 784 -19 720 -29 655 -29 Z" unicode="Ô" />
<glyph horiz-adv-x="1513" d="M 666 133 C 713 133 760 140 807 154 C 854 168 899 190 941 218 C 983 246 1023 282 1059 325 C 1095 368 1126 418 1152 476 C 1178 533 1199 597 1214 669 C 1229 741 1237 820 1237 907 C 1237 979 1228 1045 1211 1103 C 1194 1161 1169 1211 1136 1252 C 1103 1293 1063 1325 1015 1347 C 967 1369 912 1380 850 1380 C 780 1380 710 1364 642 1333 C 574 1301 512 1254 458 1190 C 404 1126 360 1046 326 950 C 292 854 276 741 276 612 C 276 538 284 471 302 412 C 320 353 345 303 379 262 C 412 220 453 188 501 166 C 549 144 604 133 666 133 Z M 655 -29 C 569 -29 491 -13 422 18 C 353 49 294 93 246 149 C 198 205 161 273 135 352 C 109 430 96 517 96 612 C 96 711 106 803 126 888 C 146 972 173 1049 209 1118 C 245 1187 287 1248 336 1301 C 384 1354 437 1399 495 1435 C 552 1471 612 1498 676 1516 C 739 1534 803 1544 868 1544 C 952 1544 1027 1528 1095 1497 C 1163 1466 1220 1423 1268 1367 C 1316 1311 1352 1243 1378 1165 C 1404 1087 1417 1000 1417 905 C 1417 806 1407 714 1388 630 C 1368 545 1341 468 1307 399 C 1272 329 1231 268 1183 215 C 1135 161 1083 117 1027 81 C 971 45 911 17 848 -1 C 784 -19 720 -29 655 -29 Z M 1067 1608 C 1039 1608 1012 1614 986 1626 C 960 1638 936 1651 913 1665 C 889 1679 867 1693 847 1705 C 826 1717 806 1723 788 1723 C 758 1723 735 1714 719 1697 C 703 1680 692 1652 686 1612 L 575 1612 C 586 1697 609 1759 645 1798 C 681 1836 729 1856 790 1856 C 818 1856 846 1850 872 1838 C 898 1826 922 1812 946 1798 C 969 1784 991 1771 1011 1759 C 1031 1747 1049 1741 1067 1741 C 1097 1741 1120 1749 1136 1766 C 1152 1783 1163 1812 1171 1852 L 1284 1852 C 1270 1767 1245 1705 1209 1666 C 1173 1627 1125 1608 1067 1608 Z" unicode="Õ" />
<glyph horiz-adv-x="1513" d="M 993 1614 L 1026 1806 L 1206 1806 L 1173 1614 L 993 1614 Z M 635 1614 L 667 1806 L 848 1806 L 815 1614 L 635 1614 Z M 666 133 C 713 133 760 140 807 154 C 854 168 899 190 941 218 C 983 246 1023 282 1059 325 C 1095 368 1126 418 1152 476 C 1178 533 1199 597 1214 669 C 1229 741 1237 820 1237 907 C 1237 979 1228 1045 1211 1103 C 1194 1161 1169 1211 1136 1252 C 1103 1293 1063 1325 1015 1347 C 967 1369 912 1380 850 1380 C 780 1380 710 1364 642 1333 C 574 1301 512 1254 458 1190 C 404 1126 360 1046 326 950 C 292 854 276 741 276 612 C 276 538 284 471 302 412 C 320 353 345 303 379 262 C 412 220 453 188 501 166 C 549 144 604 133 666 133 Z M 655 -29 C 569 -29 491 -13 422 18 C 353 49 294 93 246 149 C 198 205 161 273 135 352 C 109 430 96 517 96 612 C 96 711 106 803 126 888 C 146 972 173 1049 209 1118 C 245 1187 287 1248 336 1301 C 384 1354 437 1399 495 1435 C 552 1471 612 1498 676 1516 C 739 1534 803 1544 868 1544 C 952 1544 1027 1528 1095 1497 C 1163 1466 1220 1423 1268 1367 C 1316 1311 1352 1243 1378 1165 C 1404 1087 1417 1000 1417 905 C 1417 806 1407 714 1388 630 C 1368 545 1341 468 1307 399 C 1272 329 1231 268 1183 215 C 1135 161 1083 117 1027 81 C 971 45 911 17 848 -1 C 784 -19 720 -29 655 -29 Z" unicode="Ö" />
<glyph horiz-adv-x="1307" d="M 293 201 L 188 305 L 537 651 L 188 997 L 293 1102 L 639 754 L 987 1102 L 1090 997 L 743 651 L 1092 305 L 987 203 L 639 549 L 293 201 Z" unicode="×" />
<glyph horiz-adv-x="1513" d="M 653 -29 C 568 -29 492 -14 425 15 C 357 45 300 87 252 141 L 80 -41 L -8 33 L 186 233 C 156 285 133 343 118 406 C 103 469 96 538 96 612 C 96 711 106 803 126 888 C 146 972 173 1049 209 1118 C 244 1187 286 1248 335 1301 C 383 1354 436 1399 494 1435 C 551 1471 611 1498 675 1516 C 738 1534 802 1544 868 1544 C 950 1544 1024 1529 1090 1500 C 1156 1471 1213 1430 1262 1376 L 1436 1556 L 1522 1485 L 1327 1280 C 1355 1228 1377 1171 1393 1109 C 1409 1046 1417 978 1417 905 C 1417 806 1407 714 1387 630 C 1367 545 1340 468 1305 399 C 1270 329 1229 268 1181 215 C 1133 161 1080 117 1024 81 C 967 45 907 17 844 -1 C 781 -19 717 -29 653 -29 Z M 668 129 C 714 129 761 136 807 150 C 853 164 898 186 940 215 C 982 244 1022 280 1058 324 C 1094 367 1126 417 1153 475 C 1179 533 1200 597 1216 669 C 1231 741 1239 820 1239 907 C 1239 1002 1224 1083 1196 1151 L 367 270 C 401 224 443 189 493 165 C 543 141 602 129 668 129 Z M 848 1384 C 801 1384 754 1377 708 1363 C 661 1349 616 1327 574 1299 C 532 1270 492 1234 456 1192 C 419 1149 387 1099 360 1042 C 333 985 312 921 297 849 C 281 777 274 698 274 612 C 274 564 277 519 284 477 C 291 435 301 397 315 362 L 1145 1245 C 1111 1290 1070 1324 1020 1348 C 970 1372 912 1384 848 1384 Z" unicode="Ø" />
<glyph horiz-adv-x="1448" d="M 633 -29 C 561 -29 498 -21 443 -7 C 388 7 341 28 301 55 C 261 81 229 113 204 150 C 178 186 159 227 147 272 C 135 316 128 364 128 414 C 127 464 131 517 141 571 L 305 1516 L 485 1516 L 319 561 C 308 500 305 444 310 392 C 314 340 329 295 353 257 C 377 219 413 189 459 167 C 505 145 565 135 637 135 C 759 135 854 165 922 225 C 989 285 1033 376 1055 500 L 1233 1516 L 1409 1516 L 1227 471 C 1197 307 1133 182 1034 98 C 934 13 801 -29 633 -29 Z M 836 1618 L 562 1942 L 772 1942 L 951 1618 L 836 1618 Z" unicode="Ù" />
<glyph horiz-adv-x="1448" d="M 725 1618 L 959 1942 L 1172 1942 L 840 1618 L 725 1618 Z M 633 -29 C 561 -29 498 -21 443 -7 C 388 7 341 28 301 55 C 261 81 229 113 204 150 C 178 186 159 227 147 272 C 135 316 128 364 128 414 C 127 464 131 517 141 571 L 305 1516 L 485 1516 L 319 561 C 308 500 305 444 310 392 C 314 340 329 295 353 257 C 377 219 413 189 459 167 C 505 145 565 135 637 135 C 759 135 854 165 922 225 C 989 285 1033 376 1055 500 L 1233 1516 L 1409 1516 L 1227 471 C 1197 307 1133 182 1034 98 C 934 13 801 -29 633 -29 Z" unicode="Ú" />
<glyph horiz-adv-x="1448" d="M 553 1612 L 866 1942 L 995 1942 L 1194 1612 L 1085 1612 L 905 1804 L 657 1612 L 553 1612 Z M 633 -29 C 561 -29 498 -21 443 -7 C 388 7 341 28 301 55 C 261 81 229 113 204 150 C 178 186 159 227 147 272 C 135 316 128 364 128 414 C 127 464 131 517 141 571 L 305 1516 L 485 1516 L 319 561 C 308 500 305 444 310 392 C 314 340 329 295 353 257 C 377 219 413 189 459 167 C 505 145 565 135 637 135 C 759 135 854 165 922 225 C 989 285 1033 376 1055 500 L 1233 1516 L 1409 1516 L 1227 471 C 1197 307 1133 182 1034 98 C 934 13 801 -29 633 -29 Z" unicode="Û" />
<glyph horiz-adv-x="1448" d="M 963 1614 L 996 1806 L 1176 1806 L 1143 1614 L 963 1614 Z M 605 1614 L 637 1806 L 818 1806 L 785 1614 L 605 1614 Z M 633 -29 C 561 -29 498 -21 443 -7 C 388 7 341 28 301 55 C 261 81 229 113 204 150 C 178 186 159 227 147 272 C 135 316 128 364 128 414 C 127 464 131 517 141 571 L 305 1516 L 485 1516 L 319 561 C 308 500 305 444 310 392 C 314 340 329 295 353 257 C 377 219 413 189 459 167 C 505 145 565 135 637 135 C 759 135 854 165 922 225 C 989 285 1033 376 1055 500 L 1233 1516 L 1409 1516 L 1227 471 C 1197 307 1133 182 1034 98 C 934 13 801 -29 633 -29 Z" unicode="Ü" />
<glyph horiz-adv-x="1272" d="M 414 0 L 530 664 L 180 1516 L 362 1516 L 643 817 L 1165 1516 L 1360 1516 L 709 664 L 592 0 L 414 0 Z M 637 1618 L 871 1942 L 1084 1942 L 752 1618 L 637 1618 Z" unicode="Ý" />
<glyph horiz-adv-x="1317" d="M 326 522 L 672 522 C 725 522 775 526 822 535 C 869 543 910 559 946 582 C 981 605 1009 637 1030 678 C 1050 718 1061 771 1061 836 C 1061 913 1029 972 966 1012 C 903 1052 804 1073 670 1073 L 422 1073 L 326 522 Z M 55 0 L 322 1516 L 500 1516 L 453 1239 L 696 1239 C 784 1239 862 1230 930 1213 C 998 1195 1056 1170 1103 1137 C 1149 1103 1185 1062 1209 1014 C 1233 966 1245 911 1245 850 C 1245 785 1237 728 1221 679 C 1205 629 1184 587 1156 551 C 1128 515 1096 484 1058 460 C 1020 435 980 415 937 401 C 894 386 849 375 802 369 C 755 363 708 360 662 360 L 297 360 L 233 0 L 55 0 Z" unicode="Þ" />
<glyph horiz-adv-x="1262" d="M 676 -23 C 633 -23 595 -19 561 -13 C 527 -7 496 1 468 12 C 440 22 416 35 394 49 C 372 63 353 78 336 94 L 434 205 C 448 192 464 180 480 170 C 496 159 514 150 533 143 C 552 135 573 129 596 125 C 618 121 644 119 672 119 C 714 119 753 125 787 139 C 821 153 850 173 874 200 C 898 226 916 259 929 299 C 941 338 948 384 948 436 C 948 480 939 522 923 561 C 907 600 882 634 849 664 C 816 693 775 716 725 734 C 675 751 616 760 549 762 L 571 895 C 635 895 691 902 737 916 C 783 929 821 948 851 972 C 881 996 903 1024 917 1058 C 931 1091 938 1129 938 1171 C 938 1199 933 1226 923 1250 C 913 1274 897 1294 877 1312 C 856 1330 830 1343 799 1353 C 768 1363 732 1368 690 1368 C 649 1368 612 1362 579 1350 C 546 1338 517 1320 491 1295 C 465 1270 444 1238 426 1198 C 408 1158 395 1111 385 1055 L 199 0 L 25 0 L 213 1071 C 227 1149 248 1216 277 1272 C 306 1328 342 1375 384 1411 C 426 1447 473 1473 526 1490 C 578 1507 635 1516 696 1516 C 764 1516 823 1508 875 1492 C 926 1476 969 1454 1003 1426 C 1037 1398 1063 1364 1081 1324 C 1099 1284 1108 1241 1108 1194 C 1108 1143 1101 1098 1087 1059 C 1073 1020 1052 986 1026 957 C 1000 928 968 904 930 885 C 892 865 849 850 801 838 C 847 830 890 814 929 791 C 968 767 1002 738 1030 704 C 1058 669 1080 629 1096 584 C 1112 538 1120 490 1120 438 C 1120 358 1107 288 1082 230 C 1057 172 1024 124 982 87 C 940 49 893 22 840 4 C 786 -14 732 -23 676 -23 Z" unicode="ß" />
<glyph horiz-adv-x="1126" d="M 354 123 C 416 123 479 136 542 164 C 605 192 666 231 725 281 L 778 580 C 658 568 560 551 482 531 C 404 510 343 486 298 459 C 252 431 221 401 203 368 C 185 334 176 299 176 262 C 176 220 191 186 222 161 C 252 135 296 123 354 123 Z M 293 -18 C 246 -18 204 -12 168 0 C 131 12 100 29 75 51 C 50 73 31 99 18 129 C 4 159 -2 193 -2 229 C -2 291 12 348 41 401 C 70 454 117 501 181 542 C 245 582 327 616 429 644 C 530 671 653 690 799 700 L 809 750 C 822 816 813 867 783 903 C 752 938 695 956 612 956 C 578 956 543 952 508 944 C 473 936 439 926 406 914 C 373 902 342 887 313 871 C 284 854 258 837 236 819 L 156 934 C 182 954 211 975 245 995 C 279 1015 316 1034 357 1050 C 398 1066 442 1079 490 1089 C 538 1099 589 1104 643 1104 C 715 1104 775 1094 823 1076 C 871 1057 908 1031 934 997 C 960 963 976 923 982 877 C 988 830 987 779 977 723 L 897 266 C 891 236 887 209 884 187 C 880 164 878 143 876 123 C 874 103 874 83 875 63 C 875 43 877 22 881 0 L 700 0 C 698 14 697 26 696 38 C 695 50 695 61 695 73 C 695 85 695 97 696 109 C 697 121 699 135 702 150 C 633 93 564 51 494 23 C 424 -4 357 -18 293 -18 Z M 602 1198 L 328 1522 L 538 1522 L 717 1198 L 602 1198 Z" unicode="à" />
<glyph horiz-adv-x="1126" d="M 354 123 C 416 123 479 136 542 164 C 605 192 666 231 725 281 L 778 580 C 658 568 560 551 482 531 C 404 510 343 486 298 459 C 252 431 221 401 203 368 C 185 334 176 299 176 262 C 176 220 191 186 222 161 C 252 135 296 123 354 123 Z M 293 -18 C 246 -18 204 -12 168 0 C 131 12 100 29 75 51 C 50 73 31 99 18 129 C 4 159 -2 193 -2 229 C -2 291 12 348 41 401 C 70 454 117 501 181 542 C 245 582 327 616 429 644 C 530 671 653 690 799 700 L 809 750 C 822 816 813 867 783 903 C 752 938 695 956 612 956 C 578 956 543 952 508 944 C 473 936 439 926 406 914 C 373 902 342 887 313 871 C 284 854 258 837 236 819 L 156 934 C 182 954 211 975 245 995 C 279 1015 316 1034 357 1050 C 398 1066 442 1079 490 1089 C 538 1099 589 1104 643 1104 C 715 1104 775 1094 823 1076 C 871 1057 908 1031 934 997 C 960 963 976 923 982 877 C 988 830 987 779 977 723 L 897 266 C 891 236 887 209 884 187 C 880 164 878 143 876 123 C 874 103 874 83 875 63 C 875 43 877 22 881 0 L 700 0 C 698 14 697 26 696 38 C 695 50 695 61 695 73 C 695 85 695 97 696 109 C 697 121 699 135 702 150 C 633 93 564 51 494 23 C 424 -4 357 -18 293 -18 Z M 491 1198 L 725 1522 L 938 1522 L 606 1198 L 491 1198 Z" unicode="á" />
<glyph horiz-adv-x="1126" d="M 354 123 C 416 123 479 136 542 164 C 605 192 666 231 725 281 L 778 580 C 658 568 560 551 482 531 C 404 510 343 486 298 459 C 252 431 221 401 203 368 C 185 334 176 299 176 262 C 176 220 191 186 222 161 C 252 135 296 123 354 123 Z M 293 -18 C 246 -18 204 -12 168 0 C 131 12 100 29 75 51 C 50 73 31 99 18 129 C 4 159 -2 193 -2 229 C -2 291 12 348 41 401 C 70 454 117 501 181 542 C 245 582 327 616 429 644 C 530 671 653 690 799 700 L 809 750 C 822 816 813 867 783 903 C 752 938 695 956 612 956 C 578 956 543 952 508 944 C 473 936 439 926 406 914 C 373 902 342 887 313 871 C 284 854 258 837 236 819 L 156 934 C 182 954 211 975 245 995 C 279 1015 316 1034 357 1050 C 398 1066 442 1079 490 1089 C 538 1099 589 1104 643 1104 C 715 1104 775 1094 823 1076 C 871 1057 908 1031 934 997 C 960 963 976 923 982 877 C 988 830 987 779 977 723 L 897 266 C 891 236 887 209 884 187 C 880 164 878 143 876 123 C 874 103 874 83 875 63 C 875 43 877 22 881 0 L 700 0 C 698 14 697 26 696 38 C 695 50 695 61 695 73 C 695 85 695 97 696 109 C 697 121 699 135 702 150 C 633 93 564 51 494 23 C 424 -4 357 -18 293 -18 Z M 320 1192 L 633 1522 L 762 1522 L 961 1192 L 852 1192 L 672 1384 L 424 1192 L 320 1192 Z" unicode="â" />
<glyph horiz-adv-x="1126" d="M 354 123 C 416 123 479 136 542 164 C 605 192 666 231 725 281 L 778 580 C 658 568 560 551 482 531 C 404 510 343 486 298 459 C 252 431 221 401 203 368 C 185 334 176 299 176 262 C 176 220 191 186 222 161 C 252 135 296 123 354 123 Z M 293 -18 C 246 -18 204 -12 168 0 C 131 12 100 29 75 51 C 50 73 31 99 18 129 C 4 159 -2 193 -2 229 C -2 291 12 348 41 401 C 70 454 117 501 181 542 C 245 582 327 616 429 644 C 530 671 653 690 799 700 L 809 750 C 822 816 813 867 783 903 C 752 938 695 956 612 956 C 578 956 543 952 508 944 C 473 936 439 926 406 914 C 373 902 342 887 313 871 C 284 854 258 837 236 819 L 156 934 C 182 954 211 975 245 995 C 279 1015 316 1034 357 1050 C 398 1066 442 1079 490 1089 C 538 1099 589 1104 643 1104 C 715 1104 775 1094 823 1076 C 871 1057 908 1031 934 997 C 960 963 976 923 982 877 C 988 830 987 779 977 723 L 897 266 C 891 236 887 209 884 187 C 880 164 878 143 876 123 C 874 103 874 83 875 63 C 875 43 877 22 881 0 L 700 0 C 698 14 697 26 696 38 C 695 50 695 61 695 73 C 695 85 695 97 696 109 C 697 121 699 135 702 150 C 633 93 564 51 494 23 C 424 -4 357 -18 293 -18 Z M 801 1188 C 773 1188 746 1194 720 1206 C 694 1218 670 1231 647 1245 C 623 1259 601 1273 581 1285 C 560 1297 540 1303 522 1303 C 492 1303 469 1294 453 1277 C 437 1260 426 1232 420 1192 L 309 1192 C 320 1277 343 1339 379 1378 C 415 1416 463 1436 524 1436 C 552 1436 580 1430 606 1418 C 632 1406 656 1392 680 1378 C 703 1364 725 1351 745 1339 C 765 1327 783 1321 801 1321 C 831 1321 854 1329 870 1346 C 886 1363 897 1392 905 1432 L 1018 1432 C 1004 1347 979 1285 943 1246 C 907 1207 859 1188 801 1188 Z" unicode="ã" />
<glyph horiz-adv-x="1126" d="M 354 123 C 416 123 479 136 542 164 C 605 192 666 231 725 281 L 778 580 C 658 568 560 551 482 531 C 404 510 343 486 298 459 C 252 431 221 401 203 368 C 185 334 176 299 176 262 C 176 220 191 186 222 161 C 252 135 296 123 354 123 Z M 293 -18 C 246 -18 204 -12 168 0 C 131 12 100 29 75 51 C 50 73 31 99 18 129 C 4 159 -2 193 -2 229 C -2 291 12 348 41 401 C 70 454 117 501 181 542 C 245 582 327 616 429 644 C 530 671 653 690 799 700 L 809 750 C 822 816 813 867 783 903 C 752 938 695 956 612 956 C 578 956 543 952 508 944 C 473 936 439 926 406 914 C 373 902 342 887 313 871 C 284 854 258 837 236 819 L 156 934 C 182 954 211 975 245 995 C 279 1015 316 1034 357 1050 C 398 1066 442 1079 490 1089 C 538 1099 589 1104 643 1104 C 715 1104 775 1094 823 1076 C 871 1057 908 1031 934 997 C 960 963 976 923 982 877 C 988 830 987 779 977 723 L 897 266 C 891 236 887 209 884 187 C 880 164 878 143 876 123 C 874 103 874 83 875 63 C 875 43 877 22 881 0 L 700 0 C 698 14 697 26 696 38 C 695 50 695 61 695 73 C 695 85 695 97 696 109 C 697 121 699 135 702 150 C 633 93 564 51 494 23 C 424 -4 357 -18 293 -18 Z M 729 1194 L 762 1386 L 942 1386 L 909 1194 L 729 1194 Z M 371 1194 L 403 1386 L 584 1386 L 551 1194 L 371 1194 Z" unicode="ä" />
<glyph horiz-adv-x="1126" d="M 354 123 C 416 123 479 136 542 164 C 605 192 666 231 725 281 L 778 580 C 658 568 560 551 482 531 C 404 510 343 486 298 459 C 252 431 221 401 203 368 C 185 334 176 299 176 262 C 176 220 191 186 222 161 C 252 135 296 123 354 123 Z M 293 -18 C 246 -18 204 -12 168 0 C 131 12 100 29 75 51 C 50 73 31 99 18 129 C 4 159 -2 193 -2 229 C -2 291 12 348 41 401 C 70 454 117 501 181 542 C 245 582 327 616 429 644 C 530 671 653 690 799 700 L 809 750 C 822 816 813 867 783 903 C 752 938 695 956 612 956 C 578 956 543 952 508 944 C 473 936 439 926 406 914 C 373 902 342 887 313 871 C 284 854 258 837 236 819 L 156 934 C 182 954 211 975 245 995 C 279 1015 316 1034 357 1050 C 398 1066 442 1079 490 1089 C 538 1099 589 1104 643 1104 C 715 1104 775 1094 823 1076 C 871 1057 908 1031 934 997 C 960 963 976 923 982 877 C 988 830 987 779 977 723 L 897 266 C 891 236 887 209 884 187 C 880 164 878 143 876 123 C 874 103 874 83 875 63 C 875 43 877 22 881 0 L 700 0 C 698 14 697 26 696 38 C 695 50 695 61 695 73 C 695 85 695 97 696 109 C 697 121 699 135 702 150 C 633 93 564 51 494 23 C 424 -4 357 -18 293 -18 Z M 659 1264 C 674 1264 689 1267 703 1273 C 717 1279 729 1287 739 1298 C 749 1309 758 1323 764 1339 C 770 1355 774 1373 774 1393 C 774 1419 766 1442 751 1460 C 736 1478 714 1487 686 1487 C 670 1487 656 1484 642 1478 C 628 1472 615 1463 605 1452 C 594 1441 586 1428 580 1412 C 574 1396 571 1378 571 1358 C 571 1331 578 1309 592 1291 C 606 1273 629 1264 659 1264 Z M 653 1182 C 625 1182 600 1186 579 1195 C 558 1204 540 1216 526 1232 C 512 1248 501 1266 494 1287 C 486 1308 483 1330 483 1354 C 483 1387 488 1417 500 1443 C 512 1469 527 1492 547 1510 C 567 1528 589 1542 614 1552 C 639 1562 665 1567 692 1567 C 719 1567 743 1562 765 1553 C 786 1544 804 1532 818 1517 C 832 1502 843 1484 851 1464 C 858 1443 862 1421 862 1399 C 862 1365 856 1334 844 1308 C 832 1281 816 1258 796 1240 C 776 1221 754 1207 729 1197 C 704 1187 679 1182 653 1182 Z" unicode="å" />
<glyph horiz-adv-x="1823" d="M 293 -18 C 246 -18 204 -12 168 0 C 131 12 100 29 75 51 C 50 73 31 99 18 129 C 4 159 -2 193 -2 229 C -2 291 12 348 41 401 C 70 454 117 501 181 542 C 245 582 327 616 429 644 C 530 671 653 690 799 700 L 809 750 C 822 816 814 867 784 903 C 754 938 697 956 614 956 C 580 956 545 952 510 944 C 474 936 440 926 407 914 C 374 902 343 887 314 871 C 284 854 258 837 236 819 L 156 934 C 182 954 211 975 245 995 C 279 1015 316 1034 357 1050 C 398 1066 442 1079 490 1089 C 538 1099 589 1104 643 1104 C 689 1104 729 1100 763 1092 C 797 1084 827 1072 851 1057 C 875 1042 894 1024 909 1003 C 924 982 936 959 944 934 C 972 964 1003 989 1035 1011 C 1067 1032 1099 1049 1131 1063 C 1163 1077 1195 1087 1227 1094 C 1258 1100 1287 1104 1315 1104 C 1395 1104 1462 1089 1517 1061 C 1571 1032 1614 992 1644 941 C 1674 890 1692 830 1699 761 C 1706 691 1702 616 1688 535 L 1681 498 L 932 498 C 930 487 930 477 930 467 C 930 457 930 446 930 436 C 930 374 938 323 956 283 C 973 242 995 210 1022 186 C 1048 162 1078 145 1111 135 C 1143 125 1175 121 1206 121 C 1245 121 1281 125 1313 134 C 1345 142 1375 155 1402 171 C 1429 187 1454 206 1476 228 C 1498 250 1520 275 1540 303 L 1657 215 C 1631 179 1602 146 1570 117 C 1538 88 1502 63 1463 42 C 1424 21 1381 5 1335 -6 C 1289 -17 1238 -23 1184 -23 C 1095 -23 1018 -3 954 36 C 890 76 841 133 809 209 C 779 183 744 156 704 129 C 664 102 622 78 577 56 C 532 34 485 16 437 2 C 389 -11 341 -18 293 -18 Z M 768 436 C 768 461 768 486 770 511 C 772 535 774 559 778 582 C 660 571 562 555 485 534 C 407 513 346 489 300 461 C 254 433 222 402 204 368 C 185 334 176 298 176 262 C 176 220 191 186 222 161 C 252 135 296 123 354 123 C 385 123 419 127 455 137 C 491 147 527 160 564 177 C 601 194 638 214 675 238 C 711 262 746 288 778 317 C 774 335 772 354 770 374 C 768 394 768 414 768 436 Z M 1538 633 C 1544 677 1544 718 1540 758 C 1535 797 1524 831 1506 861 C 1488 891 1462 914 1429 932 C 1395 949 1353 958 1303 958 C 1265 958 1229 951 1193 937 C 1157 923 1123 903 1092 876 C 1061 849 1033 815 1009 775 C 985 734 966 687 952 633 L 1538 633 Z" unicode="æ" />
<glyph horiz-adv-x="1077" d="M 465 -23 C 403 -23 346 -12 294 9 C 242 30 198 61 161 101 C 124 141 95 190 75 248 C 55 306 45 371 45 444 C 45 524 53 597 70 661 C 86 725 109 781 138 830 C 166 879 199 921 237 955 C 274 989 313 1018 355 1040 C 397 1062 439 1078 482 1088 C 524 1098 565 1104 604 1104 C 670 1104 727 1096 773 1080 C 819 1064 857 1042 888 1014 C 919 986 944 953 962 915 C 980 877 994 835 1004 791 L 844 758 C 835 794 824 824 811 849 C 797 874 781 894 761 910 C 741 926 717 937 689 945 C 661 952 629 956 592 956 C 544 956 497 945 453 923 C 408 901 368 869 334 826 C 300 783 272 729 252 665 C 231 600 221 525 221 440 C 221 340 242 263 286 207 C 330 151 393 123 477 123 C 511 123 541 126 569 134 C 597 141 623 153 647 170 C 671 187 693 209 715 237 C 737 264 759 298 782 338 L 918 279 C 896 235 871 194 844 157 C 816 120 785 88 749 62 C 713 35 671 14 625 0 C 578 -15 525 -23 465 -23 Z M 369 -401 C 307 -401 255 -394 214 -382 C 173 -369 137 -351 105 -328 L 158 -260 C 184 -280 213 -296 244 -306 C 274 -316 311 -322 355 -322 C 399 -322 432 -314 456 -298 C 480 -282 492 -256 492 -221 C 492 -203 485 -189 473 -177 C 461 -165 443 -160 420 -160 C 404 -160 388 -163 371 -170 C 353 -177 338 -187 324 -201 L 266 -170 L 350 0 L 445 0 L 395 -111 C 407 -101 422 -94 439 -88 C 456 -82 475 -80 496 -80 C 532 -80 562 -91 586 -114 C 610 -136 623 -167 623 -207 C 623 -245 615 -276 600 -301 C 584 -326 564 -346 540 -361 C 515 -375 488 -386 458 -392 C 428 -398 398 -401 369 -401 Z" unicode="ç" />
<glyph horiz-adv-x="1110" d="M 469 -23 C 406 -23 349 -12 297 8 C 245 28 200 58 163 97 C 125 136 96 184 76 241 C 55 298 45 363 45 436 C 45 519 54 593 72 659 C 90 724 114 781 144 831 C 174 881 208 923 247 957 C 285 991 325 1019 366 1041 C 407 1063 448 1079 489 1089 C 530 1099 568 1104 602 1104 C 682 1104 750 1089 804 1061 C 858 1032 901 992 931 941 C 961 890 980 830 987 761 C 993 691 989 616 975 535 L 969 498 L 219 498 C 217 487 217 477 217 467 C 217 457 217 446 217 436 C 217 374 225 323 243 283 C 261 242 283 210 310 186 C 337 162 367 145 400 135 C 432 125 464 121 494 121 C 534 121 570 125 602 134 C 634 142 663 155 690 171 C 717 187 742 206 764 228 C 786 250 807 275 827 303 L 944 215 C 918 179 889 146 857 117 C 825 88 789 63 750 42 C 711 21 668 5 622 -6 C 575 -17 524 -23 469 -23 Z M 827 633 C 833 677 833 718 828 758 C 823 797 811 831 793 861 C 774 891 748 914 715 932 C 681 949 639 958 588 958 C 550 958 514 951 478 937 C 442 923 409 903 379 876 C 348 849 321 815 297 775 C 273 734 254 687 240 633 L 827 633 Z M 594 1198 L 320 1522 L 530 1522 L 709 1198 L 594 1198 Z" unicode="è" />
<glyph horiz-adv-x="1110" d="M 483 1198 L 717 1522 L 930 1522 L 598 1198 L 483 1198 Z M 469 -23 C 406 -23 349 -12 297 8 C 245 28 200 58 163 97 C 125 136 96 184 76 241 C 55 298 45 363 45 436 C 45 519 54 593 72 659 C 90 724 114 781 144 831 C 174 881 208 923 247 957 C 285 991 325 1019 366 1041 C 407 1063 448 1079 489 1089 C 530 1099 568 1104 602 1104 C 682 1104 750 1089 804 1061 C 858 1032 901 992 931 941 C 961 890 980 830 987 761 C 993 691 989 616 975 535 L 969 498 L 219 498 C 217 487 217 477 217 467 C 217 457 217 446 217 436 C 217 374 225 323 243 283 C 261 242 283 210 310 186 C 337 162 367 145 400 135 C 432 125 464 121 494 121 C 534 121 570 125 602 134 C 634 142 663 155 690 171 C 717 187 742 206 764 228 C 786 250 807 275 827 303 L 944 215 C 918 179 889 146 857 117 C 825 88 789 63 750 42 C 711 21 668 5 622 -6 C 575 -17 524 -23 469 -23 Z M 827 633 C 833 677 833 718 828 758 C 823 797 811 831 793 861 C 774 891 748 914 715 932 C 681 949 639 958 588 958 C 550 958 514 951 478 937 C 442 923 409 903 379 876 C 348 849 321 815 297 775 C 273 734 254 687 240 633 L 827 633 Z" unicode="é" />
<glyph horiz-adv-x="1110" d="M 312 1192 L 625 1522 L 754 1522 L 953 1192 L 844 1192 L 664 1384 L 416 1192 L 312 1192 Z M 469 -23 C 406 -23 349 -12 297 8 C 245 28 200 58 163 97 C 125 136 96 184 76 241 C 55 298 45 363 45 436 C 45 519 54 593 72 659 C 90 724 114 781 144 831 C 174 881 208 923 247 957 C 285 991 325 1019 366 1041 C 407 1063 448 1079 489 1089 C 530 1099 568 1104 602 1104 C 682 1104 750 1089 804 1061 C 858 1032 901 992 931 941 C 961 890 980 830 987 761 C 993 691 989 616 975 535 L 969 498 L 219 498 C 217 487 217 477 217 467 C 217 457 217 446 217 436 C 217 374 225 323 243 283 C 261 242 283 210 310 186 C 337 162 367 145 400 135 C 432 125 464 121 494 121 C 534 121 570 125 602 134 C 634 142 663 155 690 171 C 717 187 742 206 764 228 C 786 250 807 275 827 303 L 944 215 C 918 179 889 146 857 117 C 825 88 789 63 750 42 C 711 21 668 5 622 -6 C 575 -17 524 -23 469 -23 Z M 827 633 C 833 677 833 718 828 758 C 823 797 811 831 793 861 C 774 891 748 914 715 932 C 681 949 639 958 588 958 C 550 958 514 951 478 937 C 442 923 409 903 379 876 C 348 849 321 815 297 775 C 273 734 254 687 240 633 L 827 633 Z" unicode="ê" />
<glyph horiz-adv-x="1110" d="M 721 1194 L 754 1386 L 934 1386 L 901 1194 L 721 1194 Z M 363 1194 L 395 1386 L 576 1386 L 543 1194 L 363 1194 Z M 469 -23 C 406 -23 349 -12 297 8 C 245 28 200 58 163 97 C 125 136 96 184 76 241 C 55 298 45 363 45 436 C 45 519 54 593 72 659 C 90 724 114 781 144 831 C 174 881 208 923 247 957 C 285 991 325 1019 366 1041 C 407 1063 448 1079 489 1089 C 530 1099 568 1104 602 1104 C 682 1104 750 1089 804 1061 C 858 1032 901 992 931 941 C 961 890 980 830 987 761 C 993 691 989 616 975 535 L 969 498 L 219 498 C 217 487 217 477 217 467 C 217 457 217 446 217 436 C 217 374 225 323 243 283 C 261 242 283 210 310 186 C 337 162 367 145 400 135 C 432 125 464 121 494 121 C 534 121 570 125 602 134 C 634 142 663 155 690 171 C 717 187 742 206 764 228 C 786 250 807 275 827 303 L 944 215 C 918 179 889 146 857 117 C 825 88 789 63 750 42 C 711 21 668 5 622 -6 C 575 -17 524 -23 469 -23 Z M 827 633 C 833 677 833 718 828 758 C 823 797 811 831 793 861 C 774 891 748 914 715 932 C 681 949 639 958 588 958 C 550 958 514 951 478 937 C 442 923 409 903 379 876 C 348 849 321 815 297 775 C 273 734 254 687 240 633 L 827 633 Z" unicode="ë" />
<glyph horiz-adv-x="512" d="M 37 0 L 227 1081 L 403 1081 L 211 0 L 37 0 Z M 290 1198 L 16 1522 L 226 1522 L 405 1198 L 290 1198 Z" unicode="ì" />
<glyph horiz-adv-x="512" d="M 259 1198 L 493 1522 L 706 1522 L 374 1198 L 259 1198 Z M 37 0 L 227 1081 L 403 1081 L 211 0 L 37 0 Z" unicode="í" />
<glyph horiz-adv-x="512" d="M 16 1192 L 329 1522 L 458 1522 L 657 1192 L 548 1192 L 368 1384 L 120 1192 L 16 1192 Z M 37 0 L 227 1081 L 403 1081 L 211 0 L 37 0 Z" unicode="î" />
<glyph horiz-adv-x="512" d="M 425 1194 L 458 1386 L 638 1386 L 605 1194 L 425 1194 Z M 67 1194 L 99 1386 L 280 1386 L 247 1194 L 67 1194 Z M 37 0 L 227 1081 L 403 1081 L 211 0 L 37 0 Z" unicode="ï" />
<glyph horiz-adv-x="1174" d="M 535 1249 L 719 1317 C 696 1341 674 1363 653 1382 C 631 1400 611 1417 592 1432 L 696 1538 C 764 1490 824 1435 874 1374 L 1087 1452 L 1120 1339 L 942 1274 C 986 1196 1017 1115 1036 1029 C 1055 943 1065 857 1065 770 C 1065 634 1050 516 1020 417 C 990 317 950 235 899 170 C 847 104 787 56 717 24 C 647 -7 572 -23 492 -23 C 421 -23 358 -11 303 10 C 247 32 200 64 162 104 C 124 144 95 191 75 247 C 55 303 45 364 45 432 C 45 504 52 569 68 628 C 83 686 104 739 130 785 C 156 831 186 870 221 904 C 255 938 292 966 331 988 C 370 1010 410 1026 452 1037 C 493 1047 533 1053 573 1053 C 657 1053 726 1036 780 1003 C 834 970 875 925 905 868 C 901 939 888 1004 868 1062 C 848 1120 823 1172 793 1219 L 565 1137 L 535 1249 Z M 492 123 C 543 123 592 133 638 153 C 684 173 724 204 758 244 C 792 284 820 333 840 393 C 860 453 870 522 870 600 C 870 644 864 686 852 724 C 840 762 823 794 799 822 C 775 850 745 871 709 887 C 673 903 630 911 582 911 C 536 911 491 900 448 880 C 404 859 366 828 332 788 C 298 747 271 697 251 638 C 231 578 221 510 221 432 C 221 387 226 346 237 308 C 247 270 264 238 286 210 C 308 182 337 161 371 146 C 405 130 445 123 492 123 Z" unicode="ð" />
<glyph horiz-adv-x="1184" d="M 25 0 L 215 1081 L 391 1081 L 360 915 C 382 939 408 962 438 985 C 468 1007 500 1027 535 1045 C 569 1063 605 1077 643 1088 C 681 1098 718 1104 756 1104 C 814 1104 863 1095 903 1079 C 943 1063 974 1040 997 1010 C 1020 980 1035 945 1042 903 C 1048 861 1047 815 1038 764 L 905 0 L 729 0 L 858 735 C 871 805 864 859 837 896 C 810 933 758 952 680 952 C 624 952 566 936 507 905 C 448 873 391 832 336 782 L 199 0 L 25 0 Z M 830 1188 C 802 1188 775 1194 749 1206 C 723 1218 699 1231 676 1245 C 652 1259 630 1273 610 1285 C 589 1297 569 1303 551 1303 C 521 1303 498 1294 482 1277 C 466 1260 455 1232 449 1192 L 338 1192 C 349 1277 372 1339 408 1378 C 444 1416 492 1436 553 1436 C 581 1436 609 1430 635 1418 C 661 1406 685 1392 709 1378 C 732 1364 754 1351 774 1339 C 794 1327 812 1321 830 1321 C 860 1321 883 1329 899 1346 C 915 1363 926 1392 934 1432 L 1047 1432 C 1033 1347 1008 1285 972 1246 C 936 1207 888 1188 830 1188 Z" unicode="ñ" />
<glyph horiz-adv-x="1174" d="M 496 123 C 546 123 595 134 641 158 C 687 181 728 215 763 259 C 797 303 825 356 846 419 C 866 482 877 553 877 633 C 877 677 871 719 861 759 C 850 798 833 832 811 862 C 789 891 760 914 726 931 C 691 947 650 956 602 956 C 550 956 501 944 455 920 C 409 896 368 861 334 817 C 300 773 273 719 253 656 C 233 593 223 522 223 444 C 223 398 228 356 238 317 C 248 278 264 244 286 216 C 308 187 336 164 371 148 C 405 131 447 123 496 123 Z M 481 -23 C 417 -23 359 -12 306 9 C 252 30 206 61 168 101 C 129 141 99 190 77 248 C 55 305 45 370 45 442 C 45 518 53 587 69 649 C 85 711 106 767 134 816 C 162 865 194 908 231 944 C 268 980 308 1009 350 1033 C 392 1057 436 1074 482 1086 C 527 1098 572 1104 616 1104 C 679 1104 737 1093 791 1072 C 845 1051 891 1021 930 981 C 968 941 998 892 1020 834 C 1042 776 1053 711 1053 639 C 1053 563 1045 494 1029 432 C 1013 370 992 314 964 265 C 936 216 904 173 867 137 C 830 101 790 71 748 47 C 706 23 662 6 616 -5 C 570 -17 525 -23 481 -23 Z M 627 1198 L 353 1522 L 563 1522 L 742 1198 L 627 1198 Z" unicode="ò" />
<glyph horiz-adv-x="1174" d="M 516 1198 L 750 1522 L 963 1522 L 631 1198 L 516 1198 Z M 496 123 C 546 123 595 134 641 158 C 687 181 728 215 763 259 C 797 303 825 356 846 419 C 866 482 877 553 877 633 C 877 677 871 719 861 759 C 850 798 833 832 811 862 C 789 891 760 914 726 931 C 691 947 650 956 602 956 C 550 956 501 944 455 920 C 409 896 368 861 334 817 C 300 773 273 719 253 656 C 233 593 223 522 223 444 C 223 398 228 356 238 317 C 248 278 264 244 286 216 C 308 187 336 164 371 148 C 405 131 447 123 496 123 Z M 481 -23 C 417 -23 359 -12 306 9 C 252 30 206 61 168 101 C 129 141 99 190 77 248 C 55 305 45 370 45 442 C 45 518 53 587 69 649 C 85 711 106 767 134 816 C 162 865 194 908 231 944 C 268 980 308 1009 350 1033 C 392 1057 436 1074 482 1086 C 527 1098 572 1104 616 1104 C 679 1104 737 1093 791 1072 C 845 1051 891 1021 930 981 C 968 941 998 892 1020 834 C 1042 776 1053 711 1053 639 C 1053 563 1045 494 1029 432 C 1013 370 992 314 964 265 C 936 216 904 173 867 137 C 830 101 790 71 748 47 C 706 23 662 6 616 -5 C 570 -17 525 -23 481 -23 Z" unicode="ó" />
<glyph horiz-adv-x="1174" d="M 344 1192 L 657 1522 L 786 1522 L 985 1192 L 876 1192 L 696 1384 L 448 1192 L 344 1192 Z M 496 123 C 546 123 595 134 641 158 C 687 181 728 215 763 259 C 797 303 825 356 846 419 C 866 482 877 553 877 633 C 877 677 871 719 861 759 C 850 798 833 832 811 862 C 789 891 760 914 726 931 C 691 947 650 956 602 956 C 550 956 501 944 455 920 C 409 896 368 861 334 817 C 300 773 273 719 253 656 C 233 593 223 522 223 444 C 223 398 228 356 238 317 C 248 278 264 244 286 216 C 308 187 336 164 371 148 C 405 131 447 123 496 123 Z M 481 -23 C 417 -23 359 -12 306 9 C 252 30 206 61 168 101 C 129 141 99 190 77 248 C 55 305 45 370 45 442 C 45 518 53 587 69 649 C 85 711 106 767 134 816 C 162 865 194 908 231 944 C 268 980 308 1009 350 1033 C 392 1057 436 1074 482 1086 C 527 1098 572 1104 616 1104 C 679 1104 737 1093 791 1072 C 845 1051 891 1021 930 981 C 968 941 998 892 1020 834 C 1042 776 1053 711 1053 639 C 1053 563 1045 494 1029 432 C 1013 370 992 314 964 265 C 936 216 904 173 867 137 C 830 101 790 71 748 47 C 706 23 662 6 616 -5 C 570 -17 525 -23 481 -23 Z" unicode="ô" />
<glyph horiz-adv-x="1174" d="M 496 123 C 546 123 595 134 641 158 C 687 181 728 215 763 259 C 797 303 825 356 846 419 C 866 482 877 553 877 633 C 877 677 871 719 861 759 C 850 798 833 832 811 862 C 789 891 760 914 726 931 C 691 947 650 956 602 956 C 550 956 501 944 455 920 C 409 896 368 861 334 817 C 300 773 273 719 253 656 C 233 593 223 522 223 444 C 223 398 228 356 238 317 C 248 278 264 244 286 216 C 308 187 336 164 371 148 C 405 131 447 123 496 123 Z M 481 -23 C 417 -23 359 -12 306 9 C 252 30 206 61 168 101 C 129 141 99 190 77 248 C 55 305 45 370 45 442 C 45 518 53 587 69 649 C 85 711 106 767 134 816 C 162 865 194 908 231 944 C 268 980 308 1009 350 1033 C 392 1057 436 1074 482 1086 C 527 1098 572 1104 616 1104 C 679 1104 737 1093 791 1072 C 845 1051 891 1021 930 981 C 968 941 998 892 1020 834 C 1042 776 1053 711 1053 639 C 1053 563 1045 494 1029 432 C 1013 370 992 314 964 265 C 936 216 904 173 867 137 C 830 101 790 71 748 47 C 706 23 662 6 616 -5 C 570 -17 525 -23 481 -23 Z M 826 1188 C 798 1188 771 1194 745 1206 C 719 1218 695 1231 672 1245 C 648 1259 626 1273 606 1285 C 585 1297 565 1303 547 1303 C 517 1303 494 1294 478 1277 C 462 1260 451 1232 445 1192 L 334 1192 C 345 1277 368 1339 404 1378 C 440 1416 488 1436 549 1436 C 577 1436 605 1430 631 1418 C 657 1406 681 1392 705 1378 C 728 1364 750 1351 770 1339 C 790 1327 808 1321 826 1321 C 856 1321 879 1329 895 1346 C 911 1363 922 1392 930 1432 L 1043 1432 C 1029 1347 1004 1285 968 1246 C 932 1207 884 1188 826 1188 Z" unicode="õ" />
<glyph horiz-adv-x="1174" d="M 754 1194 L 787 1386 L 967 1386 L 934 1194 L 754 1194 Z M 396 1194 L 428 1386 L 609 1386 L 576 1194 L 396 1194 Z M 496 123 C 546 123 595 134 641 158 C 687 181 728 215 763 259 C 797 303 825 356 846 419 C 866 482 877 553 877 633 C 877 677 871 719 861 759 C 850 798 833 832 811 862 C 789 891 760 914 726 931 C 691 947 650 956 602 956 C 550 956 501 944 455 920 C 409 896 368 861 334 817 C 300 773 273 719 253 656 C 233 593 223 522 223 444 C 223 398 228 356 238 317 C 248 278 264 244 286 216 C 308 187 336 164 371 148 C 405 131 447 123 496 123 Z M 481 -23 C 417 -23 359 -12 306 9 C 252 30 206 61 168 101 C 129 141 99 190 77 248 C 55 305 45 370 45 442 C 45 518 53 587 69 649 C 85 711 106 767 134 816 C 162 865 194 908 231 944 C 268 980 308 1009 350 1033 C 392 1057 436 1074 482 1086 C 527 1098 572 1104 616 1104 C 679 1104 737 1093 791 1072 C 845 1051 891 1021 930 981 C 968 941 998 892 1020 834 C 1042 776 1053 711 1053 639 C 1053 563 1045 494 1029 432 C 1013 370 992 314 964 265 C 936 216 904 173 867 137 C 830 101 790 71 748 47 C 706 23 662 6 616 -5 C 570 -17 525 -23 481 -23 Z" unicode="ö" />
<glyph horiz-adv-x="1307" d="M 541 956 L 541 1145 L 731 1145 L 731 956 L 541 956 Z M 121 608 L 121 756 L 1159 756 L 1159 608 L 121 608 Z M 541 217 L 541 406 L 731 406 L 731 217 L 541 217 Z" unicode="÷" />
<glyph horiz-adv-x="1174" d="M 481 -23 C 423 -23 370 -14 322 2 C 274 19 231 44 195 76 L 55 -72 L -20 2 L 125 154 C 99 192 80 234 66 282 C 52 330 45 383 45 442 C 45 518 53 587 69 649 C 85 711 106 767 134 816 C 162 865 194 908 231 944 C 268 980 308 1009 350 1033 C 392 1057 436 1074 482 1086 C 527 1098 572 1104 616 1104 C 674 1104 727 1095 775 1077 C 823 1059 867 1034 905 1001 L 1044 1149 L 1118 1077 L 975 924 C 999 886 1018 843 1032 796 C 1046 749 1053 697 1053 639 C 1053 563 1045 494 1029 432 C 1013 370 992 314 964 265 C 936 216 904 173 867 137 C 830 101 790 71 748 47 C 706 23 662 6 616 -5 C 570 -17 525 -23 481 -23 Z M 602 961 C 550 961 500 948 454 924 C 408 900 367 865 333 820 C 298 775 271 721 251 657 C 231 593 221 522 221 444 C 221 412 223 382 227 354 C 231 326 238 299 248 274 L 801 881 C 778 905 750 925 717 939 C 684 953 646 961 602 961 Z M 496 119 C 546 119 595 130 641 154 C 687 178 728 212 764 256 C 799 300 827 354 848 418 C 868 482 879 553 879 633 C 879 663 876 693 872 721 C 867 749 860 775 850 799 L 297 195 C 319 169 347 150 379 138 C 411 125 450 119 496 119 Z" unicode="ø" />
<glyph horiz-adv-x="1180" d="M 354 -23 C 296 -23 247 -14 207 1 C 167 17 135 41 112 71 C 89 101 74 137 68 179 C 61 221 62 267 72 319 L 205 1081 L 381 1081 L 250 344 C 244 308 242 277 246 250 C 249 223 258 200 272 182 C 286 164 305 150 331 141 C 357 131 389 127 428 127 C 484 127 541 142 598 174 C 655 206 712 247 768 297 L 907 1081 L 1081 1081 L 891 0 L 715 0 L 745 166 C 723 142 697 119 668 97 C 638 75 607 55 573 37 C 539 19 503 4 466 -6 C 428 -17 391 -23 354 -23 Z M 629 1198 L 355 1522 L 565 1522 L 744 1198 L 629 1198 Z" unicode="ù" />
<glyph horiz-adv-x="1180" d="M 518 1198 L 752 1522 L 965 1522 L 633 1198 L 518 1198 Z M 354 -23 C 296 -23 247 -14 207 1 C 167 17 135 41 112 71 C 89 101 74 137 68 179 C 61 221 62 267 72 319 L 205 1081 L 381 1081 L 250 344 C 244 308 242 277 246 250 C 249 223 258 200 272 182 C 286 164 305 150 331 141 C 357 131 389 127 428 127 C 484 127 541 142 598 174 C 655 206 712 247 768 297 L 907 1081 L 1081 1081 L 891 0 L 715 0 L 745 166 C 723 142 697 119 668 97 C 638 75 607 55 573 37 C 539 19 503 4 466 -6 C 428 -17 391 -23 354 -23 Z" unicode="ú" />
<glyph horiz-adv-x="1180" d="M 347 1192 L 660 1522 L 789 1522 L 988 1192 L 879 1192 L 699 1384 L 451 1192 L 347 1192 Z M 354 -23 C 296 -23 247 -14 207 1 C 167 17 135 41 112 71 C 89 101 74 137 68 179 C 61 221 62 267 72 319 L 205 1081 L 381 1081 L 250 344 C 244 308 242 277 246 250 C 249 223 258 200 272 182 C 286 164 305 150 331 141 C 357 131 389 127 428 127 C 484 127 541 142 598 174 C 655 206 712 247 768 297 L 907 1081 L 1081 1081 L 891 0 L 715 0 L 745 166 C 723 142 697 119 668 97 C 638 75 607 55 573 37 C 539 19 503 4 466 -6 C 428 -17 391 -23 354 -23 Z" unicode="û" />
<glyph horiz-adv-x="1180" d="M 756 1194 L 789 1386 L 969 1386 L 936 1194 L 756 1194 Z M 398 1194 L 430 1386 L 611 1386 L 578 1194 L 398 1194 Z M 354 -23 C 296 -23 247 -14 207 1 C 167 17 135 41 112 71 C 89 101 74 137 68 179 C 61 221 62 267 72 319 L 205 1081 L 381 1081 L 250 344 C 244 308 242 277 246 250 C 249 223 258 200 272 182 C 286 164 305 150 331 141 C 357 131 389 127 428 127 C 484 127 541 142 598 174 C 655 206 712 247 768 297 L 907 1081 L 1081 1081 L 891 0 L 715 0 L 745 166 C 723 142 697 119 668 97 C 638 75 607 55 573 37 C 539 19 503 4 466 -6 C 428 -17 391 -23 354 -23 Z" unicode="ü" />
<glyph horiz-adv-x="1071" d="M 57 -416 C 11 -416 -28 -412 -64 -404 C -100 -396 -130 -387 -154 -377 L -94 -233 C -85 -237 -75 -241 -63 -245 C -51 -249 -38 -252 -25 -256 C -12 -259 1 -262 15 -264 C 29 -266 42 -268 55 -268 C 101 -268 139 -255 169 -230 C 199 -204 225 -170 248 -127 L 315 -6 L 104 1081 L 287 1081 L 438 207 L 442 207 L 905 1081 L 1087 1081 L 389 -178 C 366 -219 343 -254 321 -284 C 299 -314 275 -338 249 -358 C 223 -378 194 -392 163 -402 C 132 -411 97 -416 57 -416 Z M 463 1198 L 697 1522 L 910 1522 L 578 1198 L 463 1198 Z" unicode="ý" />
<glyph horiz-adv-x="1206" d="M 537 125 C 577 125 618 134 662 152 C 705 170 745 200 781 241 C 817 282 847 335 871 401 C 895 467 907 547 907 643 C 907 693 900 737 888 776 C 876 814 858 847 835 873 C 812 899 785 918 753 932 C 721 945 685 952 647 952 C 619 952 592 947 564 939 C 536 931 508 919 481 905 C 454 890 428 873 404 854 C 380 834 358 813 340 791 L 244 264 C 264 242 284 223 304 206 C 324 188 346 174 369 162 C 392 150 417 140 445 134 C 472 128 503 125 537 125 Z M -49 -412 L 291 1516 L 465 1516 L 362 932 C 380 954 401 975 426 996 C 451 1016 478 1035 508 1051 C 538 1067 569 1079 602 1089 C 634 1099 668 1104 702 1104 C 760 1104 813 1094 860 1074 C 907 1054 947 1026 981 989 C 1014 952 1040 906 1058 852 C 1076 798 1085 736 1085 668 C 1085 589 1077 517 1063 453 C 1049 389 1029 331 1005 281 C 980 230 951 186 917 148 C 883 110 847 79 808 55 C 769 30 728 12 686 0 C 643 -12 601 -18 559 -18 C 487 -18 423 -4 367 21 C 311 47 263 83 221 129 L 127 -412 L -49 -412 Z" unicode="þ" />
<glyph horiz-adv-x="1071" d="M 57 -416 C 11 -416 -28 -412 -64 -404 C -100 -396 -130 -387 -154 -377 L -94 -233 C -85 -237 -75 -241 -63 -245 C -51 -249 -38 -252 -25 -256 C -12 -259 1 -262 15 -264 C 29 -266 42 -268 55 -268 C 101 -268 139 -255 169 -230 C 199 -204 225 -170 248 -127 L 315 -6 L 104 1081 L 287 1081 L 438 207 L 442 207 L 905 1081 L 1087 1081 L 389 -178 C 366 -219 343 -254 321 -284 C 299 -314 275 -338 249 -358 C 223 -378 194 -392 163 -402 C 132 -411 97 -416 57 -416 Z M 700 1194 L 733 1386 L 913 1386 L 880 1194 L 700 1194 Z M 342 1194 L 374 1386 L 555 1386 L 522 1194 L 342 1194 Z" unicode="ÿ" />
<glyph horiz-adv-x="1372" d="" unicode="Ā" />
<glyph horiz-adv-x="1126" d="" unicode="ā" />
<glyph horiz-adv-x="1372" d="" unicode="Ă" />
<glyph horiz-adv-x="1126" d="" unicode="ă" />
<glyph horiz-adv-x="1372" d="" unicode="Ą" />
<glyph horiz-adv-x="1126" d="" unicode="ą" />
<glyph horiz-adv-x="1423" d="" unicode="Ć" />
<glyph horiz-adv-x="1077" d="" unicode="ć" />
<glyph horiz-adv-x="1423" d="" unicode="Ĉ" />
<glyph horiz-adv-x="1077" d="" unicode="ĉ" />
<glyph horiz-adv-x="1423" d="" unicode="Ċ" />
<glyph horiz-adv-x="1077" d="" unicode="ċ" />
<glyph horiz-adv-x="1423" d="" unicode="Č" />
<glyph horiz-adv-x="1077" d="" unicode="č" />
<glyph horiz-adv-x="1444" d="" unicode="Ď" />
<glyph horiz-adv-x="1206" d="" unicode="ď" />
<glyph horiz-adv-x="1444" d="" unicode="Đ" />
<glyph horiz-adv-x="1206" d="" unicode="đ" />
<glyph horiz-adv-x="1227" d="" unicode="Ē" />
<glyph horiz-adv-x="1110" d="" unicode="ē" />
<glyph horiz-adv-x="1227" d="" unicode="Ĕ" />
<glyph horiz-adv-x="1110" d="" unicode="ĕ" />
<glyph horiz-adv-x="1227" d="" unicode="Ė" />
<glyph horiz-adv-x="1110" d="" unicode="ė" />
<glyph horiz-adv-x="1227" d="" unicode="Ę" />
<glyph horiz-adv-x="1110" d="" unicode="ę" />
<glyph horiz-adv-x="1227" d="" unicode="Ě" />
<glyph horiz-adv-x="1110" d="" unicode="ě" />
<glyph horiz-adv-x="1477" d="" unicode="Ĝ" />
<glyph horiz-adv-x="1157" d="" unicode="ĝ" />
<glyph horiz-adv-x="1477" d="" unicode="Ğ" />
<glyph horiz-adv-x="1157" d="" unicode="ğ" />
<glyph horiz-adv-x="1477" d="" unicode="Ġ" />
<glyph horiz-adv-x="1157" d="" unicode="ġ" />
<glyph horiz-adv-x="1477" d="" unicode="Ģ" />
<glyph horiz-adv-x="1157" d="" unicode="ģ" />
<glyph horiz-adv-x="1493" d="" unicode="Ĥ" />
<glyph horiz-adv-x="1184" d="" unicode="ĥ" />
<glyph horiz-adv-x="1493" d="" unicode="Ħ" />
<glyph horiz-adv-x="1184" d="" unicode="ħ" />
<glyph horiz-adv-x="594" d="" unicode="Ĩ" />
<glyph horiz-adv-x="512" d="" unicode="ĩ" />
<glyph horiz-adv-x="594" d="" unicode="Ī" />
<glyph horiz-adv-x="512" d="" unicode="ī" />
<glyph horiz-adv-x="594" d="" unicode="Ĭ" />
<glyph horiz-adv-x="512" d="" unicode="ĭ" />
<glyph horiz-adv-x="594" d="" unicode="Į" />
<glyph horiz-adv-x="512" d="" unicode="į" />
<glyph horiz-adv-x="594" d="" unicode="İ" />
<glyph horiz-adv-x="512" d="M 37 0 L 227 1081 L 403 1081 L 211 0 L 37 0 Z" unicode="ı" />
<glyph horiz-adv-x="1532" d="" unicode="Ĳ" />
<glyph horiz-adv-x="1024" d="" unicode="ĳ" />
<glyph horiz-adv-x="1020" d="" unicode="Ĵ" />
<glyph horiz-adv-x="512" d="" unicode="ĵ" />
<glyph horiz-adv-x="1368" d="" unicode="Ķ" />
<glyph horiz-adv-x="1085" d="" unicode="ķ" />
<glyph horiz-adv-x="1085" d="" unicode="ĸ" />
<glyph horiz-adv-x="1145" d="" unicode="Ĺ" />
<glyph horiz-adv-x="512" d="" unicode="ĺ" />
<glyph horiz-adv-x="1145" d="" unicode="Ļ" />
<glyph horiz-adv-x="512" d="" unicode="ļ" />
<glyph horiz-adv-x="1145" d="" unicode="Ľ" />
<glyph horiz-adv-x="512" d="" unicode="ľ" />
<glyph horiz-adv-x="1171" d="" unicode="Ŀ" />
<glyph horiz-adv-x="707" d="" unicode="ŀ" />
<glyph horiz-adv-x="1145" d="" unicode="Ł" />
<glyph horiz-adv-x="623" d="" unicode="ł" />
<glyph horiz-adv-x="1513" d="" unicode="Ń" />
<glyph horiz-adv-x="1184" d="" unicode="ń" />
<glyph horiz-adv-x="1513" d="" unicode="Ņ" />
<glyph horiz-adv-x="1184" d="" unicode="ņ" />
<glyph horiz-adv-x="1513" d="" unicode="Ň" />
<glyph horiz-adv-x="1184" d="" unicode="ň" />
<glyph horiz-adv-x="1513" d="" unicode="Ŋ" />
<glyph horiz-adv-x="1186" d="" unicode="ŋ" />
<glyph horiz-adv-x="1513" d="" unicode="Ō" />
<glyph horiz-adv-x="1174" d="" unicode="ō" />
<glyph horiz-adv-x="1513" d="" unicode="Ŏ" />
<glyph horiz-adv-x="1174" d="" unicode="ŏ" />
<glyph horiz-adv-x="1513" d="" unicode="Ő" />
<glyph horiz-adv-x="1174" d="" unicode="ő" />
<glyph horiz-adv-x="2261" d="M 1102 0 L 1137 199 C 1071 124 996 67 914 29 C 831 -9 744 -29 653 -29 C 567 -29 490 -13 422 18 C 353 49 294 93 246 149 C 198 205 161 273 135 352 C 109 430 96 517 96 612 C 96 711 106 803 126 888 C 146 972 173 1049 209 1118 C 244 1187 286 1248 335 1301 C 383 1354 436 1399 494 1435 C 551 1471 611 1498 675 1516 C 738 1534 802 1544 868 1544 C 924 1544 976 1536 1023 1522 C 1069 1508 1111 1487 1149 1461 C 1187 1434 1220 1402 1248 1365 C 1276 1327 1299 1285 1319 1239 L 1368 1516 L 2261 1516 L 2232 1350 L 1503 1350 L 1421 877 L 1956 877 L 1929 717 L 1393 717 L 1296 164 L 2066 164 L 2038 0 L 1102 0 Z M 668 133 C 738 133 807 149 875 181 C 943 213 1003 261 1057 325 C 1111 389 1154 470 1187 567 C 1220 664 1237 777 1237 907 C 1237 979 1228 1045 1211 1103 C 1193 1161 1168 1211 1135 1252 C 1101 1293 1060 1325 1012 1347 C 964 1369 909 1380 848 1380 C 801 1380 754 1373 708 1359 C 661 1345 616 1324 574 1296 C 532 1268 492 1232 456 1190 C 420 1148 388 1098 362 1041 C 335 984 314 920 299 848 C 283 776 276 698 276 612 C 276 538 284 471 302 412 C 320 353 345 303 379 262 C 412 220 453 188 502 166 C 550 144 606 133 668 133 Z" unicode="Œ" />
<glyph horiz-adv-x="1919" d="M 1278 -23 C 1190 -23 1115 -2 1052 38 C 988 78 941 136 909 211 C 882 171 852 137 819 108 C 786 79 751 55 714 35 C 677 15 639 1 599 -8 C 559 -18 520 -23 481 -23 C 417 -23 359 -12 306 9 C 252 30 206 61 168 101 C 129 141 99 190 77 248 C 55 305 45 370 45 442 C 45 518 53 587 69 649 C 85 711 106 767 134 816 C 162 865 194 908 231 944 C 268 980 308 1009 350 1033 C 392 1057 436 1074 482 1086 C 527 1098 572 1104 616 1104 C 706 1104 782 1082 846 1040 C 909 998 957 938 989 862 C 1018 904 1051 941 1087 971 C 1123 1001 1159 1026 1197 1046 C 1234 1066 1271 1080 1308 1090 C 1345 1099 1379 1104 1411 1104 C 1491 1104 1559 1089 1613 1061 C 1667 1032 1710 992 1740 941 C 1770 890 1789 830 1796 761 C 1802 691 1798 616 1784 535 L 1778 498 L 1028 498 C 1026 487 1026 477 1026 467 C 1026 457 1026 446 1026 436 C 1026 374 1034 323 1052 283 C 1070 242 1092 210 1119 186 C 1146 162 1176 145 1209 135 C 1241 125 1273 121 1303 121 C 1343 121 1379 125 1411 134 C 1443 142 1472 155 1499 171 C 1525 187 1550 206 1572 228 C 1594 250 1616 275 1636 303 L 1753 215 C 1727 179 1698 146 1666 117 C 1634 88 1598 63 1559 42 C 1520 21 1477 5 1431 -6 C 1384 -17 1333 -23 1278 -23 Z M 494 123 C 544 123 593 134 639 158 C 685 181 726 215 762 259 C 797 303 825 356 846 419 C 866 482 877 553 877 633 C 877 677 871 719 861 759 C 851 798 835 832 813 862 C 791 891 762 914 728 931 C 693 947 652 956 604 956 C 552 956 502 944 456 920 C 410 896 369 861 335 817 C 300 773 273 719 253 656 C 233 593 223 522 223 444 C 223 398 228 356 238 317 C 248 278 263 244 285 216 C 307 187 335 164 369 148 C 403 131 445 123 494 123 Z M 1636 633 C 1642 677 1642 718 1637 758 C 1632 797 1620 831 1602 861 C 1583 891 1557 914 1524 932 C 1490 949 1448 958 1397 958 C 1359 958 1323 951 1287 937 C 1251 923 1218 903 1188 876 C 1157 849 1130 815 1106 775 C 1082 734 1063 687 1049 633 L 1636 633 Z" unicode="œ" />
<glyph horiz-adv-x="1366" d="" unicode="Ŕ" />
<glyph horiz-adv-x="805" d="" unicode="ŕ" />
<glyph horiz-adv-x="1366" d="" unicode="Ŗ" />
<glyph horiz-adv-x="805" d="" unicode="ŗ" />
<glyph horiz-adv-x="1366" d="" unicode="Ř" />
<glyph horiz-adv-x="805" d="" unicode="ř" />
<glyph horiz-adv-x="1325" d="" unicode="Ś" />
<glyph horiz-adv-x="1028" d="" unicode="ś" />
<glyph horiz-adv-x="1325" d="" unicode="Ŝ" />
<glyph horiz-adv-x="1028" d="" unicode="ŝ" />
<glyph horiz-adv-x="1325" d="" unicode="Ş" />
<glyph horiz-adv-x="1028" d="" unicode="ş" />
<glyph horiz-adv-x="1325" d="M 748 1620 L 549 1950 L 657 1950 L 838 1757 L 1085 1950 L 1190 1950 L 877 1620 L 748 1620 Z M 592 -31 C 506 -31 432 -21 368 -3 C 304 14 249 41 204 76 C 159 110 123 153 96 203 C 69 253 50 311 39 375 L 205 418 C 215 367 230 323 251 287 C 271 251 298 221 331 198 C 363 175 402 158 448 147 C 494 136 547 131 608 131 C 657 131 703 136 747 146 C 791 156 829 173 861 195 C 893 217 919 246 938 282 C 957 318 967 361 967 412 C 967 456 956 494 935 526 C 913 558 885 585 850 609 C 815 633 775 654 730 672 C 685 690 639 708 593 726 C 546 744 500 763 455 784 C 410 804 370 829 335 858 C 300 886 272 920 251 960 C 229 999 219 1046 219 1102 C 219 1172 232 1235 259 1291 C 285 1346 321 1392 367 1430 C 413 1468 466 1496 527 1516 C 587 1536 651 1546 719 1546 C 801 1546 871 1537 930 1521 C 988 1504 1038 1481 1079 1451 C 1119 1421 1152 1386 1178 1345 C 1203 1303 1223 1258 1239 1208 L 1077 1149 C 1054 1232 1012 1292 950 1328 C 888 1364 807 1382 707 1382 C 661 1382 619 1376 581 1364 C 543 1352 511 1336 484 1314 C 457 1292 436 1265 421 1233 C 406 1201 399 1166 399 1126 C 399 1084 409 1049 431 1020 C 452 991 480 966 515 944 C 550 922 590 902 635 884 C 680 866 726 849 773 831 C 819 813 865 793 910 771 C 955 749 995 724 1030 694 C 1065 664 1093 628 1115 587 C 1136 546 1147 497 1147 440 C 1147 359 1132 289 1102 230 C 1072 170 1032 121 982 83 C 931 44 872 15 805 -3 C 737 -21 666 -31 592 -31 Z" unicode="Š" />
<glyph horiz-adv-x="1028" d="M 530 1200 L 331 1530 L 439 1530 L 620 1337 L 867 1530 L 972 1530 L 659 1200 L 530 1200 Z M 422 -20 C 362 -20 308 -15 261 -5 C 214 5 172 19 136 37 C 100 55 68 76 42 102 C 15 127 -7 155 -27 186 L 102 276 C 116 254 134 233 155 214 C 175 195 199 179 226 165 C 253 151 283 141 317 133 C 351 125 388 121 430 121 C 467 120 501 123 533 129 C 565 135 592 145 615 159 C 638 173 656 192 669 215 C 681 238 688 267 688 301 C 688 329 680 354 664 374 C 648 394 626 411 600 426 C 573 441 543 454 509 466 C 475 477 441 489 406 501 C 371 513 337 527 303 542 C 269 556 239 574 213 596 C 186 617 165 642 149 672 C 133 701 125 736 125 778 C 125 829 134 875 153 915 C 172 955 199 990 233 1018 C 267 1046 307 1067 353 1082 C 399 1096 450 1104 504 1104 C 560 1104 611 1099 656 1090 C 700 1081 740 1069 774 1054 C 808 1038 838 1020 864 1000 C 890 979 912 957 932 934 L 813 827 C 780 869 738 902 686 926 C 634 950 574 963 506 963 C 437 963 385 948 351 918 C 316 888 299 851 299 805 C 299 775 307 749 323 729 C 339 709 360 691 386 677 C 412 662 442 649 476 637 C 510 625 544 614 579 602 C 614 590 648 577 682 563 C 716 548 746 530 772 510 C 798 489 820 464 836 435 C 852 405 860 370 860 328 C 860 262 847 206 822 162 C 796 117 763 81 722 54 C 681 27 634 8 582 -3 C 529 -14 476 -20 422 -20 Z" unicode="š" />
<glyph horiz-adv-x="1255" d="" unicode="Ţ" />
<glyph horiz-adv-x="754" d="" unicode="ţ" />
<glyph horiz-adv-x="1255" d="" unicode="Ť" />
<glyph horiz-adv-x="754" d="" unicode="ť" />
<glyph horiz-adv-x="1255" d="" unicode="Ŧ" />
<glyph horiz-adv-x="754" d="" unicode="ŧ" />
<glyph horiz-adv-x="1448" d="" unicode="Ũ" />
<glyph horiz-adv-x="1180" d="" unicode="ũ" />
<glyph horiz-adv-x="1448" d="" unicode="Ū" />
<glyph horiz-adv-x="1180" d="" unicode="ū" />
<glyph horiz-adv-x="1448" d="" unicode="Ŭ" />
<glyph horiz-adv-x="1180" d="" unicode="ŭ" />
<glyph horiz-adv-x="1448" d="" unicode="Ů" />
<glyph horiz-adv-x="1180" d="" unicode="ů" />
<glyph horiz-adv-x="1448" d="" unicode="Ű" />
<glyph horiz-adv-x="1180" d="" unicode="ű" />
<glyph horiz-adv-x="1448" d="" unicode="Ų" />
<glyph horiz-adv-x="1180" d="" unicode="ų" />
<glyph horiz-adv-x="1886" d="" unicode="Ŵ" />
<glyph horiz-adv-x="1522" d="" unicode="ŵ" />
<glyph horiz-adv-x="1272" d="" unicode="Ŷ" />
<glyph horiz-adv-x="1071" d="" unicode="ŷ" />
<glyph horiz-adv-x="1272" d="M 414 0 L 530 664 L 180 1516 L 362 1516 L 643 817 L 1165 1516 L 1360 1516 L 709 664 L 592 0 L 414 0 Z M 875 1614 L 908 1806 L 1088 1806 L 1055 1614 L 875 1614 Z M 517 1614 L 549 1806 L 730 1806 L 697 1614 L 517 1614 Z" unicode="Ÿ" />
<glyph horiz-adv-x="1270" d="" unicode="Ź" />
<glyph horiz-adv-x="1024" d="" unicode="ź" />
<glyph horiz-adv-x="1270" d="" unicode="Ż" />
<glyph horiz-adv-x="1024" d="" unicode="ż" />
<glyph horiz-adv-x="1270" d="M 719 1620 L 520 1950 L 628 1950 L 809 1757 L 1056 1950 L 1161 1950 L 848 1620 L 719 1620 Z M -51 0 L -25 137 L 1051 1356 L 246 1356 L 274 1516 L 1303 1516 L 1280 1376 L 209 160 L 1065 160 L 1036 0 L -51 0 Z" unicode="Ž" />
<glyph horiz-adv-x="1024" d="M 528 1200 L 329 1530 L 437 1530 L 618 1337 L 865 1530 L 970 1530 L 657 1200 L 528 1200 Z M -53 0 L -35 106 L 719 938 L 162 938 L 188 1081 L 973 1081 L 952 973 L 197 141 L 836 141 L 811 0 L -53 0 Z" unicode="ž" />
<glyph horiz-adv-x="715" d="M -158 -412 C -165 -412 -173 -411 -183 -411 C -193 -411 -202 -410 -212 -410 C -222 -410 -231 -409 -239 -409 C -247 -409 -253 -408 -258 -408 L -231 -274 C -223 -275 -212 -276 -198 -277 C -183 -278 -170 -279 -158 -279 C -104 -279 -60 -266 -25 -241 C 10 -216 33 -175 43 -117 L 213 840 L 25 840 L 47 975 L 236 975 L 279 1229 C 287 1275 299 1317 317 1353 C 335 1389 359 1419 389 1444 C 419 1468 455 1487 499 1500 C 542 1513 593 1520 653 1520 C 661 1520 670 1519 680 1519 C 690 1519 699 1518 709 1518 C 719 1517 728 1516 736 1515 C 744 1514 751 1513 756 1513 L 729 1378 C 721 1379 709 1380 695 1381 C 681 1381 667 1382 655 1382 C 629 1382 606 1379 584 1375 C 562 1370 542 1362 524 1350 C 506 1338 492 1323 480 1304 C 468 1284 459 1260 455 1231 L 412 975 L 649 975 L 625 840 L 387 840 L 215 -133 C 207 -177 194 -217 177 -252 C 160 -286 137 -315 107 -339 C 77 -363 41 -381 -2 -393 C -45 -405 -97 -412 -158 -412 Z" unicode="ƒ" />
<glyph horiz-adv-x="983" d="" unicode="⁄" />
<glyph horiz-adv-x="1280" d="" unicode="∂" />
<glyph horiz-adv-x="1536" d="" unicode="∆" />
<glyph horiz-adv-x="1536" d="" unicode="∏" />
<glyph horiz-adv-x="1152" d="" unicode="∑" />
<glyph horiz-adv-x="1307" d="" unicode="−" />
<glyph horiz-adv-x="983" d="" unicode="∕" />
<glyph horiz-adv-x="1325" d="" unicode="Ș" />
<glyph horiz-adv-x="1028" d="" unicode="ș" />
<glyph horiz-adv-x="1255" d="" unicode="Ț" />
<glyph horiz-adv-x="754" d="" unicode="ț" />
<glyph horiz-adv-x="1575" d="" unicode="∞" />
<glyph horiz-adv-x="1152" d="" unicode="∫" />
<glyph horiz-adv-x="1249" d="" unicode="≈" />
<glyph horiz-adv-x="1796" d="M 311 942 L 125 942 L 150 1081 L 336 1081 L 365 1249 C 380 1341 414 1409 466 1453 C 518 1497 588 1520 676 1520 C 684 1520 694 1519 707 1518 C 720 1517 733 1516 746 1515 C 759 1513 771 1512 782 1510 C 793 1508 801 1507 805 1507 L 780 1372 C 770 1374 757 1376 741 1378 C 725 1380 709 1382 694 1382 C 672 1382 652 1379 635 1375 C 617 1370 602 1362 590 1351 C 577 1339 566 1324 558 1305 C 550 1286 543 1262 539 1233 L 512 1081 L 967 1081 L 995 1249 C 1010 1341 1043 1409 1094 1453 C 1145 1497 1215 1520 1303 1520 C 1312 1520 1323 1519 1336 1518 C 1349 1517 1362 1516 1375 1515 C 1388 1513 1400 1512 1411 1510 C 1421 1508 1429 1507 1434 1507 L 1407 1372 C 1397 1374 1385 1376 1369 1378 C 1353 1380 1337 1382 1321 1382 C 1299 1382 1279 1379 1263 1375 C 1246 1370 1231 1362 1219 1350 C 1206 1338 1195 1323 1187 1304 C 1179 1285 1172 1261 1167 1233 L 1141 1081 L 1348 1081 L 1323 942 L 1116 942 L 950 0 L 774 0 L 940 942 L 485 942 L 319 0 L 145 0 L 311 942 Z M 1626 1516 L 1800 1516 L 1534 0 L 1358 0 L 1626 1516 Z" unicode="ﬄ" />
<glyph horiz-adv-x="1114" d="" unicode="ə" />
<glyph horiz-adv-x="1307" d="" unicode="≠" />
<glyph horiz-adv-x="1307" d="" unicode="≤" />
<glyph horiz-adv-x="1307" d="" unicode="≥" />
<glyph horiz-adv-x="989" d="" unicode="⁰" />
<glyph horiz-adv-x="920" d="" unicode="⁴" />
<glyph horiz-adv-x="889" d="" unicode="⁵" />
<glyph horiz-adv-x="930" d="" unicode="⁶" />
<glyph horiz-adv-x="1044" d="M 281 1192 L 594 1522 L 723 1522 L 922 1192 L 813 1192 L 633 1384 L 385 1192 L 281 1192 Z" unicode="ˆ" />
<glyph horiz-adv-x="1044" d="M 537 1200 L 338 1530 L 446 1530 L 627 1337 L 874 1530 L 979 1530 L 666 1200 L 537 1200 Z" unicode="ˇ" />
<glyph horiz-adv-x="838" d="" unicode="⁷" />
<glyph horiz-adv-x="922" d="" unicode="⁸" />
<glyph horiz-adv-x="930" d="" unicode="⁹" />
<glyph horiz-adv-x="1010" d="" unicode="˘" />
<glyph horiz-adv-x="1010" d="" unicode="˙" />
<glyph horiz-adv-x="1092" d="M 643 1264 C 658 1264 673 1267 687 1273 C 701 1279 713 1287 723 1298 C 733 1309 742 1323 748 1339 C 754 1355 758 1373 758 1393 C 758 1419 750 1442 735 1460 C 720 1478 698 1487 670 1487 C 654 1487 640 1484 626 1478 C 612 1472 599 1463 589 1452 C 578 1441 570 1428 564 1412 C 558 1396 555 1378 555 1358 C 555 1331 562 1309 576 1291 C 590 1273 613 1264 643 1264 Z M 637 1182 C 609 1182 584 1186 563 1195 C 542 1204 524 1216 510 1232 C 496 1248 485 1266 478 1287 C 470 1308 467 1330 467 1354 C 467 1387 472 1417 484 1443 C 496 1469 511 1492 531 1510 C 551 1528 573 1542 598 1552 C 623 1562 649 1567 676 1567 C 703 1567 727 1562 749 1553 C 770 1544 788 1532 802 1517 C 816 1502 827 1484 835 1464 C 842 1443 846 1421 846 1399 C 846 1365 840 1334 828 1308 C 816 1281 800 1258 780 1240 C 760 1221 738 1207 713 1197 C 688 1187 663 1182 637 1182 Z" unicode="˚" />
<glyph horiz-adv-x="1010" d="" unicode="˛" />
<glyph horiz-adv-x="1024" d="M 752 1188 C 724 1188 697 1194 671 1206 C 645 1218 621 1231 598 1245 C 574 1259 552 1273 532 1285 C 511 1297 491 1303 473 1303 C 443 1303 420 1294 404 1277 C 388 1260 377 1232 371 1192 L 260 1192 C 271 1277 294 1339 330 1378 C 366 1416 414 1436 475 1436 C 503 1436 531 1430 557 1418 C 583 1406 607 1392 631 1378 C 654 1364 676 1351 696 1339 C 716 1327 734 1321 752 1321 C 782 1321 805 1329 821 1346 C 837 1363 848 1392 856 1432 L 969 1432 C 955 1347 930 1285 894 1246 C 858 1207 810 1188 752 1188 Z" unicode="˜" />
<glyph horiz-adv-x="1028" d="" unicode="˝" />
<glyph horiz-adv-x="1319" d="M 272 942 L 86 942 L 113 1081 L 297 1081 L 326 1249 C 341 1341 375 1409 427 1453 C 479 1497 549 1520 637 1520 C 645 1520 655 1519 668 1518 C 681 1517 694 1516 708 1515 C 721 1513 733 1512 744 1510 C 755 1508 763 1507 768 1507 L 741 1372 C 731 1374 719 1376 703 1378 C 687 1380 672 1382 657 1382 C 634 1382 614 1379 597 1375 C 579 1370 564 1362 551 1351 C 538 1339 527 1324 519 1305 C 511 1286 504 1262 500 1233 L 473 1081 L 928 1081 L 956 1249 C 971 1340 1004 1408 1055 1453 C 1106 1497 1181 1520 1280 1520 C 1288 1520 1298 1519 1312 1518 C 1326 1517 1340 1516 1354 1515 C 1368 1513 1380 1512 1392 1510 C 1403 1508 1411 1507 1415 1507 L 1389 1372 C 1380 1374 1366 1376 1348 1378 C 1329 1380 1311 1382 1294 1382 C 1271 1382 1251 1379 1233 1375 C 1215 1370 1199 1362 1185 1351 C 1171 1339 1160 1324 1151 1305 C 1141 1286 1134 1262 1130 1233 L 1104 1081 L 1325 1081 L 1300 942 L 1077 942 L 911 0 L 737 0 L 903 942 L 446 942 L 281 0 L 106 0 L 272 942 Z" unicode="ﬀ" />
<glyph horiz-adv-x="1167" d="M 106 0 L 270 938 L 84 938 L 111 1081 L 297 1081 L 326 1249 C 341 1341 374 1409 425 1453 C 476 1497 545 1520 633 1520 C 643 1520 654 1519 667 1518 C 680 1517 693 1516 706 1515 C 718 1513 730 1512 741 1510 C 751 1508 759 1507 764 1507 L 737 1368 C 727 1370 715 1371 699 1373 C 683 1375 667 1376 651 1376 C 628 1376 608 1374 592 1370 C 575 1366 560 1358 548 1348 C 536 1337 526 1322 518 1304 C 510 1285 504 1261 500 1233 L 473 1081 L 680 1081 L 653 938 L 446 938 L 281 0 L 106 0 Z M 690 0 L 881 1081 L 1057 1081 L 864 0 L 690 0 Z M 918 1315 L 948 1485 L 1128 1485 L 1100 1315 L 918 1315 Z" unicode="ﬁ" />
<glyph horiz-adv-x="1167" d="M 106 0 L 270 938 L 84 938 L 111 1081 L 297 1081 L 326 1249 C 341 1341 374 1409 425 1453 C 476 1497 545 1520 633 1520 C 643 1520 654 1519 667 1518 C 680 1517 693 1516 706 1515 C 718 1513 730 1512 741 1510 C 751 1508 759 1507 764 1507 L 737 1368 C 727 1370 715 1371 699 1373 C 683 1375 667 1376 651 1376 C 628 1376 608 1374 592 1370 C 575 1366 560 1358 548 1348 C 536 1337 526 1322 518 1304 C 510 1285 504 1261 500 1233 L 473 1081 L 680 1081 L 653 938 L 446 938 L 281 0 L 106 0 Z M 690 0 L 956 1516 L 1130 1516 L 864 0 L 690 0 Z" unicode="ﬂ" />
<glyph horiz-adv-x="1796" d="M 272 942 L 86 942 L 113 1081 L 297 1081 L 326 1249 C 341 1341 375 1409 427 1453 C 479 1497 549 1520 637 1520 C 645 1520 655 1519 668 1518 C 681 1517 694 1516 708 1515 C 721 1513 733 1512 744 1510 C 755 1508 763 1507 768 1507 L 741 1372 C 731 1374 719 1376 703 1378 C 687 1380 672 1382 657 1382 C 634 1382 614 1379 597 1375 C 579 1370 564 1362 551 1351 C 538 1339 527 1324 519 1305 C 511 1286 504 1262 500 1233 L 473 1081 L 928 1081 L 956 1249 C 971 1341 1004 1409 1056 1453 C 1107 1497 1176 1520 1264 1520 C 1274 1520 1285 1519 1298 1518 C 1311 1517 1324 1516 1337 1515 C 1349 1513 1361 1512 1372 1510 C 1382 1508 1390 1507 1395 1507 L 1368 1372 C 1358 1374 1346 1376 1330 1378 C 1314 1380 1299 1382 1284 1382 C 1261 1382 1241 1379 1224 1375 C 1207 1370 1192 1362 1180 1350 C 1168 1338 1157 1323 1149 1304 C 1141 1285 1134 1261 1130 1233 L 1104 1081 L 1311 1081 L 1284 942 L 1077 942 L 911 0 L 737 0 L 903 942 L 446 942 L 281 0 L 106 0 L 272 942 Z M 1511 1081 L 1688 1081 L 1495 0 L 1321 0 L 1511 1081 Z M 1579 1485 L 1759 1485 L 1731 1315 L 1548 1315 L 1579 1485 Z" unicode="ﬃ" />
<glyph horiz-adv-x="1010" d="M 315 1194 L 340 1335 L 879 1335 L 854 1194 L 315 1194 Z" unicode="̄" />
<glyph horiz-adv-x="555" d="" unicode="̦" />
<glyph horiz-adv-x="1536" d="" unicode="Δ" />
<glyph horiz-adv-x="1664" d="" unicode="Ω" />
<glyph horiz-adv-x="1188" d="M -49 -410 L 215 1081 L 389 1081 L 260 344 C 246 273 253 219 281 182 C 308 145 360 127 438 127 C 494 127 550 142 606 173 C 662 204 719 245 776 297 L 915 1081 L 1090 1081 L 899 0 L 723 0 L 754 166 C 732 144 707 122 679 100 C 651 78 621 59 589 42 C 557 24 524 10 490 0 C 455 -10 420 -16 385 -16 C 343 -16 307 -9 277 3 C 246 16 224 36 211 63 L 127 -410 L -49 -410 Z" unicode="μ" />
<glyph horiz-adv-x="1408" d="" unicode="π" />
<glyph horiz-adv-x="1456" d="M 766 -29 C 694 -29 628 -18 568 4 C 508 26 455 59 411 105 C 366 151 330 209 304 279 C 277 349 262 432 260 528 L 4 528 L 27 659 L 262 659 C 263 690 265 721 269 751 C 273 781 277 810 283 840 L 59 840 L 82 969 L 311 969 C 337 1058 370 1138 412 1209 C 454 1280 501 1340 555 1390 C 609 1440 667 1478 731 1504 C 795 1530 862 1544 932 1544 C 1015 1544 1085 1532 1141 1510 C 1197 1488 1243 1457 1279 1418 C 1314 1378 1340 1332 1358 1278 C 1376 1224 1388 1165 1395 1102 L 1227 1079 C 1222 1129 1214 1173 1203 1211 C 1191 1249 1174 1282 1151 1308 C 1128 1334 1098 1354 1062 1368 C 1025 1382 979 1389 924 1389 C 872 1389 824 1379 780 1359 C 736 1339 695 1310 659 1273 C 622 1236 589 1192 561 1140 C 532 1088 508 1031 489 969 L 938 969 L 915 840 L 459 840 C 453 810 449 781 445 751 C 441 721 438 690 436 659 L 883 659 L 860 528 L 434 528 C 435 458 444 398 460 348 C 476 297 498 255 527 223 C 556 190 591 166 633 150 C 675 134 722 127 776 127 C 816 127 854 134 888 148 C 922 162 954 184 984 213 C 1013 241 1041 277 1067 320 C 1093 362 1118 412 1143 469 L 1288 406 C 1262 345 1233 288 1200 236 C 1166 183 1128 137 1085 98 C 1042 58 994 27 941 5 C 888 -17 830 -29 766 -29 Z" unicode="€" />
<glyph horiz-adv-x="559" d="M 137 551 L 174 766 L 389 766 L 350 551 L 137 551 Z" unicode="∙" />
<glyph horiz-adv-x="1157" d="" unicode="√" />
<glyph horiz-adv-x="1153" d="M 279 -410 L 530 848 L 106 823 L 135 991 L 551 965 L 616 1516 L 805 1516 L 678 965 L 1102 991 L 1073 823 L 657 848 L 467 -410 L 279 -410 Z" unicode="†" />
<glyph horiz-adv-x="1153" d="M 279 -410 L 391 68 L -10 43 L 16 205 L 412 180 L 455 557 L 545 928 L 139 903 L 170 1065 L 563 1040 L 616 1516 L 807 1516 L 692 1040 L 1096 1065 L 1065 903 L 672 928 L 629 557 L 541 180 L 942 205 L 915 43 L 520 68 L 467 -410 L 279 -410 Z" unicode="‡" />
<glyph horiz-adv-x="948" d="M 440 471 C 404 471 372 477 342 489 C 312 501 286 519 264 541 C 242 563 224 589 212 619 C 199 649 193 681 193 717 C 193 753 199 786 212 817 C 224 847 242 874 264 896 C 286 918 312 936 342 948 C 372 960 404 967 440 967 C 476 967 509 960 539 948 C 569 936 596 918 618 896 C 640 874 657 847 669 817 C 681 786 688 753 688 717 C 688 681 681 649 669 619 C 657 589 640 563 618 541 C 596 519 569 501 539 489 C 509 477 476 471 440 471 Z" unicode="•" />
<glyph horiz-adv-x="1663" d="M 1149 0 L 1188 215 L 1397 215 L 1358 0 L 1149 0 Z M 596 0 L 633 215 L 842 215 L 805 0 L 596 0 Z M 41 0 L 80 215 L 289 215 L 250 0 L 41 0 Z" unicode="…" />
<glyph horiz-adv-x="1331" d="" unicode="◊" />
<glyph horiz-adv-x="1556" d="" unicode="" />
<glyph horiz-adv-x="1886" d="" unicode="Ẁ" />
<glyph horiz-adv-x="1522" d="" unicode="ẁ" />
<glyph horiz-adv-x="1886" d="" unicode="Ẃ" />
<glyph horiz-adv-x="1522" d="" unicode="ẃ" />
<glyph horiz-adv-x="1886" d="" unicode="Ẅ" />
<glyph horiz-adv-x="1522" d="" unicode="ẅ" />
<glyph horiz-adv-x="1769" d="" unicode="℗" />
<glyph horiz-adv-x="2861" d="M 346 0 L 1501 1516 L 1667 1516 L 512 0 L 346 0 Z M 2288 109 C 2325 109 2359 121 2390 146 C 2421 171 2448 204 2471 246 C 2493 288 2511 335 2523 389 C 2535 442 2542 497 2542 553 C 2542 585 2539 615 2533 643 C 2527 670 2517 693 2505 713 C 2492 733 2476 748 2456 759 C 2436 770 2412 776 2384 776 C 2346 776 2312 763 2281 738 C 2249 713 2222 680 2200 638 C 2177 596 2159 549 2147 496 C 2134 442 2128 388 2128 332 C 2128 299 2131 269 2137 242 C 2143 214 2153 191 2166 171 C 2179 151 2196 136 2216 125 C 2236 114 2260 109 2288 109 Z M 2279 -20 C 2227 -20 2181 -11 2143 7 C 2105 25 2073 49 2047 81 C 2021 113 2002 150 1990 194 C 1978 237 1972 284 1972 336 C 1972 428 1984 509 2008 580 C 2032 651 2064 711 2104 759 C 2144 807 2189 843 2240 868 C 2290 892 2342 905 2394 905 C 2446 905 2491 896 2529 878 C 2567 860 2598 836 2623 804 C 2648 772 2667 735 2679 691 C 2691 647 2697 598 2697 545 C 2697 457 2685 379 2663 309 C 2640 239 2609 180 2571 132 C 2533 83 2488 45 2438 19 C 2387 -6 2334 -20 2279 -20 Z M 1440 109 C 1477 109 1511 121 1542 146 C 1573 171 1600 204 1623 246 C 1645 288 1663 335 1675 389 C 1687 442 1694 497 1694 553 C 1694 585 1691 615 1685 643 C 1679 670 1669 693 1657 713 C 1644 733 1628 748 1608 759 C 1588 770 1564 776 1536 776 C 1498 776 1464 763 1433 738 C 1401 713 1374 680 1352 638 C 1329 596 1311 549 1299 496 C 1286 442 1280 388 1280 332 C 1280 299 1283 269 1289 242 C 1295 214 1305 191 1318 171 C 1331 151 1348 136 1368 125 C 1388 114 1412 109 1440 109 Z M 1432 -20 C 1380 -20 1334 -11 1296 7 C 1257 25 1225 49 1199 81 C 1173 113 1154 150 1142 194 C 1130 237 1124 284 1124 336 C 1124 428 1136 509 1160 580 C 1184 651 1216 711 1256 759 C 1296 807 1341 843 1392 868 C 1442 892 1494 905 1546 905 C 1598 905 1643 896 1681 878 C 1719 860 1750 836 1775 804 C 1800 772 1819 735 1831 691 C 1843 647 1849 598 1849 545 C 1849 457 1837 379 1815 309 C 1792 239 1761 180 1723 132 C 1685 83 1640 45 1590 19 C 1540 -6 1487 -20 1432 -20 Z M 479 741 C 516 741 550 753 582 779 C 613 804 640 837 663 879 C 685 921 703 968 716 1022 C 728 1076 735 1131 735 1188 C 735 1220 732 1249 726 1277 C 720 1304 710 1327 698 1347 C 685 1366 668 1381 648 1392 C 628 1403 603 1409 575 1409 C 537 1409 503 1396 472 1371 C 440 1346 413 1313 391 1271 C 368 1229 350 1182 338 1129 C 325 1075 319 1021 319 965 C 319 932 322 902 329 875 C 335 847 345 824 358 804 C 371 784 388 768 408 757 C 428 746 451 741 479 741 Z M 471 614 C 419 614 373 622 335 640 C 296 658 264 682 239 714 C 213 746 194 783 182 827 C 170 871 164 919 164 971 C 164 1063 176 1144 200 1215 C 224 1285 256 1344 296 1392 C 336 1440 381 1476 432 1501 C 482 1525 534 1538 586 1538 C 638 1538 683 1529 721 1511 C 759 1493 790 1469 816 1437 C 841 1405 860 1368 872 1324 C 884 1280 891 1231 891 1178 C 891 1090 879 1012 856 942 C 833 872 802 813 764 765 C 725 716 680 679 630 653 C 579 627 526 614 471 614 Z" unicode="‰" />
<glyph horiz-adv-x="1812" d="M 385 649 L 385 1405 L 121 1405 L 121 1516 L 778 1516 L 778 1405 L 514 1405 L 514 649 L 385 649 Z M 924 649 L 924 1516 L 1096 1516 L 1337 819 L 1583 1516 L 1753 1516 L 1753 649 L 1624 649 L 1624 1309 L 1389 649 L 1280 649 L 1044 1309 L 1044 649 L 924 649 Z" unicode="™" />
<glyph horiz-adv-x="489" d="" unicode="′" />
<glyph horiz-adv-x="1664" d="" unicode="Ω" />
<glyph horiz-adv-x="1272" d="" unicode="Ỳ" />
<glyph horiz-adv-x="1071" d="" unicode="ỳ" />
<glyph horiz-adv-x="850" d="" unicode="″" />
<glyph horiz-adv-x="1157" d="" unicode="✓" />
<glyph horiz-adv-x="682" d="M 262 0 L 47 543 L 455 1081 L 631 1081 L 231 543 L 438 0 L 262 0 Z" unicode="‹" />
<glyph horiz-adv-x="682" d="M -25 0 L 375 543 L 168 1081 L 344 1081 L 559 543 L 154 0 L -25 0 Z" unicode="›" />
</font>
</defs>
</svg>
