<?xml version="1.0" standalone="yes"?><svg version="1.1" xmlns = 'http://www.w3.org/2000/svg'><defs><font id='web' horiz-adv-x="1000">
<font-face font-family="web" descent="-436" cap-height="1516" units-per-em="2048" bbox="-154,-616,2748,2050" x-height="1096" ascent="1612" />
<missing-glyph horiz-adv-x="1024" d="" /><glyph horiz-adv-x="1095" d="" unicode="" />
<glyph horiz-adv-x="1024" d="" unicode=" " />
<glyph horiz-adv-x="2048" d="" unicode=" " />
<glyph horiz-adv-x="1155" d="" unicode=" " />
<glyph horiz-adv-x="2314" d="" unicode=" " />
<glyph horiz-adv-x="410" d="" unicode=" " />
<glyph horiz-adv-x="1155" d="" unicode="‒" />
<glyph horiz-adv-x="1212" d="M 78 475 L 78 786 L 1135 786 L 1135 475 L 78 475 Z" unicode="–" />
<glyph horiz-adv-x="1597" d="M 74 475 L 74 786 L 1524 786 L 1524 475 L 74 475 Z" unicode="—" />
<glyph horiz-adv-x="2048" d="" unicode="―" />
<glyph horiz-adv-x="518" d="M 78 895 L 78 1231 L 240 1516 L 416 1516 L 311 1255 L 440 1255 L 440 895 L 78 895 Z" unicode="‘" />
<glyph horiz-adv-x="518" d="M 78 1155 L 78 1516 L 440 1516 L 440 1180 L 276 895 L 102 895 L 205 1155 L 78 1155 Z" unicode="’" />
<glyph horiz-adv-x="518" d="M 78 0 L 78 360 L 440 360 L 440 25 L 276 -260 L 102 -260 L 205 0 L 78 0 Z" unicode="‚" />
<glyph horiz-adv-x="1012" d="M 78 895 L 78 1231 L 240 1516 L 416 1516 L 311 1255 L 440 1255 L 440 895 L 78 895 Z M 571 895 L 571 1231 L 735 1516 L 909 1516 L 807 1255 L 934 1255 L 934 895 L 571 895 Z" unicode="“" />
<glyph horiz-adv-x="1012" d="M 78 1155 L 78 1516 L 440 1516 L 440 1180 L 276 895 L 102 895 L 205 1155 L 78 1155 Z M 571 1155 L 571 1516 L 934 1516 L 934 1180 L 772 895 L 596 895 L 700 1155 L 571 1155 Z" unicode="”" />
<glyph horiz-adv-x="1012" d="M 78 0 L 78 360 L 440 360 L 440 25 L 276 -260 L 102 -260 L 205 0 L 78 0 Z M 571 0 L 571 360 L 934 360 L 934 25 L 772 -260 L 596 -260 L 700 0 L 571 0 Z" unicode="„" />
<glyph horiz-adv-x="483" d="" unicode=" " />
<glyph horiz-adv-x="674" d="M 117 1516 L 569 1516 L 496 469 L 190 469 L 117 1516 Z M 145 0 L 145 334 L 541 334 L 541 0 L 145 0 Z" unicode="!" />
<glyph horiz-adv-x="877" d="M 88 1380 L 88 1516 L 399 1516 L 399 1380 L 371 958 L 117 958 L 88 1380 Z M 477 1380 L 477 1516 L 788 1516 L 788 1380 L 760 958 L 506 958 L 477 1380 Z" unicode="&#x22;" />
<glyph horiz-adv-x="1378" d="M 25 377 L 25 657 L 256 657 L 293 858 L 98 858 L 98 1139 L 344 1139 L 412 1516 L 741 1516 L 676 1139 L 811 1139 L 879 1516 L 1208 1516 L 1143 1139 L 1354 1139 L 1354 858 L 1092 858 L 1055 657 L 1278 657 L 1278 377 L 1004 377 L 940 0 L 608 0 L 672 377 L 539 377 L 473 0 L 141 0 L 205 377 L 25 377 Z M 586 651 L 725 651 L 764 864 L 625 864 L 586 651 Z" unicode="#" />
<glyph horiz-adv-x="1204" d="M 41 444 L 362 532 C 372 496 385 464 400 434 C 415 404 433 378 453 356 C 473 334 497 317 524 305 C 551 293 582 287 618 287 C 668 287 707 297 737 319 C 767 341 782 372 782 414 C 782 448 772 476 752 498 C 732 520 706 540 674 556 C 641 572 604 587 563 601 C 521 615 479 630 436 646 C 392 662 350 682 309 704 C 267 726 230 753 198 787 C 165 820 139 860 119 907 C 99 954 90 1011 90 1079 C 90 1137 98 1190 116 1238 C 134 1286 159 1329 193 1366 C 226 1402 267 1433 315 1458 C 363 1482 417 1500 477 1511 L 477 1677 L 733 1677 L 733 1511 C 787 1500 834 1482 876 1458 C 918 1434 954 1405 985 1371 C 1016 1337 1043 1298 1065 1256 C 1087 1214 1106 1169 1122 1122 L 813 1004 C 790 1068 759 1120 720 1160 C 681 1199 635 1219 582 1219 C 538 1219 506 1208 484 1188 C 462 1168 451 1141 451 1108 C 451 1074 461 1045 481 1023 C 501 1000 527 980 559 964 C 591 948 628 933 670 919 C 712 905 754 890 798 874 C 841 858 883 839 925 817 C 967 795 1004 768 1036 736 C 1068 704 1095 664 1115 618 C 1135 571 1145 515 1145 449 C 1145 394 1136 342 1120 293 C 1104 244 1079 200 1045 161 C 1011 121 968 88 916 61 C 864 33 803 14 733 4 L 733 -190 L 477 -190 L 477 6 C 411 17 355 36 307 64 C 259 91 217 124 183 163 C 148 201 119 245 96 293 C 73 341 55 391 41 444 Z" unicode="$" />
<glyph horiz-adv-x="1978" d="M 31 1024 C 31 1108 39 1182 56 1246 C 73 1310 98 1363 131 1405 C 163 1447 203 1479 250 1500 C 297 1521 350 1532 410 1532 C 529 1532 622 1489 688 1405 C 754 1321 788 1194 788 1024 C 788 852 754 724 688 640 C 622 556 529 514 410 514 C 350 514 297 524 250 545 C 203 566 163 598 131 640 C 98 682 73 736 56 800 C 39 864 31 938 31 1024 Z M 332 1024 C 332 978 333 940 335 908 C 337 876 340 850 346 830 C 352 810 360 795 370 786 C 380 776 393 772 410 772 C 427 772 441 776 451 786 C 461 795 468 810 474 830 C 479 850 482 876 484 908 C 486 940 487 978 487 1024 C 487 1068 486 1106 484 1137 C 482 1168 479 1193 473 1213 C 467 1232 460 1246 450 1255 C 440 1263 426 1268 410 1268 C 392 1268 378 1263 368 1255 C 358 1246 350 1232 345 1213 C 339 1193 336 1168 334 1137 C 332 1106 332 1068 332 1024 Z M 453 0 L 1221 1516 L 1524 1516 L 756 0 L 453 0 Z M 1190 494 C 1190 578 1198 652 1215 716 C 1232 780 1257 833 1290 875 C 1322 917 1362 948 1409 969 C 1456 990 1509 1001 1569 1001 C 1629 1001 1682 990 1729 969 C 1775 948 1815 917 1848 875 C 1880 833 1905 780 1922 716 C 1939 652 1948 578 1948 494 C 1948 408 1939 334 1922 270 C 1905 206 1880 152 1848 110 C 1815 68 1775 36 1729 15 C 1682 -5 1629 -16 1569 -16 C 1509 -16 1456 -5 1409 15 C 1362 36 1322 68 1290 110 C 1257 152 1232 206 1215 270 C 1198 334 1190 408 1190 494 Z M 1491 494 C 1491 448 1492 410 1494 378 C 1496 346 1499 320 1505 300 C 1511 280 1519 265 1529 256 C 1539 246 1552 242 1569 242 C 1586 242 1600 246 1610 256 C 1620 265 1628 280 1634 300 C 1639 320 1642 346 1644 378 C 1646 410 1647 448 1647 494 C 1647 538 1646 576 1644 607 C 1642 637 1638 662 1633 682 C 1627 701 1619 715 1609 724 C 1599 732 1585 737 1569 737 C 1551 737 1537 732 1527 724 C 1517 715 1509 701 1504 682 C 1498 662 1495 637 1493 607 C 1491 576 1491 538 1491 494 Z" unicode="%" />
<glyph horiz-adv-x="1350" d="M 8 365 C 8 425 16 477 32 523 C 48 569 69 609 97 644 C 124 679 155 710 191 736 C 226 762 263 787 303 809 C 279 862 260 918 244 976 C 228 1034 221 1095 221 1157 C 221 1215 230 1268 250 1316 C 269 1364 297 1404 333 1438 C 369 1472 412 1498 464 1516 C 516 1534 574 1544 639 1544 C 709 1544 768 1534 817 1516 C 866 1497 906 1472 937 1442 C 967 1411 989 1376 1003 1337 C 1017 1297 1024 1257 1024 1217 C 1024 1158 1015 1106 997 1061 C 979 1016 956 976 927 940 C 898 904 865 873 828 845 C 790 817 752 790 713 766 L 743 722 L 772 680 C 792 652 813 625 834 601 C 854 576 875 552 897 530 C 910 568 921 608 930 652 C 938 696 944 742 948 791 L 1260 791 C 1250 718 1237 643 1219 567 C 1201 491 1175 418 1143 348 C 1205 317 1274 299 1350 293 L 1350 -20 C 1263 -18 1185 -8 1115 7 C 1045 23 981 48 922 80 C 872 46 815 19 752 0 C 689 -19 617 -29 537 -29 C 451 -29 375 -19 309 -1 C 243 16 187 43 143 77 C 99 111 65 152 42 201 C 19 249 8 304 8 365 Z M 371 412 C 371 381 375 354 385 332 C 394 310 407 291 423 277 C 439 263 458 252 480 246 C 502 239 525 236 551 236 C 597 236 641 245 682 264 C 654 293 626 324 598 358 C 570 391 542 427 514 467 L 478 516 L 436 573 C 415 550 399 526 388 500 C 376 474 371 444 371 412 Z M 557 1180 C 557 1148 561 1116 569 1082 C 577 1048 588 1014 602 979 C 637 1005 665 1036 687 1071 C 708 1106 719 1148 719 1196 C 719 1208 717 1219 715 1230 C 712 1241 708 1251 702 1259 C 696 1267 688 1274 679 1280 C 669 1285 658 1288 645 1288 C 633 1288 622 1286 612 1282 C 601 1278 592 1271 584 1263 C 576 1254 569 1243 564 1229 C 559 1215 557 1199 557 1180 Z" unicode="&#x26;" />
<glyph horiz-adv-x="492" d="M 88 1380 L 88 1516 L 403 1516 L 403 1380 L 373 958 L 117 958 L 88 1380 Z" unicode="'" />
<glyph horiz-adv-x="748" d="M 55 580 C 55 682 65 778 86 870 C 106 962 136 1049 175 1132 C 213 1214 260 1293 315 1367 C 370 1441 432 1511 500 1579 L 717 1419 C 676 1359 639 1297 605 1232 C 571 1167 541 1099 517 1029 C 492 959 473 886 459 811 C 445 736 438 659 438 580 C 438 500 445 421 459 343 C 473 265 492 189 517 117 C 542 45 572 -23 607 -88 C 642 -152 681 -212 723 -266 L 500 -422 C 432 -355 370 -285 315 -211 C 260 -137 213 -58 175 24 C 136 107 106 195 86 287 C 65 379 55 477 55 580 Z" unicode="(" />
<glyph horiz-adv-x="748" d="M 25 -266 C 66 -206 104 -144 139 -79 C 173 -13 203 54 229 125 C 254 195 274 268 288 344 C 302 420 309 498 309 578 C 309 657 302 735 288 813 C 274 890 255 965 231 1037 C 207 1109 177 1177 143 1241 C 109 1305 71 1365 31 1419 L 248 1579 C 316 1513 377 1442 432 1368 C 486 1294 533 1215 572 1132 C 610 1049 640 961 661 869 C 681 777 692 680 692 578 C 692 476 681 379 661 287 C 640 195 610 108 572 26 C 534 -56 487 -135 433 -209 C 378 -283 317 -354 250 -422 L 25 -266 Z" unicode=")" />
<glyph horiz-adv-x="1006" d="M 51 969 L 51 1194 L 371 1159 C 369 1160 364 1165 358 1173 L 335 1204 L 304 1244 L 269 1290 L 176 1413 L 379 1530 L 502 1245 L 629 1530 L 831 1413 L 643 1161 L 954 1194 L 954 969 L 645 999 L 831 752 L 631 635 L 502 915 L 379 635 L 178 752 L 360 999 L 51 969 Z" unicode="*" />
<glyph horiz-adv-x="1188" d="M 115 559 L 115 862 L 438 862 L 438 1247 L 750 1247 L 750 862 L 1073 862 L 1073 559 L 750 559 L 750 174 L 438 174 L 438 559 L 115 559 Z" unicode="+" />
<glyph horiz-adv-x="510" d="M 70 0 L 70 360 L 440 360 L 440 41 L 287 -240 L 113 -240 L 215 0 L 70 0 Z" unicode="," />
<glyph horiz-adv-x="655" d="M 59 504 L 59 766 L 594 766 L 594 504 L 59 504 Z" unicode="-" />
<glyph horiz-adv-x="510" d="M 70 0 L 70 360 L 440 360 L 440 0 L 70 0 Z" unicode="." />
<glyph horiz-adv-x="1167" d="M 18 0 L 766 1516 L 1147 1516 L 399 0 L 18 0 Z" unicode="/" />
<glyph horiz-adv-x="1249" d="M 53 758 C 53 888 65 1003 91 1101 C 116 1199 153 1281 202 1347 C 250 1413 310 1462 381 1495 C 451 1527 532 1544 623 1544 C 713 1544 794 1527 865 1495 C 935 1462 995 1413 1044 1347 C 1092 1281 1129 1199 1154 1101 C 1179 1003 1192 888 1192 758 C 1192 626 1179 511 1154 413 C 1129 315 1092 233 1044 167 C 995 101 935 52 865 20 C 794 -12 713 -29 623 -29 C 532 -29 451 -12 381 20 C 310 52 250 101 202 167 C 153 233 116 315 91 413 C 65 511 53 626 53 758 Z M 432 758 C 432 670 435 595 443 534 C 451 473 462 424 478 386 C 494 348 514 321 538 304 C 562 287 590 279 623 279 C 657 279 686 287 710 304 C 734 321 753 348 769 386 C 784 424 795 473 802 534 C 809 595 813 670 813 758 C 813 846 809 920 802 980 C 794 1040 783 1088 768 1124 C 752 1160 733 1187 709 1203 C 685 1219 656 1227 623 1227 C 589 1227 560 1219 536 1203 C 512 1187 492 1160 476 1124 C 460 1088 449 1040 442 980 C 435 920 432 846 432 758 Z" unicode="0" />
<glyph horiz-adv-x="860" d="M 33 0 L 33 303 L 264 303 L 264 1171 C 248 1161 231 1152 213 1144 C 195 1136 176 1128 156 1122 C 136 1116 115 1111 95 1107 C 75 1103 55 1102 37 1102 L 37 1417 C 87 1419 131 1428 170 1444 C 209 1460 243 1484 272 1516 L 635 1516 L 635 303 L 838 303 L 838 0 L 33 0 Z" unicode="1" />
<glyph horiz-adv-x="1112" d="M 29 0 L 29 33 C 29 125 38 206 57 276 C 75 346 100 408 131 462 C 161 516 196 564 235 605 C 274 646 314 684 356 718 L 476 813 C 514 842 549 872 580 902 C 610 932 635 965 654 1000 C 672 1035 682 1075 682 1120 C 682 1152 672 1177 654 1195 C 636 1213 608 1223 571 1223 C 529 1223 488 1206 447 1173 C 406 1139 370 1088 340 1018 L 41 1153 C 66 1210 95 1263 129 1311 C 163 1359 202 1400 247 1434 C 292 1468 343 1495 401 1515 C 458 1534 523 1544 596 1544 C 670 1544 735 1533 792 1513 C 848 1492 896 1463 934 1427 C 972 1391 1001 1348 1021 1298 C 1041 1248 1051 1195 1051 1137 C 1051 1077 1042 1023 1026 975 C 1010 927 988 882 961 842 C 934 802 903 765 869 732 C 834 698 798 667 762 638 L 656 554 C 620 527 589 500 561 474 C 533 448 511 421 493 393 C 475 365 466 335 465 303 L 1049 303 L 1049 0 L 29 0 Z" unicode="2" />
<glyph horiz-adv-x="1135" d="M -8 319 L 287 455 C 312 396 345 350 386 316 C 427 282 474 266 526 266 C 556 266 582 270 606 280 C 629 289 649 302 665 318 C 681 334 693 352 701 373 C 709 394 713 416 713 440 C 713 479 706 512 693 540 C 680 567 661 589 637 606 C 612 622 582 634 546 642 C 510 649 470 653 426 653 L 348 653 L 348 932 L 436 932 C 486 932 526 936 558 944 C 590 952 614 964 632 980 C 650 996 662 1015 668 1038 C 674 1060 678 1086 678 1114 C 678 1150 667 1179 646 1202 C 625 1225 591 1237 543 1237 C 495 1237 450 1223 408 1195 C 365 1167 329 1131 299 1085 L 49 1255 C 77 1297 110 1336 146 1372 C 182 1407 221 1437 265 1463 C 309 1488 356 1508 408 1522 C 459 1536 515 1544 575 1544 C 644 1544 707 1535 765 1517 C 823 1499 872 1474 914 1441 C 956 1408 988 1368 1012 1320 C 1035 1272 1047 1219 1047 1159 C 1047 1115 1041 1075 1029 1038 C 1017 1000 1001 967 979 937 C 957 907 930 881 898 859 C 866 837 831 821 791 809 C 884 782 956 738 1006 676 C 1056 614 1081 532 1081 430 C 1081 355 1067 289 1040 232 C 1013 174 976 126 928 88 C 880 49 824 20 759 0 C 693 -19 622 -29 545 -29 C 475 -29 412 -20 354 -3 C 296 14 244 38 198 69 C 152 100 111 137 77 179 C 43 221 14 268 -8 319 Z" unicode="3" />
<glyph horiz-adv-x="1237" d="M 27 295 L 27 555 L 606 1516 L 1012 1516 L 1012 575 L 1217 575 L 1217 295 L 1012 295 L 1012 0 L 647 0 L 647 295 L 27 295 Z M 383 575 L 653 575 L 653 1028 L 651 1028 L 383 575 Z" unicode="4" />
<glyph horiz-adv-x="1118" d="M 2 319 L 297 455 C 322 396 355 350 396 316 C 437 282 484 266 537 266 C 567 266 593 270 616 278 C 639 286 659 299 675 318 C 691 336 703 361 711 391 C 719 421 723 458 723 502 C 723 583 706 642 674 680 C 642 718 596 737 537 737 C 520 737 503 734 485 729 C 467 723 450 715 433 705 C 416 695 400 682 385 668 C 369 653 356 636 344 618 L 82 676 L 133 1516 L 995 1516 L 977 1196 L 432 1196 L 410 911 C 420 925 433 938 449 952 C 465 966 484 978 506 988 C 528 998 554 1007 582 1014 C 610 1020 642 1024 678 1024 C 748 1024 810 1012 862 989 C 914 966 957 933 991 889 C 1025 845 1050 792 1067 728 C 1083 664 1092 592 1092 512 C 1092 426 1079 349 1055 282 C 1030 215 994 158 948 112 C 901 66 844 31 778 7 C 712 -17 637 -29 555 -29 C 485 -29 422 -20 364 -3 C 306 14 254 38 208 69 C 162 100 121 137 87 179 C 53 221 24 268 2 319 Z" unicode="5" />
<glyph horiz-adv-x="1165" d="M 53 731 C 53 878 68 1003 98 1107 C 128 1210 169 1294 221 1359 C 273 1423 335 1470 406 1500 C 477 1529 554 1544 637 1544 C 701 1544 758 1535 808 1519 C 857 1502 900 1480 938 1452 C 976 1424 1008 1391 1035 1355 C 1061 1319 1084 1281 1104 1243 L 803 1096 C 794 1114 784 1131 772 1149 C 760 1167 747 1183 733 1197 C 719 1211 703 1222 686 1231 C 668 1240 649 1245 629 1245 C 599 1245 571 1239 547 1227 C 523 1215 502 1195 484 1167 C 466 1139 452 1101 441 1055 C 430 1009 422 951 418 883 C 467 921 517 947 569 963 C 620 979 671 987 721 987 C 781 987 836 976 887 956 C 938 935 982 904 1020 863 C 1057 821 1086 770 1107 708 C 1128 646 1139 574 1139 492 C 1139 414 1126 344 1102 280 C 1078 216 1043 161 997 115 C 951 69 896 34 831 9 C 766 -16 693 -29 612 -29 C 522 -29 443 -12 374 19 C 304 51 246 99 199 163 C 151 227 115 306 90 401 C 65 495 53 605 53 731 Z M 416 621 C 419 553 426 495 436 449 C 446 403 461 365 479 337 C 497 308 518 287 544 275 C 569 262 599 256 633 256 C 659 256 682 261 702 273 C 721 284 737 299 749 319 C 761 338 769 361 775 388 C 781 414 784 443 784 473 C 784 503 781 531 777 557 C 773 583 765 606 753 626 C 741 645 726 660 706 671 C 686 682 660 688 629 688 C 608 688 589 686 571 684 C 553 682 535 678 518 673 C 501 668 484 661 468 653 C 451 644 434 633 416 621 Z" unicode="6" />
<glyph horiz-adv-x="963" d="M -4 1196 L -4 1516 L 965 1516 L 965 1219 L 494 0 L 106 0 L 575 1196 L -4 1196 Z" unicode="7" />
<glyph horiz-adv-x="1159" d="M 27 387 C 27 431 34 473 49 513 C 64 553 84 589 109 623 C 134 657 163 687 196 715 C 228 742 262 766 297 786 C 266 806 238 828 212 850 C 186 872 163 898 144 927 C 125 955 110 988 100 1025 C 89 1062 84 1106 84 1157 C 84 1209 94 1258 115 1305 C 136 1351 167 1392 209 1428 C 250 1463 302 1491 364 1512 C 426 1533 498 1544 580 1544 C 664 1544 738 1533 800 1512 C 862 1491 914 1463 955 1427 C 995 1391 1025 1350 1045 1304 C 1065 1257 1075 1208 1075 1157 C 1075 1119 1070 1083 1060 1047 C 1050 1011 1035 977 1017 945 C 998 913 976 883 950 856 C 924 829 896 806 864 788 C 900 767 935 745 968 722 C 1000 699 1029 672 1054 642 C 1078 611 1098 575 1112 534 C 1126 493 1133 444 1133 387 C 1133 322 1120 264 1095 213 C 1070 161 1034 118 987 82 C 939 46 881 18 813 0 C 744 -19 666 -29 580 -29 C 489 -29 409 -19 340 0 C 271 20 213 48 167 84 C 121 120 86 164 62 215 C 38 266 27 323 27 387 Z M 403 408 C 403 386 406 366 413 346 C 420 326 431 309 445 294 C 459 279 478 267 500 259 C 522 250 548 246 578 246 C 607 246 633 250 655 259 C 677 267 695 279 709 294 C 723 308 734 325 741 345 C 748 365 752 386 752 408 C 752 430 748 451 741 471 C 733 491 722 509 706 527 C 690 545 669 562 645 578 C 620 594 591 611 557 629 C 513 599 476 566 447 529 C 417 491 403 451 403 408 Z M 449 1128 C 449 1104 452 1082 459 1063 C 466 1044 476 1027 489 1011 C 502 995 518 981 536 969 C 554 956 575 944 598 932 C 637 960 666 989 686 1019 C 705 1049 715 1084 715 1122 C 715 1139 712 1156 708 1172 C 704 1188 696 1203 686 1215 C 676 1227 662 1237 646 1245 C 629 1253 608 1257 584 1257 C 560 1257 539 1253 522 1247 C 504 1240 490 1231 480 1219 C 469 1207 461 1194 456 1178 C 451 1162 449 1146 449 1128 Z" unicode="8" />
<glyph horiz-adv-x="1165" d="M 27 1024 C 27 1101 39 1171 65 1235 C 90 1299 126 1353 172 1399 C 218 1445 274 1480 339 1506 C 403 1531 475 1544 553 1544 C 739 1544 879 1479 972 1351 C 1065 1223 1112 1034 1112 784 C 1112 636 1097 511 1067 408 C 1037 305 995 221 943 156 C 891 91 829 44 758 15 C 687 -14 610 -29 528 -29 C 463 -29 406 -20 356 -4 C 306 12 263 35 226 63 C 188 91 156 123 129 159 C 102 195 79 233 61 272 L 362 420 C 370 402 380 383 392 364 C 404 345 417 328 432 313 C 446 297 462 285 480 275 C 497 265 516 260 537 260 C 567 260 594 266 618 279 C 642 291 662 312 680 342 C 698 371 712 409 724 457 C 735 504 743 563 748 633 C 698 595 647 568 596 552 C 545 536 494 528 444 528 C 384 528 328 538 278 559 C 227 579 183 610 146 652 C 108 693 79 745 58 807 C 37 869 27 941 27 1024 Z M 381 1042 C 381 1012 383 984 388 958 C 392 932 400 909 412 889 C 424 869 440 854 460 843 C 480 832 505 827 537 827 C 577 827 614 832 647 842 C 679 852 714 869 750 895 C 746 961 738 1017 728 1063 C 718 1108 704 1144 686 1172 C 668 1200 646 1219 620 1231 C 594 1243 565 1249 532 1249 C 504 1249 481 1243 462 1233 C 443 1223 428 1208 416 1190 C 404 1172 395 1150 389 1125 C 383 1099 381 1072 381 1042 Z" unicode="9" />
<glyph horiz-adv-x="535" d="M 82 0 L 82 360 L 453 360 L 453 0 L 82 0 Z M 82 735 L 82 1096 L 453 1096 L 453 735 L 82 735 Z" unicode=":" />
<glyph horiz-adv-x="535" d="M 82 0 L 82 360 L 453 360 L 453 47 L 295 -240 L 121 -240 L 223 0 L 82 0 Z M 82 735 L 82 1096 L 453 1096 L 453 735 L 82 735 Z" unicode=";" />
<glyph horiz-adv-x="1188" d="M 131 551 L 131 776 L 1053 1221 L 1053 909 L 498 664 L 1053 418 L 1053 106 L 131 551 Z" unicode="&#x3C;" />
<glyph horiz-adv-x="1188" d="M 117 315 L 117 588 L 1069 588 L 1069 315 L 117 315 Z M 117 754 L 117 1026 L 1069 1026 L 1069 754 L 117 754 Z" unicode="=" />
<glyph horiz-adv-x="1188" d="M 135 106 L 135 418 L 690 664 L 135 909 L 135 1221 L 1057 776 L 1057 551 L 135 106 Z" unicode="&#x3E;" />
<glyph horiz-adv-x="1063" d="M 63 1155 C 83 1213 108 1267 140 1315 C 172 1363 209 1404 253 1438 C 297 1472 346 1498 402 1516 C 458 1534 520 1544 588 1544 C 658 1544 720 1534 773 1515 C 825 1496 869 1470 904 1438 C 939 1406 965 1368 982 1325 C 999 1282 1008 1236 1008 1188 C 1008 1140 1002 1098 992 1062 C 981 1026 967 994 949 966 C 931 938 912 912 890 890 L 825 821 L 768 760 C 751 741 737 723 725 707 C 713 691 704 674 697 658 C 689 642 683 624 679 606 C 675 587 672 566 670 543 C 668 520 668 494 668 465 L 354 465 C 350 489 348 511 348 529 C 348 547 348 567 348 588 C 348 632 354 672 366 708 C 378 743 394 775 414 805 C 434 834 456 861 480 886 L 549 958 L 590 1005 C 603 1020 615 1035 625 1051 C 635 1067 642 1083 648 1100 C 654 1116 657 1134 657 1153 C 657 1183 648 1205 630 1219 C 612 1233 589 1241 561 1241 C 537 1241 516 1235 496 1223 C 476 1211 458 1196 442 1178 C 426 1160 411 1139 399 1117 C 387 1094 377 1071 369 1049 L 63 1155 Z M 311 0 L 311 334 L 707 334 L 707 0 L 311 0 Z" unicode="?" />
<glyph horiz-adv-x="1554" d="M 61 756 C 61 875 78 983 113 1080 C 147 1177 196 1260 260 1329 C 323 1397 399 1450 487 1488 C 575 1525 672 1544 780 1544 C 886 1544 983 1525 1071 1489 C 1159 1453 1234 1401 1297 1334 C 1359 1267 1408 1187 1442 1093 C 1476 999 1493 894 1493 778 C 1493 705 1485 640 1469 583 C 1453 525 1429 477 1397 437 C 1365 397 1326 367 1278 346 C 1230 325 1175 315 1112 315 C 1072 315 1038 319 1009 327 C 980 335 955 347 934 362 C 912 376 894 394 880 414 C 866 434 854 455 844 479 C 830 459 815 441 799 423 C 782 405 763 389 743 376 C 722 362 699 352 674 344 C 648 336 620 332 590 332 C 551 332 517 340 488 357 C 458 373 434 397 415 428 C 395 459 381 496 372 540 C 362 583 358 632 360 686 C 362 768 371 842 387 907 C 403 971 426 1026 455 1070 C 483 1114 517 1148 556 1171 C 594 1194 637 1206 684 1206 C 734 1206 773 1196 802 1177 C 831 1157 854 1132 870 1100 L 881 1188 L 1155 1188 L 1077 590 C 1073 565 1072 544 1074 528 C 1076 512 1080 499 1086 489 C 1092 479 1102 473 1114 469 C 1126 465 1141 463 1159 463 C 1184 463 1207 468 1229 480 C 1250 491 1268 509 1284 534 C 1299 558 1311 590 1320 630 C 1328 670 1333 718 1333 774 C 1333 874 1319 963 1293 1041 C 1266 1118 1228 1183 1180 1236 C 1132 1288 1073 1328 1005 1356 C 936 1383 860 1397 776 1397 C 692 1397 616 1383 548 1356 C 480 1328 422 1288 374 1234 C 326 1180 290 1114 264 1034 C 238 954 225 862 225 758 C 225 642 237 544 263 462 C 288 380 324 314 372 262 C 420 210 477 171 545 147 C 612 123 688 111 772 111 C 804 111 836 112 868 116 C 900 120 932 125 963 133 C 994 140 1024 149 1052 161 C 1080 173 1105 187 1128 203 L 1200 88 C 1174 68 1144 51 1110 37 C 1076 23 1039 11 1001 1 C 963 -9 923 -16 883 -21 C 842 -26 802 -29 764 -29 C 652 -29 553 -12 466 22 C 379 56 306 106 246 173 C 186 239 140 321 108 419 C 76 516 61 628 61 756 Z M 643 719 C 641 668 644 629 654 601 C 663 573 685 559 719 559 C 733 559 748 562 762 570 C 776 578 789 586 801 596 L 844 936 C 832 947 821 956 809 962 C 797 968 782 971 766 971 C 745 971 727 965 713 953 C 698 941 686 924 676 902 C 666 880 658 853 653 822 C 647 791 644 757 643 719 Z" unicode="@" />
<glyph horiz-adv-x="1272" d="M 8 0 L 451 1522 L 821 1522 L 1264 0 L 881 0 L 817 256 L 428 256 L 362 0 L 8 0 Z M 502 549 L 745 549 L 719 664 L 692 768 L 668 860 C 660 890 652 921 646 952 C 640 982 634 1015 629 1051 L 625 1051 C 619 1015 612 982 605 952 C 598 921 591 891 583 861 L 558 768 L 530 664 L 502 549 Z" unicode="A" />
<glyph horiz-adv-x="1260" d="M 111 0 L 111 1516 L 666 1516 C 705 1516 744 1514 784 1510 C 823 1506 861 1499 897 1489 C 933 1479 967 1465 999 1447 C 1030 1429 1057 1407 1080 1379 C 1103 1351 1121 1318 1135 1278 C 1148 1238 1155 1192 1155 1139 C 1155 1081 1148 1032 1134 992 C 1120 952 1101 918 1078 891 C 1054 863 1028 841 998 825 C 968 809 938 796 907 788 L 907 784 C 947 776 984 764 1018 748 C 1052 732 1081 711 1106 683 C 1131 655 1151 619 1165 576 C 1179 532 1186 479 1186 416 C 1186 334 1170 267 1140 213 C 1109 159 1069 117 1020 85 C 971 53 916 31 856 19 C 796 6 736 0 676 0 L 111 0 Z M 481 293 L 647 293 C 707 293 752 308 780 339 C 808 369 823 413 823 469 C 823 585 763 643 643 643 L 481 643 L 481 293 Z M 481 903 L 639 903 C 695 903 735 915 761 939 C 786 963 799 1002 799 1057 C 799 1111 786 1149 761 1173 C 735 1196 695 1208 641 1208 L 481 1208 L 481 903 Z" unicode="B" />
<glyph horiz-adv-x="1260" d="M 51 758 C 51 898 66 1017 97 1117 C 127 1216 170 1297 224 1361 C 278 1424 343 1470 419 1500 C 494 1529 576 1544 666 1544 C 754 1544 830 1531 894 1506 C 957 1481 1010 1445 1052 1398 C 1094 1351 1128 1294 1152 1227 C 1176 1160 1194 1085 1204 1001 L 846 938 C 838 986 830 1028 820 1064 C 810 1100 798 1129 784 1152 C 769 1175 751 1192 730 1204 C 708 1215 683 1221 653 1221 C 575 1221 519 1182 485 1105 C 451 1028 434 912 434 758 C 434 601 451 483 487 404 C 522 324 579 285 657 285 C 687 285 714 290 736 301 C 758 311 777 329 793 353 C 809 377 822 408 833 446 C 844 484 854 532 862 588 L 1221 530 C 1207 452 1188 379 1162 311 C 1136 243 1101 185 1057 135 C 1013 85 958 45 892 16 C 826 -12 747 -27 655 -27 C 565 -27 484 -12 410 17 C 336 46 272 92 219 156 C 166 219 125 300 95 399 C 65 498 51 618 51 758 Z" unicode="C" />
<glyph horiz-adv-x="1311" d="M 111 0 L 111 1516 L 539 1516 C 605 1516 669 1511 731 1502 C 793 1493 850 1478 904 1456 C 957 1434 1005 1405 1049 1369 C 1093 1332 1130 1286 1162 1230 C 1193 1174 1217 1108 1234 1031 C 1251 954 1260 865 1260 764 C 1260 660 1251 570 1234 492 C 1216 414 1192 346 1161 290 C 1129 233 1092 186 1048 149 C 1004 111 955 82 901 60 C 847 38 790 22 729 13 C 668 4 605 0 539 0 L 111 0 Z M 492 315 L 571 315 C 631 315 680 322 720 337 C 759 352 790 377 814 412 C 837 447 853 493 863 551 C 872 608 877 679 877 764 C 877 844 872 912 863 967 C 853 1022 837 1067 814 1101 C 790 1135 759 1159 719 1174 C 679 1188 629 1196 569 1196 L 492 1196 L 492 315 Z" unicode="D" />
<glyph horiz-adv-x="1096" d="M 111 0 L 111 1516 L 1026 1516 L 1026 1196 L 492 1196 L 492 932 L 872 932 L 872 633 L 492 633 L 492 309 L 1051 309 L 1051 0 L 111 0 Z" unicode="E" />
<glyph horiz-adv-x="1028" d="M 111 0 L 111 1516 L 1006 1516 L 1006 1196 L 492 1196 L 492 887 L 856 887 L 856 588 L 492 588 L 492 0 L 111 0 Z" unicode="F" />
<glyph horiz-adv-x="1327" d="M 51 762 C 51 887 64 998 91 1096 C 117 1193 156 1275 208 1341 C 260 1407 324 1458 401 1492 C 477 1526 566 1544 666 1544 C 740 1544 807 1534 866 1515 C 925 1495 977 1464 1021 1421 C 1065 1378 1101 1322 1131 1253 C 1161 1184 1184 1100 1200 1001 L 854 932 C 844 988 832 1034 820 1072 C 807 1109 792 1139 776 1161 C 760 1183 741 1198 721 1207 C 701 1216 678 1221 653 1221 C 636 1221 619 1219 601 1215 C 583 1211 567 1203 551 1191 C 535 1179 519 1163 505 1143 C 491 1122 478 1095 468 1061 C 457 1027 449 986 443 938 C 437 890 434 832 434 766 C 434 666 440 585 452 523 C 464 461 481 412 503 377 C 524 341 549 317 578 304 C 607 291 638 285 672 285 C 726 285 771 301 807 335 C 843 369 868 421 883 492 L 698 492 L 698 772 L 1227 772 L 1227 0 L 952 0 L 952 188 L 948 188 C 940 164 928 140 910 115 C 892 89 868 66 840 46 C 811 25 778 8 740 -5 C 702 -18 660 -25 614 -25 C 522 -25 441 -7 371 29 C 301 65 242 116 194 184 C 146 252 111 334 87 432 C 63 529 51 639 51 762 Z" unicode="G" />
<glyph horiz-adv-x="1354" d="M 111 0 L 111 1516 L 492 1516 L 492 944 L 862 944 L 862 1516 L 1243 1516 L 1243 0 L 862 0 L 862 633 L 492 633 L 492 0 L 111 0 Z" unicode="H" />
<glyph horiz-adv-x="623" d="M 121 0 L 121 1516 L 502 1516 L 502 0 L 121 0 Z" unicode="I" />
<glyph horiz-adv-x="963" d="M 8 90 L 154 369 C 190 349 228 333 269 320 C 309 307 347 301 383 301 C 422 301 451 311 469 333 C 487 355 496 392 496 446 L 496 1516 L 877 1516 L 877 403 C 877 340 868 282 852 230 C 835 178 809 133 774 96 C 738 58 692 29 636 8 C 580 -12 512 -23 434 -23 C 351 -23 273 -12 201 8 C 128 28 64 56 8 90 Z" unicode="J" />
<glyph horiz-adv-x="1280" d="M 111 0 L 111 1516 L 487 1516 L 487 924 L 512 970 L 542 1026 L 575 1083 L 604 1133 L 829 1516 L 1237 1516 L 838 915 L 1276 0 L 862 0 L 590 590 L 487 449 L 487 0 L 111 0 Z" unicode="K" />
<glyph horiz-adv-x="1077" d="M 111 0 L 111 1516 L 492 1516 L 492 309 L 1044 309 L 1044 0 L 111 0 Z" unicode="L" />
<glyph horiz-adv-x="1604" d="M 111 0 L 111 1516 L 598 1516 L 805 528 L 807 528 L 995 1516 L 1491 1516 L 1491 0 L 1130 0 L 1130 977 L 1126 977 C 1124 950 1121 919 1116 885 C 1111 850 1105 815 1099 781 C 1092 747 1085 714 1079 684 L 1063 610 L 924 0 L 645 0 L 510 608 C 508 616 505 628 502 644 L 490 702 L 476 773 C 470 798 466 823 462 849 C 458 874 454 899 451 923 C 447 947 445 968 444 987 L 440 987 L 440 0 L 111 0 Z" unicode="M" />
<glyph horiz-adv-x="1360" d="M 111 0 L 111 1516 L 492 1516 L 776 958 L 808 896 L 834 841 L 862 780 L 895 702 L 899 702 L 899 1516 L 1243 1516 L 1243 0 L 891 0 L 555 614 L 530 660 L 508 703 L 486 750 L 459 809 L 455 809 L 455 0 L 111 0 Z" unicode="N" />
<glyph horiz-adv-x="1360" d="M 51 758 C 51 898 68 1017 102 1117 C 136 1216 182 1297 240 1361 C 298 1424 365 1470 441 1500 C 517 1529 596 1544 680 1544 C 762 1544 842 1529 918 1500 C 994 1470 1060 1424 1118 1361 C 1175 1297 1221 1216 1255 1117 C 1289 1017 1307 898 1307 758 C 1307 618 1289 498 1255 399 C 1221 299 1175 218 1118 155 C 1060 91 994 45 918 15 C 842 -14 762 -29 680 -29 C 596 -29 517 -14 441 15 C 365 45 298 91 240 155 C 182 218 136 299 102 399 C 68 498 51 618 51 758 Z M 434 758 C 434 606 454 490 494 408 C 534 326 596 285 680 285 C 762 285 824 326 864 408 C 904 490 924 606 924 758 C 924 910 904 1026 864 1104 C 824 1182 763 1221 680 1221 C 596 1221 534 1182 494 1104 C 454 1026 434 910 434 758 Z" unicode="O" />
<glyph horiz-adv-x="1194" d="M 111 0 L 111 1516 L 586 1516 C 656 1516 725 1508 792 1493 C 859 1477 919 1450 971 1411 C 1023 1372 1065 1319 1097 1252 C 1129 1185 1145 1100 1145 997 C 1145 925 1137 863 1121 809 C 1105 755 1084 708 1057 670 C 1030 631 998 599 962 574 C 926 548 887 528 846 513 C 804 498 761 488 716 482 C 671 476 627 473 584 473 L 485 473 L 485 0 L 111 0 Z M 485 770 L 594 770 C 630 770 660 774 684 784 C 708 793 727 807 741 825 C 755 843 766 866 772 894 C 778 921 782 953 782 989 C 782 1024 778 1055 772 1081 C 766 1107 755 1129 741 1147 C 726 1165 706 1178 682 1187 C 658 1195 628 1200 592 1200 L 485 1200 L 485 770 Z" unicode="P" />
<glyph horiz-adv-x="1360" d="M 49 758 C 49 898 66 1017 100 1117 C 134 1216 180 1297 238 1361 C 296 1424 363 1470 439 1500 C 515 1529 594 1544 678 1544 C 760 1544 840 1529 916 1500 C 992 1470 1058 1424 1116 1361 C 1173 1297 1219 1216 1253 1117 C 1287 1017 1305 898 1305 758 C 1305 640 1292 536 1268 448 C 1244 360 1211 285 1169 223 C 1127 161 1078 112 1022 75 C 966 38 906 12 842 -2 C 850 -28 859 -49 871 -64 C 882 -78 897 -89 916 -96 C 935 -103 959 -107 988 -109 C 1016 -110 1052 -111 1094 -111 L 1176 -111 L 1176 -416 L 942 -416 C 853 -416 779 -405 721 -383 C 662 -361 615 -330 580 -292 C 544 -254 519 -209 504 -158 C 489 -106 481 -52 481 6 C 419 24 361 52 309 91 C 256 130 210 180 172 242 C 133 304 103 377 81 463 C 59 548 49 646 49 758 Z M 432 758 C 432 606 452 490 492 408 C 532 326 594 285 678 285 C 760 285 822 326 862 408 C 902 490 922 606 922 758 C 922 910 902 1026 862 1104 C 822 1182 761 1221 678 1221 C 594 1221 532 1182 492 1104 C 452 1026 432 910 432 758 Z" unicode="Q" />
<glyph horiz-adv-x="1239" d="M 111 0 L 111 1516 L 604 1516 C 686 1516 761 1507 828 1489 C 895 1471 952 1442 999 1402 C 1045 1362 1081 1311 1107 1247 C 1132 1183 1145 1106 1145 1016 C 1145 920 1124 838 1084 769 C 1044 699 987 648 915 614 L 1192 0 L 799 0 L 565 516 L 481 516 L 481 0 L 111 0 Z M 481 803 L 594 803 C 626 803 653 806 677 814 C 700 821 719 833 735 849 C 751 865 762 887 770 913 C 778 939 782 970 782 1008 C 782 1044 778 1074 770 1099 C 762 1123 751 1143 735 1158 C 719 1173 700 1184 677 1190 C 653 1196 626 1200 594 1200 L 481 1200 L 481 803 Z" unicode="R" />
<glyph horiz-adv-x="1245" d="M 49 336 L 354 492 C 370 464 388 436 408 410 C 428 383 451 359 476 339 C 501 319 528 302 557 290 C 586 278 617 272 651 272 C 705 272 745 283 771 307 C 797 331 811 363 811 403 C 811 428 804 450 791 469 C 777 488 759 505 737 521 C 715 537 689 551 659 564 C 629 577 597 590 563 604 L 458 646 C 422 660 387 677 353 697 C 319 716 287 738 257 762 C 227 786 200 815 178 847 C 155 879 137 916 124 958 C 110 999 104 1046 104 1100 C 104 1166 116 1227 142 1282 C 168 1336 204 1383 250 1422 C 296 1461 350 1491 414 1512 C 477 1533 546 1544 621 1544 C 688 1544 749 1535 805 1518 C 860 1500 910 1476 954 1446 C 998 1415 1036 1378 1070 1336 C 1104 1293 1133 1246 1159 1196 L 866 1034 C 833 1098 796 1147 755 1181 C 714 1215 666 1233 612 1233 C 566 1233 532 1222 510 1200 C 488 1178 477 1151 477 1118 C 477 1094 482 1074 494 1056 C 506 1038 522 1021 542 1006 C 562 991 585 977 612 964 C 639 950 668 937 700 924 L 808 879 C 845 863 881 846 917 826 C 953 806 987 784 1019 760 C 1051 735 1080 706 1104 674 C 1128 641 1148 604 1162 562 C 1176 520 1184 473 1184 420 C 1184 361 1173 305 1151 251 C 1129 197 1095 149 1051 107 C 1007 65 951 32 885 8 C 818 -16 740 -29 651 -29 C 571 -29 499 -19 437 -1 C 374 16 318 42 270 74 C 222 106 179 145 143 190 C 107 234 75 283 49 336 Z" unicode="S" />
<glyph horiz-adv-x="1118" d="M 23 1196 L 23 1516 L 1096 1516 L 1096 1196 L 750 1196 L 750 0 L 369 0 L 369 1196 L 23 1196 Z" unicode="T" />
<glyph horiz-adv-x="1262" d="M 88 537 L 88 1516 L 469 1516 L 469 555 C 469 507 472 467 479 434 C 485 401 496 374 510 354 C 524 333 541 318 563 309 C 585 299 611 295 641 295 C 671 295 696 299 718 309 C 740 318 757 333 771 354 C 785 374 795 401 801 434 C 807 466 811 506 811 553 L 811 1516 L 1174 1516 L 1174 539 C 1174 446 1163 364 1143 294 C 1123 224 1091 165 1048 118 C 1004 70 949 35 881 11 C 813 -13 731 -25 635 -25 C 539 -25 456 -12 388 11 C 319 35 262 71 218 119 C 173 166 140 225 119 295 C 98 365 88 445 88 537 Z" unicode="U" />
<glyph horiz-adv-x="1231" d="M 8 1516 L 391 1516 L 545 850 L 566 759 C 572 730 579 701 585 672 L 604 580 C 610 548 617 513 623 475 L 627 475 L 646 578 C 652 608 658 638 665 668 L 685 755 L 707 846 L 868 1516 L 1223 1516 L 801 -6 L 430 -6 L 8 1516 Z" unicode="V" />
<glyph horiz-adv-x="1688" d="M 14 1516 L 381 1516 L 475 991 C 481 959 486 931 490 906 L 504 825 C 508 797 513 766 518 732 C 523 698 529 658 535 610 L 539 610 C 544 656 549 696 554 730 C 558 764 563 795 568 823 L 582 904 L 598 989 L 690 1516 L 1028 1516 L 1122 983 L 1138 896 C 1143 868 1148 840 1152 812 L 1166 720 C 1170 687 1175 650 1180 608 L 1184 608 C 1188 649 1193 686 1198 718 L 1212 810 C 1216 838 1220 865 1226 892 L 1241 977 L 1337 1516 L 1673 1516 L 1335 -6 L 1004 -6 L 846 881 L 842 881 L 684 -6 L 352 -6 L 14 1516 Z" unicode="W" />
<glyph horiz-adv-x="1280" d="M 35 0 L 434 791 L 68 1516 L 481 1516 L 662 1100 L 829 1516 L 1198 1516 L 840 805 L 1243 0 L 836 0 L 616 492 L 410 0 L 35 0 Z" unicode="X" />
<glyph horiz-adv-x="1229" d="M -8 1516 L 381 1516 L 621 924 L 625 924 L 864 1516 L 1237 1516 L 803 580 L 803 0 L 422 0 L 422 580 L -8 1516 Z" unicode="Y" />
<glyph horiz-adv-x="1153" d="M 33 0 L 33 272 L 649 1196 L 78 1196 L 78 1516 L 1102 1516 L 1102 1233 L 498 309 L 1102 309 L 1102 0 L 33 0 Z" unicode="Z" />
<glyph horiz-adv-x="811" d="M 98 -410 L 98 1516 L 782 1516 L 782 1251 L 477 1251 L 477 -150 L 782 -150 L 782 -410 L 98 -410 Z" unicode="[" />
<glyph horiz-adv-x="1126" d="M -2 1516 L 379 1516 L 1126 0 L 745 0 L -2 1516 Z" unicode="\" />
<glyph horiz-adv-x="811" d="M 29 -150 L 334 -150 L 334 1251 L 29 1251 L 29 1516 L 713 1516 L 713 -410 L 29 -410 L 29 -150 Z" unicode="]" />
<glyph horiz-adv-x="1188" d="M 49 698 L 489 1516 L 698 1516 L 1139 698 L 813 698 L 594 1120 L 375 698 L 49 698 Z" unicode="^" />
<glyph horiz-adv-x="903" d="M -20 -74 L 924 -74 L 924 -334 L -20 -334 L -20 -74 Z" unicode="_" />
<glyph horiz-adv-x="1024" d="M 143 1554 L 494 1554 L 657 1204 L 401 1204 L 143 1554 Z" unicode="`" />
<glyph horiz-adv-x="1044" d="M 27 281 C 27 343 41 397 71 444 C 100 491 140 532 192 566 C 244 600 305 629 376 652 C 446 674 523 693 606 707 L 606 739 C 606 754 604 767 602 779 C 600 791 596 800 590 808 C 584 816 575 821 564 825 C 553 829 539 831 522 831 C 496 831 470 827 444 821 C 418 815 392 807 366 797 C 340 787 316 777 293 765 C 270 753 249 741 231 729 L 72 950 C 138 1004 215 1045 305 1074 C 395 1103 492 1118 596 1118 C 660 1118 716 1110 763 1096 C 809 1082 848 1059 878 1029 C 908 998 930 959 944 911 C 958 863 965 805 965 739 L 965 266 C 965 200 967 146 971 104 C 975 62 981 28 991 0 L 627 0 C 620 19 615 40 611 64 C 607 88 606 116 606 150 C 570 97 527 57 477 29 C 427 1 367 -12 297 -12 C 261 -12 227 -7 195 3 C 163 13 134 29 109 52 C 84 74 64 104 49 142 C 34 179 27 225 27 281 Z M 385 352 C 385 325 392 305 407 291 C 421 277 440 270 463 270 C 481 270 497 272 512 276 C 526 280 539 284 551 290 C 563 296 573 302 582 309 C 591 315 599 322 606 328 L 606 520 C 529 502 473 480 438 454 C 402 427 385 393 385 352 Z" unicode="a" />
<glyph horiz-adv-x="1120" d="M 88 0 L 88 1513 L 459 1513 L 459 950 C 472 970 487 991 505 1011 C 523 1031 543 1049 565 1065 C 587 1081 613 1093 641 1103 C 669 1113 701 1118 735 1118 C 787 1118 835 1106 878 1084 C 920 1061 957 1026 987 979 C 1017 932 1040 873 1056 802 C 1072 730 1081 646 1081 549 C 1081 451 1072 367 1056 296 C 1040 225 1016 166 986 120 C 955 74 918 39 875 17 C 832 -4 784 -16 731 -16 C 669 -16 615 -4 571 19 C 527 42 489 75 459 119 L 459 0 L 88 0 Z M 459 334 L 488 308 C 497 300 507 293 517 287 C 527 281 537 276 549 273 C 560 269 572 268 586 268 C 632 268 664 290 682 335 C 700 379 709 450 709 547 C 709 591 707 630 703 663 C 699 695 693 722 684 744 C 674 765 661 781 645 791 C 629 801 608 807 584 807 C 570 807 557 804 545 799 C 533 794 521 788 511 781 C 500 773 490 765 481 757 C 472 749 465 741 459 735 L 459 334 Z" unicode="b" />
<glyph horiz-adv-x="1010" d="M 37 547 C 37 653 52 743 82 816 C 112 889 151 948 199 993 C 247 1037 301 1069 361 1089 C 421 1108 481 1118 541 1118 C 613 1118 675 1108 726 1089 C 777 1070 820 1044 854 1010 C 888 976 916 937 937 891 C 958 845 975 795 987 741 L 662 668 C 656 699 649 725 641 747 C 633 768 624 785 614 799 C 604 812 592 821 580 827 C 567 833 553 836 537 836 C 513 836 493 830 477 819 C 461 808 447 791 437 768 C 427 744 419 714 415 678 C 410 642 408 598 408 547 C 408 497 409 454 413 417 C 417 380 423 349 433 324 C 442 299 455 280 471 268 C 487 256 509 250 535 250 C 549 250 562 252 576 258 C 590 263 603 272 615 286 C 627 299 638 317 648 341 C 658 365 666 395 672 432 L 989 356 C 977 305 960 257 938 211 C 916 165 886 125 850 91 C 813 56 768 28 716 8 C 664 -12 602 -23 530 -23 C 488 -23 447 -18 407 -10 C 367 -1 328 12 292 31 C 256 49 222 73 191 103 C 159 133 132 169 110 211 C 87 253 69 302 56 358 C 43 413 37 476 37 547 Z" unicode="c" />
<glyph horiz-adv-x="1120" d="M 39 543 C 39 640 47 725 63 797 C 79 869 103 928 134 976 C 164 1024 201 1059 244 1083 C 287 1106 335 1118 389 1118 C 451 1118 505 1105 550 1081 C 594 1056 632 1022 662 979 L 662 1516 L 1032 1516 L 1032 266 C 1032 200 1034 146 1038 104 C 1042 62 1050 28 1061 0 L 682 0 C 678 7 675 17 673 30 C 671 42 669 55 667 69 C 665 83 664 96 663 109 C 662 121 662 131 662 139 C 648 118 633 98 615 80 C 597 61 576 44 554 30 C 531 16 506 4 478 -3 C 450 -11 420 -16 387 -16 C 333 -16 285 -5 242 16 C 199 38 163 71 133 117 C 103 162 79 220 63 290 C 47 360 39 445 39 543 Z M 412 545 C 412 499 413 458 417 424 C 421 390 427 361 437 338 C 446 315 459 298 475 287 C 491 275 511 270 537 270 C 549 270 562 272 574 277 C 586 281 597 287 608 294 C 618 301 628 309 637 317 C 646 325 654 332 662 340 L 662 743 C 645 760 626 775 606 789 C 585 802 561 809 535 809 C 511 809 491 804 475 794 C 459 784 447 768 438 747 C 428 726 422 699 418 665 C 414 631 412 591 412 545 Z" unicode="d" />
<glyph horiz-adv-x="1036" d="M 37 547 C 37 618 44 682 58 738 C 72 794 91 844 115 886 C 139 928 168 964 200 994 C 232 1023 267 1047 304 1065 C 341 1083 379 1097 419 1105 C 458 1113 497 1118 535 1118 C 597 1118 656 1107 712 1087 C 768 1066 818 1032 860 985 C 902 938 936 876 961 799 C 986 722 999 628 999 516 L 999 449 L 399 449 C 406 375 424 323 452 293 C 480 263 517 248 565 248 C 587 248 610 251 633 258 C 655 265 677 274 697 285 C 717 296 735 308 751 322 C 767 335 781 348 791 360 L 999 184 C 973 153 945 125 915 100 C 885 74 851 52 815 34 C 778 16 738 2 694 -8 C 650 -18 601 -23 549 -23 C 479 -23 414 -12 352 7 C 290 27 235 60 189 105 C 142 150 105 209 78 281 C 50 353 37 442 37 547 Z M 401 649 L 666 649 C 663 685 658 716 651 741 C 644 765 635 785 624 800 C 613 814 600 825 585 831 C 570 837 553 840 535 840 C 518 840 502 836 488 830 C 474 824 461 813 449 799 C 437 784 427 764 419 740 C 411 716 405 685 401 649 Z" unicode="e" />
<glyph horiz-adv-x="762" d="M 25 827 L 25 1096 L 178 1096 L 178 1165 C 178 1194 179 1223 182 1253 C 184 1282 190 1310 199 1336 C 208 1362 221 1387 238 1410 C 254 1432 276 1452 304 1469 C 332 1485 366 1498 406 1508 C 446 1517 494 1522 551 1522 C 571 1522 592 1521 614 1521 C 635 1520 655 1519 674 1518 C 692 1517 708 1516 722 1515 C 735 1513 744 1512 748 1511 L 748 1241 C 739 1243 726 1244 709 1246 C 692 1248 677 1249 664 1249 C 648 1249 632 1248 618 1246 C 604 1244 591 1239 581 1232 C 571 1225 562 1215 556 1201 C 550 1187 547 1167 547 1143 L 547 1096 L 739 1096 L 739 827 L 547 827 L 547 0 L 178 0 L 178 827 L 25 827 Z" unicode="f" />
<glyph horiz-adv-x="1110" d="M -10 -178 C -10 -153 -6 -130 2 -110 C 10 -89 21 -70 35 -53 C 49 -36 65 -21 84 -7 C 103 6 124 19 147 31 C 120 48 99 68 85 92 C 70 116 63 143 63 174 C 63 194 66 215 74 236 C 82 257 92 277 106 297 C 120 317 136 335 155 353 C 173 371 193 387 215 401 C 160 437 119 482 92 537 C 64 591 51 653 51 721 C 51 781 61 835 81 884 C 101 933 131 975 170 1009 C 209 1043 257 1070 314 1089 C 370 1108 435 1118 508 1118 C 580 1118 644 1108 700 1090 C 756 1071 802 1044 840 1010 C 856 1026 874 1040 895 1054 C 916 1068 938 1080 961 1090 C 983 1100 1006 1108 1028 1114 C 1050 1120 1070 1124 1090 1126 L 1090 829 L 1038 829 C 1012 829 981 826 946 821 C 949 804 951 787 953 771 C 955 755 956 738 956 721 C 956 660 946 605 926 557 C 906 508 878 466 840 432 C 802 398 755 371 699 353 C 643 335 580 326 508 326 C 458 326 413 330 373 338 C 363 327 358 315 358 303 C 358 285 364 274 377 270 C 390 265 413 262 446 260 L 573 254 C 664 249 741 239 803 225 C 865 211 915 191 953 166 C 991 140 1018 109 1034 71 C 1050 33 1059 -11 1059 -63 C 1059 -118 1044 -167 1015 -211 C 986 -254 945 -290 893 -320 C 841 -349 778 -371 706 -387 C 633 -402 553 -410 467 -410 C 376 -410 300 -404 239 -394 C 178 -384 129 -369 92 -349 C 55 -329 29 -304 13 -276 C -2 -247 -10 -214 -10 -178 Z M 317 -111 C 317 -153 333 -182 367 -198 C 401 -214 455 -223 530 -223 C 560 -223 587 -220 612 -216 C 636 -212 658 -205 676 -197 C 694 -189 708 -179 718 -167 C 728 -155 733 -141 733 -125 C 733 -111 731 -99 727 -89 C 723 -79 714 -70 700 -63 C 685 -56 663 -51 634 -47 C 605 -43 566 -39 516 -37 L 360 -29 L 348 -29 C 344 -29 340 -28 336 -27 C 328 -42 323 -56 321 -70 C 318 -84 317 -97 317 -111 Z M 399 711 C 399 659 408 618 426 590 C 444 561 472 547 512 547 C 550 547 578 561 596 590 C 614 618 623 659 623 711 C 623 763 614 802 596 830 C 578 858 550 872 512 872 C 472 872 444 858 426 830 C 408 802 399 762 399 711 Z" unicode="g" />
<glyph horiz-adv-x="1120" d="M 88 0 L 88 1516 L 459 1516 L 459 948 C 470 966 485 985 505 1005 C 524 1025 547 1043 574 1060 C 600 1076 630 1090 664 1101 C 698 1112 735 1118 776 1118 C 812 1118 847 1113 879 1104 C 911 1095 939 1080 963 1058 C 987 1036 1005 1007 1019 971 C 1033 935 1040 890 1040 836 L 1040 0 L 670 0 L 670 713 C 670 743 664 767 653 783 C 642 799 624 807 600 807 C 586 807 573 804 560 800 C 547 795 535 789 523 782 C 511 775 499 768 488 760 C 477 752 467 744 459 737 L 459 0 L 88 0 Z" unicode="h" />
<glyph horiz-adv-x="567" d="M 98 0 L 98 1096 L 469 1096 L 469 0 L 98 0 Z M 98 1198 L 98 1501 L 469 1501 L 469 1198 L 98 1198 Z" unicode="i" />
<glyph horiz-adv-x="567" d="M -96 -143 C -93 -144 -88 -145 -81 -146 C -74 -147 -67 -148 -59 -149 L -35 -151 C -27 -151 -20 -152 -14 -152 C 26 -152 54 -141 72 -120 C 89 -98 98 -66 98 -23 L 98 1096 L 469 1096 L 469 -70 C 469 -117 464 -161 455 -203 C 446 -245 428 -281 402 -312 C 375 -343 337 -368 288 -386 C 239 -404 174 -414 94 -414 C 81 -414 65 -413 45 -413 C 25 -412 5 -411 -14 -410 C -34 -409 -51 -408 -67 -407 C -83 -405 -92 -404 -96 -403 L -96 -143 Z M 98 1198 L 98 1501 L 469 1501 L 469 1198 L 98 1198 Z" unicode="j" />
<glyph horiz-adv-x="1063" d="M 88 0 L 88 1516 L 453 1516 L 453 715 C 462 737 473 762 487 788 C 500 814 514 840 530 866 L 664 1096 L 1036 1096 L 754 686 L 1053 0 L 678 0 L 520 387 L 453 287 L 453 0 L 88 0 Z" unicode="k" />
<glyph horiz-adv-x="567" d="M 98 0 L 98 1516 L 469 1516 L 469 0 L 98 0 Z" unicode="l" />
<glyph horiz-adv-x="1667" d="M 88 0 L 88 1096 L 459 1096 L 459 948 C 470 966 485 985 505 1005 C 524 1025 547 1043 573 1060 C 599 1076 628 1090 660 1101 C 692 1112 726 1118 762 1118 C 836 1118 892 1104 932 1076 C 972 1048 998 1006 1012 948 C 1024 966 1040 986 1060 1006 C 1080 1026 1104 1044 1130 1061 C 1156 1077 1184 1091 1216 1102 C 1248 1112 1281 1118 1317 1118 C 1408 1118 1476 1092 1520 1041 C 1564 990 1587 917 1587 821 L 1587 0 L 1217 0 L 1217 713 C 1217 743 1212 767 1204 783 C 1196 799 1178 807 1151 807 C 1139 807 1127 804 1115 800 C 1103 795 1091 789 1080 782 C 1069 775 1059 768 1049 760 C 1039 752 1030 744 1022 737 L 1022 0 L 651 0 L 651 713 C 651 743 647 767 639 783 C 631 799 614 807 588 807 C 576 807 564 804 552 800 C 540 796 529 790 518 783 C 507 776 497 769 487 761 C 477 753 467 745 459 737 L 459 0 L 88 0 Z" unicode="m" />
<glyph horiz-adv-x="1120" d="M 88 0 L 88 1096 L 459 1096 L 459 948 C 470 966 485 985 505 1005 C 524 1025 547 1043 574 1060 C 600 1076 630 1090 664 1101 C 698 1112 735 1118 776 1118 C 812 1118 847 1113 879 1104 C 911 1095 939 1080 963 1058 C 987 1036 1005 1007 1019 971 C 1033 935 1040 890 1040 836 L 1040 0 L 670 0 L 670 713 C 670 743 664 767 653 783 C 642 799 624 807 600 807 C 586 807 573 804 560 800 C 547 795 535 789 523 782 C 511 775 499 768 488 760 C 477 752 467 744 459 737 L 459 0 L 88 0 Z" unicode="n" />
<glyph horiz-adv-x="1092" d="M 37 547 C 37 653 51 743 80 816 C 109 889 147 948 195 993 C 243 1037 297 1069 358 1089 C 419 1108 481 1118 545 1118 C 587 1118 628 1113 670 1105 C 711 1097 750 1083 788 1065 C 826 1046 861 1022 893 993 C 925 963 953 927 977 885 C 1001 843 1019 794 1033 738 C 1046 682 1053 618 1053 547 C 1053 441 1038 352 1009 280 C 979 207 941 148 893 103 C 845 58 791 26 730 6 C 669 -13 607 -23 545 -23 C 503 -23 461 -18 420 -10 C 378 -1 339 12 301 31 C 263 49 228 73 196 103 C 164 133 136 169 112 211 C 88 253 70 302 57 358 C 43 413 37 476 37 547 Z M 408 547 C 408 499 410 456 414 420 C 418 384 426 353 436 329 C 446 305 460 286 478 274 C 496 262 518 256 545 256 C 570 256 591 261 609 272 C 627 282 641 299 652 323 C 662 346 670 376 675 413 C 679 450 682 495 682 547 C 682 594 679 635 675 671 C 671 706 663 735 653 759 C 642 782 628 799 611 811 C 593 823 571 829 545 829 C 519 829 498 824 481 814 C 463 804 449 787 438 765 C 427 742 419 713 415 677 C 410 641 408 598 408 547 Z" unicode="o" />
<glyph horiz-adv-x="1120" d="M 88 -410 L 88 1096 L 459 1096 L 459 950 C 472 970 487 991 505 1011 C 523 1031 543 1049 565 1065 C 587 1081 613 1093 641 1103 C 669 1113 701 1118 735 1118 C 787 1118 835 1106 878 1084 C 920 1061 957 1026 987 979 C 1017 932 1040 873 1056 802 C 1072 730 1081 646 1081 549 C 1081 451 1072 367 1056 296 C 1040 225 1016 166 986 120 C 955 74 918 39 875 17 C 832 -4 784 -16 731 -16 C 669 -16 615 -4 571 19 C 527 42 489 75 459 119 L 459 -410 L 88 -410 Z M 459 334 L 488 308 C 497 300 507 293 517 287 C 527 281 537 276 549 273 C 560 269 572 268 586 268 C 632 268 664 290 682 335 C 700 379 709 450 709 547 C 709 591 707 630 703 663 C 699 695 693 722 684 744 C 674 765 661 781 645 791 C 629 801 608 807 584 807 C 570 807 557 804 545 799 C 533 794 521 788 511 781 C 500 773 490 765 481 757 C 472 749 465 741 459 735 L 459 334 Z" unicode="p" />
<glyph horiz-adv-x="1120" d="M 39 543 C 39 640 47 725 63 797 C 79 869 103 928 134 976 C 164 1024 201 1059 244 1083 C 287 1106 335 1118 389 1118 C 451 1118 505 1105 550 1081 C 594 1056 632 1022 662 979 L 662 1096 L 1032 1096 L 1032 -410 L 662 -410 L 662 133 C 648 113 633 95 615 77 C 597 59 576 44 554 30 C 531 16 506 4 478 -3 C 450 -11 420 -16 387 -16 C 333 -16 285 -5 242 16 C 199 38 163 71 133 117 C 103 162 79 220 63 290 C 47 360 39 445 39 543 Z M 412 545 C 412 499 413 458 417 424 C 421 390 427 361 437 338 C 446 315 459 298 475 287 C 491 275 511 270 537 270 C 549 270 562 272 574 277 C 586 281 597 287 608 294 C 618 301 628 309 637 317 C 646 325 654 332 662 340 L 662 743 C 645 760 626 775 606 789 C 585 802 561 809 535 809 C 511 809 491 804 475 794 C 459 784 447 768 438 747 C 428 726 422 699 418 665 C 414 631 412 591 412 545 Z" unicode="q" />
<glyph horiz-adv-x="780" d="M 88 0 L 88 1096 L 459 1096 L 459 930 L 463 930 C 473 950 487 972 503 994 C 519 1016 538 1037 561 1055 C 584 1073 611 1088 642 1100 C 672 1112 708 1118 748 1118 C 749 1118 751 1117 753 1117 C 755 1117 756 1117 758 1117 C 760 1116 762 1116 764 1116 L 764 780 C 760 780 755 781 749 782 C 742 782 735 783 727 784 C 719 784 712 785 704 785 C 696 785 690 786 686 786 C 659 786 634 783 612 779 C 590 774 569 768 550 761 C 531 753 514 745 499 737 C 484 728 471 719 459 711 L 459 0 L 88 0 Z" unicode="r" />
<glyph horiz-adv-x="981" d="M 4 147 L 186 360 C 210 340 235 322 262 306 C 288 290 315 276 343 264 C 371 252 398 243 425 237 C 451 230 476 227 500 227 C 530 227 556 231 576 241 C 596 250 606 267 606 293 C 606 315 598 332 582 346 C 566 360 546 371 521 381 C 495 390 466 399 434 407 C 401 415 367 424 333 435 C 299 445 265 459 233 475 C 200 491 171 511 146 537 C 120 562 100 593 84 631 C 68 668 61 714 61 768 C 61 829 73 882 97 926 C 121 970 153 1007 193 1035 C 233 1063 280 1084 332 1098 C 384 1111 439 1118 496 1118 C 530 1118 567 1114 605 1107 C 643 1100 680 1090 718 1077 C 756 1063 792 1046 826 1026 C 860 1006 892 982 920 956 L 735 748 C 687 784 644 811 606 829 C 567 847 530 856 494 856 C 468 856 446 851 430 841 C 414 831 406 814 406 791 C 406 770 413 753 429 740 C 445 727 465 716 491 707 C 516 697 545 689 578 681 C 610 673 644 663 678 653 C 712 642 745 629 778 613 C 810 597 839 576 865 551 C 890 525 910 494 926 458 C 942 421 950 376 950 324 C 950 264 937 213 912 169 C 886 125 853 89 811 61 C 769 32 720 10 665 -3 C 610 -17 553 -25 494 -25 C 437 -25 385 -21 338 -13 C 290 -5 247 5 207 20 C 167 35 130 53 97 74 C 63 95 32 119 4 147 Z" unicode="s" />
<glyph horiz-adv-x="795" d="M 16 827 L 16 1096 L 168 1096 L 168 1466 L 539 1466 L 539 1096 L 770 1096 L 770 827 L 539 827 L 539 385 C 539 357 540 334 544 316 C 548 298 554 285 563 276 C 572 266 584 260 600 257 C 616 253 635 252 659 252 C 667 252 675 252 684 253 C 693 253 702 254 711 255 C 719 256 727 257 734 258 C 741 259 746 260 750 262 L 750 2 C 745 0 735 0 719 -2 C 703 -4 684 -5 663 -7 C 642 -8 620 -9 596 -10 C 572 -11 550 -12 530 -12 C 454 -12 393 -5 346 6 C 299 18 262 37 236 62 C 209 86 191 117 182 155 C 172 193 168 237 168 287 L 168 827 L 16 827 Z" unicode="t" />
<glyph horiz-adv-x="1120" d="M 80 260 L 80 1096 L 451 1096 L 451 375 C 451 343 456 320 466 304 C 476 288 494 281 520 281 C 546 281 572 288 597 303 C 621 317 643 333 662 350 L 662 1096 L 1032 1096 L 1032 0 L 662 0 L 662 147 C 650 129 634 110 614 90 C 594 70 571 52 545 35 C 518 18 488 4 454 -6 C 420 -17 384 -23 344 -23 C 306 -23 272 -18 240 -9 C 208 0 180 15 156 37 C 132 59 114 88 100 124 C 86 160 80 206 80 260 Z" unicode="u" />
<glyph horiz-adv-x="989" d="M -18 1096 L 356 1096 L 449 674 L 464 604 L 478 536 C 483 513 488 489 492 463 L 506 373 L 510 373 C 514 405 519 434 524 460 L 538 534 C 542 556 546 578 552 600 L 567 670 L 664 1096 L 1008 1096 L 694 -2 L 295 -2 L -18 1096 Z" unicode="v" />
<glyph horiz-adv-x="1397" d="M -16 1096 L 344 1096 L 395 815 L 408 744 L 420 674 C 424 650 428 623 432 594 L 444 492 L 449 492 C 453 532 458 566 463 595 C 467 624 472 651 476 675 C 480 699 485 722 490 744 C 494 766 500 789 506 815 L 567 1096 L 874 1096 L 934 823 L 950 749 C 955 725 960 701 964 676 C 968 651 973 624 978 594 C 982 564 987 530 993 492 L 997 492 C 1001 530 1006 564 1010 594 C 1014 623 1018 650 1022 675 L 1034 746 L 1047 817 L 1098 1096 L 1413 1096 L 1167 -2 L 831 -2 L 700 592 L 696 592 L 565 -2 L 229 -2 L -16 1096 Z" unicode="w" />
<glyph horiz-adv-x="993" d="M 0 0 L 317 559 L 23 1096 L 403 1096 L 528 831 L 637 1096 L 987 1096 L 690 575 L 1004 0 L 625 0 L 485 293 L 352 0 L 0 0 Z" unicode="x" />
<glyph horiz-adv-x="1012" d="M -31 -381 L 39 -90 C 53 -93 76 -98 107 -104 C 137 -110 173 -113 213 -113 C 243 -113 265 -108 281 -98 C 297 -88 309 -70 317 -45 L 328 -14 L -20 1096 L 367 1096 L 446 743 L 466 658 C 472 630 477 603 483 576 C 489 548 494 520 500 491 C 505 462 510 431 516 399 L 520 399 L 538 492 C 543 521 549 550 555 578 L 574 662 L 594 748 L 678 1096 L 1036 1096 L 653 -100 C 637 -150 618 -195 597 -235 C 575 -274 550 -307 520 -334 C 490 -360 454 -381 413 -395 C 372 -409 324 -416 270 -416 C 192 -416 130 -412 82 -404 C 34 -396 -3 -389 -31 -381 Z" unicode="y" />
<glyph horiz-adv-x="946" d="M 35 0 L 35 201 L 446 827 L 68 827 L 68 1096 L 887 1096 L 887 885 L 473 260 L 922 260 L 922 0 L 35 0 Z" unicode="z" />
<glyph horiz-adv-x="834" d="M 33 420 L 33 686 C 69 686 100 688 125 694 C 149 700 169 710 184 726 C 198 742 209 764 215 793 C 221 821 225 859 225 905 L 225 1217 C 225 1261 231 1302 244 1339 C 256 1375 276 1407 302 1433 C 328 1459 360 1480 399 1494 C 438 1508 484 1516 537 1516 L 815 1516 L 815 1251 L 739 1251 C 689 1251 654 1238 634 1213 C 614 1187 604 1150 604 1100 L 604 866 C 604 816 600 773 593 738 C 586 702 576 673 562 649 C 548 625 530 605 509 591 C 488 576 464 564 436 555 L 436 551 C 464 541 488 529 509 515 C 530 500 548 481 562 457 C 576 433 586 403 593 368 C 600 332 604 290 604 240 L 604 -4 C 604 -53 614 -90 635 -114 C 656 -138 691 -150 739 -150 L 815 -150 L 815 -410 L 524 -410 C 475 -410 432 -402 395 -388 C 358 -374 327 -353 302 -327 C 276 -301 257 -269 244 -233 C 231 -196 225 -155 225 -111 L 225 201 C 225 247 221 285 215 314 C 208 342 197 364 182 380 C 167 396 147 406 123 412 C 99 417 69 420 33 420 Z" unicode="{" />
<glyph horiz-adv-x="748" d="M 186 -410 L 186 1516 L 561 1516 L 561 -410 L 186 -410 Z" unicode="|" />
<glyph horiz-adv-x="834" d="M 16 -150 L 92 -150 C 141 -150 176 -138 197 -114 C 218 -90 229 -53 229 -4 L 229 258 C 229 308 232 349 240 383 C 247 416 258 444 272 466 C 286 488 303 505 324 518 C 345 530 369 541 397 551 L 397 555 C 369 564 345 575 324 588 C 303 600 286 618 272 640 C 258 662 247 689 240 723 C 232 756 229 798 229 848 L 229 1100 C 229 1150 218 1187 198 1213 C 178 1238 142 1251 92 1251 L 16 1251 L 16 1516 L 317 1516 C 369 1516 414 1509 451 1497 C 488 1484 518 1466 541 1442 C 564 1418 581 1388 592 1354 C 602 1319 608 1279 608 1235 L 608 905 C 608 859 611 821 617 793 C 623 764 633 742 648 726 C 662 710 682 700 707 694 C 732 688 763 686 801 686 L 801 420 C 764 420 733 417 709 412 C 684 406 664 396 649 380 C 634 364 623 342 617 314 C 611 285 608 247 608 201 L 608 -129 C 608 -218 585 -287 541 -336 C 497 -385 426 -410 330 -410 L 16 -410 L 16 -150 Z" unicode="}" />
<glyph horiz-adv-x="1188" d="M 84 573 C 98 691 129 779 177 835 C 225 891 287 920 365 920 C 411 920 456 914 500 904 C 543 894 583 882 621 870 L 724 836 C 754 826 781 821 805 821 C 814 821 822 822 830 824 C 838 826 845 829 852 835 C 858 841 864 849 869 859 C 874 869 879 883 883 899 L 1104 870 C 1089 749 1059 660 1014 603 C 968 546 905 518 825 518 C 780 518 736 523 693 533 C 650 543 610 555 572 568 L 465 602 C 432 612 404 618 381 618 C 372 618 364 617 356 615 C 348 613 341 609 335 603 C 328 597 322 589 317 579 C 312 568 308 554 305 537 L 84 573 Z" unicode="~" />
<glyph horiz-adv-x="975" d="" unicode="₀" />
<glyph horiz-adv-x="692" d="" unicode="₁" />
<glyph horiz-adv-x="834" d="" unicode="₂" />
<glyph horiz-adv-x="854" d="" unicode="₃" />
<glyph horiz-adv-x="926" d="" unicode="₄" />
<glyph horiz-adv-x="887" d="" unicode="₅" />
<glyph horiz-adv-x="926" d="" unicode="₆" />
<glyph horiz-adv-x="819" d="" unicode="₇" />
<glyph horiz-adv-x="915" d="" unicode="₈" />
<glyph horiz-adv-x="926" d="" unicode="₉" />
<glyph horiz-adv-x="483" d="" unicode=" " />
<glyph horiz-adv-x="674" d="M 104 0 L 176 1047 L 483 1047 L 555 0 L 104 0 Z M 131 1182 L 131 1516 L 528 1516 L 528 1182 L 131 1182 Z" unicode="¡" />
<glyph horiz-adv-x="1010" d="M 37 547 C 37 648 50 734 77 805 C 104 875 140 933 184 978 C 228 1023 278 1056 334 1078 C 390 1100 446 1112 504 1116 L 528 1262 L 784 1262 L 752 1079 C 786 1063 815 1044 841 1022 C 867 999 889 973 908 944 C 926 915 942 883 955 849 C 967 815 978 779 987 741 L 662 668 C 649 730 633 775 614 801 C 595 827 569 840 537 840 C 490 840 456 816 435 770 C 413 724 403 649 403 547 C 403 497 405 454 409 417 C 413 379 420 348 430 323 C 440 297 453 278 470 265 C 487 252 509 246 535 246 C 549 246 562 248 576 254 C 590 260 603 270 615 284 C 627 298 638 317 648 341 C 658 365 666 395 672 432 L 989 356 C 978 306 962 259 941 215 C 919 171 891 131 857 97 C 823 63 781 35 731 14 C 681 -7 623 -19 557 -23 L 528 -190 L 272 -190 L 309 23 C 271 41 235 64 202 94 C 168 123 139 159 115 202 C 91 244 72 294 58 351 C 44 408 37 473 37 547 Z" unicode="¢" />
<glyph horiz-adv-x="1317" d="M 0 225 C 0 271 8 312 24 348 C 40 383 61 412 89 436 C 117 460 149 478 185 490 C 221 502 259 508 299 508 C 333 508 364 503 394 493 C 424 483 453 470 481 455 C 479 489 472 523 460 557 C 448 591 434 625 418 659 L 152 659 L 152 868 L 309 868 C 288 909 271 951 258 994 C 244 1037 238 1082 238 1130 C 238 1190 248 1245 269 1296 C 289 1346 319 1390 357 1427 C 395 1463 442 1492 497 1513 C 551 1533 612 1544 680 1544 C 760 1544 827 1534 883 1514 C 938 1494 984 1465 1020 1429 C 1056 1392 1085 1348 1105 1296 C 1125 1244 1141 1186 1151 1122 L 819 1069 C 815 1095 810 1120 804 1142 C 798 1164 791 1184 781 1200 C 771 1216 759 1228 745 1237 C 730 1246 712 1251 690 1251 C 662 1251 639 1242 621 1224 C 603 1206 594 1178 594 1139 C 594 1115 596 1091 601 1069 C 605 1046 612 1024 620 1002 C 628 980 637 958 648 936 L 682 868 L 1001 868 L 1001 659 L 770 659 C 778 628 784 596 790 563 C 796 529 799 493 799 455 C 799 421 795 388 788 356 C 781 324 771 294 758 264 C 773 258 788 253 803 249 C 817 245 832 244 848 244 C 866 244 883 246 897 252 C 911 258 923 268 933 284 C 942 300 949 322 954 350 C 959 378 962 415 963 461 L 1288 461 C 1286 389 1280 323 1268 263 C 1256 203 1236 151 1208 108 C 1179 64 1140 31 1091 7 C 1041 -17 979 -29 903 -29 C 840 -29 785 -19 738 0 C 690 20 647 44 608 74 C 566 42 520 16 470 -1 C 419 -19 365 -29 307 -29 C 267 -29 229 -24 192 -14 C 155 -4 122 10 94 30 C 66 50 43 77 26 109 C 8 141 0 179 0 225 Z M 240 236 C 240 215 246 198 258 185 C 270 172 287 166 311 166 C 338 166 361 172 381 186 C 400 199 417 216 432 238 C 410 257 389 273 369 286 C 349 298 328 305 307 305 C 286 305 270 298 258 286 C 246 274 240 257 240 236 Z" unicode="£" />
<glyph horiz-adv-x="1152" d="M 92 392 L 300 608 C 281 634 268 660 262 686 C 255 711 252 742 252 780 C 252 812 255 842 262 870 C 268 898 281 925 300 952 L 92 1168 L 208 1276 L 408 1060 C 456 1092 510 1108 572 1108 C 636 1108 692 1092 740 1060 L 944 1276 L 1060 1156 L 852 952 C 870 925 883 898 890 872 C 896 845 900 814 900 780 C 900 716 882 658 848 608 L 1056 392 L 940 284 L 740 500 C 692 468 636 452 572 452 C 510 452 456 468 408 500 L 208 284 L 92 392 Z M 400 780 C 400 726 416 684 450 652 C 483 620 524 604 572 604 C 625 604 668 620 700 652 C 732 684 748 726 748 780 C 748 833 731 876 698 910 C 664 943 622 960 572 960 C 521 960 480 943 448 910 C 416 876 400 833 400 780 Z" unicode="¤" />
<glyph horiz-adv-x="1229" d="M -8 1516 L 381 1516 L 621 918 L 625 918 L 864 1516 L 1237 1516 L 825 651 L 1098 651 L 1098 442 L 793 442 L 793 336 L 1098 336 L 1098 127 L 793 127 L 793 0 L 432 0 L 432 127 L 131 127 L 131 336 L 432 336 L 432 442 L 131 442 L 131 651 L 397 651 L -8 1516 Z" unicode="¥" />
<glyph horiz-adv-x="748" d="M 186 -410 L 186 428 L 561 428 L 561 -410 L 186 -410 Z M 186 678 L 186 1516 L 561 1516 L 561 678 L 186 678 Z" unicode="¦" />
<glyph horiz-adv-x="1120" d="M 78 596 C 78 628 82 660 90 690 C 98 720 109 749 123 776 C 137 802 153 827 172 849 C 191 871 211 891 233 909 C 205 943 182 980 166 1020 C 149 1060 141 1107 141 1159 C 141 1211 150 1260 168 1307 C 186 1354 212 1395 248 1431 C 284 1466 328 1494 382 1515 C 435 1535 497 1546 569 1546 C 647 1546 713 1537 766 1519 C 819 1501 863 1476 898 1444 C 933 1412 961 1374 982 1330 C 1003 1286 1021 1239 1036 1188 L 737 1102 C 706 1220 653 1280 578 1280 C 559 1280 543 1277 531 1272 C 518 1267 508 1260 500 1251 C 492 1242 487 1232 484 1220 C 480 1208 479 1196 479 1182 C 479 1160 485 1141 497 1123 C 509 1105 525 1087 545 1070 C 565 1053 589 1036 616 1020 L 698 971 L 812 900 C 852 873 889 842 923 808 C 957 774 985 734 1008 689 C 1030 643 1042 591 1042 532 C 1042 499 1037 467 1029 437 C 1021 407 1009 378 995 352 C 981 325 964 300 945 278 C 926 255 906 235 885 217 C 913 184 935 148 951 108 C 967 68 975 21 975 -31 C 975 -83 966 -132 948 -179 C 930 -226 903 -267 867 -303 C 831 -338 787 -366 734 -387 C 681 -407 620 -418 551 -418 C 474 -418 409 -408 357 -390 C 305 -372 261 -347 226 -315 C 191 -283 163 -245 142 -201 C 120 -157 102 -110 88 -59 L 387 27 C 402 -31 422 -76 448 -106 C 473 -136 505 -152 543 -152 C 561 -152 576 -149 588 -144 C 600 -139 610 -132 617 -123 C 624 -114 629 -104 632 -92 C 635 -80 637 -67 637 -53 C 637 -32 631 -12 619 5 C 607 23 592 41 572 58 C 552 74 529 91 503 108 L 422 158 L 348 204 C 321 220 295 237 270 257 C 244 276 220 297 197 320 C 173 342 153 367 135 395 C 117 423 103 453 93 486 C 83 519 78 556 78 596 Z M 397 662 C 397 638 401 617 409 599 C 417 580 429 562 446 544 C 463 526 485 507 511 489 C 537 471 569 450 606 428 L 647 404 C 661 395 674 386 686 377 C 697 391 706 406 713 422 C 719 437 723 452 723 467 C 723 489 719 510 711 529 C 703 548 690 567 674 585 C 657 603 635 621 609 639 C 582 657 550 678 514 700 L 474 725 L 434 750 C 422 736 413 722 407 706 C 400 690 397 676 397 662 Z" unicode="§" />
<glyph horiz-adv-x="1024" d="M 152 1196 L 152 1528 L 453 1528 L 453 1196 L 152 1196 Z M 573 1196 L 573 1528 L 872 1528 L 872 1196 L 573 1196 Z" unicode="¨" />
<glyph horiz-adv-x="1491" d="M 70 754 C 70 865 87 969 121 1065 C 155 1161 202 1245 262 1316 C 322 1387 393 1443 476 1483 C 559 1523 650 1544 748 1544 C 846 1544 937 1524 1019 1484 C 1101 1444 1172 1390 1232 1320 C 1292 1250 1338 1167 1371 1072 C 1404 976 1421 873 1421 762 C 1421 687 1413 616 1398 548 C 1382 480 1360 416 1332 358 C 1304 299 1269 246 1229 198 C 1188 150 1142 110 1092 76 C 1042 42 987 16 928 -1 C 868 -19 806 -29 741 -29 C 643 -29 552 -9 470 30 C 388 70 317 125 258 195 C 198 265 152 347 119 443 C 86 538 70 642 70 754 Z M 242 762 C 242 670 254 585 278 508 C 302 430 337 363 381 307 C 425 250 479 206 541 174 C 603 142 672 127 748 127 C 823 127 891 142 953 173 C 1015 204 1067 247 1111 303 C 1155 358 1189 424 1213 501 C 1237 577 1249 662 1249 754 C 1249 845 1236 929 1212 1007 C 1187 1085 1152 1152 1108 1208 C 1064 1264 1010 1309 948 1341 C 886 1373 817 1389 741 1389 C 665 1389 597 1373 536 1342 C 474 1311 422 1268 378 1212 C 334 1156 301 1090 277 1014 C 253 937 242 853 242 762 Z M 426 762 C 426 907 454 1018 511 1094 C 567 1170 647 1208 750 1208 C 794 1208 834 1200 868 1186 C 902 1171 930 1151 954 1125 C 978 1099 997 1069 1011 1034 C 1025 999 1036 961 1042 920 L 842 881 C 838 898 833 914 829 929 C 825 943 819 956 813 967 C 806 977 797 986 787 992 C 777 998 764 1001 748 1001 C 714 1001 688 979 672 936 C 655 892 647 834 647 762 C 647 688 655 631 671 590 C 687 548 712 528 748 528 C 776 528 797 538 812 559 C 826 579 837 613 844 659 L 1049 618 C 1039 574 1027 534 1013 497 C 998 460 979 428 955 402 C 931 375 902 354 868 339 C 833 324 791 317 743 317 C 694 317 650 326 611 345 C 572 364 539 392 511 430 C 483 468 462 514 448 570 C 433 625 426 689 426 762 Z" unicode="©" />
<glyph horiz-adv-x="819" d="M 66 948 C 66 992 76 1030 97 1064 C 117 1097 146 1126 182 1151 C 218 1175 260 1196 310 1212 C 359 1228 413 1241 471 1251 L 471 1274 C 471 1295 467 1311 460 1322 C 452 1333 436 1339 412 1339 C 394 1339 376 1336 358 1332 C 339 1328 321 1322 303 1315 C 285 1308 268 1300 252 1292 C 236 1284 221 1276 209 1268 L 96 1421 C 142 1459 196 1488 260 1509 C 323 1529 391 1540 465 1540 C 555 1540 620 1518 661 1476 C 702 1434 723 1366 723 1274 L 723 942 C 723 896 724 859 726 829 C 728 799 733 775 741 756 L 485 756 C 481 770 477 785 475 802 C 472 818 471 838 471 862 C 446 824 416 795 381 774 C 345 753 303 743 254 743 C 229 743 205 746 183 753 C 160 760 140 772 123 788 C 105 804 91 825 81 851 C 71 877 66 910 66 948 Z M 317 999 C 317 981 322 967 332 957 C 342 947 355 942 371 942 C 383 942 395 943 405 946 C 415 949 425 953 433 958 C 441 962 449 967 455 972 C 461 977 466 981 471 985 L 471 1120 C 417 1108 378 1092 354 1072 C 329 1052 317 1028 317 999 Z" unicode="ª" />
<glyph horiz-adv-x="1194" d="M 25 545 L 311 1090 L 655 1090 L 381 545 L 655 0 L 311 0 L 25 545 Z M 532 545 L 819 1090 L 1163 1090 L 889 545 L 1163 0 L 819 0 L 532 545 Z" unicode="«" />
<glyph horiz-adv-x="1536" d="M 212 728 L 212 920 L 1296 920 L 1296 352 L 1116 352 L 1116 728 L 212 728 Z" unicode="¬" />
<glyph horiz-adv-x="655" d="M 59 504 L 59 766 L 594 766 L 594 504 L 59 504 Z" unicode="­" />
<glyph horiz-adv-x="1057" d="M 123 1071 C 123 1137 133 1199 153 1257 C 173 1315 202 1365 238 1408 C 274 1450 317 1484 367 1508 C 417 1532 471 1544 530 1544 C 589 1544 643 1532 693 1508 C 743 1484 785 1452 821 1410 C 857 1368 884 1318 904 1261 C 924 1203 934 1141 934 1075 C 934 1007 923 945 903 888 C 883 830 854 780 818 738 C 782 695 739 662 689 638 C 639 614 584 602 526 602 C 467 602 413 613 364 637 C 314 661 272 694 236 736 C 200 778 173 827 153 884 C 133 941 123 1003 123 1071 Z M 225 1075 C 225 1019 232 968 247 921 C 262 873 283 832 310 798 C 336 764 368 737 406 717 C 443 697 484 688 530 688 C 575 688 616 697 654 716 C 691 735 723 762 750 796 C 776 830 797 870 812 917 C 826 963 834 1015 834 1071 C 834 1126 826 1177 811 1225 C 796 1272 775 1313 748 1347 C 720 1381 688 1408 650 1428 C 612 1448 571 1458 526 1458 C 481 1458 440 1448 403 1429 C 366 1410 334 1384 308 1350 C 282 1316 261 1275 247 1229 C 232 1182 225 1131 225 1075 Z M 360 829 L 360 1339 L 539 1339 C 594 1339 638 1324 670 1296 C 702 1268 719 1223 719 1163 C 719 1123 712 1091 700 1067 C 688 1043 671 1025 651 1012 L 723 829 L 582 829 L 518 991 L 494 991 L 494 829 L 360 829 Z M 494 1096 L 530 1096 C 550 1096 565 1100 575 1110 C 585 1120 590 1135 590 1157 C 590 1197 570 1217 530 1217 L 494 1217 L 494 1096 Z" unicode="®" />
<glyph horiz-adv-x="1024" d="M 176 1196 L 176 1462 L 846 1462 L 846 1196 L 176 1196 Z" unicode="¯" />
<glyph horiz-adv-x="723" d="M 59 1219 C 59 1265 66 1308 81 1348 C 96 1388 117 1422 143 1451 C 169 1479 201 1502 238 1518 C 275 1534 316 1542 360 1542 C 404 1542 445 1534 482 1518 C 519 1502 551 1481 578 1453 C 604 1425 625 1391 640 1352 C 654 1312 662 1269 662 1223 C 662 1175 654 1132 640 1092 C 625 1052 604 1018 578 989 C 551 960 519 937 482 921 C 445 905 404 897 360 897 C 316 897 275 904 238 920 C 201 936 169 958 143 987 C 117 1015 96 1049 81 1089 C 66 1128 59 1171 59 1219 Z M 256 1221 C 256 1170 265 1132 284 1106 C 302 1080 328 1067 360 1067 C 393 1067 419 1080 438 1106 C 457 1132 467 1170 467 1221 C 467 1271 457 1309 438 1335 C 419 1361 393 1374 360 1374 C 328 1374 302 1361 284 1335 C 265 1309 256 1271 256 1221 Z" unicode="°" />
<glyph horiz-adv-x="1186" d="M 115 23 L 115 299 L 442 299 L 442 610 L 115 610 L 115 901 L 442 901 L 442 1278 L 743 1278 L 743 901 L 1071 901 L 1071 610 L 743 610 L 743 299 L 1071 299 L 1071 23 L 115 23 Z" unicode="±" />
<glyph horiz-adv-x="834" d="M 47 1247 C 65 1291 85 1330 108 1364 C 130 1398 157 1427 187 1451 C 217 1475 253 1493 293 1505 C 333 1517 379 1524 432 1524 C 482 1524 528 1517 568 1504 C 608 1491 643 1472 671 1447 C 699 1422 720 1392 735 1356 C 750 1320 758 1279 758 1233 C 758 1189 749 1150 733 1115 C 716 1080 695 1048 670 1020 C 644 991 617 965 587 942 L 502 876 C 475 856 452 838 433 821 C 414 803 403 786 399 770 L 752 770 L 752 532 L 55 532 L 55 590 C 55 657 65 715 86 765 C 106 815 132 858 164 896 C 195 934 229 967 265 996 L 366 1078 C 397 1103 423 1128 444 1154 C 464 1179 475 1207 475 1239 C 475 1255 471 1268 463 1276 C 455 1284 442 1288 424 1288 C 398 1288 375 1276 354 1252 C 333 1228 312 1192 291 1143 L 47 1247 Z" unicode="²" />
<glyph horiz-adv-x="854" d="M 35 770 L 248 887 C 266 843 289 809 317 785 C 344 761 374 750 406 750 C 442 750 467 759 483 777 C 498 795 506 817 506 844 C 506 868 502 888 495 904 C 487 920 477 932 463 941 C 449 950 432 956 412 960 C 392 963 369 965 344 965 L 303 965 L 303 1124 L 350 1124 C 377 1124 399 1126 417 1131 C 434 1136 447 1143 457 1152 C 467 1160 473 1171 477 1183 C 481 1195 483 1208 483 1223 C 483 1240 477 1255 465 1269 C 453 1283 436 1290 416 1290 C 354 1290 300 1256 252 1188 L 61 1325 C 107 1395 161 1447 223 1481 C 284 1515 354 1532 434 1532 C 482 1532 525 1525 565 1513 C 604 1501 638 1483 666 1460 C 694 1437 715 1409 731 1376 C 746 1343 754 1306 754 1266 C 754 1220 744 1180 724 1144 C 704 1108 671 1079 625 1057 C 679 1033 718 1003 742 965 C 766 927 778 881 778 827 C 778 776 769 731 751 693 C 733 654 707 621 675 595 C 643 569 604 549 560 536 C 516 522 468 516 416 516 C 321 516 242 537 180 581 C 118 625 69 688 35 770 Z" unicode="³" />
<glyph horiz-adv-x="1024" d="M 367 1204 L 530 1554 L 881 1554 L 623 1204 L 367 1204 Z" unicode="´" />
<glyph horiz-adv-x="1126" d="M 88 -410 L 88 1098 L 459 1098 L 459 381 C 459 349 464 325 474 309 C 484 293 502 285 528 285 C 555 285 580 290 604 301 C 627 311 649 324 670 340 L 670 1098 L 1038 1098 L 1038 0 L 670 0 L 670 147 C 662 135 652 122 640 108 C 628 94 613 80 597 67 C 581 54 562 42 541 31 C 520 19 497 10 473 4 C 471 2 468 2 466 2 C 463 2 461 1 459 0 L 459 -410 L 88 -410 Z" unicode="µ" />
<glyph horiz-adv-x="1229" d="M 55 1079 C 55 1139 64 1196 83 1250 C 102 1303 129 1349 165 1389 C 201 1428 244 1459 294 1482 C 344 1504 401 1516 465 1516 L 1161 1516 L 1161 -410 L 885 -410 L 885 1225 L 764 1225 L 764 -410 L 489 -410 L 489 649 C 421 649 361 659 308 679 C 254 699 209 727 171 763 C 133 799 105 844 85 897 C 65 950 55 1011 55 1079 Z" unicode="¶" />
<glyph horiz-adv-x="551" d="M 70 424 L 70 784 L 481 784 L 481 424 L 70 424 Z" unicode="·" />
<glyph horiz-adv-x="1024" d="M 229 -369 L 295 -242 C 307 -249 322 -256 339 -263 C 356 -269 374 -275 393 -280 C 412 -284 431 -288 451 -291 C 471 -293 490 -295 508 -295 C 530 -295 550 -290 568 -282 C 585 -274 594 -260 594 -242 C 594 -225 590 -213 582 -207 C 574 -200 560 -197 541 -197 C 528 -197 515 -199 501 -203 C 487 -207 475 -215 463 -227 L 369 -184 L 432 12 L 580 12 L 549 -96 C 561 -88 577 -81 598 -76 C 618 -70 642 -68 670 -68 C 688 -68 706 -71 723 -77 C 740 -83 755 -92 768 -104 C 781 -116 791 -132 799 -151 C 807 -169 811 -191 811 -217 C 811 -246 804 -274 791 -300 C 777 -326 758 -350 734 -370 C 709 -390 679 -406 644 -418 C 609 -430 570 -436 528 -436 C 465 -436 408 -429 358 -417 C 308 -404 265 -388 229 -369 Z" unicode="¸" />
<glyph horiz-adv-x="692" d="M 78 532 L 78 770 L 217 770 L 217 1233 C 200 1225 181 1220 159 1217 C 137 1213 112 1212 82 1212 L 82 1456 C 124 1458 157 1463 181 1473 C 205 1482 226 1496 246 1516 L 514 1516 L 514 770 L 635 770 L 635 532 L 78 532 Z" unicode="¹" />
<glyph horiz-adv-x="856" d="M 72 1145 C 72 1219 82 1282 102 1333 C 122 1384 149 1425 183 1456 C 216 1487 254 1509 297 1523 C 339 1537 383 1544 428 1544 C 472 1544 515 1537 558 1523 C 600 1509 638 1487 672 1456 C 705 1425 732 1384 753 1333 C 773 1282 784 1219 784 1145 C 784 1071 773 1008 753 958 C 732 907 705 866 672 834 C 638 802 600 780 558 766 C 515 752 472 745 428 745 C 384 745 340 752 298 766 C 255 780 217 802 184 834 C 150 866 123 907 103 958 C 82 1008 72 1071 72 1145 Z M 332 1145 C 332 1077 338 1025 352 991 C 365 957 390 940 428 940 C 464 940 489 955 503 987 C 517 1018 524 1071 524 1145 C 524 1211 517 1261 504 1293 C 490 1325 465 1341 428 1341 C 410 1341 395 1337 383 1330 C 371 1323 361 1312 353 1296 C 345 1280 340 1260 337 1236 C 333 1211 332 1181 332 1145 Z" unicode="º" />
<glyph horiz-adv-x="1194" d="M 31 0 L 305 545 L 31 1090 L 375 1090 L 662 545 L 375 0 L 31 0 Z M 539 0 L 813 545 L 539 1090 L 883 1090 L 1169 545 L 883 0 L 539 0 Z" unicode="»" />
<glyph horiz-adv-x="1917" d="M 78 530 L 78 776 L 217 776 L 217 1223 C 200 1215 181 1210 159 1207 C 137 1203 112 1202 82 1202 L 82 1454 C 124 1456 157 1461 181 1470 C 205 1479 226 1493 246 1513 L 514 1513 L 514 776 L 635 776 L 635 530 L 78 530 Z M 453 0 L 1221 1516 L 1524 1516 L 756 0 L 453 0 Z M 1110 186 L 1110 381 L 1473 983 L 1763 983 L 1763 418 L 1886 418 L 1886 186 L 1763 186 L 1763 0 L 1483 0 L 1483 186 L 1110 186 Z M 1358 401 L 1501 401 L 1501 643 L 1358 401 Z" unicode="¼" />
<glyph horiz-adv-x="1999" d="M 78 530 L 78 776 L 217 776 L 217 1223 C 200 1215 181 1210 159 1207 C 137 1203 112 1202 82 1202 L 82 1454 C 124 1456 157 1461 181 1470 C 205 1479 226 1493 246 1513 L 514 1513 L 514 776 L 635 776 L 635 530 L 78 530 Z M 453 0 L 1221 1516 L 1524 1516 L 756 0 L 453 0 Z M 1212 715 C 1230 759 1251 798 1275 832 C 1299 866 1326 895 1358 919 C 1390 942 1425 960 1465 972 C 1504 984 1548 991 1597 991 C 1647 991 1693 984 1733 971 C 1773 958 1808 939 1836 915 C 1864 890 1885 859 1900 823 C 1915 787 1923 746 1923 700 C 1923 656 1914 617 1898 582 C 1881 547 1860 515 1835 487 C 1809 458 1782 432 1752 409 L 1668 344 C 1641 324 1618 306 1599 289 C 1579 271 1568 254 1565 238 L 1917 238 L 1917 0 L 1221 0 L 1221 57 C 1221 124 1231 182 1252 232 C 1272 282 1298 325 1329 363 C 1360 401 1394 434 1430 463 L 1532 544 C 1562 570 1588 595 1609 621 C 1629 647 1640 675 1640 707 C 1640 723 1636 735 1628 743 C 1620 751 1607 756 1589 756 C 1563 756 1540 744 1519 720 C 1498 696 1477 660 1456 610 L 1212 715 Z" unicode="½" />
<glyph horiz-adv-x="1980" d="M 33 768 L 244 883 C 262 839 286 805 315 782 C 343 759 370 748 395 748 C 427 748 451 755 469 771 C 487 787 496 808 496 836 C 496 860 492 880 485 896 C 477 911 467 923 453 932 C 439 941 422 947 402 951 C 382 954 359 956 334 956 L 293 956 L 293 1116 L 340 1116 C 367 1116 389 1118 407 1123 C 424 1128 437 1135 447 1144 C 457 1152 463 1163 467 1175 C 471 1187 473 1200 473 1214 C 473 1231 466 1246 454 1258 C 442 1270 426 1276 406 1276 C 382 1276 356 1266 328 1247 C 299 1227 272 1200 248 1165 L 57 1300 C 103 1371 156 1426 216 1465 C 275 1504 344 1524 424 1524 C 471 1524 514 1517 554 1505 C 593 1493 627 1475 655 1452 C 683 1428 704 1400 720 1367 C 735 1334 743 1297 743 1257 C 743 1211 733 1171 713 1136 C 693 1100 660 1071 614 1049 C 668 1025 708 994 732 957 C 756 919 768 873 768 819 C 768 768 758 723 740 685 C 722 646 697 613 665 587 C 633 561 594 541 550 528 C 506 514 458 508 406 508 C 318 508 242 530 179 576 C 116 621 67 685 33 768 Z M 516 0 L 1284 1516 L 1587 1516 L 819 0 L 516 0 Z M 1174 186 L 1174 381 L 1536 983 L 1827 983 L 1827 418 L 1950 418 L 1950 186 L 1827 186 L 1827 0 L 1546 0 L 1546 186 L 1174 186 Z M 1421 401 L 1565 401 L 1565 643 L 1421 401 Z" unicode="¾" />
<glyph horiz-adv-x="1063" d="M 55 328 C 55 375 60 416 71 452 C 81 488 95 520 113 548 C 131 576 150 602 172 626 L 238 694 L 296 756 C 312 774 325 791 337 807 C 349 823 358 840 366 856 C 373 872 379 890 383 909 C 387 928 390 949 392 972 C 394 994 395 1021 395 1051 L 709 1051 C 712 1025 714 1004 714 986 C 714 968 715 948 715 928 C 715 883 708 843 696 807 C 683 771 667 739 648 710 C 628 680 607 653 584 628 L 514 557 L 472 510 C 459 494 448 479 438 463 C 428 447 420 431 414 415 C 408 398 406 380 406 362 C 406 332 414 309 432 295 C 449 281 472 274 502 274 C 524 274 546 279 566 291 C 586 303 604 318 620 336 C 636 354 651 375 663 398 C 675 421 686 444 694 467 L 999 360 C 979 301 953 248 921 200 C 889 152 852 111 808 77 C 764 43 715 16 659 -1 C 603 -19 542 -29 475 -29 C 403 -29 341 -19 289 0 C 236 18 192 44 158 76 C 123 108 97 146 80 190 C 63 233 55 279 55 328 Z M 356 1182 L 356 1516 L 752 1516 L 752 1182 L 356 1182 Z" unicode="¿" />
<glyph horiz-adv-x="1272" d="M 8 0 L 451 1522 L 821 1522 L 1264 0 L 881 0 L 817 256 L 428 256 L 362 0 L 8 0 Z M 502 549 L 745 549 L 719 664 L 692 768 L 668 860 C 660 890 652 921 646 952 C 640 982 634 1015 629 1051 L 625 1051 C 619 1015 612 982 605 952 C 598 921 591 891 583 861 L 558 768 L 530 664 L 502 549 Z M 266 1953 L 617 1953 L 780 1603 L 524 1603 L 266 1953 Z" unicode="À" />
<glyph horiz-adv-x="1272" d="M 8 0 L 451 1522 L 821 1522 L 1264 0 L 881 0 L 817 256 L 428 256 L 362 0 L 8 0 Z M 502 549 L 745 549 L 719 664 L 692 768 L 668 860 C 660 890 652 921 646 952 C 640 982 634 1015 629 1051 L 625 1051 C 619 1015 612 982 605 952 C 598 921 591 891 583 861 L 558 768 L 530 664 L 502 549 Z M 490 1603 L 653 1953 L 1004 1953 L 746 1603 L 490 1603 Z" unicode="Á" />
<glyph horiz-adv-x="1272" d="M 8 0 L 451 1522 L 821 1522 L 1264 0 L 881 0 L 817 256 L 428 256 L 362 0 L 8 0 Z M 502 549 L 745 549 L 719 664 L 692 768 L 668 860 C 660 890 652 921 646 952 C 640 982 634 1015 629 1051 L 625 1051 C 619 1015 612 982 605 952 C 598 921 591 891 583 861 L 558 768 L 530 664 L 502 549 Z M 287 1607 L 512 1953 L 758 1953 L 981 1607 L 770 1607 L 633 1732 L 498 1607 L 287 1607 Z" unicode="Â" />
<glyph horiz-adv-x="1272" d="M 8 0 L 451 1522 L 821 1522 L 1264 0 L 881 0 L 817 256 L 428 256 L 362 0 L 8 0 Z M 502 549 L 745 549 L 719 664 L 692 768 L 668 860 C 660 890 652 921 646 952 C 640 982 634 1015 629 1051 L 625 1051 C 619 1015 612 982 605 952 C 598 921 591 891 583 861 L 558 768 L 530 664 L 502 549 Z M 250 1577 C 250 1642 255 1698 267 1744 C 279 1790 295 1828 316 1858 C 337 1887 362 1908 392 1922 C 422 1936 455 1943 492 1943 C 528 1943 558 1937 584 1925 C 609 1913 631 1900 651 1886 L 705 1847 C 722 1835 740 1829 760 1829 C 782 1829 800 1837 814 1854 C 827 1870 834 1899 834 1939 L 1020 1939 C 1020 1873 1014 1817 1002 1771 C 990 1725 974 1687 953 1658 C 932 1628 907 1607 877 1593 C 847 1579 814 1573 778 1573 C 742 1573 711 1579 686 1591 C 660 1603 638 1616 619 1630 L 565 1669 C 547 1681 529 1687 510 1687 C 487 1687 469 1678 456 1662 C 442 1645 436 1617 436 1577 L 250 1577 Z" unicode="Ã" />
<glyph horiz-adv-x="1272" d="M 8 0 L 451 1522 L 821 1522 L 1264 0 L 881 0 L 817 256 L 428 256 L 362 0 L 8 0 Z M 502 549 L 745 549 L 719 664 L 692 768 L 668 860 C 660 890 652 921 646 952 C 640 982 634 1015 629 1051 L 625 1051 C 619 1015 612 982 605 952 C 598 921 591 891 583 861 L 558 768 L 530 664 L 502 549 Z M 275 1595 L 275 1927 L 576 1927 L 576 1595 L 275 1595 Z M 696 1595 L 696 1927 L 995 1927 L 995 1595 L 696 1595 Z" unicode="Ä" />
<glyph horiz-adv-x="1272" d="M 8 0 L 451 1522 L 821 1522 L 1264 0 L 881 0 L 817 256 L 428 256 L 362 0 L 8 0 Z M 502 549 L 745 549 L 719 664 L 692 768 L 668 860 C 660 890 652 921 646 952 C 640 982 634 1015 629 1051 L 625 1051 C 619 1015 612 982 605 952 C 598 921 591 891 583 861 L 558 768 L 530 664 L 502 549 Z M 410 1634 C 410 1668 415 1699 426 1728 C 437 1757 452 1782 472 1804 C 492 1826 515 1843 543 1855 C 571 1867 601 1874 635 1874 C 668 1874 698 1867 726 1855 C 754 1843 777 1826 797 1804 C 817 1782 832 1757 843 1728 C 854 1699 860 1668 860 1634 C 860 1600 854 1568 843 1539 C 832 1510 817 1485 797 1463 C 777 1441 754 1424 726 1412 C 698 1400 668 1394 635 1394 C 601 1394 571 1400 543 1412 C 515 1424 492 1441 472 1463 C 452 1485 437 1510 426 1539 C 415 1568 410 1600 410 1634 Z M 565 1632 C 565 1619 566 1607 569 1595 C 572 1583 576 1572 582 1563 C 588 1554 595 1547 604 1542 C 612 1536 623 1534 635 1534 C 647 1534 657 1536 666 1542 C 674 1547 681 1554 687 1563 C 693 1572 697 1583 700 1595 C 703 1607 705 1619 705 1632 C 705 1644 703 1655 700 1667 C 697 1679 693 1689 687 1698 C 681 1707 674 1714 666 1720 C 657 1725 647 1728 635 1728 C 623 1728 612 1725 604 1720 C 595 1714 588 1707 582 1698 C 576 1689 572 1679 569 1667 C 566 1655 565 1644 565 1632 Z" unicode="Å" />
<glyph horiz-adv-x="1866" d="M 8 0 L 690 1516 L 1796 1516 L 1796 1196 L 1264 1196 L 1264 932 L 1642 932 L 1642 633 L 1264 633 L 1264 309 L 1821 309 L 1821 0 L 885 0 L 885 391 L 553 391 L 383 0 L 8 0 Z M 670 659 L 885 659 L 885 1149 L 670 659 Z" unicode="Æ" />
<glyph horiz-adv-x="1260" d="M 51 758 C 51 898 66 1017 97 1117 C 127 1216 170 1297 224 1361 C 278 1424 343 1470 419 1500 C 494 1529 576 1544 666 1544 C 754 1544 830 1531 894 1506 C 957 1481 1010 1445 1052 1398 C 1094 1351 1128 1294 1152 1227 C 1176 1160 1194 1085 1204 1001 L 846 938 C 838 986 830 1028 820 1064 C 810 1100 798 1129 784 1152 C 769 1175 751 1192 730 1204 C 708 1215 683 1221 653 1221 C 575 1221 519 1182 485 1105 C 451 1028 434 912 434 758 C 434 601 451 483 487 404 C 522 324 579 285 657 285 C 687 285 714 290 736 301 C 758 311 777 329 793 353 C 809 377 822 408 833 446 C 844 484 854 532 862 588 L 1221 530 C 1207 452 1188 379 1162 311 C 1136 243 1101 185 1057 135 C 1013 85 958 45 892 16 C 826 -12 747 -27 655 -27 C 565 -27 484 -12 410 17 C 336 46 272 92 219 156 C 166 219 125 300 95 399 C 65 498 51 618 51 758 Z M 346 -369 L 412 -242 C 424 -249 439 -256 456 -263 C 473 -269 491 -275 510 -280 C 529 -284 548 -288 568 -291 C 588 -293 607 -295 625 -295 C 647 -295 667 -290 685 -282 C 702 -274 711 -260 711 -242 C 711 -225 707 -213 699 -207 C 691 -200 677 -197 658 -197 C 645 -197 632 -199 618 -203 C 604 -207 592 -215 580 -227 L 486 -184 L 549 12 L 697 12 L 666 -96 C 678 -88 694 -81 715 -76 C 735 -70 759 -68 787 -68 C 805 -68 823 -71 840 -77 C 857 -83 872 -92 885 -104 C 898 -116 908 -132 916 -151 C 924 -169 928 -191 928 -217 C 928 -246 921 -274 908 -300 C 894 -326 875 -350 851 -370 C 826 -390 796 -406 761 -418 C 726 -430 687 -436 645 -436 C 582 -436 525 -429 475 -417 C 425 -404 382 -388 346 -369 Z" unicode="Ç" />
<glyph horiz-adv-x="1096" d="M 111 0 L 111 1516 L 1026 1516 L 1026 1196 L 492 1196 L 492 932 L 872 932 L 872 633 L 492 633 L 492 309 L 1051 309 L 1051 0 L 111 0 Z M 178 1953 L 529 1953 L 692 1603 L 436 1603 L 178 1953 Z" unicode="È" />
<glyph horiz-adv-x="1096" d="M 111 0 L 111 1516 L 1026 1516 L 1026 1196 L 492 1196 L 492 932 L 872 932 L 872 633 L 492 633 L 492 309 L 1051 309 L 1051 0 L 111 0 Z M 402 1603 L 565 1953 L 916 1953 L 658 1603 L 402 1603 Z" unicode="É" />
<glyph horiz-adv-x="1096" d="M 111 0 L 111 1516 L 1026 1516 L 1026 1196 L 492 1196 L 492 932 L 872 932 L 872 633 L 492 633 L 492 309 L 1051 309 L 1051 0 L 111 0 Z M 199 1607 L 424 1953 L 670 1953 L 893 1607 L 682 1607 L 545 1732 L 410 1607 L 199 1607 Z" unicode="Ê" />
<glyph horiz-adv-x="1096" d="M 111 0 L 111 1516 L 1026 1516 L 1026 1196 L 492 1196 L 492 932 L 872 932 L 872 633 L 492 633 L 492 309 L 1051 309 L 1051 0 L 111 0 Z M 187 1595 L 187 1927 L 488 1927 L 488 1595 L 187 1595 Z M 608 1595 L 608 1927 L 907 1927 L 907 1595 L 608 1595 Z" unicode="Ë" />
<glyph horiz-adv-x="623" d="M 121 0 L 121 1516 L 502 1516 L 502 0 L 121 0 Z M -57 1953 L 294 1953 L 457 1603 L 201 1603 L -57 1953 Z" unicode="Ì" />
<glyph horiz-adv-x="623" d="M 121 0 L 121 1516 L 502 1516 L 502 0 L 121 0 Z M 167 1603 L 330 1953 L 681 1953 L 423 1603 L 167 1603 Z" unicode="Í" />
<glyph horiz-adv-x="623" d="M 121 0 L 121 1516 L 502 1516 L 502 0 L 121 0 Z M -36 1607 L 189 1953 L 435 1953 L 658 1607 L 447 1607 L 310 1732 L 175 1607 L -36 1607 Z" unicode="Î" />
<glyph horiz-adv-x="623" d="M 121 0 L 121 1516 L 502 1516 L 502 0 L 121 0 Z M -48 1595 L -48 1927 L 253 1927 L 253 1595 L -48 1595 Z M 373 1595 L 373 1927 L 672 1927 L 672 1595 L 373 1595 Z" unicode="Ï" />
<glyph horiz-adv-x="1311" d="M 12 635 L 12 922 L 111 922 L 111 1516 L 539 1516 C 605 1516 669 1511 731 1502 C 793 1493 850 1478 904 1456 C 957 1434 1005 1405 1049 1369 C 1093 1332 1130 1286 1162 1230 C 1193 1174 1217 1108 1234 1031 C 1251 954 1260 865 1260 764 C 1260 660 1251 570 1234 492 C 1216 414 1192 346 1161 290 C 1129 233 1092 186 1048 149 C 1004 111 955 82 901 60 C 847 38 790 22 729 13 C 668 4 605 0 539 0 L 111 0 L 111 635 L 12 635 Z M 492 315 L 571 315 C 631 315 680 322 720 337 C 759 352 790 377 814 412 C 837 447 853 493 863 551 C 872 608 877 679 877 764 C 877 844 872 912 863 967 C 853 1022 837 1067 814 1101 C 790 1135 759 1159 719 1174 C 679 1188 629 1196 569 1196 L 492 1196 L 492 922 L 707 922 L 707 635 L 492 635 L 492 315 Z" unicode="Ð" />
<glyph horiz-adv-x="1360" d="M 111 0 L 111 1516 L 492 1516 L 776 958 L 808 896 L 834 841 L 862 780 L 895 702 L 899 702 L 899 1516 L 1243 1516 L 1243 0 L 891 0 L 555 614 L 530 660 L 508 703 L 486 750 L 459 809 L 455 809 L 455 0 L 111 0 Z M 295 1577 C 295 1642 300 1698 312 1744 C 324 1790 340 1828 361 1858 C 382 1887 407 1908 437 1922 C 467 1936 500 1943 537 1943 C 573 1943 603 1937 629 1925 C 654 1913 676 1900 696 1886 L 750 1847 C 767 1835 785 1829 805 1829 C 827 1829 845 1837 859 1854 C 872 1870 879 1899 879 1939 L 1065 1939 C 1065 1873 1059 1817 1047 1771 C 1035 1725 1019 1687 998 1658 C 977 1628 952 1607 922 1593 C 892 1579 859 1573 823 1573 C 787 1573 756 1579 731 1591 C 705 1603 683 1616 664 1630 L 610 1669 C 592 1681 574 1687 555 1687 C 532 1687 514 1678 501 1662 C 487 1645 481 1617 481 1577 L 295 1577 Z" unicode="Ñ" />
<glyph horiz-adv-x="1360" d="M 51 758 C 51 898 68 1017 102 1117 C 136 1216 182 1297 240 1361 C 298 1424 365 1470 441 1500 C 517 1529 596 1544 680 1544 C 762 1544 842 1529 918 1500 C 994 1470 1060 1424 1118 1361 C 1175 1297 1221 1216 1255 1117 C 1289 1017 1307 898 1307 758 C 1307 618 1289 498 1255 399 C 1221 299 1175 218 1118 155 C 1060 91 994 45 918 15 C 842 -14 762 -29 680 -29 C 596 -29 517 -14 441 15 C 365 45 298 91 240 155 C 182 218 136 299 102 399 C 68 498 51 618 51 758 Z M 434 758 C 434 606 454 490 494 408 C 534 326 596 285 680 285 C 762 285 824 326 864 408 C 904 490 924 606 924 758 C 924 910 904 1026 864 1104 C 824 1182 763 1221 680 1221 C 596 1221 534 1182 494 1104 C 454 1026 434 910 434 758 Z M 311 1953 L 662 1953 L 825 1603 L 569 1603 L 311 1953 Z" unicode="Ò" />
<glyph horiz-adv-x="1360" d="M 51 758 C 51 898 68 1017 102 1117 C 136 1216 182 1297 240 1361 C 298 1424 365 1470 441 1500 C 517 1529 596 1544 680 1544 C 762 1544 842 1529 918 1500 C 994 1470 1060 1424 1118 1361 C 1175 1297 1221 1216 1255 1117 C 1289 1017 1307 898 1307 758 C 1307 618 1289 498 1255 399 C 1221 299 1175 218 1118 155 C 1060 91 994 45 918 15 C 842 -14 762 -29 680 -29 C 596 -29 517 -14 441 15 C 365 45 298 91 240 155 C 182 218 136 299 102 399 C 68 498 51 618 51 758 Z M 434 758 C 434 606 454 490 494 408 C 534 326 596 285 680 285 C 762 285 824 326 864 408 C 904 490 924 606 924 758 C 924 910 904 1026 864 1104 C 824 1182 763 1221 680 1221 C 596 1221 534 1182 494 1104 C 454 1026 434 910 434 758 Z M 535 1603 L 698 1953 L 1049 1953 L 791 1603 L 535 1603 Z" unicode="Ó" />
<glyph horiz-adv-x="1360" d="M 51 758 C 51 898 68 1017 102 1117 C 136 1216 182 1297 240 1361 C 298 1424 365 1470 441 1500 C 517 1529 596 1544 680 1544 C 762 1544 842 1529 918 1500 C 994 1470 1060 1424 1118 1361 C 1175 1297 1221 1216 1255 1117 C 1289 1017 1307 898 1307 758 C 1307 618 1289 498 1255 399 C 1221 299 1175 218 1118 155 C 1060 91 994 45 918 15 C 842 -14 762 -29 680 -29 C 596 -29 517 -14 441 15 C 365 45 298 91 240 155 C 182 218 136 299 102 399 C 68 498 51 618 51 758 Z M 434 758 C 434 606 454 490 494 408 C 534 326 596 285 680 285 C 762 285 824 326 864 408 C 904 490 924 606 924 758 C 924 910 904 1026 864 1104 C 824 1182 763 1221 680 1221 C 596 1221 534 1182 494 1104 C 454 1026 434 910 434 758 Z M 332 1607 L 557 1953 L 803 1953 L 1026 1607 L 815 1607 L 678 1732 L 543 1607 L 332 1607 Z" unicode="Ô" />
<glyph horiz-adv-x="1360" d="M 51 758 C 51 898 68 1017 102 1117 C 136 1216 182 1297 240 1361 C 298 1424 365 1470 441 1500 C 517 1529 596 1544 680 1544 C 762 1544 842 1529 918 1500 C 994 1470 1060 1424 1118 1361 C 1175 1297 1221 1216 1255 1117 C 1289 1017 1307 898 1307 758 C 1307 618 1289 498 1255 399 C 1221 299 1175 218 1118 155 C 1060 91 994 45 918 15 C 842 -14 762 -29 680 -29 C 596 -29 517 -14 441 15 C 365 45 298 91 240 155 C 182 218 136 299 102 399 C 68 498 51 618 51 758 Z M 434 758 C 434 606 454 490 494 408 C 534 326 596 285 680 285 C 762 285 824 326 864 408 C 904 490 924 606 924 758 C 924 910 904 1026 864 1104 C 824 1182 763 1221 680 1221 C 596 1221 534 1182 494 1104 C 454 1026 434 910 434 758 Z M 295 1577 C 295 1642 300 1698 312 1744 C 324 1790 340 1828 361 1858 C 382 1887 407 1908 437 1922 C 467 1936 500 1943 537 1943 C 573 1943 603 1937 629 1925 C 654 1913 676 1900 696 1886 L 750 1847 C 767 1835 785 1829 805 1829 C 827 1829 845 1837 859 1854 C 872 1870 879 1899 879 1939 L 1065 1939 C 1065 1873 1059 1817 1047 1771 C 1035 1725 1019 1687 998 1658 C 977 1628 952 1607 922 1593 C 892 1579 859 1573 823 1573 C 787 1573 756 1579 731 1591 C 705 1603 683 1616 664 1630 L 610 1669 C 592 1681 574 1687 555 1687 C 532 1687 514 1678 501 1662 C 487 1645 481 1617 481 1577 L 295 1577 Z" unicode="Õ" />
<glyph horiz-adv-x="1360" d="M 51 758 C 51 898 68 1017 102 1117 C 136 1216 182 1297 240 1361 C 298 1424 365 1470 441 1500 C 517 1529 596 1544 680 1544 C 762 1544 842 1529 918 1500 C 994 1470 1060 1424 1118 1361 C 1175 1297 1221 1216 1255 1117 C 1289 1017 1307 898 1307 758 C 1307 618 1289 498 1255 399 C 1221 299 1175 218 1118 155 C 1060 91 994 45 918 15 C 842 -14 762 -29 680 -29 C 596 -29 517 -14 441 15 C 365 45 298 91 240 155 C 182 218 136 299 102 399 C 68 498 51 618 51 758 Z M 434 758 C 434 606 454 490 494 408 C 534 326 596 285 680 285 C 762 285 824 326 864 408 C 904 490 924 606 924 758 C 924 910 904 1026 864 1104 C 824 1182 763 1221 680 1221 C 596 1221 534 1182 494 1104 C 454 1026 434 910 434 758 Z M 320 1595 L 320 1927 L 621 1927 L 621 1595 L 320 1595 Z M 741 1595 L 741 1927 L 1040 1927 L 1040 1595 L 741 1595 Z" unicode="Ö" />
<glyph horiz-adv-x="1188" d="M 106 424 L 393 711 L 106 997 L 307 1198 L 594 911 L 881 1198 L 1081 997 L 795 711 L 1081 424 L 881 223 L 594 510 L 307 223 L 106 424 Z" unicode="×" />
<glyph horiz-adv-x="1360" d="M 23 23 L 176 242 C 136 304 106 377 84 462 C 62 547 51 646 51 758 C 51 898 68 1017 102 1117 C 136 1216 182 1297 240 1361 C 298 1424 365 1470 441 1500 C 517 1529 596 1544 680 1544 C 742 1544 801 1536 859 1520 C 917 1504 970 1478 1020 1444 L 1149 1618 L 1335 1493 L 1182 1276 C 1221 1214 1252 1140 1274 1054 C 1296 968 1307 870 1307 758 C 1307 618 1289 498 1255 399 C 1221 299 1175 218 1118 155 C 1060 91 994 45 918 15 C 842 -14 762 -29 680 -29 C 617 -29 556 -20 497 -4 C 438 12 384 38 334 74 L 211 -102 L 23 23 Z M 426 758 C 426 728 426 699 428 672 C 430 644 432 618 436 594 L 831 1157 C 793 1202 742 1225 680 1225 C 596 1225 533 1185 490 1106 C 447 1026 426 910 426 758 Z M 520 358 C 561 306 614 281 680 281 C 721 281 757 291 789 313 C 821 334 847 365 868 406 C 889 446 905 496 916 555 C 926 614 932 682 932 758 C 932 788 931 817 929 845 C 927 872 925 898 922 924 L 520 358 Z" unicode="Ø" />
<glyph horiz-adv-x="1262" d="M 88 537 L 88 1516 L 469 1516 L 469 555 C 469 507 472 467 479 434 C 485 401 496 374 510 354 C 524 333 541 318 563 309 C 585 299 611 295 641 295 C 671 295 696 299 718 309 C 740 318 757 333 771 354 C 785 374 795 401 801 434 C 807 466 811 506 811 553 L 811 1516 L 1174 1516 L 1174 539 C 1174 446 1163 364 1143 294 C 1123 224 1091 165 1048 118 C 1004 70 949 35 881 11 C 813 -13 731 -25 635 -25 C 539 -25 456 -12 388 11 C 319 35 262 71 218 119 C 173 166 140 225 119 295 C 98 365 88 445 88 537 Z M 262 1953 L 613 1953 L 776 1603 L 520 1603 L 262 1953 Z" unicode="Ù" />
<glyph horiz-adv-x="1262" d="M 88 537 L 88 1516 L 469 1516 L 469 555 C 469 507 472 467 479 434 C 485 401 496 374 510 354 C 524 333 541 318 563 309 C 585 299 611 295 641 295 C 671 295 696 299 718 309 C 740 318 757 333 771 354 C 785 374 795 401 801 434 C 807 466 811 506 811 553 L 811 1516 L 1174 1516 L 1174 539 C 1174 446 1163 364 1143 294 C 1123 224 1091 165 1048 118 C 1004 70 949 35 881 11 C 813 -13 731 -25 635 -25 C 539 -25 456 -12 388 11 C 319 35 262 71 218 119 C 173 166 140 225 119 295 C 98 365 88 445 88 537 Z M 486 1603 L 649 1953 L 1000 1953 L 742 1603 L 486 1603 Z" unicode="Ú" />
<glyph horiz-adv-x="1262" d="M 88 537 L 88 1516 L 469 1516 L 469 555 C 469 507 472 467 479 434 C 485 401 496 374 510 354 C 524 333 541 318 563 309 C 585 299 611 295 641 295 C 671 295 696 299 718 309 C 740 318 757 333 771 354 C 785 374 795 401 801 434 C 807 466 811 506 811 553 L 811 1516 L 1174 1516 L 1174 539 C 1174 446 1163 364 1143 294 C 1123 224 1091 165 1048 118 C 1004 70 949 35 881 11 C 813 -13 731 -25 635 -25 C 539 -25 456 -12 388 11 C 319 35 262 71 218 119 C 173 166 140 225 119 295 C 98 365 88 445 88 537 Z M 283 1607 L 508 1953 L 754 1953 L 977 1607 L 766 1607 L 629 1732 L 494 1607 L 283 1607 Z" unicode="Û" />
<glyph horiz-adv-x="1262" d="M 88 537 L 88 1516 L 469 1516 L 469 555 C 469 507 472 467 479 434 C 485 401 496 374 510 354 C 524 333 541 318 563 309 C 585 299 611 295 641 295 C 671 295 696 299 718 309 C 740 318 757 333 771 354 C 785 374 795 401 801 434 C 807 466 811 506 811 553 L 811 1516 L 1174 1516 L 1174 539 C 1174 446 1163 364 1143 294 C 1123 224 1091 165 1048 118 C 1004 70 949 35 881 11 C 813 -13 731 -25 635 -25 C 539 -25 456 -12 388 11 C 319 35 262 71 218 119 C 173 166 140 225 119 295 C 98 365 88 445 88 537 Z M 271 1595 L 271 1927 L 572 1927 L 572 1595 L 271 1595 Z M 692 1595 L 692 1927 L 991 1927 L 991 1595 L 692 1595 Z" unicode="Ü" />
<glyph horiz-adv-x="1229" d="M -8 1516 L 381 1516 L 621 924 L 625 924 L 864 1516 L 1237 1516 L 803 580 L 803 0 L 422 0 L 422 580 L -8 1516 Z M 469 1603 L 632 1953 L 983 1953 L 725 1603 L 469 1603 Z" unicode="Ý" />
<glyph horiz-adv-x="1194" d="M 111 0 L 111 1516 L 485 1516 L 485 1286 L 586 1286 C 633 1286 679 1282 725 1276 C 771 1270 814 1259 856 1244 C 897 1228 935 1208 971 1182 C 1006 1156 1036 1124 1062 1086 C 1088 1048 1108 1002 1123 950 C 1137 897 1145 836 1145 768 C 1145 696 1137 634 1121 580 C 1105 526 1084 479 1057 441 C 1030 402 998 370 962 345 C 926 319 887 299 846 284 C 804 269 761 259 716 253 C 671 247 627 244 584 244 L 485 244 L 485 0 L 111 0 Z M 485 541 L 594 541 C 630 541 660 545 684 554 C 708 563 727 577 741 595 C 755 613 766 636 772 664 C 778 691 782 723 782 760 C 782 795 778 826 772 852 C 766 878 755 900 741 918 C 726 936 706 949 682 958 C 658 966 628 971 592 971 L 485 971 L 485 541 Z" unicode="Þ" />
<glyph horiz-adv-x="1253" d="M 98 0 L 98 1008 C 98 1095 110 1171 136 1235 C 162 1299 198 1351 245 1393 C 291 1435 347 1466 412 1486 C 477 1506 549 1516 629 1516 C 701 1516 766 1507 825 1491 C 884 1475 935 1451 977 1419 C 1019 1387 1051 1347 1074 1300 C 1096 1253 1108 1199 1108 1137 C 1108 1091 1101 1049 1088 1013 C 1075 976 1058 944 1037 916 C 1015 888 991 865 964 846 C 937 826 909 811 881 801 C 940 790 991 772 1035 748 C 1078 723 1114 694 1143 660 C 1171 626 1192 588 1206 547 C 1220 506 1227 464 1227 420 C 1227 356 1217 298 1199 244 C 1180 190 1153 143 1117 104 C 1081 65 1036 35 984 13 C 932 -9 872 -20 805 -20 C 775 -20 745 -18 715 -14 C 685 -10 657 -4 630 2 C 603 8 578 16 555 25 C 531 33 512 42 496 51 L 608 305 C 629 295 652 286 678 278 C 703 270 730 266 760 266 C 797 266 826 279 848 305 C 870 331 881 369 881 420 C 881 458 875 490 863 517 C 851 544 833 567 807 585 C 781 603 747 617 707 627 C 666 637 617 645 559 649 L 559 887 C 633 887 685 902 717 933 C 748 963 764 1012 764 1079 C 764 1096 761 1113 756 1129 C 750 1145 742 1159 731 1171 C 719 1183 705 1193 688 1201 C 670 1208 650 1212 627 1212 C 574 1212 534 1196 507 1164 C 480 1132 467 1082 467 1016 L 467 0 L 98 0 Z" unicode="ß" />
<glyph horiz-adv-x="1044" d="M 27 281 C 27 343 41 397 71 444 C 100 491 140 532 192 566 C 244 600 305 629 376 652 C 446 674 523 693 606 707 L 606 739 C 606 754 604 767 602 779 C 600 791 596 800 590 808 C 584 816 575 821 564 825 C 553 829 539 831 522 831 C 496 831 470 827 444 821 C 418 815 392 807 366 797 C 340 787 316 777 293 765 C 270 753 249 741 231 729 L 72 950 C 138 1004 215 1045 305 1074 C 395 1103 492 1118 596 1118 C 660 1118 716 1110 763 1096 C 809 1082 848 1059 878 1029 C 908 998 930 959 944 911 C 958 863 965 805 965 739 L 965 266 C 965 200 967 146 971 104 C 975 62 981 28 991 0 L 627 0 C 620 19 615 40 611 64 C 607 88 606 116 606 150 C 570 97 527 57 477 29 C 427 1 367 -12 297 -12 C 261 -12 227 -7 195 3 C 163 13 134 29 109 52 C 84 74 64 104 49 142 C 34 179 27 225 27 281 Z M 385 352 C 385 325 392 305 407 291 C 421 277 440 270 463 270 C 481 270 497 272 512 276 C 526 280 539 284 551 290 C 563 296 573 302 582 309 C 591 315 599 322 606 328 L 606 520 C 529 502 473 480 438 454 C 402 427 385 393 385 352 Z M 153 1554 L 504 1554 L 667 1204 L 411 1204 L 153 1554 Z" unicode="à" />
<glyph horiz-adv-x="1044" d="M 27 281 C 27 343 41 397 71 444 C 100 491 140 532 192 566 C 244 600 305 629 376 652 C 446 674 523 693 606 707 L 606 739 C 606 754 604 767 602 779 C 600 791 596 800 590 808 C 584 816 575 821 564 825 C 553 829 539 831 522 831 C 496 831 470 827 444 821 C 418 815 392 807 366 797 C 340 787 316 777 293 765 C 270 753 249 741 231 729 L 72 950 C 138 1004 215 1045 305 1074 C 395 1103 492 1118 596 1118 C 660 1118 716 1110 763 1096 C 809 1082 848 1059 878 1029 C 908 998 930 959 944 911 C 958 863 965 805 965 739 L 965 266 C 965 200 967 146 971 104 C 975 62 981 28 991 0 L 627 0 C 620 19 615 40 611 64 C 607 88 606 116 606 150 C 570 97 527 57 477 29 C 427 1 367 -12 297 -12 C 261 -12 227 -7 195 3 C 163 13 134 29 109 52 C 84 74 64 104 49 142 C 34 179 27 225 27 281 Z M 385 352 C 385 325 392 305 407 291 C 421 277 440 270 463 270 C 481 270 497 272 512 276 C 526 280 539 284 551 290 C 563 296 573 302 582 309 C 591 315 599 322 606 328 L 606 520 C 529 502 473 480 438 454 C 402 427 385 393 385 352 Z M 377 1204 L 540 1554 L 891 1554 L 633 1204 L 377 1204 Z" unicode="á" />
<glyph horiz-adv-x="1044" d="M 27 281 C 27 343 41 397 71 444 C 100 491 140 532 192 566 C 244 600 305 629 376 652 C 446 674 523 693 606 707 L 606 739 C 606 754 604 767 602 779 C 600 791 596 800 590 808 C 584 816 575 821 564 825 C 553 829 539 831 522 831 C 496 831 470 827 444 821 C 418 815 392 807 366 797 C 340 787 316 777 293 765 C 270 753 249 741 231 729 L 72 950 C 138 1004 215 1045 305 1074 C 395 1103 492 1118 596 1118 C 660 1118 716 1110 763 1096 C 809 1082 848 1059 878 1029 C 908 998 930 959 944 911 C 958 863 965 805 965 739 L 965 266 C 965 200 967 146 971 104 C 975 62 981 28 991 0 L 627 0 C 620 19 615 40 611 64 C 607 88 606 116 606 150 C 570 97 527 57 477 29 C 427 1 367 -12 297 -12 C 261 -12 227 -7 195 3 C 163 13 134 29 109 52 C 84 74 64 104 49 142 C 34 179 27 225 27 281 Z M 385 352 C 385 325 392 305 407 291 C 421 277 440 270 463 270 C 481 270 497 272 512 276 C 526 280 539 284 551 290 C 563 296 573 302 582 309 C 591 315 599 322 606 328 L 606 520 C 529 502 473 480 438 454 C 402 427 385 393 385 352 Z M 174 1208 L 399 1554 L 645 1554 L 868 1208 L 657 1208 L 520 1333 L 385 1208 L 174 1208 Z" unicode="â" />
<glyph horiz-adv-x="1044" d="M 27 281 C 27 343 41 397 71 444 C 100 491 140 532 192 566 C 244 600 305 629 376 652 C 446 674 523 693 606 707 L 606 739 C 606 754 604 767 602 779 C 600 791 596 800 590 808 C 584 816 575 821 564 825 C 553 829 539 831 522 831 C 496 831 470 827 444 821 C 418 815 392 807 366 797 C 340 787 316 777 293 765 C 270 753 249 741 231 729 L 72 950 C 138 1004 215 1045 305 1074 C 395 1103 492 1118 596 1118 C 660 1118 716 1110 763 1096 C 809 1082 848 1059 878 1029 C 908 998 930 959 944 911 C 958 863 965 805 965 739 L 965 266 C 965 200 967 146 971 104 C 975 62 981 28 991 0 L 627 0 C 620 19 615 40 611 64 C 607 88 606 116 606 150 C 570 97 527 57 477 29 C 427 1 367 -12 297 -12 C 261 -12 227 -7 195 3 C 163 13 134 29 109 52 C 84 74 64 104 49 142 C 34 179 27 225 27 281 Z M 385 352 C 385 325 392 305 407 291 C 421 277 440 270 463 270 C 481 270 497 272 512 276 C 526 280 539 284 551 290 C 563 296 573 302 582 309 C 591 315 599 322 606 328 L 606 520 C 529 502 473 480 438 454 C 402 427 385 393 385 352 Z M 137 1178 C 137 1243 142 1299 154 1345 C 166 1391 182 1429 203 1459 C 224 1488 249 1509 279 1523 C 309 1537 342 1544 379 1544 C 415 1544 445 1538 471 1526 C 496 1514 518 1501 538 1487 L 592 1448 C 609 1436 627 1430 647 1430 C 669 1430 687 1438 701 1455 C 714 1471 721 1500 721 1540 L 907 1540 C 907 1474 901 1418 889 1372 C 877 1326 861 1288 840 1259 C 819 1229 794 1208 764 1194 C 734 1180 701 1174 665 1174 C 629 1174 598 1180 573 1192 C 547 1204 525 1217 506 1231 L 452 1270 C 434 1282 416 1288 397 1288 C 374 1288 356 1279 343 1263 C 329 1246 323 1218 323 1178 L 137 1178 Z" unicode="ã" />
<glyph horiz-adv-x="1044" d="M 27 281 C 27 343 41 397 71 444 C 100 491 140 532 192 566 C 244 600 305 629 376 652 C 446 674 523 693 606 707 L 606 739 C 606 754 604 767 602 779 C 600 791 596 800 590 808 C 584 816 575 821 564 825 C 553 829 539 831 522 831 C 496 831 470 827 444 821 C 418 815 392 807 366 797 C 340 787 316 777 293 765 C 270 753 249 741 231 729 L 72 950 C 138 1004 215 1045 305 1074 C 395 1103 492 1118 596 1118 C 660 1118 716 1110 763 1096 C 809 1082 848 1059 878 1029 C 908 998 930 959 944 911 C 958 863 965 805 965 739 L 965 266 C 965 200 967 146 971 104 C 975 62 981 28 991 0 L 627 0 C 620 19 615 40 611 64 C 607 88 606 116 606 150 C 570 97 527 57 477 29 C 427 1 367 -12 297 -12 C 261 -12 227 -7 195 3 C 163 13 134 29 109 52 C 84 74 64 104 49 142 C 34 179 27 225 27 281 Z M 385 352 C 385 325 392 305 407 291 C 421 277 440 270 463 270 C 481 270 497 272 512 276 C 526 280 539 284 551 290 C 563 296 573 302 582 309 C 591 315 599 322 606 328 L 606 520 C 529 502 473 480 438 454 C 402 427 385 393 385 352 Z M 162 1196 L 162 1528 L 463 1528 L 463 1196 L 162 1196 Z M 583 1196 L 583 1528 L 882 1528 L 882 1196 L 583 1196 Z" unicode="ä" />
<glyph horiz-adv-x="1044" d="M 27 281 C 27 343 41 397 71 444 C 100 491 140 532 192 566 C 244 600 305 629 376 652 C 446 674 523 693 606 707 L 606 739 C 606 754 604 767 602 779 C 600 791 596 800 590 808 C 584 816 575 821 564 825 C 553 829 539 831 522 831 C 496 831 470 827 444 821 C 418 815 392 807 366 797 C 340 787 316 777 293 765 C 270 753 249 741 231 729 L 72 950 C 138 1004 215 1045 305 1074 C 395 1103 492 1118 596 1118 C 660 1118 716 1110 763 1096 C 809 1082 848 1059 878 1029 C 908 998 930 959 944 911 C 958 863 965 805 965 739 L 965 266 C 965 200 967 146 971 104 C 975 62 981 28 991 0 L 627 0 C 620 19 615 40 611 64 C 607 88 606 116 606 150 C 570 97 527 57 477 29 C 427 1 367 -12 297 -12 C 261 -12 227 -7 195 3 C 163 13 134 29 109 52 C 84 74 64 104 49 142 C 34 179 27 225 27 281 Z M 385 352 C 385 325 392 305 407 291 C 421 277 440 270 463 270 C 481 270 497 272 512 276 C 526 280 539 284 551 290 C 563 296 573 302 582 309 C 591 315 599 322 606 328 L 606 520 C 529 502 473 480 438 454 C 402 427 385 393 385 352 Z M 297 1411 C 297 1445 302 1476 313 1505 C 324 1534 339 1559 359 1581 C 379 1603 402 1620 430 1632 C 458 1644 488 1651 522 1651 C 555 1651 585 1644 613 1632 C 641 1620 664 1603 684 1581 C 704 1559 719 1534 730 1505 C 741 1476 747 1445 747 1411 C 747 1377 741 1345 730 1316 C 719 1287 704 1262 684 1240 C 664 1218 641 1201 613 1189 C 585 1177 555 1171 522 1171 C 488 1171 458 1177 430 1189 C 402 1201 379 1218 359 1240 C 339 1262 324 1287 313 1316 C 302 1345 297 1377 297 1411 Z M 452 1409 C 452 1396 453 1384 456 1372 C 459 1360 463 1349 469 1340 C 475 1331 482 1324 491 1319 C 499 1313 510 1311 522 1311 C 534 1311 544 1313 553 1319 C 561 1324 568 1331 574 1340 C 580 1349 584 1360 587 1372 C 590 1384 592 1396 592 1409 C 592 1421 590 1432 587 1444 C 584 1456 580 1466 574 1475 C 568 1484 561 1491 553 1497 C 544 1502 534 1505 522 1505 C 510 1505 499 1502 491 1497 C 482 1491 475 1484 469 1475 C 463 1466 459 1456 456 1444 C 453 1432 452 1421 452 1409 Z" unicode="å" />
<glyph horiz-adv-x="1595" d="M 27 281 C 27 343 41 397 71 444 C 100 491 140 532 192 566 C 244 600 305 629 376 652 C 446 674 523 693 606 707 L 606 739 C 606 754 604 767 602 779 C 600 791 596 800 590 808 C 584 816 575 821 564 825 C 553 829 539 831 522 831 C 496 831 470 827 444 821 C 418 815 392 807 366 797 C 340 787 316 777 293 765 C 270 753 249 741 231 729 L 72 950 C 138 1004 215 1045 305 1074 C 395 1103 492 1118 596 1118 C 658 1118 709 1111 749 1098 C 788 1084 819 1064 842 1036 C 881 1064 922 1084 966 1098 C 1009 1111 1052 1118 1094 1118 C 1156 1118 1215 1107 1271 1087 C 1327 1066 1377 1032 1420 985 C 1462 938 1496 876 1521 799 C 1546 722 1559 628 1559 516 L 1559 449 L 958 449 C 965 375 983 323 1011 293 C 1039 263 1076 248 1124 248 C 1147 248 1170 251 1193 258 C 1215 265 1236 274 1256 285 C 1276 296 1294 308 1310 322 C 1326 335 1340 348 1350 360 L 1559 184 C 1533 153 1504 125 1474 100 C 1444 74 1410 52 1374 34 C 1337 16 1297 2 1253 -8 C 1209 -18 1160 -23 1108 -23 C 1064 -23 1021 -19 981 -11 C 940 -3 902 9 866 27 C 830 44 797 66 767 93 C 737 119 710 152 688 190 C 662 159 636 131 610 107 C 583 82 554 61 522 43 C 490 25 456 12 419 2 C 382 -7 341 -12 297 -12 C 261 -12 227 -7 195 3 C 163 13 134 29 109 52 C 84 74 64 104 49 142 C 34 179 27 225 27 281 Z M 385 352 C 385 325 392 305 407 291 C 421 277 440 270 463 270 C 491 270 520 276 550 290 C 579 303 605 320 629 342 C 615 394 608 452 606 516 C 534 498 479 477 441 451 C 403 425 385 392 385 352 Z M 961 649 L 1225 649 C 1222 685 1217 716 1210 741 C 1203 765 1194 785 1183 800 C 1172 814 1159 825 1144 831 C 1129 837 1112 840 1094 840 C 1077 840 1061 836 1047 830 C 1033 824 1020 813 1008 799 C 996 784 987 764 979 740 C 971 716 965 685 961 649 Z" unicode="æ" />
<glyph horiz-adv-x="1010" d="M 37 547 C 37 653 52 743 82 816 C 112 889 151 948 199 993 C 247 1037 301 1069 361 1089 C 421 1108 481 1118 541 1118 C 613 1118 675 1108 726 1089 C 777 1070 820 1044 854 1010 C 888 976 916 937 937 891 C 958 845 975 795 987 741 L 662 668 C 656 699 649 725 641 747 C 633 768 624 785 614 799 C 604 812 592 821 580 827 C 567 833 553 836 537 836 C 513 836 493 830 477 819 C 461 808 447 791 437 768 C 427 744 419 714 415 678 C 410 642 408 598 408 547 C 408 497 409 454 413 417 C 417 380 423 349 433 324 C 442 299 455 280 471 268 C 487 256 509 250 535 250 C 549 250 562 252 576 258 C 590 263 603 272 615 286 C 627 299 638 317 648 341 C 658 365 666 395 672 432 L 989 356 C 977 305 960 257 938 211 C 916 165 886 125 850 91 C 813 56 768 28 716 8 C 664 -12 602 -23 530 -23 C 488 -23 447 -18 407 -10 C 367 -1 328 12 292 31 C 256 49 222 73 191 103 C 159 133 132 169 110 211 C 87 253 69 302 56 358 C 43 413 37 476 37 547 Z M 222 -369 L 288 -242 C 300 -249 315 -256 332 -263 C 349 -269 367 -275 386 -280 C 405 -284 424 -288 444 -291 C 464 -293 483 -295 501 -295 C 523 -295 543 -290 561 -282 C 578 -274 587 -260 587 -242 C 587 -225 583 -213 575 -207 C 567 -200 553 -197 534 -197 C 521 -197 508 -199 494 -203 C 480 -207 468 -215 456 -227 L 362 -184 L 425 12 L 573 12 L 542 -96 C 554 -88 570 -81 591 -76 C 611 -70 635 -68 663 -68 C 681 -68 699 -71 716 -77 C 733 -83 748 -92 761 -104 C 774 -116 784 -132 792 -151 C 800 -169 804 -191 804 -217 C 804 -246 797 -274 784 -300 C 770 -326 751 -350 727 -370 C 702 -390 672 -406 637 -418 C 602 -430 563 -436 521 -436 C 458 -436 401 -429 351 -417 C 301 -404 258 -388 222 -369 Z" unicode="ç" />
<glyph horiz-adv-x="1036" d="M 37 547 C 37 618 44 682 58 738 C 72 794 91 844 115 886 C 139 928 168 964 200 994 C 232 1023 267 1047 304 1065 C 341 1083 379 1097 419 1105 C 458 1113 497 1118 535 1118 C 597 1118 656 1107 712 1087 C 768 1066 818 1032 860 985 C 902 938 936 876 961 799 C 986 722 999 628 999 516 L 999 449 L 399 449 C 406 375 424 323 452 293 C 480 263 517 248 565 248 C 587 248 610 251 633 258 C 655 265 677 274 697 285 C 717 296 735 308 751 322 C 767 335 781 348 791 360 L 999 184 C 973 153 945 125 915 100 C 885 74 851 52 815 34 C 778 16 738 2 694 -8 C 650 -18 601 -23 549 -23 C 479 -23 414 -12 352 7 C 290 27 235 60 189 105 C 142 150 105 209 78 281 C 50 353 37 442 37 547 Z M 401 649 L 666 649 C 663 685 658 716 651 741 C 644 765 635 785 624 800 C 613 814 600 825 585 831 C 570 837 553 840 535 840 C 518 840 502 836 488 830 C 474 824 461 813 449 799 C 437 784 427 764 419 740 C 411 716 405 685 401 649 Z M 149 1554 L 500 1554 L 663 1204 L 407 1204 L 149 1554 Z" unicode="è" />
<glyph horiz-adv-x="1036" d="M 37 547 C 37 618 44 682 58 738 C 72 794 91 844 115 886 C 139 928 168 964 200 994 C 232 1023 267 1047 304 1065 C 341 1083 379 1097 419 1105 C 458 1113 497 1118 535 1118 C 597 1118 656 1107 712 1087 C 768 1066 818 1032 860 985 C 902 938 936 876 961 799 C 986 722 999 628 999 516 L 999 449 L 399 449 C 406 375 424 323 452 293 C 480 263 517 248 565 248 C 587 248 610 251 633 258 C 655 265 677 274 697 285 C 717 296 735 308 751 322 C 767 335 781 348 791 360 L 999 184 C 973 153 945 125 915 100 C 885 74 851 52 815 34 C 778 16 738 2 694 -8 C 650 -18 601 -23 549 -23 C 479 -23 414 -12 352 7 C 290 27 235 60 189 105 C 142 150 105 209 78 281 C 50 353 37 442 37 547 Z M 401 649 L 666 649 C 663 685 658 716 651 741 C 644 765 635 785 624 800 C 613 814 600 825 585 831 C 570 837 553 840 535 840 C 518 840 502 836 488 830 C 474 824 461 813 449 799 C 437 784 427 764 419 740 C 411 716 405 685 401 649 Z M 373 1204 L 536 1554 L 887 1554 L 629 1204 L 373 1204 Z" unicode="é" />
<glyph horiz-adv-x="1036" d="M 37 547 C 37 618 44 682 58 738 C 72 794 91 844 115 886 C 139 928 168 964 200 994 C 232 1023 267 1047 304 1065 C 341 1083 379 1097 419 1105 C 458 1113 497 1118 535 1118 C 597 1118 656 1107 712 1087 C 768 1066 818 1032 860 985 C 902 938 936 876 961 799 C 986 722 999 628 999 516 L 999 449 L 399 449 C 406 375 424 323 452 293 C 480 263 517 248 565 248 C 587 248 610 251 633 258 C 655 265 677 274 697 285 C 717 296 735 308 751 322 C 767 335 781 348 791 360 L 999 184 C 973 153 945 125 915 100 C 885 74 851 52 815 34 C 778 16 738 2 694 -8 C 650 -18 601 -23 549 -23 C 479 -23 414 -12 352 7 C 290 27 235 60 189 105 C 142 150 105 209 78 281 C 50 353 37 442 37 547 Z M 401 649 L 666 649 C 663 685 658 716 651 741 C 644 765 635 785 624 800 C 613 814 600 825 585 831 C 570 837 553 840 535 840 C 518 840 502 836 488 830 C 474 824 461 813 449 799 C 437 784 427 764 419 740 C 411 716 405 685 401 649 Z M 170 1208 L 395 1554 L 641 1554 L 864 1208 L 653 1208 L 516 1333 L 381 1208 L 170 1208 Z" unicode="ê" />
<glyph horiz-adv-x="1036" d="M 37 547 C 37 618 44 682 58 738 C 72 794 91 844 115 886 C 139 928 168 964 200 994 C 232 1023 267 1047 304 1065 C 341 1083 379 1097 419 1105 C 458 1113 497 1118 535 1118 C 597 1118 656 1107 712 1087 C 768 1066 818 1032 860 985 C 902 938 936 876 961 799 C 986 722 999 628 999 516 L 999 449 L 399 449 C 406 375 424 323 452 293 C 480 263 517 248 565 248 C 587 248 610 251 633 258 C 655 265 677 274 697 285 C 717 296 735 308 751 322 C 767 335 781 348 791 360 L 999 184 C 973 153 945 125 915 100 C 885 74 851 52 815 34 C 778 16 738 2 694 -8 C 650 -18 601 -23 549 -23 C 479 -23 414 -12 352 7 C 290 27 235 60 189 105 C 142 150 105 209 78 281 C 50 353 37 442 37 547 Z M 401 649 L 666 649 C 663 685 658 716 651 741 C 644 765 635 785 624 800 C 613 814 600 825 585 831 C 570 837 553 840 535 840 C 518 840 502 836 488 830 C 474 824 461 813 449 799 C 437 784 427 764 419 740 C 411 716 405 685 401 649 Z M 158 1196 L 158 1528 L 459 1528 L 459 1196 L 158 1196 Z M 579 1196 L 579 1528 L 878 1528 L 878 1196 L 579 1196 Z" unicode="ë" />
<glyph horiz-adv-x="567" d="M 98 0 L 98 1096 L 469 1096 L 469 0 L 98 0 Z M -85 1554 L 266 1554 L 429 1204 L 173 1204 L -85 1554 Z" unicode="ì" />
<glyph horiz-adv-x="567" d="M 98 0 L 98 1096 L 469 1096 L 469 0 L 98 0 Z M 139 1204 L 302 1554 L 653 1554 L 395 1204 L 139 1204 Z" unicode="í" />
<glyph horiz-adv-x="567" d="M 98 0 L 98 1096 L 469 1096 L 469 0 L 98 0 Z M -64 1208 L 161 1554 L 407 1554 L 630 1208 L 419 1208 L 282 1333 L 147 1208 L -64 1208 Z" unicode="î" />
<glyph horiz-adv-x="567" d="M 98 0 L 98 1096 L 469 1096 L 469 0 L 98 0 Z M -76 1196 L -76 1528 L 225 1528 L 225 1196 L -76 1196 Z M 345 1196 L 345 1528 L 644 1528 L 644 1196 L 345 1196 Z" unicode="ï" />
<glyph horiz-adv-x="1087" d="M 39 496 C 39 580 50 654 72 717 C 94 780 124 832 162 874 C 200 915 246 946 298 966 C 350 986 406 997 467 997 C 487 997 509 994 533 989 C 556 984 579 977 602 967 C 624 957 646 945 666 931 C 686 917 703 900 719 881 C 713 924 701 966 685 1008 C 668 1049 647 1089 623 1128 L 502 1059 L 403 1231 L 502 1286 C 485 1304 468 1322 451 1338 L 397 1384 L 588 1579 C 620 1556 650 1533 678 1509 C 706 1485 733 1460 758 1434 L 877 1503 L 975 1333 L 881 1278 C 939 1184 981 1079 1008 964 C 1035 849 1049 722 1049 582 C 1049 482 1037 395 1014 319 C 991 243 958 180 915 130 C 871 79 819 41 757 15 C 695 -10 625 -23 547 -23 C 469 -23 399 -11 337 12 C 274 35 221 69 177 114 C 133 158 99 213 75 277 C 51 341 39 414 39 496 Z M 406 500 C 406 452 409 412 415 381 C 421 349 431 324 443 305 C 455 286 469 273 487 265 C 504 257 523 254 545 254 C 566 254 585 258 603 266 C 620 274 635 288 647 308 C 659 328 668 353 674 385 C 680 417 684 456 684 502 C 684 548 680 588 674 620 C 667 652 658 678 646 698 C 634 718 619 732 602 741 C 584 749 565 754 545 754 C 523 754 504 749 487 741 C 469 733 455 719 443 699 C 431 679 421 653 415 621 C 409 589 406 548 406 500 Z" unicode="ð" />
<glyph horiz-adv-x="1120" d="M 88 0 L 88 1096 L 459 1096 L 459 948 C 470 966 485 985 505 1005 C 524 1025 547 1043 574 1060 C 600 1076 630 1090 664 1101 C 698 1112 735 1118 776 1118 C 812 1118 847 1113 879 1104 C 911 1095 939 1080 963 1058 C 987 1036 1005 1007 1019 971 C 1033 935 1040 890 1040 836 L 1040 0 L 670 0 L 670 713 C 670 743 664 767 653 783 C 642 799 624 807 600 807 C 586 807 573 804 560 800 C 547 795 535 789 523 782 C 511 775 499 768 488 760 C 477 752 467 744 459 737 L 459 0 L 88 0 Z M 174 1178 C 174 1243 179 1299 191 1345 C 203 1391 219 1429 240 1459 C 261 1488 286 1509 316 1523 C 346 1537 379 1544 416 1544 C 452 1544 482 1538 508 1526 C 533 1514 555 1501 575 1487 L 629 1448 C 646 1436 664 1430 684 1430 C 706 1430 724 1438 738 1455 C 751 1471 758 1500 758 1540 L 944 1540 C 944 1474 938 1418 926 1372 C 914 1326 898 1288 877 1259 C 856 1229 831 1208 801 1194 C 771 1180 738 1174 702 1174 C 666 1174 635 1180 610 1192 C 584 1204 562 1217 543 1231 L 489 1270 C 471 1282 453 1288 434 1288 C 411 1288 393 1279 380 1263 C 366 1246 360 1218 360 1178 L 174 1178 Z" unicode="ñ" />
<glyph horiz-adv-x="1092" d="M 37 547 C 37 653 51 743 80 816 C 109 889 147 948 195 993 C 243 1037 297 1069 358 1089 C 419 1108 481 1118 545 1118 C 587 1118 628 1113 670 1105 C 711 1097 750 1083 788 1065 C 826 1046 861 1022 893 993 C 925 963 953 927 977 885 C 1001 843 1019 794 1033 738 C 1046 682 1053 618 1053 547 C 1053 441 1038 352 1009 280 C 979 207 941 148 893 103 C 845 58 791 26 730 6 C 669 -13 607 -23 545 -23 C 503 -23 461 -18 420 -10 C 378 -1 339 12 301 31 C 263 49 228 73 196 103 C 164 133 136 169 112 211 C 88 253 70 302 57 358 C 43 413 37 476 37 547 Z M 408 547 C 408 499 410 456 414 420 C 418 384 426 353 436 329 C 446 305 460 286 478 274 C 496 262 518 256 545 256 C 570 256 591 261 609 272 C 627 282 641 299 652 323 C 662 346 670 376 675 413 C 679 450 682 495 682 547 C 682 594 679 635 675 671 C 671 706 663 735 653 759 C 642 782 628 799 611 811 C 593 823 571 829 545 829 C 519 829 498 824 481 814 C 463 804 449 787 438 765 C 427 742 419 713 415 677 C 410 641 408 598 408 547 Z M 176 1554 L 527 1554 L 690 1204 L 434 1204 L 176 1554 Z" unicode="ò" />
<glyph horiz-adv-x="1092" d="M 37 547 C 37 653 51 743 80 816 C 109 889 147 948 195 993 C 243 1037 297 1069 358 1089 C 419 1108 481 1118 545 1118 C 587 1118 628 1113 670 1105 C 711 1097 750 1083 788 1065 C 826 1046 861 1022 893 993 C 925 963 953 927 977 885 C 1001 843 1019 794 1033 738 C 1046 682 1053 618 1053 547 C 1053 441 1038 352 1009 280 C 979 207 941 148 893 103 C 845 58 791 26 730 6 C 669 -13 607 -23 545 -23 C 503 -23 461 -18 420 -10 C 378 -1 339 12 301 31 C 263 49 228 73 196 103 C 164 133 136 169 112 211 C 88 253 70 302 57 358 C 43 413 37 476 37 547 Z M 408 547 C 408 499 410 456 414 420 C 418 384 426 353 436 329 C 446 305 460 286 478 274 C 496 262 518 256 545 256 C 570 256 591 261 609 272 C 627 282 641 299 652 323 C 662 346 670 376 675 413 C 679 450 682 495 682 547 C 682 594 679 635 675 671 C 671 706 663 735 653 759 C 642 782 628 799 611 811 C 593 823 571 829 545 829 C 519 829 498 824 481 814 C 463 804 449 787 438 765 C 427 742 419 713 415 677 C 410 641 408 598 408 547 Z M 400 1204 L 563 1554 L 914 1554 L 656 1204 L 400 1204 Z" unicode="ó" />
<glyph horiz-adv-x="1092" d="M 37 547 C 37 653 51 743 80 816 C 109 889 147 948 195 993 C 243 1037 297 1069 358 1089 C 419 1108 481 1118 545 1118 C 587 1118 628 1113 670 1105 C 711 1097 750 1083 788 1065 C 826 1046 861 1022 893 993 C 925 963 953 927 977 885 C 1001 843 1019 794 1033 738 C 1046 682 1053 618 1053 547 C 1053 441 1038 352 1009 280 C 979 207 941 148 893 103 C 845 58 791 26 730 6 C 669 -13 607 -23 545 -23 C 503 -23 461 -18 420 -10 C 378 -1 339 12 301 31 C 263 49 228 73 196 103 C 164 133 136 169 112 211 C 88 253 70 302 57 358 C 43 413 37 476 37 547 Z M 408 547 C 408 499 410 456 414 420 C 418 384 426 353 436 329 C 446 305 460 286 478 274 C 496 262 518 256 545 256 C 570 256 591 261 609 272 C 627 282 641 299 652 323 C 662 346 670 376 675 413 C 679 450 682 495 682 547 C 682 594 679 635 675 671 C 671 706 663 735 653 759 C 642 782 628 799 611 811 C 593 823 571 829 545 829 C 519 829 498 824 481 814 C 463 804 449 787 438 765 C 427 742 419 713 415 677 C 410 641 408 598 408 547 Z M 197 1208 L 422 1554 L 668 1554 L 891 1208 L 680 1208 L 543 1333 L 408 1208 L 197 1208 Z" unicode="ô" />
<glyph horiz-adv-x="1092" d="M 37 547 C 37 653 51 743 80 816 C 109 889 147 948 195 993 C 243 1037 297 1069 358 1089 C 419 1108 481 1118 545 1118 C 587 1118 628 1113 670 1105 C 711 1097 750 1083 788 1065 C 826 1046 861 1022 893 993 C 925 963 953 927 977 885 C 1001 843 1019 794 1033 738 C 1046 682 1053 618 1053 547 C 1053 441 1038 352 1009 280 C 979 207 941 148 893 103 C 845 58 791 26 730 6 C 669 -13 607 -23 545 -23 C 503 -23 461 -18 420 -10 C 378 -1 339 12 301 31 C 263 49 228 73 196 103 C 164 133 136 169 112 211 C 88 253 70 302 57 358 C 43 413 37 476 37 547 Z M 408 547 C 408 499 410 456 414 420 C 418 384 426 353 436 329 C 446 305 460 286 478 274 C 496 262 518 256 545 256 C 570 256 591 261 609 272 C 627 282 641 299 652 323 C 662 346 670 376 675 413 C 679 450 682 495 682 547 C 682 594 679 635 675 671 C 671 706 663 735 653 759 C 642 782 628 799 611 811 C 593 823 571 829 545 829 C 519 829 498 824 481 814 C 463 804 449 787 438 765 C 427 742 419 713 415 677 C 410 641 408 598 408 547 Z M 160 1178 C 160 1243 165 1299 177 1345 C 189 1391 205 1429 226 1459 C 247 1488 272 1509 302 1523 C 332 1537 365 1544 402 1544 C 438 1544 468 1538 494 1526 C 519 1514 541 1501 561 1487 L 615 1448 C 632 1436 650 1430 670 1430 C 692 1430 710 1438 724 1455 C 737 1471 744 1500 744 1540 L 930 1540 C 930 1474 924 1418 912 1372 C 900 1326 884 1288 863 1259 C 842 1229 817 1208 787 1194 C 757 1180 724 1174 688 1174 C 652 1174 621 1180 596 1192 C 570 1204 548 1217 529 1231 L 475 1270 C 457 1282 439 1288 420 1288 C 397 1288 379 1279 366 1263 C 352 1246 346 1218 346 1178 L 160 1178 Z" unicode="õ" />
<glyph horiz-adv-x="1092" d="M 37 547 C 37 653 51 743 80 816 C 109 889 147 948 195 993 C 243 1037 297 1069 358 1089 C 419 1108 481 1118 545 1118 C 587 1118 628 1113 670 1105 C 711 1097 750 1083 788 1065 C 826 1046 861 1022 893 993 C 925 963 953 927 977 885 C 1001 843 1019 794 1033 738 C 1046 682 1053 618 1053 547 C 1053 441 1038 352 1009 280 C 979 207 941 148 893 103 C 845 58 791 26 730 6 C 669 -13 607 -23 545 -23 C 503 -23 461 -18 420 -10 C 378 -1 339 12 301 31 C 263 49 228 73 196 103 C 164 133 136 169 112 211 C 88 253 70 302 57 358 C 43 413 37 476 37 547 Z M 408 547 C 408 499 410 456 414 420 C 418 384 426 353 436 329 C 446 305 460 286 478 274 C 496 262 518 256 545 256 C 570 256 591 261 609 272 C 627 282 641 299 652 323 C 662 346 670 376 675 413 C 679 450 682 495 682 547 C 682 594 679 635 675 671 C 671 706 663 735 653 759 C 642 782 628 799 611 811 C 593 823 571 829 545 829 C 519 829 498 824 481 814 C 463 804 449 787 438 765 C 427 742 419 713 415 677 C 410 641 408 598 408 547 Z M 185 1196 L 185 1528 L 486 1528 L 486 1196 L 185 1196 Z M 606 1196 L 606 1528 L 905 1528 L 905 1196 L 606 1196 Z" unicode="ö" />
<glyph horiz-adv-x="1188" d="M 115 559 L 115 862 L 1073 862 L 1073 559 L 115 559 Z M 444 172 L 444 453 L 743 453 L 743 172 L 444 172 Z M 444 967 L 444 1245 L 743 1245 L 743 967 L 444 967 Z" unicode="÷" />
<glyph horiz-adv-x="1092" d="M 37 547 C 37 653 51 743 80 816 C 109 889 147 948 195 993 C 243 1037 297 1069 358 1089 C 419 1108 481 1118 545 1118 C 586 1118 627 1113 668 1105 C 708 1097 747 1084 784 1067 L 881 1194 L 1038 1092 L 938 944 C 973 898 1001 843 1022 778 C 1042 713 1053 636 1053 547 C 1053 441 1038 352 1009 280 C 979 207 941 148 893 103 C 845 58 791 26 730 6 C 669 -13 607 -23 545 -23 C 501 -23 459 -18 417 -9 C 375 0 334 14 295 35 L 207 -90 L 51 14 L 147 158 C 113 203 86 257 66 321 C 46 385 37 460 37 547 Z M 393 517 C 393 507 393 498 395 489 L 621 813 C 610 820 598 826 586 830 C 574 834 560 836 545 836 C 494 836 456 813 431 768 C 405 723 393 649 393 547 L 393 517 Z M 457 285 C 479 261 508 250 545 250 C 595 250 633 273 658 320 C 683 366 696 442 696 547 L 696 583 C 696 595 695 606 694 618 L 457 285 Z" unicode="ø" />
<glyph horiz-adv-x="1120" d="M 80 260 L 80 1096 L 451 1096 L 451 375 C 451 343 456 320 466 304 C 476 288 494 281 520 281 C 546 281 572 288 597 303 C 621 317 643 333 662 350 L 662 1096 L 1032 1096 L 1032 0 L 662 0 L 662 147 C 650 129 634 110 614 90 C 594 70 571 52 545 35 C 518 18 488 4 454 -6 C 420 -17 384 -23 344 -23 C 306 -23 272 -18 240 -9 C 208 0 180 15 156 37 C 132 59 114 88 100 124 C 86 160 80 206 80 260 Z M 190 1554 L 541 1554 L 704 1204 L 448 1204 L 190 1554 Z" unicode="ù" />
<glyph horiz-adv-x="1120" d="M 80 260 L 80 1096 L 451 1096 L 451 375 C 451 343 456 320 466 304 C 476 288 494 281 520 281 C 546 281 572 288 597 303 C 621 317 643 333 662 350 L 662 1096 L 1032 1096 L 1032 0 L 662 0 L 662 147 C 650 129 634 110 614 90 C 594 70 571 52 545 35 C 518 18 488 4 454 -6 C 420 -17 384 -23 344 -23 C 306 -23 272 -18 240 -9 C 208 0 180 15 156 37 C 132 59 114 88 100 124 C 86 160 80 206 80 260 Z M 414 1204 L 577 1554 L 928 1554 L 670 1204 L 414 1204 Z" unicode="ú" />
<glyph horiz-adv-x="1120" d="M 80 260 L 80 1096 L 451 1096 L 451 375 C 451 343 456 320 466 304 C 476 288 494 281 520 281 C 546 281 572 288 597 303 C 621 317 643 333 662 350 L 662 1096 L 1032 1096 L 1032 0 L 662 0 L 662 147 C 650 129 634 110 614 90 C 594 70 571 52 545 35 C 518 18 488 4 454 -6 C 420 -17 384 -23 344 -23 C 306 -23 272 -18 240 -9 C 208 0 180 15 156 37 C 132 59 114 88 100 124 C 86 160 80 206 80 260 Z M 211 1208 L 436 1554 L 682 1554 L 905 1208 L 694 1208 L 557 1333 L 422 1208 L 211 1208 Z" unicode="û" />
<glyph horiz-adv-x="1120" d="M 80 260 L 80 1096 L 451 1096 L 451 375 C 451 343 456 320 466 304 C 476 288 494 281 520 281 C 546 281 572 288 597 303 C 621 317 643 333 662 350 L 662 1096 L 1032 1096 L 1032 0 L 662 0 L 662 147 C 650 129 634 110 614 90 C 594 70 571 52 545 35 C 518 18 488 4 454 -6 C 420 -17 384 -23 344 -23 C 306 -23 272 -18 240 -9 C 208 0 180 15 156 37 C 132 59 114 88 100 124 C 86 160 80 206 80 260 Z M 199 1196 L 199 1528 L 500 1528 L 500 1196 L 199 1196 Z M 620 1196 L 620 1528 L 919 1528 L 919 1196 L 620 1196 Z" unicode="ü" />
<glyph horiz-adv-x="1012" d="M -31 -381 L 39 -90 C 53 -93 76 -98 107 -104 C 137 -110 173 -113 213 -113 C 243 -113 265 -108 281 -98 C 297 -88 309 -70 317 -45 L 328 -14 L -20 1096 L 367 1096 L 446 743 L 466 658 C 472 630 477 603 483 576 C 489 548 494 520 500 491 C 505 462 510 431 516 399 L 520 399 L 538 492 C 543 521 549 550 555 578 L 574 662 L 594 748 L 678 1096 L 1036 1096 L 653 -100 C 637 -150 618 -195 597 -235 C 575 -274 550 -307 520 -334 C 490 -360 454 -381 413 -395 C 372 -409 324 -416 270 -416 C 192 -416 130 -412 82 -404 C 34 -396 -3 -389 -31 -381 Z M 362 1204 L 525 1554 L 876 1554 L 618 1204 L 362 1204 Z" unicode="ý" />
<glyph horiz-adv-x="1120" d="M 88 -410 L 88 1516 L 459 1516 L 459 950 C 472 970 487 991 505 1011 C 523 1031 543 1049 565 1065 C 587 1081 613 1093 641 1103 C 669 1113 701 1118 735 1118 C 787 1118 835 1106 878 1084 C 920 1061 957 1026 987 979 C 1017 932 1040 873 1056 802 C 1072 730 1081 646 1081 549 C 1081 451 1072 367 1056 296 C 1040 225 1016 166 986 120 C 955 74 918 39 875 17 C 832 -4 784 -16 731 -16 C 669 -16 615 -4 571 19 C 527 42 489 75 459 119 L 459 -410 L 88 -410 Z M 459 334 L 488 308 C 497 300 507 293 517 287 C 527 281 537 276 549 273 C 560 269 572 268 586 268 C 632 268 664 290 682 335 C 700 379 709 450 709 547 C 709 591 707 630 703 663 C 699 695 693 722 684 744 C 674 765 661 781 645 791 C 629 801 608 807 584 807 C 570 807 557 804 545 799 C 533 794 521 788 511 781 C 500 773 490 765 481 757 C 472 749 465 741 459 735 L 459 334 Z" unicode="þ" />
<glyph horiz-adv-x="1012" d="M -31 -381 L 39 -90 C 53 -93 76 -98 107 -104 C 137 -110 173 -113 213 -113 C 243 -113 265 -108 281 -98 C 297 -88 309 -70 317 -45 L 328 -14 L -20 1096 L 367 1096 L 446 743 L 466 658 C 472 630 477 603 483 576 C 489 548 494 520 500 491 C 505 462 510 431 516 399 L 520 399 L 538 492 C 543 521 549 550 555 578 L 574 662 L 594 748 L 678 1096 L 1036 1096 L 653 -100 C 637 -150 618 -195 597 -235 C 575 -274 550 -307 520 -334 C 490 -360 454 -381 413 -395 C 372 -409 324 -416 270 -416 C 192 -416 130 -412 82 -404 C 34 -396 -3 -389 -31 -381 Z M 147 1196 L 147 1528 L 448 1528 L 448 1196 L 147 1196 Z M 568 1196 L 568 1528 L 867 1528 L 867 1196 L 568 1196 Z" unicode="ÿ" />
<glyph horiz-adv-x="1272" d="" unicode="Ā" />
<glyph horiz-adv-x="1044" d="" unicode="ā" />
<glyph horiz-adv-x="1272" d="" unicode="Ă" />
<glyph horiz-adv-x="1044" d="" unicode="ă" />
<glyph horiz-adv-x="1272" d="" unicode="Ą" />
<glyph horiz-adv-x="1044" d="" unicode="ą" />
<glyph horiz-adv-x="1260" d="" unicode="Ć" />
<glyph horiz-adv-x="1010" d="" unicode="ć" />
<glyph horiz-adv-x="1260" d="" unicode="Ĉ" />
<glyph horiz-adv-x="1010" d="" unicode="ĉ" />
<glyph horiz-adv-x="1260" d="" unicode="Ċ" />
<glyph horiz-adv-x="1010" d="" unicode="ċ" />
<glyph horiz-adv-x="1260" d="" unicode="Č" />
<glyph horiz-adv-x="1010" d="" unicode="č" />
<glyph horiz-adv-x="1311" d="" unicode="Ď" />
<glyph horiz-adv-x="1120" d="" unicode="ď" />
<glyph horiz-adv-x="1311" d="" unicode="Đ" />
<glyph horiz-adv-x="1120" d="" unicode="đ" />
<glyph horiz-adv-x="1096" d="" unicode="Ē" />
<glyph horiz-adv-x="1036" d="" unicode="ē" />
<glyph horiz-adv-x="1096" d="" unicode="Ĕ" />
<glyph horiz-adv-x="1036" d="" unicode="ĕ" />
<glyph horiz-adv-x="1096" d="" unicode="Ė" />
<glyph horiz-adv-x="1036" d="" unicode="ė" />
<glyph horiz-adv-x="1096" d="" unicode="Ę" />
<glyph horiz-adv-x="1036" d="" unicode="ę" />
<glyph horiz-adv-x="1096" d="" unicode="Ě" />
<glyph horiz-adv-x="1036" d="" unicode="ě" />
<glyph horiz-adv-x="1327" d="" unicode="Ĝ" />
<glyph horiz-adv-x="1110" d="" unicode="ĝ" />
<glyph horiz-adv-x="1327" d="" unicode="Ğ" />
<glyph horiz-adv-x="1110" d="" unicode="ğ" />
<glyph horiz-adv-x="1327" d="" unicode="Ġ" />
<glyph horiz-adv-x="1110" d="" unicode="ġ" />
<glyph horiz-adv-x="1327" d="" unicode="Ģ" />
<glyph horiz-adv-x="1110" d="" unicode="ģ" />
<glyph horiz-adv-x="1354" d="" unicode="Ĥ" />
<glyph horiz-adv-x="1120" d="" unicode="ĥ" />
<glyph horiz-adv-x="1354" d="" unicode="Ħ" />
<glyph horiz-adv-x="1120" d="" unicode="ħ" />
<glyph horiz-adv-x="623" d="" unicode="Ĩ" />
<glyph horiz-adv-x="567" d="" unicode="ĩ" />
<glyph horiz-adv-x="623" d="" unicode="Ī" />
<glyph horiz-adv-x="567" d="" unicode="ī" />
<glyph horiz-adv-x="623" d="" unicode="Ĭ" />
<glyph horiz-adv-x="567" d="" unicode="ĭ" />
<glyph horiz-adv-x="623" d="" unicode="Į" />
<glyph horiz-adv-x="567" d="" unicode="į" />
<glyph horiz-adv-x="623" d="" unicode="İ" />
<glyph horiz-adv-x="567" d="M 98 0 L 98 1096 L 469 1096 L 469 0 L 98 0 Z" unicode="ı" />
<glyph horiz-adv-x="1524" d="" unicode="Ĳ" />
<glyph horiz-adv-x="1135" d="" unicode="ĳ" />
<glyph horiz-adv-x="963" d="" unicode="Ĵ" />
<glyph horiz-adv-x="567" d="" unicode="ĵ" />
<glyph horiz-adv-x="1280" d="" unicode="Ķ" />
<glyph horiz-adv-x="1063" d="" unicode="ķ" />
<glyph horiz-adv-x="1063" d="" unicode="ĸ" />
<glyph horiz-adv-x="1077" d="" unicode="Ĺ" />
<glyph horiz-adv-x="567" d="" unicode="ĺ" />
<glyph horiz-adv-x="1077" d="" unicode="Ļ" />
<glyph horiz-adv-x="567" d="" unicode="ļ" />
<glyph horiz-adv-x="1077" d="" unicode="Ľ" />
<glyph horiz-adv-x="567" d="" unicode="ľ" />
<glyph horiz-adv-x="1159" d="" unicode="Ŀ" />
<glyph horiz-adv-x="928" d="" unicode="ŀ" />
<glyph horiz-adv-x="1077" d="" unicode="Ł" />
<glyph horiz-adv-x="653" d="" unicode="ł" />
<glyph horiz-adv-x="1360" d="" unicode="Ń" />
<glyph horiz-adv-x="1120" d="" unicode="ń" />
<glyph horiz-adv-x="1360" d="" unicode="Ņ" />
<glyph horiz-adv-x="1120" d="" unicode="ņ" />
<glyph horiz-adv-x="1360" d="" unicode="Ň" />
<glyph horiz-adv-x="1120" d="" unicode="ň" />
<glyph horiz-adv-x="1360" d="" unicode="Ŋ" />
<glyph horiz-adv-x="1120" d="" unicode="ŋ" />
<glyph horiz-adv-x="1360" d="" unicode="Ō" />
<glyph horiz-adv-x="1092" d="" unicode="ō" />
<glyph horiz-adv-x="1360" d="" unicode="Ŏ" />
<glyph horiz-adv-x="1092" d="" unicode="ŏ" />
<glyph horiz-adv-x="1360" d="" unicode="Ő" />
<glyph horiz-adv-x="1092" d="" unicode="ő" />
<glyph horiz-adv-x="1911" d="M 51 758 C 51 898 68 1017 102 1117 C 136 1216 182 1297 240 1361 C 298 1424 365 1470 441 1500 C 517 1529 596 1544 680 1544 C 706 1544 733 1542 759 1538 C 785 1534 811 1528 835 1520 C 859 1511 883 1499 905 1485 C 927 1471 948 1453 967 1432 L 967 1516 L 1841 1516 L 1841 1196 L 1307 1196 L 1307 932 L 1688 932 L 1688 633 L 1307 633 L 1307 309 L 1866 309 L 1866 0 L 967 0 L 967 82 C 949 60 930 43 908 29 C 886 15 862 3 837 -5 C 812 -13 786 -19 760 -23 C 733 -27 706 -29 680 -29 C 596 -29 517 -14 441 15 C 365 45 298 91 240 155 C 182 218 136 299 102 399 C 68 498 51 618 51 758 Z M 434 758 C 434 606 454 490 494 408 C 534 326 596 285 680 285 C 762 285 824 326 864 408 C 904 490 924 606 924 758 C 924 910 904 1026 864 1104 C 824 1182 763 1221 680 1221 C 596 1221 534 1182 494 1104 C 454 1026 434 910 434 758 Z" unicode="Œ" />
<glyph horiz-adv-x="1671" d="M 37 547 C 37 653 51 743 80 816 C 109 889 147 948 195 993 C 243 1037 297 1069 358 1089 C 419 1108 481 1118 545 1118 C 605 1118 662 1108 716 1088 C 770 1068 818 1037 862 995 C 905 1037 953 1068 1007 1088 C 1061 1108 1115 1118 1169 1118 C 1231 1118 1291 1107 1347 1087 C 1403 1066 1452 1032 1495 985 C 1537 938 1571 876 1596 799 C 1621 722 1634 628 1634 516 L 1634 449 L 1034 449 C 1041 375 1059 323 1087 293 C 1115 263 1152 248 1200 248 C 1222 248 1245 251 1268 258 C 1290 265 1311 274 1331 285 C 1351 296 1369 308 1385 322 C 1401 335 1415 348 1425 360 L 1634 184 C 1608 153 1580 125 1550 100 C 1520 74 1486 52 1450 34 C 1413 16 1373 2 1329 -8 C 1285 -18 1236 -23 1184 -23 C 1119 -23 1059 -13 1004 5 C 948 24 899 54 856 96 C 814 54 766 24 714 5 C 661 -13 605 -23 545 -23 C 503 -23 461 -18 420 -10 C 378 -1 339 12 301 31 C 263 49 228 73 196 103 C 164 133 136 169 112 211 C 88 253 70 302 57 358 C 43 413 37 476 37 547 Z M 408 547 C 408 499 410 456 414 420 C 418 384 426 353 436 329 C 446 305 460 286 478 274 C 496 262 518 256 545 256 C 570 256 591 261 609 272 C 627 282 641 299 652 323 C 662 346 670 376 675 413 C 679 450 682 495 682 547 C 682 594 679 635 675 671 C 671 706 663 735 653 759 C 642 782 628 799 611 811 C 593 823 571 829 545 829 C 519 829 498 824 481 814 C 463 804 449 787 438 765 C 427 742 419 713 415 677 C 410 641 408 598 408 547 Z M 1036 649 L 1300 649 C 1297 685 1292 716 1286 741 C 1279 765 1270 785 1259 800 C 1248 814 1235 825 1220 831 C 1204 837 1187 840 1169 840 C 1153 840 1137 836 1123 830 C 1109 824 1096 813 1084 799 C 1072 784 1062 764 1054 740 C 1046 716 1040 685 1036 649 Z" unicode="œ" />
<glyph horiz-adv-x="1239" d="" unicode="Ŕ" />
<glyph horiz-adv-x="780" d="" unicode="ŕ" />
<glyph horiz-adv-x="1239" d="" unicode="Ŗ" />
<glyph horiz-adv-x="780" d="" unicode="ŗ" />
<glyph horiz-adv-x="1239" d="" unicode="Ř" />
<glyph horiz-adv-x="780" d="" unicode="ř" />
<glyph horiz-adv-x="1245" d="" unicode="Ś" />
<glyph horiz-adv-x="981" d="" unicode="ś" />
<glyph horiz-adv-x="1245" d="" unicode="Ŝ" />
<glyph horiz-adv-x="981" d="" unicode="ŝ" />
<glyph horiz-adv-x="1245" d="" unicode="Ş" />
<glyph horiz-adv-x="981" d="" unicode="ş" />
<glyph horiz-adv-x="1245" d="M 49 336 L 354 492 C 370 464 388 436 408 410 C 428 383 451 359 476 339 C 501 319 528 302 557 290 C 586 278 617 272 651 272 C 705 272 745 283 771 307 C 797 331 811 363 811 403 C 811 428 804 450 791 469 C 777 488 759 505 737 521 C 715 537 689 551 659 564 C 629 577 597 590 563 604 L 458 646 C 422 660 387 677 353 697 C 319 716 287 738 257 762 C 227 786 200 815 178 847 C 155 879 137 916 124 958 C 110 999 104 1046 104 1100 C 104 1166 116 1227 142 1282 C 168 1336 204 1383 250 1422 C 296 1461 350 1491 414 1512 C 477 1533 546 1544 621 1544 C 688 1544 749 1535 805 1518 C 860 1500 910 1476 954 1446 C 998 1415 1036 1378 1070 1336 C 1104 1293 1133 1246 1159 1196 L 866 1034 C 833 1098 796 1147 755 1181 C 714 1215 666 1233 612 1233 C 566 1233 532 1222 510 1200 C 488 1178 477 1151 477 1118 C 477 1094 482 1074 494 1056 C 506 1038 522 1021 542 1006 C 562 991 585 977 612 964 C 639 950 668 937 700 924 L 808 879 C 845 863 881 846 917 826 C 953 806 987 784 1019 760 C 1051 735 1080 706 1104 674 C 1128 641 1148 604 1162 562 C 1176 520 1184 473 1184 420 C 1184 361 1173 305 1151 251 C 1129 197 1095 149 1051 107 C 1007 65 951 32 885 8 C 818 -16 740 -29 651 -29 C 571 -29 499 -19 437 -1 C 374 16 318 42 270 74 C 222 106 179 145 143 190 C 107 234 75 283 49 336 Z M 275 1953 L 486 1953 L 621 1831 L 758 1953 L 969 1953 L 746 1607 L 498 1607 L 275 1953 Z" unicode="Š" />
<glyph horiz-adv-x="981" d="M 4 147 L 186 360 C 210 340 235 322 262 306 C 288 290 315 276 343 264 C 371 252 398 243 425 237 C 451 230 476 227 500 227 C 530 227 556 231 576 241 C 596 250 606 267 606 293 C 606 315 598 332 582 346 C 566 360 546 371 521 381 C 495 390 466 399 434 407 C 401 415 367 424 333 435 C 299 445 265 459 233 475 C 200 491 171 511 146 537 C 120 562 100 593 84 631 C 68 668 61 714 61 768 C 61 829 73 882 97 926 C 121 970 153 1007 193 1035 C 233 1063 280 1084 332 1098 C 384 1111 439 1118 496 1118 C 530 1118 567 1114 605 1107 C 643 1100 680 1090 718 1077 C 756 1063 792 1046 826 1026 C 860 1006 892 982 920 956 L 735 748 C 687 784 644 811 606 829 C 567 847 530 856 494 856 C 468 856 446 851 430 841 C 414 831 406 814 406 791 C 406 770 413 753 429 740 C 445 727 465 716 491 707 C 516 697 545 689 578 681 C 610 673 644 663 678 653 C 712 642 745 629 778 613 C 810 597 839 576 865 551 C 890 525 910 494 926 458 C 942 421 950 376 950 324 C 950 264 937 213 912 169 C 886 125 853 89 811 61 C 769 32 720 10 665 -3 C 610 -17 553 -25 494 -25 C 437 -25 385 -21 338 -13 C 290 -5 247 5 207 20 C 167 35 130 53 97 74 C 63 95 32 119 4 147 Z M 142 1554 L 353 1554 L 488 1432 L 625 1554 L 836 1554 L 613 1208 L 365 1208 L 142 1554 Z" unicode="š" />
<glyph horiz-adv-x="1118" d="" unicode="Ţ" />
<glyph horiz-adv-x="795" d="" unicode="ţ" />
<glyph horiz-adv-x="1118" d="" unicode="Ť" />
<glyph horiz-adv-x="795" d="" unicode="ť" />
<glyph horiz-adv-x="1118" d="" unicode="Ŧ" />
<glyph horiz-adv-x="795" d="" unicode="ŧ" />
<glyph horiz-adv-x="1262" d="" unicode="Ũ" />
<glyph horiz-adv-x="1120" d="" unicode="ũ" />
<glyph horiz-adv-x="1262" d="" unicode="Ū" />
<glyph horiz-adv-x="1120" d="" unicode="ū" />
<glyph horiz-adv-x="1262" d="" unicode="Ŭ" />
<glyph horiz-adv-x="1120" d="" unicode="ŭ" />
<glyph horiz-adv-x="1262" d="" unicode="Ů" />
<glyph horiz-adv-x="1120" d="" unicode="ů" />
<glyph horiz-adv-x="1262" d="" unicode="Ű" />
<glyph horiz-adv-x="1120" d="" unicode="ű" />
<glyph horiz-adv-x="1262" d="" unicode="Ų" />
<glyph horiz-adv-x="1120" d="" unicode="ų" />
<glyph horiz-adv-x="1688" d="" unicode="Ŵ" />
<glyph horiz-adv-x="1397" d="" unicode="ŵ" />
<glyph horiz-adv-x="1229" d="" unicode="Ŷ" />
<glyph horiz-adv-x="1012" d="" unicode="ŷ" />
<glyph horiz-adv-x="1229" d="M -8 1516 L 381 1516 L 621 924 L 625 924 L 864 1516 L 1237 1516 L 803 580 L 803 0 L 422 0 L 422 580 L -8 1516 Z M 254 1595 L 254 1927 L 555 1927 L 555 1595 L 254 1595 Z M 675 1595 L 675 1927 L 974 1927 L 974 1595 L 675 1595 Z" unicode="Ÿ" />
<glyph horiz-adv-x="1153" d="" unicode="Ź" />
<glyph horiz-adv-x="946" d="" unicode="ź" />
<glyph horiz-adv-x="1153" d="" unicode="Ż" />
<glyph horiz-adv-x="946" d="" unicode="ż" />
<glyph horiz-adv-x="1153" d="M 33 0 L 33 272 L 649 1196 L 78 1196 L 78 1516 L 1102 1516 L 1102 1233 L 498 309 L 1102 309 L 1102 0 L 33 0 Z M 227 1953 L 438 1953 L 573 1831 L 710 1953 L 921 1953 L 698 1607 L 450 1607 L 227 1953 Z" unicode="Ž" />
<glyph horiz-adv-x="946" d="M 35 0 L 35 201 L 446 827 L 68 827 L 68 1096 L 887 1096 L 887 885 L 473 260 L 922 260 L 922 0 L 35 0 Z M 126 1554 L 337 1554 L 472 1432 L 609 1554 L 820 1554 L 597 1208 L 349 1208 L 126 1554 Z" unicode="ž" />
<glyph horiz-adv-x="825" d="M -154 -403 L -121 -141 C -112 -143 -99 -145 -83 -147 C -67 -149 -52 -150 -39 -150 C 3 -150 34 -139 55 -119 C 76 -99 90 -64 96 -16 L 184 666 L 33 666 L 66 926 L 217 926 L 248 1165 C 253 1215 263 1261 278 1305 C 293 1349 317 1387 349 1419 C 381 1451 423 1476 477 1494 C 530 1512 598 1522 682 1522 C 698 1522 715 1521 734 1521 C 753 1520 771 1519 789 1518 C 807 1517 822 1516 836 1515 C 850 1513 859 1512 864 1511 L 829 1241 C 821 1243 808 1244 791 1246 C 774 1248 757 1249 741 1249 C 726 1249 712 1248 698 1246 C 684 1244 671 1239 659 1232 C 647 1225 638 1215 630 1201 C 622 1187 616 1167 614 1143 L 586 926 L 780 926 L 748 666 L 553 666 L 457 -86 C 451 -131 440 -174 426 -214 C 411 -254 388 -288 356 -318 C 324 -348 282 -371 230 -388 C 177 -405 109 -414 27 -414 C 11 -414 -6 -413 -26 -413 C -45 -412 -63 -411 -81 -410 C -98 -409 -113 -408 -127 -407 C -141 -405 -150 -404 -154 -403 Z" unicode="ƒ" />
<glyph horiz-adv-x="1012" d="" unicode="⁄" />
<glyph horiz-adv-x="1280" d="" unicode="∂" />
<glyph horiz-adv-x="1536" d="" unicode="∆" />
<glyph horiz-adv-x="1536" d="" unicode="∏" />
<glyph horiz-adv-x="1152" d="" unicode="∑" />
<glyph horiz-adv-x="1188" d="" unicode="−" />
<glyph horiz-adv-x="1012" d="" unicode="∕" />
<glyph horiz-adv-x="1245" d="" unicode="Ș" />
<glyph horiz-adv-x="981" d="" unicode="ș" />
<glyph horiz-adv-x="1118" d="" unicode="Ț" />
<glyph horiz-adv-x="795" d="" unicode="ț" />
<glyph horiz-adv-x="1468" d="" unicode="∞" />
<glyph horiz-adv-x="1152" d="" unicode="∫" />
<glyph horiz-adv-x="1270" d="" unicode="≈" />
<glyph horiz-adv-x="2077" d="M 25 827 L 25 1096 L 178 1096 L 178 1165 C 178 1194 179 1223 182 1253 C 184 1282 190 1310 199 1336 C 208 1362 221 1387 238 1410 C 254 1432 276 1452 304 1469 C 332 1485 366 1498 406 1508 C 446 1517 494 1522 551 1522 C 571 1522 592 1521 614 1521 C 635 1520 655 1519 674 1518 C 692 1517 708 1516 722 1515 C 735 1513 744 1512 748 1511 L 748 1241 C 739 1243 726 1244 709 1246 C 692 1248 677 1249 664 1249 C 648 1249 632 1248 618 1246 C 604 1244 591 1239 581 1232 C 571 1225 562 1215 556 1201 C 550 1187 547 1167 547 1143 L 547 1096 L 739 1096 L 739 827 L 547 827 L 547 0 L 178 0 L 178 827 L 25 827 Z M 772 827 L 772 1096 L 926 1096 L 926 1165 C 926 1194 927 1223 930 1253 C 932 1282 938 1310 947 1336 C 956 1362 969 1387 985 1410 C 1001 1432 1023 1452 1051 1469 C 1079 1485 1113 1498 1153 1508 C 1193 1517 1242 1522 1298 1522 C 1318 1522 1339 1521 1361 1521 C 1382 1520 1402 1519 1421 1518 C 1439 1517 1455 1516 1469 1515 C 1482 1513 1491 1512 1495 1511 L 1495 1241 C 1487 1243 1474 1244 1457 1246 C 1439 1248 1424 1249 1411 1249 C 1395 1249 1380 1248 1366 1246 C 1352 1244 1339 1239 1329 1232 C 1318 1225 1309 1215 1303 1201 C 1297 1187 1294 1167 1294 1143 L 1294 1096 L 1487 1096 L 1487 827 L 1294 827 L 1294 0 L 926 0 L 926 827 L 772 827 Z M 1608 0 L 1608 1516 L 1978 1516 L 1978 0 L 1608 0 Z" unicode="ﬄ" />
<glyph horiz-adv-x="1038" d="" unicode="ə" />
<glyph horiz-adv-x="1174" d="" unicode="≠" />
<glyph horiz-adv-x="1217" d="" unicode="≤" />
<glyph horiz-adv-x="1217" d="" unicode="≥" />
<glyph horiz-adv-x="975" d="" unicode="⁰" />
<glyph horiz-adv-x="926" d="" unicode="⁴" />
<glyph horiz-adv-x="887" d="" unicode="⁵" />
<glyph horiz-adv-x="926" d="" unicode="⁶" />
<glyph horiz-adv-x="1024" d="M 164 1208 L 389 1554 L 635 1554 L 858 1208 L 647 1208 L 510 1333 L 375 1208 L 164 1208 Z" unicode="ˆ" />
<glyph horiz-adv-x="1024" d="M 164 1554 L 375 1554 L 510 1432 L 647 1554 L 858 1554 L 635 1208 L 387 1208 L 164 1554 Z" unicode="ˇ" />
<glyph horiz-adv-x="819" d="" unicode="⁷" />
<glyph horiz-adv-x="915" d="" unicode="⁸" />
<glyph horiz-adv-x="926" d="" unicode="⁹" />
<glyph horiz-adv-x="1024" d="" unicode="˘" />
<glyph horiz-adv-x="1024" d="" unicode="˙" />
<glyph horiz-adv-x="1024" d="M 287 1411 C 287 1445 292 1476 303 1505 C 314 1534 329 1559 349 1581 C 369 1603 392 1620 420 1632 C 448 1644 478 1651 512 1651 C 545 1651 575 1644 603 1632 C 631 1620 654 1603 674 1581 C 694 1559 709 1534 720 1505 C 731 1476 737 1445 737 1411 C 737 1377 731 1345 720 1316 C 709 1287 694 1262 674 1240 C 654 1218 631 1201 603 1189 C 575 1177 545 1171 512 1171 C 478 1171 448 1177 420 1189 C 392 1201 369 1218 349 1240 C 329 1262 314 1287 303 1316 C 292 1345 287 1377 287 1411 Z M 442 1409 C 442 1396 443 1384 446 1372 C 449 1360 453 1349 459 1340 C 465 1331 472 1324 481 1319 C 489 1313 500 1311 512 1311 C 524 1311 534 1313 543 1319 C 551 1324 558 1331 564 1340 C 570 1349 574 1360 577 1372 C 580 1384 582 1396 582 1409 C 582 1421 580 1432 577 1444 C 574 1456 570 1466 564 1475 C 558 1484 551 1491 543 1497 C 534 1502 524 1505 512 1505 C 500 1505 489 1502 481 1497 C 472 1491 465 1484 459 1475 C 453 1466 449 1456 446 1444 C 443 1432 442 1421 442 1409 Z" unicode="˚" />
<glyph horiz-adv-x="1024" d="" unicode="˛" />
<glyph horiz-adv-x="1024" d="M 127 1178 C 127 1243 132 1299 144 1345 C 156 1391 172 1429 193 1459 C 214 1488 239 1509 269 1523 C 299 1537 332 1544 369 1544 C 405 1544 435 1538 461 1526 C 486 1514 508 1501 528 1487 L 582 1448 C 599 1436 617 1430 637 1430 C 659 1430 677 1438 691 1455 C 704 1471 711 1500 711 1540 L 897 1540 C 897 1474 891 1418 879 1372 C 867 1326 851 1288 830 1259 C 809 1229 784 1208 754 1194 C 724 1180 691 1174 655 1174 C 619 1174 588 1180 563 1192 C 537 1204 515 1217 496 1231 L 442 1270 C 424 1282 406 1288 387 1288 C 364 1288 346 1279 333 1263 C 319 1246 313 1218 313 1178 L 127 1178 Z" unicode="˜" />
<glyph horiz-adv-x="1024" d="" unicode="˝" />
<glyph horiz-adv-x="1509" d="M 25 827 L 25 1096 L 178 1096 L 178 1165 C 178 1194 179 1223 182 1253 C 184 1282 190 1310 199 1336 C 208 1362 221 1387 238 1410 C 254 1432 276 1452 304 1469 C 332 1485 366 1498 406 1508 C 446 1517 494 1522 551 1522 C 571 1522 592 1521 614 1521 C 635 1520 655 1519 674 1518 C 692 1517 708 1516 722 1515 C 735 1513 744 1512 748 1511 L 748 1241 C 739 1243 726 1244 709 1246 C 692 1248 677 1249 664 1249 C 648 1249 632 1248 618 1246 C 604 1244 591 1239 581 1232 C 571 1225 562 1215 556 1201 C 550 1187 547 1167 547 1143 L 547 1096 L 739 1096 L 739 827 L 547 827 L 547 0 L 178 0 L 178 827 L 25 827 Z M 772 827 L 772 1096 L 926 1096 L 926 1165 C 926 1194 927 1223 930 1253 C 932 1282 938 1310 947 1336 C 956 1362 969 1387 985 1410 C 1001 1432 1023 1452 1051 1469 C 1079 1485 1113 1498 1153 1508 C 1193 1517 1242 1522 1298 1522 C 1318 1522 1339 1521 1361 1521 C 1382 1520 1402 1519 1421 1518 C 1439 1517 1455 1516 1469 1515 C 1482 1513 1491 1512 1495 1511 L 1495 1241 C 1487 1243 1474 1244 1457 1246 C 1439 1248 1424 1249 1411 1249 C 1395 1249 1380 1248 1366 1246 C 1352 1244 1339 1239 1329 1232 C 1318 1225 1309 1215 1303 1201 C 1297 1187 1294 1167 1294 1143 L 1294 1096 L 1487 1096 L 1487 827 L 1294 827 L 1294 0 L 926 0 L 926 827 L 772 827 Z" unicode="ﬀ" />
<glyph horiz-adv-x="1227" d="M 25 827 L 25 1096 L 178 1096 L 178 1165 C 178 1209 182 1253 192 1296 C 201 1338 219 1376 245 1410 C 271 1443 306 1470 352 1491 C 398 1511 457 1522 530 1522 C 550 1522 570 1521 590 1521 C 609 1520 627 1519 643 1518 C 659 1517 672 1516 684 1515 C 695 1513 703 1512 707 1511 L 707 1241 C 698 1243 688 1244 678 1246 C 668 1248 656 1249 643 1249 C 611 1249 587 1240 571 1224 C 555 1208 547 1181 547 1143 L 547 1096 L 698 1096 L 698 827 L 547 827 L 547 0 L 178 0 L 178 827 L 25 827 Z M 758 0 L 758 1096 L 1128 1096 L 1128 0 L 758 0 Z M 758 1198 L 758 1501 L 1128 1501 L 1128 1198 L 758 1198 Z" unicode="ﬁ" />
<glyph horiz-adv-x="1227" d="M 25 827 L 25 1096 L 178 1096 L 178 1165 C 178 1209 182 1253 192 1296 C 201 1338 219 1376 245 1410 C 271 1443 306 1470 352 1491 C 398 1511 457 1522 530 1522 C 550 1522 570 1521 590 1521 C 609 1520 627 1519 643 1518 C 659 1517 672 1516 684 1515 C 695 1513 703 1512 707 1511 L 707 1241 C 698 1243 688 1244 678 1246 C 668 1248 656 1249 643 1249 C 611 1249 587 1240 571 1224 C 555 1208 547 1181 547 1143 L 547 1096 L 698 1096 L 698 827 L 547 827 L 547 0 L 178 0 L 178 827 L 25 827 Z M 758 0 L 758 1516 L 1128 1516 L 1128 0 L 758 0 Z" unicode="ﬂ" />
<glyph horiz-adv-x="2077" d="M 25 827 L 25 1096 L 178 1096 L 178 1165 C 178 1194 179 1223 182 1253 C 184 1282 190 1310 199 1336 C 208 1362 221 1387 238 1410 C 254 1432 276 1452 304 1469 C 332 1485 366 1498 406 1508 C 446 1517 494 1522 551 1522 C 571 1522 592 1521 614 1521 C 635 1520 655 1519 674 1518 C 692 1517 708 1516 722 1515 C 735 1513 744 1512 748 1511 L 748 1241 C 739 1243 726 1244 709 1246 C 692 1248 677 1249 664 1249 C 648 1249 632 1248 618 1246 C 604 1244 591 1239 581 1232 C 571 1225 562 1215 556 1201 C 550 1187 547 1167 547 1143 L 547 1096 L 739 1096 L 739 827 L 547 827 L 547 0 L 178 0 L 178 827 L 25 827 Z M 772 827 L 772 1096 L 926 1096 L 926 1165 C 926 1194 927 1223 930 1253 C 932 1282 938 1310 947 1336 C 956 1362 969 1387 985 1410 C 1001 1432 1023 1452 1051 1469 C 1079 1485 1113 1498 1153 1508 C 1193 1517 1242 1522 1298 1522 C 1318 1522 1339 1521 1361 1521 C 1382 1520 1402 1519 1421 1518 C 1439 1517 1455 1516 1469 1515 C 1482 1513 1491 1512 1495 1511 L 1495 1241 C 1487 1243 1474 1244 1457 1246 C 1439 1248 1424 1249 1411 1249 C 1395 1249 1380 1248 1366 1246 C 1352 1244 1339 1239 1329 1232 C 1318 1225 1309 1215 1303 1201 C 1297 1187 1294 1167 1294 1143 L 1294 1096 L 1487 1096 L 1487 827 L 1294 827 L 1294 0 L 926 0 L 926 827 L 772 827 Z M 1608 0 L 1608 1096 L 1978 1096 L 1978 0 L 1608 0 Z M 1608 1198 L 1608 1501 L 1978 1501 L 1978 1198 L 1608 1198 Z" unicode="ﬃ" />
<glyph horiz-adv-x="1024" d="M 176 1196 L 176 1462 L 846 1462 L 846 1196 L 176 1196 Z" unicode="̄" />
<glyph horiz-adv-x="510" d="" unicode="̦" />
<glyph horiz-adv-x="1536" d="" unicode="Δ" />
<glyph horiz-adv-x="1664" d="" unicode="Ω" />
<glyph horiz-adv-x="1126" d="M 88 -410 L 88 1098 L 459 1098 L 459 381 C 459 349 464 325 474 309 C 484 293 502 285 528 285 C 555 285 580 290 604 301 C 627 311 649 324 670 340 L 670 1098 L 1038 1098 L 1038 0 L 670 0 L 670 147 C 662 135 652 122 640 108 C 628 94 613 80 597 67 C 581 54 562 42 541 31 C 520 19 497 10 473 4 C 471 2 468 2 466 2 C 463 2 461 1 459 0 L 459 -410 L 88 -410 Z" unicode="μ" />
<glyph horiz-adv-x="1408" d="" unicode="π" />
<glyph horiz-adv-x="1319" d="M 35 483 L 35 692 L 201 692 L 201 758 L 201 799 L 35 799 L 35 1008 L 217 1008 C 231 1100 254 1180 286 1248 C 318 1316 357 1371 403 1415 C 449 1459 501 1491 560 1512 C 618 1533 682 1544 752 1544 C 898 1544 1015 1503 1102 1423 C 1189 1342 1243 1222 1264 1063 L 920 1006 C 916 1040 909 1071 901 1099 C 893 1127 882 1151 869 1171 C 856 1191 840 1206 822 1218 C 803 1229 781 1235 756 1235 C 705 1235 666 1215 639 1177 C 612 1139 594 1082 584 1008 L 838 1008 L 838 799 L 569 799 L 569 758 L 569 692 L 838 692 L 838 483 L 582 483 C 592 412 610 359 637 323 C 663 287 704 270 760 270 C 780 270 800 274 818 283 C 836 291 853 305 868 324 C 883 343 896 368 908 399 C 919 429 928 467 936 512 L 1276 473 C 1265 403 1246 338 1218 277 C 1190 216 1155 163 1111 118 C 1067 72 1016 36 957 10 C 898 -15 832 -29 758 -29 C 690 -29 626 -19 568 0 C 510 20 458 50 412 92 C 366 133 326 186 294 251 C 262 315 237 393 221 483 L 35 483 Z" unicode="€" />
<glyph horiz-adv-x="551" d="M 70 424 L 70 784 L 481 784 L 481 424 L 70 424 Z" unicode="∙" />
<glyph horiz-adv-x="1106" d="" unicode="√" />
<glyph horiz-adv-x="1122" d="M 43 698 L 43 1028 L 424 995 L 369 1516 L 752 1516 L 698 995 L 1077 1028 L 1077 698 L 698 729 L 752 -410 L 369 -410 L 424 729 L 43 698 Z" unicode="†" />
<glyph horiz-adv-x="1120" d="M 78 -41 L 78 276 L 422 244 L 377 555 L 422 860 L 78 829 L 78 1147 L 422 1112 L 369 1516 L 752 1516 L 698 1112 L 1042 1147 L 1042 829 L 698 860 L 743 555 L 698 244 L 1042 276 L 1042 -41 L 698 -6 L 752 -410 L 369 -410 L 422 -6 L 78 -41 Z" unicode="‡" />
<glyph horiz-adv-x="948" d="M 201 717 C 201 756 207 792 221 826 C 235 859 254 888 278 913 C 302 937 331 956 364 970 C 397 984 433 991 473 991 C 512 991 548 984 582 970 C 616 956 645 937 669 913 C 693 888 713 859 727 826 C 741 792 748 756 748 717 C 748 677 741 641 727 608 C 713 575 693 546 669 522 C 645 497 616 478 582 464 C 548 450 512 444 473 444 C 433 444 397 450 364 464 C 331 478 302 497 278 522 C 254 546 235 575 221 608 C 207 641 201 677 201 717 Z" unicode="•" />
<glyph horiz-adv-x="1530" d="M 70 0 L 70 360 L 440 360 L 440 0 L 70 0 Z M 580 0 L 580 360 L 950 360 L 950 0 L 580 0 Z M 1090 0 L 1090 360 L 1460 360 L 1460 0 L 1090 0 Z" unicode="…" />
<glyph horiz-adv-x="1155" d="" unicode="◊" />
<glyph horiz-adv-x="1556" d="" unicode="" />
<glyph horiz-adv-x="1688" d="" unicode="Ẁ" />
<glyph horiz-adv-x="1397" d="" unicode="ẁ" />
<glyph horiz-adv-x="1688" d="" unicode="Ẃ" />
<glyph horiz-adv-x="1397" d="" unicode="ẃ" />
<glyph horiz-adv-x="1688" d="" unicode="Ẅ" />
<glyph horiz-adv-x="1397" d="" unicode="ẅ" />
<glyph horiz-adv-x="1491" d="" unicode="℗" />
<glyph horiz-adv-x="2779" d="M 31 1024 C 31 1108 39 1182 56 1246 C 73 1310 98 1363 131 1405 C 163 1447 203 1479 250 1500 C 297 1521 350 1532 410 1532 C 529 1532 622 1489 688 1405 C 754 1321 788 1194 788 1024 C 788 852 754 724 688 640 C 622 556 529 514 410 514 C 350 514 297 524 250 545 C 203 566 163 598 131 640 C 98 682 73 736 56 800 C 39 864 31 938 31 1024 Z M 332 1024 C 332 978 333 940 335 908 C 337 876 340 850 346 830 C 352 810 360 795 370 786 C 380 776 393 772 410 772 C 427 772 441 776 451 786 C 461 795 468 810 474 830 C 479 850 482 876 484 908 C 486 940 487 978 487 1024 C 487 1068 486 1106 484 1137 C 482 1168 479 1193 473 1213 C 467 1232 460 1246 450 1255 C 440 1263 426 1268 410 1268 C 392 1268 378 1263 368 1255 C 358 1246 350 1232 345 1213 C 339 1193 336 1168 334 1137 C 332 1106 332 1068 332 1024 Z M 453 0 L 1221 1516 L 1524 1516 L 756 0 L 453 0 Z M 1190 494 C 1190 578 1198 652 1215 716 C 1232 780 1257 833 1290 875 C 1322 917 1362 948 1409 969 C 1456 990 1509 1001 1569 1001 C 1629 1001 1682 990 1729 969 C 1775 948 1815 917 1848 875 C 1880 833 1905 780 1922 716 C 1939 652 1948 578 1948 494 C 1948 408 1939 334 1922 270 C 1905 206 1880 152 1848 110 C 1815 68 1775 36 1729 15 C 1682 -5 1629 -16 1569 -16 C 1509 -16 1456 -5 1409 15 C 1362 36 1322 68 1290 110 C 1257 152 1232 206 1215 270 C 1198 334 1190 408 1190 494 Z M 1491 494 C 1491 448 1492 410 1494 378 C 1496 346 1499 320 1505 300 C 1511 280 1519 265 1529 256 C 1539 246 1552 242 1569 242 C 1586 242 1600 246 1610 256 C 1620 265 1628 280 1634 300 C 1639 320 1642 346 1644 378 C 1646 410 1647 448 1647 494 C 1647 538 1646 576 1644 607 C 1642 637 1638 662 1633 682 C 1627 701 1619 715 1609 724 C 1599 732 1585 737 1569 737 C 1551 737 1537 732 1527 724 C 1517 715 1509 701 1504 682 C 1498 662 1495 637 1493 607 C 1491 576 1491 538 1491 494 Z M 1991 494 C 1991 578 1999 652 2016 716 C 2033 780 2058 833 2091 875 C 2123 917 2163 948 2210 969 C 2257 990 2310 1001 2370 1001 C 2430 1001 2483 990 2530 969 C 2576 948 2616 917 2648 875 C 2680 833 2705 780 2722 716 C 2739 652 2748 578 2748 494 C 2748 322 2714 194 2648 110 C 2582 26 2489 -16 2370 -16 C 2310 -16 2257 -5 2210 15 C 2163 36 2123 68 2091 110 C 2058 152 2033 206 2016 270 C 1999 334 1991 408 1991 494 Z M 2292 494 C 2292 448 2293 410 2295 378 C 2297 346 2300 320 2306 300 C 2312 280 2320 265 2330 256 C 2340 246 2353 242 2370 242 C 2387 242 2401 246 2411 256 C 2421 265 2428 280 2434 300 C 2439 320 2442 346 2444 378 C 2446 410 2447 448 2447 494 C 2447 538 2446 576 2444 607 C 2442 637 2439 662 2433 682 C 2427 701 2420 715 2410 724 C 2400 732 2386 737 2370 737 C 2352 737 2338 732 2328 724 C 2318 715 2310 701 2305 682 C 2299 662 2296 637 2294 607 C 2292 576 2292 538 2292 494 Z" unicode="‰" />
<glyph horiz-adv-x="1655" d="M 45 1296 L 45 1516 L 651 1516 L 651 1296 L 469 1296 L 469 649 L 229 649 L 229 1296 L 45 1296 Z M 739 649 L 739 1516 L 1069 1516 L 1165 1001 L 1262 1516 L 1587 1516 L 1587 649 L 1354 649 L 1354 1167 L 1253 649 L 1057 649 L 954 1161 L 954 649 L 739 649 Z" unicode="™" />
<glyph horiz-adv-x="492" d="" unicode="′" />
<glyph horiz-adv-x="1664" d="" unicode="Ω" />
<glyph horiz-adv-x="1229" d="" unicode="Ỳ" />
<glyph horiz-adv-x="1012" d="" unicode="ỳ" />
<glyph horiz-adv-x="877" d="" unicode="″" />
<glyph horiz-adv-x="1106" d="" unicode="✓" />
<glyph horiz-adv-x="686" d="M 25 545 L 311 1090 L 655 1090 L 381 545 L 655 0 L 311 0 L 25 545 Z" unicode="‹" />
<glyph horiz-adv-x="686" d="M 31 0 L 305 545 L 31 1090 L 375 1090 L 662 545 L 375 0 L 31 0 Z" unicode="›" />
</font>
</defs>
</svg>
