<?xml version="1.0" standalone="yes"?><svg version="1.1" xmlns = 'http://www.w3.org/2000/svg'><defs><font id='web' horiz-adv-x="1000">
<font-face font-family="web" descent="-410" cap-height="1516" units-per-em="2048" bbox="-248,-569,2550,2025" x-height="1092" ascent="1520" />
<missing-glyph horiz-adv-x="1024" d="" /><glyph horiz-adv-x="1024" d="" unicode=" " />
<glyph horiz-adv-x="2048" d="" unicode=" " />
<glyph horiz-adv-x="1155" d="" unicode=" " />
<glyph horiz-adv-x="2314" d="" unicode=" " />
<glyph horiz-adv-x="410" d="" unicode=" " />
<glyph horiz-adv-x="1155" d="" unicode="‒" />
<glyph horiz-adv-x="1174" d="M 90 762 L 1087 762 L 1047 506 L 49 506 L 90 762 Z" unicode="–" />
<glyph horiz-adv-x="1569" d="M 86 762 L 1487 762 L 1446 506 L 47 506 L 86 762 Z" unicode="—" />
<glyph horiz-adv-x="2048" d="" unicode="―" />
<glyph horiz-adv-x="508" d="M 180 1249 L 362 1516 L 506 1516 L 379 1272 L 487 1272 L 438 961 L 135 961 L 180 1249 Z" unicode="‘" />
<glyph horiz-adv-x="508" d="M 283 1204 L 174 1204 L 223 1516 L 526 1516 L 481 1227 L 297 961 L 156 961 L 283 1204 Z" unicode="’" />
<glyph horiz-adv-x="508" d="M 92 0 L -18 0 L 33 311 L 336 311 L 291 23 L 109 -246 L -35 -246 L 92 0 Z" unicode="‚" />
<glyph horiz-adv-x="954" d="M 629 1249 L 811 1516 L 952 1516 L 827 1272 L 936 1272 L 887 961 L 582 961 L 629 1249 Z M 180 1249 L 362 1516 L 506 1516 L 379 1272 L 487 1272 L 438 961 L 135 961 L 180 1249 Z" unicode="“" />
<glyph horiz-adv-x="954" d="M 731 1204 L 621 1204 L 670 1516 L 973 1516 L 928 1227 L 745 961 L 604 961 L 731 1204 Z M 283 1204 L 174 1204 L 223 1516 L 526 1516 L 481 1227 L 297 961 L 156 961 L 283 1204 Z" unicode="”" />
<glyph horiz-adv-x="954" d="M 541 0 L 430 0 L 481 311 L 784 311 L 737 23 L 557 -246 L 414 -246 L 541 0 Z M 92 0 L -18 0 L 33 311 L 336 311 L 291 23 L 109 -246 L -35 -246 L 92 0 Z" unicode="„" />
<glyph horiz-adv-x="459" d="" unicode=" " />
<glyph horiz-adv-x="641" d="M 262 1516 L 631 1516 L 399 451 L 156 451 L 262 1516 Z M 88 291 L 418 291 L 371 0 L 43 0 L 88 291 Z" unicode="!" />
<glyph horiz-adv-x="836" d="M 573 1389 L 592 1516 L 852 1516 L 834 1389 L 737 971 L 535 971 L 573 1389 Z M 205 1389 L 225 1516 L 485 1516 L 465 1389 L 371 971 L 168 971 L 205 1389 Z" unicode="&#x22;" />
<glyph horiz-adv-x="1337" d="M 231 397 L 43 397 L 43 629 L 272 629 L 319 887 L 119 887 L 119 1118 L 362 1118 L 432 1516 L 702 1516 L 633 1118 L 821 1118 L 891 1516 L 1161 1516 L 1092 1118 L 1300 1118 L 1300 887 L 1049 887 L 1004 629 L 1225 629 L 1225 397 L 961 397 L 893 0 L 621 0 L 690 397 L 504 397 L 434 0 L 162 0 L 231 397 Z M 733 625 L 780 891 L 590 891 L 543 625 L 733 625 Z" unicode="#" />
<glyph horiz-adv-x="1163" d="M 358 10 C 292 23 238 43 196 71 C 154 99 119 131 93 167 C 67 203 47 243 34 285 C 21 327 12 370 6 412 L 281 487 C 287 450 296 416 308 386 C 319 355 334 328 353 306 C 371 284 395 266 424 254 C 452 242 488 236 530 236 C 558 236 585 239 611 246 C 636 253 658 264 677 279 C 695 294 710 313 721 337 C 731 360 737 388 737 420 C 737 450 728 476 712 499 C 695 522 673 543 646 563 C 619 583 588 601 554 619 C 519 637 483 655 447 675 C 411 695 375 716 341 739 C 306 762 275 789 248 819 C 221 849 199 883 183 921 C 166 959 158 1004 158 1055 C 158 1117 168 1175 188 1230 C 208 1285 237 1333 275 1375 C 313 1416 359 1450 413 1476 C 467 1502 529 1517 597 1521 L 623 1677 L 838 1677 L 809 1503 C 865 1489 911 1470 948 1446 C 984 1421 1014 1393 1037 1361 C 1060 1329 1078 1296 1090 1260 C 1102 1224 1112 1188 1120 1153 L 854 1053 C 846 1086 836 1116 825 1143 C 813 1170 799 1193 781 1213 C 763 1232 742 1247 717 1258 C 691 1268 661 1274 625 1274 C 573 1274 532 1258 504 1228 C 475 1198 461 1158 461 1108 C 461 1076 469 1049 486 1025 C 502 1001 524 980 552 960 C 579 940 610 921 645 903 C 679 885 715 867 751 848 C 787 828 823 807 858 785 C 892 762 923 736 951 706 C 978 676 1000 642 1017 604 C 1033 566 1042 521 1042 471 C 1042 411 1032 353 1012 297 C 992 241 962 192 923 149 C 883 105 834 70 776 43 C 717 15 649 0 571 -5 L 541 -190 L 326 -190 L 358 10 Z" unicode="$" />
<glyph horiz-adv-x="1868" d="M 391 547 C 289 547 213 579 162 645 C 111 711 86 804 86 924 C 86 971 90 1021 98 1075 C 110 1155 130 1225 156 1283 C 182 1341 212 1388 248 1426 C 283 1463 323 1491 367 1509 C 411 1527 458 1536 508 1536 C 558 1536 602 1527 640 1511 C 678 1495 709 1471 735 1441 C 761 1410 780 1372 793 1328 C 806 1283 813 1232 813 1176 C 813 1148 812 1121 810 1093 C 808 1065 805 1038 801 1010 C 788 928 769 858 743 800 C 717 741 687 693 651 656 C 615 618 576 591 532 573 C 488 555 441 547 391 547 Z M 410 762 C 428 762 445 767 460 777 C 474 787 487 802 499 824 C 510 845 520 873 529 907 C 537 941 545 982 553 1030 C 558 1062 562 1091 566 1118 C 569 1144 571 1169 571 1192 C 571 1275 543 1317 489 1317 C 467 1317 449 1311 434 1301 C 419 1290 406 1274 395 1252 C 384 1230 375 1203 367 1171 C 359 1138 352 1099 346 1055 C 340 1021 336 991 334 964 C 331 936 330 912 330 891 C 330 847 336 815 349 794 C 361 772 382 762 410 762 Z M 1366 -18 C 1264 -18 1187 14 1136 80 C 1084 145 1059 238 1059 358 C 1059 383 1060 408 1063 433 C 1065 457 1069 483 1073 510 C 1085 590 1103 659 1129 717 C 1155 775 1185 823 1221 861 C 1257 898 1297 926 1341 944 C 1385 962 1433 971 1483 971 C 1532 971 1576 962 1614 946 C 1652 930 1683 906 1709 876 C 1735 845 1754 807 1768 762 C 1781 717 1788 666 1788 610 C 1788 555 1784 500 1776 444 C 1762 362 1743 292 1717 234 C 1691 176 1661 128 1626 91 C 1590 53 1551 26 1507 8 C 1463 -9 1416 -18 1366 -18 Z M 1382 197 C 1401 197 1418 201 1433 211 C 1447 221 1460 236 1472 258 C 1484 280 1494 308 1503 342 C 1511 376 1520 417 1528 465 C 1533 497 1537 526 1540 553 C 1542 579 1544 604 1544 627 C 1544 710 1517 752 1464 752 C 1442 752 1424 746 1409 736 C 1394 725 1381 709 1370 687 C 1359 665 1350 638 1342 605 C 1334 572 1326 533 1319 489 C 1315 456 1311 426 1309 399 C 1306 371 1305 347 1305 326 C 1305 240 1330 197 1382 197 Z M 1303 1516 L 1552 1516 L 565 0 L 315 0 L 1303 1516 Z" unicode="%" />
<glyph horiz-adv-x="1305" d="M 463 -29 C 375 -29 300 -20 237 -3 C 173 13 121 38 79 70 C 37 102 7 140 -13 186 C -33 231 -43 282 -43 338 C -43 406 -32 466 -12 516 C 8 566 36 610 70 648 C 104 686 144 719 190 748 C 235 776 282 804 332 830 C 320 870 312 910 306 951 C 300 992 297 1034 297 1077 C 297 1150 307 1215 328 1273 C 348 1331 377 1380 414 1420 C 450 1460 494 1490 545 1512 C 595 1533 651 1544 711 1544 C 775 1544 829 1535 873 1518 C 917 1501 952 1479 980 1451 C 1007 1423 1027 1392 1039 1357 C 1051 1321 1057 1285 1057 1249 C 1057 1190 1046 1136 1025 1088 C 1004 1040 976 996 940 956 C 904 916 863 881 815 850 C 767 819 717 792 664 768 C 673 750 682 731 692 713 C 701 694 711 675 723 655 C 739 623 757 592 777 560 C 796 528 817 496 841 465 C 867 511 889 561 907 615 C 925 668 938 723 948 780 L 1206 780 C 1198 742 1189 702 1178 662 C 1166 621 1153 580 1138 539 C 1122 498 1105 457 1085 417 C 1065 376 1044 337 1020 299 C 1048 282 1077 268 1109 258 C 1141 248 1175 242 1212 240 L 1169 -20 C 1095 -19 1029 -10 972 6 C 914 22 862 47 814 79 C 766 45 713 18 655 0 C 597 -19 533 -29 463 -29 Z M 467 193 C 497 193 527 197 556 206 C 585 214 613 227 640 244 C 612 278 586 315 560 355 C 534 395 507 439 481 485 C 469 506 456 528 444 551 C 432 574 420 598 408 624 C 384 604 363 585 345 567 C 327 548 311 529 299 509 C 287 489 277 468 271 446 C 265 424 262 399 262 373 C 262 317 280 273 316 241 C 352 209 403 193 467 193 Z M 580 1120 C 580 1086 581 1054 585 1025 C 588 995 593 967 601 939 C 669 983 718 1028 750 1074 C 781 1119 797 1169 797 1225 C 797 1238 795 1251 792 1263 C 789 1275 784 1286 778 1296 C 771 1306 762 1314 751 1320 C 740 1326 727 1329 711 1329 C 673 1329 642 1311 617 1277 C 592 1243 580 1190 580 1120 Z" unicode="&#x26;" />
<glyph horiz-adv-x="471" d="M 205 1389 L 225 1516 L 487 1516 L 469 1389 L 371 971 L 168 971 L 205 1389 Z" unicode="'" />
<glyph horiz-adv-x="737" d="M 25 379 C 25 448 31 520 43 594 C 58 693 83 787 118 875 C 152 963 195 1048 247 1128 C 298 1208 357 1284 423 1356 C 489 1428 562 1498 641 1565 L 797 1434 C 743 1374 692 1311 644 1245 C 596 1179 552 1109 514 1037 C 476 965 443 890 416 812 C 388 734 368 655 356 573 C 350 537 345 501 343 466 C 341 430 340 396 340 362 C 340 236 356 117 390 6 C 423 -105 469 -204 528 -291 L 328 -422 C 280 -368 238 -310 201 -249 C 163 -187 132 -123 106 -56 C 80 10 60 80 46 153 C 32 225 25 301 25 379 Z" unicode="(" />
<glyph horiz-adv-x="737" d="M -119 -289 C -64 -229 -13 -166 35 -100 C 83 -34 126 35 165 107 C 203 179 236 254 263 332 C 290 409 310 489 324 571 C 329 607 333 642 336 678 C 338 713 340 748 340 782 C 340 908 323 1027 290 1139 C 256 1250 210 1349 152 1436 L 352 1565 C 398 1511 440 1453 478 1392 C 515 1331 547 1267 573 1200 C 599 1133 618 1063 632 991 C 646 919 653 844 653 766 C 653 730 651 695 649 660 C 646 624 642 588 637 551 C 621 451 595 357 560 269 C 525 180 482 96 431 16 C 379 -64 320 -140 254 -213 C 188 -285 115 -355 37 -422 L -119 -289 Z" unicode=")" />
<glyph horiz-adv-x="987" d="M 199 825 L 424 1053 L 104 1073 L 133 1264 L 453 1180 L 299 1470 L 485 1542 L 567 1231 L 743 1501 L 899 1376 L 668 1147 L 991 1126 L 961 938 L 649 1018 L 797 731 L 612 659 L 526 969 L 352 700 L 199 825 Z" unicode="*" />
<glyph horiz-adv-x="1157" d="M 449 575 L 106 575 L 106 823 L 449 823 L 449 1225 L 702 1225 L 702 823 L 1044 823 L 1044 575 L 702 575 L 702 172 L 449 172 L 449 575 Z" unicode="+" />
<glyph horiz-adv-x="502" d="M 98 0 L -25 0 L 27 311 L 336 311 L 293 35 L 117 -229 L -25 -229 L 98 0 Z" unicode="," />
<glyph horiz-adv-x="647" d="M 76 748 L 571 748 L 537 526 L 41 526 L 76 748 Z" unicode="-" />
<glyph horiz-adv-x="502" d="M 27 311 L 336 311 L 287 0 L -25 0 L 27 311 Z" unicode="." />
<glyph horiz-adv-x="1108" d="M 885 1516 L 1212 1516 L 225 0 L -104 0 L 885 1516 Z" unicode="/" />
<glyph horiz-adv-x="1196" d="M 512 -29 C 434 -29 365 -16 307 9 C 249 34 200 71 161 119 C 122 167 93 227 74 298 C 54 368 45 449 45 539 C 45 579 47 620 51 664 C 55 707 60 753 68 801 C 88 930 118 1041 156 1135 C 194 1229 239 1306 292 1366 C 344 1426 403 1471 469 1500 C 535 1529 606 1544 682 1544 C 761 1544 830 1531 889 1505 C 948 1479 997 1442 1036 1394 C 1075 1345 1104 1285 1124 1215 C 1143 1144 1153 1063 1153 973 C 1153 933 1151 891 1147 848 C 1143 805 1137 760 1130 713 C 1109 583 1080 472 1042 378 C 1004 284 958 207 906 147 C 853 87 793 42 727 14 C 661 -14 589 -29 512 -29 Z M 528 223 C 563 223 595 231 625 249 C 654 267 681 296 705 336 C 729 376 750 429 769 495 C 788 560 805 641 821 737 C 830 793 837 843 841 887 C 845 931 848 972 848 1010 C 848 1105 833 1174 805 1218 C 776 1262 732 1284 672 1284 C 635 1284 602 1275 573 1258 C 543 1240 517 1212 493 1172 C 469 1132 447 1079 428 1014 C 409 948 392 868 377 772 C 367 718 360 668 356 623 C 352 577 350 536 350 498 C 350 404 364 334 394 290 C 424 245 468 223 528 223 Z" unicode="0" />
<glyph horiz-adv-x="834" d="M -27 250 L 209 250 L 365 1229 C 347 1219 329 1209 309 1201 C 289 1193 268 1185 247 1179 C 225 1173 204 1168 183 1164 C 161 1160 141 1159 123 1159 L 164 1417 C 214 1419 260 1428 303 1444 C 345 1460 384 1484 418 1516 L 713 1516 L 512 250 L 719 250 L 680 0 L -66 0 L -27 250 Z" unicode="1" />
<glyph horiz-adv-x="1065" d="M -68 33 C -52 129 -29 213 2 285 C 34 357 70 421 112 476 C 153 531 197 579 245 620 C 293 661 340 698 388 732 C 435 765 481 796 525 826 C 569 855 607 885 641 917 C 675 949 702 983 722 1021 C 742 1058 752 1101 752 1151 C 752 1189 741 1220 721 1245 C 701 1269 666 1282 618 1282 C 574 1282 529 1265 484 1233 C 439 1201 396 1148 354 1075 L 115 1192 C 175 1302 250 1389 338 1451 C 426 1513 529 1544 647 1544 C 719 1544 780 1534 832 1516 C 884 1497 926 1471 960 1439 C 994 1407 1019 1369 1035 1325 C 1051 1281 1059 1235 1059 1186 C 1059 1120 1049 1060 1030 1007 C 1010 954 984 906 952 862 C 920 818 883 779 842 743 C 800 707 757 673 713 641 C 669 609 625 579 581 549 C 537 519 497 489 461 459 C 425 428 394 396 368 362 C 342 328 325 290 317 250 L 909 250 L 870 0 L -74 0 L -68 33 Z" unicode="2" />
<glyph horiz-adv-x="1085" d="M 444 -27 C 366 -27 299 -18 242 0 C 184 18 135 42 94 74 C 53 106 20 143 -5 187 C -30 231 -49 278 -63 330 L 197 438 C 207 404 219 373 233 346 C 247 319 265 296 285 277 C 305 257 328 242 354 232 C 380 222 410 217 444 217 C 479 217 511 223 539 236 C 567 249 591 267 611 291 C 631 314 646 342 656 374 C 666 406 672 442 672 481 C 672 547 651 597 609 631 C 567 665 499 682 406 682 L 336 682 L 371 911 L 494 911 C 580 911 644 931 686 971 C 727 1011 748 1073 748 1157 C 748 1175 745 1193 740 1209 C 734 1225 726 1240 714 1252 C 702 1264 686 1274 666 1281 C 646 1288 622 1292 594 1292 C 548 1292 503 1280 458 1258 C 412 1235 370 1200 330 1153 L 135 1305 C 199 1387 273 1447 356 1486 C 438 1524 531 1544 633 1544 C 703 1544 764 1535 817 1517 C 869 1499 913 1475 949 1444 C 984 1413 1010 1377 1028 1335 C 1046 1293 1055 1247 1055 1198 C 1055 1143 1047 1093 1031 1049 C 1015 1005 994 966 966 933 C 938 900 905 872 867 850 C 829 828 787 811 743 801 C 816 778 873 739 913 685 C 953 630 973 561 973 479 C 973 393 958 318 930 255 C 901 191 862 139 814 97 C 766 55 710 23 646 3 C 582 -16 514 -27 444 -27 Z" unicode="3" />
<glyph horiz-adv-x="1165" d="M 565 319 L -33 319 L 2 532 L 717 1516 L 1051 1516 L 899 553 L 1106 553 L 1069 319 L 862 319 L 811 0 L 514 0 L 565 319 Z M 606 553 L 696 1114 L 694 1114 L 299 553 L 606 553 Z" unicode="4" />
<glyph horiz-adv-x="1069" d="M 457 -29 C 381 -29 315 -20 259 -4 C 203 12 154 36 114 66 C 73 96 39 132 13 174 C -12 216 -33 263 -49 315 L 209 426 C 219 396 231 368 245 342 C 259 316 275 294 295 275 C 314 256 336 241 362 231 C 388 220 417 215 451 215 C 485 215 517 222 547 237 C 577 251 602 273 624 303 C 646 332 663 369 675 414 C 687 459 694 512 694 573 C 694 640 679 691 651 726 C 623 760 580 778 524 778 C 484 778 445 769 408 753 C 371 736 336 707 303 666 L 92 715 L 268 1516 L 1059 1516 L 1001 1253 L 473 1253 L 393 915 C 417 944 452 968 497 987 C 541 1006 593 1016 653 1016 C 713 1016 765 1006 809 988 C 853 969 889 943 918 909 C 947 875 969 833 983 785 C 997 737 1004 683 1004 623 C 1004 511 989 415 959 333 C 929 251 889 184 839 130 C 789 76 731 36 665 10 C 599 -15 529 -29 457 -29 Z" unicode="5" />
<glyph horiz-adv-x="1116" d="M 506 -29 C 430 -29 363 -16 305 8 C 247 32 198 68 160 115 C 121 162 92 220 72 289 C 52 357 43 436 43 524 C 43 674 58 812 90 937 C 121 1062 165 1170 222 1260 C 279 1350 348 1419 428 1469 C 508 1519 598 1544 696 1544 C 763 1544 821 1536 869 1521 C 917 1505 957 1485 990 1461 C 1022 1436 1048 1408 1068 1376 C 1088 1344 1103 1312 1114 1280 L 852 1153 C 844 1171 836 1188 826 1206 C 816 1223 805 1238 791 1252 C 777 1266 760 1277 741 1285 C 722 1293 700 1298 674 1298 C 640 1298 608 1289 579 1273 C 550 1256 523 1230 499 1195 C 475 1160 453 1115 433 1060 C 413 1005 395 940 379 864 C 432 906 485 935 537 952 C 589 968 638 977 682 977 C 740 977 791 967 836 948 C 881 928 919 901 950 866 C 980 831 1004 789 1020 740 C 1036 690 1044 635 1044 575 C 1044 479 1030 394 1003 320 C 975 245 937 182 889 130 C 841 78 784 39 718 12 C 652 -15 582 -29 506 -29 Z M 528 207 C 560 207 590 214 618 230 C 645 245 668 267 688 296 C 707 325 722 361 733 404 C 744 446 750 495 750 549 C 750 574 747 598 741 620 C 735 642 726 661 712 677 C 698 693 680 705 658 715 C 636 724 608 729 575 729 C 529 729 487 721 447 705 C 407 689 372 667 342 639 C 338 587 336 541 336 500 C 336 400 351 326 382 278 C 413 230 462 207 528 207 Z" unicode="6" />
<glyph horiz-adv-x="942" d="M 684 1253 L 102 1253 L 143 1516 L 1042 1516 L 1004 1272 L 311 0 L -4 0 L 684 1253 Z" unicode="7" />
<glyph horiz-adv-x="1110" d="M 485 -29 C 396 -29 320 -19 256 0 C 192 18 139 44 97 77 C 55 110 25 149 5 194 C -15 238 -25 286 -25 338 C -25 394 -15 444 2 489 C 20 534 46 575 78 612 C 110 648 149 682 193 712 C 237 742 284 770 336 796 C 311 816 288 837 266 860 C 244 882 226 907 210 934 C 194 960 181 989 172 1020 C 162 1051 158 1085 158 1122 C 158 1181 169 1236 191 1288 C 213 1339 244 1384 286 1422 C 327 1460 377 1489 437 1511 C 496 1533 563 1544 637 1544 C 717 1544 785 1533 842 1513 C 898 1493 944 1466 980 1433 C 1016 1400 1042 1362 1058 1320 C 1074 1278 1083 1234 1083 1190 C 1083 1098 1057 1018 1007 950 C 956 882 884 826 791 782 C 821 760 849 737 877 713 C 904 689 928 662 949 633 C 970 603 987 571 999 535 C 1011 499 1018 460 1018 416 C 1018 344 1005 281 979 226 C 953 170 916 124 869 86 C 822 48 766 20 701 0 C 635 -19 563 -29 485 -29 Z M 709 412 C 709 438 704 462 694 485 C 684 507 671 529 655 549 C 638 569 618 588 596 606 C 574 624 550 642 526 660 C 486 638 452 617 422 597 C 392 576 368 554 348 531 C 328 508 314 484 304 458 C 294 432 289 403 289 371 C 289 347 292 325 300 305 C 308 284 320 266 336 250 C 352 234 372 222 397 213 C 421 203 451 199 485 199 C 517 199 546 203 574 213 C 601 222 625 236 645 254 C 665 272 680 295 692 321 C 703 347 709 378 709 412 Z M 455 1124 C 455 1100 458 1079 466 1059 C 473 1039 483 1021 496 1004 C 509 986 524 970 542 954 C 560 938 579 922 601 908 C 663 941 709 977 739 1017 C 769 1056 784 1103 784 1159 C 784 1177 781 1196 776 1214 C 771 1232 763 1247 751 1261 C 739 1275 723 1286 703 1294 C 683 1302 659 1307 629 1307 C 601 1307 576 1302 554 1293 C 532 1283 514 1270 500 1254 C 485 1238 474 1218 466 1196 C 458 1174 455 1150 455 1124 Z" unicode="8" />
<glyph horiz-adv-x="1116" d="M 424 -29 C 356 -29 299 -21 251 -6 C 203 9 163 29 130 54 C 97 79 71 108 51 140 C 31 172 16 204 6 238 L 268 362 C 277 338 287 317 297 299 C 307 280 318 264 332 251 C 345 238 361 228 379 221 C 397 214 420 211 446 211 C 481 211 513 219 543 237 C 573 254 600 281 624 317 C 648 353 669 398 689 454 C 708 509 725 575 741 651 C 687 609 634 580 582 564 C 530 548 482 541 438 541 C 380 541 328 550 283 569 C 238 588 200 615 170 650 C 139 684 116 726 100 775 C 84 824 76 879 76 940 C 76 1035 89 1120 117 1195 C 144 1269 182 1332 230 1384 C 278 1436 335 1475 401 1503 C 467 1530 538 1544 614 1544 C 690 1544 757 1531 815 1507 C 873 1483 921 1447 960 1400 C 998 1353 1027 1295 1047 1227 C 1067 1158 1077 1079 1077 991 C 1077 840 1061 702 1031 577 C 1001 452 957 345 901 255 C 844 165 775 95 695 45 C 614 -4 524 -29 424 -29 Z M 547 786 C 592 786 634 794 673 810 C 712 826 747 849 778 877 C 781 902 783 926 784 950 C 785 973 786 995 786 1016 C 786 1115 770 1187 738 1232 C 706 1277 658 1300 592 1300 C 560 1300 530 1292 503 1278 C 475 1264 452 1243 433 1215 C 413 1187 398 1152 387 1111 C 376 1070 371 1023 371 969 C 371 943 373 918 379 896 C 385 874 394 854 408 838 C 422 822 440 809 462 800 C 484 790 513 786 547 786 Z" unicode="9" />
<glyph horiz-adv-x="520" d="M 160 1092 L 469 1092 L 420 780 L 111 780 L 160 1092 Z M 35 311 L 346 311 L 297 0 L -14 0 L 35 311 Z" unicode=":" />
<glyph horiz-adv-x="520" d="M 160 1092 L 469 1092 L 420 780 L 111 780 L 160 1092 Z M 104 0 L -14 0 L 35 311 L 346 311 L 303 39 L 123 -229 L -18 -229 L 104 0 Z" unicode=";" />
<glyph horiz-adv-x="1182" d="M 115 569 L 115 760 L 1036 1208 L 1036 950 L 416 664 L 1036 379 L 1036 121 L 115 569 Z" unicode="&#x3C;" />
<glyph horiz-adv-x="1157" d="M 121 1006 L 1036 1006 L 1036 778 L 121 778 L 121 1006 Z M 121 559 L 1036 559 L 1036 334 L 121 334 L 121 559 Z" unicode="=" />
<glyph horiz-adv-x="1182" d="M 139 379 L 760 664 L 139 950 L 139 1208 L 1061 760 L 1061 569 L 139 121 L 139 379 Z" unicode="&#x3E;" />
<glyph horiz-adv-x="1022" d="M 307 449 C 307 507 313 558 326 602 C 338 646 355 686 375 721 C 395 756 418 787 444 814 C 470 841 496 866 523 889 C 549 912 575 934 601 955 C 627 976 650 998 670 1021 C 690 1043 706 1067 718 1093 C 730 1119 737 1148 737 1182 C 737 1216 725 1243 703 1263 C 681 1283 648 1294 604 1294 C 581 1294 559 1289 537 1280 C 515 1271 494 1259 474 1243 C 454 1227 435 1208 417 1186 C 399 1164 383 1141 369 1116 L 133 1206 C 161 1259 191 1306 225 1348 C 259 1390 296 1425 337 1454 C 378 1483 423 1505 472 1521 C 521 1536 575 1544 635 1544 C 705 1544 766 1535 816 1517 C 866 1499 908 1476 940 1446 C 972 1416 995 1381 1010 1342 C 1024 1302 1032 1261 1032 1219 C 1032 1169 1025 1125 1012 1087 C 999 1049 982 1016 962 986 C 941 956 917 929 890 905 C 863 881 835 857 807 834 C 779 811 751 787 723 763 C 695 739 670 712 648 682 C 625 652 606 618 591 580 C 575 542 566 499 563 449 L 307 449 Z M 244 291 L 573 291 L 526 0 L 199 0 L 244 291 Z" unicode="?" />
<glyph horiz-adv-x="1544" d="M 772 -29 C 664 -29 567 -11 481 23 C 395 57 323 108 263 174 C 203 240 157 322 125 420 C 93 518 78 630 78 756 C 78 876 95 984 129 1082 C 163 1179 212 1262 274 1330 C 336 1398 410 1451 497 1488 C 583 1525 679 1544 784 1544 C 888 1544 984 1525 1070 1489 C 1156 1453 1229 1401 1291 1335 C 1352 1268 1400 1187 1434 1093 C 1468 999 1485 894 1485 778 C 1485 704 1477 639 1462 582 C 1446 525 1423 477 1393 438 C 1363 398 1325 368 1281 348 C 1237 327 1186 317 1128 317 C 1091 317 1059 321 1031 329 C 1003 337 979 349 959 363 C 938 377 921 394 907 414 C 893 434 882 455 874 479 C 859 458 843 439 825 421 C 807 403 788 387 766 373 C 744 359 721 349 696 341 C 671 333 644 330 614 330 C 575 330 541 338 511 354 C 481 370 455 393 435 423 C 414 453 398 489 388 532 C 378 575 373 624 375 678 C 376 760 385 833 402 899 C 418 964 441 1020 471 1066 C 500 1112 535 1147 576 1171 C 616 1195 661 1208 711 1208 C 761 1208 801 1198 832 1178 C 862 1158 887 1132 907 1100 L 918 1190 L 1145 1190 L 1067 590 C 1061 537 1065 500 1081 478 C 1097 456 1125 446 1165 446 C 1191 446 1215 452 1237 464 C 1259 476 1279 495 1295 522 C 1311 548 1324 582 1334 624 C 1343 666 1348 716 1348 776 C 1348 877 1334 967 1307 1047 C 1279 1127 1241 1194 1191 1249 C 1141 1303 1081 1345 1011 1374 C 941 1402 864 1417 780 1417 C 695 1417 618 1402 549 1373 C 480 1344 421 1302 372 1246 C 323 1190 285 1122 259 1040 C 232 958 219 864 219 758 C 219 644 232 545 258 461 C 284 377 322 308 371 254 C 419 200 478 159 547 133 C 615 107 692 94 778 94 C 842 94 906 101 969 117 C 1031 132 1087 155 1135 186 L 1196 86 C 1170 67 1140 50 1107 36 C 1073 22 1038 10 1001 0 C 964 -9 926 -16 887 -21 C 848 -26 810 -29 772 -29 Z M 711 520 C 734 520 756 525 777 537 C 798 549 818 564 838 584 L 885 952 C 868 971 850 986 832 996 C 814 1006 792 1012 768 1012 C 743 1012 721 1004 702 990 C 683 975 667 954 654 927 C 640 900 630 868 622 830 C 614 792 610 751 610 705 C 608 643 614 596 629 566 C 644 535 671 520 711 520 Z" unicode="@" />
<glyph horiz-adv-x="1219" d="M 582 1522 L 883 1522 L 1075 0 L 768 0 L 739 319 L 328 319 L 199 0 L -96 0 L 582 1522 Z M 428 561 L 717 561 L 702 715 C 698 755 695 793 691 828 C 687 862 683 896 680 929 C 676 961 673 994 671 1026 C 668 1058 666 1092 666 1128 L 662 1128 C 649 1092 636 1058 624 1026 C 611 994 598 962 584 930 C 570 898 556 864 541 830 C 526 795 510 757 492 717 L 428 561 Z" unicode="A" />
<glyph horiz-adv-x="1214" d="M 248 1516 L 668 1516 C 742 1516 810 1510 872 1498 C 933 1486 985 1466 1029 1440 C 1073 1414 1107 1379 1131 1337 C 1155 1295 1167 1244 1167 1184 C 1167 1112 1157 1053 1138 1005 C 1119 957 1095 918 1065 888 C 1035 857 1002 833 966 817 C 930 800 894 787 860 778 L 860 774 C 892 766 923 755 951 741 C 979 726 1003 707 1024 683 C 1044 659 1060 630 1072 596 C 1084 562 1090 522 1090 477 C 1090 413 1082 356 1067 308 C 1051 259 1031 217 1005 182 C 979 146 948 117 914 94 C 880 70 843 52 805 38 C 767 24 728 14 688 8 C 648 2 609 0 573 0 L 8 0 L 248 1516 Z M 645 885 C 676 885 705 888 732 896 C 758 904 781 916 801 934 C 821 952 836 975 847 1004 C 858 1033 864 1069 864 1112 C 864 1160 847 1197 815 1223 C 782 1249 727 1262 649 1262 L 510 1262 L 451 885 L 645 885 Z M 565 244 C 638 244 695 264 736 305 C 776 346 797 409 797 494 C 797 550 777 593 739 622 C 701 651 642 666 563 666 L 416 666 L 348 244 L 565 244 Z" unicode="B" />
<glyph horiz-adv-x="1219" d="M 567 -27 C 484 -27 410 -14 346 10 C 281 34 226 71 182 121 C 138 170 104 231 81 305 C 58 378 47 463 47 561 C 47 714 64 851 98 973 C 132 1095 179 1198 240 1282 C 300 1366 372 1431 456 1476 C 540 1521 631 1544 731 1544 C 817 1544 889 1531 948 1507 C 1006 1483 1054 1448 1090 1403 C 1126 1358 1151 1304 1167 1240 C 1183 1176 1191 1104 1192 1024 L 895 971 C 893 1023 890 1068 884 1107 C 878 1145 868 1177 854 1203 C 840 1229 820 1248 796 1261 C 772 1273 740 1280 702 1280 C 664 1280 630 1270 599 1250 C 567 1230 539 1202 514 1168 C 488 1133 466 1092 447 1045 C 428 997 412 947 399 893 C 386 839 376 782 370 724 C 363 665 360 607 360 549 C 360 447 377 368 411 312 C 445 256 498 229 571 229 C 602 229 630 235 656 247 C 681 259 704 279 726 305 C 747 331 767 365 786 407 C 805 449 824 499 844 557 L 1128 510 C 1104 430 1074 357 1040 291 C 1005 225 964 168 918 121 C 872 74 819 38 761 12 C 703 -14 638 -27 567 -27 Z" unicode="C" />
<glyph horiz-adv-x="1262" d="M 248 1516 L 561 1516 C 667 1516 760 1505 842 1484 C 924 1463 993 1430 1049 1384 C 1105 1338 1147 1279 1176 1207 C 1204 1134 1219 1046 1219 944 C 1219 908 1217 871 1214 833 C 1210 795 1205 755 1198 713 C 1182 614 1161 528 1134 454 C 1106 380 1074 317 1037 265 C 1000 212 959 168 914 134 C 869 100 821 73 771 53 C 720 33 667 19 612 11 C 556 3 500 0 444 0 L 8 0 L 248 1516 Z M 479 260 C 537 260 589 267 634 283 C 678 298 717 324 750 361 C 782 397 810 446 832 508 C 854 569 872 645 887 737 C 899 809 905 873 905 930 C 905 1040 880 1122 831 1174 C 782 1226 704 1253 598 1253 L 516 1253 L 358 260 L 479 260 Z" unicode="D" />
<glyph horiz-adv-x="1057" d="M 248 1516 L 1094 1516 L 1053 1253 L 516 1253 L 463 911 L 844 911 L 805 666 L 424 666 L 358 256 L 924 256 L 883 0 L 8 0 L 248 1516 Z" unicode="E" />
<glyph horiz-adv-x="991" d="M 248 1516 L 1077 1516 L 1036 1253 L 516 1253 L 459 879 L 825 879 L 784 631 L 418 631 L 317 0 L 8 0 L 248 1516 Z" unicode="F" />
<glyph horiz-adv-x="1282" d="M 510 -27 C 432 -27 364 -13 306 14 C 248 41 199 80 161 130 C 123 180 94 240 75 312 C 56 383 47 463 47 551 C 47 646 54 737 68 823 C 82 909 102 988 129 1062 C 155 1136 188 1202 227 1262 C 266 1321 310 1371 360 1413 C 410 1455 465 1487 525 1510 C 585 1532 651 1544 721 1544 C 805 1544 876 1533 935 1513 C 993 1493 1041 1461 1079 1419 C 1116 1377 1143 1323 1161 1258 C 1179 1192 1188 1114 1190 1024 L 899 967 C 897 1024 892 1072 884 1112 C 876 1152 865 1184 850 1209 C 834 1234 814 1252 790 1263 C 766 1274 736 1280 702 1280 C 668 1280 636 1271 606 1253 C 576 1235 548 1211 523 1179 C 497 1147 474 1108 454 1064 C 434 1019 417 970 403 916 C 389 862 378 804 371 743 C 363 681 360 618 360 553 C 360 495 365 446 375 405 C 385 364 400 331 419 305 C 438 279 461 259 489 247 C 516 235 547 229 582 229 C 612 229 642 235 670 248 C 698 260 724 279 748 304 C 771 328 792 359 810 395 C 828 431 843 472 854 520 L 643 520 L 680 754 L 1171 754 L 1051 0 L 823 0 L 852 180 L 848 180 C 834 154 817 129 797 104 C 777 79 753 57 725 38 C 697 18 665 3 629 -9 C 593 -21 554 -27 510 -27 Z" unicode="G" />
<glyph horiz-adv-x="1305" d="M 248 1516 L 557 1516 L 465 922 L 895 922 L 989 1516 L 1300 1516 L 1061 0 L 750 0 L 856 664 L 424 664 L 317 0 L 8 0 L 248 1516 Z" unicode="H" />
<glyph horiz-adv-x="584" d="M 258 1516 L 569 1516 L 330 0 L 18 0 L 258 1516 Z" unicode="I" />
<glyph horiz-adv-x="930" d="M 319 -23 C 230 -23 152 -12 86 8 C 19 29 -38 57 -86 92 L 74 319 C 106 296 141 278 181 264 C 221 250 259 244 297 244 C 344 244 380 256 406 282 C 432 308 450 351 461 412 L 635 1516 L 946 1516 L 766 379 C 745 248 698 148 624 80 C 550 11 449 -23 319 -23 Z" unicode="J" />
<glyph horiz-adv-x="1221" d="M 248 1516 L 555 1516 L 456 890 C 468 906 481 923 494 941 C 507 959 520 976 532 992 C 544 1008 556 1024 567 1038 C 577 1052 586 1063 594 1073 L 946 1516 L 1278 1516 L 778 916 L 1087 0 L 762 0 L 542 666 L 393 497 L 315 0 L 8 0 L 248 1516 Z" unicode="K" />
<glyph horiz-adv-x="1028" d="M 248 1516 L 557 1516 L 358 256 L 907 256 L 866 0 L 8 0 L 248 1516 Z" unicode="L" />
<glyph horiz-adv-x="1550" d="M 248 1516 L 643 1516 L 727 432 L 729 432 L 1143 1516 L 1544 1516 L 1305 0 L 1010 0 L 1180 1065 L 1176 1065 C 1169 1039 1160 1010 1150 978 C 1140 946 1129 913 1117 879 C 1105 845 1092 812 1080 780 C 1067 747 1055 718 1044 692 L 758 0 L 528 0 L 463 692 C 460 716 458 745 456 778 C 454 810 453 844 452 879 C 451 913 450 947 450 981 C 450 1015 450 1045 451 1073 L 446 1073 L 279 0 L 8 0 L 248 1516 Z" unicode="M" />
<glyph horiz-adv-x="1315" d="M 248 1516 L 567 1516 L 797 836 C 805 809 813 785 820 765 C 826 744 832 724 838 705 C 843 685 848 665 854 645 C 859 624 864 601 870 575 L 874 575 L 1024 1516 L 1305 1516 L 1065 0 L 778 0 L 514 735 C 501 770 489 805 477 841 C 465 876 454 916 444 961 L 440 961 L 289 0 L 8 0 L 248 1516 Z" unicode="N" />
<glyph horiz-adv-x="1315" d="M 573 -29 C 495 -29 423 -16 359 10 C 295 36 240 74 194 126 C 148 178 112 242 87 318 C 61 394 49 483 49 584 C 49 736 67 872 104 992 C 141 1111 191 1211 254 1293 C 317 1375 391 1437 475 1480 C 559 1522 648 1544 743 1544 C 820 1544 891 1530 955 1504 C 1019 1478 1075 1439 1121 1387 C 1167 1335 1203 1270 1229 1193 C 1255 1116 1268 1027 1268 926 C 1268 772 1249 636 1212 518 C 1175 399 1125 299 1062 218 C 998 137 924 76 840 34 C 756 -8 667 -29 573 -29 Z M 588 229 C 626 229 662 238 695 256 C 728 274 758 300 785 333 C 812 365 836 404 857 449 C 878 494 896 543 910 596 C 924 648 935 704 943 763 C 950 821 954 881 954 942 C 954 1048 935 1131 898 1191 C 860 1250 803 1280 727 1280 C 667 1280 615 1260 569 1220 C 523 1180 485 1126 455 1060 C 424 994 401 918 385 832 C 369 746 362 658 362 567 C 362 514 366 467 376 425 C 385 383 399 347 418 318 C 436 289 460 267 488 252 C 516 236 550 229 588 229 Z" unicode="O" />
<glyph horiz-adv-x="1153" d="M 248 1516 L 629 1516 C 704 1516 773 1508 836 1492 C 899 1476 953 1452 999 1418 C 1045 1384 1080 1341 1106 1289 C 1132 1237 1145 1174 1145 1100 C 1145 1024 1137 958 1122 900 C 1106 842 1085 793 1058 751 C 1031 709 999 673 963 645 C 927 617 888 594 846 577 C 804 560 761 548 715 541 C 669 533 624 530 580 530 L 397 530 L 313 0 L 8 0 L 248 1516 Z M 578 774 C 616 774 652 779 685 790 C 717 800 745 817 769 841 C 792 865 810 896 824 934 C 837 972 844 1019 844 1075 C 844 1133 826 1178 792 1209 C 758 1239 702 1255 625 1255 L 512 1255 L 436 774 L 578 774 Z" unicode="P" />
<glyph horiz-adv-x="1315" d="M 801 -406 C 713 -406 640 -396 583 -377 C 525 -358 481 -331 449 -295 C 417 -259 397 -215 388 -164 C 379 -112 379 -54 387 11 C 335 27 288 52 246 84 C 204 116 169 156 140 204 C 110 252 88 307 72 370 C 56 433 49 504 49 584 C 49 736 67 872 104 992 C 141 1111 191 1211 254 1293 C 317 1375 391 1437 475 1480 C 559 1522 648 1544 743 1544 C 820 1544 891 1530 955 1504 C 1019 1478 1075 1439 1121 1387 C 1167 1335 1203 1270 1229 1193 C 1255 1116 1268 1027 1268 926 C 1268 786 1252 662 1222 553 C 1191 443 1149 349 1096 271 C 1042 193 980 130 908 84 C 836 37 759 7 677 -7 C 676 -37 679 -62 687 -82 C 694 -101 706 -116 724 -127 C 742 -137 765 -144 795 -148 C 825 -152 862 -154 907 -154 L 979 -154 L 940 -406 L 801 -406 Z M 588 229 C 626 229 662 238 695 256 C 728 274 758 300 785 333 C 812 365 836 404 857 449 C 878 494 896 543 910 596 C 924 648 935 704 943 763 C 950 821 954 881 954 942 C 954 1048 935 1131 898 1191 C 860 1250 803 1280 727 1280 C 667 1280 615 1260 569 1220 C 523 1180 485 1126 455 1060 C 424 994 401 918 385 832 C 369 746 362 658 362 567 C 362 514 366 467 376 425 C 385 383 399 347 418 318 C 436 289 460 267 488 252 C 516 236 550 229 588 229 Z" unicode="Q" />
<glyph horiz-adv-x="1194" d="M 529 563 L 399 563 L 311 0 L 8 0 L 248 1516 L 641 1516 C 807 1516 933 1482 1019 1414 C 1105 1346 1149 1246 1149 1114 C 1149 1064 1144 1016 1136 969 C 1127 921 1111 876 1087 834 C 1063 792 1031 753 990 717 C 948 681 895 650 829 624 L 1012 0 L 696 0 L 529 563 Z M 596 799 C 630 799 662 803 692 812 C 722 820 748 835 771 857 C 794 879 812 908 826 944 C 839 980 846 1027 846 1083 C 846 1143 828 1186 792 1214 C 756 1241 701 1255 627 1255 L 510 1255 L 436 799 L 596 799 Z" unicode="R" />
<glyph horiz-adv-x="1184" d="M 537 -27 C 451 -27 377 -18 315 0 C 253 17 200 41 157 73 C 114 105 79 143 52 187 C 24 231 2 280 -14 334 L 256 459 C 267 427 281 396 297 367 C 313 338 332 313 356 291 C 379 269 406 252 438 240 C 470 227 507 221 549 221 C 577 221 604 225 628 233 C 652 241 673 253 691 269 C 709 285 723 304 733 328 C 743 351 748 378 748 408 C 748 438 739 466 723 490 C 706 514 684 536 657 558 C 629 579 598 599 563 619 C 528 639 492 659 456 681 C 419 703 383 726 348 751 C 313 775 282 803 255 835 C 227 867 205 902 189 942 C 172 982 164 1027 164 1079 C 164 1158 178 1227 206 1285 C 234 1343 271 1392 317 1430 C 363 1468 415 1497 475 1516 C 534 1534 595 1544 659 1544 C 735 1544 800 1535 856 1518 C 911 1501 958 1477 997 1447 C 1036 1417 1068 1381 1093 1340 C 1117 1298 1137 1254 1153 1206 L 891 1075 C 880 1107 868 1136 854 1162 C 840 1188 823 1210 804 1229 C 784 1247 762 1262 736 1272 C 710 1282 679 1288 645 1288 C 620 1288 597 1284 576 1276 C 555 1268 537 1256 522 1242 C 506 1228 494 1210 486 1190 C 477 1169 473 1146 473 1120 C 473 1090 481 1062 498 1038 C 514 1014 536 991 564 970 C 591 948 622 928 657 908 C 692 888 728 867 765 845 C 801 823 837 799 872 774 C 907 748 938 720 966 688 C 993 656 1015 620 1032 580 C 1048 540 1057 494 1057 444 C 1057 371 1044 306 1020 248 C 995 190 960 140 915 100 C 869 59 815 28 751 6 C 687 -16 615 -27 537 -27 Z" unicode="S" />
<glyph horiz-adv-x="1079" d="M 463 1253 L 113 1253 L 154 1516 L 1167 1516 L 1124 1253 L 774 1253 L 575 0 L 266 0 L 463 1253 Z" unicode="T" />
<glyph horiz-adv-x="1231" d="M 532 -27 C 432 -27 349 -13 284 13 C 218 40 168 78 132 128 C 96 178 74 238 66 308 C 57 378 60 457 74 545 L 227 1516 L 539 1516 L 385 543 C 377 490 373 444 374 406 C 375 368 382 336 394 311 C 406 286 424 268 448 256 C 472 244 504 238 543 238 C 581 238 614 244 642 256 C 670 268 694 286 714 311 C 734 336 750 368 763 406 C 776 444 787 489 795 541 L 948 1516 L 1245 1516 L 1087 510 C 1073 422 1051 345 1022 278 C 993 211 956 155 910 110 C 864 64 810 30 748 7 C 685 -15 613 -27 532 -27 Z" unicode="U" />
<glyph horiz-adv-x="1182" d="M 145 1516 L 457 1516 L 512 799 C 518 724 523 653 528 586 C 533 519 537 455 541 395 L 545 395 C 567 457 592 521 618 586 C 644 650 672 720 702 795 L 989 1516 L 1280 1516 L 623 -6 L 322 -6 L 145 1516 Z" unicode="V" />
<glyph horiz-adv-x="1634" d="M 152 1516 L 442 1516 L 461 907 C 461 869 462 835 463 805 C 464 775 465 745 466 715 C 466 685 467 654 467 621 C 467 587 467 548 467 504 L 469 504 C 481 541 492 575 502 607 C 512 638 522 669 532 700 C 542 730 553 762 564 795 C 575 827 588 864 602 905 L 811 1516 L 1090 1516 L 1106 895 C 1106 861 1107 827 1108 795 C 1109 763 1110 731 1111 699 C 1111 667 1111 634 1111 602 C 1111 570 1110 536 1110 502 L 1114 502 C 1130 557 1150 616 1172 679 C 1194 741 1217 812 1243 891 L 1450 1516 L 1726 1516 L 1159 -6 L 889 -6 L 858 993 L 854 993 L 508 -6 L 240 -6 L 152 1516 Z" unicode="W" />
<glyph horiz-adv-x="1212" d="M 548 511 L 240 0 L -84 0 L 448 801 L 201 1516 L 520 1516 L 676 1059 L 940 1516 L 1257 1516 L 772 779 L 1038 0 L 725 0 L 548 511 Z" unicode="X" />
<glyph horiz-adv-x="1157" d="M 397 596 L 127 1516 L 438 1516 L 598 879 L 602 879 L 963 1516 L 1272 1516 L 709 596 L 614 0 L 303 0 L 397 596 Z" unicode="Y" />
<glyph horiz-adv-x="1108" d="M -39 225 L 756 1253 L 170 1253 L 213 1516 L 1165 1516 L 1128 1284 L 344 256 L 967 256 L 926 0 L -74 0 L -39 225 Z" unicode="Z" />
<glyph horiz-adv-x="772" d="M 236 1516 L 850 1516 L 815 1296 L 510 1296 L 272 -195 L 578 -195 L 545 -410 L -70 -410 L 236 1516 Z" unicode="[" />
<glyph horiz-adv-x="1077" d="M 139 1516 L 432 1516 L 940 0 L 647 0 L 139 1516 Z" unicode="\" />
<glyph horiz-adv-x="772" d="M -106 -195 L 199 -195 L 436 1296 L 131 1296 L 164 1516 L 778 1516 L 473 -410 L -141 -410 L -106 -195 Z" unicode="]" />
<glyph horiz-adv-x="1182" d="M 502 1516 L 680 1516 L 1106 719 L 836 719 L 592 1194 L 346 719 L 78 719 L 502 1516 Z" unicode="^" />
<glyph horiz-adv-x="895" d="M -150 -94 L 776 -94 L 743 -311 L -184 -311 L -150 -94 Z" unicode="_" />
<glyph horiz-adv-x="985" d="M 311 1542 L 598 1542 L 709 1202 L 512 1202 L 311 1542 Z" unicode="`" />
<glyph horiz-adv-x="997" d="M 219 -14 C 181 -14 147 -8 116 3 C 84 14 57 31 35 53 C 12 75 -5 102 -18 134 C -31 166 -38 202 -39 244 C -39 316 -24 379 5 432 C 34 485 76 530 132 567 C 187 603 254 633 334 655 C 414 677 504 695 604 707 L 610 754 C 616 795 614 826 602 846 C 590 866 563 877 522 877 C 466 877 413 867 362 848 C 310 829 263 805 219 776 L 109 961 C 181 1016 257 1055 338 1079 C 418 1102 501 1114 586 1114 C 654 1114 710 1106 756 1092 C 801 1077 836 1055 861 1025 C 886 995 902 958 908 913 C 914 868 913 815 903 754 L 827 266 C 815 200 808 146 806 104 C 803 62 805 28 811 0 L 512 0 C 508 20 506 40 506 60 C 505 79 508 104 514 135 C 490 109 467 87 445 69 C 422 50 399 34 376 22 C 352 10 328 1 302 -5 C 276 -11 249 -14 219 -14 Z M 369 219 C 405 219 436 226 462 240 C 488 254 513 271 537 293 L 578 547 C 520 537 471 525 431 511 C 391 497 359 480 335 462 C 310 443 292 422 282 398 C 271 374 266 347 266 317 C 266 287 275 263 294 245 C 312 227 337 219 369 219 Z" unicode="a" />
<glyph horiz-adv-x="1073" d="M 223 1516 L 526 1516 L 438 963 C 455 983 473 1003 493 1022 C 512 1040 533 1056 556 1070 C 579 1083 604 1094 631 1102 C 658 1110 688 1114 721 1114 C 765 1114 804 1106 840 1091 C 875 1075 905 1052 929 1021 C 953 989 972 950 986 903 C 999 855 1006 799 1006 735 C 1006 706 1004 675 1001 643 C 997 611 993 577 987 541 C 971 443 950 359 922 289 C 894 219 861 161 823 116 C 785 70 744 37 698 16 C 652 -5 603 -16 551 -16 C 486 -16 434 -4 395 18 C 356 40 325 71 303 109 L 287 0 L -16 0 L 223 1516 Z M 475 219 C 501 219 525 225 547 237 C 569 249 588 267 605 293 C 622 319 637 352 650 392 C 663 432 674 481 684 539 C 688 567 691 593 694 617 C 696 641 698 663 698 684 C 698 800 655 858 569 858 C 535 858 506 850 482 835 C 457 819 433 800 410 778 L 334 295 C 354 268 376 249 398 237 C 420 225 446 219 475 219 Z" unicode="b" />
<glyph horiz-adv-x="965" d="M 426 -23 C 364 -23 308 -13 257 5 C 205 23 161 52 124 90 C 87 128 58 175 37 232 C 16 289 6 356 6 432 C 6 520 14 599 31 667 C 47 735 70 795 98 845 C 126 895 158 938 194 972 C 230 1006 268 1034 307 1055 C 345 1076 384 1091 423 1100 C 461 1109 497 1114 530 1114 C 604 1114 665 1104 714 1086 C 763 1067 803 1042 833 1010 C 863 978 885 940 899 896 C 913 852 922 806 926 756 L 649 692 C 647 724 643 752 639 776 C 634 800 627 819 617 835 C 607 850 595 861 580 869 C 564 877 545 881 522 881 C 498 881 476 875 456 864 C 436 852 417 834 400 809 C 383 783 368 750 355 710 C 341 670 330 621 322 563 C 316 531 312 500 308 472 C 304 444 303 417 303 393 C 303 333 313 286 335 253 C 356 219 390 203 438 203 C 453 203 468 206 484 213 C 499 219 514 230 529 246 C 544 261 559 281 573 307 C 587 332 600 363 614 401 L 864 338 C 844 286 821 237 794 193 C 767 149 735 111 699 79 C 663 47 622 22 577 4 C 531 -14 481 -23 426 -23 Z" unicode="c" />
<glyph horiz-adv-x="1073" d="M 297 -16 C 205 -16 133 16 82 81 C 31 145 6 243 6 375 C 6 405 7 436 10 469 C 13 501 17 535 23 569 C 37 661 57 741 83 809 C 109 877 141 934 178 979 C 214 1024 255 1058 301 1080 C 346 1102 394 1114 446 1114 C 482 1114 514 1110 542 1103 C 570 1096 595 1087 617 1075 C 638 1063 656 1050 671 1035 C 685 1020 697 1005 707 989 L 791 1516 L 1092 1516 L 895 266 C 891 238 887 212 884 190 C 880 167 878 145 876 125 C 874 104 874 84 874 64 C 874 44 877 22 881 0 L 573 0 C 570 8 568 17 567 28 C 566 39 566 50 566 61 C 566 72 566 83 567 94 C 568 105 569 115 571 123 C 555 105 538 88 519 72 C 500 55 479 40 457 27 C 434 14 409 4 383 -4 C 356 -12 327 -16 297 -16 Z M 438 219 C 469 219 497 226 522 241 C 547 255 572 274 598 297 L 674 786 C 660 806 642 824 620 838 C 598 852 569 860 535 860 C 474 860 428 834 396 782 C 364 730 340 652 326 549 C 321 522 317 496 315 471 C 312 445 311 422 311 401 C 311 279 353 219 438 219 Z" unicode="d" />
<glyph horiz-adv-x="991" d="M 428 -23 C 365 -23 308 -14 256 4 C 204 22 160 49 123 86 C 86 122 57 168 37 224 C 16 279 6 344 6 418 C 6 496 13 568 27 633 C 41 697 60 755 84 807 C 108 859 137 904 170 942 C 203 980 239 1012 278 1038 C 317 1063 358 1082 401 1095 C 443 1107 486 1114 530 1114 C 592 1114 647 1106 695 1090 C 743 1074 784 1049 818 1015 C 851 981 876 937 894 884 C 911 831 920 768 920 694 C 920 668 918 642 915 614 C 912 586 909 557 905 526 L 897 471 L 300 471 C 298 449 297 429 297 410 C 297 338 310 286 338 253 C 365 219 406 203 461 203 C 483 203 505 206 527 214 C 549 222 570 232 590 245 C 610 258 628 273 646 290 C 664 307 680 325 694 344 L 854 197 C 798 129 735 76 665 36 C 595 -3 516 -23 428 -23 Z M 524 883 C 430 883 365 803 327 643 L 647 643 C 655 722 651 782 633 822 C 615 862 578 883 524 883 Z" unicode="e" />
<glyph horiz-adv-x="711" d="M 205 868 L 49 868 L 86 1092 L 240 1092 L 256 1192 C 263 1236 274 1279 288 1319 C 302 1359 324 1393 352 1423 C 380 1453 416 1476 461 1494 C 506 1511 563 1520 631 1520 C 651 1520 671 1519 691 1519 C 711 1519 729 1518 746 1518 C 763 1517 777 1516 789 1515 C 800 1514 807 1513 811 1513 L 776 1288 C 772 1288 768 1289 762 1290 C 756 1290 749 1291 741 1292 C 733 1292 726 1293 719 1293 C 711 1293 705 1294 700 1294 C 682 1294 664 1292 648 1290 C 632 1287 617 1281 605 1273 C 592 1265 581 1253 572 1238 C 563 1222 557 1202 553 1178 L 541 1092 L 735 1092 L 700 868 L 504 868 L 367 0 L 68 0 L 205 868 Z" unicode="f" />
<glyph horiz-adv-x="1057" d="M 457 326 C 423 326 391 328 362 333 C 332 337 305 344 280 353 C 269 343 262 334 258 326 C 254 317 252 308 252 299 C 252 291 253 285 256 280 C 259 275 264 271 271 267 C 278 263 288 259 300 256 C 312 253 327 250 346 248 L 485 227 C 559 216 620 203 670 188 C 719 172 758 154 788 133 C 817 111 838 86 850 58 C 862 29 868 -3 868 -41 C 868 -107 853 -163 825 -210 C 796 -256 758 -294 711 -324 C 663 -354 609 -375 548 -389 C 487 -403 424 -410 360 -410 C 262 -410 180 -403 115 -391 C 49 -378 -2 -361 -41 -339 C -79 -317 -107 -291 -123 -262 C -139 -232 -147 -201 -147 -168 C -147 -138 -142 -110 -133 -86 C -124 -61 -111 -39 -94 -19 C -76 1 -55 19 -30 36 C -5 52 22 68 54 82 C 30 99 13 118 4 138 C -5 158 -10 179 -10 199 C -10 245 5 287 36 326 C 67 364 108 396 159 422 C 123 454 96 493 79 537 C 61 581 53 628 53 678 C 53 749 65 812 89 866 C 113 920 145 966 187 1003 C 228 1039 276 1067 330 1086 C 384 1104 442 1114 504 1114 C 570 1114 630 1104 683 1084 C 736 1064 780 1036 816 998 C 834 1012 853 1026 875 1039 C 897 1052 919 1064 943 1075 C 966 1085 989 1094 1013 1101 C 1037 1108 1060 1113 1083 1116 L 1044 866 C 1029 866 1007 865 979 864 C 951 863 921 859 890 852 C 896 826 899 798 899 768 C 899 694 887 629 864 574 C 840 518 809 472 769 436 C 729 399 682 371 628 353 C 574 335 517 326 457 326 Z M 204 24 C 176 0 157 -24 147 -49 C 137 -73 133 -95 133 -115 C 133 -135 137 -153 145 -170 C 153 -186 167 -200 186 -212 C 205 -224 230 -233 262 -240 C 293 -246 331 -250 377 -250 C 408 -250 437 -247 463 -242 C 489 -236 512 -228 531 -216 C 550 -204 565 -190 576 -172 C 586 -154 592 -133 592 -109 C 592 -95 589 -84 584 -74 C 579 -64 570 -55 556 -47 C 542 -39 522 -32 497 -26 C 472 -19 439 -12 399 -6 L 240 18 L 204 24 Z M 459 512 C 508 512 548 533 579 577 C 609 620 625 682 625 764 C 625 808 615 842 595 868 C 575 894 545 907 504 907 C 454 907 414 886 384 846 C 353 806 338 744 338 662 C 338 617 347 581 367 553 C 386 525 417 512 459 512 Z" unicode="g" />
<glyph horiz-adv-x="1073" d="M 225 1516 L 526 1516 L 436 956 C 452 974 472 993 494 1012 C 516 1031 541 1048 569 1063 C 596 1078 626 1090 659 1100 C 691 1109 726 1114 764 1114 C 804 1114 840 1109 872 1099 C 903 1089 928 1072 948 1050 C 968 1027 981 997 988 961 C 995 924 995 879 987 827 L 856 0 L 555 0 L 670 731 C 677 773 675 804 664 826 C 652 847 629 858 594 858 C 564 858 532 849 499 833 C 466 816 436 797 408 776 L 287 0 L -16 0 L 225 1516 Z" unicode="h" />
<glyph horiz-adv-x="528" d="M 229 1493 L 532 1493 L 492 1231 L 190 1231 L 229 1493 Z M 168 1092 L 469 1092 L 297 0 L -6 0 L 168 1092 Z" unicode="i" />
<glyph horiz-adv-x="528" d="M 229 1493 L 532 1493 L 492 1231 L 190 1231 L 229 1493 Z M -63 -414 C -81 -414 -100 -413 -121 -413 C -141 -412 -161 -411 -179 -410 C -197 -409 -212 -408 -225 -407 C -237 -405 -245 -404 -248 -403 L -213 -188 C -210 -189 -206 -190 -200 -191 C -194 -192 -188 -193 -181 -193 C -174 -193 -167 -194 -160 -194 C -152 -194 -146 -195 -141 -195 C -70 -195 -28 -153 -16 -70 L 168 1092 L 469 1092 L 281 -102 C 273 -147 262 -189 248 -227 C 234 -265 213 -297 187 -325 C 161 -353 127 -374 87 -390 C 47 -406 -3 -414 -63 -414 Z" unicode="j" />
<glyph horiz-adv-x="1001" d="M 223 1516 L 520 1516 L 389 689 C 406 712 424 735 442 759 C 460 783 476 804 492 823 L 707 1092 L 1012 1092 L 663 686 L 862 0 L 559 0 L 436 447 L 332 327 L 281 0 L -16 0 L 223 1516 Z" unicode="k" />
<glyph horiz-adv-x="528" d="M 233 1516 L 537 1516 L 297 0 L -6 0 L 233 1516 Z" unicode="l" />
<glyph horiz-adv-x="1626" d="M 158 1092 L 459 1092 L 436 954 C 453 973 473 992 496 1012 C 519 1031 544 1048 572 1063 C 599 1078 628 1090 660 1100 C 691 1109 724 1114 758 1114 C 796 1114 828 1110 855 1104 C 882 1098 905 1088 923 1075 C 941 1062 955 1046 965 1026 C 975 1006 982 982 987 954 C 1005 974 1027 993 1051 1012 C 1075 1031 1101 1048 1129 1063 C 1157 1078 1186 1090 1218 1100 C 1249 1109 1281 1114 1315 1114 C 1409 1114 1473 1088 1509 1037 C 1544 985 1554 912 1540 817 L 1409 0 L 1108 0 L 1225 731 C 1228 751 1230 770 1230 786 C 1230 802 1227 815 1222 826 C 1216 836 1208 844 1197 850 C 1186 855 1171 858 1153 858 C 1119 858 1087 849 1056 833 C 1024 816 995 796 969 774 L 848 0 L 545 0 L 662 731 C 665 751 667 770 667 786 C 667 802 664 815 659 826 C 653 836 645 844 634 850 C 623 855 608 858 590 858 C 558 858 528 850 498 835 C 468 819 438 799 408 774 L 287 0 L -16 0 L 158 1092 Z" unicode="m" />
<glyph horiz-adv-x="1073" d="M 158 1092 L 459 1092 L 436 956 C 452 974 472 993 494 1012 C 516 1031 541 1048 569 1063 C 596 1078 626 1090 659 1100 C 691 1109 726 1114 764 1114 C 804 1114 840 1109 872 1099 C 903 1089 928 1072 948 1050 C 968 1027 981 997 988 961 C 995 924 995 879 987 827 L 856 0 L 555 0 L 670 731 C 677 773 675 804 664 826 C 652 847 629 858 594 858 C 564 858 532 849 499 833 C 466 816 436 797 408 776 L 287 0 L -16 0 L 158 1092 Z" unicode="n" />
<glyph horiz-adv-x="1044" d="M 430 -23 C 369 -23 313 -13 261 5 C 209 24 165 53 127 91 C 89 129 59 177 38 235 C 16 292 6 359 6 436 C 6 552 21 652 51 737 C 81 822 121 892 171 948 C 221 1004 278 1045 344 1073 C 409 1100 477 1114 547 1114 C 607 1114 663 1104 715 1086 C 767 1067 812 1039 850 1001 C 888 963 918 916 940 859 C 962 801 973 734 973 657 C 973 570 964 493 948 426 C 932 358 910 299 882 249 C 854 199 822 156 786 122 C 749 87 710 59 670 38 C 630 16 589 1 548 -8 C 506 -18 467 -23 430 -23 Z M 444 209 C 500 209 546 234 580 286 C 614 337 639 418 657 530 C 662 559 666 586 669 612 C 672 638 674 662 674 686 C 674 744 663 789 642 823 C 620 857 585 874 535 874 C 478 874 432 849 397 799 C 362 749 336 669 319 559 C 315 529 311 500 309 474 C 306 448 305 423 305 401 C 305 343 315 296 337 261 C 358 226 394 209 444 209 Z" unicode="o" />
<glyph horiz-adv-x="1073" d="M 158 1092 L 459 1092 L 438 963 C 455 983 473 1003 493 1022 C 512 1040 533 1056 556 1070 C 579 1083 604 1094 631 1102 C 658 1110 688 1114 721 1114 C 765 1114 804 1106 840 1091 C 875 1075 905 1052 929 1021 C 953 989 972 950 986 903 C 999 855 1006 799 1006 735 C 1006 706 1004 675 1001 643 C 997 611 993 577 987 541 C 971 443 950 359 922 289 C 894 219 861 161 823 116 C 785 70 744 37 698 16 C 652 -5 603 -16 551 -16 C 486 -16 434 -4 395 18 C 356 40 325 71 303 109 L 221 -410 L -82 -410 L 158 1092 Z M 475 219 C 501 219 525 225 547 237 C 569 249 588 267 605 293 C 622 319 637 352 650 392 C 663 432 674 481 684 539 C 688 567 691 593 694 617 C 696 641 698 663 698 684 C 698 800 655 858 569 858 C 535 858 506 850 482 835 C 457 819 433 800 410 778 L 334 295 C 354 268 376 249 398 237 C 420 225 446 219 475 219 Z" unicode="p" />
<glyph horiz-adv-x="1073" d="M 569 121 C 553 103 535 85 516 69 C 497 52 476 37 454 25 C 431 13 407 3 381 -4 C 355 -12 327 -16 297 -16 C 205 -16 133 16 81 81 C 29 145 4 243 4 375 C 4 403 5 434 8 467 C 10 500 14 534 20 569 C 35 666 57 749 85 818 C 113 887 146 943 183 987 C 220 1031 261 1063 305 1083 C 349 1103 396 1114 444 1114 C 480 1114 513 1110 541 1103 C 569 1096 594 1087 616 1075 C 637 1063 655 1050 670 1035 C 684 1020 697 1005 707 989 L 723 1092 L 1024 1092 L 786 -410 L 485 -410 L 569 121 Z M 438 219 C 470 219 499 226 523 241 C 547 255 571 274 596 297 L 674 786 C 658 806 640 824 618 838 C 596 852 567 860 532 860 C 504 860 480 854 458 843 C 436 831 417 813 400 789 C 383 764 368 732 356 692 C 343 652 332 605 324 549 C 319 520 315 493 313 469 C 310 444 309 421 309 401 C 309 340 319 294 340 264 C 361 234 394 219 438 219 Z" unicode="q" />
<glyph horiz-adv-x="735" d="M 158 1092 L 459 1092 L 432 930 L 436 930 C 452 952 469 975 489 997 C 508 1019 530 1039 555 1056 C 580 1073 608 1087 640 1098 C 672 1108 708 1114 750 1114 L 768 1112 L 721 838 C 719 838 715 838 709 838 C 703 838 697 839 691 840 C 685 840 678 841 672 841 C 666 841 661 842 657 842 C 627 842 600 839 576 833 C 551 827 528 820 508 810 C 487 800 468 789 450 775 C 432 761 416 747 401 731 L 287 0 L -16 0 L 158 1092 Z" unicode="r" />
<glyph horiz-adv-x="930" d="M 391 -25 C 327 -25 271 -20 223 -11 C 175 -2 132 10 95 27 C 58 44 26 65 -1 89 C -29 113 -54 140 -76 170 L 109 340 C 127 318 147 297 169 279 C 191 260 214 244 239 230 C 263 216 289 205 317 197 C 345 189 373 186 403 186 C 419 186 436 188 452 192 C 468 196 482 202 494 210 C 506 218 516 230 524 244 C 531 258 535 275 535 295 C 535 314 528 331 515 346 C 501 361 484 375 463 388 C 441 400 417 413 389 425 C 361 437 333 450 304 464 C 275 478 247 493 219 511 C 191 528 167 548 146 571 C 124 594 107 621 94 652 C 80 682 74 718 74 758 C 74 821 85 875 109 920 C 133 965 164 1002 202 1031 C 240 1059 284 1080 332 1094 C 380 1107 429 1114 479 1114 C 574 1114 656 1097 724 1064 C 792 1031 847 988 887 934 L 702 768 C 684 787 666 804 650 820 C 633 836 616 849 598 860 C 580 871 560 880 540 886 C 520 892 497 895 473 895 C 458 895 444 892 431 888 C 417 884 405 877 395 869 C 385 860 377 849 371 836 C 365 823 362 808 362 791 C 362 771 368 753 381 738 C 394 723 411 709 433 696 C 455 683 479 671 507 659 C 534 647 562 635 591 621 C 620 607 648 592 676 576 C 703 559 727 540 749 518 C 771 496 788 471 801 443 C 814 414 821 381 821 344 C 821 276 808 219 784 173 C 759 126 726 88 686 59 C 645 29 599 8 548 -5 C 496 -18 444 -25 391 -25 Z" unicode="s" />
<glyph horiz-adv-x="752" d="M 408 -12 C 336 -12 278 -5 235 7 C 191 19 159 38 137 63 C 115 87 101 118 97 154 C 93 190 94 232 102 279 L 197 868 L 43 868 L 78 1092 L 231 1092 L 291 1466 L 592 1466 L 535 1092 L 768 1092 L 731 868 L 498 868 L 416 348 C 411 320 409 297 410 279 C 410 261 415 246 423 236 C 431 225 442 217 458 213 C 474 209 494 207 520 207 C 536 207 554 208 573 210 C 592 212 606 215 614 219 L 580 2 C 574 0 565 -1 551 -3 C 537 -5 522 -6 505 -8 C 488 -9 471 -10 453 -11 C 435 -11 420 -12 408 -12 Z" unicode="t" />
<glyph horiz-adv-x="1073" d="M 256 -23 C 212 -23 173 -18 140 -8 C 107 2 80 18 60 41 C 40 63 26 93 20 130 C 13 166 14 211 23 264 L 154 1092 L 455 1092 L 338 352 C 330 310 332 279 343 258 C 354 237 378 227 414 227 C 444 227 476 235 509 252 C 541 268 572 288 600 311 L 723 1092 L 1026 1092 L 852 0 L 551 0 L 571 137 C 555 118 536 99 514 80 C 492 61 467 44 440 29 C 413 13 384 1 353 -8 C 322 -18 290 -23 256 -23 Z" unicode="u" />
<glyph horiz-adv-x="940" d="M 55 1092 L 358 1092 L 391 604 C 393 578 394 555 396 533 C 398 511 399 489 401 467 C 403 444 404 420 405 394 C 406 368 407 339 408 307 L 412 307 C 423 339 433 367 442 392 C 451 417 460 441 468 464 C 476 486 485 509 494 531 C 503 553 513 576 524 602 L 713 1092 L 993 1092 L 514 -4 L 190 -4 L 55 1092 Z" unicode="v" />
<glyph horiz-adv-x="1346" d="M 57 1092 L 350 1092 L 360 723 C 360 669 360 618 362 568 C 364 518 365 464 365 408 L 369 408 C 380 444 390 476 399 503 C 407 529 416 554 424 577 C 432 600 440 623 449 646 C 457 669 467 695 479 725 L 618 1092 L 870 1092 L 895 731 C 896 703 897 677 899 653 C 900 629 901 604 902 580 C 903 555 904 529 905 501 C 905 473 905 442 905 406 L 909 406 C 919 442 928 473 937 500 C 946 526 955 552 963 576 C 971 600 980 623 988 647 C 996 671 1006 697 1016 727 L 1141 1092 L 1399 1092 L 981 -4 L 709 -4 L 664 670 L 659 670 L 401 -4 L 129 -4 L 57 1092 Z" unicode="w" />
<glyph horiz-adv-x="940" d="M 388 315 L 190 0 L -106 0 L 295 559 L 92 1092 L 387 1092 L 502 786 L 682 1092 L 977 1092 L 591 549 L 799 0 L 508 0 L 388 315 Z" unicode="x" />
<glyph horiz-adv-x="965" d="M 68 -414 C 5 -414 -48 -410 -92 -403 C -136 -395 -171 -387 -195 -377 L -100 -139 C -86 -145 -66 -151 -39 -157 C -11 -163 17 -166 47 -166 C 65 -166 80 -164 94 -160 C 108 -156 120 -151 131 -143 C 141 -135 151 -124 160 -112 C 169 -99 178 -84 188 -66 L 213 -12 L 53 1092 L 367 1092 L 397 668 C 399 604 403 546 409 492 C 414 438 418 384 420 330 L 424 330 C 435 362 446 391 456 418 C 466 444 477 471 488 498 C 499 524 510 552 522 580 C 533 608 545 640 559 674 L 723 1092 L 1016 1092 L 457 -106 C 430 -163 403 -211 377 -250 C 351 -289 323 -321 293 -345 C 263 -369 229 -387 193 -398 C 156 -408 114 -414 68 -414 Z" unicode="y" />
<glyph horiz-adv-x="903" d="M -47 168 L 494 868 L 100 868 L 137 1092 L 887 1092 L 858 915 L 317 217 L 780 217 L 745 0 L -74 0 L -47 168 Z" unicode="z" />
<glyph horiz-adv-x="784" d="M 96 -117 L 150 217 C 157 265 159 303 157 333 C 155 362 147 385 135 402 C 122 418 104 429 80 435 C 56 441 27 444 -8 444 L 27 664 C 63 664 93 666 119 672 C 144 678 165 689 183 705 C 201 721 215 744 227 774 C 238 803 248 841 256 889 L 309 1223 C 316 1267 328 1308 345 1344 C 361 1380 383 1410 410 1436 C 437 1461 470 1481 508 1495 C 546 1509 591 1516 641 1516 L 874 1516 L 840 1296 L 764 1296 C 716 1296 679 1283 654 1259 C 629 1234 612 1196 604 1145 L 559 860 C 551 810 540 767 528 733 C 515 698 500 669 483 646 C 466 622 446 604 424 590 C 401 576 376 564 348 555 L 348 551 C 373 541 395 530 413 516 C 431 502 445 483 455 460 C 465 436 470 407 472 373 C 474 338 471 296 463 246 L 416 -47 C 407 -97 411 -134 429 -158 C 447 -182 480 -195 528 -195 L 604 -195 L 569 -410 L 336 -410 C 288 -410 247 -403 214 -389 C 180 -375 154 -356 134 -330 C 114 -304 101 -274 95 -238 C 89 -202 89 -161 96 -117 Z" unicode="{" />
<glyph horiz-adv-x="709" d="M 203 1516 L 508 1516 L 508 -410 L 203 -410 L 203 1516 Z" unicode="|" />
<glyph horiz-adv-x="784" d="M -121 -195 L -45 -195 C 4 -195 41 -182 66 -158 C 91 -134 108 -97 117 -47 L 166 260 C 174 310 184 351 196 385 C 208 418 223 445 240 467 C 257 488 277 505 299 518 C 321 530 347 541 375 551 L 375 555 C 350 564 328 575 310 588 C 292 600 277 617 267 639 C 256 660 250 687 248 721 C 246 754 250 796 258 846 L 305 1145 C 313 1196 309 1234 292 1259 C 275 1283 242 1296 193 1296 L 117 1296 L 152 1516 L 393 1516 C 443 1516 484 1509 518 1497 C 551 1485 577 1467 596 1443 C 614 1419 626 1390 631 1356 C 636 1321 635 1281 629 1237 L 573 889 C 565 841 562 803 564 774 C 566 744 573 721 586 705 C 598 689 616 678 640 672 C 663 666 693 664 729 664 L 694 444 C 658 444 628 441 603 435 C 578 429 557 418 539 402 C 521 385 507 362 496 333 C 484 303 475 265 467 217 L 412 -131 C 404 -175 393 -215 378 -250 C 362 -284 342 -313 318 -337 C 293 -361 263 -379 228 -391 C 192 -403 151 -410 104 -410 L -156 -410 L -121 -195 Z" unicode="}" />
<glyph horiz-adv-x="1171" d="M 817 524 C 773 524 730 529 687 540 C 643 551 602 563 562 577 C 522 591 485 603 451 614 C 417 625 387 631 362 631 C 342 631 325 625 311 614 C 297 603 287 580 281 545 L 94 575 C 106 679 134 756 178 806 C 222 856 279 881 350 881 C 394 881 438 875 482 864 C 525 853 566 841 605 827 C 644 813 680 801 714 790 C 747 779 776 774 801 774 C 811 774 820 775 829 777 C 838 779 846 784 853 790 C 860 796 866 804 872 815 C 877 826 881 840 885 858 L 1071 834 C 1059 727 1032 649 990 599 C 948 549 891 524 817 524 Z" unicode="~" />
<glyph horiz-adv-x="930" d="" unicode="₀" />
<glyph horiz-adv-x="659" d="" unicode="₁" />
<glyph horiz-adv-x="788" d="" unicode="₂" />
<glyph horiz-adv-x="809" d="" unicode="₃" />
<glyph horiz-adv-x="862" d="" unicode="₄" />
<glyph horiz-adv-x="840" d="" unicode="₅" />
<glyph horiz-adv-x="874" d="" unicode="₆" />
<glyph horiz-adv-x="768" d="" unicode="₇" />
<glyph horiz-adv-x="866" d="" unicode="₈" />
<glyph horiz-adv-x="874" d="" unicode="₉" />
<glyph horiz-adv-x="459" d="" unicode=" " />
<glyph horiz-adv-x="641" d="M 270 1516 L 600 1516 L 555 1225 L 225 1225 L 270 1516 Z M 244 1065 L 487 1065 L 379 0 L 14 0 L 244 1065 Z" unicode="¡" />
<glyph horiz-adv-x="1047" d="M 471 -23 C 467 -23 464 -22 460 -22 C 456 -22 453 -22 450 -22 L 387 -209 L 160 -209 L 239 31 C 178 65 130 114 96 180 C 62 245 45 327 45 426 C 45 534 59 630 87 715 C 115 800 153 872 201 931 C 249 989 306 1034 371 1065 C 436 1096 506 1112 580 1112 C 583 1112 586 1111 590 1111 C 593 1111 596 1111 600 1111 L 655 1274 L 885 1274 L 813 1061 C 845 1043 872 1021 894 996 C 915 970 932 943 944 915 C 956 886 966 856 972 826 C 978 796 982 767 985 739 L 711 692 C 708 722 704 750 699 774 C 693 798 685 818 675 834 C 665 850 651 863 635 872 C 619 880 598 885 573 885 C 545 885 520 878 498 864 C 476 850 456 832 439 809 C 422 785 407 758 395 726 C 383 694 373 661 365 625 C 357 589 351 553 347 515 C 343 477 342 439 342 403 C 342 373 344 346 349 322 C 353 297 361 276 371 258 C 381 240 395 226 412 216 C 429 206 450 201 475 201 C 493 201 512 205 531 215 C 549 225 567 238 584 256 C 601 274 617 295 632 320 C 646 344 660 371 672 401 L 922 322 C 901 272 876 227 847 185 C 818 143 785 106 748 75 C 710 44 668 20 622 3 C 576 -14 525 -23 471 -23 Z" unicode="¢" />
<glyph horiz-adv-x="1225" d="M 170 864 L 341 864 C 327 903 316 942 308 981 C 299 1019 295 1059 295 1100 C 295 1169 306 1231 329 1286 C 351 1341 382 1388 421 1426 C 460 1464 506 1493 559 1513 C 611 1533 667 1544 727 1544 C 807 1544 874 1533 926 1513 C 978 1493 1019 1465 1049 1429 C 1079 1393 1099 1350 1110 1300 C 1121 1250 1126 1195 1126 1135 L 846 1094 C 847 1122 847 1149 845 1175 C 843 1201 838 1223 830 1242 C 822 1260 809 1275 792 1286 C 775 1297 752 1303 723 1303 C 704 1303 686 1299 670 1291 C 654 1283 639 1270 627 1254 C 615 1238 605 1217 598 1191 C 591 1165 588 1135 588 1100 C 588 1060 593 1020 603 982 C 613 944 624 904 637 864 L 944 864 L 915 686 L 683 686 C 687 664 690 642 692 620 C 694 598 696 575 696 551 C 696 499 689 446 677 392 C 665 337 646 285 620 235 C 636 223 654 214 672 208 C 690 202 709 199 729 199 C 747 199 764 202 779 209 C 793 216 806 229 818 247 C 830 265 840 289 850 319 C 860 349 869 388 877 436 L 1143 436 C 1130 368 1114 305 1095 248 C 1075 191 1051 142 1021 101 C 991 60 954 28 911 5 C 868 -17 816 -29 756 -29 C 695 -29 643 -19 600 -1 C 557 17 520 41 488 69 C 450 39 407 15 360 -2 C 312 -20 259 -29 199 -29 C 160 -29 124 -24 90 -14 C 56 -4 27 9 2 27 C -23 45 -43 68 -58 96 C -72 123 -80 154 -80 190 C -80 240 -71 283 -54 319 C -36 355 -14 384 14 407 C 42 429 73 446 109 457 C 145 467 181 473 219 473 C 261 473 298 466 331 452 C 364 438 395 421 423 401 C 424 415 425 429 426 445 C 427 460 428 476 428 494 C 428 528 425 560 419 592 C 413 623 406 654 398 686 L 141 686 L 170 864 Z M 205 139 C 229 139 255 144 282 155 C 308 165 333 185 355 213 C 333 238 311 259 289 276 C 267 292 242 301 215 301 C 192 301 172 293 155 278 C 137 263 129 240 129 209 C 129 188 135 171 148 158 C 160 145 179 139 205 139 Z" unicode="£" />
<glyph horiz-adv-x="1152" d="M 1056 392 L 940 284 L 740 500 C 692 468 636 452 572 452 C 510 452 456 468 408 500 L 208 284 L 92 392 L 300 608 C 281 634 268 660 262 686 C 255 711 252 742 252 780 C 252 812 255 842 262 870 C 268 898 281 925 300 952 L 92 1168 L 208 1276 L 408 1060 C 456 1092 510 1108 572 1108 C 636 1108 692 1092 740 1060 L 944 1276 L 1060 1156 L 852 952 C 870 925 883 898 890 872 C 896 845 900 814 900 780 C 900 716 882 658 848 608 L 1056 392 Z M 748 780 C 748 833 731 876 698 910 C 664 943 622 960 572 960 C 521 960 480 943 448 910 C 416 876 400 833 400 780 C 400 726 416 684 450 652 C 483 620 524 604 572 604 C 625 604 668 620 700 652 C 732 684 748 726 748 780 Z" unicode="¤" />
<glyph horiz-adv-x="1157" d="M 659 342 L 973 342 L 944 162 L 633 162 L 606 0 L 311 0 L 338 162 L 29 162 L 57 342 L 367 342 L 387 475 L 78 475 L 106 655 L 385 655 L 127 1516 L 438 1516 L 598 872 L 602 872 L 965 1516 L 1272 1516 L 735 655 L 1020 655 L 993 475 L 680 475 L 659 342 Z" unicode="¥" />
<glyph horiz-adv-x="709" d="M 201 1516 L 506 1516 L 506 678 L 201 678 L 201 1516 Z M 201 428 L 506 428 L 506 -410 L 201 -410 L 201 428 Z" unicode="¦" />
<glyph horiz-adv-x="1063" d="M 348 -418 C 280 -418 224 -409 178 -392 C 132 -374 94 -350 65 -319 C 35 -288 13 -251 -1 -209 C -15 -166 -25 -120 -31 -70 L 227 0 C 230 -32 235 -60 241 -84 C 247 -108 256 -129 268 -146 C 279 -162 293 -175 311 -184 C 329 -192 351 -197 377 -197 C 422 -197 455 -184 477 -158 C 499 -132 510 -99 510 -59 C 510 -38 505 -18 496 0 C 487 18 475 37 459 55 C 443 73 425 92 403 110 C 381 128 358 148 334 168 C 302 192 269 218 236 245 C 203 272 173 301 146 333 C 119 365 97 399 80 437 C 63 475 55 517 55 563 C 55 603 60 640 71 674 C 82 708 98 740 119 770 C 139 800 165 827 195 853 C 225 879 259 904 297 928 C 269 960 248 993 234 1029 C 220 1064 213 1103 213 1147 C 213 1207 223 1262 244 1312 C 265 1361 295 1403 334 1438 C 373 1472 420 1499 476 1518 C 532 1536 594 1546 664 1546 C 732 1546 789 1537 835 1519 C 881 1501 919 1477 949 1446 C 979 1415 1001 1378 1016 1335 C 1031 1292 1041 1246 1047 1196 L 788 1128 C 782 1190 767 1238 745 1272 C 722 1306 685 1323 635 1323 C 589 1323 555 1310 531 1284 C 507 1258 496 1226 496 1186 C 496 1165 500 1145 510 1127 C 520 1108 533 1089 549 1071 C 565 1053 585 1034 607 1016 C 629 997 652 978 678 958 C 710 933 742 907 775 881 C 807 854 837 825 864 793 C 891 761 913 727 930 689 C 947 651 956 609 956 563 C 956 483 934 413 892 355 C 849 297 789 244 713 197 C 738 164 758 130 772 96 C 786 61 793 22 793 -20 C 793 -81 782 -136 762 -185 C 742 -234 712 -276 674 -310 C 636 -344 589 -371 534 -390 C 479 -408 417 -418 348 -418 Z M 494 752 C 484 759 474 766 465 774 C 456 781 447 788 438 796 C 396 764 368 734 353 706 C 337 677 330 649 330 621 C 330 600 333 580 341 562 C 348 544 359 525 375 506 C 391 487 410 467 434 446 C 458 425 486 402 518 377 L 575 330 C 615 362 642 392 658 420 C 674 448 682 476 682 506 C 682 526 678 546 671 565 C 663 583 652 602 636 621 C 620 640 601 660 577 681 C 553 702 526 726 494 752 Z" unicode="§" />
<glyph horiz-adv-x="985" d="M 676 1479 L 930 1479 L 885 1196 L 631 1196 L 676 1479 Z M 287 1479 L 543 1479 L 498 1196 L 242 1196 L 287 1479 Z" unicode="¨" />
<glyph horiz-adv-x="1481" d="M 737 -29 C 641 -29 552 -9 471 31 C 389 71 319 126 261 196 C 202 266 156 349 123 445 C 90 541 74 644 74 756 C 74 866 90 969 124 1065 C 158 1161 204 1244 264 1315 C 323 1386 393 1442 475 1483 C 556 1523 645 1544 741 1544 C 837 1544 926 1524 1008 1484 C 1090 1444 1160 1389 1219 1319 C 1278 1249 1324 1166 1357 1071 C 1390 975 1407 872 1407 762 C 1407 650 1390 546 1356 450 C 1322 354 1276 270 1216 199 C 1156 128 1086 72 1004 32 C 922 -8 833 -29 737 -29 Z M 741 104 C 817 104 888 120 952 153 C 1016 185 1070 231 1116 289 C 1161 347 1196 415 1222 495 C 1247 575 1260 662 1260 756 C 1260 848 1247 935 1221 1015 C 1195 1095 1159 1164 1113 1223 C 1067 1281 1012 1327 948 1361 C 884 1394 813 1411 737 1411 C 661 1411 591 1394 528 1362 C 464 1329 410 1284 364 1226 C 318 1168 283 1100 258 1021 C 233 941 221 855 221 762 C 221 668 233 581 259 501 C 285 421 321 351 367 292 C 413 233 467 187 531 154 C 595 120 665 104 741 104 Z M 739 317 C 691 317 647 326 609 346 C 570 365 537 393 510 431 C 483 469 462 515 448 571 C 433 627 426 691 426 764 C 426 909 454 1020 510 1096 C 566 1172 643 1210 743 1210 C 787 1210 825 1202 858 1188 C 890 1174 918 1154 941 1129 C 964 1103 983 1073 997 1038 C 1011 1003 1022 965 1030 924 L 858 891 C 853 912 848 931 842 949 C 836 967 829 982 821 994 C 812 1006 801 1016 789 1023 C 776 1030 761 1034 743 1034 C 721 1034 702 1027 686 1015 C 670 1002 656 984 646 960 C 635 936 627 908 622 875 C 616 841 614 804 614 764 C 614 680 624 615 646 567 C 667 519 699 496 743 496 C 776 496 802 508 821 533 C 840 558 854 597 862 651 L 1036 616 C 1026 572 1014 531 999 495 C 984 458 965 426 942 400 C 918 374 890 353 857 339 C 824 324 785 317 739 317 Z" unicode="©" />
<glyph horiz-adv-x="797" d="M 264 743 C 237 743 213 747 191 756 C 169 765 151 778 136 796 C 121 813 110 835 104 861 C 98 887 97 918 102 952 C 107 997 121 1037 144 1071 C 167 1105 198 1134 238 1158 C 277 1182 324 1202 379 1218 C 433 1234 495 1246 563 1255 L 569 1286 C 573 1314 571 1335 563 1350 C 555 1364 536 1372 508 1372 C 468 1372 429 1365 389 1352 C 349 1339 313 1323 283 1303 L 201 1436 C 226 1455 253 1471 282 1485 C 310 1498 339 1509 369 1518 C 399 1526 428 1532 458 1536 C 488 1540 517 1542 545 1542 C 594 1542 635 1536 668 1526 C 701 1516 727 1500 746 1479 C 764 1458 776 1431 781 1399 C 785 1367 784 1329 778 1286 L 725 944 C 717 900 712 863 710 833 C 708 803 709 777 713 756 L 500 756 C 498 771 497 786 497 802 C 496 818 498 836 502 858 C 468 822 432 793 392 773 C 352 753 309 743 264 743 Z M 377 911 C 391 911 405 913 419 917 C 432 921 445 926 457 932 C 469 938 480 944 490 952 C 500 959 510 966 518 973 L 545 1139 C 505 1131 471 1122 443 1112 C 415 1102 392 1091 374 1079 C 356 1067 342 1053 333 1038 C 324 1022 319 1005 317 987 C 315 964 319 946 331 932 C 342 918 357 911 377 911 Z" unicode="ª" />
<glyph horiz-adv-x="1106" d="M 467 543 L 829 1085 L 1112 1085 L 762 543 L 940 0 L 657 0 L 467 543 Z M 6 543 L 369 1085 L 651 1085 L 301 543 L 479 0 L 197 0 L 6 543 Z" unicode="«" />
<glyph horiz-adv-x="1536" d="M 1116 352 L 1116 728 L 212 728 L 212 920 L 1296 920 L 1296 352 L 1116 352 Z" unicode="¬" />
<glyph horiz-adv-x="647" d="M 76 748 L 571 748 L 537 526 L 41 526 L 76 748 Z" unicode="­" />
<glyph horiz-adv-x="1014" d="M 557 600 C 499 600 445 612 397 636 C 348 660 306 693 271 735 C 235 777 208 827 188 885 C 168 942 158 1004 158 1071 C 158 1137 168 1199 188 1257 C 208 1314 235 1364 271 1407 C 307 1449 349 1483 398 1507 C 447 1531 501 1544 559 1544 C 617 1544 671 1532 720 1508 C 768 1484 810 1451 846 1409 C 881 1367 908 1317 928 1259 C 948 1201 958 1139 958 1073 C 958 1006 948 944 928 886 C 908 828 880 778 844 736 C 808 694 766 660 717 636 C 668 612 615 600 557 600 Z M 559 676 C 605 676 647 686 685 706 C 723 726 755 753 783 789 C 811 824 832 866 847 914 C 862 962 870 1015 870 1071 C 870 1127 862 1179 846 1227 C 830 1275 809 1317 781 1353 C 753 1389 720 1417 682 1437 C 644 1457 602 1468 557 1468 C 511 1468 470 1458 432 1438 C 394 1418 361 1390 334 1355 C 306 1320 285 1278 270 1230 C 255 1182 248 1129 248 1073 C 248 1017 255 964 271 916 C 286 868 307 826 335 790 C 362 754 395 726 433 706 C 471 686 513 676 559 676 Z M 397 1337 L 565 1337 C 619 1337 661 1323 692 1296 C 723 1269 739 1227 739 1169 C 739 1129 732 1097 718 1075 C 704 1052 687 1034 666 1022 L 743 827 L 623 827 L 549 1006 L 510 1006 L 510 827 L 397 827 L 397 1337 Z M 559 1098 C 581 1098 598 1103 610 1113 C 621 1123 627 1140 627 1165 C 627 1188 621 1205 610 1215 C 598 1225 581 1231 559 1231 L 510 1231 L 510 1098 L 559 1098 Z" unicode="®" />
<glyph horiz-adv-x="985" d="M 295 1417 L 901 1417 L 866 1196 L 260 1196 L 295 1417 Z" unicode="¯" />
<glyph horiz-adv-x="717" d="M 401 922 C 361 922 325 929 293 943 C 261 957 233 976 211 1000 C 189 1024 172 1053 160 1086 C 148 1119 143 1155 143 1194 C 143 1248 152 1296 170 1339 C 188 1382 213 1419 243 1449 C 273 1479 307 1502 345 1518 C 383 1534 423 1542 463 1542 C 505 1542 542 1535 575 1521 C 607 1507 635 1489 657 1465 C 679 1441 695 1412 707 1380 C 719 1347 725 1312 725 1274 C 725 1220 715 1171 697 1128 C 679 1084 655 1047 625 1017 C 595 987 560 963 521 947 C 482 930 442 922 401 922 Z M 416 1067 C 434 1067 451 1071 468 1080 C 484 1089 499 1102 512 1120 C 525 1137 535 1158 543 1184 C 551 1210 555 1240 555 1274 C 555 1312 546 1342 529 1364 C 512 1386 487 1397 453 1397 C 435 1397 418 1392 402 1384 C 386 1376 371 1363 358 1346 C 345 1329 335 1308 327 1283 C 319 1258 315 1229 315 1196 C 315 1156 323 1125 340 1102 C 357 1078 382 1067 416 1067 Z" unicode="°" />
<glyph horiz-adv-x="1161" d="M 111 283 L 457 283 L 457 627 L 111 627 L 111 866 L 457 866 L 457 1257 L 705 1257 L 705 866 L 1051 866 L 1051 627 L 705 627 L 705 283 L 1051 283 L 1051 53 L 111 53 L 111 283 Z" unicode="±" />
<glyph horiz-adv-x="788" d="M 51 616 C 61 674 76 725 96 769 C 116 812 139 850 165 882 C 191 914 218 942 248 966 C 278 990 307 1011 337 1030 C 366 1049 394 1067 422 1083 C 449 1099 473 1116 494 1134 C 515 1152 532 1171 544 1193 C 556 1214 563 1239 563 1268 C 563 1287 558 1302 549 1314 C 540 1325 524 1331 502 1331 C 472 1331 445 1319 419 1296 C 393 1273 366 1237 338 1188 L 150 1292 C 173 1333 198 1369 224 1399 C 250 1429 278 1453 308 1472 C 338 1491 370 1505 406 1514 C 441 1523 480 1528 522 1528 C 566 1528 606 1522 641 1511 C 676 1499 705 1483 729 1462 C 752 1441 770 1416 782 1387 C 794 1357 801 1325 801 1290 C 801 1249 795 1213 783 1181 C 771 1149 755 1119 735 1093 C 715 1067 692 1043 666 1022 C 640 1001 614 982 587 964 C 560 946 533 930 507 914 C 481 898 457 882 435 866 C 413 850 395 834 381 818 C 366 801 357 783 354 764 L 715 764 L 682 565 L 41 565 L 51 616 Z" unicode="²" />
<glyph horiz-adv-x="809" d="M 397 549 C 346 549 302 555 264 568 C 226 580 193 598 166 621 C 138 644 116 672 98 704 C 80 736 67 771 57 811 L 252 887 C 264 839 282 803 306 780 C 330 756 361 745 397 745 C 421 745 441 748 457 756 C 473 763 487 773 498 786 C 508 799 516 814 521 832 C 525 850 528 869 528 889 C 528 926 515 953 489 970 C 463 986 425 995 375 995 L 332 995 L 354 1133 L 406 1133 C 465 1133 507 1144 532 1166 C 556 1188 569 1220 569 1262 C 569 1280 563 1296 551 1311 C 539 1325 519 1333 489 1333 C 460 1333 431 1325 403 1311 C 374 1297 344 1272 313 1237 L 172 1362 C 198 1394 226 1421 255 1443 C 283 1465 313 1482 344 1496 C 374 1510 406 1519 439 1525 C 471 1531 505 1534 541 1534 C 581 1534 618 1528 650 1517 C 682 1506 710 1491 732 1471 C 754 1451 771 1428 783 1401 C 795 1374 801 1345 801 1313 C 801 1256 787 1208 761 1168 C 735 1128 693 1096 637 1073 C 677 1054 706 1028 726 996 C 746 964 756 926 756 883 C 756 829 746 782 728 741 C 709 699 683 664 651 636 C 618 607 580 585 537 571 C 493 556 447 549 397 549 Z" unicode="³" />
<glyph horiz-adv-x="985" d="M 629 1542 L 934 1542 L 627 1202 L 410 1202 L 629 1542 Z" unicode="´" />
<glyph horiz-adv-x="1077" d="M 158 1092 L 459 1092 L 340 354 C 334 312 336 280 346 259 C 356 237 380 227 416 227 C 450 227 482 235 512 252 C 542 268 572 288 602 311 L 727 1092 L 1028 1092 L 854 0 L 555 0 L 575 141 C 563 127 549 112 534 98 C 519 83 502 69 484 56 C 466 43 446 31 424 21 C 402 10 380 2 356 -2 C 342 -3 329 -3 315 -1 C 301 1 292 6 289 14 L 221 -410 L -82 -410 L 158 1092 Z" unicode="µ" />
<glyph horiz-adv-x="1188" d="M 483 664 C 425 664 373 673 327 691 C 281 708 243 732 211 763 C 179 794 155 831 139 875 C 123 919 115 968 115 1022 C 115 1095 126 1162 150 1223 C 174 1283 206 1335 248 1379 C 289 1422 338 1456 394 1480 C 450 1504 512 1516 578 1516 L 1214 1516 L 909 -410 L 678 -410 L 946 1276 L 809 1276 L 543 -410 L 313 -410 L 483 664 Z" unicode="¶" />
<glyph horiz-adv-x="549" d="M 84 770 L 426 770 L 420 459 L 78 459 L 84 770 Z" unicode="·" />
<glyph horiz-adv-x="985" d="M 336 -430 C 271 -430 215 -423 169 -410 C 122 -397 83 -380 51 -360 L 129 -250 C 141 -258 154 -265 169 -272 C 184 -279 200 -285 217 -290 C 234 -294 252 -298 270 -301 C 288 -303 306 -305 324 -305 C 356 -305 383 -299 403 -288 C 423 -276 434 -256 434 -227 C 434 -199 417 -186 383 -186 C 353 -186 323 -197 295 -219 L 217 -180 L 307 12 L 436 12 L 387 -100 C 400 -92 417 -85 437 -80 C 457 -74 476 -72 496 -72 C 532 -72 563 -83 587 -107 C 611 -130 623 -163 623 -205 C 623 -241 615 -272 599 -300 C 583 -328 562 -351 536 -371 C 510 -390 479 -405 445 -415 C 410 -425 374 -430 336 -430 Z" unicode="¸" />
<glyph horiz-adv-x="659" d="M 98 760 L 236 760 L 317 1278 C 282 1262 236 1255 178 1255 L 211 1458 C 251 1459 283 1464 309 1473 C 334 1482 357 1496 379 1516 L 598 1516 L 481 760 L 602 760 L 569 561 L 66 561 L 98 760 Z" unicode="¹" />
<glyph horiz-adv-x="823" d="M 434 745 C 391 745 351 751 314 765 C 277 779 245 799 217 827 C 189 854 168 888 152 929 C 136 970 129 1018 129 1073 C 129 1133 134 1187 146 1234 C 158 1281 173 1322 193 1357 C 213 1392 236 1421 262 1445 C 288 1469 316 1488 345 1503 C 373 1517 402 1528 432 1534 C 461 1540 489 1544 516 1544 C 558 1544 598 1537 636 1524 C 674 1510 706 1490 734 1463 C 761 1436 783 1402 799 1362 C 815 1321 823 1273 823 1219 C 823 1158 817 1104 805 1057 C 793 1010 778 969 758 934 C 738 898 714 869 688 845 C 662 821 634 801 606 787 C 577 772 548 761 518 755 C 488 748 460 745 434 745 Z M 440 909 C 483 909 517 927 542 963 C 567 999 586 1057 600 1137 C 603 1155 605 1173 606 1189 C 607 1205 608 1220 608 1235 C 608 1277 600 1310 584 1335 C 568 1359 543 1372 508 1372 C 466 1372 433 1354 408 1320 C 383 1286 364 1230 352 1153 C 348 1134 346 1116 344 1099 C 342 1082 342 1066 342 1051 C 342 1007 349 973 365 947 C 380 921 405 909 440 909 Z" unicode="º" />
<glyph horiz-adv-x="1106" d="M 741 543 L 561 1085 L 846 1085 L 1034 543 L 674 0 L 391 0 L 741 543 Z M 281 543 L 100 1085 L 383 1085 L 573 543 L 213 0 L -72 0 L 281 543 Z" unicode="»" />
<glyph horiz-adv-x="1788" d="M 55 750 L 193 750 L 274 1266 C 256 1258 235 1253 213 1249 C 190 1245 164 1243 135 1243 L 168 1446 C 208 1448 240 1453 266 1462 C 291 1471 314 1485 336 1505 L 555 1505 L 438 750 L 559 750 L 526 551 L 23 551 L 55 750 Z M 1247 1516 L 1518 1516 L 535 0 L 264 0 L 1247 1516 Z M 1321 195 L 958 195 L 983 354 L 1432 954 L 1671 954 L 1581 387 L 1704 387 L 1673 195 L 1552 195 L 1520 0 L 1290 0 L 1321 195 Z M 1362 375 L 1409 666 L 1196 375 L 1362 375 Z" unicode="¼" />
<glyph horiz-adv-x="1827" d="M 55 750 L 193 750 L 274 1266 C 256 1258 235 1253 213 1249 C 190 1245 164 1243 135 1243 L 168 1446 C 208 1448 240 1453 266 1462 C 291 1471 314 1485 336 1505 L 555 1505 L 438 750 L 559 750 L 526 551 L 23 551 L 55 750 Z M 1247 1516 L 1518 1516 L 535 0 L 264 0 L 1247 1516 Z M 1040 55 C 1050 113 1065 164 1085 208 C 1105 251 1129 289 1155 321 C 1181 353 1208 381 1238 405 C 1268 429 1297 450 1327 469 C 1357 488 1385 506 1413 522 C 1440 538 1464 555 1485 573 C 1506 591 1523 610 1535 632 C 1547 653 1554 678 1554 707 C 1554 726 1549 741 1539 753 C 1529 764 1514 770 1493 770 C 1464 770 1437 758 1411 734 C 1385 710 1357 674 1327 625 L 1139 729 C 1185 813 1238 873 1298 911 C 1358 948 1429 967 1513 967 C 1558 967 1598 961 1632 949 C 1666 937 1695 921 1719 900 C 1742 879 1760 854 1772 825 C 1784 795 1790 763 1790 727 C 1790 687 1784 651 1772 619 C 1760 587 1744 557 1724 531 C 1704 505 1682 481 1656 461 C 1630 440 1604 421 1577 403 C 1550 385 1523 368 1497 352 C 1471 336 1447 321 1425 305 C 1403 289 1385 273 1370 257 C 1355 240 1346 222 1343 203 L 1704 203 L 1673 2 L 1032 2 L 1040 55 Z" unicode="½" />
<glyph horiz-adv-x="1882" d="M 354 539 C 303 539 259 545 221 558 C 183 570 150 588 123 611 C 95 634 73 662 55 694 C 37 726 24 761 14 801 L 209 874 C 221 826 239 790 263 767 C 287 744 318 733 354 733 C 378 733 398 736 414 744 C 430 752 444 762 455 775 C 465 788 473 803 478 821 C 482 839 485 858 485 879 C 485 915 472 942 446 958 C 420 974 382 983 332 983 L 289 983 L 311 1122 L 362 1122 C 421 1122 463 1133 488 1155 C 513 1177 526 1209 526 1249 C 526 1268 520 1285 508 1300 C 496 1315 476 1323 446 1323 C 417 1323 388 1315 360 1301 C 331 1286 301 1261 270 1227 L 129 1352 C 155 1384 183 1411 212 1433 C 240 1455 270 1472 301 1486 C 331 1500 363 1509 396 1515 C 428 1521 462 1524 498 1524 C 538 1524 575 1518 607 1507 C 639 1495 667 1480 689 1460 C 711 1440 728 1416 740 1389 C 752 1362 758 1333 758 1303 C 758 1246 744 1197 718 1157 C 692 1117 650 1085 594 1063 C 634 1044 663 1018 683 986 C 703 953 713 915 713 872 C 713 818 703 771 685 730 C 666 688 640 653 608 625 C 575 597 537 575 494 561 C 450 546 404 539 354 539 Z M 1341 1516 L 1612 1516 L 629 0 L 358 0 L 1341 1516 Z M 1415 195 L 1053 195 L 1077 354 L 1526 954 L 1765 954 L 1675 387 L 1798 387 L 1767 195 L 1647 195 L 1614 0 L 1384 0 L 1415 195 Z M 1456 375 L 1503 666 L 1290 375 L 1456 375 Z" unicode="¾" />
<glyph horiz-adv-x="1022" d="M 389 -29 C 318 -29 257 -20 207 -2 C 157 15 116 39 84 69 C 52 99 28 133 14 173 C 0 212 -8 253 -8 297 C -8 347 -1 390 11 428 C 24 466 41 499 62 529 C 82 559 106 586 133 610 C 160 634 188 658 216 682 C 244 705 272 729 300 753 C 328 777 353 804 376 834 C 398 864 417 897 433 935 C 448 973 457 1017 461 1067 L 719 1067 C 718 990 707 925 685 871 C 663 817 637 770 605 730 C 573 690 538 656 501 626 C 464 596 430 567 398 539 C 366 510 339 480 318 448 C 297 416 287 378 287 334 C 287 300 298 273 320 252 C 342 231 376 221 420 221 C 442 221 465 225 487 235 C 509 244 530 257 550 273 C 570 289 589 308 607 330 C 625 352 641 375 655 401 L 891 309 C 863 255 832 208 798 166 C 764 124 727 89 686 60 C 645 31 600 9 551 -6 C 501 -21 447 -29 389 -29 Z M 498 1516 L 827 1516 L 780 1225 L 451 1225 L 498 1516 Z" unicode="¿" />
<glyph horiz-adv-x="1219" d="M 582 1522 L 883 1522 L 1075 0 L 768 0 L 739 319 L 328 319 L 199 0 L -96 0 L 582 1522 Z M 428 561 L 717 561 L 702 715 C 698 755 695 793 691 828 C 687 862 683 896 680 929 C 676 961 673 994 671 1026 C 668 1058 666 1092 666 1128 L 662 1128 C 649 1092 636 1058 624 1026 C 611 994 598 962 584 930 C 570 898 556 864 541 830 C 526 795 510 757 492 717 L 428 561 Z M 489 1945 L 776 1945 L 887 1605 L 690 1605 L 489 1945 Z" unicode="À" />
<glyph horiz-adv-x="1219" d="M 582 1522 L 883 1522 L 1075 0 L 768 0 L 739 319 L 328 319 L 199 0 L -96 0 L 582 1522 Z M 428 561 L 717 561 L 702 715 C 698 755 695 793 691 828 C 687 862 683 896 680 929 C 676 961 673 994 671 1026 C 668 1058 666 1092 666 1128 L 662 1128 C 649 1092 636 1058 624 1026 C 611 994 598 962 584 930 C 570 898 556 864 541 830 C 526 795 510 757 492 717 L 428 561 Z M 807 1945 L 1112 1945 L 805 1605 L 588 1605 L 807 1945 Z" unicode="Á" />
<glyph horiz-adv-x="1219" d="M 582 1522 L 883 1522 L 1075 0 L 768 0 L 739 319 L 328 319 L 199 0 L -96 0 L 582 1522 Z M 428 561 L 717 561 L 702 715 C 698 755 695 793 691 828 C 687 862 683 896 680 929 C 676 961 673 994 671 1026 C 668 1058 666 1092 666 1128 L 662 1128 C 649 1092 636 1058 624 1026 C 611 994 598 962 584 930 C 570 898 556 864 541 830 C 526 795 510 757 492 717 L 428 561 Z M 694 1945 L 897 1945 L 1067 1605 L 893 1605 L 766 1751 L 590 1605 L 416 1605 L 694 1945 Z" unicode="Â" />
<glyph horiz-adv-x="1219" d="M 582 1522 L 883 1522 L 1075 0 L 768 0 L 739 319 L 328 319 L 199 0 L -96 0 L 582 1522 Z M 428 561 L 717 561 L 702 715 C 698 755 695 793 691 828 C 687 862 683 896 680 929 C 676 961 673 994 671 1026 C 668 1058 666 1092 666 1128 L 662 1128 C 649 1092 636 1058 624 1026 C 611 994 598 962 584 930 C 570 898 556 864 541 830 C 526 795 510 757 492 717 L 428 561 Z M 901 1581 C 875 1581 853 1583 833 1589 C 813 1595 795 1602 779 1610 C 763 1618 748 1628 736 1638 C 723 1648 711 1657 700 1665 C 688 1673 677 1680 666 1686 C 655 1692 643 1695 631 1695 C 608 1695 589 1686 573 1670 C 557 1653 546 1625 540 1585 L 383 1585 C 389 1641 400 1689 416 1730 C 432 1770 451 1804 473 1831 C 495 1857 520 1877 547 1890 C 573 1903 601 1910 629 1910 C 667 1910 698 1904 724 1892 C 750 1880 773 1867 793 1853 C 813 1839 831 1826 847 1814 C 863 1802 881 1796 901 1796 C 923 1796 942 1804 957 1820 C 972 1836 983 1864 989 1906 L 1147 1906 C 1140 1848 1129 1798 1113 1757 C 1097 1716 1077 1683 1055 1657 C 1033 1631 1008 1611 982 1599 C 956 1587 929 1581 901 1581 Z" unicode="Ã" />
<glyph horiz-adv-x="1219" d="M 582 1522 L 883 1522 L 1075 0 L 768 0 L 739 319 L 328 319 L 199 0 L -96 0 L 582 1522 Z M 428 561 L 717 561 L 702 715 C 698 755 695 793 691 828 C 687 862 683 896 680 929 C 676 961 673 994 671 1026 C 668 1058 666 1092 666 1128 L 662 1128 C 649 1092 636 1058 624 1026 C 611 994 598 962 584 930 C 570 898 556 864 541 830 C 526 795 510 757 492 717 L 428 561 Z M 854 1882 L 1108 1882 L 1063 1599 L 809 1599 L 854 1882 Z M 465 1882 L 721 1882 L 676 1599 L 420 1599 L 465 1882 Z" unicode="Ä" />
<glyph horiz-adv-x="1219" d="M 582 1522 L 883 1522 L 1075 0 L 768 0 L 739 319 L 328 319 L 199 0 L -96 0 L 582 1522 Z M 428 561 L 717 561 L 702 715 C 698 755 695 793 691 828 C 687 862 683 896 680 929 C 676 961 673 994 671 1026 C 668 1058 666 1092 666 1128 L 662 1128 C 649 1092 636 1058 624 1026 C 611 994 598 962 584 930 C 570 898 556 864 541 830 C 526 795 510 757 492 717 L 428 561 Z M 716 1405 C 686 1405 660 1410 637 1420 C 614 1430 595 1445 579 1463 C 563 1481 550 1502 542 1526 C 534 1550 530 1575 530 1603 C 530 1641 536 1675 549 1706 C 562 1736 580 1763 602 1785 C 624 1807 649 1823 677 1835 C 705 1847 735 1853 766 1853 C 795 1853 821 1847 844 1837 C 867 1827 887 1813 903 1795 C 919 1777 931 1757 939 1733 C 947 1709 952 1683 952 1656 C 952 1618 945 1583 932 1553 C 919 1522 902 1496 880 1474 C 858 1452 833 1435 805 1423 C 777 1411 747 1405 716 1405 Z M 725 1523 C 739 1523 751 1526 763 1533 C 774 1539 784 1548 792 1560 C 800 1571 806 1584 810 1599 C 814 1614 817 1630 817 1646 C 817 1668 811 1688 801 1705 C 790 1721 774 1730 753 1730 C 739 1730 726 1726 715 1719 C 704 1712 695 1703 687 1692 C 679 1680 673 1667 669 1652 C 665 1637 663 1621 663 1605 C 663 1582 668 1563 678 1547 C 688 1531 703 1523 725 1523 Z" unicode="Å" />
<glyph horiz-adv-x="1792" d="M 825 1516 L 1831 1516 L 1788 1253 L 1253 1253 L 1200 911 L 1579 911 L 1540 666 L 1161 666 L 1096 256 L 1659 256 L 1618 0 L 745 0 L 813 422 L 459 422 L 207 0 L -100 0 L 825 1516 Z M 848 645 L 940 1217 L 592 645 L 848 645 Z" unicode="Æ" />
<glyph horiz-adv-x="1219" d="M 567 -27 C 484 -27 410 -14 346 10 C 281 34 226 71 182 121 C 138 170 104 231 81 305 C 58 378 47 463 47 561 C 47 714 64 851 98 973 C 132 1095 179 1198 240 1282 C 300 1366 372 1431 456 1476 C 540 1521 631 1544 731 1544 C 817 1544 889 1531 948 1507 C 1006 1483 1054 1448 1090 1403 C 1126 1358 1151 1304 1167 1240 C 1183 1176 1191 1104 1192 1024 L 895 971 C 893 1023 890 1068 884 1107 C 878 1145 868 1177 854 1203 C 840 1229 820 1248 796 1261 C 772 1273 740 1280 702 1280 C 664 1280 630 1270 599 1250 C 567 1230 539 1202 514 1168 C 488 1133 466 1092 447 1045 C 428 997 412 947 399 893 C 386 839 376 782 370 724 C 363 665 360 607 360 549 C 360 447 377 368 411 312 C 445 256 498 229 571 229 C 602 229 630 235 656 247 C 681 259 704 279 726 305 C 747 331 767 365 786 407 C 805 449 824 499 844 557 L 1128 510 C 1104 430 1074 357 1040 291 C 1005 225 964 168 918 121 C 872 74 819 38 761 12 C 703 -14 638 -27 567 -27 Z M 451 -430 C 386 -430 330 -423 284 -410 C 237 -397 198 -380 166 -360 L 244 -250 C 256 -258 269 -265 284 -272 C 299 -279 315 -285 332 -290 C 349 -294 367 -298 385 -301 C 403 -303 421 -305 439 -305 C 471 -305 498 -299 518 -288 C 538 -276 549 -256 549 -227 C 549 -199 532 -186 498 -186 C 468 -186 438 -197 410 -219 L 332 -180 L 422 12 L 551 12 L 502 -100 C 515 -92 532 -85 552 -80 C 572 -74 591 -72 611 -72 C 647 -72 678 -83 702 -107 C 726 -130 738 -163 738 -205 C 738 -241 730 -272 714 -300 C 698 -328 677 -351 651 -371 C 625 -390 594 -405 560 -415 C 525 -425 489 -430 451 -430 Z" unicode="Ç" />
<glyph horiz-adv-x="1057" d="M 248 1516 L 1094 1516 L 1053 1253 L 516 1253 L 463 911 L 844 911 L 805 666 L 424 666 L 358 256 L 924 256 L 883 0 L 8 0 L 248 1516 Z M 409 1945 L 696 1945 L 807 1605 L 610 1605 L 409 1945 Z" unicode="È" />
<glyph horiz-adv-x="1057" d="M 727 1945 L 1032 1945 L 725 1605 L 508 1605 L 727 1945 Z M 248 1516 L 1094 1516 L 1053 1253 L 516 1253 L 463 911 L 844 911 L 805 666 L 424 666 L 358 256 L 924 256 L 883 0 L 8 0 L 248 1516 Z" unicode="É" />
<glyph horiz-adv-x="1057" d="M 622 1945 L 825 1945 L 995 1605 L 821 1605 L 694 1751 L 518 1605 L 344 1605 L 622 1945 Z M 248 1516 L 1094 1516 L 1053 1253 L 516 1253 L 463 911 L 844 911 L 805 666 L 424 666 L 358 256 L 924 256 L 883 0 L 8 0 L 248 1516 Z" unicode="Ê" />
<glyph horiz-adv-x="1057" d="M 782 1882 L 1036 1882 L 991 1599 L 737 1599 L 782 1882 Z M 393 1882 L 649 1882 L 604 1599 L 348 1599 L 393 1882 Z M 248 1516 L 1094 1516 L 1053 1253 L 516 1253 L 463 911 L 844 911 L 805 666 L 424 666 L 358 256 L 924 256 L 883 0 L 8 0 L 248 1516 Z" unicode="Ë" />
<glyph horiz-adv-x="584" d="M 258 1516 L 569 1516 L 330 0 L 18 0 L 258 1516 Z M 156 1945 L 443 1945 L 554 1605 L 357 1605 L 156 1945 Z" unicode="Ì" />
<glyph horiz-adv-x="584" d="M 258 1516 L 569 1516 L 330 0 L 18 0 L 258 1516 Z M 507 1945 L 812 1945 L 505 1605 L 288 1605 L 507 1945 Z" unicode="Í" />
<glyph horiz-adv-x="584" d="M 258 1516 L 569 1516 L 330 0 L 18 0 L 258 1516 Z M 382 1945 L 585 1945 L 755 1605 L 581 1605 L 454 1751 L 278 1605 L 104 1605 L 382 1945 Z" unicode="Î" />
<glyph horiz-adv-x="584" d="M 258 1516 L 569 1516 L 330 0 L 18 0 L 258 1516 Z M 542 1882 L 796 1882 L 751 1599 L 497 1599 L 542 1882 Z M 153 1882 L 409 1882 L 364 1599 L 108 1599 L 153 1882 Z" unicode="Ï" />
<glyph horiz-adv-x="1262" d="M 43 905 L 151 905 L 248 1516 L 561 1516 C 667 1516 760 1505 842 1484 C 924 1463 993 1430 1049 1384 C 1105 1338 1147 1279 1176 1207 C 1204 1134 1219 1046 1219 944 C 1219 908 1217 871 1214 833 C 1210 795 1205 755 1198 713 C 1182 614 1161 528 1134 454 C 1106 380 1074 317 1037 265 C 1000 212 959 168 914 134 C 869 100 821 73 771 53 C 720 33 667 19 612 11 C 556 3 500 0 444 0 L 8 0 L 113 666 L 4 666 L 43 905 Z M 479 260 C 537 260 589 267 634 283 C 678 298 717 324 750 361 C 782 397 810 446 832 508 C 854 569 872 645 887 737 C 899 809 905 873 905 930 C 905 1040 880 1122 831 1174 C 782 1226 704 1253 598 1253 L 516 1253 L 460 905 L 688 905 L 649 666 L 422 666 L 358 260 L 479 260 Z" unicode="Ð" />
<glyph horiz-adv-x="1315" d="M 248 1516 L 567 1516 L 797 836 C 805 809 813 785 820 765 C 826 744 832 724 838 705 C 843 685 848 665 854 645 C 859 624 864 601 870 575 L 874 575 L 1024 1516 L 1305 1516 L 1065 0 L 778 0 L 514 735 C 501 770 489 805 477 841 C 465 876 454 916 444 961 L 440 961 L 289 0 L 8 0 L 248 1516 Z M 950 1581 C 924 1581 902 1583 882 1589 C 862 1595 844 1602 828 1610 C 812 1618 797 1628 785 1638 C 772 1648 760 1657 749 1665 C 737 1673 726 1680 715 1686 C 704 1692 692 1695 680 1695 C 657 1695 638 1686 622 1670 C 606 1653 595 1625 589 1585 L 432 1585 C 438 1641 449 1689 465 1730 C 481 1770 500 1804 522 1831 C 544 1857 569 1877 596 1890 C 622 1903 650 1910 678 1910 C 716 1910 747 1904 773 1892 C 799 1880 822 1867 842 1853 C 862 1839 880 1826 896 1814 C 912 1802 930 1796 950 1796 C 972 1796 991 1804 1006 1820 C 1021 1836 1032 1864 1038 1906 L 1196 1906 C 1189 1848 1178 1798 1162 1757 C 1146 1716 1126 1683 1104 1657 C 1082 1631 1057 1611 1031 1599 C 1005 1587 978 1581 950 1581 Z" unicode="Ñ" />
<glyph horiz-adv-x="1315" d="M 573 -29 C 495 -29 423 -16 359 10 C 295 36 240 74 194 126 C 148 178 112 242 87 318 C 61 394 49 483 49 584 C 49 736 67 872 104 992 C 141 1111 191 1211 254 1293 C 317 1375 391 1437 475 1480 C 559 1522 648 1544 743 1544 C 820 1544 891 1530 955 1504 C 1019 1478 1075 1439 1121 1387 C 1167 1335 1203 1270 1229 1193 C 1255 1116 1268 1027 1268 926 C 1268 772 1249 636 1212 518 C 1175 399 1125 299 1062 218 C 998 137 924 76 840 34 C 756 -8 667 -29 573 -29 Z M 588 229 C 626 229 662 238 695 256 C 728 274 758 300 785 333 C 812 365 836 404 857 449 C 878 494 896 543 910 596 C 924 648 935 704 943 763 C 950 821 954 881 954 942 C 954 1048 935 1131 898 1191 C 860 1250 803 1280 727 1280 C 667 1280 615 1260 569 1220 C 523 1180 485 1126 455 1060 C 424 994 401 918 385 832 C 369 746 362 658 362 567 C 362 514 366 467 376 425 C 385 383 399 347 418 318 C 436 289 460 267 488 252 C 516 236 550 229 588 229 Z M 538 1945 L 825 1945 L 936 1605 L 739 1605 L 538 1945 Z" unicode="Ò" />
<glyph horiz-adv-x="1315" d="M 856 1945 L 1161 1945 L 854 1605 L 637 1605 L 856 1945 Z M 573 -29 C 495 -29 423 -16 359 10 C 295 36 240 74 194 126 C 148 178 112 242 87 318 C 61 394 49 483 49 584 C 49 736 67 872 104 992 C 141 1111 191 1211 254 1293 C 317 1375 391 1437 475 1480 C 559 1522 648 1544 743 1544 C 820 1544 891 1530 955 1504 C 1019 1478 1075 1439 1121 1387 C 1167 1335 1203 1270 1229 1193 C 1255 1116 1268 1027 1268 926 C 1268 772 1249 636 1212 518 C 1175 399 1125 299 1062 218 C 998 137 924 76 840 34 C 756 -8 667 -29 573 -29 Z M 588 229 C 626 229 662 238 695 256 C 728 274 758 300 785 333 C 812 365 836 404 857 449 C 878 494 896 543 910 596 C 924 648 935 704 943 763 C 950 821 954 881 954 942 C 954 1048 935 1131 898 1191 C 860 1250 803 1280 727 1280 C 667 1280 615 1260 569 1220 C 523 1180 485 1126 455 1060 C 424 994 401 918 385 832 C 369 746 362 658 362 567 C 362 514 366 467 376 425 C 385 383 399 347 418 318 C 436 289 460 267 488 252 C 516 236 550 229 588 229 Z" unicode="Ó" />
<glyph horiz-adv-x="1315" d="M 743 1945 L 946 1945 L 1116 1605 L 942 1605 L 815 1751 L 639 1605 L 465 1605 L 743 1945 Z M 573 -29 C 495 -29 423 -16 359 10 C 295 36 240 74 194 126 C 148 178 112 242 87 318 C 61 394 49 483 49 584 C 49 736 67 872 104 992 C 141 1111 191 1211 254 1293 C 317 1375 391 1437 475 1480 C 559 1522 648 1544 743 1544 C 820 1544 891 1530 955 1504 C 1019 1478 1075 1439 1121 1387 C 1167 1335 1203 1270 1229 1193 C 1255 1116 1268 1027 1268 926 C 1268 772 1249 636 1212 518 C 1175 399 1125 299 1062 218 C 998 137 924 76 840 34 C 756 -8 667 -29 573 -29 Z M 588 229 C 626 229 662 238 695 256 C 728 274 758 300 785 333 C 812 365 836 404 857 449 C 878 494 896 543 910 596 C 924 648 935 704 943 763 C 950 821 954 881 954 942 C 954 1048 935 1131 898 1191 C 860 1250 803 1280 727 1280 C 667 1280 615 1260 569 1220 C 523 1180 485 1126 455 1060 C 424 994 401 918 385 832 C 369 746 362 658 362 567 C 362 514 366 467 376 425 C 385 383 399 347 418 318 C 436 289 460 267 488 252 C 516 236 550 229 588 229 Z" unicode="Ô" />
<glyph horiz-adv-x="1315" d="M 573 -29 C 495 -29 423 -16 359 10 C 295 36 240 74 194 126 C 148 178 112 242 87 318 C 61 394 49 483 49 584 C 49 736 67 872 104 992 C 141 1111 191 1211 254 1293 C 317 1375 391 1437 475 1480 C 559 1522 648 1544 743 1544 C 820 1544 891 1530 955 1504 C 1019 1478 1075 1439 1121 1387 C 1167 1335 1203 1270 1229 1193 C 1255 1116 1268 1027 1268 926 C 1268 772 1249 636 1212 518 C 1175 399 1125 299 1062 218 C 998 137 924 76 840 34 C 756 -8 667 -29 573 -29 Z M 588 229 C 626 229 662 238 695 256 C 728 274 758 300 785 333 C 812 365 836 404 857 449 C 878 494 896 543 910 596 C 924 648 935 704 943 763 C 950 821 954 881 954 942 C 954 1048 935 1131 898 1191 C 860 1250 803 1280 727 1280 C 667 1280 615 1260 569 1220 C 523 1180 485 1126 455 1060 C 424 994 401 918 385 832 C 369 746 362 658 362 567 C 362 514 366 467 376 425 C 385 383 399 347 418 318 C 436 289 460 267 488 252 C 516 236 550 229 588 229 Z M 950 1581 C 924 1581 902 1583 882 1589 C 862 1595 844 1602 828 1610 C 812 1618 797 1628 785 1638 C 772 1648 760 1657 749 1665 C 737 1673 726 1680 715 1686 C 704 1692 692 1695 680 1695 C 657 1695 638 1686 622 1670 C 606 1653 595 1625 589 1585 L 432 1585 C 438 1641 449 1689 465 1730 C 481 1770 500 1804 522 1831 C 544 1857 569 1877 596 1890 C 622 1903 650 1910 678 1910 C 716 1910 747 1904 773 1892 C 799 1880 822 1867 842 1853 C 862 1839 880 1826 896 1814 C 912 1802 930 1796 950 1796 C 972 1796 991 1804 1006 1820 C 1021 1836 1032 1864 1038 1906 L 1196 1906 C 1189 1848 1178 1798 1162 1757 C 1146 1716 1126 1683 1104 1657 C 1082 1631 1057 1611 1031 1599 C 1005 1587 978 1581 950 1581 Z" unicode="Õ" />
<glyph horiz-adv-x="1315" d="M 903 1882 L 1157 1882 L 1112 1599 L 858 1599 L 903 1882 Z M 514 1882 L 770 1882 L 725 1599 L 469 1599 L 514 1882 Z M 573 -29 C 495 -29 423 -16 359 10 C 295 36 240 74 194 126 C 148 178 112 242 87 318 C 61 394 49 483 49 584 C 49 736 67 872 104 992 C 141 1111 191 1211 254 1293 C 317 1375 391 1437 475 1480 C 559 1522 648 1544 743 1544 C 820 1544 891 1530 955 1504 C 1019 1478 1075 1439 1121 1387 C 1167 1335 1203 1270 1229 1193 C 1255 1116 1268 1027 1268 926 C 1268 772 1249 636 1212 518 C 1175 399 1125 299 1062 218 C 998 137 924 76 840 34 C 756 -8 667 -29 573 -29 Z M 588 229 C 626 229 662 238 695 256 C 728 274 758 300 785 333 C 812 365 836 404 857 449 C 878 494 896 543 910 596 C 924 648 935 704 943 763 C 950 821 954 881 954 942 C 954 1048 935 1131 898 1191 C 860 1250 803 1280 727 1280 C 667 1280 615 1260 569 1220 C 523 1180 485 1126 455 1060 C 424 994 401 918 385 832 C 369 746 362 658 362 567 C 362 514 366 467 376 425 C 385 383 399 347 418 318 C 436 289 460 267 488 252 C 516 236 550 229 588 229 Z" unicode="Ö" />
<glyph horiz-adv-x="1157" d="M 111 401 L 410 698 L 111 997 L 276 1163 L 575 864 L 874 1163 L 1038 997 L 741 698 L 1038 401 L 874 236 L 575 535 L 276 236 L 111 401 Z" unicode="×" />
<glyph horiz-adv-x="1315" d="M -63 6 L 123 232 C 99 278 80 331 68 390 C 55 448 49 513 49 584 C 49 736 67 872 104 992 C 141 1111 191 1211 254 1293 C 317 1375 391 1437 475 1480 C 559 1522 648 1544 743 1544 C 810 1544 872 1534 929 1514 C 986 1494 1037 1465 1082 1426 L 1235 1614 L 1378 1511 L 1192 1283 C 1216 1235 1234 1182 1248 1123 C 1261 1063 1268 998 1268 926 C 1268 772 1249 636 1212 518 C 1175 399 1125 299 1062 218 C 998 137 924 76 840 34 C 756 -8 667 -29 573 -29 C 505 -29 442 -19 385 0 C 328 19 278 48 234 88 L 82 -98 L -63 6 Z M 588 225 C 626 225 662 234 696 253 C 729 271 760 297 788 330 C 816 363 840 402 862 448 C 884 493 902 542 917 595 C 932 648 943 704 951 763 C 959 821 963 881 963 942 C 963 964 962 986 960 1008 L 413 317 C 432 287 456 264 486 248 C 515 232 549 225 588 225 Z M 354 567 C 354 556 354 546 354 536 C 354 526 355 516 356 507 L 904 1192 C 884 1222 859 1244 830 1260 C 800 1276 766 1284 727 1284 C 687 1284 651 1274 617 1256 C 583 1237 552 1211 524 1179 C 496 1146 472 1107 451 1062 C 429 1017 411 968 397 915 C 383 861 372 805 365 746 C 357 687 354 627 354 567 Z" unicode="Ø" />
<glyph horiz-adv-x="1231" d="M 532 -27 C 432 -27 349 -13 284 13 C 218 40 168 78 132 128 C 96 178 74 238 66 308 C 57 378 60 457 74 545 L 227 1516 L 539 1516 L 385 543 C 377 490 373 444 374 406 C 375 368 382 336 394 311 C 406 286 424 268 448 256 C 472 244 504 238 543 238 C 581 238 614 244 642 256 C 670 268 694 286 714 311 C 734 336 750 368 763 406 C 776 444 787 489 795 541 L 948 1516 L 1245 1516 L 1087 510 C 1073 422 1051 345 1022 278 C 993 211 956 155 910 110 C 864 64 810 30 748 7 C 685 -15 613 -27 532 -27 Z M 497 1945 L 784 1945 L 895 1605 L 698 1605 L 497 1945 Z" unicode="Ù" />
<glyph horiz-adv-x="1231" d="M 815 1945 L 1120 1945 L 813 1605 L 596 1605 L 815 1945 Z M 532 -27 C 432 -27 349 -13 284 13 C 218 40 168 78 132 128 C 96 178 74 238 66 308 C 57 378 60 457 74 545 L 227 1516 L 539 1516 L 385 543 C 377 490 373 444 374 406 C 375 368 382 336 394 311 C 406 286 424 268 448 256 C 472 244 504 238 543 238 C 581 238 614 244 642 256 C 670 268 694 286 714 311 C 734 336 750 368 763 406 C 776 444 787 489 795 541 L 948 1516 L 1245 1516 L 1087 510 C 1073 422 1051 345 1022 278 C 993 211 956 155 910 110 C 864 64 810 30 748 7 C 685 -15 613 -27 532 -27 Z" unicode="Ú" />
<glyph horiz-adv-x="1231" d="M 702 1945 L 905 1945 L 1075 1605 L 901 1605 L 774 1751 L 598 1605 L 424 1605 L 702 1945 Z M 532 -27 C 432 -27 349 -13 284 13 C 218 40 168 78 132 128 C 96 178 74 238 66 308 C 57 378 60 457 74 545 L 227 1516 L 539 1516 L 385 543 C 377 490 373 444 374 406 C 375 368 382 336 394 311 C 406 286 424 268 448 256 C 472 244 504 238 543 238 C 581 238 614 244 642 256 C 670 268 694 286 714 311 C 734 336 750 368 763 406 C 776 444 787 489 795 541 L 948 1516 L 1245 1516 L 1087 510 C 1073 422 1051 345 1022 278 C 993 211 956 155 910 110 C 864 64 810 30 748 7 C 685 -15 613 -27 532 -27 Z" unicode="Û" />
<glyph horiz-adv-x="1231" d="M 862 1882 L 1116 1882 L 1071 1599 L 817 1599 L 862 1882 Z M 473 1882 L 729 1882 L 684 1599 L 428 1599 L 473 1882 Z M 532 -27 C 432 -27 349 -13 284 13 C 218 40 168 78 132 128 C 96 178 74 238 66 308 C 57 378 60 457 74 545 L 227 1516 L 539 1516 L 385 543 C 377 490 373 444 374 406 C 375 368 382 336 394 311 C 406 286 424 268 448 256 C 472 244 504 238 543 238 C 581 238 614 244 642 256 C 670 268 694 286 714 311 C 734 336 750 368 763 406 C 776 444 787 489 795 541 L 948 1516 L 1245 1516 L 1087 510 C 1073 422 1051 345 1022 278 C 993 211 956 155 910 110 C 864 64 810 30 748 7 C 685 -15 613 -27 532 -27 Z" unicode="Ü" />
<glyph horiz-adv-x="1157" d="M 397 596 L 127 1516 L 438 1516 L 598 879 L 602 879 L 963 1516 L 1272 1516 L 709 596 L 614 0 L 303 0 L 397 596 Z M 779 1945 L 1084 1945 L 777 1605 L 560 1605 L 779 1945 Z" unicode="Ý" />
<glyph horiz-adv-x="1153" d="M 248 1516 L 553 1516 L 514 1272 L 602 1272 C 676 1272 743 1264 805 1248 C 867 1232 920 1208 964 1175 C 1008 1141 1043 1098 1068 1046 C 1093 994 1106 931 1106 858 C 1106 774 1097 701 1079 640 C 1061 579 1036 527 1006 485 C 976 443 941 408 902 382 C 863 356 822 335 780 321 C 738 307 695 297 653 292 C 611 287 571 285 535 285 L 358 285 L 313 0 L 8 0 L 248 1516 Z M 547 530 C 587 530 623 535 655 546 C 687 556 714 573 736 597 C 758 621 775 652 787 690 C 799 728 805 775 805 831 C 805 888 788 932 754 964 C 720 996 663 1012 584 1012 L 473 1012 L 397 530 L 547 530 Z" unicode="Þ" />
<glyph horiz-adv-x="1176" d="M 662 -20 C 624 -20 589 -17 557 -13 C 525 -8 497 -2 471 5 C 445 12 422 20 402 30 C 382 39 364 49 350 59 L 481 266 C 501 252 523 240 547 230 C 571 220 599 215 633 215 C 687 215 729 237 759 282 C 789 326 805 391 805 477 C 805 510 799 539 789 565 C 779 590 762 611 739 629 C 716 646 686 660 650 670 C 614 680 570 686 518 690 L 551 889 C 635 890 697 910 737 948 C 777 986 797 1046 797 1128 C 797 1147 794 1165 789 1182 C 783 1199 775 1214 763 1227 C 751 1239 735 1249 717 1257 C 698 1264 675 1268 649 1268 C 597 1268 555 1249 523 1212 C 491 1175 469 1117 457 1038 L 291 0 L -10 0 L 154 1032 C 168 1119 190 1193 221 1255 C 252 1316 290 1366 334 1405 C 378 1443 429 1471 485 1489 C 541 1507 600 1516 664 1516 C 733 1516 794 1508 847 1492 C 899 1476 943 1453 979 1424 C 1015 1395 1042 1360 1060 1320 C 1078 1279 1087 1234 1087 1184 C 1087 1128 1080 1080 1066 1038 C 1052 996 1033 959 1009 929 C 985 898 956 873 924 853 C 891 833 856 817 819 805 C 866 797 907 783 941 763 C 975 743 1003 718 1025 689 C 1047 660 1063 627 1074 591 C 1084 554 1090 515 1090 475 C 1090 396 1079 326 1057 265 C 1035 203 1005 151 967 109 C 929 67 883 35 831 13 C 779 -9 722 -20 662 -20 Z" unicode="ß" />
<glyph horiz-adv-x="997" d="M 219 -14 C 181 -14 147 -8 116 3 C 84 14 57 31 35 53 C 12 75 -5 102 -18 134 C -31 166 -38 202 -39 244 C -39 316 -24 379 5 432 C 34 485 76 530 132 567 C 187 603 254 633 334 655 C 414 677 504 695 604 707 L 610 754 C 616 795 614 826 602 846 C 590 866 563 877 522 877 C 466 877 413 867 362 848 C 310 829 263 805 219 776 L 109 961 C 181 1016 257 1055 338 1079 C 418 1102 501 1114 586 1114 C 654 1114 710 1106 756 1092 C 801 1077 836 1055 861 1025 C 886 995 902 958 908 913 C 914 868 913 815 903 754 L 827 266 C 815 200 808 146 806 104 C 803 62 805 28 811 0 L 512 0 C 508 20 506 40 506 60 C 505 79 508 104 514 135 C 490 109 467 87 445 69 C 422 50 399 34 376 22 C 352 10 328 1 302 -5 C 276 -11 249 -14 219 -14 Z M 369 219 C 405 219 436 226 462 240 C 488 254 513 271 537 293 L 578 547 C 520 537 471 525 431 511 C 391 497 359 480 335 462 C 310 443 292 422 282 398 C 271 374 266 347 266 317 C 266 287 275 263 294 245 C 312 227 337 219 369 219 Z M 315 1542 L 602 1542 L 713 1202 L 516 1202 L 315 1542 Z" unicode="à" />
<glyph horiz-adv-x="997" d="M 219 -14 C 181 -14 147 -8 116 3 C 84 14 57 31 35 53 C 12 75 -5 102 -18 134 C -31 166 -38 202 -39 244 C -39 316 -24 379 5 432 C 34 485 76 530 132 567 C 187 603 254 633 334 655 C 414 677 504 695 604 707 L 610 754 C 616 795 614 826 602 846 C 590 866 563 877 522 877 C 466 877 413 867 362 848 C 310 829 263 805 219 776 L 109 961 C 181 1016 257 1055 338 1079 C 418 1102 501 1114 586 1114 C 654 1114 710 1106 756 1092 C 801 1077 836 1055 861 1025 C 886 995 902 958 908 913 C 914 868 913 815 903 754 L 827 266 C 815 200 808 146 806 104 C 803 62 805 28 811 0 L 512 0 C 508 20 506 40 506 60 C 505 79 508 104 514 135 C 490 109 467 87 445 69 C 422 50 399 34 376 22 C 352 10 328 1 302 -5 C 276 -11 249 -14 219 -14 Z M 369 219 C 405 219 436 226 462 240 C 488 254 513 271 537 293 L 578 547 C 520 537 471 525 431 511 C 391 497 359 480 335 462 C 310 443 292 422 282 398 C 271 374 266 347 266 317 C 266 287 275 263 294 245 C 312 227 337 219 369 219 Z M 633 1542 L 938 1542 L 631 1202 L 414 1202 L 633 1542 Z" unicode="á" />
<glyph horiz-adv-x="997" d="M 219 -14 C 181 -14 147 -8 116 3 C 84 14 57 31 35 53 C 12 75 -5 102 -18 134 C -31 166 -38 202 -39 244 C -39 316 -24 379 5 432 C 34 485 76 530 132 567 C 187 603 254 633 334 655 C 414 677 504 695 604 707 L 610 754 C 616 795 614 826 602 846 C 590 866 563 877 522 877 C 466 877 413 867 362 848 C 310 829 263 805 219 776 L 109 961 C 181 1016 257 1055 338 1079 C 418 1102 501 1114 586 1114 C 654 1114 710 1106 756 1092 C 801 1077 836 1055 861 1025 C 886 995 902 958 908 913 C 914 868 913 815 903 754 L 827 266 C 815 200 808 146 806 104 C 803 62 805 28 811 0 L 512 0 C 508 20 506 40 506 60 C 505 79 508 104 514 135 C 490 109 467 87 445 69 C 422 50 399 34 376 22 C 352 10 328 1 302 -5 C 276 -11 249 -14 219 -14 Z M 369 219 C 405 219 436 226 462 240 C 488 254 513 271 537 293 L 578 547 C 520 537 471 525 431 511 C 391 497 359 480 335 462 C 310 443 292 422 282 398 C 271 374 266 347 266 317 C 266 287 275 263 294 245 C 312 227 337 219 369 219 Z M 520 1542 L 723 1542 L 893 1202 L 719 1202 L 592 1348 L 416 1202 L 242 1202 L 520 1542 Z" unicode="â" />
<glyph horiz-adv-x="997" d="M 219 -14 C 181 -14 147 -8 116 3 C 84 14 57 31 35 53 C 12 75 -5 102 -18 134 C -31 166 -38 202 -39 244 C -39 316 -24 379 5 432 C 34 485 76 530 132 567 C 187 603 254 633 334 655 C 414 677 504 695 604 707 L 610 754 C 616 795 614 826 602 846 C 590 866 563 877 522 877 C 466 877 413 867 362 848 C 310 829 263 805 219 776 L 109 961 C 181 1016 257 1055 338 1079 C 418 1102 501 1114 586 1114 C 654 1114 710 1106 756 1092 C 801 1077 836 1055 861 1025 C 886 995 902 958 908 913 C 914 868 913 815 903 754 L 827 266 C 815 200 808 146 806 104 C 803 62 805 28 811 0 L 512 0 C 508 20 506 40 506 60 C 505 79 508 104 514 135 C 490 109 467 87 445 69 C 422 50 399 34 376 22 C 352 10 328 1 302 -5 C 276 -11 249 -14 219 -14 Z M 369 219 C 405 219 436 226 462 240 C 488 254 513 271 537 293 L 578 547 C 520 537 471 525 431 511 C 391 497 359 480 335 462 C 310 443 292 422 282 398 C 271 374 266 347 266 317 C 266 287 275 263 294 245 C 312 227 337 219 369 219 Z M 727 1178 C 701 1178 679 1180 659 1186 C 639 1192 621 1199 605 1207 C 589 1215 574 1225 562 1235 C 549 1245 537 1254 526 1262 C 514 1270 503 1277 492 1283 C 481 1289 469 1292 457 1292 C 434 1292 415 1283 399 1267 C 383 1250 372 1222 366 1182 L 209 1182 C 215 1238 226 1286 242 1327 C 258 1367 277 1401 299 1428 C 321 1454 346 1474 373 1487 C 399 1500 427 1507 455 1507 C 493 1507 524 1501 550 1489 C 576 1477 599 1464 619 1450 C 639 1436 657 1423 673 1411 C 689 1399 707 1393 727 1393 C 749 1393 768 1401 783 1417 C 798 1433 809 1461 815 1503 L 973 1503 C 966 1445 955 1395 939 1354 C 923 1313 903 1280 881 1254 C 859 1228 834 1208 808 1196 C 782 1184 755 1178 727 1178 Z" unicode="ã" />
<glyph horiz-adv-x="997" d="M 219 -14 C 181 -14 147 -8 116 3 C 84 14 57 31 35 53 C 12 75 -5 102 -18 134 C -31 166 -38 202 -39 244 C -39 316 -24 379 5 432 C 34 485 76 530 132 567 C 187 603 254 633 334 655 C 414 677 504 695 604 707 L 610 754 C 616 795 614 826 602 846 C 590 866 563 877 522 877 C 466 877 413 867 362 848 C 310 829 263 805 219 776 L 109 961 C 181 1016 257 1055 338 1079 C 418 1102 501 1114 586 1114 C 654 1114 710 1106 756 1092 C 801 1077 836 1055 861 1025 C 886 995 902 958 908 913 C 914 868 913 815 903 754 L 827 266 C 815 200 808 146 806 104 C 803 62 805 28 811 0 L 512 0 C 508 20 506 40 506 60 C 505 79 508 104 514 135 C 490 109 467 87 445 69 C 422 50 399 34 376 22 C 352 10 328 1 302 -5 C 276 -11 249 -14 219 -14 Z M 369 219 C 405 219 436 226 462 240 C 488 254 513 271 537 293 L 578 547 C 520 537 471 525 431 511 C 391 497 359 480 335 462 C 310 443 292 422 282 398 C 271 374 266 347 266 317 C 266 287 275 263 294 245 C 312 227 337 219 369 219 Z M 680 1479 L 934 1479 L 889 1196 L 635 1196 L 680 1479 Z M 291 1479 L 547 1479 L 502 1196 L 246 1196 L 291 1479 Z" unicode="ä" />
<glyph horiz-adv-x="997" d="M 219 -14 C 181 -14 147 -8 116 3 C 84 14 57 31 35 53 C 12 75 -5 102 -18 134 C -31 166 -38 202 -39 244 C -39 316 -24 379 5 432 C 34 485 76 530 132 567 C 187 603 254 633 334 655 C 414 677 504 695 604 707 L 610 754 C 616 795 614 826 602 846 C 590 866 563 877 522 877 C 466 877 413 867 362 848 C 310 829 263 805 219 776 L 109 961 C 181 1016 257 1055 338 1079 C 418 1102 501 1114 586 1114 C 654 1114 710 1106 756 1092 C 801 1077 836 1055 861 1025 C 886 995 902 958 908 913 C 914 868 913 815 903 754 L 827 266 C 815 200 808 146 806 104 C 803 62 805 28 811 0 L 512 0 C 508 20 506 40 506 60 C 505 79 508 104 514 135 C 490 109 467 87 445 69 C 422 50 399 34 376 22 C 352 10 328 1 302 -5 C 276 -11 249 -14 219 -14 Z M 369 219 C 405 219 436 226 462 240 C 488 254 513 271 537 293 L 578 547 C 520 537 471 525 431 511 C 391 497 359 480 335 462 C 310 443 292 422 282 398 C 271 374 266 347 266 317 C 266 287 275 263 294 245 C 312 227 337 219 369 219 Z M 575 1174 C 545 1174 519 1179 496 1189 C 473 1199 454 1214 438 1232 C 422 1250 409 1271 401 1295 C 393 1319 389 1344 389 1372 C 389 1410 395 1444 408 1475 C 421 1505 439 1532 461 1554 C 483 1576 508 1592 536 1604 C 564 1616 594 1622 625 1622 C 654 1622 680 1616 703 1606 C 726 1596 746 1582 762 1564 C 778 1546 790 1526 798 1502 C 806 1478 811 1452 811 1425 C 811 1387 804 1352 791 1322 C 778 1291 761 1265 739 1243 C 717 1221 692 1204 664 1192 C 636 1180 606 1174 575 1174 Z M 584 1292 C 598 1292 610 1295 622 1302 C 633 1308 643 1317 651 1329 C 659 1340 665 1353 669 1368 C 673 1383 676 1399 676 1415 C 676 1437 670 1457 660 1474 C 649 1490 633 1499 612 1499 C 598 1499 585 1495 574 1488 C 563 1481 554 1472 546 1461 C 538 1449 532 1436 528 1421 C 524 1406 522 1390 522 1374 C 522 1351 527 1332 537 1316 C 547 1300 562 1292 584 1292 Z" unicode="å" />
<glyph horiz-adv-x="1538" d="M 975 -23 C 893 -23 823 -8 764 22 C 704 52 658 97 625 159 C 600 134 574 111 546 90 C 518 69 488 51 455 35 C 422 19 386 7 347 -1 C 308 -9 265 -14 219 -14 C 181 -14 147 -8 116 3 C 84 14 57 31 35 53 C 12 75 -5 102 -18 134 C -31 166 -38 202 -39 244 C -39 316 -24 379 5 432 C 34 485 76 530 132 567 C 187 603 254 633 334 655 C 414 677 504 695 604 707 L 610 754 C 616 795 614 826 602 846 C 590 866 563 877 522 877 C 466 877 413 867 362 848 C 310 829 263 805 219 776 L 109 961 C 181 1016 257 1055 338 1079 C 418 1102 501 1114 586 1114 C 648 1114 699 1108 739 1096 C 779 1084 810 1065 833 1040 C 870 1065 909 1084 950 1096 C 991 1108 1033 1114 1077 1114 C 1139 1114 1194 1106 1242 1090 C 1290 1074 1331 1049 1364 1015 C 1397 981 1422 937 1440 884 C 1457 831 1466 768 1466 694 C 1466 668 1464 642 1462 614 C 1459 586 1456 557 1452 526 L 1444 471 L 847 471 C 845 449 844 429 844 410 C 844 338 857 286 885 253 C 912 219 953 203 1008 203 C 1030 203 1052 206 1074 214 C 1096 222 1117 232 1137 245 C 1157 258 1175 273 1193 290 C 1211 307 1227 325 1241 344 L 1401 197 C 1345 129 1282 76 1212 36 C 1142 -3 1063 -23 975 -23 Z M 369 219 C 401 219 435 227 471 245 C 506 262 541 287 575 320 C 571 350 569 383 569 418 C 569 463 571 506 575 548 C 519 538 471 525 432 510 C 392 495 360 478 336 458 C 311 438 293 417 282 393 C 271 369 266 344 266 317 C 266 287 275 263 294 245 C 312 227 337 219 369 219 Z M 1071 883 C 977 883 912 803 874 643 L 1194 643 C 1202 722 1197 782 1179 822 C 1161 862 1125 883 1071 883 Z" unicode="æ" />
<glyph horiz-adv-x="965" d="M 426 -23 C 364 -23 308 -13 257 5 C 205 23 161 52 124 90 C 87 128 58 175 37 232 C 16 289 6 356 6 432 C 6 520 14 599 31 667 C 47 735 70 795 98 845 C 126 895 158 938 194 972 C 230 1006 268 1034 307 1055 C 345 1076 384 1091 423 1100 C 461 1109 497 1114 530 1114 C 604 1114 665 1104 714 1086 C 763 1067 803 1042 833 1010 C 863 978 885 940 899 896 C 913 852 922 806 926 756 L 649 692 C 647 724 643 752 639 776 C 634 800 627 819 617 835 C 607 850 595 861 580 869 C 564 877 545 881 522 881 C 498 881 476 875 456 864 C 436 852 417 834 400 809 C 383 783 368 750 355 710 C 341 670 330 621 322 563 C 316 531 312 500 308 472 C 304 444 303 417 303 393 C 303 333 313 286 335 253 C 356 219 390 203 438 203 C 453 203 468 206 484 213 C 499 219 514 230 529 246 C 544 261 559 281 573 307 C 587 332 600 363 614 401 L 864 338 C 844 286 821 237 794 193 C 767 149 735 111 699 79 C 663 47 622 22 577 4 C 531 -14 481 -23 426 -23 Z M 327 -430 C 262 -430 206 -423 160 -410 C 113 -397 74 -380 42 -360 L 120 -250 C 132 -258 145 -265 160 -272 C 175 -279 191 -285 208 -290 C 225 -294 243 -298 261 -301 C 279 -303 297 -305 315 -305 C 347 -305 374 -299 394 -288 C 414 -276 425 -256 425 -227 C 425 -199 408 -186 374 -186 C 344 -186 314 -197 286 -219 L 208 -180 L 298 12 L 427 12 L 378 -100 C 391 -92 408 -85 428 -80 C 448 -74 467 -72 487 -72 C 523 -72 554 -83 578 -107 C 602 -130 614 -163 614 -205 C 614 -241 606 -272 590 -300 C 574 -328 553 -351 527 -371 C 501 -390 470 -405 436 -415 C 401 -425 365 -430 327 -430 Z" unicode="ç" />
<glyph horiz-adv-x="991" d="M 428 -23 C 365 -23 308 -14 256 4 C 204 22 160 49 123 86 C 86 122 57 168 37 224 C 16 279 6 344 6 418 C 6 496 13 568 27 633 C 41 697 60 755 84 807 C 108 859 137 904 170 942 C 203 980 239 1012 278 1038 C 317 1063 358 1082 401 1095 C 443 1107 486 1114 530 1114 C 592 1114 647 1106 695 1090 C 743 1074 784 1049 818 1015 C 851 981 876 937 894 884 C 911 831 920 768 920 694 C 920 668 918 642 915 614 C 912 586 909 557 905 526 L 897 471 L 300 471 C 298 449 297 429 297 410 C 297 338 310 286 338 253 C 365 219 406 203 461 203 C 483 203 505 206 527 214 C 549 222 570 232 590 245 C 610 258 628 273 646 290 C 664 307 680 325 694 344 L 854 197 C 798 129 735 76 665 36 C 595 -3 516 -23 428 -23 Z M 524 883 C 430 883 365 803 327 643 L 647 643 C 655 722 651 782 633 822 C 615 862 578 883 524 883 Z M 313 1542 L 600 1542 L 711 1202 L 514 1202 L 313 1542 Z" unicode="è" />
<glyph horiz-adv-x="991" d="M 631 1542 L 936 1542 L 629 1202 L 412 1202 L 631 1542 Z M 428 -23 C 365 -23 308 -14 256 4 C 204 22 160 49 123 86 C 86 122 57 168 37 224 C 16 279 6 344 6 418 C 6 496 13 568 27 633 C 41 697 60 755 84 807 C 108 859 137 904 170 942 C 203 980 239 1012 278 1038 C 317 1063 358 1082 401 1095 C 443 1107 486 1114 530 1114 C 592 1114 647 1106 695 1090 C 743 1074 784 1049 818 1015 C 851 981 876 937 894 884 C 911 831 920 768 920 694 C 920 668 918 642 915 614 C 912 586 909 557 905 526 L 897 471 L 300 471 C 298 449 297 429 297 410 C 297 338 310 286 338 253 C 365 219 406 203 461 203 C 483 203 505 206 527 214 C 549 222 570 232 590 245 C 610 258 628 273 646 290 C 664 307 680 325 694 344 L 854 197 C 798 129 735 76 665 36 C 595 -3 516 -23 428 -23 Z M 524 883 C 430 883 365 803 327 643 L 647 643 C 655 722 651 782 633 822 C 615 862 578 883 524 883 Z" unicode="é" />
<glyph horiz-adv-x="991" d="M 518 1542 L 721 1542 L 891 1202 L 717 1202 L 590 1348 L 414 1202 L 240 1202 L 518 1542 Z M 428 -23 C 365 -23 308 -14 256 4 C 204 22 160 49 123 86 C 86 122 57 168 37 224 C 16 279 6 344 6 418 C 6 496 13 568 27 633 C 41 697 60 755 84 807 C 108 859 137 904 170 942 C 203 980 239 1012 278 1038 C 317 1063 358 1082 401 1095 C 443 1107 486 1114 530 1114 C 592 1114 647 1106 695 1090 C 743 1074 784 1049 818 1015 C 851 981 876 937 894 884 C 911 831 920 768 920 694 C 920 668 918 642 915 614 C 912 586 909 557 905 526 L 897 471 L 300 471 C 298 449 297 429 297 410 C 297 338 310 286 338 253 C 365 219 406 203 461 203 C 483 203 505 206 527 214 C 549 222 570 232 590 245 C 610 258 628 273 646 290 C 664 307 680 325 694 344 L 854 197 C 798 129 735 76 665 36 C 595 -3 516 -23 428 -23 Z M 524 883 C 430 883 365 803 327 643 L 647 643 C 655 722 651 782 633 822 C 615 862 578 883 524 883 Z" unicode="ê" />
<glyph horiz-adv-x="991" d="M 678 1479 L 932 1479 L 887 1196 L 633 1196 L 678 1479 Z M 289 1479 L 545 1479 L 500 1196 L 244 1196 L 289 1479 Z M 428 -23 C 365 -23 308 -14 256 4 C 204 22 160 49 123 86 C 86 122 57 168 37 224 C 16 279 6 344 6 418 C 6 496 13 568 27 633 C 41 697 60 755 84 807 C 108 859 137 904 170 942 C 203 980 239 1012 278 1038 C 317 1063 358 1082 401 1095 C 443 1107 486 1114 530 1114 C 592 1114 647 1106 695 1090 C 743 1074 784 1049 818 1015 C 851 981 876 937 894 884 C 911 831 920 768 920 694 C 920 668 918 642 915 614 C 912 586 909 557 905 526 L 897 471 L 300 471 C 298 449 297 429 297 410 C 297 338 310 286 338 253 C 365 219 406 203 461 203 C 483 203 505 206 527 214 C 549 222 570 232 590 245 C 610 258 628 273 646 290 C 664 307 680 325 694 344 L 854 197 C 798 129 735 76 665 36 C 595 -3 516 -23 428 -23 Z M 524 883 C 430 883 365 803 327 643 L 647 643 C 655 722 651 782 633 822 C 615 862 578 883 524 883 Z" unicode="ë" />
<glyph horiz-adv-x="528" d="M 168 1092 L 469 1092 L 297 0 L -6 0 L 168 1092 Z M 64 1542 L 351 1542 L 462 1202 L 265 1202 L 64 1542 Z" unicode="ì" />
<glyph horiz-adv-x="528" d="M 415 1542 L 720 1542 L 413 1202 L 196 1202 L 415 1542 Z M 168 1092 L 469 1092 L 297 0 L -6 0 L 168 1092 Z" unicode="í" />
<glyph horiz-adv-x="528" d="M 288 1542 L 491 1542 L 661 1202 L 487 1202 L 360 1348 L 184 1202 L 10 1202 L 288 1542 Z M 168 1092 L 469 1092 L 297 0 L -6 0 L 168 1092 Z" unicode="î" />
<glyph horiz-adv-x="528" d="M 448 1479 L 702 1479 L 657 1196 L 403 1196 L 448 1479 Z M 59 1479 L 315 1479 L 270 1196 L 14 1196 L 59 1479 Z M 168 1092 L 469 1092 L 297 0 L -6 0 L 168 1092 Z" unicode="ï" />
<glyph horiz-adv-x="1042" d="M 459 1237 L 581 1301 C 549 1342 516 1375 483 1401 L 666 1565 C 693 1542 718 1518 741 1494 C 764 1470 786 1445 806 1420 L 948 1495 L 1010 1352 L 889 1288 C 923 1220 947 1147 963 1071 C 979 995 987 913 987 825 C 987 674 973 545 945 438 C 917 331 878 243 830 175 C 782 107 725 57 659 25 C 593 -7 522 -23 446 -23 C 374 -23 311 -12 256 9 C 200 30 154 60 116 98 C 78 136 50 183 31 237 C 11 291 2 352 2 418 C 2 522 16 611 45 687 C 74 763 112 825 158 875 C 204 924 255 960 313 984 C 370 1008 427 1020 483 1020 C 539 1020 589 1009 633 987 C 677 965 709 933 731 889 C 729 937 723 984 711 1031 C 699 1078 682 1123 662 1167 L 518 1090 L 459 1237 Z M 449 207 C 473 207 495 212 517 223 C 538 234 558 251 576 275 C 594 298 609 328 623 364 C 636 400 647 444 655 496 C 658 516 661 536 663 555 C 665 574 666 593 666 612 C 666 676 653 726 629 762 C 605 797 568 815 518 815 C 494 815 471 809 450 799 C 429 788 410 771 393 747 C 375 723 360 693 347 656 C 333 619 323 574 315 522 C 307 474 303 432 303 395 C 303 333 314 286 338 254 C 362 222 399 207 449 207 Z" unicode="ð" />
<glyph horiz-adv-x="1073" d="M 158 1092 L 459 1092 L 436 956 C 452 974 472 993 494 1012 C 516 1031 541 1048 569 1063 C 596 1078 626 1090 659 1100 C 691 1109 726 1114 764 1114 C 804 1114 840 1109 872 1099 C 903 1089 928 1072 948 1050 C 968 1027 981 997 988 961 C 995 924 995 879 987 827 L 856 0 L 555 0 L 670 731 C 677 773 675 804 664 826 C 652 847 629 858 594 858 C 564 858 532 849 499 833 C 466 816 436 797 408 776 L 287 0 L -16 0 L 158 1092 Z M 766 1178 C 740 1178 718 1180 698 1186 C 678 1192 660 1199 644 1207 C 628 1215 613 1225 601 1235 C 588 1245 576 1254 565 1262 C 553 1270 542 1277 531 1283 C 520 1289 508 1292 496 1292 C 473 1292 454 1283 438 1267 C 422 1250 411 1222 405 1182 L 248 1182 C 254 1238 265 1286 281 1327 C 297 1367 316 1401 338 1428 C 360 1454 385 1474 412 1487 C 438 1500 466 1507 494 1507 C 532 1507 563 1501 589 1489 C 615 1477 638 1464 658 1450 C 678 1436 696 1423 712 1411 C 728 1399 746 1393 766 1393 C 788 1393 807 1401 822 1417 C 837 1433 848 1461 854 1503 L 1012 1503 C 1005 1445 994 1395 978 1354 C 962 1313 942 1280 920 1254 C 898 1228 873 1208 847 1196 C 821 1184 794 1178 766 1178 Z" unicode="ñ" />
<glyph horiz-adv-x="1044" d="M 430 -23 C 369 -23 313 -13 261 5 C 209 24 165 53 127 91 C 89 129 59 177 38 235 C 16 292 6 359 6 436 C 6 552 21 652 51 737 C 81 822 121 892 171 948 C 221 1004 278 1045 344 1073 C 409 1100 477 1114 547 1114 C 607 1114 663 1104 715 1086 C 767 1067 812 1039 850 1001 C 888 963 918 916 940 859 C 962 801 973 734 973 657 C 973 570 964 493 948 426 C 932 358 910 299 882 249 C 854 199 822 156 786 122 C 749 87 710 59 670 38 C 630 16 589 1 548 -8 C 506 -18 467 -23 430 -23 Z M 444 209 C 500 209 546 234 580 286 C 614 337 639 418 657 530 C 662 559 666 586 669 612 C 672 638 674 662 674 686 C 674 744 663 789 642 823 C 620 857 585 874 535 874 C 478 874 432 849 397 799 C 362 749 336 669 319 559 C 315 529 311 500 309 474 C 306 448 305 423 305 401 C 305 343 315 296 337 261 C 358 226 394 209 444 209 Z M 340 1542 L 627 1542 L 738 1202 L 541 1202 L 340 1542 Z" unicode="ò" />
<glyph horiz-adv-x="1044" d="M 658 1542 L 963 1542 L 656 1202 L 439 1202 L 658 1542 Z M 430 -23 C 369 -23 313 -13 261 5 C 209 24 165 53 127 91 C 89 129 59 177 38 235 C 16 292 6 359 6 436 C 6 552 21 652 51 737 C 81 822 121 892 171 948 C 221 1004 278 1045 344 1073 C 409 1100 477 1114 547 1114 C 607 1114 663 1104 715 1086 C 767 1067 812 1039 850 1001 C 888 963 918 916 940 859 C 962 801 973 734 973 657 C 973 570 964 493 948 426 C 932 358 910 299 882 249 C 854 199 822 156 786 122 C 749 87 710 59 670 38 C 630 16 589 1 548 -8 C 506 -18 467 -23 430 -23 Z M 444 209 C 500 209 546 234 580 286 C 614 337 639 418 657 530 C 662 559 666 586 669 612 C 672 638 674 662 674 686 C 674 744 663 789 642 823 C 620 857 585 874 535 874 C 478 874 432 849 397 799 C 362 749 336 669 319 559 C 315 529 311 500 309 474 C 306 448 305 423 305 401 C 305 343 315 296 337 261 C 358 226 394 209 444 209 Z" unicode="ó" />
<glyph horiz-adv-x="1044" d="M 545 1542 L 748 1542 L 918 1202 L 744 1202 L 617 1348 L 441 1202 L 267 1202 L 545 1542 Z M 430 -23 C 369 -23 313 -13 261 5 C 209 24 165 53 127 91 C 89 129 59 177 38 235 C 16 292 6 359 6 436 C 6 552 21 652 51 737 C 81 822 121 892 171 948 C 221 1004 278 1045 344 1073 C 409 1100 477 1114 547 1114 C 607 1114 663 1104 715 1086 C 767 1067 812 1039 850 1001 C 888 963 918 916 940 859 C 962 801 973 734 973 657 C 973 570 964 493 948 426 C 932 358 910 299 882 249 C 854 199 822 156 786 122 C 749 87 710 59 670 38 C 630 16 589 1 548 -8 C 506 -18 467 -23 430 -23 Z M 444 209 C 500 209 546 234 580 286 C 614 337 639 418 657 530 C 662 559 666 586 669 612 C 672 638 674 662 674 686 C 674 744 663 789 642 823 C 620 857 585 874 535 874 C 478 874 432 849 397 799 C 362 749 336 669 319 559 C 315 529 311 500 309 474 C 306 448 305 423 305 401 C 305 343 315 296 337 261 C 358 226 394 209 444 209 Z" unicode="ô" />
<glyph horiz-adv-x="1044" d="M 430 -23 C 369 -23 313 -13 261 5 C 209 24 165 53 127 91 C 89 129 59 177 38 235 C 16 292 6 359 6 436 C 6 552 21 652 51 737 C 81 822 121 892 171 948 C 221 1004 278 1045 344 1073 C 409 1100 477 1114 547 1114 C 607 1114 663 1104 715 1086 C 767 1067 812 1039 850 1001 C 888 963 918 916 940 859 C 962 801 973 734 973 657 C 973 570 964 493 948 426 C 932 358 910 299 882 249 C 854 199 822 156 786 122 C 749 87 710 59 670 38 C 630 16 589 1 548 -8 C 506 -18 467 -23 430 -23 Z M 444 209 C 500 209 546 234 580 286 C 614 337 639 418 657 530 C 662 559 666 586 669 612 C 672 638 674 662 674 686 C 674 744 663 789 642 823 C 620 857 585 874 535 874 C 478 874 432 849 397 799 C 362 749 336 669 319 559 C 315 529 311 500 309 474 C 306 448 305 423 305 401 C 305 343 315 296 337 261 C 358 226 394 209 444 209 Z M 752 1178 C 726 1178 704 1180 684 1186 C 664 1192 646 1199 630 1207 C 614 1215 599 1225 587 1235 C 574 1245 562 1254 551 1262 C 539 1270 528 1277 517 1283 C 506 1289 494 1292 482 1292 C 459 1292 440 1283 424 1267 C 408 1250 397 1222 391 1182 L 234 1182 C 240 1238 251 1286 267 1327 C 283 1367 302 1401 324 1428 C 346 1454 371 1474 398 1487 C 424 1500 452 1507 480 1507 C 518 1507 549 1501 575 1489 C 601 1477 624 1464 644 1450 C 664 1436 682 1423 698 1411 C 714 1399 732 1393 752 1393 C 774 1393 793 1401 808 1417 C 823 1433 834 1461 840 1503 L 998 1503 C 991 1445 980 1395 964 1354 C 948 1313 928 1280 906 1254 C 884 1228 859 1208 833 1196 C 807 1184 780 1178 752 1178 Z" unicode="õ" />
<glyph horiz-adv-x="1044" d="M 705 1479 L 959 1479 L 914 1196 L 660 1196 L 705 1479 Z M 316 1479 L 572 1479 L 527 1196 L 271 1196 L 316 1479 Z M 430 -23 C 369 -23 313 -13 261 5 C 209 24 165 53 127 91 C 89 129 59 177 38 235 C 16 292 6 359 6 436 C 6 552 21 652 51 737 C 81 822 121 892 171 948 C 221 1004 278 1045 344 1073 C 409 1100 477 1114 547 1114 C 607 1114 663 1104 715 1086 C 767 1067 812 1039 850 1001 C 888 963 918 916 940 859 C 962 801 973 734 973 657 C 973 570 964 493 948 426 C 932 358 910 299 882 249 C 854 199 822 156 786 122 C 749 87 710 59 670 38 C 630 16 589 1 548 -8 C 506 -18 467 -23 430 -23 Z M 444 209 C 500 209 546 234 580 286 C 614 337 639 418 657 530 C 662 559 666 586 669 612 C 672 638 674 662 674 686 C 674 744 663 789 642 823 C 620 857 585 874 535 874 C 478 874 432 849 397 799 C 362 749 336 669 319 559 C 315 529 311 500 309 474 C 306 448 305 423 305 401 C 305 343 315 296 337 261 C 358 226 394 209 444 209 Z" unicode="ö" />
<glyph horiz-adv-x="1157" d="M 446 1208 L 702 1208 L 702 961 L 446 961 L 446 1208 Z M 106 823 L 1044 823 L 1044 575 L 106 575 L 106 823 Z M 446 436 L 702 436 L 702 186 L 446 186 L 446 436 Z" unicode="÷" />
<glyph horiz-adv-x="1055" d="M -68 0 L 70 165 C 49 201 33 241 22 286 C 11 330 6 380 6 436 C 6 552 21 652 51 737 C 81 822 121 892 171 948 C 221 1004 278 1045 344 1073 C 409 1100 477 1114 547 1114 C 596 1114 642 1107 685 1095 C 728 1083 768 1064 804 1040 L 926 1184 L 1047 1098 L 907 929 C 928 893 944 853 956 808 C 967 763 973 713 973 657 C 973 570 964 493 948 426 C 932 358 910 299 882 249 C 854 199 822 156 786 122 C 749 87 710 59 670 38 C 630 16 589 1 548 -8 C 506 -18 467 -23 430 -23 C 380 -23 333 -16 290 -4 C 246 8 207 27 171 53 L 53 -88 L -68 0 Z M 444 203 C 500 203 547 229 584 282 C 621 335 648 418 666 530 C 670 555 673 579 675 601 C 677 623 679 645 680 667 L 333 256 C 357 220 394 203 444 203 Z M 313 559 C 308 533 304 509 302 487 C 300 465 298 444 297 424 L 640 835 C 628 849 613 861 596 869 C 578 877 558 881 535 881 C 478 881 431 854 394 802 C 357 750 330 669 313 559 Z" unicode="ø" />
<glyph horiz-adv-x="1073" d="M 256 -23 C 212 -23 173 -18 140 -8 C 107 2 80 18 60 41 C 40 63 26 93 20 130 C 13 166 14 211 23 264 L 154 1092 L 455 1092 L 338 352 C 330 310 332 279 343 258 C 354 237 378 227 414 227 C 444 227 476 235 509 252 C 541 268 572 288 600 311 L 723 1092 L 1026 1092 L 852 0 L 551 0 L 571 137 C 555 118 536 99 514 80 C 492 61 467 44 440 29 C 413 13 384 1 353 -8 C 322 -18 290 -23 256 -23 Z M 354 1542 L 641 1542 L 752 1202 L 555 1202 L 354 1542 Z" unicode="ù" />
<glyph horiz-adv-x="1073" d="M 672 1542 L 977 1542 L 670 1202 L 453 1202 L 672 1542 Z M 256 -23 C 212 -23 173 -18 140 -8 C 107 2 80 18 60 41 C 40 63 26 93 20 130 C 13 166 14 211 23 264 L 154 1092 L 455 1092 L 338 352 C 330 310 332 279 343 258 C 354 237 378 227 414 227 C 444 227 476 235 509 252 C 541 268 572 288 600 311 L 723 1092 L 1026 1092 L 852 0 L 551 0 L 571 137 C 555 118 536 99 514 80 C 492 61 467 44 440 29 C 413 13 384 1 353 -8 C 322 -18 290 -23 256 -23 Z" unicode="ú" />
<glyph horiz-adv-x="1073" d="M 559 1542 L 762 1542 L 932 1202 L 758 1202 L 631 1348 L 455 1202 L 281 1202 L 559 1542 Z M 256 -23 C 212 -23 173 -18 140 -8 C 107 2 80 18 60 41 C 40 63 26 93 20 130 C 13 166 14 211 23 264 L 154 1092 L 455 1092 L 338 352 C 330 310 332 279 343 258 C 354 237 378 227 414 227 C 444 227 476 235 509 252 C 541 268 572 288 600 311 L 723 1092 L 1026 1092 L 852 0 L 551 0 L 571 137 C 555 118 536 99 514 80 C 492 61 467 44 440 29 C 413 13 384 1 353 -8 C 322 -18 290 -23 256 -23 Z" unicode="û" />
<glyph horiz-adv-x="1073" d="M 719 1479 L 973 1479 L 928 1196 L 674 1196 L 719 1479 Z M 330 1479 L 586 1479 L 541 1196 L 285 1196 L 330 1479 Z M 256 -23 C 212 -23 173 -18 140 -8 C 107 2 80 18 60 41 C 40 63 26 93 20 130 C 13 166 14 211 23 264 L 154 1092 L 455 1092 L 338 352 C 330 310 332 279 343 258 C 354 237 378 227 414 227 C 444 227 476 235 509 252 C 541 268 572 288 600 311 L 723 1092 L 1026 1092 L 852 0 L 551 0 L 571 137 C 555 118 536 99 514 80 C 492 61 467 44 440 29 C 413 13 384 1 353 -8 C 322 -18 290 -23 256 -23 Z" unicode="ü" />
<glyph horiz-adv-x="965" d="M 68 -414 C 5 -414 -48 -410 -92 -403 C -136 -395 -171 -387 -195 -377 L -100 -139 C -86 -145 -66 -151 -39 -157 C -11 -163 17 -166 47 -166 C 65 -166 80 -164 94 -160 C 108 -156 120 -151 131 -143 C 141 -135 151 -124 160 -112 C 169 -99 178 -84 188 -66 L 213 -12 L 53 1092 L 367 1092 L 397 668 C 399 604 403 546 409 492 C 414 438 418 384 420 330 L 424 330 C 435 362 446 391 456 418 C 466 444 477 471 488 498 C 499 524 510 552 522 580 C 533 608 545 640 559 674 L 723 1092 L 1016 1092 L 457 -106 C 430 -163 403 -211 377 -250 C 351 -289 323 -321 293 -345 C 263 -369 229 -387 193 -398 C 156 -408 114 -414 68 -414 Z M 620 1542 L 925 1542 L 618 1202 L 401 1202 L 620 1542 Z" unicode="ý" />
<glyph horiz-adv-x="1073" d="M 223 1516 L 526 1516 L 438 963 C 455 983 473 1003 493 1022 C 512 1040 533 1056 556 1070 C 579 1083 604 1094 631 1102 C 658 1110 688 1114 721 1114 C 765 1114 804 1106 840 1091 C 875 1075 905 1052 929 1021 C 953 989 972 950 986 903 C 999 855 1006 799 1006 735 C 1006 706 1004 675 1001 643 C 997 611 993 577 987 541 C 971 443 950 359 922 289 C 894 219 861 161 823 116 C 785 70 744 37 698 16 C 652 -5 603 -16 551 -16 C 486 -16 434 -4 395 18 C 356 40 325 71 303 109 L 221 -410 L -82 -410 L 223 1516 Z M 475 219 C 501 219 525 225 547 237 C 569 249 588 267 605 293 C 622 319 637 352 650 392 C 663 432 674 481 684 539 C 688 567 691 593 694 617 C 696 641 698 663 698 684 C 698 800 655 858 569 858 C 535 858 506 850 482 835 C 457 819 433 800 410 778 L 334 295 C 354 268 376 249 398 237 C 420 225 446 219 475 219 Z" unicode="þ" />
<glyph horiz-adv-x="965" d="M 68 -414 C 5 -414 -48 -410 -92 -403 C -136 -395 -171 -387 -195 -377 L -100 -139 C -86 -145 -66 -151 -39 -157 C -11 -163 17 -166 47 -166 C 65 -166 80 -164 94 -160 C 108 -156 120 -151 131 -143 C 141 -135 151 -124 160 -112 C 169 -99 178 -84 188 -66 L 213 -12 L 53 1092 L 367 1092 L 397 668 C 399 604 403 546 409 492 C 414 438 418 384 420 330 L 424 330 C 435 362 446 391 456 418 C 466 444 477 471 488 498 C 499 524 510 552 522 580 C 533 608 545 640 559 674 L 723 1092 L 1016 1092 L 457 -106 C 430 -163 403 -211 377 -250 C 351 -289 323 -321 293 -345 C 263 -369 229 -387 193 -398 C 156 -408 114 -414 68 -414 Z M 667 1479 L 921 1479 L 876 1196 L 622 1196 L 667 1479 Z M 278 1479 L 534 1479 L 489 1196 L 233 1196 L 278 1479 Z" unicode="ÿ" />
<glyph horiz-adv-x="1219" d="" unicode="Ā" />
<glyph horiz-adv-x="997" d="" unicode="ā" />
<glyph horiz-adv-x="1219" d="" unicode="Ă" />
<glyph horiz-adv-x="997" d="" unicode="ă" />
<glyph horiz-adv-x="1219" d="" unicode="Ą" />
<glyph horiz-adv-x="997" d="" unicode="ą" />
<glyph horiz-adv-x="1219" d="" unicode="Ć" />
<glyph horiz-adv-x="965" d="" unicode="ć" />
<glyph horiz-adv-x="1219" d="" unicode="Ĉ" />
<glyph horiz-adv-x="965" d="" unicode="ĉ" />
<glyph horiz-adv-x="1219" d="" unicode="Ċ" />
<glyph horiz-adv-x="965" d="" unicode="ċ" />
<glyph horiz-adv-x="1219" d="" unicode="Č" />
<glyph horiz-adv-x="965" d="" unicode="č" />
<glyph horiz-adv-x="1262" d="" unicode="Ď" />
<glyph horiz-adv-x="1073" d="" unicode="ď" />
<glyph horiz-adv-x="1262" d="" unicode="Đ" />
<glyph horiz-adv-x="1073" d="" unicode="đ" />
<glyph horiz-adv-x="1057" d="" unicode="Ē" />
<glyph horiz-adv-x="991" d="" unicode="ē" />
<glyph horiz-adv-x="1057" d="" unicode="Ĕ" />
<glyph horiz-adv-x="991" d="" unicode="ĕ" />
<glyph horiz-adv-x="1057" d="" unicode="Ė" />
<glyph horiz-adv-x="991" d="" unicode="ė" />
<glyph horiz-adv-x="1057" d="" unicode="Ę" />
<glyph horiz-adv-x="991" d="" unicode="ę" />
<glyph horiz-adv-x="1057" d="" unicode="Ě" />
<glyph horiz-adv-x="991" d="" unicode="ě" />
<glyph horiz-adv-x="1282" d="" unicode="Ĝ" />
<glyph horiz-adv-x="1057" d="" unicode="ĝ" />
<glyph horiz-adv-x="1282" d="" unicode="Ğ" />
<glyph horiz-adv-x="1057" d="" unicode="ğ" />
<glyph horiz-adv-x="1282" d="" unicode="Ġ" />
<glyph horiz-adv-x="1057" d="" unicode="ġ" />
<glyph horiz-adv-x="1282" d="" unicode="Ģ" />
<glyph horiz-adv-x="1057" d="" unicode="ģ" />
<glyph horiz-adv-x="1305" d="" unicode="Ĥ" />
<glyph horiz-adv-x="1073" d="" unicode="ĥ" />
<glyph horiz-adv-x="1305" d="" unicode="Ħ" />
<glyph horiz-adv-x="1073" d="" unicode="ħ" />
<glyph horiz-adv-x="584" d="" unicode="Ĩ" />
<glyph horiz-adv-x="528" d="" unicode="ĩ" />
<glyph horiz-adv-x="584" d="" unicode="Ī" />
<glyph horiz-adv-x="528" d="" unicode="ī" />
<glyph horiz-adv-x="584" d="" unicode="Ĭ" />
<glyph horiz-adv-x="528" d="" unicode="ĭ" />
<glyph horiz-adv-x="584" d="" unicode="Į" />
<glyph horiz-adv-x="528" d="" unicode="į" />
<glyph horiz-adv-x="584" d="" unicode="İ" />
<glyph horiz-adv-x="528" d="M 168 1092 L 469 1092 L 297 0 L -6 0 L 168 1092 Z" unicode="ı" />
<glyph horiz-adv-x="1452" d="" unicode="Ĳ" />
<glyph horiz-adv-x="1057" d="" unicode="ĳ" />
<glyph horiz-adv-x="930" d="" unicode="Ĵ" />
<glyph horiz-adv-x="528" d="" unicode="ĵ" />
<glyph horiz-adv-x="1221" d="" unicode="Ķ" />
<glyph horiz-adv-x="1001" d="" unicode="ķ" />
<glyph horiz-adv-x="1001" d="" unicode="ĸ" />
<glyph horiz-adv-x="1028" d="" unicode="Ĺ" />
<glyph horiz-adv-x="528" d="" unicode="ĺ" />
<glyph horiz-adv-x="1028" d="" unicode="Ļ" />
<glyph horiz-adv-x="528" d="" unicode="ļ" />
<glyph horiz-adv-x="1028" d="" unicode="Ľ" />
<glyph horiz-adv-x="528" d="" unicode="ľ" />
<glyph horiz-adv-x="1092" d="" unicode="Ŀ" />
<glyph horiz-adv-x="834" d="" unicode="ŀ" />
<glyph horiz-adv-x="1032" d="" unicode="Ł" />
<glyph horiz-adv-x="612" d="" unicode="ł" />
<glyph horiz-adv-x="1315" d="" unicode="Ń" />
<glyph horiz-adv-x="1073" d="" unicode="ń" />
<glyph horiz-adv-x="1315" d="" unicode="Ņ" />
<glyph horiz-adv-x="1073" d="" unicode="ņ" />
<glyph horiz-adv-x="1315" d="" unicode="Ň" />
<glyph horiz-adv-x="1073" d="" unicode="ň" />
<glyph horiz-adv-x="1315" d="" unicode="Ŋ" />
<glyph horiz-adv-x="1073" d="" unicode="ŋ" />
<glyph horiz-adv-x="1315" d="" unicode="Ō" />
<glyph horiz-adv-x="1044" d="" unicode="ō" />
<glyph horiz-adv-x="1315" d="" unicode="Ŏ" />
<glyph horiz-adv-x="1044" d="" unicode="ŏ" />
<glyph horiz-adv-x="1315" d="" unicode="Ő" />
<glyph horiz-adv-x="1044" d="" unicode="ő" />
<glyph horiz-adv-x="1868" d="M 865 83 C 817 45 769 17 719 -1 C 669 -19 621 -29 573 -29 C 495 -29 423 -16 359 10 C 295 36 240 74 194 126 C 148 178 112 242 87 318 C 61 394 49 483 49 584 C 49 736 67 872 104 992 C 141 1111 191 1211 254 1293 C 317 1375 391 1437 475 1480 C 559 1522 648 1544 743 1544 C 886 1544 997 1498 1075 1407 L 1092 1516 L 1907 1516 L 1864 1253 L 1327 1253 L 1274 911 L 1655 911 L 1616 666 L 1235 666 L 1169 256 L 1735 256 L 1694 0 L 852 0 L 865 83 Z M 588 229 C 626 229 662 238 695 256 C 728 274 758 300 785 333 C 812 365 836 404 857 449 C 878 494 896 543 910 596 C 924 648 935 704 943 763 C 950 821 954 881 954 942 C 954 1048 935 1131 898 1191 C 860 1250 803 1280 727 1280 C 667 1280 615 1260 569 1220 C 523 1180 485 1126 455 1060 C 424 994 401 918 385 832 C 369 746 362 658 362 567 C 362 514 366 467 376 425 C 385 383 399 347 418 318 C 436 289 460 267 488 252 C 516 236 550 229 588 229 Z" unicode="Œ" />
<glyph horiz-adv-x="1634" d="M 1071 -23 C 1000 -23 939 -12 887 10 C 835 32 793 66 760 112 C 735 87 709 66 682 49 C 655 32 627 18 599 8 C 571 -2 542 -10 514 -15 C 485 -20 457 -23 430 -23 C 369 -23 313 -13 261 5 C 209 24 165 53 127 91 C 89 129 59 177 38 235 C 16 292 6 359 6 436 C 6 552 21 652 51 737 C 81 822 121 892 171 948 C 221 1004 278 1045 344 1073 C 409 1100 477 1114 547 1114 C 614 1114 674 1102 726 1079 C 778 1056 822 1021 856 974 C 900 1021 949 1056 1003 1079 C 1057 1102 1114 1114 1174 1114 C 1236 1114 1291 1106 1339 1090 C 1387 1074 1427 1049 1461 1015 C 1494 981 1519 937 1537 884 C 1554 831 1563 768 1563 694 C 1563 668 1561 642 1558 614 C 1555 586 1552 557 1548 526 L 1540 471 L 943 471 C 941 449 940 428 940 410 C 940 338 953 286 981 253 C 1008 219 1049 203 1104 203 C 1126 203 1148 206 1170 214 C 1192 222 1213 232 1233 245 C 1253 258 1271 273 1289 290 C 1307 307 1323 325 1337 344 L 1497 197 C 1441 129 1378 76 1308 36 C 1238 -3 1159 -23 1071 -23 Z M 444 209 C 500 209 546 234 580 286 C 614 337 639 418 657 530 C 662 559 666 586 669 612 C 672 638 674 662 674 686 C 674 744 663 789 642 823 C 620 857 585 874 535 874 C 478 874 432 849 397 799 C 362 749 336 669 319 559 C 315 529 311 500 309 474 C 306 448 305 423 305 401 C 305 343 315 296 337 261 C 358 226 394 209 444 209 Z M 1167 883 C 1074 883 1008 803 970 643 L 1290 643 C 1298 722 1294 782 1276 822 C 1258 862 1221 883 1167 883 Z" unicode="œ" />
<glyph horiz-adv-x="1194" d="" unicode="Ŕ" />
<glyph horiz-adv-x="735" d="" unicode="ŕ" />
<glyph horiz-adv-x="1194" d="" unicode="Ŗ" />
<glyph horiz-adv-x="735" d="" unicode="ŗ" />
<glyph horiz-adv-x="1194" d="" unicode="Ř" />
<glyph horiz-adv-x="735" d="" unicode="ř" />
<glyph horiz-adv-x="1184" d="" unicode="Ś" />
<glyph horiz-adv-x="930" d="" unicode="ś" />
<glyph horiz-adv-x="1184" d="" unicode="Ŝ" />
<glyph horiz-adv-x="930" d="" unicode="ŝ" />
<glyph horiz-adv-x="1184" d="" unicode="Ş" />
<glyph horiz-adv-x="930" d="" unicode="ş" />
<glyph horiz-adv-x="1184" d="M 455 1947 L 629 1947 L 756 1802 L 932 1947 L 1106 1947 L 828 1607 L 623 1607 L 455 1947 Z M 537 -27 C 451 -27 377 -18 315 0 C 253 17 200 41 157 73 C 114 105 79 143 52 187 C 24 231 2 280 -14 334 L 256 459 C 267 427 281 396 297 367 C 313 338 332 313 356 291 C 379 269 406 252 438 240 C 470 227 507 221 549 221 C 577 221 604 225 628 233 C 652 241 673 253 691 269 C 709 285 723 304 733 328 C 743 351 748 378 748 408 C 748 438 739 466 723 490 C 706 514 684 536 657 558 C 629 579 598 599 563 619 C 528 639 492 659 456 681 C 419 703 383 726 348 751 C 313 775 282 803 255 835 C 227 867 205 902 189 942 C 172 982 164 1027 164 1079 C 164 1158 178 1227 206 1285 C 234 1343 271 1392 317 1430 C 363 1468 415 1497 475 1516 C 534 1534 595 1544 659 1544 C 735 1544 800 1535 856 1518 C 911 1501 958 1477 997 1447 C 1036 1417 1068 1381 1093 1340 C 1117 1298 1137 1254 1153 1206 L 891 1075 C 880 1107 868 1136 854 1162 C 840 1188 823 1210 804 1229 C 784 1247 762 1262 736 1272 C 710 1282 679 1288 645 1288 C 620 1288 597 1284 576 1276 C 555 1268 537 1256 522 1242 C 506 1228 494 1210 486 1190 C 477 1169 473 1146 473 1120 C 473 1090 481 1062 498 1038 C 514 1014 536 991 564 970 C 591 948 622 928 657 908 C 692 888 728 867 765 845 C 801 823 837 799 872 774 C 907 748 938 720 966 688 C 993 656 1015 620 1032 580 C 1048 540 1057 494 1057 444 C 1057 371 1044 306 1020 248 C 995 190 960 140 915 100 C 869 59 815 28 751 6 C 687 -16 615 -27 537 -27 Z" unicode="Š" />
<glyph horiz-adv-x="930" d="M 267 1544 L 441 1544 L 568 1399 L 744 1544 L 918 1544 L 640 1204 L 435 1204 L 267 1544 Z M 391 -25 C 327 -25 271 -20 223 -11 C 175 -2 132 10 95 27 C 58 44 26 65 -1 89 C -29 113 -54 140 -76 170 L 109 340 C 127 318 147 297 169 279 C 191 260 214 244 239 230 C 263 216 289 205 317 197 C 345 189 373 186 403 186 C 419 186 436 188 452 192 C 468 196 482 202 494 210 C 506 218 516 230 524 244 C 531 258 535 275 535 295 C 535 314 528 331 515 346 C 501 361 484 375 463 388 C 441 400 417 413 389 425 C 361 437 333 450 304 464 C 275 478 247 493 219 511 C 191 528 167 548 146 571 C 124 594 107 621 94 652 C 80 682 74 718 74 758 C 74 821 85 875 109 920 C 133 965 164 1002 202 1031 C 240 1059 284 1080 332 1094 C 380 1107 429 1114 479 1114 C 574 1114 656 1097 724 1064 C 792 1031 847 988 887 934 L 702 768 C 684 787 666 804 650 820 C 633 836 616 849 598 860 C 580 871 560 880 540 886 C 520 892 497 895 473 895 C 458 895 444 892 431 888 C 417 884 405 877 395 869 C 385 860 377 849 371 836 C 365 823 362 808 362 791 C 362 771 368 753 381 738 C 394 723 411 709 433 696 C 455 683 479 671 507 659 C 534 647 562 635 591 621 C 620 607 648 592 676 576 C 703 559 727 540 749 518 C 771 496 788 471 801 443 C 814 414 821 381 821 344 C 821 276 808 219 784 173 C 759 126 726 88 686 59 C 645 29 599 8 548 -5 C 496 -18 444 -25 391 -25 Z" unicode="š" />
<glyph horiz-adv-x="1079" d="" unicode="Ţ" />
<glyph horiz-adv-x="752" d="" unicode="ţ" />
<glyph horiz-adv-x="1079" d="" unicode="Ť" />
<glyph horiz-adv-x="752" d="" unicode="ť" />
<glyph horiz-adv-x="1079" d="" unicode="Ŧ" />
<glyph horiz-adv-x="752" d="" unicode="ŧ" />
<glyph horiz-adv-x="1231" d="" unicode="Ũ" />
<glyph horiz-adv-x="1073" d="" unicode="ũ" />
<glyph horiz-adv-x="1231" d="" unicode="Ū" />
<glyph horiz-adv-x="1073" d="" unicode="ū" />
<glyph horiz-adv-x="1231" d="" unicode="Ŭ" />
<glyph horiz-adv-x="1073" d="" unicode="ŭ" />
<glyph horiz-adv-x="1231" d="" unicode="Ů" />
<glyph horiz-adv-x="1073" d="" unicode="ů" />
<glyph horiz-adv-x="1231" d="" unicode="Ű" />
<glyph horiz-adv-x="1073" d="" unicode="ű" />
<glyph horiz-adv-x="1231" d="" unicode="Ų" />
<glyph horiz-adv-x="1073" d="" unicode="ų" />
<glyph horiz-adv-x="1634" d="" unicode="Ŵ" />
<glyph horiz-adv-x="1346" d="" unicode="ŵ" />
<glyph horiz-adv-x="1157" d="" unicode="Ŷ" />
<glyph horiz-adv-x="965" d="" unicode="ŷ" />
<glyph horiz-adv-x="1157" d="M 397 596 L 127 1516 L 438 1516 L 598 879 L 602 879 L 963 1516 L 1272 1516 L 709 596 L 614 0 L 303 0 L 397 596 Z M 826 1882 L 1080 1882 L 1035 1599 L 781 1599 L 826 1882 Z M 437 1882 L 693 1882 L 648 1599 L 392 1599 L 437 1882 Z" unicode="Ÿ" />
<glyph horiz-adv-x="1108" d="" unicode="Ź" />
<glyph horiz-adv-x="903" d="" unicode="ź" />
<glyph horiz-adv-x="1108" d="" unicode="Ż" />
<glyph horiz-adv-x="903" d="" unicode="ż" />
<glyph horiz-adv-x="1108" d="M 416 1947 L 590 1947 L 717 1802 L 893 1947 L 1067 1947 L 789 1607 L 584 1607 L 416 1947 Z M -39 225 L 756 1253 L 170 1253 L 213 1516 L 1165 1516 L 1128 1284 L 344 256 L 967 256 L 926 0 L -74 0 L -39 225 Z" unicode="Ž" />
<glyph horiz-adv-x="903" d="M 253 1544 L 427 1544 L 554 1399 L 730 1544 L 904 1544 L 626 1204 L 421 1204 L 253 1544 Z M -47 168 L 494 868 L 100 868 L 137 1092 L 887 1092 L 858 915 L 317 217 L 780 217 L 745 0 L -74 0 L -47 168 Z" unicode="ž" />
<glyph horiz-adv-x="784" d="M 49 690 L 78 907 L 231 907 L 270 1192 C 276 1242 286 1287 302 1328 C 318 1368 341 1403 371 1432 C 401 1460 441 1482 489 1498 C 537 1514 597 1522 668 1522 C 680 1522 694 1521 710 1521 C 726 1520 741 1519 756 1518 C 770 1517 783 1516 795 1515 C 806 1514 814 1513 819 1513 L 788 1288 C 778 1289 766 1290 752 1292 C 737 1293 723 1294 709 1294 C 691 1294 675 1292 659 1290 C 643 1287 628 1281 616 1273 C 604 1265 593 1253 585 1238 C 576 1222 570 1202 567 1178 L 532 907 L 729 907 L 700 690 L 504 690 L 399 -109 C 393 -154 382 -195 367 -233 C 352 -271 330 -303 300 -330 C 270 -356 232 -377 185 -392 C 137 -406 78 -414 8 -414 C -5 -414 -20 -413 -36 -413 C -52 -413 -67 -412 -82 -411 C -96 -410 -109 -409 -121 -409 C -132 -408 -140 -407 -145 -406 L -117 -186 C -108 -188 -96 -190 -82 -192 C -67 -194 -53 -195 -41 -195 C 2 -195 35 -184 59 -163 C 83 -141 98 -105 106 -55 L 205 690 L 49 690 Z" unicode="ƒ" />
<glyph horiz-adv-x="975" d="" unicode="⁄" />
<glyph horiz-adv-x="1280" d="" unicode="∂" />
<glyph horiz-adv-x="1536" d="" unicode="∆" />
<glyph horiz-adv-x="1536" d="" unicode="∏" />
<glyph horiz-adv-x="1152" d="" unicode="∑" />
<glyph horiz-adv-x="1157" d="" unicode="−" />
<glyph horiz-adv-x="975" d="" unicode="∕" />
<glyph horiz-adv-x="1184" d="" unicode="Ș" />
<glyph horiz-adv-x="930" d="" unicode="ș" />
<glyph horiz-adv-x="1079" d="" unicode="Ț" />
<glyph horiz-adv-x="752" d="" unicode="ț" />
<glyph horiz-adv-x="1430" d="" unicode="∞" />
<glyph horiz-adv-x="1152" d="" unicode="∫" />
<glyph horiz-adv-x="1233" d="" unicode="≈" />
<glyph horiz-adv-x="1692" d="M 205 868 L 49 868 L 86 1092 L 240 1092 L 256 1192 C 263 1236 274 1279 288 1319 C 302 1359 323 1393 350 1423 C 377 1453 412 1476 455 1494 C 498 1511 552 1520 618 1520 C 633 1520 649 1519 665 1519 C 681 1519 697 1518 711 1518 C 725 1517 736 1516 746 1515 C 756 1514 762 1513 766 1513 L 729 1288 C 723 1289 714 1290 702 1292 C 690 1293 680 1294 670 1294 C 638 1294 612 1285 593 1267 C 573 1249 560 1220 553 1178 L 541 1092 L 786 1092 L 801 1192 C 807 1236 817 1279 831 1319 C 845 1359 865 1393 892 1423 C 919 1453 954 1476 998 1494 C 1042 1511 1097 1520 1165 1520 C 1180 1520 1196 1519 1212 1519 C 1228 1519 1242 1518 1256 1518 C 1270 1517 1281 1516 1291 1515 C 1301 1514 1307 1513 1311 1513 L 1276 1288 C 1270 1289 1260 1290 1248 1292 C 1236 1293 1224 1294 1214 1294 C 1177 1294 1150 1283 1133 1262 C 1116 1240 1105 1212 1100 1178 L 1085 1092 L 1235 1092 L 1200 868 L 1051 868 L 913 0 L 612 0 L 750 868 L 504 868 L 367 0 L 68 0 L 205 868 Z M 1401 1516 L 1702 1516 L 1460 0 L 1159 0 L 1401 1516 Z" unicode="ﬄ" />
<glyph horiz-adv-x="993" d="" unicode="ə" />
<glyph horiz-adv-x="1167" d="" unicode="≠" />
<glyph horiz-adv-x="1202" d="" unicode="≤" />
<glyph horiz-adv-x="1200" d="" unicode="≥" />
<glyph horiz-adv-x="930" d="" unicode="⁰" />
<glyph horiz-adv-x="862" d="" unicode="⁴" />
<glyph horiz-adv-x="840" d="" unicode="⁵" />
<glyph horiz-adv-x="874" d="" unicode="⁶" />
<glyph horiz-adv-x="985" d="M 516 1542 L 719 1542 L 889 1202 L 715 1202 L 588 1348 L 412 1202 L 238 1202 L 516 1542 Z" unicode="ˆ" />
<glyph horiz-adv-x="985" d="M 293 1544 L 467 1544 L 594 1399 L 770 1544 L 944 1544 L 666 1204 L 461 1204 L 293 1544 Z" unicode="ˇ" />
<glyph horiz-adv-x="768" d="" unicode="⁷" />
<glyph horiz-adv-x="866" d="" unicode="⁸" />
<glyph horiz-adv-x="874" d="" unicode="⁹" />
<glyph horiz-adv-x="985" d="" unicode="˘" />
<glyph horiz-adv-x="985" d="" unicode="˙" />
<glyph horiz-adv-x="985" d="M 571 1174 C 541 1174 515 1179 492 1189 C 469 1199 450 1214 434 1232 C 418 1250 405 1271 397 1295 C 389 1319 385 1344 385 1372 C 385 1410 391 1444 404 1475 C 417 1505 435 1532 457 1554 C 479 1576 504 1592 532 1604 C 560 1616 590 1622 621 1622 C 650 1622 676 1616 699 1606 C 722 1596 742 1582 758 1564 C 774 1546 786 1526 794 1502 C 802 1478 807 1452 807 1425 C 807 1387 800 1352 787 1322 C 774 1291 757 1265 735 1243 C 713 1221 688 1204 660 1192 C 632 1180 602 1174 571 1174 Z M 580 1292 C 594 1292 606 1295 618 1302 C 629 1308 639 1317 647 1329 C 655 1340 661 1353 665 1368 C 669 1383 672 1399 672 1415 C 672 1437 666 1457 656 1474 C 645 1490 629 1499 608 1499 C 594 1499 581 1495 570 1488 C 559 1481 550 1472 542 1461 C 534 1449 528 1436 524 1421 C 520 1406 518 1390 518 1374 C 518 1351 523 1332 533 1316 C 543 1300 558 1292 580 1292 Z" unicode="˚" />
<glyph horiz-adv-x="985" d="" unicode="˛" />
<glyph horiz-adv-x="985" d="M 723 1178 C 697 1178 675 1180 655 1186 C 635 1192 617 1199 601 1207 C 585 1215 570 1225 558 1235 C 545 1245 533 1254 522 1262 C 510 1270 499 1277 488 1283 C 477 1289 465 1292 453 1292 C 430 1292 411 1283 395 1267 C 379 1250 368 1222 362 1182 L 205 1182 C 211 1238 222 1286 238 1327 C 254 1367 273 1401 295 1428 C 317 1454 342 1474 369 1487 C 395 1500 423 1507 451 1507 C 489 1507 520 1501 546 1489 C 572 1477 595 1464 615 1450 C 635 1436 653 1423 669 1411 C 685 1399 703 1393 723 1393 C 745 1393 764 1401 779 1417 C 794 1433 805 1461 811 1503 L 969 1503 C 962 1445 951 1395 935 1354 C 919 1313 899 1280 877 1254 C 855 1228 830 1208 804 1196 C 778 1184 751 1178 723 1178 Z" unicode="˜" />
<glyph horiz-adv-x="985" d="" unicode="˝" />
<glyph horiz-adv-x="1257" d="M 205 868 L 49 868 L 86 1092 L 240 1092 L 256 1192 C 263 1236 274 1279 288 1319 C 302 1359 323 1393 350 1423 C 377 1453 412 1476 455 1494 C 498 1511 552 1520 618 1520 C 633 1520 649 1519 665 1519 C 681 1519 697 1518 711 1518 C 725 1517 736 1516 746 1515 C 756 1514 762 1513 766 1513 L 729 1288 C 723 1289 714 1290 702 1292 C 690 1293 680 1294 670 1294 C 638 1294 612 1285 593 1267 C 573 1249 560 1220 553 1178 L 541 1092 L 786 1092 L 801 1192 C 807 1236 818 1279 832 1319 C 846 1359 867 1393 896 1423 C 925 1453 964 1476 1012 1494 C 1060 1511 1121 1520 1196 1520 C 1211 1520 1227 1519 1245 1519 C 1263 1519 1279 1518 1295 1518 C 1311 1517 1324 1516 1336 1515 C 1347 1514 1354 1513 1358 1513 L 1321 1288 C 1317 1288 1313 1289 1307 1290 C 1301 1290 1294 1291 1286 1292 C 1278 1292 1271 1293 1264 1293 C 1256 1293 1250 1294 1245 1294 C 1226 1294 1209 1292 1193 1290 C 1177 1287 1162 1281 1150 1273 C 1138 1265 1127 1253 1119 1238 C 1110 1222 1104 1202 1100 1178 L 1085 1092 L 1282 1092 L 1245 868 L 1051 868 L 913 0 L 612 0 L 750 868 L 504 868 L 367 0 L 68 0 L 205 868 Z" unicode="ﬀ" />
<glyph horiz-adv-x="1147" d="M 848 1493 L 1151 1493 L 1110 1231 L 809 1231 L 848 1493 Z M 205 868 L 49 868 L 86 1092 L 240 1092 L 256 1192 C 263 1236 273 1279 287 1319 C 301 1359 321 1393 348 1423 C 374 1453 409 1476 453 1494 C 496 1511 551 1520 618 1520 C 633 1520 649 1519 665 1519 C 681 1519 697 1518 711 1518 C 725 1517 736 1516 746 1515 C 756 1514 762 1513 766 1513 L 729 1288 C 723 1289 714 1290 702 1292 C 690 1293 680 1294 670 1294 C 632 1294 605 1283 587 1262 C 569 1240 558 1212 553 1178 L 541 1092 L 690 1092 L 653 868 L 504 868 L 367 0 L 68 0 L 205 868 Z M 786 1092 L 1087 1092 L 915 0 L 612 0 L 786 1092 Z" unicode="ﬁ" />
<glyph horiz-adv-x="1147" d="M 205 868 L 49 868 L 86 1092 L 240 1092 L 256 1192 C 263 1236 273 1279 287 1319 C 301 1359 321 1393 348 1423 C 374 1453 409 1476 453 1494 C 496 1511 551 1520 618 1520 C 633 1520 649 1519 665 1519 C 681 1519 697 1518 711 1518 C 725 1517 736 1516 746 1515 C 756 1514 762 1513 766 1513 L 729 1288 C 723 1289 714 1290 702 1292 C 690 1293 680 1294 670 1294 C 632 1294 605 1283 587 1262 C 569 1240 558 1212 553 1178 L 541 1092 L 690 1092 L 653 868 L 504 868 L 367 0 L 68 0 L 205 868 Z M 854 1516 L 1155 1516 L 915 0 L 612 0 L 854 1516 Z" unicode="ﬂ" />
<glyph horiz-adv-x="1692" d="M 205 868 L 49 868 L 86 1092 L 240 1092 L 256 1192 C 263 1236 274 1279 288 1319 C 302 1359 323 1393 350 1423 C 377 1453 412 1476 455 1494 C 498 1511 552 1520 618 1520 C 633 1520 649 1519 665 1519 C 681 1519 697 1518 711 1518 C 725 1517 736 1516 746 1515 C 756 1514 762 1513 766 1513 L 729 1288 C 723 1289 714 1290 702 1292 C 690 1293 680 1294 670 1294 C 638 1294 612 1285 593 1267 C 573 1249 560 1220 553 1178 L 541 1092 L 786 1092 L 801 1192 C 807 1236 817 1279 831 1319 C 845 1359 865 1393 892 1423 C 919 1453 954 1476 998 1494 C 1042 1511 1097 1520 1165 1520 C 1180 1520 1196 1519 1212 1519 C 1228 1519 1242 1518 1256 1518 C 1270 1517 1281 1516 1291 1515 C 1301 1514 1307 1513 1311 1513 L 1276 1288 C 1270 1289 1260 1290 1248 1292 C 1236 1293 1224 1294 1214 1294 C 1177 1294 1150 1283 1133 1262 C 1116 1240 1105 1212 1100 1178 L 1085 1092 L 1235 1092 L 1200 868 L 1051 868 L 913 0 L 612 0 L 750 868 L 504 868 L 367 0 L 68 0 L 205 868 Z M 1331 1092 L 1634 1092 L 1460 0 L 1159 0 L 1331 1092 Z M 1395 1493 L 1698 1493 L 1657 1231 L 1354 1231 L 1395 1493 Z" unicode="ﬃ" />
<glyph horiz-adv-x="985" d="M 295 1417 L 901 1417 L 866 1196 L 260 1196 L 295 1417 Z" unicode="̄" />
<glyph horiz-adv-x="502" d="" unicode="̦" />
<glyph horiz-adv-x="1536" d="" unicode="Δ" />
<glyph horiz-adv-x="1664" d="" unicode="Ω" />
<glyph horiz-adv-x="1077" d="M 158 1092 L 459 1092 L 340 354 C 334 312 336 280 346 259 C 356 237 380 227 416 227 C 450 227 482 235 512 252 C 542 268 572 288 602 311 L 727 1092 L 1028 1092 L 854 0 L 555 0 L 575 141 C 563 127 549 112 534 98 C 519 83 502 69 484 56 C 466 43 446 31 424 21 C 402 10 380 2 356 -2 C 342 -3 329 -3 315 -1 C 301 1 292 6 289 14 L 221 -410 L -82 -410 L 158 1092 Z" unicode="μ" />
<glyph horiz-adv-x="1408" d="" unicode="π" />
<glyph horiz-adv-x="1272" d="M 72 995 L 250 995 C 270 1071 297 1143 331 1210 C 364 1276 404 1334 450 1384 C 496 1434 550 1473 610 1501 C 670 1529 737 1544 813 1544 C 893 1544 961 1533 1017 1511 C 1073 1489 1118 1459 1153 1419 C 1188 1379 1214 1330 1230 1273 C 1246 1215 1255 1151 1257 1079 L 969 1032 C 969 1066 967 1099 963 1131 C 959 1162 951 1189 939 1213 C 927 1236 911 1255 890 1269 C 868 1283 840 1290 805 1290 C 773 1290 744 1282 718 1267 C 692 1251 668 1230 647 1204 C 626 1177 608 1146 592 1110 C 576 1074 562 1035 550 995 L 836 995 L 807 817 L 510 817 C 506 793 503 770 500 748 C 497 725 495 703 493 682 L 786 682 L 758 504 L 483 504 L 483 477 C 483 436 486 400 492 368 C 498 336 509 308 523 286 C 537 264 555 247 578 235 C 600 223 628 217 662 217 C 688 217 713 222 735 232 C 757 242 778 259 798 281 C 817 303 835 331 852 366 C 868 400 885 442 901 492 L 1174 457 C 1152 389 1125 326 1093 267 C 1060 208 1021 157 977 113 C 933 69 883 34 828 9 C 772 -16 712 -29 647 -29 C 567 -29 499 -16 443 10 C 387 36 340 72 304 119 C 268 166 241 222 223 288 C 205 353 195 425 193 504 L -6 504 L 23 682 L 198 682 C 200 704 202 727 204 749 C 206 771 209 794 213 817 L 45 817 L 72 995 Z" unicode="€" />
<glyph horiz-adv-x="549" d="M 84 770 L 426 770 L 420 459 L 78 459 L 84 770 Z" unicode="∙" />
<glyph horiz-adv-x="1079" d="" unicode="√" />
<glyph horiz-adv-x="1079" d="M 430 770 L 55 743 L 98 1016 L 465 985 L 502 1516 L 817 1516 L 688 985 L 1065 1016 L 1020 743 L 653 770 L 512 -410 L 197 -410 L 430 770 Z" unicode="†" />
<glyph horiz-adv-x="1077" d="M 311 20 L -37 -12 L 4 252 L 342 223 L 358 557 L 449 883 L 100 856 L 143 1118 L 479 1087 L 502 1516 L 817 1516 L 705 1087 L 1053 1118 L 1010 856 L 672 883 L 657 557 L 567 223 L 913 252 L 872 -12 L 535 20 L 512 -410 L 197 -410 L 311 20 Z" unicode="‡" />
<glyph horiz-adv-x="948" d="M 467 455 C 429 455 395 461 363 475 C 331 488 303 506 280 530 C 256 553 238 581 225 613 C 211 645 205 679 205 717 C 205 755 211 790 225 822 C 238 854 256 881 280 905 C 303 929 331 947 363 961 C 395 974 429 981 467 981 C 505 981 540 974 572 961 C 604 947 631 929 655 905 C 679 881 697 854 711 822 C 724 790 731 755 731 717 C 731 679 724 645 711 613 C 697 581 679 553 655 530 C 631 506 604 488 572 475 C 540 461 505 455 467 455 Z" unicode="•" />
<glyph horiz-adv-x="1505" d="M 1030 311 L 1339 311 L 1290 0 L 981 0 L 1030 311 Z M 528 311 L 838 311 L 788 0 L 479 0 L 528 311 Z M 27 311 L 336 311 L 287 0 L -25 0 L 27 311 Z" unicode="…" />
<glyph horiz-adv-x="1155" d="" unicode="◊" />
<glyph horiz-adv-x="1567" d="" unicode="" />
<glyph horiz-adv-x="1634" d="" unicode="Ẁ" />
<glyph horiz-adv-x="1346" d="" unicode="ẁ" />
<glyph horiz-adv-x="1634" d="" unicode="Ẃ" />
<glyph horiz-adv-x="1346" d="" unicode="ẃ" />
<glyph horiz-adv-x="1634" d="" unicode="Ẅ" />
<glyph horiz-adv-x="1346" d="" unicode="ẅ" />
<glyph horiz-adv-x="1481" d="" unicode="℗" />
<glyph horiz-adv-x="2632" d="M 391 547 C 289 547 213 579 162 645 C 111 711 86 804 86 924 C 86 971 90 1021 98 1075 C 110 1155 130 1225 156 1283 C 182 1341 212 1388 248 1426 C 283 1463 323 1491 367 1509 C 411 1527 458 1536 508 1536 C 558 1536 602 1527 640 1511 C 678 1495 709 1471 735 1441 C 761 1410 780 1372 793 1328 C 806 1283 813 1232 813 1176 C 813 1148 812 1121 810 1093 C 808 1065 805 1038 801 1010 C 788 928 769 858 743 800 C 717 741 687 693 651 656 C 615 618 576 591 532 573 C 488 555 441 547 391 547 Z M 410 762 C 428 762 445 767 460 777 C 474 787 487 802 499 824 C 510 845 520 873 529 907 C 537 941 545 982 553 1030 C 558 1062 562 1091 566 1118 C 569 1144 571 1169 571 1192 C 571 1275 543 1317 489 1317 C 467 1317 449 1311 434 1301 C 419 1290 406 1274 395 1252 C 384 1230 375 1203 367 1171 C 359 1138 352 1099 346 1055 C 340 1021 336 991 334 964 C 331 936 330 912 330 891 C 330 847 336 815 349 794 C 361 772 382 762 410 762 Z M 1366 -18 C 1264 -18 1187 14 1136 80 C 1084 145 1059 238 1059 358 C 1059 383 1060 408 1063 433 C 1065 457 1069 483 1073 510 C 1085 590 1103 659 1129 717 C 1155 775 1185 823 1221 861 C 1257 898 1297 926 1341 944 C 1385 962 1433 971 1483 971 C 1532 971 1576 962 1614 946 C 1652 930 1683 906 1709 876 C 1735 845 1754 807 1768 762 C 1781 717 1788 666 1788 610 C 1788 555 1784 500 1776 444 C 1762 362 1743 292 1717 234 C 1691 176 1661 128 1626 91 C 1590 53 1551 26 1507 8 C 1463 -9 1416 -18 1366 -18 Z M 1382 197 C 1401 197 1418 201 1433 211 C 1447 221 1460 236 1472 258 C 1484 280 1494 308 1503 342 C 1511 376 1520 417 1528 465 C 1533 497 1537 526 1540 553 C 1542 579 1544 604 1544 627 C 1544 710 1517 752 1464 752 C 1442 752 1424 746 1409 736 C 1394 725 1381 709 1370 687 C 1359 665 1350 638 1342 605 C 1334 572 1326 533 1319 489 C 1315 456 1311 426 1309 399 C 1306 371 1305 347 1305 326 C 1305 240 1330 197 1382 197 Z M 2128 -18 C 2026 -18 1949 14 1898 80 C 1846 145 1821 238 1821 358 C 1821 383 1822 408 1824 433 C 1826 457 1829 483 1833 510 C 1845 590 1865 659 1891 717 C 1917 775 1947 823 1983 861 C 2019 898 2059 926 2103 944 C 2147 962 2195 971 2245 971 C 2294 971 2338 962 2376 946 C 2414 930 2445 906 2471 876 C 2497 845 2516 807 2530 762 C 2543 717 2550 666 2550 610 C 2550 583 2549 556 2547 528 C 2545 500 2541 472 2537 444 C 2524 362 2505 292 2479 234 C 2453 176 2423 128 2388 91 C 2352 53 2313 26 2269 8 C 2225 -9 2178 -18 2128 -18 Z M 2144 197 C 2162 197 2179 201 2194 211 C 2209 221 2222 236 2234 258 C 2245 280 2255 308 2264 342 C 2273 376 2282 417 2290 465 C 2295 497 2299 526 2302 553 C 2304 579 2306 604 2306 627 C 2306 710 2279 752 2226 752 C 2204 752 2186 746 2171 736 C 2155 725 2142 709 2131 687 C 2120 665 2111 638 2103 605 C 2095 572 2087 533 2081 489 C 2071 423 2066 369 2066 326 C 2066 240 2092 197 2144 197 Z M 1303 1516 L 1552 1516 L 565 0 L 315 0 L 1303 1516 Z" unicode="‰" />
<glyph horiz-adv-x="1614" d="M 795 1516 L 1065 1516 L 1196 940 L 1329 1516 L 1597 1516 L 1597 645 L 1401 645 L 1401 1206 L 1272 645 L 1106 645 L 975 1204 L 975 645 L 795 645 L 795 1516 Z M 305 1333 L 111 1333 L 111 1516 L 700 1516 L 700 1333 L 506 1333 L 506 645 L 305 645 L 305 1333 Z" unicode="™" />
<glyph horiz-adv-x="471" d="" unicode="′" />
<glyph horiz-adv-x="1664" d="" unicode="Ω" />
<glyph horiz-adv-x="1157" d="" unicode="Ỳ" />
<glyph horiz-adv-x="965" d="" unicode="ỳ" />
<glyph horiz-adv-x="836" d="" unicode="″" />
<glyph horiz-adv-x="1079" d="" unicode="✓" />
<glyph horiz-adv-x="645" d="M 4 543 L 367 1085 L 649 1085 L 297 543 L 477 0 L 195 0 L 4 543 Z" unicode="‹" />
<glyph horiz-adv-x="645" d="M 283 543 L 102 1085 L 385 1085 L 575 543 L 215 0 L -70 0 L 283 543 Z" unicode="›" />
</font>
</defs>
</svg>
